%TF.GenerationSoftware,KiCad,Pcbnew,8.0.6-1.fc40*%
%TF.CreationDate,2025-02-15T18:39:24+01:00*%
%TF.ProjectId,airMouse-thumb,6169724d-6f75-4736-952d-7468756d622e,RC1*%
%TF.SameCoordinates,Original*%
%TF.FileFunction,Legend,Top*%
%TF.FilePolarity,Positive*%
%FSLAX46Y46*%
G04 Gerber Fmt 4.6, Leading zero omitted, Abs format (unit mm)*
G04 Created by KiCad (PCBNEW 8.0.6-1.fc40) date 2025-02-15 18:39:24*
%MOMM*%
%LPD*%
G01*
G04 APERTURE LIST*
%ADD10C,0.080000*%
%ADD11C,0.150000*%
%ADD12C,0.100000*%
%ADD13C,0.120000*%
G04 APERTURE END LIST*
D10*
X159333334Y-60203340D02*
X159404762Y-60227149D01*
X159404762Y-60227149D02*
X159523810Y-60227149D01*
X159523810Y-60227149D02*
X159571429Y-60203340D01*
X159571429Y-60203340D02*
X159595238Y-60179530D01*
X159595238Y-60179530D02*
X159619048Y-60131911D01*
X159619048Y-60131911D02*
X159619048Y-60084292D01*
X159619048Y-60084292D02*
X159595238Y-60036673D01*
X159595238Y-60036673D02*
X159571429Y-60012863D01*
X159571429Y-60012863D02*
X159523810Y-59989054D01*
X159523810Y-59989054D02*
X159428572Y-59965244D01*
X159428572Y-59965244D02*
X159380953Y-59941435D01*
X159380953Y-59941435D02*
X159357143Y-59917625D01*
X159357143Y-59917625D02*
X159333334Y-59870006D01*
X159333334Y-59870006D02*
X159333334Y-59822387D01*
X159333334Y-59822387D02*
X159357143Y-59774768D01*
X159357143Y-59774768D02*
X159380953Y-59750959D01*
X159380953Y-59750959D02*
X159428572Y-59727149D01*
X159428572Y-59727149D02*
X159547619Y-59727149D01*
X159547619Y-59727149D02*
X159619048Y-59750959D01*
X159785714Y-59727149D02*
X159904762Y-60227149D01*
X159904762Y-60227149D02*
X160000000Y-59870006D01*
X160000000Y-59870006D02*
X160095238Y-60227149D01*
X160095238Y-60227149D02*
X160214286Y-59727149D01*
X160380953Y-59774768D02*
X160404762Y-59750959D01*
X160404762Y-59750959D02*
X160452381Y-59727149D01*
X160452381Y-59727149D02*
X160571429Y-59727149D01*
X160571429Y-59727149D02*
X160619048Y-59750959D01*
X160619048Y-59750959D02*
X160642857Y-59774768D01*
X160642857Y-59774768D02*
X160666667Y-59822387D01*
X160666667Y-59822387D02*
X160666667Y-59870006D01*
X160666667Y-59870006D02*
X160642857Y-59941435D01*
X160642857Y-59941435D02*
X160357143Y-60227149D01*
X160357143Y-60227149D02*
X160666667Y-60227149D01*
X160457392Y-56684649D02*
X160290726Y-56446554D01*
X160171678Y-56684649D02*
X160171678Y-56184649D01*
X160171678Y-56184649D02*
X160362154Y-56184649D01*
X160362154Y-56184649D02*
X160409773Y-56208459D01*
X160409773Y-56208459D02*
X160433583Y-56232268D01*
X160433583Y-56232268D02*
X160457392Y-56279887D01*
X160457392Y-56279887D02*
X160457392Y-56351316D01*
X160457392Y-56351316D02*
X160433583Y-56398935D01*
X160433583Y-56398935D02*
X160409773Y-56422744D01*
X160409773Y-56422744D02*
X160362154Y-56446554D01*
X160362154Y-56446554D02*
X160171678Y-56446554D01*
X160671678Y-56422744D02*
X160838345Y-56422744D01*
X160909773Y-56684649D02*
X160671678Y-56684649D01*
X160671678Y-56684649D02*
X160671678Y-56184649D01*
X160671678Y-56184649D02*
X160909773Y-56184649D01*
X161052631Y-56184649D02*
X161219297Y-56684649D01*
X161219297Y-56684649D02*
X161385964Y-56184649D01*
X177333334Y-60203340D02*
X177404762Y-60227149D01*
X177404762Y-60227149D02*
X177523810Y-60227149D01*
X177523810Y-60227149D02*
X177571429Y-60203340D01*
X177571429Y-60203340D02*
X177595238Y-60179530D01*
X177595238Y-60179530D02*
X177619048Y-60131911D01*
X177619048Y-60131911D02*
X177619048Y-60084292D01*
X177619048Y-60084292D02*
X177595238Y-60036673D01*
X177595238Y-60036673D02*
X177571429Y-60012863D01*
X177571429Y-60012863D02*
X177523810Y-59989054D01*
X177523810Y-59989054D02*
X177428572Y-59965244D01*
X177428572Y-59965244D02*
X177380953Y-59941435D01*
X177380953Y-59941435D02*
X177357143Y-59917625D01*
X177357143Y-59917625D02*
X177333334Y-59870006D01*
X177333334Y-59870006D02*
X177333334Y-59822387D01*
X177333334Y-59822387D02*
X177357143Y-59774768D01*
X177357143Y-59774768D02*
X177380953Y-59750959D01*
X177380953Y-59750959D02*
X177428572Y-59727149D01*
X177428572Y-59727149D02*
X177547619Y-59727149D01*
X177547619Y-59727149D02*
X177619048Y-59750959D01*
X177785714Y-59727149D02*
X177904762Y-60227149D01*
X177904762Y-60227149D02*
X178000000Y-59870006D01*
X178000000Y-59870006D02*
X178095238Y-60227149D01*
X178095238Y-60227149D02*
X178214286Y-59727149D01*
X178666667Y-60227149D02*
X178380953Y-60227149D01*
X178523810Y-60227149D02*
X178523810Y-59727149D01*
X178523810Y-59727149D02*
X178476191Y-59798578D01*
X178476191Y-59798578D02*
X178428572Y-59846197D01*
X178428572Y-59846197D02*
X178380953Y-59870006D01*
X178338345Y-56422744D02*
X178171678Y-56422744D01*
X178171678Y-56684649D02*
X178171678Y-56184649D01*
X178171678Y-56184649D02*
X178409773Y-56184649D01*
X178552630Y-56184649D02*
X178671678Y-56684649D01*
X178671678Y-56684649D02*
X178766916Y-56327506D01*
X178766916Y-56327506D02*
X178862154Y-56684649D01*
X178862154Y-56684649D02*
X178981202Y-56184649D01*
D11*
X157954819Y-55666666D02*
X157478628Y-55999999D01*
X157954819Y-56238094D02*
X156954819Y-56238094D01*
X156954819Y-56238094D02*
X156954819Y-55857142D01*
X156954819Y-55857142D02*
X157002438Y-55761904D01*
X157002438Y-55761904D02*
X157050057Y-55714285D01*
X157050057Y-55714285D02*
X157145295Y-55666666D01*
X157145295Y-55666666D02*
X157288152Y-55666666D01*
X157288152Y-55666666D02*
X157383390Y-55714285D01*
X157383390Y-55714285D02*
X157431009Y-55761904D01*
X157431009Y-55761904D02*
X157478628Y-55857142D01*
X157478628Y-55857142D02*
X157478628Y-56238094D01*
X157050057Y-55285713D02*
X157002438Y-55238094D01*
X157002438Y-55238094D02*
X156954819Y-55142856D01*
X156954819Y-55142856D02*
X156954819Y-54904761D01*
X156954819Y-54904761D02*
X157002438Y-54809523D01*
X157002438Y-54809523D02*
X157050057Y-54761904D01*
X157050057Y-54761904D02*
X157145295Y-54714285D01*
X157145295Y-54714285D02*
X157240533Y-54714285D01*
X157240533Y-54714285D02*
X157383390Y-54761904D01*
X157383390Y-54761904D02*
X157954819Y-55333332D01*
X157954819Y-55333332D02*
X157954819Y-54714285D01*
X157954819Y-64666666D02*
X157478628Y-64999999D01*
X157954819Y-65238094D02*
X156954819Y-65238094D01*
X156954819Y-65238094D02*
X156954819Y-64857142D01*
X156954819Y-64857142D02*
X157002438Y-64761904D01*
X157002438Y-64761904D02*
X157050057Y-64714285D01*
X157050057Y-64714285D02*
X157145295Y-64666666D01*
X157145295Y-64666666D02*
X157288152Y-64666666D01*
X157288152Y-64666666D02*
X157383390Y-64714285D01*
X157383390Y-64714285D02*
X157431009Y-64761904D01*
X157431009Y-64761904D02*
X157478628Y-64857142D01*
X157478628Y-64857142D02*
X157478628Y-65238094D01*
X157954819Y-63714285D02*
X157954819Y-64285713D01*
X157954819Y-63999999D02*
X156954819Y-63999999D01*
X156954819Y-63999999D02*
X157097676Y-64095237D01*
X157097676Y-64095237D02*
X157192914Y-64190475D01*
X157192914Y-64190475D02*
X157240533Y-64285713D01*
D12*
X149542580Y-59666666D02*
X148828295Y-59666666D01*
X148828295Y-59666666D02*
X148685438Y-59619047D01*
X148685438Y-59619047D02*
X148590200Y-59523809D01*
X148590200Y-59523809D02*
X148542580Y-59380952D01*
X148542580Y-59380952D02*
X148542580Y-59285714D01*
X148542580Y-60666666D02*
X148542580Y-60095238D01*
X148542580Y-60380952D02*
X149542580Y-60380952D01*
X149542580Y-60380952D02*
X149399723Y-60285714D01*
X149399723Y-60285714D02*
X149304485Y-60190476D01*
X149304485Y-60190476D02*
X149256866Y-60095238D01*
%TO.C,SW2*%
X157500000Y-57000000D02*
X162500000Y-57000000D01*
X162500000Y-63000000D01*
X157500000Y-63000000D01*
X157500000Y-57000000D01*
%TO.C,SW1*%
X175500000Y-57000000D02*
X180500000Y-57000000D01*
X180500000Y-63000000D01*
X175500000Y-63000000D01*
X175500000Y-57000000D01*
D13*
%TO.C,R2*%
X156522500Y-55762742D02*
X156522500Y-56237258D01*
X155477500Y-55762742D02*
X155477500Y-56237258D01*
%TO.C,R1*%
X155477500Y-64237258D02*
X155477500Y-63762742D01*
X156522500Y-64237258D02*
X156522500Y-63762742D01*
D12*
%TO.C,J1*%
X153287500Y-55000000D02*
X152287500Y-55000000D01*
X146887500Y-55000000D02*
X146887500Y-65000000D01*
X153287500Y-58000000D02*
X153287500Y-55000000D01*
X153287500Y-62000000D02*
X153287500Y-65000000D01*
X153287500Y-65000000D02*
X152287500Y-65000000D01*
X155187500Y-59200000D02*
X154487500Y-58500000D01*
X155187500Y-57800000D01*
X155187500Y-59200000D01*
G36*
X155187500Y-59200000D02*
G01*
X154487500Y-58500000D01*
X155187500Y-57800000D01*
X155187500Y-59200000D01*
G37*
%TD*%
M02*
