%TF.GenerationSoftware,KiCad,Pcbnew,8.0.6-1.fc40*%
%TF.CreationDate,2025-02-15T18:39:23+01:00*%
%TF.ProjectId,airMouse-thumb,6169724d-6f75-4736-952d-7468756d622e,RC1*%
%TF.SameCoordinates,Original*%
%TF.FileFunction,Copper,L1,Top*%
%TF.FilePolarity,Positive*%
%FSLAX46Y46*%
G04 Gerber Fmt 4.6, Leading zero omitted, Abs format (unit mm)*
G04 Created by KiCad (PCBNEW 8.0.6-1.fc40) date 2025-02-15 18:39:23*
%MOMM*%
%LPD*%
G01*
G04 APERTURE LIST*
G04 Aperture macros list*
%AMRoundRect*
0 Rectangle with rounded corners*
0 $1 Rounding radius*
0 $2 $3 $4 $5 $6 $7 $8 $9 X,Y pos of 4 corners*
0 Add a 4 corners polygon primitive as box body*
4,1,4,$2,$3,$4,$5,$6,$7,$8,$9,$2,$3,0*
0 Add four circle primitives for the rounded corners*
1,1,$1+$1,$2,$3*
1,1,$1+$1,$4,$5*
1,1,$1+$1,$6,$7*
1,1,$1+$1,$8,$9*
0 Add four rect primitives between the rounded corners*
20,1,$1+$1,$2,$3,$4,$5,0*
20,1,$1+$1,$4,$5,$6,$7,0*
20,1,$1+$1,$6,$7,$8,$9,0*
20,1,$1+$1,$8,$9,$2,$3,0*%
G04 Aperture macros list end*
%TA.AperFunction,SMDPad,CuDef*%
%ADD10R,1.200000X1.200000*%
%TD*%
%TA.AperFunction,SMDPad,CuDef*%
%ADD11RoundRect,0.200000X-0.275000X0.200000X-0.275000X-0.200000X0.275000X-0.200000X0.275000X0.200000X0*%
%TD*%
%TA.AperFunction,SMDPad,CuDef*%
%ADD12RoundRect,0.200000X0.275000X-0.200000X0.275000X0.200000X-0.275000X0.200000X-0.275000X-0.200000X0*%
%TD*%
%TA.AperFunction,SMDPad,CuDef*%
%ADD13R,1.800000X0.600000*%
%TD*%
%TA.AperFunction,SMDPad,CuDef*%
%ADD14R,3.000000X2.500000*%
%TD*%
%TA.AperFunction,ViaPad*%
%ADD15C,0.600000*%
%TD*%
%TA.AperFunction,Conductor*%
%ADD16C,0.200000*%
%TD*%
G04 APERTURE END LIST*
D10*
%TO.P,SW2,1,A*%
%TO.N,GND*%
X158250000Y-57775000D03*
X158250000Y-62225000D03*
%TO.P,SW2,2,B*%
%TO.N,/BACK*%
X161750000Y-57775000D03*
X161750000Y-62225000D03*
%TD*%
%TO.P,SW1,1,A*%
%TO.N,GND*%
X176250000Y-57775000D03*
X176250000Y-62225000D03*
%TO.P,SW1,2,B*%
%TO.N,/FWD*%
X179750000Y-57775000D03*
X179750000Y-62225000D03*
%TD*%
D11*
%TO.P,R2,1*%
%TO.N,+3V3*%
X156000000Y-55175000D03*
%TO.P,R2,2*%
%TO.N,/BACK*%
X156000000Y-56825000D03*
%TD*%
D12*
%TO.P,R1,1*%
%TO.N,+3V3*%
X156000000Y-64825000D03*
%TO.P,R1,2*%
%TO.N,/FWD*%
X156000000Y-63175000D03*
%TD*%
D13*
%TO.P,J1,1,Pin_1*%
%TO.N,+3V3*%
X153287500Y-58500000D03*
%TO.P,J1,2,Pin_2*%
%TO.N,/FWD*%
X153287500Y-59500000D03*
%TO.P,J1,3,Pin_3*%
%TO.N,/BACK*%
X153287500Y-60500000D03*
%TO.P,J1,4,Pin_4*%
%TO.N,GND*%
X153287500Y-61500000D03*
D14*
%TO.P,J1,MP,MountPin*%
X150687500Y-56000000D03*
X150687500Y-64000000D03*
%TD*%
D15*
%TO.N,GND*%
X159600000Y-61000000D03*
X159200000Y-64400000D03*
X153200000Y-62600000D03*
X150800000Y-61000000D03*
%TO.N,+3V3*%
X154000000Y-64000000D03*
X154100000Y-56600000D03*
%TO.N,/FWD*%
X156000000Y-61500000D03*
X155400000Y-59500000D03*
%TD*%
D16*
%TO.N,GND*%
X159600000Y-61000000D02*
X159475000Y-61000000D01*
X159475000Y-61000000D02*
X158250000Y-62225000D01*
X153200000Y-61587500D02*
X153287500Y-61500000D01*
X150687500Y-64000000D02*
X150687500Y-61112500D01*
X150687500Y-61112500D02*
X150800000Y-61000000D01*
X153200000Y-62600000D02*
X153200000Y-61587500D01*
%TO.N,+3V3*%
X154825000Y-64825000D02*
X154000000Y-64000000D01*
X154100000Y-56600000D02*
X153287500Y-57412500D01*
X156000000Y-64825000D02*
X154825000Y-64825000D01*
X155525000Y-55175000D02*
X154100000Y-56600000D01*
X156000000Y-55175000D02*
X155525000Y-55175000D01*
X153287500Y-57412500D02*
X153287500Y-58500000D01*
%TO.N,/FWD*%
X153287500Y-59500000D02*
X155400000Y-59500000D01*
X156000000Y-61500000D02*
X156000000Y-63175000D01*
%TO.N,/BACK*%
X156000000Y-56825000D02*
X156000000Y-60000000D01*
X156000000Y-60000000D02*
X155500000Y-60500000D01*
X155500000Y-60500000D02*
X153287500Y-60500000D01*
%TO.N,/FWD*%
X179750000Y-62225000D02*
X178800000Y-63175000D01*
X178800000Y-63175000D02*
X156000000Y-63175000D01*
X179750000Y-57775000D02*
X179750000Y-62225000D01*
%TO.N,/BACK*%
X161750000Y-57775000D02*
X160800000Y-56825000D01*
X160800000Y-56825000D02*
X156000000Y-56825000D01*
X161750000Y-62225000D02*
X161750000Y-57775000D01*
%TO.N,GND*%
X176250000Y-57775000D02*
X176250000Y-62225000D01*
X158250000Y-57775000D02*
X158250000Y-62225000D01*
%TD*%
%TA.AperFunction,Conductor*%
%TO.N,GND*%
G36*
X148638175Y-54520185D02*
G01*
X148683930Y-54572989D01*
X148694425Y-54637756D01*
X148687500Y-54702155D01*
X148687500Y-57297844D01*
X148693901Y-57357372D01*
X148693903Y-57357379D01*
X148744145Y-57492086D01*
X148744149Y-57492093D01*
X148785977Y-57547967D01*
X148785978Y-57547968D01*
X150599819Y-55734128D01*
X150661142Y-55700643D01*
X150730834Y-55705627D01*
X150775181Y-55734128D01*
X150953371Y-55912318D01*
X150986856Y-55973641D01*
X150981872Y-56043333D01*
X150953371Y-56087680D01*
X149291052Y-57749999D01*
X149291053Y-57750000D01*
X151851443Y-57750000D01*
X151918482Y-57769685D01*
X151964237Y-57822489D01*
X151974181Y-57891647D01*
X151950708Y-57948313D01*
X151943704Y-57957667D01*
X151943702Y-57957671D01*
X151893410Y-58092513D01*
X151893409Y-58092517D01*
X151887000Y-58152127D01*
X151887000Y-58152134D01*
X151887000Y-58152135D01*
X151887000Y-58847870D01*
X151887001Y-58847876D01*
X151893408Y-58907482D01*
X151911753Y-58956666D01*
X151916737Y-59026358D01*
X151911753Y-59043331D01*
X151893410Y-59092511D01*
X151893409Y-59092515D01*
X151893409Y-59092517D01*
X151887000Y-59152127D01*
X151887000Y-59152134D01*
X151887000Y-59152135D01*
X151887000Y-59847870D01*
X151887001Y-59847876D01*
X151893408Y-59907482D01*
X151911753Y-59956666D01*
X151916737Y-60026358D01*
X151911753Y-60043331D01*
X151893410Y-60092511D01*
X151893409Y-60092515D01*
X151893409Y-60092517D01*
X151887000Y-60152127D01*
X151887000Y-60152134D01*
X151887000Y-60152135D01*
X151887000Y-60847870D01*
X151887001Y-60847876D01*
X151893409Y-60907484D01*
X151912019Y-60957382D01*
X151917003Y-61027074D01*
X151912020Y-61044046D01*
X151893902Y-61092623D01*
X151893901Y-61092627D01*
X151887500Y-61152155D01*
X151887500Y-61847844D01*
X151893901Y-61907372D01*
X151893903Y-61907379D01*
X151944145Y-62042086D01*
X151944147Y-62042089D01*
X151951333Y-62051688D01*
X151975751Y-62117151D01*
X151960900Y-62185425D01*
X151911496Y-62234831D01*
X151852067Y-62250000D01*
X149291052Y-62250000D01*
X150687500Y-63646447D01*
X152033949Y-62299999D01*
X152841053Y-62299999D01*
X152841054Y-62300000D01*
X153733946Y-62300000D01*
X153733946Y-62299999D01*
X153287501Y-61853553D01*
X153287499Y-61853553D01*
X152841053Y-62299999D01*
X152033949Y-62299999D01*
X152090629Y-62243319D01*
X152151952Y-62209834D01*
X152178310Y-62207000D01*
X152226947Y-62207000D01*
X152226947Y-62206999D01*
X153097128Y-61336818D01*
X153158451Y-61303333D01*
X153184803Y-61300499D01*
X153390191Y-61300499D01*
X153457229Y-61320184D01*
X153477871Y-61336818D01*
X154396679Y-62255627D01*
X154429590Y-62243352D01*
X154429591Y-62243351D01*
X154544687Y-62157190D01*
X154544690Y-62157187D01*
X154630850Y-62042093D01*
X154630854Y-62042086D01*
X154681096Y-61907379D01*
X154681098Y-61907372D01*
X154687499Y-61847844D01*
X154687500Y-61847827D01*
X154687500Y-61224500D01*
X154707185Y-61157461D01*
X154759989Y-61111706D01*
X154811500Y-61100500D01*
X155116937Y-61100500D01*
X155183976Y-61120185D01*
X155229731Y-61172989D01*
X155239675Y-61242147D01*
X155233978Y-61265455D01*
X155214633Y-61320737D01*
X155214630Y-61320750D01*
X155194435Y-61499996D01*
X155194435Y-61500003D01*
X155214630Y-61679249D01*
X155214631Y-61679254D01*
X155274211Y-61849523D01*
X155370185Y-62002263D01*
X155372445Y-62005097D01*
X155373334Y-62007275D01*
X155373889Y-62008158D01*
X155373734Y-62008255D01*
X155398855Y-62069783D01*
X155399500Y-62082412D01*
X155399500Y-62283284D01*
X155379815Y-62350323D01*
X155339652Y-62389400D01*
X155289811Y-62419530D01*
X155169530Y-62539811D01*
X155081522Y-62685393D01*
X155030913Y-62847807D01*
X155024500Y-62918386D01*
X155024500Y-63431613D01*
X155030913Y-63502192D01*
X155081522Y-63664606D01*
X155169530Y-63810188D01*
X155271661Y-63912319D01*
X155305146Y-63973642D01*
X155300162Y-64043334D01*
X155271661Y-64087682D01*
X155191969Y-64167373D01*
X155130645Y-64200857D01*
X155060954Y-64195872D01*
X155016607Y-64167372D01*
X154830700Y-63981465D01*
X154797215Y-63920142D01*
X154795163Y-63907686D01*
X154785368Y-63820745D01*
X154725789Y-63650478D01*
X154629816Y-63497738D01*
X154502262Y-63370184D01*
X154435657Y-63328333D01*
X154349523Y-63274211D01*
X154179254Y-63214631D01*
X154179249Y-63214630D01*
X154000004Y-63194435D01*
X153999996Y-63194435D01*
X153820750Y-63214630D01*
X153820745Y-63214631D01*
X153650476Y-63274211D01*
X153497737Y-63370184D01*
X153370184Y-63497737D01*
X153274211Y-63650476D01*
X153214631Y-63820745D01*
X153214630Y-63820750D01*
X153194435Y-63999996D01*
X153194435Y-64000003D01*
X153214630Y-64179249D01*
X153214631Y-64179254D01*
X153274211Y-64349523D01*
X153367383Y-64497804D01*
X153370184Y-64502262D01*
X153497738Y-64629816D01*
X153650478Y-64725789D01*
X153820745Y-64785368D01*
X153907669Y-64795161D01*
X153972080Y-64822226D01*
X153981465Y-64830700D01*
X154340139Y-65189374D01*
X154340149Y-65189385D01*
X154344479Y-65193715D01*
X154344480Y-65193716D01*
X154438584Y-65287820D01*
X154472068Y-65349141D01*
X154467084Y-65418833D01*
X154425213Y-65474767D01*
X154359749Y-65499184D01*
X154350902Y-65499500D01*
X152803864Y-65499500D01*
X152736825Y-65479815D01*
X152691070Y-65427011D01*
X152680575Y-65362244D01*
X152687499Y-65297844D01*
X152687500Y-65297827D01*
X152687500Y-62702172D01*
X152687499Y-62702155D01*
X152681098Y-62642627D01*
X152681097Y-62642623D01*
X152630851Y-62507908D01*
X152589020Y-62452030D01*
X150775180Y-64265871D01*
X150713857Y-64299356D01*
X150644165Y-64294372D01*
X150599818Y-64265871D01*
X148785977Y-62452030D01*
X148744147Y-62507910D01*
X148744145Y-62507913D01*
X148693903Y-62642620D01*
X148693901Y-62642627D01*
X148687500Y-62702155D01*
X148687500Y-65297844D01*
X148694425Y-65362244D01*
X148682020Y-65431004D01*
X148634410Y-65482141D01*
X148571136Y-65499500D01*
X146624500Y-65499500D01*
X146557461Y-65479815D01*
X146511706Y-65427011D01*
X146500500Y-65375500D01*
X146500500Y-54624500D01*
X146520185Y-54557461D01*
X146572989Y-54511706D01*
X146624500Y-54500500D01*
X148571136Y-54500500D01*
X148638175Y-54520185D01*
G37*
%TD.AperFunction*%
%TA.AperFunction,Conductor*%
G36*
X181442539Y-54520185D02*
G01*
X181488294Y-54572989D01*
X181499500Y-54624500D01*
X181499500Y-65375500D01*
X181479815Y-65442539D01*
X181427011Y-65488294D01*
X181375500Y-65499500D01*
X157026563Y-65499500D01*
X156959524Y-65479815D01*
X156913769Y-65427011D01*
X156903825Y-65357853D01*
X156916638Y-65322002D01*
X156915400Y-65321445D01*
X156918473Y-65314613D01*
X156918478Y-65314606D01*
X156969086Y-65152196D01*
X156975500Y-65081616D01*
X156975500Y-64568384D01*
X156969086Y-64497804D01*
X156918478Y-64335394D01*
X156830472Y-64189815D01*
X156830470Y-64189813D01*
X156830469Y-64189811D01*
X156728339Y-64087681D01*
X156694854Y-64026358D01*
X156699838Y-63956666D01*
X156728339Y-63912319D01*
X156828839Y-63811819D01*
X156890162Y-63778334D01*
X156916520Y-63775500D01*
X178713331Y-63775500D01*
X178713347Y-63775501D01*
X178720943Y-63775501D01*
X178879054Y-63775501D01*
X178879057Y-63775501D01*
X179031785Y-63734577D01*
X179081904Y-63705639D01*
X179168716Y-63655520D01*
X179280520Y-63543716D01*
X179280520Y-63543714D01*
X179290728Y-63533507D01*
X179290730Y-63533504D01*
X179462416Y-63361818D01*
X179523739Y-63328333D01*
X179550097Y-63325499D01*
X180397871Y-63325499D01*
X180397872Y-63325499D01*
X180457483Y-63319091D01*
X180592331Y-63268796D01*
X180707546Y-63182546D01*
X180793796Y-63067331D01*
X180844091Y-62932483D01*
X180850500Y-62872873D01*
X180850499Y-61577128D01*
X180844091Y-61517517D01*
X180793796Y-61382669D01*
X180793795Y-61382668D01*
X180793793Y-61382664D01*
X180707547Y-61267455D01*
X180707544Y-61267452D01*
X180592335Y-61181206D01*
X180592328Y-61181202D01*
X180457482Y-61130908D01*
X180449938Y-61129126D01*
X180450474Y-61126853D01*
X180396688Y-61104571D01*
X180356843Y-61047177D01*
X180350500Y-61008024D01*
X180350500Y-58991976D01*
X180370185Y-58924937D01*
X180422989Y-58879182D01*
X180450135Y-58871736D01*
X180449932Y-58870876D01*
X180457479Y-58869092D01*
X180457481Y-58869091D01*
X180457483Y-58869091D01*
X180592331Y-58818796D01*
X180707546Y-58732546D01*
X180793796Y-58617331D01*
X180844091Y-58482483D01*
X180850500Y-58422873D01*
X180850499Y-57127128D01*
X180844091Y-57067517D01*
X180842663Y-57063689D01*
X180793797Y-56932671D01*
X180793793Y-56932664D01*
X180707547Y-56817455D01*
X180707544Y-56817452D01*
X180592335Y-56731206D01*
X180592328Y-56731202D01*
X180457482Y-56680908D01*
X180457483Y-56680908D01*
X180397883Y-56674501D01*
X180397881Y-56674500D01*
X180397873Y-56674500D01*
X180397864Y-56674500D01*
X179102129Y-56674500D01*
X179102123Y-56674501D01*
X179042516Y-56680908D01*
X178907671Y-56731202D01*
X178907664Y-56731206D01*
X178792455Y-56817452D01*
X178792452Y-56817455D01*
X178706206Y-56932664D01*
X178706202Y-56932671D01*
X178655908Y-57067517D01*
X178652173Y-57102262D01*
X178649501Y-57127123D01*
X178649500Y-57127135D01*
X178649500Y-58422870D01*
X178649501Y-58422876D01*
X178655908Y-58482483D01*
X178706202Y-58617328D01*
X178706206Y-58617335D01*
X178792452Y-58732544D01*
X178792455Y-58732547D01*
X178907664Y-58818793D01*
X178907671Y-58818797D01*
X179042517Y-58869091D01*
X179050062Y-58870874D01*
X179049523Y-58873151D01*
X179103287Y-58895408D01*
X179143147Y-58952793D01*
X179149500Y-58991975D01*
X179149500Y-61008023D01*
X179129815Y-61075062D01*
X179077011Y-61120817D01*
X179049865Y-61128266D01*
X179050068Y-61129124D01*
X179042520Y-61130907D01*
X178907671Y-61181202D01*
X178907664Y-61181206D01*
X178792455Y-61267452D01*
X178792452Y-61267455D01*
X178706206Y-61382664D01*
X178706202Y-61382671D01*
X178655908Y-61517517D01*
X178649501Y-61577116D01*
X178649501Y-61577123D01*
X178649500Y-61577135D01*
X178649500Y-62424901D01*
X178629815Y-62491940D01*
X178613183Y-62512581D01*
X178587585Y-62538180D01*
X178526262Y-62571666D01*
X178499902Y-62574500D01*
X177474000Y-62574500D01*
X177406961Y-62554815D01*
X177361206Y-62502011D01*
X177350000Y-62450500D01*
X177350000Y-61577172D01*
X177349999Y-61577155D01*
X177343598Y-61517624D01*
X177334722Y-61493829D01*
X176337680Y-62490871D01*
X176276357Y-62524356D01*
X176206665Y-62519372D01*
X176162318Y-62490871D01*
X175165276Y-61493829D01*
X175156401Y-61517626D01*
X175150000Y-61577155D01*
X175150000Y-62450500D01*
X175130315Y-62517539D01*
X175077511Y-62563294D01*
X175026000Y-62574500D01*
X162974500Y-62574500D01*
X162907461Y-62554815D01*
X162861706Y-62502011D01*
X162850500Y-62450500D01*
X162850499Y-61577129D01*
X162850498Y-61577123D01*
X162850497Y-61577116D01*
X162844091Y-61517517D01*
X162793796Y-61382669D01*
X162793795Y-61382668D01*
X162793793Y-61382664D01*
X162707547Y-61267455D01*
X162707544Y-61267452D01*
X162592335Y-61181206D01*
X162592328Y-61181202D01*
X162482599Y-61140276D01*
X175518829Y-61140276D01*
X176250000Y-61871446D01*
X176250001Y-61871446D01*
X176981169Y-61140276D01*
X176981168Y-61140275D01*
X176957382Y-61131403D01*
X176957372Y-61131401D01*
X176897844Y-61125000D01*
X175602155Y-61125000D01*
X175542626Y-61131401D01*
X175518829Y-61140276D01*
X162482599Y-61140276D01*
X162457482Y-61130908D01*
X162449938Y-61129126D01*
X162450474Y-61126853D01*
X162396688Y-61104571D01*
X162356843Y-61047177D01*
X162350500Y-61008024D01*
X162350500Y-58991976D01*
X162370185Y-58924937D01*
X162422989Y-58879182D01*
X162450135Y-58871736D01*
X162449932Y-58870876D01*
X162457479Y-58869092D01*
X162457481Y-58869091D01*
X162457483Y-58869091D01*
X162482603Y-58859722D01*
X175518829Y-58859722D01*
X175518829Y-58859723D01*
X175542624Y-58868598D01*
X175602155Y-58874999D01*
X175602172Y-58875000D01*
X176897828Y-58875000D01*
X176897844Y-58874999D01*
X176957372Y-58868598D01*
X176957378Y-58868597D01*
X176981168Y-58859723D01*
X176981168Y-58859722D01*
X176250001Y-58128553D01*
X176250000Y-58128553D01*
X175518829Y-58859722D01*
X162482603Y-58859722D01*
X162592331Y-58818796D01*
X162707546Y-58732546D01*
X162793796Y-58617331D01*
X162844091Y-58482483D01*
X162850500Y-58422873D01*
X162850499Y-57127155D01*
X175150000Y-57127155D01*
X175150000Y-58422844D01*
X175156401Y-58482372D01*
X175156403Y-58482382D01*
X175165275Y-58506168D01*
X175165276Y-58506169D01*
X175896446Y-57775000D01*
X175896446Y-57774999D01*
X176603553Y-57774999D01*
X176603553Y-57775000D01*
X177334722Y-58506168D01*
X177334723Y-58506168D01*
X177343597Y-58482378D01*
X177343598Y-58482372D01*
X177349999Y-58422844D01*
X177350000Y-58422827D01*
X177350000Y-57127172D01*
X177349999Y-57127155D01*
X177343598Y-57067624D01*
X177334722Y-57043829D01*
X176603553Y-57774999D01*
X175896446Y-57774999D01*
X175165276Y-57043829D01*
X175156401Y-57067626D01*
X175150000Y-57127155D01*
X162850499Y-57127155D01*
X162850499Y-57127128D01*
X162844091Y-57067517D01*
X162842663Y-57063689D01*
X162793797Y-56932671D01*
X162793793Y-56932664D01*
X162707547Y-56817455D01*
X162707544Y-56817452D01*
X162592335Y-56731206D01*
X162592328Y-56731202D01*
X162482599Y-56690276D01*
X175518829Y-56690276D01*
X176250000Y-57421446D01*
X176250001Y-57421446D01*
X176981169Y-56690276D01*
X176981168Y-56690275D01*
X176957382Y-56681403D01*
X176957372Y-56681401D01*
X176897844Y-56675000D01*
X175602155Y-56675000D01*
X175542626Y-56681401D01*
X175518829Y-56690276D01*
X162482599Y-56690276D01*
X162457482Y-56680908D01*
X162457483Y-56680908D01*
X162397883Y-56674501D01*
X162397881Y-56674500D01*
X162397873Y-56674500D01*
X162397865Y-56674500D01*
X161550097Y-56674500D01*
X161483058Y-56654815D01*
X161462416Y-56638181D01*
X161287590Y-56463355D01*
X161287588Y-56463352D01*
X161168717Y-56344481D01*
X161168716Y-56344480D01*
X161081904Y-56294360D01*
X161081904Y-56294359D01*
X161081900Y-56294358D01*
X161031785Y-56265423D01*
X160879057Y-56224499D01*
X160720943Y-56224499D01*
X160713347Y-56224499D01*
X160713331Y-56224500D01*
X156916520Y-56224500D01*
X156849481Y-56204815D01*
X156828839Y-56188181D01*
X156728339Y-56087681D01*
X156694854Y-56026358D01*
X156699838Y-55956666D01*
X156728339Y-55912319D01*
X156830468Y-55810189D01*
X156830469Y-55810188D01*
X156830472Y-55810185D01*
X156918478Y-55664606D01*
X156969086Y-55502196D01*
X156975500Y-55431616D01*
X156975500Y-54918384D01*
X156969086Y-54847804D01*
X156918478Y-54685394D01*
X156918475Y-54685389D01*
X156915400Y-54678555D01*
X156917527Y-54677597D01*
X156902610Y-54621092D01*
X156924129Y-54554619D01*
X156978171Y-54510333D01*
X157026563Y-54500500D01*
X181375500Y-54500500D01*
X181442539Y-54520185D01*
G37*
%TD.AperFunction*%
%TA.AperFunction,Conductor*%
G36*
X157093039Y-57445185D02*
G01*
X157138794Y-57497989D01*
X157150000Y-57549500D01*
X157150000Y-58422844D01*
X157156401Y-58482372D01*
X157156403Y-58482382D01*
X157165275Y-58506168D01*
X157165276Y-58506169D01*
X158162318Y-57509127D01*
X158223641Y-57475642D01*
X158293333Y-57480626D01*
X158337680Y-57509127D01*
X159334722Y-58506168D01*
X159334723Y-58506168D01*
X159343597Y-58482378D01*
X159343598Y-58482372D01*
X159349999Y-58422844D01*
X159350000Y-58422827D01*
X159350000Y-57549500D01*
X159369685Y-57482461D01*
X159422489Y-57436706D01*
X159474000Y-57425500D01*
X160499903Y-57425500D01*
X160566942Y-57445185D01*
X160587584Y-57461819D01*
X160613181Y-57487416D01*
X160646666Y-57548739D01*
X160649500Y-57575097D01*
X160649500Y-58422870D01*
X160649501Y-58422876D01*
X160655908Y-58482483D01*
X160706202Y-58617328D01*
X160706206Y-58617335D01*
X160792452Y-58732544D01*
X160792455Y-58732547D01*
X160907664Y-58818793D01*
X160907671Y-58818797D01*
X161042517Y-58869091D01*
X161050062Y-58870874D01*
X161049523Y-58873151D01*
X161103287Y-58895408D01*
X161143147Y-58952793D01*
X161149500Y-58991975D01*
X161149500Y-61008023D01*
X161129815Y-61075062D01*
X161077011Y-61120817D01*
X161049865Y-61128266D01*
X161050068Y-61129124D01*
X161042520Y-61130907D01*
X160907671Y-61181202D01*
X160907664Y-61181206D01*
X160792455Y-61267452D01*
X160792452Y-61267455D01*
X160706206Y-61382664D01*
X160706202Y-61382671D01*
X160655908Y-61517517D01*
X160649501Y-61577116D01*
X160649500Y-61577127D01*
X160649500Y-62069783D01*
X160649501Y-62450500D01*
X160629817Y-62517539D01*
X160577013Y-62563294D01*
X160525501Y-62574500D01*
X159474000Y-62574500D01*
X159406961Y-62554815D01*
X159361206Y-62502011D01*
X159350000Y-62450500D01*
X159350000Y-61577172D01*
X159349999Y-61577155D01*
X159343598Y-61517624D01*
X159334722Y-61493829D01*
X158337680Y-62490871D01*
X158276357Y-62524356D01*
X158206665Y-62519372D01*
X158162318Y-62490871D01*
X157165276Y-61493829D01*
X157156401Y-61517626D01*
X157150000Y-61577155D01*
X157150000Y-62450500D01*
X157130315Y-62517539D01*
X157077511Y-62563294D01*
X157026000Y-62574500D01*
X156916520Y-62574500D01*
X156849481Y-62554815D01*
X156828839Y-62538181D01*
X156710188Y-62419530D01*
X156660348Y-62389400D01*
X156613162Y-62337871D01*
X156600500Y-62283284D01*
X156600500Y-62082412D01*
X156620185Y-62015373D01*
X156627555Y-62005097D01*
X156629810Y-62002267D01*
X156629816Y-62002262D01*
X156725789Y-61849522D01*
X156785368Y-61679255D01*
X156796875Y-61577127D01*
X156805565Y-61500003D01*
X156805565Y-61499996D01*
X156785369Y-61320750D01*
X156785368Y-61320745D01*
X156725788Y-61150476D01*
X156719379Y-61140276D01*
X157518829Y-61140276D01*
X158250000Y-61871446D01*
X158250001Y-61871446D01*
X158981169Y-61140276D01*
X158981168Y-61140275D01*
X158957382Y-61131403D01*
X158957372Y-61131401D01*
X158897844Y-61125000D01*
X157602155Y-61125000D01*
X157542626Y-61131401D01*
X157518829Y-61140276D01*
X156719379Y-61140276D01*
X156678402Y-61075062D01*
X156629816Y-60997738D01*
X156502262Y-60870184D01*
X156466750Y-60847870D01*
X156349520Y-60774209D01*
X156332446Y-60768235D01*
X156275671Y-60727513D01*
X156249924Y-60662560D01*
X156263381Y-60593999D01*
X156285715Y-60563518D01*
X156480520Y-60368716D01*
X156559577Y-60231784D01*
X156600501Y-60079057D01*
X156600501Y-59920942D01*
X156600501Y-59913347D01*
X156600500Y-59913329D01*
X156600500Y-58859722D01*
X157518829Y-58859722D01*
X157518829Y-58859723D01*
X157542624Y-58868598D01*
X157602155Y-58874999D01*
X157602172Y-58875000D01*
X158897828Y-58875000D01*
X158897844Y-58874999D01*
X158957372Y-58868598D01*
X158957378Y-58868597D01*
X158981168Y-58859723D01*
X158981168Y-58859722D01*
X158250001Y-58128553D01*
X158250000Y-58128553D01*
X157518829Y-58859722D01*
X156600500Y-58859722D01*
X156600500Y-57716715D01*
X156620185Y-57649676D01*
X156660349Y-57610598D01*
X156710185Y-57580472D01*
X156766922Y-57523735D01*
X156828839Y-57461819D01*
X156890162Y-57428334D01*
X156916520Y-57425500D01*
X157026000Y-57425500D01*
X157093039Y-57445185D01*
G37*
%TD.AperFunction*%
%TD*%
M02*
