%TF.GenerationSoftware,KiCad,Pcbnew,8.0.6-1.fc40*%
%TF.CreationDate,2025-02-15T18:39:24+01:00*%
%TF.ProjectId,airMouse-thumb,6169724d-6f75-4736-952d-7468756d622e,RC1*%
%TF.SameCoordinates,Original*%
%TF.FileFunction,Legend,Bot*%
%TF.FilePolarity,Positive*%
%FSLAX46Y46*%
G04 Gerber Fmt 4.6, Leading zero omitted, Abs format (unit mm)*
G04 Created by KiCad (PCBNEW 8.0.6-1.fc40) date 2025-02-15 18:39:24*
%MOMM*%
%LPD*%
G01*
G04 APERTURE LIST*
%ADD10C,0.150000*%
%ADD11C,0.000000*%
G04 APERTURE END LIST*
D10*
X176534649Y-64856533D02*
X176534649Y-64489866D01*
X176534649Y-64489866D02*
X176582268Y-64423200D01*
X176582268Y-64423200D02*
X176677506Y-64389866D01*
X176677506Y-64389866D02*
X176867982Y-64389866D01*
X176867982Y-64389866D02*
X176963220Y-64423200D01*
X176534649Y-64823200D02*
X176629887Y-64856533D01*
X176629887Y-64856533D02*
X176867982Y-64856533D01*
X176867982Y-64856533D02*
X176963220Y-64823200D01*
X176963220Y-64823200D02*
X177010839Y-64756533D01*
X177010839Y-64756533D02*
X177010839Y-64689866D01*
X177010839Y-64689866D02*
X176963220Y-64623200D01*
X176963220Y-64623200D02*
X176867982Y-64589866D01*
X176867982Y-64589866D02*
X176629887Y-64589866D01*
X176629887Y-64589866D02*
X176534649Y-64556533D01*
X176058458Y-64856533D02*
X176058458Y-64389866D01*
X176058458Y-64156533D02*
X176106077Y-64189866D01*
X176106077Y-64189866D02*
X176058458Y-64223200D01*
X176058458Y-64223200D02*
X176010839Y-64189866D01*
X176010839Y-64189866D02*
X176058458Y-64156533D01*
X176058458Y-64156533D02*
X176058458Y-64223200D01*
X175582268Y-64856533D02*
X175582268Y-64389866D01*
X175582268Y-64523200D02*
X175534649Y-64456533D01*
X175534649Y-64456533D02*
X175487030Y-64423200D01*
X175487030Y-64423200D02*
X175391792Y-64389866D01*
X175391792Y-64389866D02*
X175296554Y-64389866D01*
X174963220Y-64856533D02*
X174963220Y-64156533D01*
X174963220Y-64156533D02*
X174629887Y-64656533D01*
X174629887Y-64656533D02*
X174296554Y-64156533D01*
X174296554Y-64156533D02*
X174296554Y-64856533D01*
X173677506Y-64856533D02*
X173772744Y-64823200D01*
X173772744Y-64823200D02*
X173820363Y-64789866D01*
X173820363Y-64789866D02*
X173867982Y-64723200D01*
X173867982Y-64723200D02*
X173867982Y-64523200D01*
X173867982Y-64523200D02*
X173820363Y-64456533D01*
X173820363Y-64456533D02*
X173772744Y-64423200D01*
X173772744Y-64423200D02*
X173677506Y-64389866D01*
X173677506Y-64389866D02*
X173534649Y-64389866D01*
X173534649Y-64389866D02*
X173439411Y-64423200D01*
X173439411Y-64423200D02*
X173391792Y-64456533D01*
X173391792Y-64456533D02*
X173344173Y-64523200D01*
X173344173Y-64523200D02*
X173344173Y-64723200D01*
X173344173Y-64723200D02*
X173391792Y-64789866D01*
X173391792Y-64789866D02*
X173439411Y-64823200D01*
X173439411Y-64823200D02*
X173534649Y-64856533D01*
X173534649Y-64856533D02*
X173677506Y-64856533D01*
X172487030Y-64389866D02*
X172487030Y-64856533D01*
X172915601Y-64389866D02*
X172915601Y-64756533D01*
X172915601Y-64756533D02*
X172867982Y-64823200D01*
X172867982Y-64823200D02*
X172772744Y-64856533D01*
X172772744Y-64856533D02*
X172629887Y-64856533D01*
X172629887Y-64856533D02*
X172534649Y-64823200D01*
X172534649Y-64823200D02*
X172487030Y-64789866D01*
X172058458Y-64823200D02*
X171963220Y-64856533D01*
X171963220Y-64856533D02*
X171772744Y-64856533D01*
X171772744Y-64856533D02*
X171677506Y-64823200D01*
X171677506Y-64823200D02*
X171629887Y-64756533D01*
X171629887Y-64756533D02*
X171629887Y-64723200D01*
X171629887Y-64723200D02*
X171677506Y-64656533D01*
X171677506Y-64656533D02*
X171772744Y-64623200D01*
X171772744Y-64623200D02*
X171915601Y-64623200D01*
X171915601Y-64623200D02*
X172010839Y-64589866D01*
X172010839Y-64589866D02*
X172058458Y-64523200D01*
X172058458Y-64523200D02*
X172058458Y-64489866D01*
X172058458Y-64489866D02*
X172010839Y-64423200D01*
X172010839Y-64423200D02*
X171915601Y-64389866D01*
X171915601Y-64389866D02*
X171772744Y-64389866D01*
X171772744Y-64389866D02*
X171677506Y-64423200D01*
X170820363Y-64823200D02*
X170915601Y-64856533D01*
X170915601Y-64856533D02*
X171106077Y-64856533D01*
X171106077Y-64856533D02*
X171201315Y-64823200D01*
X171201315Y-64823200D02*
X171248934Y-64756533D01*
X171248934Y-64756533D02*
X171248934Y-64489866D01*
X171248934Y-64489866D02*
X171201315Y-64423200D01*
X171201315Y-64423200D02*
X171106077Y-64389866D01*
X171106077Y-64389866D02*
X170915601Y-64389866D01*
X170915601Y-64389866D02*
X170820363Y-64423200D01*
X170820363Y-64423200D02*
X170772744Y-64489866D01*
X170772744Y-64489866D02*
X170772744Y-64556533D01*
X170772744Y-64556533D02*
X171248934Y-64623200D01*
X170344172Y-64589866D02*
X169582268Y-64589866D01*
X169248934Y-64389866D02*
X168867982Y-64389866D01*
X169106077Y-64156533D02*
X169106077Y-64756533D01*
X169106077Y-64756533D02*
X169058458Y-64823200D01*
X169058458Y-64823200D02*
X168963220Y-64856533D01*
X168963220Y-64856533D02*
X168867982Y-64856533D01*
X168534648Y-64856533D02*
X168534648Y-64156533D01*
X168106077Y-64856533D02*
X168106077Y-64489866D01*
X168106077Y-64489866D02*
X168153696Y-64423200D01*
X168153696Y-64423200D02*
X168248934Y-64389866D01*
X168248934Y-64389866D02*
X168391791Y-64389866D01*
X168391791Y-64389866D02*
X168487029Y-64423200D01*
X168487029Y-64423200D02*
X168534648Y-64456533D01*
X167201315Y-64389866D02*
X167201315Y-64856533D01*
X167629886Y-64389866D02*
X167629886Y-64756533D01*
X167629886Y-64756533D02*
X167582267Y-64823200D01*
X167582267Y-64823200D02*
X167487029Y-64856533D01*
X167487029Y-64856533D02*
X167344172Y-64856533D01*
X167344172Y-64856533D02*
X167248934Y-64823200D01*
X167248934Y-64823200D02*
X167201315Y-64789866D01*
X166725124Y-64856533D02*
X166725124Y-64389866D01*
X166725124Y-64456533D02*
X166677505Y-64423200D01*
X166677505Y-64423200D02*
X166582267Y-64389866D01*
X166582267Y-64389866D02*
X166439410Y-64389866D01*
X166439410Y-64389866D02*
X166344172Y-64423200D01*
X166344172Y-64423200D02*
X166296553Y-64489866D01*
X166296553Y-64489866D02*
X166296553Y-64856533D01*
X166296553Y-64489866D02*
X166248934Y-64423200D01*
X166248934Y-64423200D02*
X166153696Y-64389866D01*
X166153696Y-64389866D02*
X166010839Y-64389866D01*
X166010839Y-64389866D02*
X165915600Y-64423200D01*
X165915600Y-64423200D02*
X165867981Y-64489866D01*
X165867981Y-64489866D02*
X165867981Y-64856533D01*
X165391791Y-64856533D02*
X165391791Y-64156533D01*
X165391791Y-64423200D02*
X165296553Y-64389866D01*
X165296553Y-64389866D02*
X165106077Y-64389866D01*
X165106077Y-64389866D02*
X165010839Y-64423200D01*
X165010839Y-64423200D02*
X164963220Y-64456533D01*
X164963220Y-64456533D02*
X164915601Y-64523200D01*
X164915601Y-64523200D02*
X164915601Y-64723200D01*
X164915601Y-64723200D02*
X164963220Y-64789866D01*
X164963220Y-64789866D02*
X165010839Y-64823200D01*
X165010839Y-64823200D02*
X165106077Y-64856533D01*
X165106077Y-64856533D02*
X165296553Y-64856533D01*
X165296553Y-64856533D02*
X165391791Y-64823200D01*
X163153696Y-64856533D02*
X163487029Y-64523200D01*
X163725124Y-64856533D02*
X163725124Y-64156533D01*
X163725124Y-64156533D02*
X163344172Y-64156533D01*
X163344172Y-64156533D02*
X163248934Y-64189866D01*
X163248934Y-64189866D02*
X163201315Y-64223200D01*
X163201315Y-64223200D02*
X163153696Y-64289866D01*
X163153696Y-64289866D02*
X163153696Y-64389866D01*
X163153696Y-64389866D02*
X163201315Y-64456533D01*
X163201315Y-64456533D02*
X163248934Y-64489866D01*
X163248934Y-64489866D02*
X163344172Y-64523200D01*
X163344172Y-64523200D02*
X163725124Y-64523200D01*
X162153696Y-64789866D02*
X162201315Y-64823200D01*
X162201315Y-64823200D02*
X162344172Y-64856533D01*
X162344172Y-64856533D02*
X162439410Y-64856533D01*
X162439410Y-64856533D02*
X162582267Y-64823200D01*
X162582267Y-64823200D02*
X162677505Y-64756533D01*
X162677505Y-64756533D02*
X162725124Y-64689866D01*
X162725124Y-64689866D02*
X162772743Y-64556533D01*
X162772743Y-64556533D02*
X162772743Y-64456533D01*
X162772743Y-64456533D02*
X162725124Y-64323200D01*
X162725124Y-64323200D02*
X162677505Y-64256533D01*
X162677505Y-64256533D02*
X162582267Y-64189866D01*
X162582267Y-64189866D02*
X162439410Y-64156533D01*
X162439410Y-64156533D02*
X162344172Y-64156533D01*
X162344172Y-64156533D02*
X162201315Y-64189866D01*
X162201315Y-64189866D02*
X162153696Y-64223200D01*
X161201315Y-64856533D02*
X161772743Y-64856533D01*
X161487029Y-64856533D02*
X161487029Y-64156533D01*
X161487029Y-64156533D02*
X161582267Y-64256533D01*
X161582267Y-64256533D02*
X161677505Y-64323200D01*
X161677505Y-64323200D02*
X161772743Y-64356533D01*
D11*
%TO.C,Logo1*%
G36*
X153499704Y-59514900D02*
G01*
X153528320Y-59529838D01*
X153602658Y-59594939D01*
X153696307Y-59700587D01*
X153801791Y-59838007D01*
X153911633Y-59998421D01*
X154009165Y-60154839D01*
X154097698Y-60318499D01*
X154147478Y-60448126D01*
X154160119Y-60550418D01*
X154137230Y-60632075D01*
X154080426Y-60699796D01*
X154073182Y-60705863D01*
X154001165Y-60752884D01*
X153941847Y-60772161D01*
X153903387Y-60762957D01*
X153834659Y-60720425D01*
X153776294Y-60661470D01*
X153751648Y-60606444D01*
X153748401Y-60591485D01*
X153718205Y-60526379D01*
X153662966Y-60429308D01*
X153590874Y-60312898D01*
X153510113Y-60189774D01*
X153428871Y-60072561D01*
X153355334Y-59973885D01*
X153297690Y-59906370D01*
X153251121Y-59856881D01*
X153205772Y-59790466D01*
X153198174Y-59727943D01*
X153221811Y-59647033D01*
X153239947Y-59614619D01*
X153313462Y-59551252D01*
X153409193Y-59513664D01*
X153499704Y-59514900D01*
G37*
G36*
X163472261Y-57795146D02*
G01*
X163564563Y-57817040D01*
X163655652Y-57863253D01*
X163656507Y-57863852D01*
X163735426Y-57928003D01*
X163845870Y-58029643D01*
X163978870Y-58159517D01*
X164125460Y-58308372D01*
X164276673Y-58466950D01*
X164423541Y-58625999D01*
X164557098Y-58776262D01*
X164668376Y-58908485D01*
X164712513Y-58962770D01*
X164772015Y-59034989D01*
X164808338Y-59077819D01*
X164839800Y-59115976D01*
X164910215Y-59229537D01*
X164954847Y-59345070D01*
X164968616Y-59446409D01*
X164946443Y-59517388D01*
X164897325Y-59555946D01*
X164811701Y-59562053D01*
X164704358Y-59513071D01*
X164574206Y-59408438D01*
X164420153Y-59247597D01*
X164289082Y-59101393D01*
X164133149Y-58933380D01*
X163975367Y-58768723D01*
X163822935Y-58614568D01*
X163683054Y-58478061D01*
X163562924Y-58366347D01*
X163469748Y-58286573D01*
X163410724Y-58245882D01*
X163340416Y-58204580D01*
X163257999Y-58130792D01*
X163208014Y-58053218D01*
X163202413Y-57986726D01*
X163206436Y-57976680D01*
X163270355Y-57887912D01*
X163364338Y-57821191D01*
X163463416Y-57794872D01*
X163472261Y-57795146D01*
G37*
G36*
X152141664Y-58179796D02*
G01*
X152237995Y-58210742D01*
X152248133Y-58214309D01*
X152404731Y-58278196D01*
X152575862Y-58361737D01*
X152752725Y-58459108D01*
X152926523Y-58564481D01*
X153088453Y-58672033D01*
X153229717Y-58775936D01*
X153341516Y-58870365D01*
X153415048Y-58949494D01*
X153441514Y-59007499D01*
X153437228Y-59020026D01*
X153403370Y-59071564D01*
X153346818Y-59141104D01*
X153334026Y-59155287D01*
X153241306Y-59230648D01*
X153137477Y-59261023D01*
X153122846Y-59262577D01*
X153040779Y-59271793D01*
X152989993Y-59278303D01*
X152977898Y-59279056D01*
X152913593Y-59252189D01*
X152858974Y-59188644D01*
X152832689Y-59108546D01*
X152827645Y-59042463D01*
X152823765Y-58998861D01*
X152819637Y-58990832D01*
X152778153Y-58949815D01*
X152702915Y-58888397D01*
X152607235Y-58816398D01*
X152504422Y-58743636D01*
X152407786Y-58679928D01*
X152330637Y-58635095D01*
X152276049Y-58605788D01*
X152129527Y-58505033D01*
X152041316Y-58402436D01*
X152012618Y-58299828D01*
X152044636Y-58199045D01*
X152055908Y-58184432D01*
X152086411Y-58171356D01*
X152141664Y-58179796D01*
G37*
G36*
X167308514Y-58970869D02*
G01*
X167386276Y-58997209D01*
X167580772Y-59082016D01*
X167798588Y-59198503D01*
X168024946Y-59339074D01*
X168130247Y-59408294D01*
X168197038Y-59447147D01*
X168237733Y-59459142D01*
X168265118Y-59448041D01*
X168291983Y-59417605D01*
X168338095Y-59370703D01*
X168416136Y-59315523D01*
X168420993Y-59313055D01*
X168479169Y-59289768D01*
X168530186Y-59287747D01*
X168579511Y-59312863D01*
X168632608Y-59370983D01*
X168694942Y-59467979D01*
X168771979Y-59609718D01*
X168869184Y-59802070D01*
X168934901Y-59934562D01*
X169010276Y-60087092D01*
X169073573Y-60215810D01*
X169119598Y-60310148D01*
X169143156Y-60359537D01*
X169152219Y-60388413D01*
X169159151Y-60470093D01*
X169151800Y-60560434D01*
X169132982Y-60635964D01*
X169105514Y-60673213D01*
X169098218Y-60676253D01*
X169045702Y-60705960D01*
X168972976Y-60753140D01*
X168955365Y-60764574D01*
X168859549Y-60804355D01*
X168784478Y-60797567D01*
X168740697Y-60744598D01*
X168675859Y-60582713D01*
X168523795Y-60328249D01*
X168313164Y-60078312D01*
X168046084Y-59834984D01*
X167724670Y-59600349D01*
X167351038Y-59376490D01*
X167313738Y-59355479D01*
X167179462Y-59261913D01*
X167105101Y-59171344D01*
X167089170Y-59081168D01*
X167130187Y-58988782D01*
X167141413Y-58974197D01*
X167174235Y-58948704D01*
X167222825Y-58948309D01*
X167308514Y-58970869D01*
G37*
G36*
X154796770Y-59519259D02*
G01*
X154919217Y-59574206D01*
X155051552Y-59644000D01*
X155180445Y-59720670D01*
X155292565Y-59796246D01*
X155374582Y-59862758D01*
X155413166Y-59912235D01*
X155414145Y-59915344D01*
X155417503Y-60027100D01*
X155366946Y-60144838D01*
X155267610Y-60256409D01*
X155144622Y-60361682D01*
X155409996Y-60472769D01*
X155456452Y-60491969D01*
X155593101Y-60546001D01*
X155717259Y-60591920D01*
X155806732Y-60621412D01*
X155895138Y-60650102D01*
X155974000Y-60693708D01*
X155996824Y-60747920D01*
X155965917Y-60821826D01*
X155883582Y-60924515D01*
X155805842Y-60991741D01*
X155708948Y-61020269D01*
X155691875Y-61019233D01*
X155600823Y-61000799D01*
X155470642Y-60962578D01*
X155314922Y-60908840D01*
X155147253Y-60843852D01*
X155124888Y-60835219D01*
X155069719Y-60817714D01*
X155002526Y-60796235D01*
X154890579Y-60747228D01*
X154767177Y-60683379D01*
X154649519Y-60614311D01*
X154554803Y-60549649D01*
X154500227Y-60499019D01*
X154462089Y-60433776D01*
X154434626Y-60312504D01*
X154464281Y-60202684D01*
X154547830Y-60112285D01*
X154682051Y-60049279D01*
X154821612Y-60008195D01*
X154713065Y-59974282D01*
X154710538Y-59973495D01*
X154610044Y-59944425D01*
X154519795Y-59921628D01*
X154454004Y-59889860D01*
X154385969Y-59807932D01*
X154357868Y-59746243D01*
X154355352Y-59695742D01*
X154385697Y-59638453D01*
X154396412Y-59623196D01*
X154486938Y-59539937D01*
X154597458Y-59491574D01*
X154705044Y-59488847D01*
X154796770Y-59519259D01*
G37*
G36*
X149576108Y-59375236D02*
G01*
X149652758Y-59403363D01*
X149765422Y-59459187D01*
X149972633Y-59567295D01*
X150109544Y-59502939D01*
X150153502Y-59483461D01*
X150241101Y-59451290D01*
X150299955Y-59438584D01*
X150321225Y-59442212D01*
X150398094Y-59470558D01*
X150507827Y-59521211D01*
X150636999Y-59587175D01*
X150772181Y-59661453D01*
X150899946Y-59737047D01*
X151006868Y-59806961D01*
X151061658Y-59846294D01*
X151194830Y-59948706D01*
X151307477Y-60044811D01*
X151389158Y-60125364D01*
X151429431Y-60181120D01*
X151432858Y-60192343D01*
X151423118Y-60270694D01*
X151370085Y-60366335D01*
X151281096Y-60465215D01*
X151264357Y-60480130D01*
X151183003Y-60545801D01*
X151087872Y-60615349D01*
X150994554Y-60678163D01*
X150918638Y-60723633D01*
X150875712Y-60741148D01*
X150855597Y-60729942D01*
X150797426Y-60683466D01*
X150713313Y-60609236D01*
X150613798Y-60516300D01*
X150474582Y-60388046D01*
X150354430Y-60288078D01*
X150263248Y-60224731D01*
X150205382Y-60201010D01*
X150185178Y-60219919D01*
X150185219Y-60220999D01*
X150203211Y-60267370D01*
X150247619Y-60346875D01*
X150309231Y-60442953D01*
X150320109Y-60459143D01*
X150397453Y-60594549D01*
X150427927Y-60704128D01*
X150412695Y-60799887D01*
X150352921Y-60893835D01*
X150324438Y-60925206D01*
X150240291Y-60984283D01*
X150160745Y-60984042D01*
X150082605Y-60923646D01*
X150002673Y-60802260D01*
X149979098Y-60760543D01*
X149905768Y-60641422D01*
X149807661Y-60490987D01*
X149693162Y-60321730D01*
X149570658Y-60146145D01*
X149448535Y-59976726D01*
X149390444Y-59894378D01*
X149320380Y-59784451D01*
X149272458Y-59695685D01*
X149254701Y-59641939D01*
X149256215Y-59621299D01*
X149294277Y-59526351D01*
X149370717Y-59439745D01*
X149468297Y-59382424D01*
X149518414Y-59370400D01*
X149576108Y-59375236D01*
G37*
G36*
X156792143Y-59550865D02*
G01*
X157029679Y-59655964D01*
X157098212Y-59694023D01*
X157289025Y-59812193D01*
X157439541Y-59930206D01*
X157564610Y-60060896D01*
X157679081Y-60217092D01*
X157699654Y-60248054D01*
X157766043Y-60344329D01*
X157818844Y-60415570D01*
X157848115Y-60448185D01*
X157857591Y-60462854D01*
X157871120Y-60526091D01*
X157876435Y-60617845D01*
X157871386Y-60708151D01*
X157844241Y-60793018D01*
X157782745Y-60876709D01*
X157762797Y-60897922D01*
X157663689Y-60981905D01*
X157557898Y-61048338D01*
X157478600Y-61080931D01*
X157325493Y-61109112D01*
X157147917Y-61098561D01*
X156933869Y-61049296D01*
X156670196Y-60963492D01*
X156427313Y-60860291D01*
X156244405Y-60751106D01*
X156122093Y-60636316D01*
X156060999Y-60516300D01*
X156054720Y-60481848D01*
X156061680Y-60446632D01*
X156095605Y-60433189D01*
X156164202Y-60441704D01*
X156275180Y-60472365D01*
X156436246Y-60525356D01*
X156466714Y-60535666D01*
X156728018Y-60618724D01*
X156957276Y-60681799D01*
X157149513Y-60723960D01*
X157299752Y-60744278D01*
X157403019Y-60741823D01*
X157454336Y-60715664D01*
X157453037Y-60677335D01*
X157426503Y-60607418D01*
X157384058Y-60530026D01*
X157336350Y-60467551D01*
X157309007Y-60448308D01*
X157264251Y-60451838D01*
X157190802Y-60490695D01*
X157178766Y-60497685D01*
X157080932Y-60538306D01*
X156989426Y-60554951D01*
X156985804Y-60554931D01*
X156898140Y-60545063D01*
X156799683Y-60521879D01*
X156714564Y-60492253D01*
X156666911Y-60463061D01*
X156654489Y-60451103D01*
X156602343Y-60408741D01*
X156527350Y-60352017D01*
X156484568Y-60320304D01*
X156419958Y-60271248D01*
X156387790Y-60245109D01*
X156384075Y-60241933D01*
X156340283Y-60213332D01*
X156269659Y-60172318D01*
X156219918Y-60142151D01*
X156103281Y-60050631D01*
X156013814Y-59950901D01*
X155966690Y-59858671D01*
X155962554Y-59801725D01*
X155989646Y-59745486D01*
X156058074Y-59673019D01*
X156189549Y-59576309D01*
X156369900Y-59511075D01*
X156571491Y-59502581D01*
X156792143Y-59550865D01*
G37*
G36*
X163468629Y-58963582D02*
G01*
X163612950Y-59023701D01*
X163790840Y-59130857D01*
X163859960Y-59177306D01*
X163992472Y-59270094D01*
X164082395Y-59341322D01*
X164137263Y-59398253D01*
X164164606Y-59448146D01*
X164171957Y-59498263D01*
X164170858Y-59516257D01*
X164138170Y-59618353D01*
X164070698Y-59725317D01*
X163982821Y-59813204D01*
X163951111Y-59833589D01*
X163885148Y-59849364D01*
X163790508Y-59836173D01*
X163711287Y-59820030D01*
X163636109Y-59812146D01*
X163618053Y-59824722D01*
X163656389Y-59857365D01*
X163750387Y-59909684D01*
X163899315Y-59981285D01*
X164102443Y-60071775D01*
X164359041Y-60180762D01*
X164668376Y-60307854D01*
X164749243Y-60340753D01*
X164929844Y-60415064D01*
X165088395Y-60481443D01*
X165216012Y-60536107D01*
X165303814Y-60575274D01*
X165342918Y-60595160D01*
X165343197Y-60595373D01*
X165379188Y-60657122D01*
X165359719Y-60742479D01*
X165285432Y-60848616D01*
X165254478Y-60882129D01*
X165195168Y-60936699D01*
X165157377Y-60958242D01*
X165155770Y-60958190D01*
X165104453Y-60946055D01*
X165014125Y-60916958D01*
X164901968Y-60877183D01*
X164785165Y-60833017D01*
X164680898Y-60790745D01*
X164606349Y-60756655D01*
X164602767Y-60754828D01*
X164524814Y-60720101D01*
X164412652Y-60675537D01*
X164289291Y-60630304D01*
X164280726Y-60627296D01*
X164157168Y-60582648D01*
X164046076Y-60540481D01*
X163970574Y-60509556D01*
X163864547Y-60461514D01*
X163721822Y-60395259D01*
X163588916Y-60331975D01*
X163477498Y-60277318D01*
X163399240Y-60236944D01*
X163365812Y-60216506D01*
X163359241Y-60210653D01*
X163310550Y-60179291D01*
X163235252Y-60137462D01*
X163152040Y-60089592D01*
X163007327Y-59976872D01*
X162915705Y-59859396D01*
X162877045Y-59743509D01*
X162891223Y-59635551D01*
X162958111Y-59541865D01*
X163077582Y-59468793D01*
X163249511Y-59422678D01*
X163270730Y-59418911D01*
X163338493Y-59398372D01*
X163365812Y-59375152D01*
X163365242Y-59368733D01*
X163342552Y-59349216D01*
X163321150Y-59351357D01*
X163235429Y-59330386D01*
X163177166Y-59269947D01*
X163151874Y-59185673D01*
X163165066Y-59093196D01*
X163222256Y-59008149D01*
X163258881Y-58979751D01*
X163352424Y-58949324D01*
X163468629Y-58963582D01*
G37*
G36*
X152756866Y-59916908D02*
G01*
X152801474Y-60002505D01*
X152865713Y-60104034D01*
X152933785Y-60210930D01*
X152995255Y-60343669D01*
X153009716Y-60453901D01*
X152977802Y-60551611D01*
X152900146Y-60646782D01*
X152875569Y-60669640D01*
X152784729Y-60731232D01*
X152696009Y-60747908D01*
X152670617Y-60747758D01*
X152619772Y-60758385D01*
X152616372Y-60790287D01*
X152616455Y-60790504D01*
X152667523Y-60885686D01*
X152756867Y-61013299D01*
X152876485Y-61164524D01*
X153018371Y-61330547D01*
X153174524Y-61502550D01*
X153336938Y-61671716D01*
X153497611Y-61829228D01*
X153648540Y-61966271D01*
X153781719Y-62074027D01*
X153791649Y-62081356D01*
X154004900Y-62221912D01*
X154195453Y-62314425D01*
X154360276Y-62358074D01*
X154496336Y-62352040D01*
X154600599Y-62295501D01*
X154612502Y-62284420D01*
X154669336Y-62239275D01*
X154702178Y-62238522D01*
X154725838Y-62280372D01*
X154728848Y-62309960D01*
X154700367Y-62383662D01*
X154636822Y-62466955D01*
X154550340Y-62545422D01*
X154453051Y-62604648D01*
X154351624Y-62643528D01*
X154255879Y-62658957D01*
X154145871Y-62650803D01*
X153999756Y-62619795D01*
X153960924Y-62610089D01*
X153816141Y-62568596D01*
X153701655Y-62521741D01*
X153592096Y-62457435D01*
X153462089Y-62363586D01*
X153398868Y-62312867D01*
X153278323Y-62207557D01*
X153138244Y-62077973D01*
X152989657Y-61934979D01*
X152843590Y-61789437D01*
X152711070Y-61652211D01*
X152603124Y-61534162D01*
X152530779Y-61446155D01*
X152474231Y-61367507D01*
X152360732Y-61204112D01*
X152231174Y-61012564D01*
X152095740Y-60808281D01*
X151964614Y-60606680D01*
X151847978Y-60423179D01*
X151756016Y-60273193D01*
X151697155Y-60177525D01*
X151614824Y-60052917D01*
X151541071Y-59951011D01*
X151486831Y-59887476D01*
X151459797Y-59855435D01*
X152076923Y-59855435D01*
X152082077Y-59885007D01*
X152112183Y-59920492D01*
X152150131Y-59913280D01*
X152167863Y-59882775D01*
X152162454Y-59833872D01*
X152123443Y-59810745D01*
X152101788Y-59815915D01*
X152076923Y-59855435D01*
X151459797Y-59855435D01*
X151427091Y-59816671D01*
X151394805Y-59720028D01*
X151423399Y-59626019D01*
X151513257Y-59533690D01*
X151664759Y-59442084D01*
X151761129Y-59404430D01*
X151953435Y-59376141D01*
X152163309Y-59395370D01*
X152378645Y-59460443D01*
X152587338Y-59569686D01*
X152623156Y-59596254D01*
X152699047Y-59681252D01*
X152741531Y-59773818D01*
X152740351Y-59854840D01*
X152739444Y-59862262D01*
X152745984Y-59882775D01*
X152756866Y-59916908D01*
G37*
G36*
X171909514Y-60547516D02*
G01*
X171913217Y-60698923D01*
X171858477Y-60831037D01*
X171850521Y-60842082D01*
X171769348Y-60927839D01*
X171677895Y-60993857D01*
X171631033Y-61015949D01*
X171509905Y-61045162D01*
X171378684Y-61033649D01*
X171226968Y-60979559D01*
X171044357Y-60881039D01*
X171020139Y-60866565D01*
X170908889Y-60805250D01*
X170834962Y-60777920D01*
X170787665Y-60782140D01*
X170756303Y-60815475D01*
X170747622Y-60827110D01*
X170693526Y-60874742D01*
X170615646Y-60926823D01*
X170565493Y-60953764D01*
X170475188Y-60979992D01*
X170369821Y-60972899D01*
X170253944Y-60940514D01*
X170098344Y-60874187D01*
X169927988Y-60784487D01*
X169757467Y-60680379D01*
X169601370Y-60570830D01*
X169474289Y-60464807D01*
X169390814Y-60371274D01*
X169364498Y-60327783D01*
X169327341Y-60231329D01*
X169326046Y-60154453D01*
X169362190Y-60111475D01*
X169371534Y-60111081D01*
X169430588Y-60127261D01*
X169529815Y-60165223D01*
X169658051Y-60220492D01*
X169804131Y-60288594D01*
X169896508Y-60333074D01*
X170076973Y-60418869D01*
X170211673Y-60480687D01*
X170307363Y-60521286D01*
X170370798Y-60543424D01*
X170408729Y-60549861D01*
X170427912Y-60543354D01*
X170428906Y-60542174D01*
X170421799Y-60502578D01*
X170376799Y-60428396D01*
X170299766Y-60328073D01*
X170196562Y-60210052D01*
X170138705Y-60143064D01*
X170052745Y-60028855D01*
X169979580Y-59915321D01*
X169935943Y-59831541D01*
X170561084Y-59831541D01*
X170570888Y-59860951D01*
X170616057Y-59931460D01*
X170687763Y-60022240D01*
X170774729Y-60120134D01*
X170865679Y-60211982D01*
X170949337Y-60284625D01*
X171020272Y-60336847D01*
X171129121Y-60410322D01*
X171219054Y-60463860D01*
X171233176Y-60471227D01*
X171297015Y-60501436D01*
X171320411Y-60501694D01*
X171314765Y-60473102D01*
X171285414Y-60425793D01*
X171226529Y-60353742D01*
X171152454Y-60273081D01*
X171076817Y-60197954D01*
X171013249Y-60142505D01*
X170975377Y-60120879D01*
X170961412Y-60118329D01*
X170908304Y-60081206D01*
X170860691Y-60019695D01*
X170840049Y-59959414D01*
X170836336Y-59935971D01*
X170801282Y-59880150D01*
X170783680Y-59868653D01*
X170720217Y-59842988D01*
X170646842Y-59825188D01*
X170586238Y-59819842D01*
X170561084Y-59831541D01*
X169935943Y-59831541D01*
X169928713Y-59817661D01*
X169909646Y-59751077D01*
X169909888Y-59744060D01*
X169940112Y-59662145D01*
X170005707Y-59588712D01*
X170084940Y-59548837D01*
X170087190Y-59548399D01*
X170162585Y-59524484D01*
X170249428Y-59485810D01*
X170435287Y-59423398D01*
X170648777Y-59416305D01*
X170886902Y-59466025D01*
X171149554Y-59572547D01*
X171165684Y-59580693D01*
X171284687Y-59652322D01*
X171407258Y-59742622D01*
X171522158Y-59841296D01*
X171618146Y-59938046D01*
X171683982Y-60022572D01*
X171708425Y-60084577D01*
X171717125Y-60124700D01*
X171752237Y-60207897D01*
X171805092Y-60303276D01*
X171847484Y-60377970D01*
X171892750Y-60501694D01*
X171909514Y-60547516D01*
G37*
G36*
X165315899Y-57930528D02*
G01*
X165438908Y-58000012D01*
X165562507Y-58103430D01*
X165642903Y-58172018D01*
X165757460Y-58234903D01*
X165901500Y-58277033D01*
X166090995Y-58304485D01*
X166107235Y-58306306D01*
X166202695Y-58319666D01*
X166330327Y-58340091D01*
X166467155Y-58363947D01*
X166467447Y-58364001D01*
X166638914Y-58393965D01*
X166795379Y-58418995D01*
X166921551Y-58436773D01*
X167002137Y-58444983D01*
X167016921Y-58462431D01*
X167025397Y-58518942D01*
X167005318Y-58597530D01*
X166935721Y-58690220D01*
X166828204Y-58766898D01*
X166796243Y-58781645D01*
X166752624Y-58792360D01*
X166696535Y-58791834D01*
X166616166Y-58778680D01*
X166499707Y-58751507D01*
X166335348Y-58708927D01*
X166283138Y-58696526D01*
X166214792Y-58686140D01*
X166188034Y-58691201D01*
X166205654Y-58718346D01*
X166257377Y-58776245D01*
X166331265Y-58850625D01*
X166362754Y-58882219D01*
X166450044Y-58975241D01*
X166562714Y-59099793D01*
X166691375Y-59245064D01*
X166826637Y-59400241D01*
X166959111Y-59554514D01*
X167079406Y-59697070D01*
X167178134Y-59817098D01*
X167245904Y-59903785D01*
X167279794Y-59950964D01*
X167394014Y-60139031D01*
X167465729Y-60311775D01*
X167490598Y-60459343D01*
X167488298Y-60520316D01*
X167471728Y-60587140D01*
X167429505Y-60650157D01*
X167350493Y-60730957D01*
X167312413Y-60766585D01*
X167234050Y-60828583D01*
X167165480Y-60857849D01*
X167085339Y-60865202D01*
X167072966Y-60864963D01*
X166960759Y-60848048D01*
X166861036Y-60812620D01*
X166850628Y-60807174D01*
X166775890Y-60771669D01*
X166726147Y-60753797D01*
X166724095Y-60753423D01*
X166643320Y-60724607D01*
X166546235Y-60671624D01*
X166451072Y-60606846D01*
X166376066Y-60542645D01*
X166339449Y-60491394D01*
X166335881Y-60479016D01*
X166321555Y-60445963D01*
X166315179Y-60472365D01*
X166314850Y-60477584D01*
X166307551Y-60508411D01*
X166286071Y-60515234D01*
X166241956Y-60494233D01*
X166166749Y-60441588D01*
X166051996Y-60353480D01*
X166016881Y-60325968D01*
X165907714Y-60235792D01*
X165835408Y-60161073D01*
X165789165Y-60085348D01*
X165758189Y-59992152D01*
X165731683Y-59865018D01*
X165727023Y-59834349D01*
X165735048Y-59790445D01*
X165779124Y-59779731D01*
X165818992Y-59785938D01*
X165883438Y-59820234D01*
X165908039Y-59840911D01*
X165978596Y-59881250D01*
X165990913Y-59886832D01*
X166054843Y-59922759D01*
X166148980Y-59980779D01*
X166257717Y-60051379D01*
X166368206Y-60120829D01*
X166501840Y-60198409D01*
X166644030Y-60276240D01*
X166782411Y-60347919D01*
X166904615Y-60407044D01*
X166998273Y-60447214D01*
X167051020Y-60462027D01*
X167062953Y-60460926D01*
X167087424Y-60442197D01*
X167087405Y-60441298D01*
X167066682Y-60388810D01*
X167010949Y-60297808D01*
X166926171Y-60175956D01*
X166818311Y-60030923D01*
X166693334Y-59870372D01*
X166557201Y-59701969D01*
X166415878Y-59533381D01*
X166275328Y-59372274D01*
X166141514Y-59226312D01*
X166086170Y-59169191D01*
X165959232Y-59044605D01*
X165812402Y-58906615D01*
X165656356Y-58764714D01*
X165501769Y-58628395D01*
X165359319Y-58507151D01*
X165239681Y-58410474D01*
X165153532Y-58347856D01*
X165128167Y-58331434D01*
X165032860Y-58266144D01*
X164978208Y-58217753D01*
X164953368Y-58174519D01*
X164947497Y-58124696D01*
X164948971Y-58107926D01*
X164986302Y-58028263D01*
X165060114Y-57954506D01*
X165151842Y-57906479D01*
X165206846Y-57901391D01*
X165315899Y-57930528D01*
G37*
G36*
X160155120Y-60853072D02*
G01*
X160072637Y-60907117D01*
X160145293Y-60964133D01*
X160181455Y-60990383D01*
X160264438Y-61047916D01*
X160381214Y-61127541D01*
X160521951Y-61222674D01*
X160676816Y-61326726D01*
X160835976Y-61433113D01*
X160989599Y-61535249D01*
X161127854Y-61626546D01*
X161240907Y-61700420D01*
X161318925Y-61750283D01*
X161327285Y-61755489D01*
X161479876Y-61848860D01*
X161585957Y-61909839D01*
X161650046Y-61940876D01*
X161676658Y-61944424D01*
X161677306Y-61943348D01*
X161674220Y-61903928D01*
X161656828Y-61822856D01*
X161628507Y-61716138D01*
X161610752Y-61650027D01*
X161581848Y-61513920D01*
X161568408Y-61402424D01*
X161571442Y-61327070D01*
X161591962Y-61299390D01*
X161605215Y-61302939D01*
X161659055Y-61344639D01*
X161732265Y-61423959D01*
X161816249Y-61529193D01*
X161902412Y-61648631D01*
X161982159Y-61770566D01*
X162046894Y-61883289D01*
X162088022Y-61975092D01*
X162090275Y-61981881D01*
X162104323Y-62100102D01*
X162064087Y-62211834D01*
X161966312Y-62326472D01*
X161897466Y-62380937D01*
X161819610Y-62409901D01*
X161723627Y-62406607D01*
X161590802Y-62373392D01*
X161505973Y-62339222D01*
X161379727Y-62276608D01*
X161225214Y-62192722D01*
X161054164Y-62094318D01*
X160878307Y-61988148D01*
X160709374Y-61880964D01*
X160559096Y-61779519D01*
X160453519Y-61708803D01*
X160343246Y-61641122D01*
X160258182Y-61595272D01*
X160248318Y-61590543D01*
X160146098Y-61530249D01*
X160056822Y-61461631D01*
X160054092Y-61459128D01*
X159982182Y-61400738D01*
X159879910Y-61326123D01*
X159768481Y-61250788D01*
X159757153Y-61243413D01*
X159651628Y-61170916D01*
X159562341Y-61103427D01*
X159507586Y-61054695D01*
X159459441Y-61010161D01*
X159418982Y-60989255D01*
X159386804Y-60974200D01*
X159314233Y-60929529D01*
X159213087Y-60862368D01*
X159094518Y-60779915D01*
X158986661Y-60703422D01*
X158873520Y-60623323D01*
X158784742Y-60560627D01*
X158733428Y-60524596D01*
X158719421Y-60514659D01*
X158654482Y-60467459D01*
X158554940Y-60394328D01*
X158431563Y-60303190D01*
X158295116Y-60201972D01*
X157878823Y-59884103D01*
X157483648Y-59562232D01*
X157145673Y-59263050D01*
X156864709Y-58986340D01*
X156640567Y-58731886D01*
X156473058Y-58499472D01*
X156361992Y-58288882D01*
X156307181Y-58099900D01*
X156308435Y-57932311D01*
X156317860Y-57903444D01*
X156673834Y-57903444D01*
X156679794Y-57954701D01*
X156721180Y-58055222D01*
X156794959Y-58182478D01*
X156894629Y-58326527D01*
X157013692Y-58477425D01*
X157145646Y-58625228D01*
X157263976Y-58746085D01*
X157486820Y-58958526D01*
X157739098Y-59181074D01*
X158024963Y-59417023D01*
X158348571Y-59669666D01*
X158714077Y-59942297D01*
X159125635Y-60238209D01*
X159587401Y-60560696D01*
X159602034Y-60570811D01*
X159718537Y-60652443D01*
X159827518Y-60730461D01*
X159907098Y-60789224D01*
X159913148Y-60793829D01*
X159982150Y-60842687D01*
X160010222Y-60849785D01*
X159999908Y-60811599D01*
X159953753Y-60724606D01*
X159923250Y-60672858D01*
X159836788Y-60537815D01*
X159714384Y-60356760D01*
X159557413Y-60131650D01*
X159367246Y-59864445D01*
X159145258Y-59557101D01*
X158892821Y-59211579D01*
X158820286Y-59111751D01*
X158755614Y-59020922D01*
X158713797Y-58960113D01*
X158708705Y-58952383D01*
X158667664Y-58890792D01*
X158601716Y-58792380D01*
X158518817Y-58669006D01*
X158426923Y-58532528D01*
X158402670Y-58496200D01*
X158317892Y-58363364D01*
X158249275Y-58246785D01*
X158203331Y-58157954D01*
X158186569Y-58108361D01*
X158198267Y-58046558D01*
X158234908Y-57967022D01*
X158260569Y-57924810D01*
X158263844Y-57893673D01*
X158227155Y-57876626D01*
X158134962Y-57852949D01*
X157943966Y-57817081D01*
X157724879Y-57788034D01*
X157498889Y-57768419D01*
X157287179Y-57760845D01*
X157151883Y-57762349D01*
X156947035Y-57775861D01*
X156800169Y-57803627D01*
X156709648Y-57846028D01*
X156673834Y-57903444D01*
X156317860Y-57903444D01*
X156337196Y-57844221D01*
X156428950Y-57716208D01*
X156572380Y-57605085D01*
X156761830Y-57514001D01*
X156991644Y-57446107D01*
X157256166Y-57404552D01*
X157309274Y-57400857D01*
X157474248Y-57401083D01*
X157672023Y-57413648D01*
X157890754Y-57436625D01*
X158118600Y-57468085D01*
X158343714Y-57506101D01*
X158554254Y-57548745D01*
X158738376Y-57594088D01*
X158884235Y-57640203D01*
X158979989Y-57685162D01*
X159062729Y-57739375D01*
X158972258Y-57829846D01*
X158936726Y-57861958D01*
X158845069Y-57913154D01*
X158720258Y-57939448D01*
X158658241Y-57948904D01*
X158586625Y-57967322D01*
X158558730Y-57985961D01*
X158567148Y-58005432D01*
X158605700Y-58067580D01*
X158668360Y-58159220D01*
X158747233Y-58268515D01*
X158834737Y-58387166D01*
X159095111Y-58742697D01*
X159337183Y-59076995D01*
X159558807Y-59386938D01*
X159757840Y-59669404D01*
X159932136Y-59921272D01*
X160079552Y-60139420D01*
X160197941Y-60320727D01*
X160285160Y-60462071D01*
X160339064Y-60560330D01*
X160357509Y-60612382D01*
X160346649Y-60663149D01*
X160280365Y-60754771D01*
X160159308Y-60849785D01*
X160155120Y-60853072D01*
G37*
G36*
X172120068Y-57527119D02*
G01*
X172314322Y-57545028D01*
X172548012Y-57575977D01*
X172826390Y-57620188D01*
X173154707Y-57677879D01*
X173538217Y-57749271D01*
X173544009Y-57750369D01*
X173741200Y-57787639D01*
X173927501Y-57822617D01*
X174090402Y-57852972D01*
X174217394Y-57876371D01*
X174295967Y-57890485D01*
X174418017Y-57919572D01*
X174493958Y-57961935D01*
X174519209Y-58021857D01*
X174499483Y-58105370D01*
X174487686Y-58131630D01*
X174413585Y-58230389D01*
X174308601Y-58278967D01*
X174165735Y-58281048D01*
X174161827Y-58280564D01*
X174053507Y-58263246D01*
X173899745Y-58233692D01*
X173714523Y-58194831D01*
X173511820Y-58149590D01*
X173305616Y-58100898D01*
X173299093Y-58099320D01*
X173117423Y-58059759D01*
X172902632Y-58019426D01*
X172678063Y-57982201D01*
X172467057Y-57951963D01*
X172292958Y-57932592D01*
X172034066Y-57910453D01*
X172096093Y-57980209D01*
X172101780Y-57986411D01*
X172178021Y-58055555D01*
X172297240Y-58149095D01*
X172450139Y-58260566D01*
X172627420Y-58383503D01*
X172819785Y-58511442D01*
X173017936Y-58637918D01*
X173212576Y-58756467D01*
X173298352Y-58807364D01*
X173451417Y-58898582D01*
X173587986Y-58980450D01*
X173695749Y-59045577D01*
X173762400Y-59086574D01*
X173832879Y-59129776D01*
X173883601Y-59154476D01*
X173899265Y-59146858D01*
X173888868Y-59108480D01*
X173864416Y-59069451D01*
X173806061Y-58995655D01*
X173727322Y-58904311D01*
X173640734Y-58809482D01*
X173558834Y-58725233D01*
X173494156Y-58665628D01*
X173465183Y-58641286D01*
X173352989Y-58528449D01*
X173297764Y-58430196D01*
X173297986Y-58342184D01*
X173352137Y-58260073D01*
X173385495Y-58232294D01*
X173471736Y-58202173D01*
X173573670Y-58219886D01*
X173693680Y-58286976D01*
X173834149Y-58404984D01*
X173997457Y-58575453D01*
X174185987Y-58799926D01*
X174325137Y-58973613D01*
X174497493Y-59188535D01*
X174638507Y-59363330D01*
X174752706Y-59502807D01*
X174844615Y-59611776D01*
X174918759Y-59695049D01*
X174979666Y-59757433D01*
X175031860Y-59803741D01*
X175079868Y-59838781D01*
X175128215Y-59867363D01*
X175181428Y-59894298D01*
X175244031Y-59924395D01*
X175331683Y-59967505D01*
X175417428Y-60014523D01*
X175465227Y-60052295D01*
X175486085Y-60090349D01*
X175491007Y-60138212D01*
X175480094Y-60218046D01*
X175447911Y-60293279D01*
X175442560Y-60300731D01*
X175419982Y-60353287D01*
X175443503Y-60400000D01*
X175473785Y-60439408D01*
X175534465Y-60533558D01*
X175597363Y-60645093D01*
X175653457Y-60756674D01*
X175693729Y-60850965D01*
X175709157Y-60910626D01*
X175708933Y-60916184D01*
X175679540Y-60987518D01*
X175614866Y-61061976D01*
X175535112Y-61120572D01*
X175460480Y-61144322D01*
X175439150Y-61137480D01*
X175387999Y-61089420D01*
X175317757Y-60992171D01*
X175225479Y-60841941D01*
X175120044Y-60666496D01*
X175028026Y-60525798D01*
X174951010Y-60425123D01*
X174882735Y-60356342D01*
X174816939Y-60311320D01*
X174801146Y-60303718D01*
X174724951Y-60272540D01*
X174607692Y-60228384D01*
X174462177Y-60175998D01*
X174301215Y-60120131D01*
X174283418Y-60114080D01*
X173940420Y-60002463D01*
X173605788Y-59902649D01*
X173289264Y-59817128D01*
X173000593Y-59748394D01*
X172749520Y-59698937D01*
X172545787Y-59671249D01*
X172446003Y-59661325D01*
X172342421Y-59649008D01*
X172276321Y-59638738D01*
X172273864Y-59638229D01*
X172209386Y-59637153D01*
X172195794Y-59669606D01*
X172232764Y-59734172D01*
X172319972Y-59829435D01*
X172381395Y-59883731D01*
X172503746Y-59978806D01*
X172664720Y-60094932D01*
X172855687Y-60226471D01*
X173068011Y-60367782D01*
X173293062Y-60513226D01*
X173522205Y-60657163D01*
X173746809Y-60793954D01*
X173958240Y-60917960D01*
X174147865Y-61023540D01*
X174239008Y-61073039D01*
X174331662Y-61124482D01*
X174391087Y-61158807D01*
X174418089Y-61174957D01*
X174533946Y-61240640D01*
X174696067Y-61329047D01*
X174897442Y-61436591D01*
X175131062Y-61559688D01*
X175389917Y-61694752D01*
X175666997Y-61838197D01*
X175955292Y-61986439D01*
X176247792Y-62135892D01*
X176537489Y-62282971D01*
X176817371Y-62424090D01*
X177080429Y-62555663D01*
X177319654Y-62674106D01*
X177528035Y-62775833D01*
X177698563Y-62857259D01*
X177824228Y-62914798D01*
X177889472Y-62942339D01*
X178018535Y-62990475D01*
X178128769Y-63023731D01*
X178201622Y-63036142D01*
X178264421Y-63045818D01*
X178360986Y-63078270D01*
X178464944Y-63125402D01*
X178559722Y-63178688D01*
X178628743Y-63229601D01*
X178655433Y-63269613D01*
X178644229Y-63332551D01*
X178590053Y-63432549D01*
X178505763Y-63511816D01*
X178451467Y-63538983D01*
X178388061Y-63552193D01*
X178309912Y-63548809D01*
X178210260Y-63526916D01*
X178082345Y-63484598D01*
X177919406Y-63419940D01*
X177714683Y-63331027D01*
X177461416Y-63215944D01*
X177345081Y-63161828D01*
X177138701Y-63063908D01*
X176905333Y-62951341D01*
X176651878Y-62827602D01*
X176385237Y-62696167D01*
X176112309Y-62560509D01*
X175839996Y-62424103D01*
X175575198Y-62290424D01*
X175324815Y-62162947D01*
X175095748Y-62045146D01*
X174894897Y-61940496D01*
X174729163Y-61852471D01*
X174605446Y-61784547D01*
X174530647Y-61740197D01*
X174495009Y-61718669D01*
X174406555Y-61669067D01*
X174289155Y-61605717D01*
X174158486Y-61537171D01*
X173996873Y-61450258D01*
X173795735Y-61336860D01*
X173568803Y-61205154D01*
X173329165Y-61062981D01*
X173089906Y-60918185D01*
X172864114Y-60778606D01*
X172664875Y-60652089D01*
X172505276Y-60546474D01*
X172342155Y-60431096D01*
X172099705Y-60239253D01*
X171916727Y-60063245D01*
X171793008Y-59902681D01*
X171728335Y-59757167D01*
X171722494Y-59626311D01*
X171775273Y-59509720D01*
X171886458Y-59407002D01*
X171930366Y-59378759D01*
X171978555Y-59356271D01*
X172037129Y-59342394D01*
X172118995Y-59335316D01*
X172237059Y-59333224D01*
X172404229Y-59334306D01*
X172462343Y-59335110D01*
X172658833Y-59342339D01*
X172830812Y-59358640D01*
X173006114Y-59387376D01*
X173212576Y-59431906D01*
X173249272Y-59440354D01*
X173393898Y-59472685D01*
X173512396Y-59497657D01*
X173593359Y-59512943D01*
X173625383Y-59516213D01*
X173612152Y-59504345D01*
X173556499Y-59467166D01*
X173468467Y-59411826D01*
X173359950Y-59345451D01*
X173242843Y-59275167D01*
X173129037Y-59208097D01*
X173030428Y-59151369D01*
X172958907Y-59112107D01*
X172926369Y-59097436D01*
X172912983Y-59092501D01*
X172853840Y-59058711D01*
X172757858Y-58998049D01*
X172633894Y-58916587D01*
X172490801Y-58820402D01*
X172337436Y-58715567D01*
X172182652Y-58608158D01*
X172035306Y-58504249D01*
X171904251Y-58409914D01*
X171798344Y-58331229D01*
X171726440Y-58274268D01*
X171675263Y-58230090D01*
X171572655Y-58131488D01*
X171506806Y-58044368D01*
X171466934Y-57952196D01*
X171442260Y-57838441D01*
X171437778Y-57799507D01*
X171450687Y-57728632D01*
X171507227Y-57664346D01*
X171556500Y-57625512D01*
X171632361Y-57581507D01*
X171721396Y-57549446D01*
X171828857Y-57529548D01*
X171959997Y-57522033D01*
X172120068Y-57527119D01*
G37*
%TD*%
M02*
