M48
; DRILL file {KiCad 8.0.6-1.fc40} date 2025-02-15T22:24:17+0100
; FORMAT={-:-/ absolute / inch / decimal}
; #@! TF.CreationDate,2025-02-15T22:24:17+01:00
; #@! TF.GenerationSoftware,Kicad,Pcbnew,8.0.6-1.fc40
; #@! TF.FileFunction,Plated,1,2,PTH
FMAT,2
INCH
; #@! TA.AperFunction,Plated,PTH,ComponentDrill
T1C0.0079
; #@! TA.AperFunction,Plated,PTH,ViaDrill
T2C0.0118
; #@! TA.AperFunction,Plated,PTH,ViaDrill
T3C0.0197
; #@! TA.AperFunction,Plated,PTH,ComponentDrill
T4C0.0394
; #@! TA.AperFunction,Plated,PTH,ComponentDrill
T5C0.0709
%
G90
G05
T1
X5.6063Y-4.2133
X5.6063Y-4.244
X5.6369Y-4.1827
X5.6369Y-4.2133
X5.6369Y-4.244
X5.6369Y-4.2746
X5.6675Y-4.1827
X5.6675Y-4.2133
X5.6675Y-4.244
X5.6675Y-4.2746
X5.6982Y-4.2133
X5.6982Y-4.244
T2
X3.9764Y-4.4193
X3.9764Y-4.4488
X4.0354Y-4.3012
X4.0354Y-4.3307
X4.0551Y-3.435
X4.0551Y-3.4646
X4.065Y-4.3012
X4.065Y-4.3307
X4.065Y-4.439
X4.0846Y-3.435
X4.0846Y-3.4646
X4.0945Y-4.439
X4.1142Y-3.435
X4.1142Y-3.4646
X4.1437Y-3.435
X4.1437Y-3.4646
X4.1575Y-4.4567
X4.1614Y-4.4961
X4.1654Y-4.5433
X4.1831Y-4.7244
X4.1831Y-4.7539
X4.2126Y-4.7244
X4.2126Y-4.7539
X4.252Y-5.5512
X4.2618Y-4.5374
X4.2913Y-4.5374
X4.311Y-4.7638
X4.3386Y-4.2756
X4.3386Y-4.3071
X4.3406Y-5.0098
X4.3406Y-5.0394
X4.3583Y-4.7717
X4.3701Y-3.1988
X4.3701Y-3.2283
X4.3701Y-5.0098
X4.3701Y-5.0394
X4.3937Y-4.7677
X4.3996Y-3.1988
X4.3996Y-3.2283
X4.4213Y-4.5787
X4.4291Y-3.1988
X4.4291Y-3.2283
X4.4409Y-4.7717
X4.4449Y-4.6142
X4.4587Y-3.1988
X4.4587Y-3.2283
X4.4655Y-4.3395
X4.4803Y-5.1897
X4.4803Y-5.2527
X4.4803Y-5.3157
X4.4803Y-5.3787
X4.4803Y-5.4417
X4.4803Y-5.5047
X4.4803Y-5.5677
X4.4803Y-5.6307
X4.4882Y-4.1339
X4.4882Y-4.1634
X4.4882Y-4.1929
X4.5177Y-4.1339
X4.5177Y-4.1634
X4.5177Y-4.1929
X4.5394Y-4.2323
X4.5472Y-4.1339
X4.5472Y-4.1634
X4.5587Y-4.4409
X4.5787Y-4.752
X4.5787Y-5.0433
X4.5787Y-5.0827
X4.6024Y-4.2244
X4.6033Y-4.9576
X4.6063Y-4.7756
X4.6092Y-4.5945
X4.6123Y-4.6259
X4.6142Y-4.6888
X4.6142Y-4.6573
X4.626Y-4.4055
X4.6532Y-4.5279
X4.6535Y-4.874
X4.6575Y-4.0512
X4.6594Y-4.4587
X4.674Y-4.5008
X4.6772Y-4.7441
X4.689Y-4.2441
X4.6969Y-4.4606
X4.7031Y-5.0725
X4.7047Y-4.9508
X4.7047Y-4.9803
X4.7087Y-4.6417
X4.7087Y-4.6693
X4.7323Y-4.4606
X4.7343Y-4.9508
X4.7343Y-4.9803
X4.7362Y-4.6417
X4.7362Y-4.6693
X4.75Y-5.0591
X4.7598Y-5.5433
X4.7638Y-4.6417
X4.7795Y-4.1535
X4.7835Y-5.0394
X4.7878Y-5.5288
X4.8189Y-4.2559
X4.8228Y-3.8228
X4.8228Y-4.0197
X4.8307Y-4.8937
X4.8307Y-4.9961
X4.8332Y-4.8623
X4.8334Y-4.7996
X4.8386Y-4.8307
X4.8387Y-4.368
X4.8524Y-3.4449
X4.8524Y-3.4744
X4.8545Y-4.2578
X4.8702Y-4.3601
X4.8781Y-4.4153
X4.8819Y-3.4449
X4.8819Y-3.4744
X4.886Y-4.1948
X4.8976Y-4.5748
X4.9055Y-4.0827
X4.9114Y-3.4449
X4.9114Y-3.4744
X4.9175Y-4.3995
X4.9213Y-4.9094
X4.9213Y-4.937
X4.9213Y-4.9646
X4.9213Y-4.9921
X4.9213Y-5.0787
X4.937Y-4.6929
X4.9409Y-3.4449
X4.9409Y-3.4744
X4.9409Y-3.7756
X4.9409Y-3.811
X4.9528Y-4.5512
X4.9606Y-4.4173
X4.9606Y-4.4449
X4.9705Y-3.4449
X4.9705Y-3.4744
X4.9705Y-4.9515
X4.9705Y-5.0992
X4.9705Y-5.2763
X4.9764Y-4.6929
X4.9882Y-4.4449
X4.9882Y-4.4724
X5.0Y-3.4449
X5.0Y-3.4744
X5.0157Y-4.4724
X5.0157Y-4.5
X5.0203Y-4.6923
X5.0295Y-3.4449
X5.0295Y-3.4744
X5.0295Y-4.9515
X5.0295Y-5.0992
X5.0295Y-5.2763
X5.0394Y-5.5413
X5.0394Y-5.5709
X5.0433Y-4.0866
X5.0591Y-3.4449
X5.0591Y-3.4744
X5.063Y-4.6929
X5.0689Y-5.5413
X5.0689Y-5.5709
X5.0827Y-4.3071
X5.0886Y-3.4449
X5.0886Y-3.4744
X5.0886Y-4.9515
X5.0886Y-5.0992
X5.0886Y-5.2763
X5.0984Y-5.5413
X5.0984Y-5.5709
X5.1181Y-3.4449
X5.1181Y-3.4744
X5.126Y-4.6417
X5.128Y-5.5413
X5.128Y-5.5709
X5.1476Y-3.4449
X5.1476Y-3.4744
X5.1476Y-4.9515
X5.1476Y-5.0992
X5.1476Y-5.2763
X5.1496Y-3.7165
X5.1496Y-3.7598
X5.1496Y-4.0669
X5.1732Y-4.7756
X5.1772Y-3.4449
X5.1772Y-3.4744
X5.1811Y-4.0669
X5.187Y-4.2815
X5.187Y-4.311
X5.2067Y-3.4449
X5.2067Y-3.4744
X5.2067Y-4.9515
X5.2067Y-5.0992
X5.2067Y-5.2763
X5.2087Y-4.7756
X5.2165Y-4.2815
X5.2165Y-4.311
X5.2362Y-3.4449
X5.2362Y-3.4744
X5.2441Y-4.7756
X5.2461Y-4.2815
X5.2461Y-4.311
X5.2638Y-3.8937
X5.2657Y-3.4449
X5.2657Y-3.4744
X5.2657Y-4.9515
X5.2657Y-5.0992
X5.2661Y-5.2759
X5.2756Y-4.2815
X5.2756Y-4.311
X5.2953Y-3.4449
X5.2953Y-3.4744
X5.3031Y-4.7756
X5.3099Y-3.8752
X5.3248Y-3.4449
X5.3248Y-3.4744
X5.3248Y-4.9515
X5.3248Y-5.0992
X5.3248Y-5.2763
X5.3543Y-3.4449
X5.3543Y-3.4744
X5.3661Y-4.7756
X5.3839Y-3.4449
X5.3839Y-3.4744
X5.3839Y-4.9515
X5.3839Y-5.0992
X5.3839Y-5.2763
X5.4094Y-4.748
X5.4134Y-3.4449
X5.4134Y-3.4744
X5.4264Y-4.033
X5.4317Y-4.7244
X5.4409Y-3.7953
X5.4429Y-3.4449
X5.4429Y-3.4744
X5.4429Y-4.9515
X5.4429Y-5.0992
X5.4429Y-5.2763
X5.4724Y-3.4449
X5.4724Y-3.4744
X5.502Y-3.4449
X5.502Y-3.4744
X5.502Y-4.9515
X5.502Y-5.0992
X5.502Y-5.2763
X5.5315Y-3.4449
X5.5315Y-3.4744
X5.5472Y-5.2205
X5.5472Y-5.5984
X5.5787Y-5.6063
X5.6063Y-5.1575
X5.622Y-5.122
X5.6429Y-3.6983
X5.689Y-5.0886
X5.689Y-5.1181
X5.689Y-5.1476
X5.689Y-5.1772
X5.7185Y-5.0886
X5.7185Y-5.1181
X5.7185Y-5.1476
X5.7185Y-5.1772
X5.748Y-5.0886
X5.748Y-5.1181
X5.748Y-5.1476
X5.748Y-5.1772
X5.7776Y-5.0886
X5.7776Y-5.1181
X5.7776Y-5.1476
X5.7776Y-5.1772
X5.8386Y-4.6299
X5.8543Y-5.1772
X5.8563Y-3.2677
X5.8563Y-3.2972
X5.8563Y-3.5138
X5.8563Y-3.5433
X5.8701Y-5.3307
X5.8858Y-3.2677
X5.8858Y-3.2972
X5.8858Y-3.5138
X5.8858Y-3.5433
X5.8991Y-5.0381
X5.9094Y-4.9724
X5.9154Y-3.2677
X5.9154Y-3.2972
X5.9154Y-3.5138
X5.9154Y-3.5433
X5.9154Y-3.9567
X5.9154Y-3.9862
X5.9449Y-3.2677
X5.9449Y-3.2972
X5.9449Y-3.5138
X5.9449Y-3.5433
X5.9449Y-3.9567
X5.9449Y-3.9862
X5.9646Y-4.752
X5.9744Y-3.9567
X5.9744Y-3.9862
X6.0039Y-3.9567
X6.0039Y-3.9862
X6.0138Y-5.3839
X6.0138Y-5.4134
X6.0433Y-5.3839
X6.0433Y-5.4134
X6.0728Y-5.3839
X6.0728Y-5.4134
X6.0812Y-4.9063
X6.1024Y-5.3839
X6.1024Y-5.4134
T3
X4.0591Y-3.7251
X4.063Y-4.0834
X4.1024Y-3.9692
X4.1083Y-4.0453
X4.252Y-4.0598
X4.3543Y-3.7992
X4.376Y-3.6634
X4.8819Y-3.3661
X5.4096Y-3.8525
X5.4303Y-3.6904
X5.509Y-3.9503
X5.6193Y-3.84
T4
X4.0289Y-3.2527
X4.1289Y-3.2527
T5
X4.3425Y-3.3944
X4.5866Y-3.3944
X5.7756Y-3.3944
X6.0197Y-3.3944
M30
