%TF.GenerationSoftware,KiCad,Pcbnew,8.0.6-1.fc40*%
%TF.CreationDate,2025-02-15T22:24:14+01:00*%
%TF.ProjectId,airMouse-mcu,6169724d-6f75-4736-952d-6d63752e6b69,RC1*%
%TF.SameCoordinates,Original*%
%TF.FileFunction,Paste,Top*%
%TF.FilePolarity,Positive*%
%FSLAX46Y46*%
G04 Gerber Fmt 4.6, Leading zero omitted, Abs format (unit mm)*
G04 Created by KiCad (PCBNEW 8.0.6-1.fc40) date 2025-02-15 22:24:14*
%MOMM*%
%LPD*%
G01*
G04 APERTURE LIST*
G04 Aperture macros list*
%AMRoundRect*
0 Rectangle with rounded corners*
0 $1 Rounding radius*
0 $2 $3 $4 $5 $6 $7 $8 $9 X,Y pos of 4 corners*
0 Add a 4 corners polygon primitive as box body*
4,1,4,$2,$3,$4,$5,$6,$7,$8,$9,$2,$3,0*
0 Add four circle primitives for the rounded corners*
1,1,$1+$1,$2,$3*
1,1,$1+$1,$4,$5*
1,1,$1+$1,$6,$7*
1,1,$1+$1,$8,$9*
0 Add four rect primitives between the rounded corners*
20,1,$1+$1,$2,$3,$4,$5,0*
20,1,$1+$1,$4,$5,$6,$7,0*
20,1,$1+$1,$6,$7,$8,$9,0*
20,1,$1+$1,$8,$9,$2,$3,0*%
%AMRotRect*
0 Rectangle, with rotation*
0 The origin of the aperture is its center*
0 $1 length*
0 $2 width*
0 $3 Rotation angle, in degrees counterclockwise*
0 Add horizontal line*
21,1,$1,$2,0,0,$3*%
G04 Aperture macros list end*
%ADD10RoundRect,0.200000X-0.275000X0.200000X-0.275000X-0.200000X0.275000X-0.200000X0.275000X0.200000X0*%
%ADD11RoundRect,0.250000X-0.325000X-0.650000X0.325000X-0.650000X0.325000X0.650000X-0.325000X0.650000X0*%
%ADD12RoundRect,0.150000X0.512500X0.150000X-0.512500X0.150000X-0.512500X-0.150000X0.512500X-0.150000X0*%
%ADD13R,1.750000X4.500000*%
%ADD14RoundRect,0.225000X-0.225000X-0.250000X0.225000X-0.250000X0.225000X0.250000X-0.225000X0.250000X0*%
%ADD15RoundRect,0.250000X-0.159099X0.512652X-0.512652X0.159099X0.159099X-0.512652X0.512652X-0.159099X0*%
%ADD16RoundRect,0.225000X-0.017678X0.335876X-0.335876X0.017678X0.017678X-0.335876X0.335876X-0.017678X0*%
%ADD17RoundRect,0.250000X0.512652X0.159099X0.159099X0.512652X-0.512652X-0.159099X-0.159099X-0.512652X0*%
%ADD18RoundRect,0.225000X0.335876X0.017678X0.017678X0.335876X-0.335876X-0.017678X-0.017678X-0.335876X0*%
%ADD19RoundRect,0.250000X-0.250000X-0.475000X0.250000X-0.475000X0.250000X0.475000X-0.250000X0.475000X0*%
%ADD20RoundRect,0.200000X0.200000X0.275000X-0.200000X0.275000X-0.200000X-0.275000X0.200000X-0.275000X0*%
%ADD21RotRect,0.700000X0.700000X315.000000*%
%ADD22RotRect,1.500000X0.900000X315.000000*%
%ADD23RoundRect,0.075000X-0.441942X0.548008X-0.548008X0.441942X0.441942X-0.548008X0.548008X-0.441942X0*%
%ADD24RoundRect,0.075000X0.441942X0.548008X-0.548008X-0.441942X-0.441942X-0.548008X0.548008X0.441942X0*%
%ADD25RoundRect,0.087500X-0.225000X-0.087500X0.225000X-0.087500X0.225000X0.087500X-0.225000X0.087500X0*%
%ADD26RoundRect,0.087500X-0.087500X-0.225000X0.087500X-0.225000X0.087500X0.225000X-0.087500X0.225000X0*%
%ADD27R,1.200000X1.200000*%
%ADD28RoundRect,0.200000X-0.200000X-0.275000X0.200000X-0.275000X0.200000X0.275000X-0.200000X0.275000X0*%
%ADD29RoundRect,0.200000X0.275000X-0.200000X0.275000X0.200000X-0.275000X0.200000X-0.275000X-0.200000X0*%
%ADD30RoundRect,0.200000X-0.335876X-0.053033X-0.053033X-0.335876X0.335876X0.053033X0.053033X0.335876X0*%
%ADD31RoundRect,0.150000X-0.150000X0.587500X-0.150000X-0.587500X0.150000X-0.587500X0.150000X0.587500X0*%
%ADD32R,1.800000X0.600000*%
%ADD33R,3.000000X2.500000*%
%ADD34R,2.500000X3.000000*%
%ADD35R,0.600000X1.800000*%
%ADD36RoundRect,0.175000X-1.175000X0.175000X-1.175000X-0.175000X1.175000X-0.175000X1.175000X0.175000X0*%
%ADD37RoundRect,0.250000X-0.700000X0.300000X-0.700000X-0.300000X0.700000X-0.300000X0.700000X0.300000X0*%
%ADD38RoundRect,0.175000X0.175000X1.175000X-0.175000X1.175000X-0.175000X-1.175000X0.175000X-1.175000X0*%
%ADD39RoundRect,0.250000X0.300000X0.700000X-0.300000X0.700000X-0.300000X-0.700000X0.300000X-0.700000X0*%
%ADD40RoundRect,0.218750X-0.218750X-0.256250X0.218750X-0.256250X0.218750X0.256250X-0.218750X0.256250X0*%
%ADD41RoundRect,0.225000X-0.375000X0.225000X-0.375000X-0.225000X0.375000X-0.225000X0.375000X0.225000X0*%
%ADD42RoundRect,0.225000X0.250000X-0.225000X0.250000X0.225000X-0.250000X0.225000X-0.250000X-0.225000X0*%
%ADD43RoundRect,0.225000X0.225000X0.250000X-0.225000X0.250000X-0.225000X-0.250000X0.225000X-0.250000X0*%
%ADD44RoundRect,0.225000X0.017678X-0.335876X0.335876X-0.017678X-0.017678X0.335876X-0.335876X0.017678X0*%
G04 APERTURE END LIST*
D10*
%TO.C,R6*%
X104600000Y-97593599D03*
X104600000Y-99243599D03*
%TD*%
%TO.C,R5*%
X104600000Y-94593599D03*
X104600000Y-96243599D03*
%TD*%
D11*
%TO.C,C7*%
X106325000Y-94818599D03*
X109275000Y-94818599D03*
%TD*%
D12*
%TO.C,U2*%
X108700000Y-98818599D03*
X108700000Y-97868599D03*
X108700000Y-96918599D03*
X106425000Y-96918599D03*
X106425000Y-97868599D03*
X106425000Y-98818599D03*
%TD*%
D13*
%TO.C,L1*%
X106375000Y-104618599D03*
X109625000Y-104618599D03*
%TD*%
D14*
%TO.C,C36*%
X114625000Y-143018599D03*
X116175000Y-143018599D03*
%TD*%
D15*
%TO.C,C16*%
X136001076Y-93665513D03*
X134657574Y-95009015D03*
%TD*%
D16*
%TO.C,C15*%
X137477333Y-94989256D03*
X136381317Y-96085272D03*
%TD*%
D17*
%TO.C,C12*%
X125031535Y-107475796D03*
X126375037Y-108819298D03*
%TD*%
D18*
%TO.C,C11*%
X124155278Y-109099539D03*
X125251294Y-110195555D03*
%TD*%
D14*
%TO.C,C6*%
X106825000Y-92718599D03*
X108375000Y-92718599D03*
%TD*%
%TO.C,C4*%
X151062500Y-128768599D03*
X152612500Y-128768599D03*
%TD*%
D19*
%TO.C,C2*%
X106412500Y-100868599D03*
X108312500Y-100868599D03*
%TD*%
D20*
%TO.C,R54*%
X146225000Y-139018599D03*
X144575000Y-139018599D03*
%TD*%
%TO.C,R53*%
X146225000Y-137418599D03*
X144575000Y-137418599D03*
%TD*%
D21*
%TO.C,U4*%
X143566726Y-105851873D03*
X142788909Y-106629690D03*
X142011091Y-107407508D03*
X144344544Y-106629690D03*
X143566726Y-107407508D03*
X142788909Y-108185325D03*
X145122361Y-107407508D03*
X144344544Y-108185325D03*
X143566726Y-108963143D03*
D22*
X141084781Y-96157439D03*
X140024121Y-97218099D03*
X138963461Y-98278759D03*
X137902801Y-99339419D03*
X136842141Y-100400080D03*
X135781480Y-101460740D03*
X134720820Y-102521400D03*
X133660160Y-103582060D03*
X132599500Y-104642720D03*
X144973869Y-117017089D03*
X146034529Y-115956429D03*
X147095189Y-114895769D03*
X148155849Y-113835109D03*
X149216509Y-112774448D03*
X150277170Y-111713788D03*
X151337830Y-110653128D03*
X152398490Y-109592468D03*
X153459150Y-108531808D03*
%TD*%
D23*
%TO.C,U3*%
X124367767Y-117508728D03*
X124014214Y-117862281D03*
X123660661Y-118215834D03*
X123307107Y-118569388D03*
X122953554Y-118922941D03*
X122600000Y-119276495D03*
X122246447Y-119630048D03*
X121892894Y-119983601D03*
X121539340Y-120337155D03*
X121185787Y-120690708D03*
X120832234Y-121044261D03*
X120478680Y-121397815D03*
X120125127Y-121751368D03*
X119771573Y-122104922D03*
X119418020Y-122458475D03*
X119064467Y-122812028D03*
D24*
X116342105Y-122812028D03*
X115988552Y-122458475D03*
X115634999Y-122104922D03*
X115281445Y-121751368D03*
X114927892Y-121397815D03*
X114574338Y-121044261D03*
X114220785Y-120690708D03*
X113867232Y-120337155D03*
X113513678Y-119983601D03*
X113160125Y-119630048D03*
X112806572Y-119276495D03*
X112453018Y-118922941D03*
X112099465Y-118569388D03*
X111745911Y-118215834D03*
X111392358Y-117862281D03*
X111038805Y-117508728D03*
D23*
X111038805Y-114786366D03*
X111392358Y-114432813D03*
X111745911Y-114079260D03*
X112099465Y-113725706D03*
X112453018Y-113372153D03*
X112806572Y-113018599D03*
X113160125Y-112665046D03*
X113513678Y-112311493D03*
X113867232Y-111957939D03*
X114220785Y-111604386D03*
X114574338Y-111250833D03*
X114927892Y-110897279D03*
X115281445Y-110543726D03*
X115634999Y-110190172D03*
X115988552Y-109836619D03*
X116342105Y-109483066D03*
D24*
X119064467Y-109483066D03*
X119418020Y-109836619D03*
X119771573Y-110190172D03*
X120125127Y-110543726D03*
X120478680Y-110897279D03*
X120832234Y-111250833D03*
X121185787Y-111604386D03*
X121539340Y-111957939D03*
X121892894Y-112311493D03*
X122246447Y-112665046D03*
X122600000Y-113018599D03*
X122953554Y-113372153D03*
X123307107Y-113725706D03*
X123660661Y-114079260D03*
X124014214Y-114432813D03*
X124367767Y-114786366D03*
%TD*%
D25*
%TO.C,U1*%
X150875000Y-124018599D03*
X150875000Y-124518599D03*
X150875000Y-125018599D03*
X150875000Y-125518599D03*
D26*
X151537500Y-125681099D03*
X152037500Y-125681099D03*
X152537500Y-125681099D03*
D25*
X153200000Y-125518599D03*
X153200000Y-125018599D03*
X153200000Y-124518599D03*
X153200000Y-124018599D03*
D26*
X152537500Y-123856099D03*
X152037500Y-123856099D03*
X151537500Y-123856099D03*
%TD*%
D27*
%TO.C,SW1*%
X150450000Y-93793599D03*
X150450000Y-98243599D03*
X153950000Y-93793599D03*
X153950000Y-98243599D03*
%TD*%
D28*
%TO.C,R52*%
X113000000Y-131818599D03*
X111350000Y-131818599D03*
%TD*%
%TO.C,R51*%
X113025000Y-133418599D03*
X111375000Y-133418599D03*
%TD*%
%TO.C,R50*%
X113025000Y-135018599D03*
X111375000Y-135018599D03*
%TD*%
%TO.C,R49*%
X113000000Y-136618599D03*
X111350000Y-136618599D03*
%TD*%
%TO.C,R48*%
X113000000Y-138218599D03*
X111350000Y-138218599D03*
%TD*%
%TO.C,R47*%
X113000000Y-139818599D03*
X111350000Y-139818599D03*
%TD*%
%TO.C,R46*%
X113000000Y-141418599D03*
X111350000Y-141418599D03*
%TD*%
%TO.C,R45*%
X113000000Y-143018599D03*
X111350000Y-143018599D03*
%TD*%
D29*
%TO.C,R44*%
X126250000Y-126693599D03*
X126250000Y-128343599D03*
%TD*%
%TO.C,R43*%
X127750000Y-126693599D03*
X127750000Y-128343599D03*
%TD*%
%TO.C,R42*%
X129250000Y-126693599D03*
X129250000Y-128343599D03*
%TD*%
%TO.C,R41*%
X130750000Y-126693599D03*
X130750000Y-128343599D03*
%TD*%
%TO.C,R40*%
X132250000Y-126693599D03*
X132250000Y-128343599D03*
%TD*%
%TO.C,R39*%
X133750000Y-126693599D03*
X133750000Y-128343599D03*
%TD*%
%TO.C,R38*%
X135250000Y-126693599D03*
X135250000Y-128343599D03*
%TD*%
%TO.C,R37*%
X136750000Y-126693599D03*
X136750000Y-128343599D03*
%TD*%
%TO.C,R36*%
X138250000Y-126693599D03*
X138250000Y-128343599D03*
%TD*%
%TO.C,R35*%
X139750000Y-126693599D03*
X139750000Y-128343599D03*
%TD*%
D10*
%TO.C,R34*%
X126250000Y-132343599D03*
X126250000Y-130693599D03*
%TD*%
%TO.C,R33*%
X127750000Y-132343599D03*
X127750000Y-130693599D03*
%TD*%
%TO.C,R32*%
X129260000Y-132343599D03*
X129260000Y-130693599D03*
%TD*%
%TO.C,R31*%
X130750000Y-132343599D03*
X130750000Y-130693599D03*
%TD*%
%TO.C,R30*%
X132260000Y-132343599D03*
X132260000Y-130693599D03*
%TD*%
%TO.C,R29*%
X133760000Y-132343599D03*
X133760000Y-130693599D03*
%TD*%
%TO.C,R28*%
X135250000Y-132343599D03*
X135250000Y-130693599D03*
%TD*%
%TO.C,R27*%
X136750000Y-132343599D03*
X136750000Y-130693599D03*
%TD*%
%TO.C,R26*%
X138250000Y-132343599D03*
X138250000Y-130693599D03*
%TD*%
%TO.C,R25*%
X139750000Y-132343599D03*
X139750000Y-130693599D03*
%TD*%
%TO.C,R24*%
X118250000Y-132343599D03*
X118250000Y-130693599D03*
%TD*%
%TO.C,R23*%
X119750000Y-132343599D03*
X119750000Y-130693599D03*
%TD*%
%TO.C,R22*%
X121250000Y-132343599D03*
X121250000Y-130693599D03*
%TD*%
%TO.C,R21*%
X122750000Y-132343599D03*
X122750000Y-130693599D03*
%TD*%
%TO.C,R20*%
X124250000Y-132343599D03*
X124250000Y-130693599D03*
%TD*%
D28*
%TO.C,R19*%
X103000000Y-86018599D03*
X104650000Y-86018599D03*
%TD*%
%TO.C,R18*%
X138104325Y-92337264D03*
X139754325Y-92337264D03*
%TD*%
D29*
%TO.C,R17*%
X153129325Y-113962264D03*
X153129325Y-112312264D03*
%TD*%
D28*
%TO.C,R16*%
X102175000Y-123618599D03*
X103825000Y-123618599D03*
%TD*%
%TO.C,R15*%
X102175000Y-122018599D03*
X103825000Y-122018599D03*
%TD*%
%TO.C,R14*%
X102175000Y-125218599D03*
X103825000Y-125218599D03*
%TD*%
%TO.C,R13*%
X130904325Y-100337264D03*
X132554325Y-100337264D03*
%TD*%
%TO.C,R12*%
X129129325Y-102137264D03*
X130779325Y-102137264D03*
%TD*%
D30*
%TO.C,R11*%
X115183363Y-125001962D03*
X114016637Y-123835236D03*
%TD*%
D29*
%TO.C,R10*%
X110400000Y-112418599D03*
X110400000Y-110768599D03*
%TD*%
D28*
%TO.C,R9*%
X148012500Y-119968599D03*
X149662500Y-119968599D03*
%TD*%
%TO.C,R8*%
X148012500Y-121568599D03*
X149662500Y-121568599D03*
%TD*%
D30*
%TO.C,R7*%
X121886649Y-109530910D03*
X120719923Y-108364184D03*
%TD*%
D20*
%TO.C,R4*%
X149062500Y-126568599D03*
X147412500Y-126568599D03*
%TD*%
%TO.C,R3*%
X149062500Y-124968599D03*
X147412500Y-124968599D03*
%TD*%
%TO.C,R2*%
X149062500Y-123368599D03*
X147412500Y-123368599D03*
%TD*%
%TO.C,R1*%
X154462500Y-121968599D03*
X152812500Y-121968599D03*
%TD*%
D31*
%TO.C,Q1*%
X104150000Y-105018599D03*
X102250000Y-105018599D03*
X103200000Y-106893599D03*
%TD*%
D32*
%TO.C,J6*%
X149400000Y-139518599D03*
X149400000Y-138518599D03*
X149400000Y-137518599D03*
X149400000Y-136518599D03*
D33*
X152000000Y-142018599D03*
X152000000Y-134018599D03*
%TD*%
D32*
%TO.C,J5*%
X107287500Y-130518599D03*
X107287500Y-131518599D03*
X107287500Y-132518599D03*
X107287500Y-133518599D03*
X107287500Y-134518599D03*
X107287500Y-135518599D03*
X107287500Y-136518599D03*
X107287500Y-137518599D03*
X107287500Y-138518599D03*
X107287500Y-139518599D03*
D33*
X104687500Y-128018599D03*
X104687500Y-142018599D03*
%TD*%
D34*
%TO.C,J4*%
X138750000Y-139831099D03*
X118750000Y-139831099D03*
D35*
X136250000Y-137231099D03*
X135250000Y-137231099D03*
X134250000Y-137231099D03*
X133250000Y-137231099D03*
X132250000Y-137231099D03*
X131250000Y-137231099D03*
X130250000Y-137231099D03*
X129250000Y-137231099D03*
X128250000Y-137231099D03*
X127250000Y-137231099D03*
X126250000Y-137231099D03*
X125250000Y-137231099D03*
X124250000Y-137231099D03*
X123250000Y-137231099D03*
X122250000Y-137231099D03*
X121250000Y-137231099D03*
%TD*%
D36*
%TO.C,J3*%
X128000000Y-95018599D03*
X128000000Y-96518599D03*
X128000000Y-98018599D03*
D37*
X124300000Y-93068599D03*
X124300000Y-99968599D03*
%TD*%
D38*
%TO.C,J2*%
X134500000Y-118568599D03*
X133000000Y-118568599D03*
X131500000Y-118568599D03*
D39*
X136450000Y-114868599D03*
X129550000Y-114868599D03*
%TD*%
D36*
%TO.C,J1*%
X119600000Y-95418599D03*
X119600000Y-96918599D03*
X119600000Y-98418599D03*
X119600000Y-99918599D03*
X119600000Y-101418599D03*
D37*
X115900000Y-93468599D03*
X115900000Y-103368599D03*
%TD*%
D16*
%TO.C,FB1*%
X126555278Y-111095555D03*
X127651294Y-109999539D03*
%TD*%
D40*
%TO.C,D4*%
X102212500Y-117018599D03*
X103787500Y-117018599D03*
%TD*%
%TO.C,D3*%
X102212500Y-120018599D03*
X103787500Y-120018599D03*
%TD*%
%TO.C,D2*%
X102212500Y-114018599D03*
X103787500Y-114018599D03*
%TD*%
D41*
%TO.C,D1*%
X102600000Y-96418599D03*
X102600000Y-99718599D03*
%TD*%
D14*
%TO.C,C35*%
X114625000Y-141418599D03*
X116175000Y-141418599D03*
%TD*%
%TO.C,C34*%
X114625000Y-139818599D03*
X116175000Y-139818599D03*
%TD*%
%TO.C,C33*%
X114625000Y-138218599D03*
X116175000Y-138218599D03*
%TD*%
%TO.C,C32*%
X114625000Y-136618599D03*
X116175000Y-136618599D03*
%TD*%
%TO.C,C31*%
X114625000Y-135018599D03*
X116175000Y-135018599D03*
%TD*%
%TO.C,C30*%
X114625000Y-133418599D03*
X116175000Y-133418599D03*
%TD*%
%TO.C,C29*%
X114625000Y-131818599D03*
X116175000Y-131818599D03*
%TD*%
%TO.C,C28*%
X144625000Y-135818599D03*
X146175000Y-135818599D03*
%TD*%
%TO.C,C27*%
X144625000Y-140618599D03*
X146175000Y-140618599D03*
%TD*%
D42*
%TO.C,C26*%
X139750000Y-123243599D03*
X139750000Y-124793599D03*
%TD*%
%TO.C,C25*%
X138250000Y-123243599D03*
X138250000Y-124793599D03*
%TD*%
%TO.C,C24*%
X136750000Y-123243599D03*
X136750000Y-124793599D03*
%TD*%
%TO.C,C23*%
X135250000Y-123243599D03*
X135250000Y-124793599D03*
%TD*%
%TO.C,C22*%
X133750000Y-123243599D03*
X133750000Y-124793599D03*
%TD*%
%TO.C,C21*%
X132250000Y-123243599D03*
X132250000Y-124793599D03*
%TD*%
%TO.C,C20*%
X130750000Y-123243599D03*
X130750000Y-124793599D03*
%TD*%
%TO.C,C19*%
X129250000Y-123243599D03*
X129250000Y-124793599D03*
%TD*%
%TO.C,C18*%
X127750000Y-123243599D03*
X127750000Y-124793599D03*
%TD*%
%TO.C,C17*%
X126250000Y-123243599D03*
X126250000Y-124793599D03*
%TD*%
D14*
%TO.C,C14*%
X141179325Y-92337264D03*
X142729325Y-92337264D03*
%TD*%
D43*
%TO.C,C13*%
X109000000Y-113818599D03*
X107450000Y-113818599D03*
%TD*%
D18*
%TO.C,C10*%
X126355278Y-106199539D03*
X127451294Y-107295555D03*
%TD*%
D44*
%TO.C,C9*%
X128798008Y-110951992D03*
X127701992Y-112048008D03*
%TD*%
D14*
%TO.C,C5*%
X151062500Y-127168599D03*
X152612500Y-127168599D03*
%TD*%
%TO.C,C3*%
X105950000Y-107918599D03*
X107500000Y-107918599D03*
%TD*%
%TO.C,C1*%
X105950000Y-109518599D03*
X107500000Y-109518599D03*
%TD*%
M02*
