%TF.GenerationSoftware,KiCad,Pcbnew,8.0.6-1.fc40*%
%TF.CreationDate,2025-02-15T22:24:14+01:00*%
%TF.ProjectId,airMouse-mcu,6169724d-6f75-4736-952d-6d63752e6b69,RC1*%
%TF.SameCoordinates,Original*%
%TF.FileFunction,Legend,Bot*%
%TF.FilePolarity,Positive*%
%FSLAX46Y46*%
G04 Gerber Fmt 4.6, Leading zero omitted, Abs format (unit mm)*
G04 Created by KiCad (PCBNEW 8.0.6-1.fc40) date 2025-02-15 22:24:14*
%MOMM*%
%LPD*%
G01*
G04 APERTURE LIST*
%ADD10C,0.150000*%
%ADD11C,0.000000*%
G04 APERTURE END LIST*
D10*
X132234649Y-116825132D02*
X132234649Y-116458465D01*
X132234649Y-116458465D02*
X132282268Y-116391799D01*
X132282268Y-116391799D02*
X132377506Y-116358465D01*
X132377506Y-116358465D02*
X132567982Y-116358465D01*
X132567982Y-116358465D02*
X132663220Y-116391799D01*
X132234649Y-116791799D02*
X132329887Y-116825132D01*
X132329887Y-116825132D02*
X132567982Y-116825132D01*
X132567982Y-116825132D02*
X132663220Y-116791799D01*
X132663220Y-116791799D02*
X132710839Y-116725132D01*
X132710839Y-116725132D02*
X132710839Y-116658465D01*
X132710839Y-116658465D02*
X132663220Y-116591799D01*
X132663220Y-116591799D02*
X132567982Y-116558465D01*
X132567982Y-116558465D02*
X132329887Y-116558465D01*
X132329887Y-116558465D02*
X132234649Y-116525132D01*
X131758458Y-116825132D02*
X131758458Y-116358465D01*
X131758458Y-116125132D02*
X131806077Y-116158465D01*
X131806077Y-116158465D02*
X131758458Y-116191799D01*
X131758458Y-116191799D02*
X131710839Y-116158465D01*
X131710839Y-116158465D02*
X131758458Y-116125132D01*
X131758458Y-116125132D02*
X131758458Y-116191799D01*
X131282268Y-116825132D02*
X131282268Y-116358465D01*
X131282268Y-116491799D02*
X131234649Y-116425132D01*
X131234649Y-116425132D02*
X131187030Y-116391799D01*
X131187030Y-116391799D02*
X131091792Y-116358465D01*
X131091792Y-116358465D02*
X130996554Y-116358465D01*
X130663220Y-116825132D02*
X130663220Y-116125132D01*
X130663220Y-116125132D02*
X130329887Y-116625132D01*
X130329887Y-116625132D02*
X129996554Y-116125132D01*
X129996554Y-116125132D02*
X129996554Y-116825132D01*
X129377506Y-116825132D02*
X129472744Y-116791799D01*
X129472744Y-116791799D02*
X129520363Y-116758465D01*
X129520363Y-116758465D02*
X129567982Y-116691799D01*
X129567982Y-116691799D02*
X129567982Y-116491799D01*
X129567982Y-116491799D02*
X129520363Y-116425132D01*
X129520363Y-116425132D02*
X129472744Y-116391799D01*
X129472744Y-116391799D02*
X129377506Y-116358465D01*
X129377506Y-116358465D02*
X129234649Y-116358465D01*
X129234649Y-116358465D02*
X129139411Y-116391799D01*
X129139411Y-116391799D02*
X129091792Y-116425132D01*
X129091792Y-116425132D02*
X129044173Y-116491799D01*
X129044173Y-116491799D02*
X129044173Y-116691799D01*
X129044173Y-116691799D02*
X129091792Y-116758465D01*
X129091792Y-116758465D02*
X129139411Y-116791799D01*
X129139411Y-116791799D02*
X129234649Y-116825132D01*
X129234649Y-116825132D02*
X129377506Y-116825132D01*
X128187030Y-116358465D02*
X128187030Y-116825132D01*
X128615601Y-116358465D02*
X128615601Y-116725132D01*
X128615601Y-116725132D02*
X128567982Y-116791799D01*
X128567982Y-116791799D02*
X128472744Y-116825132D01*
X128472744Y-116825132D02*
X128329887Y-116825132D01*
X128329887Y-116825132D02*
X128234649Y-116791799D01*
X128234649Y-116791799D02*
X128187030Y-116758465D01*
X127758458Y-116791799D02*
X127663220Y-116825132D01*
X127663220Y-116825132D02*
X127472744Y-116825132D01*
X127472744Y-116825132D02*
X127377506Y-116791799D01*
X127377506Y-116791799D02*
X127329887Y-116725132D01*
X127329887Y-116725132D02*
X127329887Y-116691799D01*
X127329887Y-116691799D02*
X127377506Y-116625132D01*
X127377506Y-116625132D02*
X127472744Y-116591799D01*
X127472744Y-116591799D02*
X127615601Y-116591799D01*
X127615601Y-116591799D02*
X127710839Y-116558465D01*
X127710839Y-116558465D02*
X127758458Y-116491799D01*
X127758458Y-116491799D02*
X127758458Y-116458465D01*
X127758458Y-116458465D02*
X127710839Y-116391799D01*
X127710839Y-116391799D02*
X127615601Y-116358465D01*
X127615601Y-116358465D02*
X127472744Y-116358465D01*
X127472744Y-116358465D02*
X127377506Y-116391799D01*
X126520363Y-116791799D02*
X126615601Y-116825132D01*
X126615601Y-116825132D02*
X126806077Y-116825132D01*
X126806077Y-116825132D02*
X126901315Y-116791799D01*
X126901315Y-116791799D02*
X126948934Y-116725132D01*
X126948934Y-116725132D02*
X126948934Y-116458465D01*
X126948934Y-116458465D02*
X126901315Y-116391799D01*
X126901315Y-116391799D02*
X126806077Y-116358465D01*
X126806077Y-116358465D02*
X126615601Y-116358465D01*
X126615601Y-116358465D02*
X126520363Y-116391799D01*
X126520363Y-116391799D02*
X126472744Y-116458465D01*
X126472744Y-116458465D02*
X126472744Y-116525132D01*
X126472744Y-116525132D02*
X126948934Y-116591799D01*
X126044172Y-116558465D02*
X125282268Y-116558465D01*
X124806077Y-116825132D02*
X124806077Y-116358465D01*
X124806077Y-116425132D02*
X124758458Y-116391799D01*
X124758458Y-116391799D02*
X124663220Y-116358465D01*
X124663220Y-116358465D02*
X124520363Y-116358465D01*
X124520363Y-116358465D02*
X124425125Y-116391799D01*
X124425125Y-116391799D02*
X124377506Y-116458465D01*
X124377506Y-116458465D02*
X124377506Y-116825132D01*
X124377506Y-116458465D02*
X124329887Y-116391799D01*
X124329887Y-116391799D02*
X124234649Y-116358465D01*
X124234649Y-116358465D02*
X124091792Y-116358465D01*
X124091792Y-116358465D02*
X123996553Y-116391799D01*
X123996553Y-116391799D02*
X123948934Y-116458465D01*
X123948934Y-116458465D02*
X123948934Y-116825132D01*
X123044173Y-116791799D02*
X123139411Y-116825132D01*
X123139411Y-116825132D02*
X123329887Y-116825132D01*
X123329887Y-116825132D02*
X123425125Y-116791799D01*
X123425125Y-116791799D02*
X123472744Y-116758465D01*
X123472744Y-116758465D02*
X123520363Y-116691799D01*
X123520363Y-116691799D02*
X123520363Y-116491799D01*
X123520363Y-116491799D02*
X123472744Y-116425132D01*
X123472744Y-116425132D02*
X123425125Y-116391799D01*
X123425125Y-116391799D02*
X123329887Y-116358465D01*
X123329887Y-116358465D02*
X123139411Y-116358465D01*
X123139411Y-116358465D02*
X123044173Y-116391799D01*
X122187030Y-116358465D02*
X122187030Y-116825132D01*
X122615601Y-116358465D02*
X122615601Y-116725132D01*
X122615601Y-116725132D02*
X122567982Y-116791799D01*
X122567982Y-116791799D02*
X122472744Y-116825132D01*
X122472744Y-116825132D02*
X122329887Y-116825132D01*
X122329887Y-116825132D02*
X122234649Y-116791799D01*
X122234649Y-116791799D02*
X122187030Y-116758465D01*
D11*
%TO.C,Logo1*%
G36*
X118002990Y-110862447D02*
G01*
X118031606Y-110877385D01*
X118105944Y-110942486D01*
X118199593Y-111048134D01*
X118305077Y-111185554D01*
X118414919Y-111345968D01*
X118512451Y-111502386D01*
X118600984Y-111666046D01*
X118650764Y-111795673D01*
X118663405Y-111897965D01*
X118640516Y-111979622D01*
X118583712Y-112047343D01*
X118576468Y-112053410D01*
X118504451Y-112100431D01*
X118445133Y-112119708D01*
X118406673Y-112110504D01*
X118337945Y-112067972D01*
X118279580Y-112009017D01*
X118254934Y-111953991D01*
X118251687Y-111939032D01*
X118221491Y-111873926D01*
X118166252Y-111776855D01*
X118094160Y-111660445D01*
X118013399Y-111537321D01*
X117932157Y-111420108D01*
X117858620Y-111321432D01*
X117800976Y-111253917D01*
X117754407Y-111204428D01*
X117709058Y-111138013D01*
X117701460Y-111075490D01*
X117725097Y-110994580D01*
X117743233Y-110962166D01*
X117816748Y-110898799D01*
X117912479Y-110861211D01*
X118002990Y-110862447D01*
G37*
G36*
X127975547Y-109142693D02*
G01*
X128067849Y-109164587D01*
X128158938Y-109210800D01*
X128159793Y-109211399D01*
X128238712Y-109275550D01*
X128349156Y-109377190D01*
X128482156Y-109507064D01*
X128628746Y-109655919D01*
X128779959Y-109814497D01*
X128926827Y-109973546D01*
X129060384Y-110123809D01*
X129171662Y-110256032D01*
X129215799Y-110310317D01*
X129275301Y-110382536D01*
X129311624Y-110425366D01*
X129343086Y-110463523D01*
X129413501Y-110577084D01*
X129458133Y-110692617D01*
X129471902Y-110793956D01*
X129449729Y-110864935D01*
X129400611Y-110903493D01*
X129314987Y-110909600D01*
X129207644Y-110860618D01*
X129077492Y-110755985D01*
X128923439Y-110595144D01*
X128792368Y-110448940D01*
X128636435Y-110280927D01*
X128478653Y-110116270D01*
X128326221Y-109962115D01*
X128186340Y-109825608D01*
X128066210Y-109713894D01*
X127973034Y-109634120D01*
X127914010Y-109593429D01*
X127843702Y-109552127D01*
X127761285Y-109478339D01*
X127711300Y-109400765D01*
X127705699Y-109334273D01*
X127709722Y-109324227D01*
X127773641Y-109235459D01*
X127867624Y-109168738D01*
X127966702Y-109142419D01*
X127975547Y-109142693D01*
G37*
G36*
X116644950Y-109527343D02*
G01*
X116741281Y-109558289D01*
X116751419Y-109561856D01*
X116908017Y-109625743D01*
X117079148Y-109709284D01*
X117256011Y-109806655D01*
X117429809Y-109912028D01*
X117591739Y-110019580D01*
X117733003Y-110123483D01*
X117844802Y-110217912D01*
X117918334Y-110297041D01*
X117944800Y-110355046D01*
X117940514Y-110367573D01*
X117906656Y-110419111D01*
X117850104Y-110488651D01*
X117837312Y-110502834D01*
X117744592Y-110578195D01*
X117640763Y-110608570D01*
X117626132Y-110610124D01*
X117544065Y-110619340D01*
X117493279Y-110625850D01*
X117481184Y-110626603D01*
X117416879Y-110599736D01*
X117362260Y-110536191D01*
X117335975Y-110456093D01*
X117330931Y-110390010D01*
X117327051Y-110346408D01*
X117322923Y-110338379D01*
X117281439Y-110297362D01*
X117206201Y-110235944D01*
X117110521Y-110163945D01*
X117007708Y-110091183D01*
X116911072Y-110027475D01*
X116833923Y-109982642D01*
X116779335Y-109953335D01*
X116632813Y-109852580D01*
X116544602Y-109749983D01*
X116515904Y-109647375D01*
X116547922Y-109546592D01*
X116559194Y-109531979D01*
X116589697Y-109518903D01*
X116644950Y-109527343D01*
G37*
G36*
X131811800Y-110318416D02*
G01*
X131889562Y-110344756D01*
X132084058Y-110429563D01*
X132301874Y-110546050D01*
X132528232Y-110686621D01*
X132633533Y-110755841D01*
X132700324Y-110794694D01*
X132741019Y-110806689D01*
X132768404Y-110795588D01*
X132795269Y-110765152D01*
X132841381Y-110718250D01*
X132919422Y-110663070D01*
X132924279Y-110660602D01*
X132982455Y-110637315D01*
X133033472Y-110635294D01*
X133082797Y-110660410D01*
X133135894Y-110718530D01*
X133198228Y-110815526D01*
X133275265Y-110957265D01*
X133372470Y-111149617D01*
X133438187Y-111282109D01*
X133513562Y-111434639D01*
X133576859Y-111563357D01*
X133622884Y-111657695D01*
X133646442Y-111707084D01*
X133655505Y-111735960D01*
X133662437Y-111817640D01*
X133655086Y-111907981D01*
X133636268Y-111983511D01*
X133608800Y-112020760D01*
X133601504Y-112023800D01*
X133548988Y-112053507D01*
X133476262Y-112100687D01*
X133458651Y-112112121D01*
X133362835Y-112151902D01*
X133287764Y-112145114D01*
X133243983Y-112092145D01*
X133179145Y-111930260D01*
X133027081Y-111675796D01*
X132816450Y-111425859D01*
X132549370Y-111182531D01*
X132227956Y-110947896D01*
X131854324Y-110724037D01*
X131817024Y-110703026D01*
X131682748Y-110609460D01*
X131608387Y-110518891D01*
X131592456Y-110428715D01*
X131633473Y-110336329D01*
X131644699Y-110321744D01*
X131677521Y-110296251D01*
X131726111Y-110295856D01*
X131811800Y-110318416D01*
G37*
G36*
X119300056Y-110866806D02*
G01*
X119422503Y-110921753D01*
X119554838Y-110991547D01*
X119683731Y-111068217D01*
X119795851Y-111143793D01*
X119877868Y-111210305D01*
X119916452Y-111259782D01*
X119917431Y-111262891D01*
X119920789Y-111374647D01*
X119870232Y-111492385D01*
X119770896Y-111603956D01*
X119647908Y-111709229D01*
X119913282Y-111820316D01*
X119959738Y-111839516D01*
X120096387Y-111893548D01*
X120220545Y-111939467D01*
X120310018Y-111968959D01*
X120398424Y-111997649D01*
X120477286Y-112041255D01*
X120500110Y-112095467D01*
X120469203Y-112169373D01*
X120386868Y-112272062D01*
X120309128Y-112339288D01*
X120212234Y-112367816D01*
X120195161Y-112366780D01*
X120104109Y-112348346D01*
X119973928Y-112310125D01*
X119818208Y-112256387D01*
X119650539Y-112191399D01*
X119628174Y-112182766D01*
X119573005Y-112165261D01*
X119505812Y-112143782D01*
X119393865Y-112094775D01*
X119270463Y-112030926D01*
X119152805Y-111961858D01*
X119058089Y-111897196D01*
X119003513Y-111846566D01*
X118965375Y-111781323D01*
X118937912Y-111660051D01*
X118967567Y-111550231D01*
X119051116Y-111459832D01*
X119185337Y-111396826D01*
X119324898Y-111355742D01*
X119216351Y-111321829D01*
X119213824Y-111321042D01*
X119113330Y-111291972D01*
X119023081Y-111269175D01*
X118957290Y-111237407D01*
X118889255Y-111155479D01*
X118861154Y-111093790D01*
X118858638Y-111043289D01*
X118888983Y-110986000D01*
X118899698Y-110970743D01*
X118990224Y-110887484D01*
X119100744Y-110839121D01*
X119208330Y-110836394D01*
X119300056Y-110866806D01*
G37*
G36*
X114079394Y-110722783D02*
G01*
X114156044Y-110750910D01*
X114268708Y-110806734D01*
X114475919Y-110914842D01*
X114612830Y-110850486D01*
X114656788Y-110831008D01*
X114744387Y-110798837D01*
X114803241Y-110786131D01*
X114824511Y-110789759D01*
X114901380Y-110818105D01*
X115011113Y-110868758D01*
X115140285Y-110934722D01*
X115275467Y-111009000D01*
X115403232Y-111084594D01*
X115510154Y-111154508D01*
X115564944Y-111193841D01*
X115698116Y-111296253D01*
X115810763Y-111392358D01*
X115892444Y-111472911D01*
X115932717Y-111528667D01*
X115936144Y-111539890D01*
X115926404Y-111618241D01*
X115873371Y-111713882D01*
X115784382Y-111812762D01*
X115767643Y-111827677D01*
X115686289Y-111893348D01*
X115591158Y-111962896D01*
X115497840Y-112025710D01*
X115421924Y-112071180D01*
X115378998Y-112088695D01*
X115358883Y-112077489D01*
X115300712Y-112031013D01*
X115216599Y-111956783D01*
X115117084Y-111863847D01*
X114977868Y-111735593D01*
X114857716Y-111635625D01*
X114766534Y-111572278D01*
X114708668Y-111548557D01*
X114688464Y-111567466D01*
X114688505Y-111568546D01*
X114706497Y-111614917D01*
X114750905Y-111694422D01*
X114812517Y-111790500D01*
X114823395Y-111806690D01*
X114900739Y-111942096D01*
X114931213Y-112051675D01*
X114915981Y-112147434D01*
X114856207Y-112241382D01*
X114827724Y-112272753D01*
X114743577Y-112331830D01*
X114664031Y-112331589D01*
X114585891Y-112271193D01*
X114505959Y-112149807D01*
X114482384Y-112108090D01*
X114409054Y-111988969D01*
X114310947Y-111838534D01*
X114196448Y-111669277D01*
X114073944Y-111493692D01*
X113951821Y-111324273D01*
X113893730Y-111241925D01*
X113823666Y-111131998D01*
X113775744Y-111043232D01*
X113757987Y-110989486D01*
X113759501Y-110968846D01*
X113797563Y-110873898D01*
X113874003Y-110787292D01*
X113971583Y-110729971D01*
X114021700Y-110717947D01*
X114079394Y-110722783D01*
G37*
G36*
X121295429Y-110898412D02*
G01*
X121532965Y-111003511D01*
X121601498Y-111041570D01*
X121792311Y-111159740D01*
X121942827Y-111277753D01*
X122067896Y-111408443D01*
X122182367Y-111564639D01*
X122202940Y-111595601D01*
X122269329Y-111691876D01*
X122322130Y-111763117D01*
X122351401Y-111795732D01*
X122360877Y-111810401D01*
X122374406Y-111873638D01*
X122379721Y-111965392D01*
X122374672Y-112055698D01*
X122347527Y-112140565D01*
X122286031Y-112224256D01*
X122266083Y-112245469D01*
X122166975Y-112329452D01*
X122061184Y-112395885D01*
X121981886Y-112428478D01*
X121828779Y-112456659D01*
X121651203Y-112446108D01*
X121437155Y-112396843D01*
X121173482Y-112311039D01*
X120930599Y-112207838D01*
X120747691Y-112098653D01*
X120625379Y-111983863D01*
X120564285Y-111863847D01*
X120558006Y-111829395D01*
X120564966Y-111794179D01*
X120598891Y-111780736D01*
X120667488Y-111789251D01*
X120778466Y-111819912D01*
X120939532Y-111872903D01*
X120970000Y-111883213D01*
X121231304Y-111966271D01*
X121460562Y-112029346D01*
X121652799Y-112071507D01*
X121803038Y-112091825D01*
X121906305Y-112089370D01*
X121957622Y-112063211D01*
X121956323Y-112024882D01*
X121929789Y-111954965D01*
X121887344Y-111877573D01*
X121839636Y-111815098D01*
X121812293Y-111795855D01*
X121767537Y-111799385D01*
X121694088Y-111838242D01*
X121682052Y-111845232D01*
X121584218Y-111885853D01*
X121492712Y-111902498D01*
X121489090Y-111902478D01*
X121401426Y-111892610D01*
X121302969Y-111869426D01*
X121217850Y-111839800D01*
X121170197Y-111810608D01*
X121157775Y-111798650D01*
X121105629Y-111756288D01*
X121030636Y-111699564D01*
X120987854Y-111667851D01*
X120923244Y-111618795D01*
X120891076Y-111592656D01*
X120887361Y-111589480D01*
X120843569Y-111560879D01*
X120772945Y-111519865D01*
X120723204Y-111489698D01*
X120606567Y-111398178D01*
X120517100Y-111298448D01*
X120469976Y-111206218D01*
X120465840Y-111149272D01*
X120492932Y-111093033D01*
X120561360Y-111020566D01*
X120692835Y-110923856D01*
X120873186Y-110858622D01*
X121074777Y-110850128D01*
X121295429Y-110898412D01*
G37*
G36*
X127971915Y-110311129D02*
G01*
X128116236Y-110371248D01*
X128294126Y-110478404D01*
X128363246Y-110524853D01*
X128495758Y-110617641D01*
X128585681Y-110688869D01*
X128640549Y-110745800D01*
X128667892Y-110795693D01*
X128675243Y-110845810D01*
X128674144Y-110863804D01*
X128641456Y-110965900D01*
X128573984Y-111072864D01*
X128486107Y-111160751D01*
X128454397Y-111181136D01*
X128388434Y-111196911D01*
X128293794Y-111183720D01*
X128214573Y-111167577D01*
X128139395Y-111159693D01*
X128121339Y-111172269D01*
X128159675Y-111204912D01*
X128253673Y-111257231D01*
X128402601Y-111328832D01*
X128605729Y-111419322D01*
X128862327Y-111528309D01*
X129171662Y-111655401D01*
X129252529Y-111688300D01*
X129433130Y-111762611D01*
X129591681Y-111828990D01*
X129719298Y-111883654D01*
X129807100Y-111922821D01*
X129846204Y-111942707D01*
X129846483Y-111942920D01*
X129882474Y-112004669D01*
X129863005Y-112090026D01*
X129788718Y-112196163D01*
X129757764Y-112229676D01*
X129698454Y-112284246D01*
X129660663Y-112305789D01*
X129659056Y-112305737D01*
X129607739Y-112293602D01*
X129517411Y-112264505D01*
X129405254Y-112224730D01*
X129288451Y-112180564D01*
X129184184Y-112138292D01*
X129109635Y-112104202D01*
X129106053Y-112102375D01*
X129028100Y-112067648D01*
X128915938Y-112023084D01*
X128792577Y-111977851D01*
X128784012Y-111974843D01*
X128660454Y-111930195D01*
X128549362Y-111888028D01*
X128473860Y-111857103D01*
X128367833Y-111809061D01*
X128225108Y-111742806D01*
X128092202Y-111679522D01*
X127980784Y-111624865D01*
X127902526Y-111584491D01*
X127869098Y-111564053D01*
X127862527Y-111558200D01*
X127813836Y-111526838D01*
X127738538Y-111485009D01*
X127655326Y-111437139D01*
X127510613Y-111324419D01*
X127418991Y-111206943D01*
X127380331Y-111091056D01*
X127394509Y-110983098D01*
X127461397Y-110889412D01*
X127580868Y-110816340D01*
X127752797Y-110770225D01*
X127774016Y-110766458D01*
X127841779Y-110745919D01*
X127869098Y-110722699D01*
X127868528Y-110716280D01*
X127845838Y-110696763D01*
X127824436Y-110698904D01*
X127738715Y-110677933D01*
X127680452Y-110617494D01*
X127655160Y-110533220D01*
X127668352Y-110440743D01*
X127725542Y-110355696D01*
X127762167Y-110327298D01*
X127855710Y-110296871D01*
X127971915Y-110311129D01*
G37*
G36*
X117260152Y-111264455D02*
G01*
X117304760Y-111350052D01*
X117368999Y-111451581D01*
X117437071Y-111558477D01*
X117498541Y-111691216D01*
X117513002Y-111801448D01*
X117481088Y-111899158D01*
X117403432Y-111994329D01*
X117378855Y-112017187D01*
X117288015Y-112078779D01*
X117199295Y-112095455D01*
X117173903Y-112095305D01*
X117123058Y-112105932D01*
X117119658Y-112137834D01*
X117119741Y-112138051D01*
X117170809Y-112233233D01*
X117260153Y-112360846D01*
X117379771Y-112512071D01*
X117521657Y-112678094D01*
X117677810Y-112850097D01*
X117840224Y-113019263D01*
X118000897Y-113176775D01*
X118151826Y-113313818D01*
X118285005Y-113421574D01*
X118294935Y-113428903D01*
X118508186Y-113569459D01*
X118698739Y-113661972D01*
X118863562Y-113705621D01*
X118999622Y-113699587D01*
X119103885Y-113643048D01*
X119115788Y-113631967D01*
X119172622Y-113586822D01*
X119205464Y-113586069D01*
X119229124Y-113627919D01*
X119232134Y-113657507D01*
X119203653Y-113731209D01*
X119140108Y-113814502D01*
X119053626Y-113892969D01*
X118956337Y-113952195D01*
X118854910Y-113991075D01*
X118759165Y-114006504D01*
X118649157Y-113998350D01*
X118503042Y-113967342D01*
X118464210Y-113957636D01*
X118319427Y-113916143D01*
X118204941Y-113869288D01*
X118095382Y-113804982D01*
X117965375Y-113711133D01*
X117902154Y-113660414D01*
X117781609Y-113555104D01*
X117641530Y-113425520D01*
X117492943Y-113282526D01*
X117346876Y-113136984D01*
X117214356Y-112999758D01*
X117106410Y-112881709D01*
X117034065Y-112793702D01*
X116977517Y-112715054D01*
X116864018Y-112551659D01*
X116734460Y-112360111D01*
X116599026Y-112155828D01*
X116467900Y-111954227D01*
X116351264Y-111770726D01*
X116259302Y-111620740D01*
X116200441Y-111525072D01*
X116118110Y-111400464D01*
X116044357Y-111298558D01*
X115990117Y-111235023D01*
X115963083Y-111202982D01*
X116580209Y-111202982D01*
X116585363Y-111232554D01*
X116615469Y-111268039D01*
X116653417Y-111260827D01*
X116671149Y-111230322D01*
X116665740Y-111181419D01*
X116626729Y-111158292D01*
X116605074Y-111163462D01*
X116580209Y-111202982D01*
X115963083Y-111202982D01*
X115930377Y-111164218D01*
X115898091Y-111067575D01*
X115926685Y-110973566D01*
X116016543Y-110881237D01*
X116168045Y-110789631D01*
X116264415Y-110751977D01*
X116456721Y-110723688D01*
X116666595Y-110742917D01*
X116881931Y-110807990D01*
X117090624Y-110917233D01*
X117126442Y-110943801D01*
X117202333Y-111028799D01*
X117244817Y-111121365D01*
X117243637Y-111202387D01*
X117242730Y-111209809D01*
X117249270Y-111230322D01*
X117260152Y-111264455D01*
G37*
G36*
X136412800Y-111895063D02*
G01*
X136416503Y-112046470D01*
X136361763Y-112178584D01*
X136353807Y-112189629D01*
X136272634Y-112275386D01*
X136181181Y-112341404D01*
X136134319Y-112363496D01*
X136013191Y-112392709D01*
X135881970Y-112381196D01*
X135730254Y-112327106D01*
X135547643Y-112228586D01*
X135523425Y-112214112D01*
X135412175Y-112152797D01*
X135338248Y-112125467D01*
X135290951Y-112129687D01*
X135259589Y-112163022D01*
X135250908Y-112174657D01*
X135196812Y-112222289D01*
X135118932Y-112274370D01*
X135068779Y-112301311D01*
X134978474Y-112327539D01*
X134873107Y-112320446D01*
X134757230Y-112288061D01*
X134601630Y-112221734D01*
X134431274Y-112132034D01*
X134260753Y-112027926D01*
X134104656Y-111918377D01*
X133977575Y-111812354D01*
X133894100Y-111718821D01*
X133867784Y-111675330D01*
X133830627Y-111578876D01*
X133829332Y-111502000D01*
X133865476Y-111459022D01*
X133874820Y-111458628D01*
X133933874Y-111474808D01*
X134033101Y-111512770D01*
X134161337Y-111568039D01*
X134307417Y-111636141D01*
X134399794Y-111680621D01*
X134580259Y-111766416D01*
X134714959Y-111828234D01*
X134810649Y-111868833D01*
X134874084Y-111890971D01*
X134912015Y-111897408D01*
X134931198Y-111890901D01*
X134932192Y-111889721D01*
X134925085Y-111850125D01*
X134880085Y-111775943D01*
X134803052Y-111675620D01*
X134699848Y-111557599D01*
X134641991Y-111490611D01*
X134556031Y-111376402D01*
X134482866Y-111262868D01*
X134439229Y-111179088D01*
X135064370Y-111179088D01*
X135074174Y-111208498D01*
X135119343Y-111279007D01*
X135191049Y-111369787D01*
X135278015Y-111467681D01*
X135368965Y-111559529D01*
X135452623Y-111632172D01*
X135523558Y-111684394D01*
X135632407Y-111757869D01*
X135722340Y-111811407D01*
X135736462Y-111818774D01*
X135800301Y-111848983D01*
X135823697Y-111849241D01*
X135818051Y-111820649D01*
X135788700Y-111773340D01*
X135729815Y-111701289D01*
X135655740Y-111620628D01*
X135580103Y-111545501D01*
X135516535Y-111490052D01*
X135478663Y-111468426D01*
X135464698Y-111465876D01*
X135411590Y-111428753D01*
X135363977Y-111367242D01*
X135343335Y-111306961D01*
X135339622Y-111283518D01*
X135304568Y-111227697D01*
X135286966Y-111216200D01*
X135223503Y-111190535D01*
X135150128Y-111172735D01*
X135089524Y-111167389D01*
X135064370Y-111179088D01*
X134439229Y-111179088D01*
X134431999Y-111165208D01*
X134412932Y-111098624D01*
X134413174Y-111091607D01*
X134443398Y-111009692D01*
X134508993Y-110936259D01*
X134588226Y-110896384D01*
X134590476Y-110895946D01*
X134665871Y-110872031D01*
X134752714Y-110833357D01*
X134938573Y-110770945D01*
X135152063Y-110763852D01*
X135390188Y-110813572D01*
X135652840Y-110920094D01*
X135668970Y-110928240D01*
X135787973Y-110999869D01*
X135910544Y-111090169D01*
X136025444Y-111188843D01*
X136121432Y-111285593D01*
X136187268Y-111370119D01*
X136211711Y-111432124D01*
X136220411Y-111472247D01*
X136255523Y-111555444D01*
X136308378Y-111650823D01*
X136350770Y-111725517D01*
X136396036Y-111849241D01*
X136412800Y-111895063D01*
G37*
G36*
X129819185Y-109278075D02*
G01*
X129942194Y-109347559D01*
X130065793Y-109450977D01*
X130146189Y-109519565D01*
X130260746Y-109582450D01*
X130404786Y-109624580D01*
X130594281Y-109652032D01*
X130610521Y-109653853D01*
X130705981Y-109667213D01*
X130833613Y-109687638D01*
X130970441Y-109711494D01*
X130970733Y-109711548D01*
X131142200Y-109741512D01*
X131298665Y-109766542D01*
X131424837Y-109784320D01*
X131505423Y-109792530D01*
X131520207Y-109809978D01*
X131528683Y-109866489D01*
X131508604Y-109945077D01*
X131439007Y-110037767D01*
X131331490Y-110114445D01*
X131299529Y-110129192D01*
X131255910Y-110139907D01*
X131199821Y-110139381D01*
X131119452Y-110126227D01*
X131002993Y-110099054D01*
X130838634Y-110056474D01*
X130786424Y-110044073D01*
X130718078Y-110033687D01*
X130691320Y-110038748D01*
X130708940Y-110065893D01*
X130760663Y-110123792D01*
X130834551Y-110198172D01*
X130866040Y-110229766D01*
X130953330Y-110322788D01*
X131066000Y-110447340D01*
X131194661Y-110592611D01*
X131329923Y-110747788D01*
X131462397Y-110902061D01*
X131582692Y-111044617D01*
X131681420Y-111164645D01*
X131749190Y-111251332D01*
X131783080Y-111298511D01*
X131897300Y-111486578D01*
X131969015Y-111659322D01*
X131993884Y-111806890D01*
X131991584Y-111867863D01*
X131975014Y-111934687D01*
X131932791Y-111997704D01*
X131853779Y-112078504D01*
X131815699Y-112114132D01*
X131737336Y-112176130D01*
X131668766Y-112205396D01*
X131588625Y-112212749D01*
X131576252Y-112212510D01*
X131464045Y-112195595D01*
X131364322Y-112160167D01*
X131353914Y-112154721D01*
X131279176Y-112119216D01*
X131229433Y-112101344D01*
X131227381Y-112100970D01*
X131146606Y-112072154D01*
X131049521Y-112019171D01*
X130954358Y-111954393D01*
X130879352Y-111890192D01*
X130842735Y-111838941D01*
X130839167Y-111826563D01*
X130824841Y-111793510D01*
X130818465Y-111819912D01*
X130818136Y-111825131D01*
X130810837Y-111855958D01*
X130789357Y-111862781D01*
X130745242Y-111841780D01*
X130670035Y-111789135D01*
X130555282Y-111701027D01*
X130520167Y-111673515D01*
X130411000Y-111583339D01*
X130338694Y-111508620D01*
X130292451Y-111432895D01*
X130261475Y-111339699D01*
X130234969Y-111212565D01*
X130230309Y-111181896D01*
X130238334Y-111137992D01*
X130282410Y-111127278D01*
X130322278Y-111133485D01*
X130386724Y-111167781D01*
X130411325Y-111188458D01*
X130481882Y-111228797D01*
X130494199Y-111234379D01*
X130558129Y-111270306D01*
X130652266Y-111328326D01*
X130761003Y-111398926D01*
X130871492Y-111468376D01*
X131005126Y-111545956D01*
X131147316Y-111623787D01*
X131285697Y-111695466D01*
X131407901Y-111754591D01*
X131501559Y-111794761D01*
X131554306Y-111809574D01*
X131566239Y-111808473D01*
X131590710Y-111789744D01*
X131590691Y-111788845D01*
X131569968Y-111736357D01*
X131514235Y-111645355D01*
X131429457Y-111523503D01*
X131321597Y-111378470D01*
X131196620Y-111217919D01*
X131060487Y-111049516D01*
X130919164Y-110880928D01*
X130778614Y-110719821D01*
X130644800Y-110573859D01*
X130589456Y-110516738D01*
X130462518Y-110392152D01*
X130315688Y-110254162D01*
X130159642Y-110112261D01*
X130005055Y-109975942D01*
X129862605Y-109854698D01*
X129742967Y-109758021D01*
X129656818Y-109695403D01*
X129631453Y-109678981D01*
X129536146Y-109613691D01*
X129481494Y-109565300D01*
X129456654Y-109522066D01*
X129450783Y-109472243D01*
X129452257Y-109455473D01*
X129489588Y-109375810D01*
X129563400Y-109302053D01*
X129655128Y-109254026D01*
X129710132Y-109248938D01*
X129819185Y-109278075D01*
G37*
G36*
X124658406Y-112200619D02*
G01*
X124575923Y-112254664D01*
X124648579Y-112311680D01*
X124684741Y-112337930D01*
X124767724Y-112395463D01*
X124884500Y-112475088D01*
X125025237Y-112570221D01*
X125180102Y-112674273D01*
X125339262Y-112780660D01*
X125492885Y-112882796D01*
X125631140Y-112974093D01*
X125744193Y-113047967D01*
X125822211Y-113097830D01*
X125830571Y-113103036D01*
X125983162Y-113196407D01*
X126089243Y-113257386D01*
X126153332Y-113288423D01*
X126179944Y-113291971D01*
X126180592Y-113290895D01*
X126177506Y-113251475D01*
X126160114Y-113170403D01*
X126131793Y-113063685D01*
X126114038Y-112997574D01*
X126085134Y-112861467D01*
X126071694Y-112749971D01*
X126074728Y-112674617D01*
X126095248Y-112646937D01*
X126108501Y-112650486D01*
X126162341Y-112692186D01*
X126235551Y-112771506D01*
X126319535Y-112876740D01*
X126405698Y-112996178D01*
X126485445Y-113118113D01*
X126550180Y-113230836D01*
X126591308Y-113322639D01*
X126593561Y-113329428D01*
X126607609Y-113447649D01*
X126567373Y-113559381D01*
X126469598Y-113674019D01*
X126400752Y-113728484D01*
X126322896Y-113757448D01*
X126226913Y-113754154D01*
X126094088Y-113720939D01*
X126009259Y-113686769D01*
X125883013Y-113624155D01*
X125728500Y-113540269D01*
X125557450Y-113441865D01*
X125381593Y-113335695D01*
X125212660Y-113228511D01*
X125062382Y-113127066D01*
X124956805Y-113056350D01*
X124846532Y-112988669D01*
X124761468Y-112942819D01*
X124751604Y-112938090D01*
X124649384Y-112877796D01*
X124560108Y-112809178D01*
X124557378Y-112806675D01*
X124485468Y-112748285D01*
X124383196Y-112673670D01*
X124271767Y-112598335D01*
X124260439Y-112590960D01*
X124154914Y-112518463D01*
X124065627Y-112450974D01*
X124010872Y-112402242D01*
X123962727Y-112357708D01*
X123922268Y-112336802D01*
X123890090Y-112321747D01*
X123817519Y-112277076D01*
X123716373Y-112209915D01*
X123597804Y-112127462D01*
X123489947Y-112050969D01*
X123376806Y-111970870D01*
X123288028Y-111908174D01*
X123236714Y-111872143D01*
X123222707Y-111862206D01*
X123157768Y-111815006D01*
X123058226Y-111741875D01*
X122934849Y-111650737D01*
X122798402Y-111549519D01*
X122382109Y-111231650D01*
X121986934Y-110909779D01*
X121648959Y-110610597D01*
X121367995Y-110333887D01*
X121143853Y-110079433D01*
X120976344Y-109847019D01*
X120865278Y-109636429D01*
X120810467Y-109447447D01*
X120811721Y-109279858D01*
X120821146Y-109250991D01*
X121177120Y-109250991D01*
X121183080Y-109302248D01*
X121224466Y-109402769D01*
X121298245Y-109530025D01*
X121397915Y-109674074D01*
X121516978Y-109824972D01*
X121648932Y-109972775D01*
X121767262Y-110093632D01*
X121990106Y-110306073D01*
X122242384Y-110528621D01*
X122528249Y-110764570D01*
X122851857Y-111017213D01*
X123217363Y-111289844D01*
X123628921Y-111585756D01*
X124090687Y-111908243D01*
X124105320Y-111918358D01*
X124221823Y-111999990D01*
X124330804Y-112078008D01*
X124410384Y-112136771D01*
X124416434Y-112141376D01*
X124485436Y-112190234D01*
X124513508Y-112197332D01*
X124503194Y-112159146D01*
X124457039Y-112072153D01*
X124426536Y-112020405D01*
X124340074Y-111885362D01*
X124217670Y-111704307D01*
X124060699Y-111479197D01*
X123870532Y-111211992D01*
X123648544Y-110904648D01*
X123396107Y-110559126D01*
X123323572Y-110459298D01*
X123258900Y-110368469D01*
X123217083Y-110307660D01*
X123211991Y-110299930D01*
X123170950Y-110238339D01*
X123105002Y-110139927D01*
X123022103Y-110016553D01*
X122930209Y-109880075D01*
X122905956Y-109843747D01*
X122821178Y-109710911D01*
X122752561Y-109594332D01*
X122706617Y-109505501D01*
X122689855Y-109455908D01*
X122701553Y-109394105D01*
X122738194Y-109314569D01*
X122763855Y-109272357D01*
X122767130Y-109241220D01*
X122730441Y-109224173D01*
X122638248Y-109200496D01*
X122447252Y-109164628D01*
X122228165Y-109135581D01*
X122002175Y-109115966D01*
X121790465Y-109108392D01*
X121655169Y-109109896D01*
X121450321Y-109123408D01*
X121303455Y-109151174D01*
X121212934Y-109193575D01*
X121177120Y-109250991D01*
X120821146Y-109250991D01*
X120840482Y-109191768D01*
X120932236Y-109063755D01*
X121075666Y-108952632D01*
X121265116Y-108861548D01*
X121494930Y-108793654D01*
X121759452Y-108752099D01*
X121812560Y-108748404D01*
X121977534Y-108748630D01*
X122175309Y-108761195D01*
X122394040Y-108784172D01*
X122621886Y-108815632D01*
X122847000Y-108853648D01*
X123057540Y-108896292D01*
X123241662Y-108941635D01*
X123387521Y-108987750D01*
X123483275Y-109032709D01*
X123566015Y-109086922D01*
X123475544Y-109177393D01*
X123440012Y-109209505D01*
X123348355Y-109260701D01*
X123223544Y-109286995D01*
X123161527Y-109296451D01*
X123089911Y-109314869D01*
X123062016Y-109333508D01*
X123070434Y-109352979D01*
X123108986Y-109415127D01*
X123171646Y-109506767D01*
X123250519Y-109616062D01*
X123338023Y-109734713D01*
X123598397Y-110090244D01*
X123840469Y-110424542D01*
X124062093Y-110734485D01*
X124261126Y-111016951D01*
X124435422Y-111268819D01*
X124582838Y-111486967D01*
X124701227Y-111668274D01*
X124788446Y-111809618D01*
X124842350Y-111907877D01*
X124860795Y-111959929D01*
X124849935Y-112010696D01*
X124783651Y-112102318D01*
X124662594Y-112197332D01*
X124658406Y-112200619D01*
G37*
G36*
X136623354Y-108874666D02*
G01*
X136817608Y-108892575D01*
X137051298Y-108923524D01*
X137329676Y-108967735D01*
X137657993Y-109025426D01*
X138041503Y-109096818D01*
X138047295Y-109097916D01*
X138244486Y-109135186D01*
X138430787Y-109170164D01*
X138593688Y-109200519D01*
X138720680Y-109223918D01*
X138799253Y-109238032D01*
X138921303Y-109267119D01*
X138997244Y-109309482D01*
X139022495Y-109369404D01*
X139002769Y-109452917D01*
X138990972Y-109479177D01*
X138916871Y-109577936D01*
X138811887Y-109626514D01*
X138669021Y-109628595D01*
X138665113Y-109628111D01*
X138556793Y-109610793D01*
X138403031Y-109581239D01*
X138217809Y-109542378D01*
X138015106Y-109497137D01*
X137808902Y-109448445D01*
X137802379Y-109446867D01*
X137620709Y-109407306D01*
X137405918Y-109366973D01*
X137181349Y-109329748D01*
X136970343Y-109299510D01*
X136796244Y-109280139D01*
X136537352Y-109258000D01*
X136599379Y-109327756D01*
X136605066Y-109333958D01*
X136681307Y-109403102D01*
X136800526Y-109496642D01*
X136953425Y-109608113D01*
X137130706Y-109731050D01*
X137323071Y-109858989D01*
X137521222Y-109985465D01*
X137715862Y-110104014D01*
X137801638Y-110154911D01*
X137954703Y-110246129D01*
X138091272Y-110327997D01*
X138199035Y-110393124D01*
X138265686Y-110434121D01*
X138336165Y-110477323D01*
X138386887Y-110502023D01*
X138402551Y-110494405D01*
X138392154Y-110456027D01*
X138367702Y-110416998D01*
X138309347Y-110343202D01*
X138230608Y-110251858D01*
X138144020Y-110157029D01*
X138062120Y-110072780D01*
X137997442Y-110013175D01*
X137968469Y-109988833D01*
X137856275Y-109875996D01*
X137801050Y-109777743D01*
X137801272Y-109689731D01*
X137855423Y-109607620D01*
X137888781Y-109579841D01*
X137975022Y-109549720D01*
X138076956Y-109567433D01*
X138196966Y-109634523D01*
X138337435Y-109752531D01*
X138500743Y-109923000D01*
X138689273Y-110147473D01*
X138828423Y-110321160D01*
X139000779Y-110536082D01*
X139141793Y-110710877D01*
X139255992Y-110850354D01*
X139347901Y-110959323D01*
X139422045Y-111042596D01*
X139482952Y-111104980D01*
X139535146Y-111151288D01*
X139583154Y-111186328D01*
X139631501Y-111214910D01*
X139684714Y-111241845D01*
X139747317Y-111271942D01*
X139834969Y-111315052D01*
X139920714Y-111362070D01*
X139968513Y-111399842D01*
X139989371Y-111437896D01*
X139994293Y-111485759D01*
X139983380Y-111565593D01*
X139951197Y-111640826D01*
X139945846Y-111648278D01*
X139923268Y-111700834D01*
X139946789Y-111747547D01*
X139977071Y-111786955D01*
X140037751Y-111881105D01*
X140100649Y-111992640D01*
X140156743Y-112104221D01*
X140197015Y-112198512D01*
X140212443Y-112258173D01*
X140212219Y-112263731D01*
X140182826Y-112335065D01*
X140118152Y-112409523D01*
X140038398Y-112468119D01*
X139963766Y-112491869D01*
X139942436Y-112485027D01*
X139891285Y-112436967D01*
X139821043Y-112339718D01*
X139728765Y-112189488D01*
X139623330Y-112014043D01*
X139531312Y-111873345D01*
X139454296Y-111772670D01*
X139386021Y-111703889D01*
X139320225Y-111658867D01*
X139304432Y-111651265D01*
X139228237Y-111620087D01*
X139110978Y-111575931D01*
X138965463Y-111523545D01*
X138804501Y-111467678D01*
X138786704Y-111461627D01*
X138443706Y-111350010D01*
X138109074Y-111250196D01*
X137792550Y-111164675D01*
X137503879Y-111095941D01*
X137252806Y-111046484D01*
X137049073Y-111018796D01*
X136949289Y-111008872D01*
X136845707Y-110996555D01*
X136779607Y-110986285D01*
X136777150Y-110985776D01*
X136712672Y-110984700D01*
X136699080Y-111017153D01*
X136736050Y-111081719D01*
X136823258Y-111176982D01*
X136884681Y-111231278D01*
X137007032Y-111326353D01*
X137168006Y-111442479D01*
X137358973Y-111574018D01*
X137571297Y-111715329D01*
X137796348Y-111860773D01*
X138025491Y-112004710D01*
X138250095Y-112141501D01*
X138461526Y-112265507D01*
X138651151Y-112371087D01*
X138742294Y-112420586D01*
X138834948Y-112472029D01*
X138894373Y-112506354D01*
X138921375Y-112522504D01*
X139037232Y-112588187D01*
X139199353Y-112676594D01*
X139400728Y-112784138D01*
X139634348Y-112907235D01*
X139893203Y-113042299D01*
X140170283Y-113185744D01*
X140458578Y-113333986D01*
X140751078Y-113483439D01*
X141040775Y-113630518D01*
X141320657Y-113771637D01*
X141583715Y-113903210D01*
X141822940Y-114021653D01*
X142031321Y-114123380D01*
X142201849Y-114204806D01*
X142327514Y-114262345D01*
X142392758Y-114289886D01*
X142521821Y-114338022D01*
X142632055Y-114371278D01*
X142704908Y-114383689D01*
X142767707Y-114393365D01*
X142864272Y-114425817D01*
X142968230Y-114472949D01*
X143063008Y-114526235D01*
X143132029Y-114577148D01*
X143158719Y-114617160D01*
X143147515Y-114680098D01*
X143093339Y-114780096D01*
X143009049Y-114859363D01*
X142954753Y-114886530D01*
X142891347Y-114899740D01*
X142813198Y-114896356D01*
X142713546Y-114874463D01*
X142585631Y-114832145D01*
X142422692Y-114767487D01*
X142217969Y-114678574D01*
X141964702Y-114563491D01*
X141848367Y-114509375D01*
X141641987Y-114411455D01*
X141408619Y-114298888D01*
X141155164Y-114175149D01*
X140888523Y-114043714D01*
X140615595Y-113908056D01*
X140343282Y-113771650D01*
X140078484Y-113637971D01*
X139828101Y-113510494D01*
X139599034Y-113392693D01*
X139398183Y-113288043D01*
X139232449Y-113200018D01*
X139108732Y-113132094D01*
X139033933Y-113087744D01*
X138998295Y-113066216D01*
X138909841Y-113016614D01*
X138792441Y-112953264D01*
X138661772Y-112884718D01*
X138500159Y-112797805D01*
X138299021Y-112684407D01*
X138072089Y-112552701D01*
X137832451Y-112410528D01*
X137593192Y-112265732D01*
X137367400Y-112126153D01*
X137168161Y-111999636D01*
X137008562Y-111894021D01*
X136845441Y-111778643D01*
X136602991Y-111586800D01*
X136420013Y-111410792D01*
X136296294Y-111250228D01*
X136231621Y-111104714D01*
X136225780Y-110973858D01*
X136278559Y-110857267D01*
X136389744Y-110754549D01*
X136433652Y-110726306D01*
X136481841Y-110703818D01*
X136540415Y-110689941D01*
X136622281Y-110682863D01*
X136740345Y-110680771D01*
X136907515Y-110681853D01*
X136965629Y-110682657D01*
X137162119Y-110689886D01*
X137334098Y-110706187D01*
X137509400Y-110734923D01*
X137715862Y-110779453D01*
X137752558Y-110787901D01*
X137897184Y-110820232D01*
X138015682Y-110845204D01*
X138096645Y-110860490D01*
X138128669Y-110863760D01*
X138115438Y-110851892D01*
X138059785Y-110814713D01*
X137971753Y-110759373D01*
X137863236Y-110692998D01*
X137746129Y-110622714D01*
X137632323Y-110555644D01*
X137533714Y-110498916D01*
X137462193Y-110459654D01*
X137429655Y-110444983D01*
X137416269Y-110440048D01*
X137357126Y-110406258D01*
X137261144Y-110345596D01*
X137137180Y-110264134D01*
X136994087Y-110167949D01*
X136840722Y-110063114D01*
X136685938Y-109955705D01*
X136538592Y-109851796D01*
X136407537Y-109757461D01*
X136301630Y-109678776D01*
X136229726Y-109621815D01*
X136178549Y-109577637D01*
X136075941Y-109479035D01*
X136010092Y-109391915D01*
X135970220Y-109299743D01*
X135945546Y-109185988D01*
X135941064Y-109147054D01*
X135953973Y-109076179D01*
X136010513Y-109011893D01*
X136059786Y-108973059D01*
X136135647Y-108929054D01*
X136224682Y-108896993D01*
X136332143Y-108877095D01*
X136463283Y-108869580D01*
X136623354Y-108874666D01*
G37*
%TD*%
M02*
