M48
; DRILL file {KiCad 9.0.0-1.fc40} date 2025-03-21T22:07:13+0100
; FORMAT={-:-/ absolute / inch / decimal}
; #@! TF.CreationDate,2025-03-21T22:07:13+01:00
; #@! TF.GenerationSoftware,Kicad,Pcbnew,9.0.0-1.fc40
; #@! TF.FileFunction,Plated,1,2,PTH
FMAT,2
INCH
; #@! TA.AperFunction,Plated,PTH,ComponentDrill
T1C0.0079
; #@! TA.AperFunction,Plated,PTH,ViaDrill
T2C0.0118
; #@! TA.AperFunction,Plated,PTH,ViaDrill
T3C0.0197
; #@! TA.AperFunction,Plated,PTH,ComponentDrill
T4C0.0394
; #@! TA.AperFunction,Plated,PTH,ComponentDrill
T5C0.0709
%
G90
G05
T1
X6.0713Y-3.2854
X6.0713Y-3.3287
X6.0929Y-3.2638
X6.0929Y-3.3071
X6.0929Y-3.3504
X6.1146Y-3.2854
X6.1146Y-3.3287
X6.1362Y-3.2638
X6.1362Y-3.3071
X6.1362Y-3.3504
X6.1579Y-3.2854
X6.1579Y-3.3287
T2
X5.233Y-4.1542
X5.2362Y-4.2126
X5.2362Y-4.2421
X5.2362Y-4.2717
X5.2362Y-4.3012
X5.248Y-3.8504
X5.2559Y-3.0413
X5.2559Y-3.0709
X5.2657Y-4.2126
X5.2657Y-4.2421
X5.2657Y-4.2717
X5.2657Y-4.3012
X5.2717Y-4.1535
X5.2854Y-3.0413
X5.2854Y-3.0709
X5.2874Y-3.8229
X5.3071Y-3.6969
X5.3307Y-3.6654
X5.3425Y-4.8976
X5.3445Y-3.5827
X5.3642Y-4.2028
X5.3642Y-4.2323
X5.3642Y-4.2618
X5.3642Y-4.2913
X5.3642Y-4.3209
X5.3661Y-4.0551
X5.4134Y-4.122
X5.4331Y-3.8543
X5.437Y-4.9921
X5.4414Y-3.9764
X5.4528Y-3.6969
X5.4626Y-4.1142
X5.4685Y-4.9921
X5.5Y-4.9921
X5.5079Y-4.2008
X5.5217Y-3.3071
X5.5217Y-3.3366
X5.5217Y-3.3661
X5.5512Y-3.4941
X5.5515Y-3.4544
X5.5807Y-3.6614
X5.5807Y-3.6909
X5.6102Y-3.5414
X5.6102Y-3.6614
X5.6102Y-3.6909
X5.6181Y-3.3228
X5.622Y-4.1339
X5.6398Y-3.5039
X5.6398Y-3.6614
X5.6398Y-3.6909
X5.6398Y-4.9114
X5.6594Y-4.6949
X5.6614Y-3.3346
X5.6654Y-3.378
X5.6693Y-3.5039
X5.6693Y-3.5335
X5.6693Y-3.6614
X5.6693Y-3.6909
X5.7248Y-4.3413
X5.75Y-4.4882
X5.7815Y-4.4882
X5.7835Y-4.0197
X5.7874Y-3.4961
X5.7874Y-3.5236
X5.7992Y-3.5472
X5.8071Y-3.1772
X5.813Y-4.4882
X5.8169Y-4.9114
X5.8228Y-3.563
X5.8386Y-3.437
X5.8445Y-4.4882
X5.8465Y-3.3858
X5.8465Y-3.6909
X5.8465Y-3.7205
X5.8465Y-3.8583
X5.8465Y-3.8878
X5.8465Y-3.9173
X5.874Y-3.8898
X5.874Y-3.9173
X5.876Y-4.4882
X5.8858Y-3.6457
X5.895Y-3.105
X5.9055Y-4.8031
X5.9144Y-3.2372
X5.9146Y-3.1806
X5.9154Y-3.6457
X5.9179Y-3.5944
X5.9449Y-3.6457
X5.9587Y-3.5367
X5.9597Y-4.4932
X5.9646Y-3.1358
X5.9646Y-4.8622
X5.9646Y-4.8917
X5.9764Y-3.6064
X5.9941Y-4.8622
X5.9941Y-4.8917
X5.996Y-3.2697
X6.0167Y-3.5256
X6.0236Y-3.3386
X6.0236Y-4.8622
X6.0236Y-4.8917
X6.0276Y-3.7126
X6.0335Y-3.4941
X6.043Y-4.5118
X6.0531Y-4.8622
X6.0531Y-4.8917
X6.0551Y-3.4016
X6.0627Y-4.0981
X6.063Y-3.7126
X6.063Y-4.6614
X6.089Y-3.7303
X6.114Y-4.2696
X6.1218Y-4.2226
X6.1231Y-4.1823
X6.1241Y-3.6892
X6.1279Y-4.1473
X6.128Y-3.7539
X6.1614Y-3.7894
X6.1969Y-3.374
X6.2008Y-3.2972
X6.2126Y-3.63
X6.2126Y-3.2441
X6.2224Y-3.1024
X6.2303Y-3.2972
X6.2303Y-3.3268
X6.2303Y-3.5335
X6.2402Y-3.3563
X6.2402Y-3.3858
X6.2402Y-3.8189
X6.25Y-3.0709
X6.252Y-4.4134
X6.252Y-4.4409
X6.252Y-4.4685
X6.252Y-4.4961
X6.252Y-4.5236
X6.2598Y-3.5335
X6.2687Y-3.8573
X6.2717Y-3.8189
X6.2795Y-3.0709
X6.2913Y-3.685
X6.2992Y-4.0354
X6.2992Y-4.9921
X6.3091Y-3.7205
X6.3103Y-3.9186
X6.3159Y-3.8848
X6.3189Y-3.0709
X6.3287Y-3.8386
X6.3287Y-4.0551
X6.3386Y-3.6909
X6.3425Y-3.1791
X6.3583Y-3.0709
X6.3583Y-3.1004
X6.3583Y-3.1299
X6.3583Y-3.3563
X6.3632Y-4.2106
X6.3681Y-3.2776
X6.3681Y-3.3071
X6.3711Y-4.1801
X6.3723Y-3.728
X6.378Y-4.0148
X6.3807Y-3.5914
X6.3878Y-3.6221
X6.3946Y-3.7503
X6.4034Y-3.7196
X6.4443Y-3.7526
X6.4646Y-4.8346
X6.4665Y-3.7303
X6.4764Y-3.0709
X6.4764Y-3.1004
X6.4764Y-3.1299
X6.4862Y-3.2874
X6.4961Y-4.3228
X6.4961Y-4.3504
X6.4961Y-4.378
X6.4961Y-4.4055
X6.5164Y-3.878
X6.5164Y-3.9173
X6.5236Y-4.3228
X6.5236Y-4.3504
X6.5236Y-4.378
X6.5236Y-4.4055
X6.5276Y-4.9606
X6.5315Y-3.564
X6.5508Y-3.3874
X6.5551Y-3.5868
X6.559Y-4.1693
T3
X5.4175Y-4.0728
X5.5827Y-3.1339
X5.5881Y-4.2776
X5.6417Y-3.1378
X5.6432Y-4.294
X5.719Y-3.813
X5.721Y-3.8799
X5.7992Y-3.0709
X5.7992Y-3.122
X5.7992Y-3.3898
X5.8706Y-3.9705
X5.9099Y-3.8563
X5.9139Y-4.2146
T4
X6.5512Y-3.1339
X6.5512Y-3.2339
T5
X5.4331Y-3.2205
X5.4331Y-3.4646
X5.4331Y-4.6535
X5.4331Y-4.8976
M30
