%TF.GenerationSoftware,KiCad,Pcbnew,9.0.0-1.fc40*%
%TF.CreationDate,2025-03-21T22:07:14+01:00*%
%TF.ProjectId,airMouse-mcu,6169724d-6f75-4736-952d-6d63752e6b69,v1.0*%
%TF.SameCoordinates,Original*%
%TF.FileFunction,Copper,L1,Top*%
%TF.FilePolarity,Positive*%
%FSLAX46Y46*%
G04 Gerber Fmt 4.6, Leading zero omitted, Abs format (unit mm)*
G04 Created by KiCad (PCBNEW 9.0.0-1.fc40) date 2025-03-21 22:07:14*
%MOMM*%
%LPD*%
G01*
G04 APERTURE LIST*
G04 Aperture macros list*
%AMRoundRect*
0 Rectangle with rounded corners*
0 $1 Rounding radius*
0 $2 $3 $4 $5 $6 $7 $8 $9 X,Y pos of 4 corners*
0 Add a 4 corners polygon primitive as box body*
4,1,4,$2,$3,$4,$5,$6,$7,$8,$9,$2,$3,0*
0 Add four circle primitives for the rounded corners*
1,1,$1+$1,$2,$3*
1,1,$1+$1,$4,$5*
1,1,$1+$1,$6,$7*
1,1,$1+$1,$8,$9*
0 Add four rect primitives between the rounded corners*
20,1,$1+$1,$2,$3,$4,$5,0*
20,1,$1+$1,$4,$5,$6,$7,0*
20,1,$1+$1,$6,$7,$8,$9,0*
20,1,$1+$1,$8,$9,$2,$3,0*%
G04 Aperture macros list end*
%TA.AperFunction,SMDPad,CuDef*%
%ADD10RoundRect,0.218750X-0.218750X-0.256250X0.218750X-0.256250X0.218750X0.256250X-0.218750X0.256250X0*%
%TD*%
%TA.AperFunction,ComponentPad*%
%ADD11C,2.800000*%
%TD*%
%TA.AperFunction,SMDPad,CuDef*%
%ADD12R,1.500000X0.900000*%
%TD*%
%TA.AperFunction,HeatsinkPad*%
%ADD13C,0.600000*%
%TD*%
%TA.AperFunction,HeatsinkPad*%
%ADD14R,2.900000X2.900000*%
%TD*%
%TA.AperFunction,SMDPad,CuDef*%
%ADD15RoundRect,0.250000X0.250000X0.475000X-0.250000X0.475000X-0.250000X-0.475000X0.250000X-0.475000X0*%
%TD*%
%TA.AperFunction,SMDPad,CuDef*%
%ADD16RoundRect,0.200000X-0.200000X-0.275000X0.200000X-0.275000X0.200000X0.275000X-0.200000X0.275000X0*%
%TD*%
%TA.AperFunction,SMDPad,CuDef*%
%ADD17R,1.750000X4.500000*%
%TD*%
%TA.AperFunction,SMDPad,CuDef*%
%ADD18RoundRect,0.225000X0.225000X0.250000X-0.225000X0.250000X-0.225000X-0.250000X0.225000X-0.250000X0*%
%TD*%
%TA.AperFunction,SMDPad,CuDef*%
%ADD19RoundRect,0.200000X-0.275000X0.200000X-0.275000X-0.200000X0.275000X-0.200000X0.275000X0.200000X0*%
%TD*%
%TA.AperFunction,SMDPad,CuDef*%
%ADD20R,0.600000X1.800000*%
%TD*%
%TA.AperFunction,SMDPad,CuDef*%
%ADD21R,2.500000X3.000000*%
%TD*%
%TA.AperFunction,SMDPad,CuDef*%
%ADD22RoundRect,0.150000X0.150000X-0.587500X0.150000X0.587500X-0.150000X0.587500X-0.150000X-0.587500X0*%
%TD*%
%TA.AperFunction,SMDPad,CuDef*%
%ADD23RoundRect,0.225000X0.375000X-0.225000X0.375000X0.225000X-0.375000X0.225000X-0.375000X-0.225000X0*%
%TD*%
%TA.AperFunction,SMDPad,CuDef*%
%ADD24RoundRect,0.200000X0.200000X0.275000X-0.200000X0.275000X-0.200000X-0.275000X0.200000X-0.275000X0*%
%TD*%
%TA.AperFunction,SMDPad,CuDef*%
%ADD25RoundRect,0.150000X-0.512500X-0.150000X0.512500X-0.150000X0.512500X0.150000X-0.512500X0.150000X0*%
%TD*%
%TA.AperFunction,SMDPad,CuDef*%
%ADD26RoundRect,0.200000X0.275000X-0.200000X0.275000X0.200000X-0.275000X0.200000X-0.275000X-0.200000X0*%
%TD*%
%TA.AperFunction,ComponentPad*%
%ADD27R,1.700000X1.700000*%
%TD*%
%TA.AperFunction,ComponentPad*%
%ADD28O,1.700000X1.700000*%
%TD*%
%TA.AperFunction,SMDPad,CuDef*%
%ADD29RoundRect,0.175000X1.175000X-0.175000X1.175000X0.175000X-1.175000X0.175000X-1.175000X-0.175000X0*%
%TD*%
%TA.AperFunction,SMDPad,CuDef*%
%ADD30RoundRect,0.250000X0.700000X-0.300000X0.700000X0.300000X-0.700000X0.300000X-0.700000X-0.300000X0*%
%TD*%
%TA.AperFunction,ViaPad*%
%ADD31C,0.600000*%
%TD*%
%TA.AperFunction,ViaPad*%
%ADD32C,1.000000*%
%TD*%
%TA.AperFunction,Conductor*%
%ADD33C,0.200000*%
%TD*%
%TA.AperFunction,Conductor*%
%ADD34C,1.000000*%
%TD*%
%TA.AperFunction,Conductor*%
%ADD35C,0.400000*%
%TD*%
%TA.AperFunction,Conductor*%
%ADD36C,0.300000*%
%TD*%
G04 APERTURE END LIST*
D10*
%TO.P,D3,2,A*%
%TO.N,/LOW_BAT*%
X167187500Y-88400000D03*
%TO.P,D3,1,K*%
%TO.N,Net-(D3-K)*%
X165612500Y-88400000D03*
%TD*%
%TO.P,D4,2,A*%
%TO.N,/STBY*%
X167187500Y-86750000D03*
%TO.P,D4,1,K*%
%TO.N,Net-(D4-K)*%
X165612500Y-86750000D03*
%TD*%
%TO.P,D2,2,A*%
%TO.N,/CONN*%
X167187500Y-85100000D03*
%TO.P,D2,1,K*%
%TO.N,Net-(D2-K)*%
X165612500Y-85100000D03*
%TD*%
D11*
%TO.P,BT1,2,-*%
%TO.N,/BAT-*%
X138000000Y-124400000D03*
X138000000Y-118200000D03*
%TO.P,BT1,1,+*%
%TO.N,/BAT+*%
X138000000Y-88000000D03*
X138000000Y-81800000D03*
%TD*%
D12*
%TO.P,U5,1,3V3*%
%TO.N,/ESP_3V3*%
X145600000Y-77800000D03*
%TO.P,U5,2,EN*%
%TO.N,/ESP_EN*%
X145600000Y-79300000D03*
%TO.P,U5,3,IO4*%
%TO.N,unconnected-(U5-IO4-Pad3)*%
X145600000Y-80800000D03*
%TO.P,U5,4,IO5*%
%TO.N,unconnected-(U5-IO5-Pad4)*%
X145600000Y-82300000D03*
%TO.P,U5,5,IO6*%
%TO.N,/AT_MCU_TX*%
X145600000Y-83800000D03*
%TO.P,U5,6,IO7*%
%TO.N,/AT_MCU_RX*%
X145600000Y-85300000D03*
%TO.P,U5,7,IO8*%
%TO.N,Net-(U5-IO8)*%
X145600000Y-86800000D03*
%TO.P,U5,8,IO9*%
%TO.N,/ESP_BOOT*%
X145600000Y-88300000D03*
%TO.P,U5,9,GND*%
%TO.N,GND*%
X145600000Y-89800000D03*
%TO.P,U5,10,IO10*%
%TO.N,unconnected-(U5-IO10-Pad10)*%
X163100000Y-89800000D03*
%TO.P,U5,11,IO20/RXD*%
%TO.N,/PRG_ESP_RX*%
X163100000Y-88300000D03*
%TO.P,U5,12,IO21/TXD*%
%TO.N,/PRG_ESP_TX*%
X163100000Y-86800000D03*
%TO.P,U5,13,IO18*%
%TO.N,unconnected-(U5-IO18-Pad13)*%
X163100000Y-85300000D03*
%TO.P,U5,14,IO19*%
%TO.N,unconnected-(U5-IO19-Pad14)*%
X163100000Y-83800000D03*
%TO.P,U5,15,IO3*%
%TO.N,unconnected-(U5-IO3-Pad15)*%
X163100000Y-82300000D03*
%TO.P,U5,16,IO2*%
%TO.N,Net-(U5-IO2)*%
X163100000Y-80800000D03*
%TO.P,U5,17,IO1*%
%TO.N,unconnected-(U5-IO1-Pad17)*%
X163100000Y-79300000D03*
%TO.P,U5,18,IO0*%
%TO.N,unconnected-(U5-IO0-Pad18)*%
X163100000Y-77800000D03*
D13*
%TO.P,U5,19,GND*%
%TO.N,GND*%
X154210000Y-83450000D03*
X154210000Y-84550000D03*
X154760000Y-82900000D03*
X154760000Y-84000000D03*
X154760000Y-85100000D03*
X155310000Y-83450000D03*
D14*
X155310000Y-84000000D03*
D13*
X155310000Y-84550000D03*
X155860000Y-82900000D03*
X155860000Y-84000000D03*
X155860000Y-85100000D03*
X156410000Y-83450000D03*
X156410000Y-84550000D03*
%TD*%
D15*
%TO.P,C7,1*%
%TO.N,+3V3*%
X146462500Y-106850000D03*
%TO.P,C7,2*%
%TO.N,GND*%
X144562500Y-106850000D03*
%TD*%
D16*
%TO.P,R55,1*%
%TO.N,+3V3*%
X141600000Y-78200000D03*
%TO.P,R55,2*%
%TO.N,/ESP_3V3*%
X143250000Y-78200000D03*
%TD*%
D17*
%TO.P,L1,1,1*%
%TO.N,/BAT+*%
X146937500Y-97050000D03*
%TO.P,L1,2,2*%
%TO.N,/SW*%
X143687500Y-97050000D03*
%TD*%
D18*
%TO.P,C1,1*%
%TO.N,/BAT+*%
X147362500Y-92150000D03*
%TO.P,C1,2*%
%TO.N,GND*%
X145812500Y-92150000D03*
%TD*%
D19*
%TO.P,R15,1*%
%TO.N,Net-(D3-K)*%
X166750000Y-101675000D03*
%TO.P,R15,2*%
%TO.N,GND*%
X166750000Y-103325000D03*
%TD*%
D18*
%TO.P,C3,1*%
%TO.N,/BAT+*%
X147362500Y-93750000D03*
%TO.P,C3,2*%
%TO.N,GND*%
X145812500Y-93750000D03*
%TD*%
%TO.P,C13,1*%
%TO.N,/ADC*%
X158575000Y-95100000D03*
%TO.P,C13,2*%
%TO.N,GND*%
X157025000Y-95100000D03*
%TD*%
D20*
%TO.P,J4,1,Pin_1*%
%TO.N,/Keyboard/ROW5*%
X148600000Y-120400000D03*
%TO.P,J4,2,Pin_2*%
%TO.N,/Keyboard/ROW4*%
X149600000Y-120400000D03*
%TO.P,J4,3,Pin_3*%
%TO.N,/Keyboard/ROW3*%
X150600000Y-120400000D03*
%TO.P,J4,4,Pin_4*%
%TO.N,/Keyboard/ROW2*%
X151600000Y-120400000D03*
%TO.P,J4,5,Pin_5*%
%TO.N,/Keyboard/ROW1*%
X152600000Y-120400000D03*
%TO.P,J4,6,Pin_6*%
%TO.N,/COL10*%
X153600000Y-120400000D03*
%TO.P,J4,7,Pin_7*%
%TO.N,/COL9*%
X154600000Y-120400000D03*
%TO.P,J4,8,Pin_8*%
%TO.N,/COL8*%
X155600000Y-120400000D03*
%TO.P,J4,9,Pin_9*%
%TO.N,/COL7*%
X156600000Y-120400000D03*
%TO.P,J4,10,Pin_10*%
%TO.N,/COL6*%
X157600000Y-120400000D03*
%TO.P,J4,11,Pin_11*%
%TO.N,/COL5*%
X158600000Y-120400000D03*
%TO.P,J4,12,Pin_12*%
%TO.N,/COL4*%
X159600000Y-120400000D03*
%TO.P,J4,13,Pin_13*%
%TO.N,/COL3*%
X160600000Y-120400000D03*
%TO.P,J4,14,Pin_14*%
%TO.N,/COL2*%
X161600000Y-120400000D03*
%TO.P,J4,15,Pin_15*%
%TO.N,/COL1*%
X162600000Y-120400000D03*
%TO.P,J4,16,Pin_16*%
%TO.N,unconnected-(J4-Pin_16-Pad16)*%
X163600000Y-120400000D03*
D21*
%TO.P,J4,MP,MountPin*%
%TO.N,GND*%
X146100000Y-123000000D03*
X166100000Y-123000000D03*
%TD*%
D19*
%TO.P,R22,1*%
%TO.N,/Keyboard/KEY_ROW3*%
X148500000Y-116175000D03*
%TO.P,R22,2*%
%TO.N,/Keyboard/ROW3*%
X148500000Y-117825000D03*
%TD*%
D22*
%TO.P,Q1,1,G*%
%TO.N,+3V3*%
X149162500Y-96650000D03*
%TO.P,Q1,2,S*%
%TO.N,GND*%
X151062500Y-96650000D03*
%TO.P,Q1,3,D*%
%TO.N,/BAT-*%
X150112500Y-94775000D03*
%TD*%
D19*
%TO.P,R16,1*%
%TO.N,Net-(D4-K)*%
X165150000Y-101675000D03*
%TO.P,R16,2*%
%TO.N,GND*%
X165150000Y-103325000D03*
%TD*%
%TO.P,R14,1*%
%TO.N,Net-(D2-K)*%
X163550000Y-101675000D03*
%TO.P,R14,2*%
%TO.N,GND*%
X163550000Y-103325000D03*
%TD*%
D23*
%TO.P,D1,1,K*%
%TO.N,/BAT-*%
X150712500Y-105250000D03*
%TO.P,D1,2,A*%
%TO.N,GND*%
X150712500Y-101950000D03*
%TD*%
D24*
%TO.P,R10,1*%
%TO.N,/ADC*%
X158625000Y-93600000D03*
%TO.P,R10,2*%
%TO.N,/BAT+*%
X156975000Y-93600000D03*
%TD*%
D25*
%TO.P,U2,1,SW*%
%TO.N,/SW*%
X144612500Y-102850000D03*
%TO.P,U2,2,GND*%
%TO.N,GND*%
X144612500Y-103800000D03*
%TO.P,U2,3,EN*%
%TO.N,/BAT+*%
X144612500Y-104750000D03*
%TO.P,U2,4,V_{FB}*%
%TO.N,/FB*%
X146887500Y-104750000D03*
%TO.P,U2,5,V_{OUT}*%
%TO.N,+3V3*%
X146887500Y-103800000D03*
%TO.P,U2,6,V_{IN}*%
%TO.N,/BAT+*%
X146887500Y-102850000D03*
%TD*%
D19*
%TO.P,R21,1*%
%TO.N,/Keyboard/KEY_ROW2*%
X150000000Y-116175000D03*
%TO.P,R21,2*%
%TO.N,/Keyboard/ROW2*%
X150000000Y-117825000D03*
%TD*%
%TO.P,R23,1*%
%TO.N,/Keyboard/KEY_ROW4*%
X147000000Y-116175000D03*
%TO.P,R23,2*%
%TO.N,/Keyboard/ROW4*%
X147000000Y-117825000D03*
%TD*%
D26*
%TO.P,R5,1*%
%TO.N,+3V3*%
X148712500Y-107075000D03*
%TO.P,R5,2*%
%TO.N,/FB*%
X148712500Y-105425000D03*
%TD*%
%TO.P,R6,1*%
%TO.N,/FB*%
X148712500Y-104075000D03*
%TO.P,R6,2*%
%TO.N,GND*%
X148712500Y-102425000D03*
%TD*%
D27*
%TO.P,LD1,1,K*%
%TO.N,GND*%
X166400000Y-79600000D03*
D28*
%TO.P,LD1,2,A*%
%TO.N,Net-(LD1-A)*%
X166400000Y-82140000D03*
%TD*%
D19*
%TO.P,R20,1*%
%TO.N,/Keyboard/KEY_ROW1*%
X151500000Y-116175000D03*
%TO.P,R20,2*%
%TO.N,/Keyboard/ROW1*%
X151500000Y-117825000D03*
%TD*%
D15*
%TO.P,C2,1*%
%TO.N,/BAT+*%
X146900000Y-100800000D03*
%TO.P,C2,2*%
%TO.N,GND*%
X145000000Y-100800000D03*
%TD*%
D29*
%TO.P,J1,1,Pin_1*%
%TO.N,+3V3*%
X161400000Y-114150000D03*
%TO.P,J1,2,Pin_2*%
%TO.N,/SWDCLK*%
X161400000Y-112650000D03*
%TO.P,J1,3,Pin_3*%
%TO.N,GND*%
X161400000Y-111150000D03*
%TO.P,J1,4,Pin_4*%
%TO.N,/SWDIO*%
X161400000Y-109650000D03*
%TO.P,J1,5,Pin_5*%
%TO.N,/RST*%
X161400000Y-108150000D03*
D30*
%TO.P,J1,MP,MountPin*%
%TO.N,GND*%
X165100000Y-116100000D03*
X165100000Y-106200000D03*
%TD*%
D19*
%TO.P,R24,1*%
%TO.N,/Keyboard/KEY_ROW5*%
X145500000Y-116175000D03*
%TO.P,R24,2*%
%TO.N,/Keyboard/ROW5*%
X145500000Y-117825000D03*
%TD*%
D18*
%TO.P,C6,1*%
%TO.N,+3V3*%
X146487500Y-108950000D03*
%TO.P,C6,2*%
%TO.N,GND*%
X144937500Y-108950000D03*
%TD*%
D31*
%TO.N,GND*%
X135700000Y-124400000D03*
X139700000Y-126800000D03*
X138900000Y-126800000D03*
X138100000Y-126800000D03*
X149200000Y-98800000D03*
X149200000Y-99500000D03*
X148500000Y-99500000D03*
X147000000Y-88800000D03*
X147000000Y-89500000D03*
X147300000Y-90100000D03*
X147900000Y-90500000D03*
X151000000Y-92600000D03*
X144000000Y-89750000D03*
X143250000Y-89000000D03*
X144000000Y-89000000D03*
X143250000Y-124750000D03*
X147750000Y-124750000D03*
X133500000Y-78000000D03*
X134250000Y-78000000D03*
X134250000Y-77250000D03*
X133500000Y-77250000D03*
X158750000Y-78000000D03*
X158250000Y-89750000D03*
X159000000Y-89750000D03*
X151500000Y-124250000D03*
X152250000Y-124250000D03*
X153000000Y-124250000D03*
X153750000Y-124250000D03*
X153750000Y-123500000D03*
X153000000Y-123500000D03*
X152250000Y-123500000D03*
X151500000Y-123500000D03*
X136250000Y-106750000D03*
X136250000Y-109750000D03*
X136250000Y-109000000D03*
X136250000Y-108250000D03*
X136250000Y-107500000D03*
%TO.N,/SENSOR_3V3*%
X133300000Y-97800000D03*
X132917613Y-105517613D03*
%TO.N,GND*%
X133900000Y-105500000D03*
%TO.N,/AT_MCU_RX*%
X143900000Y-85800000D03*
%TO.N,/AT_MCU_TX*%
X143800000Y-84700000D03*
%TO.N,GND*%
X160000000Y-126800000D03*
X165800000Y-126000000D03*
%TO.N,+3V3*%
X164201000Y-122799000D03*
%TO.N,GND*%
X158800000Y-114900000D03*
X158800000Y-114200000D03*
X158800000Y-113500000D03*
X158800000Y-112800000D03*
X158800000Y-112100000D03*
X165700000Y-109800000D03*
X165700000Y-110500000D03*
X165700000Y-111200000D03*
X165700000Y-111900000D03*
X165000000Y-111900000D03*
X165000000Y-111200000D03*
X165000000Y-110500000D03*
X165000000Y-109800000D03*
X150250000Y-92600000D03*
X149500000Y-92600000D03*
X148500000Y-98750000D03*
X148500000Y-98000000D03*
X148500000Y-94500000D03*
X148500000Y-93750000D03*
X159500000Y-78000000D03*
X160500000Y-78000000D03*
X161500000Y-79500000D03*
X161500000Y-78750000D03*
X161500000Y-78000000D03*
X157500000Y-83750000D03*
X158500000Y-86000000D03*
X158500000Y-85250000D03*
X161750000Y-84000000D03*
X161750000Y-83250000D03*
X148500000Y-86000000D03*
X150225735Y-82225735D03*
X150231671Y-80786657D03*
X164500000Y-79500000D03*
X164500000Y-78750000D03*
X164500000Y-78000000D03*
X158250000Y-84500000D03*
X158250000Y-83750000D03*
X133000000Y-109250000D03*
X133000000Y-108500000D03*
X133000000Y-107750000D03*
X133000000Y-107000000D03*
X133750000Y-109250000D03*
X133750000Y-108500000D03*
X133750000Y-107750000D03*
X133750000Y-107000000D03*
X138750000Y-104500000D03*
X138211906Y-101000000D03*
%TO.N,/mouse/MOUSE_HOME*%
X141000000Y-88750000D03*
X142500000Y-89951000D03*
X135750000Y-91000000D03*
%TO.N,/SENSOR_3V3*%
X134300735Y-97100735D03*
%TO.N,/mouse/MOUSE_HOME*%
X150000000Y-122000000D03*
%TO.N,/PRG_ESP_RX*%
X160750000Y-103000000D03*
%TO.N,/PRG_ESP_TX*%
X160000000Y-102500000D03*
%TO.N,/PRG_ESP_RX*%
X165516085Y-99500000D03*
%TO.N,/PRG_ESP_TX*%
X165516085Y-98500000D03*
%TO.N,/PRG_ESP_RX*%
X161502000Y-85250000D03*
%TO.N,/GYRO_INT*%
X151500000Y-79650000D03*
%TO.N,/PRG_ESP_TX*%
X164750000Y-83500000D03*
%TO.N,/SWDCLK*%
X160282701Y-99532701D03*
%TO.N,/SWDIO*%
X160424265Y-98674265D03*
%TO.N,/RST*%
X160750000Y-97500000D03*
%TO.N,/CONN*%
X166391476Y-86039422D03*
%TO.N,/LOW_BAT*%
X166499000Y-91105005D03*
%TO.N,/STBY*%
X165900000Y-90526472D03*
%TO.N,/ADC*%
X159800000Y-93600000D03*
%TO.N,/SCL*%
X161001000Y-93750000D03*
%TO.N,/SDA*%
X160250000Y-94500000D03*
X151800000Y-91602820D03*
%TO.N,/COL10*%
X162422767Y-95257137D03*
X159224736Y-97974736D03*
%TO.N,GND*%
X157799265Y-92200735D03*
%TO.N,/mouse/MOUSE_FWD*%
X158500000Y-97000999D03*
X161625551Y-106948817D03*
%TO.N,/mouse/MOUSE_BACK*%
X161825735Y-106174265D03*
X159300002Y-97001000D03*
%TO.N,+3V3*%
X143750000Y-119250000D03*
%TO.N,/Keyboard/KEY_ROW5*%
X146049988Y-114000000D03*
%TO.N,/Keyboard/KEY_ROW4*%
X146849991Y-114000000D03*
%TO.N,/Keyboard/KEY_ROW3*%
X147649994Y-114000000D03*
%TO.N,/Keyboard/KEY_ROW2*%
X148449997Y-114000000D03*
%TO.N,/Keyboard/KEY_ROW1*%
X149250000Y-114000000D03*
%TO.N,GND*%
X141750000Y-93750000D03*
X142500000Y-93750000D03*
X143250000Y-93750000D03*
X144000000Y-93750000D03*
X144000000Y-93000000D03*
X143250000Y-93000000D03*
X142500000Y-93000000D03*
X141750000Y-93000000D03*
X140250000Y-85500000D03*
X140250000Y-84750000D03*
X140250000Y-84000000D03*
X152299265Y-83049265D03*
X148300000Y-87300000D03*
%TO.N,/GYRO_INT*%
X138000000Y-97900000D03*
%TO.N,+3V3*%
X137500000Y-104700000D03*
X139900000Y-106700000D03*
D32*
%TO.N,/SENSOR_3V3*%
X137605113Y-103450000D03*
D31*
%TO.N,+3V3*%
X136300000Y-103000000D03*
%TO.N,/GYRO_INT*%
X147500000Y-80700000D03*
X134800000Y-93900000D03*
%TO.N,/MCU_3V3*%
X138500000Y-93900000D03*
X135400000Y-93100000D03*
%TO.N,/mouse/MOUSE_DPI*%
X153991685Y-104091685D03*
X153100000Y-94300000D03*
X153492000Y-114600000D03*
X155553304Y-93704774D03*
%TO.N,/mouse/MOUSE_RB*%
X166598000Y-105900000D03*
X162000000Y-101976545D03*
%TO.N,/COL1*%
X161857079Y-94691450D03*
%TO.N,/COL2*%
X162646351Y-94477052D03*
%TO.N,/COL3*%
X155649000Y-105340186D03*
%TO.N,/COL4*%
X155526686Y-106230057D03*
%TO.N,/COL5*%
X155494000Y-107253947D03*
%TO.N,/COL6*%
X155295000Y-108449000D03*
%TO.N,/mouse/MOUSE_DN*%
X151376235Y-114126235D03*
%TO.N,/COL10*%
X154000000Y-118400000D03*
%TO.N,/COL7*%
X156500000Y-96250000D03*
%TO.N,/COL8*%
X155650756Y-95349236D03*
%TO.N,/COL9*%
X154661066Y-94750547D03*
%TO.N,/mouse/MOUSE_DN*%
X154000000Y-94300000D03*
%TO.N,/SCL*%
X150315223Y-91297138D03*
%TO.N,/ESP_EN*%
X157800000Y-82400000D03*
X163684313Y-95315687D03*
%TO.N,+3V3*%
X142700000Y-84400000D03*
%TO.N,/AT_MCU_TX*%
X162070406Y-91220983D03*
%TO.N,/AT_MCU_RX*%
X162249265Y-92000735D03*
%TO.N,/ESP_BOOT*%
X164250000Y-94750000D03*
X141008607Y-87741393D03*
%TO.N,/MCU_3V3*%
X157400000Y-85700000D03*
X153250000Y-88750000D03*
%TO.N,Net-(U5-IO2)*%
X161100000Y-80750000D03*
%TO.N,/ESP_3V3*%
X149733547Y-78866988D03*
X158050000Y-78800000D03*
%TO.N,+3V3*%
X145408697Y-110269599D03*
D32*
%TO.N,Net-(U5-IO8)*%
X147300000Y-86100000D03*
%TO.N,/ESP_EN*%
X147300000Y-79300000D03*
%TO.N,/ESP_3V3*%
X147300000Y-78000000D03*
X143300000Y-79700000D03*
X141800000Y-79600000D03*
D31*
%TO.N,/BAT+*%
X146900000Y-102100000D03*
X142800000Y-105000000D03*
D32*
%TO.N,GND*%
X141937500Y-108650000D03*
X145262502Y-96850000D03*
%TO.N,+3V3*%
X150212500Y-107050000D03*
X150112500Y-97950000D03*
D31*
%TO.N,Net-(U3-VREF+)*%
X151352118Y-89831788D03*
X152825000Y-89549000D03*
D32*
%TO.N,GND*%
X145312500Y-98550000D03*
X149112500Y-100850000D03*
D31*
X153000000Y-84800000D03*
X153800000Y-86400000D03*
D32*
X143337500Y-109068599D03*
%TD*%
D33*
%TO.N,/mouse/MOUSE_DPI*%
X153492000Y-114600000D02*
X153500000Y-114600000D01*
X153500000Y-114600000D02*
X153891000Y-114209000D01*
X153891000Y-114209000D02*
X153891000Y-110200000D01*
X153891000Y-110200000D02*
X153491000Y-109800000D01*
X153491000Y-104592370D02*
X153991685Y-104091685D01*
X153491000Y-109800000D02*
X153491000Y-104592370D01*
%TO.N,/COL9*%
X154875735Y-96169164D02*
X154875735Y-94965216D01*
X155698000Y-99984900D02*
X155698000Y-97265100D01*
X155349000Y-96642429D02*
X154875735Y-96169164D01*
X155349000Y-96916100D02*
X155349000Y-96642429D01*
X154698000Y-100984900D02*
X155698000Y-99984900D01*
X154698000Y-104233900D02*
X154698000Y-100984900D01*
X154292000Y-109666100D02*
X153892000Y-109266100D01*
X153892000Y-105039900D02*
X154698000Y-104233900D01*
X155698000Y-97265100D02*
X155349000Y-96916100D01*
X153892000Y-109266100D02*
X153892000Y-105039900D01*
X154292000Y-116291000D02*
X154292000Y-109666100D01*
X154600000Y-120400000D02*
X154600000Y-116599000D01*
X154600000Y-116599000D02*
X154292000Y-116291000D01*
X154875735Y-94965216D02*
X154661066Y-94750547D01*
%TO.N,/COL8*%
X155600000Y-120400000D02*
X155600000Y-117031900D01*
X156099000Y-100151000D02*
X156099000Y-97099000D01*
X155600000Y-117031900D02*
X154693000Y-116124900D01*
X154293000Y-105206000D02*
X155099000Y-104400000D01*
X154693000Y-116124900D02*
X154693000Y-109500000D01*
X154693000Y-109500000D02*
X154293000Y-109100000D01*
X155099000Y-101151000D02*
X156099000Y-100151000D01*
X154293000Y-109100000D02*
X154293000Y-105206000D01*
X155099000Y-104400000D02*
X155099000Y-101151000D01*
X156099000Y-97099000D02*
X155750000Y-96750000D01*
X155750000Y-96750000D02*
X155750000Y-95448480D01*
X155750000Y-95448480D02*
X155650756Y-95349236D01*
%TO.N,/COL7*%
X156600000Y-120400000D02*
X156600000Y-117464800D01*
X156600000Y-117464800D02*
X155094000Y-115958800D01*
X155094000Y-115958800D02*
X155094000Y-109300000D01*
X154694000Y-108900000D02*
X154694000Y-105372100D01*
X154694000Y-105372100D02*
X155500000Y-104566100D01*
X155094000Y-109300000D02*
X154694000Y-108900000D01*
X155500000Y-104566100D02*
X155500000Y-101432900D01*
X155500000Y-101432900D02*
X156500000Y-100432900D01*
X156500000Y-100432900D02*
X156500000Y-96250000D01*
%TO.N,/COL6*%
X157600000Y-120400000D02*
X157600000Y-117897700D01*
X157600000Y-117897700D02*
X155495000Y-115792700D01*
X155495000Y-115792700D02*
X155495000Y-108649000D01*
X155495000Y-108649000D02*
X155295000Y-108449000D01*
%TO.N,/mouse/MOUSE_DN*%
X151376235Y-114126235D02*
X151376235Y-113872295D01*
X151376235Y-113872295D02*
X153090000Y-112158530D01*
X153090000Y-112158530D02*
X153090000Y-103510000D01*
X153090000Y-103510000D02*
X154250000Y-102350000D01*
X153693000Y-94607000D02*
X154000000Y-94300000D01*
X154250000Y-102350000D02*
X154250000Y-96110528D01*
X154250000Y-96110528D02*
X153693000Y-95553529D01*
X153693000Y-95553529D02*
X153693000Y-94607000D01*
D34*
%TO.N,/ESP_3V3*%
X143250000Y-78200000D02*
X143650000Y-77800000D01*
X143650000Y-77800000D02*
X145600000Y-77800000D01*
D33*
%TO.N,/mouse/MOUSE_HOME*%
X142500000Y-125500000D02*
X142500000Y-119650057D01*
X135000000Y-101500000D02*
X135000000Y-126800000D01*
X135650000Y-127450000D02*
X140550000Y-127450000D01*
X134200000Y-97849943D02*
X134200000Y-100700000D01*
X135000000Y-126800000D02*
X135650000Y-127450000D01*
X133699735Y-97349678D02*
X134200000Y-97849943D01*
X134200000Y-100700000D02*
X135000000Y-101500000D01*
X133699735Y-96000265D02*
X133699735Y-97349678D01*
X140550000Y-127450000D02*
X142500000Y-125500000D01*
X142500000Y-119650057D02*
X143501057Y-118649000D01*
X134200000Y-95500000D02*
X133699735Y-96000265D01*
X148452000Y-122000000D02*
X150000000Y-122000000D01*
X134200000Y-92550000D02*
X134200000Y-95500000D01*
X135750000Y-91000000D02*
X134200000Y-92550000D01*
X143501057Y-118649000D02*
X145101000Y-118649000D01*
X145101000Y-118649000D02*
X148452000Y-122000000D01*
D34*
%TO.N,/BAT+*%
X138000000Y-88000000D02*
X140951000Y-90951000D01*
X140951000Y-90951000D02*
X141751000Y-90951000D01*
X138000000Y-88000000D02*
X138000000Y-81800000D01*
%TO.N,+3V3*%
X139900000Y-106700000D02*
X139900000Y-93400000D01*
X139900000Y-93400000D02*
X135899000Y-89399000D01*
X135899000Y-89399000D02*
X135899000Y-80401000D01*
X135899000Y-80401000D02*
X138100000Y-78200000D01*
X138100000Y-78200000D02*
X141600000Y-78200000D01*
D33*
%TO.N,/SDA*%
X160401000Y-94349000D02*
X160250000Y-94500000D01*
X160401000Y-93351057D02*
X160401000Y-94349000D01*
X158499944Y-91450000D02*
X160401000Y-93351057D01*
X152150000Y-91450000D02*
X158499944Y-91450000D01*
X151997180Y-91602820D02*
X152150000Y-91450000D01*
X151800000Y-91602820D02*
X151997180Y-91602820D01*
%TO.N,/mouse/MOUSE_HOME*%
X141000000Y-88750000D02*
X142201000Y-89951000D01*
X142201000Y-89951000D02*
X142500000Y-89951000D01*
%TO.N,/ESP_BOOT*%
X141008607Y-87741393D02*
X142291393Y-87741393D01*
X142850000Y-88300000D02*
X145600000Y-88300000D01*
X142291393Y-87741393D02*
X142850000Y-88300000D01*
%TO.N,/SENSOR_3V3*%
X133300000Y-97800000D02*
X132917613Y-98182387D01*
X132917613Y-98182387D02*
X132917613Y-105517613D01*
X134300735Y-97100735D02*
X134665339Y-97465339D01*
X134665339Y-97465339D02*
X134665339Y-97710227D01*
X134665339Y-97710227D02*
X137250000Y-100294888D01*
X137250000Y-100294888D02*
X137250000Y-103094887D01*
X137250000Y-103094887D02*
X137605113Y-103450000D01*
%TO.N,/STBY*%
X165900000Y-89475000D02*
X166449000Y-88926000D01*
X165900000Y-90526472D02*
X165900000Y-89475000D01*
X166449000Y-88926000D02*
X166449000Y-87488500D01*
X166449000Y-87488500D02*
X167187500Y-86750000D01*
%TO.N,/LOW_BAT*%
X166499000Y-91105005D02*
X167187500Y-90416505D01*
X167187500Y-90416505D02*
X167187500Y-88250000D01*
%TO.N,/AT_MCU_RX*%
X143900000Y-85800000D02*
X145100000Y-85800000D01*
X145100000Y-85800000D02*
X145600000Y-85300000D01*
%TO.N,/AT_MCU_TX*%
X143800000Y-84700000D02*
X144700000Y-83800000D01*
X144700000Y-83800000D02*
X145600000Y-83800000D01*
%TO.N,GND*%
X166100000Y-125700000D02*
X165800000Y-126000000D01*
X166100000Y-123000000D02*
X166100000Y-125700000D01*
%TO.N,Net-(U3-VREF+)*%
X152825000Y-89549000D02*
X151634906Y-89549000D01*
X151634906Y-89549000D02*
X151352118Y-89831788D01*
%TO.N,/BAT+*%
X156975000Y-93600000D02*
X156073000Y-92698000D01*
X156073000Y-92698000D02*
X153702000Y-92698000D01*
X149300000Y-93300000D02*
X148150000Y-92150000D01*
X153702000Y-92698000D02*
X153100000Y-93300000D01*
X153100000Y-93300000D02*
X149300000Y-93300000D01*
X148150000Y-92150000D02*
X147362500Y-92150000D01*
%TO.N,/SCL*%
X150315223Y-91297138D02*
X151257155Y-91297138D01*
X151257155Y-91297138D02*
X151705293Y-90849000D01*
X161001000Y-93251000D02*
X161001000Y-93750000D01*
X151705293Y-90849000D02*
X158599000Y-90849000D01*
X158599000Y-90849000D02*
X161001000Y-93251000D01*
%TO.N,/ESP_BOOT*%
X160100000Y-83550000D02*
X160100000Y-90700000D01*
X158100000Y-81550000D02*
X160100000Y-83550000D01*
X154258000Y-81550000D02*
X158100000Y-81550000D01*
X147250000Y-87250000D02*
X147282786Y-87250000D01*
X152974236Y-82833764D02*
X154258000Y-81550000D01*
X152974236Y-83224236D02*
X152974236Y-82833764D01*
X147282786Y-87250000D02*
X147833786Y-86699000D01*
X149301000Y-86699000D02*
X152000000Y-84000000D01*
X147833786Y-86699000D02*
X149301000Y-86699000D01*
X152000000Y-84000000D02*
X152198473Y-84000000D01*
X152198473Y-84000000D02*
X152974236Y-83224236D01*
X145600000Y-88300000D02*
X146200000Y-88300000D01*
X146200000Y-88300000D02*
X147250000Y-87250000D01*
X160100000Y-90700000D02*
X162075000Y-92675000D01*
X162075000Y-92675000D02*
X162500000Y-92675000D01*
X162500000Y-92675000D02*
X162500000Y-92750000D01*
X162500000Y-92750000D02*
X163963232Y-94213232D01*
X163963232Y-94213232D02*
X163963232Y-94463232D01*
X163963232Y-94463232D02*
X164250000Y-94750000D01*
%TO.N,/AT_MCU_TX*%
X145600000Y-83800000D02*
X145800000Y-83800000D01*
X145800000Y-83800000D02*
X146899000Y-84899000D01*
X158432200Y-80748000D02*
X160902000Y-83217800D01*
X146899000Y-84899000D02*
X148401000Y-84899000D01*
X148401000Y-84899000D02*
X152552000Y-80748000D01*
X152552000Y-80748000D02*
X158432200Y-80748000D01*
X160902000Y-90086370D02*
X162036613Y-91220983D01*
X160902000Y-83217800D02*
X160902000Y-90086370D01*
X162036613Y-91220983D02*
X162070406Y-91220983D01*
%TO.N,GND*%
X138750000Y-101538094D02*
X138750000Y-104500000D01*
X138211906Y-101000000D02*
X138750000Y-101538094D01*
%TO.N,/PRG_ESP_RX*%
X160750000Y-103000000D02*
X160750000Y-101067100D01*
X160750000Y-101067100D02*
X162317100Y-99500000D01*
X162317100Y-99500000D02*
X165516085Y-99500000D01*
%TO.N,/PRG_ESP_TX*%
X165516085Y-98500000D02*
X162750000Y-98500000D01*
X162750000Y-98500000D02*
X160000000Y-101250000D01*
X160000000Y-101250000D02*
X160000000Y-102500000D01*
%TO.N,/COL5*%
X155494000Y-107253947D02*
X155896000Y-107655947D01*
X155896000Y-107655947D02*
X155896000Y-115626600D01*
X155896000Y-115626600D02*
X158600000Y-118330600D01*
X158600000Y-118330600D02*
X158600000Y-120400000D01*
%TO.N,/COL4*%
X159600000Y-120400000D02*
X159600000Y-118763500D01*
X159600000Y-118763500D02*
X156297000Y-115460500D01*
X156297000Y-115460500D02*
X156297000Y-107000371D01*
X156297000Y-107000371D02*
X155526686Y-106230057D01*
%TO.N,/COL3*%
X160600000Y-120400000D02*
X160600000Y-119196400D01*
X156698000Y-106803686D02*
X156250000Y-106355686D01*
X156250000Y-106355686D02*
X156250000Y-105941186D01*
X160600000Y-119196400D02*
X156698000Y-115294400D01*
X156698000Y-115294400D02*
X156698000Y-106803686D01*
X156250000Y-105941186D02*
X155649000Y-105340186D01*
%TO.N,/COL2*%
X159700000Y-96000000D02*
X161659649Y-94040351D01*
X158000000Y-96000000D02*
X159700000Y-96000000D01*
X157099000Y-106223086D02*
X156250000Y-105374086D01*
X161659649Y-94040351D02*
X162209649Y-94040351D01*
X156901000Y-97099000D02*
X158000000Y-96000000D01*
X156901000Y-100599000D02*
X156901000Y-97099000D01*
X156250000Y-105374086D02*
X156250000Y-101250000D01*
X161199000Y-119199000D02*
X157099000Y-115099000D01*
X156250000Y-101250000D02*
X156901000Y-100599000D01*
X161201000Y-119199000D02*
X161199000Y-119199000D01*
X161201000Y-119201000D02*
X161201000Y-119199000D01*
X157099000Y-115099000D02*
X157099000Y-106223086D01*
X161600000Y-119600000D02*
X161201000Y-119201000D01*
X161600000Y-120400000D02*
X161600000Y-119600000D01*
X162209649Y-94040351D02*
X162646351Y-94477052D01*
%TO.N,/COL1*%
X159866100Y-96401000D02*
X161667100Y-94600000D01*
X158166100Y-96401000D02*
X159866100Y-96401000D01*
X157302000Y-100765100D02*
X157302000Y-97265100D01*
X156651000Y-101416100D02*
X157302000Y-100765100D01*
X157533550Y-106090536D02*
X156651000Y-105207986D01*
X161667100Y-94600000D02*
X161765629Y-94600000D01*
X157533550Y-114966450D02*
X157533550Y-106090536D01*
X160883550Y-118316450D02*
X157533550Y-114966450D01*
X162600000Y-120400000D02*
X162600000Y-119100000D01*
X156651000Y-105207986D02*
X156651000Y-101416100D01*
X162600000Y-119100000D02*
X161816450Y-118316450D01*
X161816450Y-118316450D02*
X160883550Y-118316450D01*
X157302000Y-97265100D02*
X158166100Y-96401000D01*
X161765629Y-94600000D02*
X161857079Y-94691450D01*
%TO.N,/mouse/MOUSE_FWD*%
X161625551Y-106948817D02*
X160750000Y-106948817D01*
X158193014Y-106182900D02*
X157052000Y-105041886D01*
X160750000Y-106948817D02*
X159984083Y-106182900D01*
X159984083Y-106182900D02*
X158193014Y-106182900D01*
X158250000Y-97000000D02*
X158250999Y-97000999D01*
X157052000Y-105041886D02*
X157052000Y-101582200D01*
X157052000Y-101582200D02*
X157750000Y-100884200D01*
X157750000Y-100884200D02*
X157750000Y-97500000D01*
X157750000Y-97500000D02*
X158250000Y-97000000D01*
X158250999Y-97000999D02*
X158500000Y-97000999D01*
%TO.N,/mouse/MOUSE_BACK*%
X160674265Y-106174265D02*
X160281900Y-105781900D01*
X161825735Y-106174265D02*
X160674265Y-106174265D01*
X160281900Y-105781900D02*
X158359114Y-105781900D01*
X158151000Y-98199942D02*
X159300002Y-97050940D01*
X158359114Y-105781900D02*
X157453000Y-104875786D01*
X157453000Y-104875786D02*
X157453000Y-101748300D01*
X158151000Y-101050300D02*
X158151000Y-98199942D01*
X157453000Y-101748300D02*
X158151000Y-101050300D01*
X159300002Y-97050940D02*
X159300002Y-97001000D01*
%TO.N,/RST*%
X160750000Y-97500000D02*
X158552000Y-99698000D01*
X158552000Y-99698000D02*
X158552000Y-101216400D01*
X158552000Y-101216400D02*
X157854000Y-101914400D01*
X157854000Y-101914400D02*
X157854000Y-104709686D01*
X160880900Y-105380900D02*
X160875000Y-105375000D01*
X161875000Y-105375000D02*
X162500000Y-106000000D01*
X157854000Y-104709686D02*
X158525214Y-105380900D01*
X158525214Y-105380900D02*
X160880900Y-105380900D01*
X160875000Y-105375000D02*
X161875000Y-105375000D01*
X162500000Y-106000000D02*
X162500000Y-107050000D01*
X162500000Y-107050000D02*
X161400000Y-108150000D01*
%TO.N,/SWDIO*%
X161400000Y-109650000D02*
X162750000Y-109650000D01*
X163250000Y-109150000D02*
X163250000Y-106067100D01*
X162750000Y-109650000D02*
X163250000Y-109150000D01*
X158885300Y-104974000D02*
X158879400Y-104979900D01*
X163250000Y-106067100D02*
X162156900Y-104974000D01*
X162156900Y-104974000D02*
X158885300Y-104974000D01*
X158879400Y-104979900D02*
X158691314Y-104979900D01*
X159000000Y-101335500D02*
X159000000Y-99817100D01*
X158691314Y-104979900D02*
X158255000Y-104543586D01*
X158255000Y-104543586D02*
X158255000Y-102080500D01*
X158255000Y-102080500D02*
X159000000Y-101335500D01*
X159000000Y-99817100D02*
X160142835Y-98674265D01*
X160142835Y-98674265D02*
X160424265Y-98674265D01*
%TO.N,/SWDCLK*%
X161400000Y-112650000D02*
X162750000Y-112650000D01*
X162750000Y-112650000D02*
X163651000Y-111749000D01*
X163651000Y-111749000D02*
X163651000Y-105901000D01*
X163651000Y-105901000D02*
X162323000Y-104573000D01*
X162323000Y-104573000D02*
X158851514Y-104573000D01*
X158851514Y-104573000D02*
X158656000Y-104377486D01*
X158656000Y-104377486D02*
X158656000Y-102246600D01*
X158656000Y-102246600D02*
X159500000Y-101402600D01*
X159500000Y-101402600D02*
X159500000Y-100453757D01*
X159500000Y-100453757D02*
X160282701Y-99671057D01*
X160282701Y-99671057D02*
X160282701Y-99532701D01*
%TO.N,Net-(D2-K)*%
X165612500Y-85250000D02*
X164473000Y-86389500D01*
X164707900Y-91525000D02*
X166698000Y-93515100D01*
X166698000Y-93515100D02*
X166698000Y-99417800D01*
X164473000Y-86389500D02*
X164473000Y-87322400D01*
X164473000Y-90957900D02*
X164473000Y-90973000D01*
X164473000Y-87322400D02*
X164473000Y-87654600D01*
X164473000Y-91290100D02*
X164707900Y-91525000D01*
X164473000Y-87654600D02*
X164473000Y-90957900D01*
X164473000Y-90973000D02*
X164473000Y-91290100D01*
X166698000Y-99417800D02*
X165682900Y-100432900D01*
X165682900Y-100432900D02*
X164792100Y-100432900D01*
X164792100Y-100432900D02*
X163550000Y-101675000D01*
%TO.N,Net-(D4-K)*%
X165612500Y-86750000D02*
X164874000Y-87488500D01*
X164874000Y-87488500D02*
X164874000Y-91124000D01*
X164874000Y-91124000D02*
X167099000Y-93349000D01*
X165150000Y-101532900D02*
X165150000Y-101675000D01*
X167099000Y-93349000D02*
X167099000Y-99583900D01*
X167099000Y-99583900D02*
X165150000Y-101532900D01*
%TO.N,Net-(D3-K)*%
X165612500Y-88250000D02*
X165275000Y-88587500D01*
X165275000Y-88587500D02*
X165275000Y-90750000D01*
X165275000Y-90750000D02*
X167500000Y-92975000D01*
X166750000Y-100500000D02*
X166750000Y-101675000D01*
X167500000Y-92975000D02*
X167500000Y-99750000D01*
X167500000Y-99750000D02*
X166750000Y-100500000D01*
%TO.N,/PRG_ESP_RX*%
X161502000Y-87004000D02*
X161502000Y-85250000D01*
X162798000Y-88300000D02*
X161502000Y-87004000D01*
X163100000Y-88300000D02*
X162798000Y-88300000D01*
%TO.N,/GYRO_INT*%
X148550000Y-79650000D02*
X147500000Y-80700000D01*
X151500000Y-79650000D02*
X148550000Y-79650000D01*
%TO.N,/PRG_ESP_TX*%
X163100000Y-86800000D02*
X163495400Y-86800000D01*
X163495400Y-86800000D02*
X164750000Y-85545400D01*
X164750000Y-85545400D02*
X164750000Y-83500000D01*
%TO.N,/COL10*%
X162422767Y-95257137D02*
X162137804Y-95542100D01*
X162137804Y-95542100D02*
X161292100Y-95542100D01*
X161292100Y-95542100D02*
X160149915Y-96684285D01*
X160149915Y-96684285D02*
X160149915Y-97049557D01*
X160149915Y-97049557D02*
X159224736Y-97974736D01*
%TO.N,/mouse/MOUSE_RB*%
X162000000Y-102964064D02*
X163061936Y-104026000D01*
X162000000Y-101976545D02*
X162000000Y-102964064D01*
X163061936Y-104026000D02*
X164724000Y-104026000D01*
X164724000Y-104026000D02*
X166598000Y-105900000D01*
%TO.N,/CONN*%
X166391476Y-86039422D02*
X167180898Y-85250000D01*
X167180898Y-85250000D02*
X167187500Y-85250000D01*
%TO.N,/ADC*%
X158625000Y-93600000D02*
X159800000Y-93600000D01*
X158575000Y-95100000D02*
X158575000Y-93650000D01*
X158575000Y-93650000D02*
X158625000Y-93600000D01*
%TO.N,/ESP_EN*%
X159699000Y-83799000D02*
X158600000Y-82700000D01*
X162250000Y-93076000D02*
X161908900Y-93076000D01*
X163335797Y-94967171D02*
X163335797Y-94161797D01*
X159699000Y-90866100D02*
X159699000Y-83799000D01*
X158100000Y-82700000D02*
X157800000Y-82400000D01*
X161908900Y-93076000D02*
X159699000Y-90866100D01*
X163335797Y-94161797D02*
X162250000Y-93076000D01*
X158600000Y-82700000D02*
X158100000Y-82700000D01*
X163684313Y-95315687D02*
X163335797Y-94967171D01*
%TO.N,GND*%
X157799265Y-92200735D02*
X157750000Y-92250000D01*
X157750000Y-92250000D02*
X157750000Y-94375000D01*
X157750000Y-94375000D02*
X157025000Y-95100000D01*
%TO.N,/MCU_3V3*%
X153250000Y-88750000D02*
X155700000Y-86300000D01*
X155700000Y-86300000D02*
X156800000Y-86300000D01*
X156800000Y-86300000D02*
X157400000Y-85700000D01*
%TO.N,/mouse/MOUSE_DPI*%
X155553304Y-93704774D02*
X154947530Y-93099000D01*
X154947530Y-93099000D02*
X154301000Y-93099000D01*
X154301000Y-93099000D02*
X153100000Y-94300000D01*
%TO.N,+3V3*%
X145748000Y-126000000D02*
X143277319Y-123529319D01*
X143277319Y-123529319D02*
X143277319Y-120235123D01*
X143277319Y-120235123D02*
X143277319Y-119722681D01*
X149250000Y-126000000D02*
X145748000Y-126000000D01*
X161400000Y-116398000D02*
X164201000Y-119199000D01*
X161400000Y-114150000D02*
X161400000Y-116398000D01*
X164201000Y-119199000D02*
X164201000Y-122799000D01*
X164201000Y-122799000D02*
X161000000Y-126000000D01*
X161000000Y-126000000D02*
X149250000Y-126000000D01*
X143277319Y-119722681D02*
X143750000Y-119250000D01*
%TO.N,/Keyboard/KEY_ROW5*%
X145500000Y-114549988D02*
X146049988Y-114000000D01*
X145500000Y-116175000D02*
X145500000Y-114549988D01*
%TO.N,/Keyboard/KEY_ROW4*%
X147000000Y-114150009D02*
X146849991Y-114000000D01*
X147000000Y-116175000D02*
X147000000Y-114150009D01*
%TO.N,/Keyboard/KEY_ROW3*%
X147649994Y-115324994D02*
X147649994Y-114000000D01*
X148500000Y-116175000D02*
X147649994Y-115324994D01*
%TO.N,/Keyboard/KEY_ROW2*%
X148449997Y-114624997D02*
X148449997Y-114000000D01*
X150000000Y-116175000D02*
X148449997Y-114624997D01*
%TO.N,/Keyboard/KEY_ROW1*%
X151425000Y-116175000D02*
X149250000Y-114000000D01*
X151500000Y-116175000D02*
X151425000Y-116175000D01*
%TO.N,/GYRO_INT*%
X134800000Y-93900000D02*
X137700000Y-96800000D01*
%TO.N,+3V3*%
X136300000Y-103000000D02*
X136300000Y-103500000D01*
D34*
X139900000Y-109100000D02*
X139900000Y-106700000D01*
D33*
%TO.N,/GYRO_INT*%
X138000000Y-97100000D02*
X137700000Y-96800000D01*
%TO.N,+3V3*%
X136300000Y-103500000D02*
X137500000Y-104700000D01*
%TO.N,/GYRO_INT*%
X138000000Y-97900000D02*
X138000000Y-97100000D01*
%TO.N,/MCU_3V3*%
X137700000Y-93100000D02*
X138500000Y-93900000D01*
X135400000Y-93100000D02*
X137700000Y-93100000D01*
%TO.N,/COL10*%
X154000000Y-118400000D02*
X153600000Y-118800000D01*
X153600000Y-118800000D02*
X153600000Y-120400000D01*
D34*
%TO.N,+3V3*%
X145408697Y-110269599D02*
X141069599Y-110269599D01*
X141069599Y-110269599D02*
X139900000Y-109100000D01*
D33*
X140999000Y-82699000D02*
X140999000Y-78801000D01*
X142700000Y-84400000D02*
X140999000Y-82699000D01*
X140999000Y-78801000D02*
X141600000Y-78200000D01*
%TO.N,/ESP_3V3*%
X149733547Y-78866988D02*
X150733012Y-78866988D01*
X150733012Y-78866988D02*
X150800000Y-78800000D01*
X150800000Y-78800000D02*
X158050000Y-78800000D01*
%TO.N,/AT_MCU_RX*%
X160501000Y-90533900D02*
X160501000Y-83383900D01*
X161917100Y-91950000D02*
X160501000Y-90533900D01*
X162249265Y-92000735D02*
X162198530Y-91950000D01*
X162198530Y-91950000D02*
X161917100Y-91950000D01*
X152751000Y-81149000D02*
X148600000Y-85300000D01*
X160501000Y-83383900D02*
X158266100Y-81149000D01*
X158266100Y-81149000D02*
X152751000Y-81149000D01*
X148600000Y-85300000D02*
X145600000Y-85300000D01*
%TO.N,Net-(U5-IO2)*%
X161150000Y-80800000D02*
X161100000Y-80750000D01*
X163100000Y-80800000D02*
X161150000Y-80800000D01*
%TO.N,/Keyboard/ROW4*%
X147000000Y-117825000D02*
X147975000Y-118800000D01*
X149100000Y-118800000D02*
X149600000Y-119300000D01*
X147975000Y-118800000D02*
X149100000Y-118800000D01*
X149600000Y-119300000D02*
X149600000Y-120400000D01*
%TO.N,/Keyboard/ROW1*%
X151500000Y-117825000D02*
X152600000Y-118925000D01*
X152600000Y-118925000D02*
X152600000Y-120400000D01*
%TO.N,/Keyboard/ROW2*%
X150000000Y-117825000D02*
X151600000Y-119425000D01*
X151600000Y-119425000D02*
X151600000Y-120400000D01*
%TO.N,/Keyboard/ROW3*%
X148500000Y-117825000D02*
X148692100Y-117825000D01*
X148692100Y-117825000D02*
X150600000Y-119732900D01*
X150600000Y-119732900D02*
X150600000Y-120400000D01*
%TO.N,/Keyboard/ROW5*%
X148600000Y-120400000D02*
X148075000Y-120400000D01*
X148075000Y-120400000D02*
X145500000Y-117825000D01*
D35*
%TO.N,Net-(U5-IO8)*%
X146600000Y-86800000D02*
X147300000Y-86100000D01*
X145600000Y-86800000D02*
X146600000Y-86800000D01*
%TO.N,/ESP_EN*%
X147300000Y-79300000D02*
X145600000Y-79300000D01*
%TO.N,/ESP_3V3*%
X147300000Y-78000000D02*
X145800000Y-78000000D01*
X145800000Y-78000000D02*
X145600000Y-77800000D01*
D34*
X143300000Y-79700000D02*
X143300000Y-78250000D01*
X143300000Y-78250000D02*
X143250000Y-78200000D01*
X142000000Y-79600000D02*
X141800000Y-79600000D01*
X143250000Y-78350000D02*
X142000000Y-79600000D01*
X143250000Y-78200000D02*
X143250000Y-78350000D01*
X143250000Y-78200000D02*
X143449000Y-78001000D01*
%TO.N,+3V3*%
X145408697Y-110269599D02*
X146487500Y-109190796D01*
X146487500Y-109190796D02*
X146487500Y-108950000D01*
D35*
X146887500Y-103800000D02*
X146391612Y-103800000D01*
X146391612Y-103800000D02*
X145824000Y-104367612D01*
X145824000Y-104367612D02*
X145824000Y-106211500D01*
X145824000Y-106211500D02*
X146462500Y-106850000D01*
%TO.N,GND*%
X144937500Y-108950000D02*
X144937500Y-107225000D01*
X144937500Y-107225000D02*
X144562500Y-106850000D01*
D36*
%TO.N,/BAT+*%
X144612500Y-104750000D02*
X143050000Y-104750000D01*
X143050000Y-104750000D02*
X142800000Y-105000000D01*
D34*
X147362500Y-92150000D02*
X147362500Y-91675000D01*
X147362500Y-91675000D02*
X146638500Y-90951000D01*
X146638500Y-90951000D02*
X141751000Y-90951000D01*
D35*
%TO.N,GND*%
X142356099Y-109068599D02*
X141937500Y-108650000D01*
X143337500Y-109068599D02*
X142356099Y-109068599D01*
X143337500Y-109068599D02*
X144818901Y-109068599D01*
X144818901Y-109068599D02*
X144937500Y-108950000D01*
X145312500Y-96899998D02*
X145262502Y-96850000D01*
X145312500Y-98550000D02*
X145312500Y-96899998D01*
%TO.N,+3V3*%
X150212500Y-107050000D02*
X148737500Y-107050000D01*
X149162500Y-97000000D02*
X150112500Y-97950000D01*
D36*
X146987500Y-108450000D02*
X146487500Y-108950000D01*
D35*
X149162500Y-96650000D02*
X149162500Y-97000000D01*
X148737500Y-107050000D02*
X148712500Y-107075000D01*
%TO.N,/BAT-*%
X151312500Y-94875000D02*
X151312500Y-94775000D01*
X151762500Y-95325000D02*
X151312500Y-94875000D01*
X151762500Y-104200000D02*
X151762500Y-95325000D01*
X150712500Y-105250000D02*
X151762500Y-104200000D01*
X150112500Y-94775000D02*
X151312500Y-94775000D01*
%TO.N,/BAT+*%
X147362500Y-96625000D02*
X146937500Y-97050000D01*
%TO.N,GND*%
X149612500Y-100850000D02*
X150712500Y-101950000D01*
X151062500Y-96650000D02*
X151062500Y-98900000D01*
X145000000Y-98862500D02*
X145312500Y-98550000D01*
X149112500Y-100850000D02*
X148712500Y-101250000D01*
X149112500Y-100850000D02*
X149612500Y-100850000D01*
X148712500Y-101250000D02*
X148712500Y-102425000D01*
X151062500Y-98900000D02*
X149112500Y-100850000D01*
X145000000Y-100800000D02*
X145000000Y-98862500D01*
%TD*%
%TA.AperFunction,Conductor*%
%TO.N,GND*%
G36*
X141867351Y-94502009D02*
G01*
X141867348Y-94502021D01*
X141857000Y-94573998D01*
X141857000Y-103126002D01*
X141862838Y-103180312D01*
X141874043Y-103231818D01*
X141874046Y-103231827D01*
X141881279Y-103258192D01*
X141881283Y-103258203D01*
X141912500Y-103313023D01*
X141912500Y-103450000D01*
X142048795Y-103450000D01*
X142097476Y-103475465D01*
X142097477Y-103475465D01*
X142097477Y-103475466D01*
X142141721Y-103488457D01*
X142164515Y-103495150D01*
X142164519Y-103495150D01*
X142164521Y-103495151D01*
X142173299Y-103496413D01*
X142236500Y-103505500D01*
X142236501Y-103505500D01*
X144057269Y-103505500D01*
X144057726Y-103505490D01*
X144067297Y-103505303D01*
X144072567Y-103505095D01*
X144077435Y-103505000D01*
X145150006Y-103505000D01*
X145157718Y-103505303D01*
X145167748Y-103505500D01*
X145188500Y-103505500D01*
X145224862Y-103502899D01*
X145259797Y-103497876D01*
X145268824Y-103496413D01*
X145283752Y-103490537D01*
X145283797Y-103490744D01*
X145294312Y-103488457D01*
X145320701Y-103481218D01*
X145342682Y-103468700D01*
X145350388Y-103464311D01*
X145361590Y-103459904D01*
X145367651Y-103456008D01*
X145366932Y-103454890D01*
X145375520Y-103450000D01*
X145512500Y-103450000D01*
X145512500Y-103316281D01*
X145514632Y-103313325D01*
X145518393Y-103305088D01*
X145518392Y-103305087D01*
X145526528Y-103287271D01*
X145526534Y-103287257D01*
X145527906Y-103284251D01*
X145537966Y-103265022D01*
X145540262Y-103257201D01*
X145543648Y-103249788D01*
X145558805Y-103206821D01*
X145559948Y-103185445D01*
X145561032Y-103174438D01*
X145568000Y-103126000D01*
X145568000Y-102574000D01*
X145562161Y-102519687D01*
X145550955Y-102468176D01*
X145543719Y-102441802D01*
X145543716Y-102441796D01*
X145512500Y-102386977D01*
X145512500Y-101650000D01*
X144312500Y-101650000D01*
X144312500Y-99850000D01*
X145912500Y-99850000D01*
X145912500Y-103712718D01*
X145503522Y-104121696D01*
X145503518Y-104121702D01*
X145450792Y-104213025D01*
X145447681Y-104220536D01*
X145444502Y-104219219D01*
X145425707Y-104250000D01*
X145161693Y-104250000D01*
X145158261Y-104249500D01*
X145158260Y-104249500D01*
X144066740Y-104249500D01*
X144066739Y-104249500D01*
X144063307Y-104250000D01*
X143712500Y-104250000D01*
X141912500Y-104250000D01*
X141912500Y-105850000D01*
X145112500Y-105850000D01*
X145112500Y-107850000D01*
X140600500Y-107850000D01*
X140600500Y-94450000D01*
X141882622Y-94450000D01*
X141867351Y-94502009D01*
G37*
%TD.AperFunction*%
%TD*%
%TA.AperFunction,Conductor*%
%TO.N,/FB*%
G36*
X149255539Y-103669685D02*
G01*
X149301294Y-103722489D01*
X149312500Y-103774000D01*
X149312500Y-105726000D01*
X149292815Y-105793039D01*
X149240011Y-105838794D01*
X149188500Y-105850000D01*
X148092000Y-105850000D01*
X148024961Y-105830315D01*
X147979206Y-105777511D01*
X147968000Y-105726000D01*
X147968000Y-105392609D01*
X147964565Y-105350867D01*
X147964563Y-105350848D01*
X147964563Y-105350845D01*
X147957935Y-105310847D01*
X147955139Y-105296524D01*
X147923160Y-105224467D01*
X147912500Y-105174167D01*
X147912500Y-105050000D01*
X147764310Y-105050000D01*
X147717678Y-105040897D01*
X147696976Y-105032495D01*
X147696966Y-105032491D01*
X147653403Y-105019190D01*
X147653406Y-105019190D01*
X147554776Y-105018133D01*
X147553720Y-105018122D01*
X147553719Y-105018122D01*
X147485052Y-105031016D01*
X147485043Y-105031019D01*
X147482405Y-105031918D01*
X147461824Y-105037013D01*
X147421048Y-105043472D01*
X147401648Y-105044999D01*
X146398500Y-105044999D01*
X146331461Y-105025314D01*
X146285706Y-104972510D01*
X146274500Y-104920999D01*
X146274500Y-104605577D01*
X146294185Y-104538538D01*
X146310819Y-104517896D01*
X146342396Y-104486319D01*
X146403719Y-104452834D01*
X146430077Y-104450000D01*
X147912500Y-104450000D01*
X147912500Y-103774000D01*
X147932185Y-103706961D01*
X147984989Y-103661206D01*
X148036500Y-103650000D01*
X149188500Y-103650000D01*
X149255539Y-103669685D01*
G37*
%TD.AperFunction*%
%TD*%
%TA.AperFunction,Conductor*%
%TO.N,/BAT+*%
G36*
X147830539Y-91669685D02*
G01*
X147876294Y-91722489D01*
X147887500Y-91774000D01*
X147887500Y-103126000D01*
X147867815Y-103193039D01*
X147815011Y-103238794D01*
X147763500Y-103250000D01*
X146311500Y-103250000D01*
X146244461Y-103230315D01*
X146198706Y-103177511D01*
X146187500Y-103126000D01*
X146187500Y-94524000D01*
X146207185Y-94456961D01*
X146259989Y-94411206D01*
X146311500Y-94400000D01*
X146400000Y-94400000D01*
X146400000Y-94255568D01*
X146413515Y-94199273D01*
X146447219Y-94133126D01*
X146447219Y-94133124D01*
X146447220Y-94133123D01*
X146463000Y-94033493D01*
X146463000Y-93466506D01*
X146447220Y-93366876D01*
X146413515Y-93300725D01*
X146400000Y-93244431D01*
X146400000Y-92655568D01*
X146413515Y-92599273D01*
X146447219Y-92533126D01*
X146447219Y-92533124D01*
X146447220Y-92533123D01*
X146463000Y-92433493D01*
X146463000Y-91866505D01*
X146451421Y-91793397D01*
X146460376Y-91724104D01*
X146505372Y-91670652D01*
X146572124Y-91650013D01*
X146573894Y-91650000D01*
X147763500Y-91650000D01*
X147830539Y-91669685D01*
G37*
%TD.AperFunction*%
%TD*%
%TA.AperFunction,Conductor*%
%TO.N,+3V3*%
G36*
X146206262Y-105263515D02*
G01*
X146249698Y-105285647D01*
X146343475Y-105300499D01*
X146343481Y-105300500D01*
X147431518Y-105300499D01*
X147525304Y-105285646D01*
X147532206Y-105282128D01*
X147600875Y-105269233D01*
X147665615Y-105295510D01*
X147705872Y-105352616D01*
X147712500Y-105392614D01*
X147712500Y-106250000D01*
X149176000Y-106250000D01*
X149243039Y-106269685D01*
X149288794Y-106322489D01*
X149300000Y-106374000D01*
X149300000Y-108450400D01*
X149280315Y-108517439D01*
X149265793Y-108535917D01*
X148336650Y-109511517D01*
X148276162Y-109546488D01*
X148246857Y-109550000D01*
X145936500Y-109550000D01*
X145869461Y-109530315D01*
X145823706Y-109477511D01*
X145812500Y-109426000D01*
X145812500Y-105374000D01*
X145815050Y-105365314D01*
X145813762Y-105356353D01*
X145824740Y-105332312D01*
X145832185Y-105306961D01*
X145839025Y-105301033D01*
X145842787Y-105292797D01*
X145865021Y-105278507D01*
X145884989Y-105261206D01*
X145895503Y-105258918D01*
X145901565Y-105255023D01*
X145936500Y-105250000D01*
X146149967Y-105250000D01*
X146206262Y-105263515D01*
G37*
%TD.AperFunction*%
%TD*%
%TA.AperFunction,Conductor*%
%TO.N,/SW*%
G36*
X144655539Y-94469685D02*
G01*
X144701294Y-94522489D01*
X144712500Y-94574000D01*
X144712500Y-96287272D01*
X144692815Y-96354311D01*
X144682979Y-96366516D01*
X144683416Y-96366874D01*
X144679550Y-96371584D01*
X144597421Y-96494498D01*
X144597414Y-96494511D01*
X144540845Y-96631082D01*
X144540842Y-96631092D01*
X144512002Y-96776079D01*
X144512002Y-96776082D01*
X144512002Y-96923918D01*
X144512002Y-96923920D01*
X144512001Y-96923920D01*
X144540842Y-97068907D01*
X144540845Y-97068917D01*
X144597414Y-97205488D01*
X144597421Y-97205501D01*
X144679550Y-97328415D01*
X144683416Y-97333126D01*
X144681456Y-97334734D01*
X144709652Y-97386304D01*
X144712500Y-97412727D01*
X144712500Y-98059483D01*
X144692815Y-98126522D01*
X144691603Y-98128372D01*
X144647415Y-98194504D01*
X144647414Y-98194506D01*
X144590843Y-98331082D01*
X144590840Y-98331092D01*
X144562000Y-98476079D01*
X144562000Y-98623916D01*
X144571500Y-98671679D01*
X144569657Y-98727961D01*
X144549500Y-98803189D01*
X144549500Y-99326000D01*
X144529815Y-99393039D01*
X144477011Y-99438794D01*
X144425500Y-99450000D01*
X143912500Y-99450000D01*
X143912500Y-102450000D01*
X145188500Y-102450000D01*
X145255539Y-102469685D01*
X145301294Y-102522489D01*
X145312500Y-102574000D01*
X145312500Y-103126000D01*
X145309949Y-103134685D01*
X145311238Y-103143647D01*
X145300259Y-103167687D01*
X145292815Y-103193039D01*
X145285974Y-103198966D01*
X145282213Y-103207203D01*
X145259978Y-103221492D01*
X145240011Y-103238794D01*
X145229496Y-103241081D01*
X145223435Y-103244977D01*
X145188500Y-103250000D01*
X145167748Y-103250000D01*
X145158025Y-103249618D01*
X145156524Y-103249500D01*
X144068477Y-103249500D01*
X144066990Y-103249618D01*
X144057267Y-103250000D01*
X142236500Y-103250000D01*
X142169461Y-103230315D01*
X142123706Y-103177511D01*
X142112500Y-103126000D01*
X142112500Y-94574000D01*
X142132185Y-94506961D01*
X142184989Y-94461206D01*
X142236500Y-94450000D01*
X144588500Y-94450000D01*
X144655539Y-94469685D01*
G37*
%TD.AperFunction*%
%TD*%
%TA.AperFunction,Conductor*%
%TO.N,GND*%
G36*
X133768834Y-98212204D02*
G01*
X133824767Y-98254076D01*
X133849184Y-98319540D01*
X133849500Y-98328386D01*
X133849500Y-100746143D01*
X133867724Y-100814157D01*
X133867740Y-100814214D01*
X133873386Y-100835289D01*
X133919527Y-100915208D01*
X133919531Y-100915213D01*
X134613181Y-101608863D01*
X134646666Y-101670186D01*
X134649500Y-101696544D01*
X134649500Y-126846143D01*
X134673386Y-126935287D01*
X134673387Y-126935290D01*
X134719527Y-127015208D01*
X134719529Y-127015211D01*
X134719530Y-127015212D01*
X135434788Y-127730470D01*
X135514712Y-127776614D01*
X135603856Y-127800500D01*
X135603858Y-127800500D01*
X140596142Y-127800500D01*
X140596144Y-127800500D01*
X140685288Y-127776614D01*
X140765212Y-127730470D01*
X142780469Y-125715213D01*
X142826614Y-125635288D01*
X142850500Y-125546144D01*
X142850500Y-123897544D01*
X142870185Y-123830505D01*
X142922989Y-123784750D01*
X142992147Y-123774806D01*
X143055703Y-123803831D01*
X143062181Y-123809863D01*
X145532788Y-126280470D01*
X145532789Y-126280471D01*
X145532791Y-126280472D01*
X145563442Y-126298168D01*
X145612712Y-126326614D01*
X145701856Y-126350500D01*
X145701857Y-126350500D01*
X145701858Y-126350500D01*
X161046142Y-126350500D01*
X161046144Y-126350500D01*
X161135288Y-126326614D01*
X161215212Y-126280470D01*
X164109863Y-123385819D01*
X164136790Y-123371115D01*
X164162609Y-123354523D01*
X164168809Y-123353631D01*
X164171186Y-123352334D01*
X164197544Y-123349500D01*
X164226000Y-123349500D01*
X164293039Y-123369185D01*
X164338794Y-123421989D01*
X164350000Y-123473500D01*
X164350000Y-124396448D01*
X165835543Y-122910905D01*
X165896866Y-122877420D01*
X165966558Y-122882404D01*
X166010905Y-122910905D01*
X166189094Y-123089094D01*
X166222579Y-123150417D01*
X166217595Y-123220109D01*
X166189094Y-123264456D01*
X164552029Y-124901520D01*
X164607910Y-124943352D01*
X164607913Y-124943354D01*
X164742620Y-124993596D01*
X164742627Y-124993598D01*
X164802155Y-124999999D01*
X164802172Y-125000000D01*
X167397828Y-125000000D01*
X167397844Y-124999999D01*
X167457372Y-124993598D01*
X167457383Y-124993595D01*
X167532166Y-124965703D01*
X167601857Y-124960718D01*
X167663181Y-124994202D01*
X167696666Y-125055525D01*
X167699500Y-125081884D01*
X167699500Y-128375500D01*
X167679815Y-128442539D01*
X167627011Y-128488294D01*
X167575500Y-128499500D01*
X132624500Y-128499500D01*
X132557461Y-128479815D01*
X132511706Y-128427011D01*
X132500500Y-128375500D01*
X132500500Y-106127229D01*
X132520185Y-106060190D01*
X132572989Y-106014435D01*
X132642147Y-106004491D01*
X132686500Y-106019842D01*
X132705128Y-106030597D01*
X132845138Y-106068113D01*
X132845141Y-106068113D01*
X132990085Y-106068113D01*
X132990088Y-106068113D01*
X133130098Y-106030597D01*
X133255628Y-105958122D01*
X133358122Y-105855628D01*
X133430597Y-105730098D01*
X133468113Y-105590088D01*
X133468113Y-105445138D01*
X133430597Y-105305128D01*
X133427924Y-105300499D01*
X133358124Y-105179601D01*
X133358119Y-105179595D01*
X133304432Y-105125908D01*
X133270947Y-105064585D01*
X133268113Y-105038227D01*
X133268113Y-98472984D01*
X133287798Y-98405945D01*
X133340602Y-98360190D01*
X133364795Y-98353242D01*
X133364624Y-98352603D01*
X133372472Y-98350500D01*
X133372475Y-98350500D01*
X133512485Y-98312984D01*
X133638015Y-98240509D01*
X133638019Y-98240504D01*
X133644461Y-98235562D01*
X133645280Y-98236630D01*
X133699142Y-98207220D01*
X133768834Y-98212204D01*
G37*
%TD.AperFunction*%
%TA.AperFunction,Conductor*%
G36*
X137570495Y-93470185D02*
G01*
X137591137Y-93486819D01*
X137913181Y-93808863D01*
X137946666Y-93870186D01*
X137949500Y-93896544D01*
X137949500Y-93972475D01*
X137985852Y-94108140D01*
X137987017Y-94112488D01*
X138059488Y-94238011D01*
X138059490Y-94238013D01*
X138059491Y-94238015D01*
X138161985Y-94340509D01*
X138161986Y-94340510D01*
X138161988Y-94340511D01*
X138287511Y-94412982D01*
X138287512Y-94412982D01*
X138287515Y-94412984D01*
X138427525Y-94450500D01*
X138427528Y-94450500D01*
X138572472Y-94450500D01*
X138572475Y-94450500D01*
X138712485Y-94412984D01*
X138838015Y-94340509D01*
X138937819Y-94240705D01*
X138999142Y-94207220D01*
X139068834Y-94212204D01*
X139124767Y-94254076D01*
X139149184Y-94319540D01*
X139149500Y-94328386D01*
X139149500Y-106626082D01*
X139149500Y-109173918D01*
X139149500Y-109173920D01*
X139149499Y-109173920D01*
X139178340Y-109318907D01*
X139178343Y-109318917D01*
X139229124Y-109441512D01*
X139234916Y-109455495D01*
X139253147Y-109482780D01*
X139264986Y-109500499D01*
X139317049Y-109578418D01*
X139317052Y-109578421D01*
X140571451Y-110832819D01*
X140604936Y-110894142D01*
X140599952Y-110963834D01*
X140558080Y-111019767D01*
X140492616Y-111044184D01*
X140483770Y-111044500D01*
X136123997Y-111044500D01*
X136069687Y-111050338D01*
X136018181Y-111061543D01*
X136018172Y-111061546D01*
X135991807Y-111068779D01*
X135991796Y-111068783D01*
X135905181Y-111118105D01*
X135905173Y-111118111D01*
X135852371Y-111163863D01*
X135820743Y-111196640D01*
X135774534Y-111284977D01*
X135774533Y-111284977D01*
X135754851Y-111352009D01*
X135754848Y-111352021D01*
X135744500Y-111423998D01*
X135744500Y-117440089D01*
X135744501Y-117440109D01*
X135751346Y-117498844D01*
X135751349Y-117498861D01*
X135764461Y-117554346D01*
X135764470Y-117554380D01*
X135773724Y-117584887D01*
X135773727Y-117584894D01*
X135826113Y-117669698D01*
X135826115Y-117669701D01*
X135826118Y-117669705D01*
X135873729Y-117720842D01*
X135907612Y-117751277D01*
X135997541Y-117794302D01*
X136065240Y-117811581D01*
X136110200Y-117818866D01*
X136209114Y-117806442D01*
X136209126Y-117806437D01*
X136215053Y-117805094D01*
X136215393Y-117806596D01*
X136277656Y-117804361D01*
X136337751Y-117840002D01*
X136369038Y-117902476D01*
X136369485Y-117943912D01*
X136349500Y-118070096D01*
X136349500Y-118329902D01*
X136369067Y-118453446D01*
X136360112Y-118522740D01*
X136315116Y-118576192D01*
X136248364Y-118596831D01*
X136213566Y-118591129D01*
X136213526Y-118591331D01*
X136207588Y-118590149D01*
X136205345Y-118589782D01*
X136204832Y-118589601D01*
X136204825Y-118589600D01*
X136105286Y-118584266D01*
X136105280Y-118584266D01*
X136036117Y-118594211D01*
X136036115Y-118594211D01*
X135991807Y-118604682D01*
X135991799Y-118604685D01*
X135905177Y-118654011D01*
X135905173Y-118654014D01*
X135852371Y-118699766D01*
X135820743Y-118732543D01*
X135774534Y-118820880D01*
X135774533Y-118820880D01*
X135754851Y-118887912D01*
X135754848Y-118887924D01*
X135744500Y-118959901D01*
X135744500Y-123640089D01*
X135744501Y-123640109D01*
X135751346Y-123698844D01*
X135751349Y-123698861D01*
X135764461Y-123754346D01*
X135764470Y-123754380D01*
X135773724Y-123784887D01*
X135773727Y-123784894D01*
X135826113Y-123869698D01*
X135826115Y-123869701D01*
X135826118Y-123869705D01*
X135873729Y-123920842D01*
X135907612Y-123951277D01*
X135997541Y-123994302D01*
X136065240Y-124011581D01*
X136110200Y-124018866D01*
X136209114Y-124006442D01*
X136209126Y-124006437D01*
X136215053Y-124005094D01*
X136215393Y-124006596D01*
X136277656Y-124004361D01*
X136337751Y-124040002D01*
X136369038Y-124102476D01*
X136369485Y-124143912D01*
X136349500Y-124270096D01*
X136349500Y-124529902D01*
X136369067Y-124653446D01*
X136360112Y-124722740D01*
X136315116Y-124776192D01*
X136248364Y-124796831D01*
X136213566Y-124791129D01*
X136213526Y-124791331D01*
X136207588Y-124790149D01*
X136205345Y-124789782D01*
X136204832Y-124789601D01*
X136204825Y-124789600D01*
X136105286Y-124784266D01*
X136105280Y-124784266D01*
X136036117Y-124794211D01*
X136036115Y-124794211D01*
X135991807Y-124804682D01*
X135991799Y-124804685D01*
X135905177Y-124854011D01*
X135905173Y-124854014D01*
X135852371Y-124899766D01*
X135820743Y-124932543D01*
X135774534Y-125020880D01*
X135774533Y-125020880D01*
X135754851Y-125087912D01*
X135754848Y-125087924D01*
X135744500Y-125159901D01*
X135744500Y-126176002D01*
X135750338Y-126230312D01*
X135761543Y-126281818D01*
X135761546Y-126281827D01*
X135768779Y-126308192D01*
X135768783Y-126308203D01*
X135818105Y-126394818D01*
X135818110Y-126394825D01*
X135818112Y-126394828D01*
X135832744Y-126411714D01*
X135863863Y-126447628D01*
X135863866Y-126447631D01*
X135863867Y-126447632D01*
X135896641Y-126479257D01*
X135984976Y-126525465D01*
X135984977Y-126525465D01*
X135984977Y-126525466D01*
X136022999Y-126536630D01*
X136052015Y-126545150D01*
X136052019Y-126545150D01*
X136052021Y-126545151D01*
X136063359Y-126546781D01*
X136124000Y-126555500D01*
X136124001Y-126555500D01*
X137028111Y-126555500D01*
X137028121Y-126555500D01*
X137070492Y-126551962D01*
X137111048Y-126545142D01*
X137122227Y-126542918D01*
X137125955Y-126542177D01*
X137216873Y-126501309D01*
X137216874Y-126501307D01*
X137216881Y-126501305D01*
X137273795Y-126460777D01*
X137308394Y-126431155D01*
X137362789Y-126347612D01*
X137388757Y-126282747D01*
X137389441Y-126280470D01*
X137394222Y-126264536D01*
X137401848Y-126239126D01*
X137402442Y-126139437D01*
X137401466Y-126134373D01*
X137408107Y-126064821D01*
X137451297Y-126009900D01*
X137517324Y-125987047D01*
X137561543Y-125992975D01*
X137578891Y-125998612D01*
X137613506Y-126009860D01*
X137870098Y-126050500D01*
X137870103Y-126050500D01*
X138129902Y-126050500D01*
X138386493Y-126009860D01*
X138413004Y-126001246D01*
X138502133Y-125972285D01*
X138533615Y-125971386D01*
X138565010Y-125968673D01*
X138568280Y-125970396D01*
X138571973Y-125970291D01*
X138598944Y-125986555D01*
X138626823Y-126001246D01*
X138628642Y-126004463D01*
X138631806Y-126006371D01*
X138645707Y-126034644D01*
X138661213Y-126062066D01*
X138661424Y-126066608D01*
X138662635Y-126069071D01*
X138664253Y-126097228D01*
X138663973Y-126102160D01*
X138661231Y-126122178D01*
X138659093Y-126167671D01*
X138659763Y-126170426D01*
X138659653Y-126174163D01*
X138659852Y-126174924D01*
X138659852Y-126174927D01*
X138673846Y-126228427D01*
X138674240Y-126229932D01*
X138682659Y-126264536D01*
X138683126Y-126265541D01*
X138683507Y-126265363D01*
X138684880Y-126270609D01*
X138685692Y-126272282D01*
X138685694Y-126272287D01*
X138698265Y-126298168D01*
X138699175Y-126300081D01*
X138712105Y-126327904D01*
X138734955Y-126367405D01*
X138736989Y-126369340D01*
X138738880Y-126372484D01*
X138781519Y-126411714D01*
X138807174Y-126436127D01*
X138807178Y-126436129D01*
X138808980Y-126437536D01*
X138809040Y-126437586D01*
X138809354Y-126437827D01*
X138810195Y-126438483D01*
X138810909Y-126438977D01*
X138812245Y-126439984D01*
X138838417Y-126455937D01*
X138840225Y-126457060D01*
X138866127Y-126473466D01*
X138932517Y-126503249D01*
X138932838Y-126503341D01*
X138933508Y-126503533D01*
X138933541Y-126503542D01*
X138933544Y-126503543D01*
X138937733Y-126504704D01*
X138937765Y-126504712D01*
X138937781Y-126504717D01*
X139027238Y-126528688D01*
X139043576Y-126534312D01*
X139049039Y-126536630D01*
X139056404Y-126538739D01*
X139063678Y-126540823D01*
X139063679Y-126540823D01*
X139063688Y-126540826D01*
X139098523Y-126548223D01*
X139098529Y-126548223D01*
X139098535Y-126548225D01*
X139115597Y-126550620D01*
X139132672Y-126553018D01*
X139168199Y-126555500D01*
X139168208Y-126555500D01*
X139431795Y-126555500D01*
X139431801Y-126555500D01*
X139497967Y-126546784D01*
X139501867Y-126545738D01*
X139503251Y-126545377D01*
X139553326Y-126532637D01*
X139553641Y-126533810D01*
X139646154Y-126509021D01*
X139646914Y-126508828D01*
X139648084Y-126508870D01*
X139677487Y-126505000D01*
X139722511Y-126505000D01*
X139754604Y-126509224D01*
X139846357Y-126533810D01*
X139846357Y-126533809D01*
X139880926Y-126543072D01*
X139898296Y-126545781D01*
X139902034Y-126546784D01*
X139968199Y-126555500D01*
X140649456Y-126555500D01*
X140716495Y-126575185D01*
X140762250Y-126627989D01*
X140772194Y-126697147D01*
X140743169Y-126760703D01*
X140737137Y-126767181D01*
X140441137Y-127063181D01*
X140379814Y-127096666D01*
X140353456Y-127099500D01*
X135846544Y-127099500D01*
X135779505Y-127079815D01*
X135758863Y-127063181D01*
X135386819Y-126691137D01*
X135353334Y-126629814D01*
X135350500Y-126603456D01*
X135350500Y-101453858D01*
X135350500Y-101453856D01*
X135326614Y-101364712D01*
X135321848Y-101356457D01*
X135321848Y-101356456D01*
X135280474Y-101284794D01*
X135280468Y-101284786D01*
X134586819Y-100591137D01*
X134553334Y-100529814D01*
X134550500Y-100503456D01*
X134550500Y-98390432D01*
X134570185Y-98323393D01*
X134622989Y-98277638D01*
X134692147Y-98267694D01*
X134755703Y-98296719D01*
X134762181Y-98302751D01*
X136863181Y-100403751D01*
X136896666Y-100465074D01*
X136899500Y-100491432D01*
X136899500Y-102521614D01*
X136879815Y-102588653D01*
X136827011Y-102634408D01*
X136757853Y-102644352D01*
X136694297Y-102615327D01*
X136687819Y-102609295D01*
X136638017Y-102559493D01*
X136638011Y-102559488D01*
X136512488Y-102487017D01*
X136512489Y-102487017D01*
X136493694Y-102481981D01*
X136372475Y-102449500D01*
X136227525Y-102449500D01*
X136106306Y-102481981D01*
X136087511Y-102487017D01*
X135961988Y-102559488D01*
X135961982Y-102559493D01*
X135859493Y-102661982D01*
X135859488Y-102661988D01*
X135787017Y-102787511D01*
X135787016Y-102787515D01*
X135749500Y-102927525D01*
X135749500Y-103072475D01*
X135787016Y-103212485D01*
X135787017Y-103212488D01*
X135859488Y-103338011D01*
X135859493Y-103338017D01*
X135913181Y-103391705D01*
X135925075Y-103413487D01*
X135940478Y-103432952D01*
X135943115Y-103446525D01*
X135946666Y-103453028D01*
X135948902Y-103467226D01*
X135949500Y-103473294D01*
X135949500Y-103546144D01*
X135958224Y-103578701D01*
X135960853Y-103588515D01*
X135960854Y-103588519D01*
X135973384Y-103635285D01*
X135973385Y-103635286D01*
X136019527Y-103715208D01*
X136019529Y-103715211D01*
X136019530Y-103715212D01*
X136475976Y-104171658D01*
X136913181Y-104608862D01*
X136946666Y-104670185D01*
X136949500Y-104696543D01*
X136949500Y-104772475D01*
X136987016Y-104912485D01*
X136987017Y-104912488D01*
X137059488Y-105038011D01*
X137059490Y-105038013D01*
X137059491Y-105038015D01*
X137161985Y-105140509D01*
X137161986Y-105140510D01*
X137161988Y-105140511D01*
X137287511Y-105212982D01*
X137287512Y-105212982D01*
X137287515Y-105212984D01*
X137427525Y-105250500D01*
X137427528Y-105250500D01*
X137572472Y-105250500D01*
X137572475Y-105250500D01*
X137712485Y-105212984D01*
X137838015Y-105140509D01*
X137940509Y-105038015D01*
X138012984Y-104912485D01*
X138050500Y-104772475D01*
X138050500Y-104627525D01*
X138012984Y-104487515D01*
X138012696Y-104487017D01*
X137940511Y-104361988D01*
X137940506Y-104361982D01*
X137903034Y-104324510D01*
X137869549Y-104263187D01*
X137874533Y-104193495D01*
X137916405Y-104137562D01*
X137943261Y-104122269D01*
X137960608Y-104115084D01*
X138083529Y-104032951D01*
X138188064Y-103928416D01*
X138270197Y-103805495D01*
X138271074Y-103803379D01*
X138307595Y-103715208D01*
X138326771Y-103668913D01*
X138349368Y-103555315D01*
X138355613Y-103523920D01*
X138355613Y-103376079D01*
X138326772Y-103231092D01*
X138326771Y-103231091D01*
X138326771Y-103231087D01*
X138305740Y-103180313D01*
X138270200Y-103094511D01*
X138270193Y-103094498D01*
X138188064Y-102971584D01*
X138188061Y-102971580D01*
X138083532Y-102867051D01*
X138083528Y-102867048D01*
X137960614Y-102784919D01*
X137960601Y-102784912D01*
X137824030Y-102728343D01*
X137824021Y-102728340D01*
X137700307Y-102703731D01*
X137638397Y-102671345D01*
X137603823Y-102610629D01*
X137600500Y-102582114D01*
X137600500Y-100248746D01*
X137600500Y-100248744D01*
X137576614Y-100159600D01*
X137557875Y-100127143D01*
X137530470Y-100079676D01*
X135052158Y-97601364D01*
X135018673Y-97540041D01*
X135015839Y-97513683D01*
X135015839Y-97419197D01*
X135015839Y-97419195D01*
X134991953Y-97330051D01*
X134989969Y-97326614D01*
X134945809Y-97250127D01*
X134887554Y-97191872D01*
X134854069Y-97130549D01*
X134851235Y-97104191D01*
X134851235Y-97028262D01*
X134851235Y-97028260D01*
X134813719Y-96888250D01*
X134811720Y-96884788D01*
X134741246Y-96762723D01*
X134741241Y-96762717D01*
X134638752Y-96660228D01*
X134638746Y-96660223D01*
X134513223Y-96587752D01*
X134513224Y-96587752D01*
X134501741Y-96584675D01*
X134373210Y-96550235D01*
X134228260Y-96550235D01*
X134206327Y-96556111D01*
X134181333Y-96555516D01*
X134156588Y-96559075D01*
X134147007Y-96554699D01*
X134136478Y-96554449D01*
X134115774Y-96540436D01*
X134093032Y-96530050D01*
X134087337Y-96521188D01*
X134078616Y-96515286D01*
X134068774Y-96492305D01*
X134055258Y-96471272D01*
X134052978Y-96455416D01*
X134051112Y-96451058D01*
X134050235Y-96436337D01*
X134050235Y-96196809D01*
X134069920Y-96129770D01*
X134086554Y-96109128D01*
X134275621Y-95920061D01*
X134480470Y-95715212D01*
X134526614Y-95635288D01*
X134526615Y-95635285D01*
X134539219Y-95588246D01*
X134539219Y-95588245D01*
X134542229Y-95577011D01*
X134550500Y-95546144D01*
X134550500Y-94564665D01*
X134570185Y-94497626D01*
X134622989Y-94451871D01*
X134683930Y-94441024D01*
X134695435Y-94441901D01*
X134727525Y-94450500D01*
X134808179Y-94450500D01*
X134812886Y-94450859D01*
X134841325Y-94461619D01*
X134870495Y-94470185D01*
X134876277Y-94474844D01*
X134878234Y-94475585D01*
X134879773Y-94477661D01*
X134891137Y-94486819D01*
X137415189Y-97010870D01*
X137415210Y-97010893D01*
X137613181Y-97208863D01*
X137627884Y-97235790D01*
X137644477Y-97261609D01*
X137645368Y-97267809D01*
X137646666Y-97270186D01*
X137649500Y-97296544D01*
X137649500Y-97420614D01*
X137629815Y-97487653D01*
X137613181Y-97508295D01*
X137559493Y-97561982D01*
X137559488Y-97561988D01*
X137487017Y-97687511D01*
X137487016Y-97687515D01*
X137449500Y-97827525D01*
X137449500Y-97972475D01*
X137472817Y-98059493D01*
X137487017Y-98112488D01*
X137559488Y-98238011D01*
X137559490Y-98238013D01*
X137559491Y-98238015D01*
X137661985Y-98340509D01*
X137661986Y-98340510D01*
X137661988Y-98340511D01*
X137787511Y-98412982D01*
X137787512Y-98412982D01*
X137787515Y-98412984D01*
X137927525Y-98450500D01*
X137927528Y-98450500D01*
X138072472Y-98450500D01*
X138072475Y-98450500D01*
X138212485Y-98412984D01*
X138338015Y-98340509D01*
X138440509Y-98238015D01*
X138512984Y-98112485D01*
X138550500Y-97972475D01*
X138550500Y-97827525D01*
X138512984Y-97687515D01*
X138495760Y-97657683D01*
X138440511Y-97561988D01*
X138440506Y-97561982D01*
X138386819Y-97508295D01*
X138353334Y-97446972D01*
X138350500Y-97420614D01*
X138350500Y-97053858D01*
X138350500Y-97053856D01*
X138326614Y-96964712D01*
X138315896Y-96946148D01*
X138280470Y-96884788D01*
X138118171Y-96722489D01*
X137910893Y-96515210D01*
X137910870Y-96515189D01*
X135386819Y-93991137D01*
X135374289Y-93968191D01*
X135358524Y-93947336D01*
X135356319Y-93935282D01*
X135353334Y-93929814D01*
X135350859Y-93912885D01*
X135350500Y-93908177D01*
X135350500Y-93827525D01*
X135341902Y-93795440D01*
X135341025Y-93783929D01*
X135345986Y-93760594D01*
X135346554Y-93736743D01*
X135353119Y-93727042D01*
X135355555Y-93715587D01*
X135372344Y-93698638D01*
X135385717Y-93678881D01*
X135396483Y-93674270D01*
X135404727Y-93665949D01*
X135428014Y-93660768D01*
X135449945Y-93651377D01*
X135464666Y-93650500D01*
X135472472Y-93650500D01*
X135472475Y-93650500D01*
X135612485Y-93612984D01*
X135738015Y-93540509D01*
X135791705Y-93486819D01*
X135853028Y-93453334D01*
X135879386Y-93450500D01*
X137503456Y-93450500D01*
X137570495Y-93470185D01*
G37*
%TD.AperFunction*%
%TA.AperFunction,Conductor*%
G36*
X144971495Y-119019185D02*
G01*
X144992137Y-119035819D01*
X146744637Y-120788319D01*
X146778122Y-120849642D01*
X146773138Y-120919334D01*
X146731266Y-120975267D01*
X146665802Y-120999684D01*
X146656956Y-121000000D01*
X144802155Y-121000000D01*
X144742627Y-121006401D01*
X144742620Y-121006403D01*
X144607913Y-121056645D01*
X144607911Y-121056646D01*
X144552029Y-121098477D01*
X146276776Y-122823224D01*
X147849999Y-124396448D01*
X147850000Y-124396447D01*
X147850000Y-122193044D01*
X147869685Y-122126005D01*
X147922489Y-122080250D01*
X147991647Y-122070306D01*
X148055203Y-122099331D01*
X148061681Y-122105363D01*
X148236788Y-122280470D01*
X148306085Y-122320478D01*
X148306087Y-122320480D01*
X148313342Y-122324668D01*
X148316712Y-122326614D01*
X148405856Y-122350500D01*
X148405857Y-122350500D01*
X148498144Y-122350500D01*
X149520614Y-122350500D01*
X149587653Y-122370185D01*
X149608295Y-122386819D01*
X149661985Y-122440509D01*
X149661986Y-122440510D01*
X149661988Y-122440511D01*
X149787511Y-122512982D01*
X149787512Y-122512982D01*
X149787515Y-122512984D01*
X149927525Y-122550500D01*
X149927528Y-122550500D01*
X150072472Y-122550500D01*
X150072475Y-122550500D01*
X150212485Y-122512984D01*
X150338015Y-122440509D01*
X150440509Y-122338015D01*
X150512984Y-122212485D01*
X150550500Y-122072475D01*
X150550500Y-121927525D01*
X150512984Y-121787515D01*
X150512982Y-121787511D01*
X150483531Y-121736500D01*
X150467058Y-121668600D01*
X150489911Y-121602573D01*
X150544832Y-121559382D01*
X150590918Y-121550500D01*
X150924676Y-121550500D01*
X150924677Y-121550499D01*
X150997735Y-121535967D01*
X150997737Y-121535967D01*
X150997737Y-121535966D01*
X150997740Y-121535966D01*
X151031112Y-121513667D01*
X151097786Y-121492791D01*
X151165166Y-121511275D01*
X151168829Y-121513628D01*
X151202260Y-121535966D01*
X151202262Y-121535966D01*
X151202263Y-121535967D01*
X151275321Y-121550499D01*
X151275324Y-121550500D01*
X151275326Y-121550500D01*
X151924676Y-121550500D01*
X151924677Y-121550499D01*
X151997735Y-121535967D01*
X151997737Y-121535967D01*
X151997737Y-121535966D01*
X151997740Y-121535966D01*
X152031112Y-121513667D01*
X152097786Y-121492791D01*
X152165166Y-121511275D01*
X152168829Y-121513628D01*
X152202260Y-121535966D01*
X152202262Y-121535966D01*
X152202263Y-121535967D01*
X152275321Y-121550499D01*
X152275324Y-121550500D01*
X152275326Y-121550500D01*
X152924676Y-121550500D01*
X152924677Y-121550499D01*
X152997735Y-121535967D01*
X152997737Y-121535967D01*
X152997737Y-121535966D01*
X152997740Y-121535966D01*
X153031112Y-121513667D01*
X153097786Y-121492791D01*
X153165166Y-121511275D01*
X153168829Y-121513628D01*
X153202260Y-121535966D01*
X153202262Y-121535966D01*
X153202263Y-121535967D01*
X153275321Y-121550499D01*
X153275324Y-121550500D01*
X153275326Y-121550500D01*
X153924676Y-121550500D01*
X153924677Y-121550499D01*
X153997735Y-121535967D01*
X153997737Y-121535967D01*
X153997737Y-121535966D01*
X153997740Y-121535966D01*
X154031112Y-121513667D01*
X154097786Y-121492791D01*
X154165166Y-121511275D01*
X154168829Y-121513628D01*
X154202260Y-121535966D01*
X154202262Y-121535966D01*
X154202263Y-121535967D01*
X154275321Y-121550499D01*
X154275324Y-121550500D01*
X154275326Y-121550500D01*
X154924676Y-121550500D01*
X154924677Y-121550499D01*
X154997735Y-121535967D01*
X154997737Y-121535967D01*
X154997737Y-121535966D01*
X154997740Y-121535966D01*
X155031112Y-121513667D01*
X155097786Y-121492791D01*
X155165166Y-121511275D01*
X155168829Y-121513628D01*
X155202260Y-121535966D01*
X155202262Y-121535966D01*
X155202263Y-121535967D01*
X155275321Y-121550499D01*
X155275324Y-121550500D01*
X155275326Y-121550500D01*
X155924676Y-121550500D01*
X155924677Y-121550499D01*
X155997735Y-121535967D01*
X155997737Y-121535967D01*
X155997737Y-121535966D01*
X155997740Y-121535966D01*
X156031112Y-121513667D01*
X156097786Y-121492791D01*
X156165166Y-121511275D01*
X156168829Y-121513628D01*
X156202260Y-121535966D01*
X156202262Y-121535966D01*
X156202263Y-121535967D01*
X156275321Y-121550499D01*
X156275324Y-121550500D01*
X156275326Y-121550500D01*
X156924676Y-121550500D01*
X156924677Y-121550499D01*
X156997735Y-121535967D01*
X156997737Y-121535967D01*
X156997737Y-121535966D01*
X156997740Y-121535966D01*
X157031112Y-121513667D01*
X157097786Y-121492791D01*
X157165166Y-121511275D01*
X157168829Y-121513628D01*
X157202260Y-121535966D01*
X157202262Y-121535966D01*
X157202263Y-121535967D01*
X157275321Y-121550499D01*
X157275324Y-121550500D01*
X157275326Y-121550500D01*
X157924676Y-121550500D01*
X157924677Y-121550499D01*
X157997735Y-121535967D01*
X157997737Y-121535967D01*
X157997737Y-121535966D01*
X157997740Y-121535966D01*
X158031112Y-121513667D01*
X158097786Y-121492791D01*
X158165166Y-121511275D01*
X158168829Y-121513628D01*
X158202260Y-121535966D01*
X158202262Y-121535966D01*
X158202263Y-121535967D01*
X158275321Y-121550499D01*
X158275324Y-121550500D01*
X158275326Y-121550500D01*
X158924676Y-121550500D01*
X158924677Y-121550499D01*
X158997735Y-121535967D01*
X158997737Y-121535967D01*
X158997737Y-121535966D01*
X158997740Y-121535966D01*
X159031112Y-121513667D01*
X159097786Y-121492791D01*
X159165166Y-121511275D01*
X159168829Y-121513628D01*
X159202260Y-121535966D01*
X159202262Y-121535966D01*
X159202263Y-121535967D01*
X159275321Y-121550499D01*
X159275324Y-121550500D01*
X159275326Y-121550500D01*
X159924676Y-121550500D01*
X159924677Y-121550499D01*
X159997735Y-121535967D01*
X159997737Y-121535967D01*
X159997737Y-121535966D01*
X159997740Y-121535966D01*
X160031112Y-121513667D01*
X160097786Y-121492791D01*
X160165166Y-121511275D01*
X160168829Y-121513628D01*
X160202260Y-121535966D01*
X160202262Y-121535966D01*
X160202263Y-121535967D01*
X160275321Y-121550499D01*
X160275324Y-121550500D01*
X160275326Y-121550500D01*
X160924676Y-121550500D01*
X160924677Y-121550499D01*
X160997735Y-121535967D01*
X160997737Y-121535967D01*
X160997737Y-121535966D01*
X160997740Y-121535966D01*
X161031112Y-121513667D01*
X161097786Y-121492791D01*
X161165166Y-121511275D01*
X161168829Y-121513628D01*
X161202260Y-121535966D01*
X161202262Y-121535966D01*
X161202263Y-121535967D01*
X161275321Y-121550499D01*
X161275324Y-121550500D01*
X161275326Y-121550500D01*
X161924676Y-121550500D01*
X161924677Y-121550499D01*
X161997735Y-121535967D01*
X161997737Y-121535967D01*
X161997737Y-121535966D01*
X161997740Y-121535966D01*
X162031112Y-121513667D01*
X162097786Y-121492791D01*
X162165166Y-121511275D01*
X162168829Y-121513628D01*
X162202260Y-121535966D01*
X162202262Y-121535966D01*
X162202263Y-121535967D01*
X162275321Y-121550499D01*
X162275324Y-121550500D01*
X162275326Y-121550500D01*
X162924676Y-121550500D01*
X162924677Y-121550499D01*
X162997735Y-121535967D01*
X162997737Y-121535967D01*
X162997737Y-121535966D01*
X162997740Y-121535966D01*
X163031112Y-121513667D01*
X163097786Y-121492791D01*
X163165166Y-121511275D01*
X163168829Y-121513628D01*
X163202260Y-121535966D01*
X163202262Y-121535966D01*
X163202263Y-121535967D01*
X163275321Y-121550499D01*
X163275324Y-121550500D01*
X163275326Y-121550500D01*
X163726500Y-121550500D01*
X163793539Y-121570185D01*
X163839294Y-121622989D01*
X163850500Y-121674500D01*
X163850500Y-122319614D01*
X163830815Y-122386653D01*
X163814181Y-122407295D01*
X163760493Y-122460982D01*
X163760488Y-122460988D01*
X163688017Y-122586511D01*
X163688016Y-122586515D01*
X163650500Y-122726525D01*
X163650500Y-122726527D01*
X163650500Y-122802456D01*
X163630815Y-122869495D01*
X163614181Y-122890137D01*
X160891137Y-125613181D01*
X160829814Y-125646666D01*
X160803456Y-125649500D01*
X145944544Y-125649500D01*
X145877505Y-125629815D01*
X145856863Y-125613181D01*
X145455363Y-125211681D01*
X145421878Y-125150358D01*
X145426862Y-125080666D01*
X145468734Y-125024733D01*
X145534198Y-125000316D01*
X145543044Y-125000000D01*
X147397828Y-125000000D01*
X147397844Y-124999999D01*
X147457372Y-124993598D01*
X147457376Y-124993597D01*
X147592091Y-124943351D01*
X147647969Y-124901520D01*
X145923224Y-123176776D01*
X144350000Y-121603551D01*
X144350000Y-123806956D01*
X144330315Y-123873995D01*
X144277511Y-123919750D01*
X144208353Y-123929694D01*
X144144797Y-123900669D01*
X144138319Y-123894637D01*
X143664138Y-123420456D01*
X143630653Y-123359133D01*
X143627819Y-123332775D01*
X143627819Y-119924500D01*
X143647504Y-119857461D01*
X143700308Y-119811706D01*
X143751819Y-119800500D01*
X143822472Y-119800500D01*
X143822475Y-119800500D01*
X143962485Y-119762984D01*
X144088015Y-119690509D01*
X144190509Y-119588015D01*
X144262984Y-119462485D01*
X144300500Y-119322475D01*
X144300500Y-119177525D01*
X144294623Y-119155592D01*
X144296286Y-119085743D01*
X144335449Y-119027881D01*
X144399677Y-119000377D01*
X144414398Y-118999500D01*
X144904456Y-118999500D01*
X144971495Y-119019185D01*
G37*
%TD.AperFunction*%
%TA.AperFunction,Conductor*%
G36*
X166693039Y-103094685D02*
G01*
X166738794Y-103147489D01*
X166750000Y-103199000D01*
X166750000Y-103325000D01*
X166876000Y-103325000D01*
X166943039Y-103344685D01*
X166988794Y-103397489D01*
X167000000Y-103449000D01*
X167000000Y-104224999D01*
X167081581Y-104224999D01*
X167152102Y-104218591D01*
X167152107Y-104218590D01*
X167314396Y-104168018D01*
X167459877Y-104080072D01*
X167459878Y-104080071D01*
X167487819Y-104052131D01*
X167549142Y-104018646D01*
X167618834Y-104023630D01*
X167674767Y-104065502D01*
X167699184Y-104130966D01*
X167699500Y-104139812D01*
X167699500Y-120918115D01*
X167679815Y-120985154D01*
X167627011Y-121030909D01*
X167557853Y-121040853D01*
X167532167Y-121034297D01*
X167457379Y-121006403D01*
X167457372Y-121006401D01*
X167397844Y-121000000D01*
X164802155Y-121000000D01*
X164742627Y-121006401D01*
X164742616Y-121006403D01*
X164718832Y-121015275D01*
X164649141Y-121020259D01*
X164587818Y-120986773D01*
X164554333Y-120925450D01*
X164551500Y-120899093D01*
X164551500Y-119152858D01*
X164551500Y-119152856D01*
X164527614Y-119063712D01*
X164527613Y-119063711D01*
X164527613Y-119063709D01*
X164515128Y-119042086D01*
X164512489Y-119037515D01*
X164481470Y-118983788D01*
X161947668Y-116449986D01*
X163650001Y-116449986D01*
X163660494Y-116552697D01*
X163715641Y-116719119D01*
X163715643Y-116719124D01*
X163807684Y-116868345D01*
X163931654Y-116992315D01*
X164080875Y-117084356D01*
X164080880Y-117084358D01*
X164247302Y-117139505D01*
X164247309Y-117139506D01*
X164350019Y-117149999D01*
X164849999Y-117149999D01*
X165350000Y-117149999D01*
X165849972Y-117149999D01*
X165849986Y-117149998D01*
X165952697Y-117139505D01*
X166119119Y-117084358D01*
X166119124Y-117084356D01*
X166268345Y-116992315D01*
X166392315Y-116868345D01*
X166484356Y-116719124D01*
X166484358Y-116719119D01*
X166539505Y-116552697D01*
X166539506Y-116552690D01*
X166549999Y-116449986D01*
X166550000Y-116449973D01*
X166550000Y-116350000D01*
X165350000Y-116350000D01*
X165350000Y-117149999D01*
X164849999Y-117149999D01*
X164850000Y-117149998D01*
X164850000Y-116350000D01*
X163650001Y-116350000D01*
X163650001Y-116449986D01*
X161947668Y-116449986D01*
X161786819Y-116289137D01*
X161753334Y-116227814D01*
X161750500Y-116201456D01*
X161750500Y-115750013D01*
X163650000Y-115750013D01*
X163650000Y-115850000D01*
X164850000Y-115850000D01*
X165350000Y-115850000D01*
X166549999Y-115850000D01*
X166549999Y-115750028D01*
X166549998Y-115750013D01*
X166539505Y-115647302D01*
X166484358Y-115480880D01*
X166484356Y-115480875D01*
X166392315Y-115331654D01*
X166268345Y-115207684D01*
X166119124Y-115115643D01*
X166119119Y-115115641D01*
X165952697Y-115060494D01*
X165952690Y-115060493D01*
X165849986Y-115050000D01*
X165350000Y-115050000D01*
X165350000Y-115850000D01*
X164850000Y-115850000D01*
X164850000Y-115050000D01*
X164350028Y-115050000D01*
X164350012Y-115050001D01*
X164247302Y-115060494D01*
X164080880Y-115115641D01*
X164080875Y-115115643D01*
X163931654Y-115207684D01*
X163807684Y-115331654D01*
X163715643Y-115480875D01*
X163715641Y-115480880D01*
X163660494Y-115647302D01*
X163660493Y-115647309D01*
X163650000Y-115750013D01*
X161750500Y-115750013D01*
X161750500Y-114874500D01*
X161770185Y-114807461D01*
X161822989Y-114761706D01*
X161874500Y-114750500D01*
X162608493Y-114750500D01*
X162708121Y-114734720D01*
X162708121Y-114734719D01*
X162708126Y-114734719D01*
X162828220Y-114673528D01*
X162923528Y-114578220D01*
X162984719Y-114458126D01*
X162987508Y-114440516D01*
X163000500Y-114358493D01*
X163000500Y-113941506D01*
X162984720Y-113841878D01*
X162984719Y-113841876D01*
X162984719Y-113841874D01*
X162923528Y-113721780D01*
X162923526Y-113721778D01*
X162923523Y-113721774D01*
X162828225Y-113626476D01*
X162828221Y-113626473D01*
X162828220Y-113626472D01*
X162708126Y-113565281D01*
X162708124Y-113565280D01*
X162708121Y-113565279D01*
X162608493Y-113549500D01*
X162608488Y-113549500D01*
X160191512Y-113549500D01*
X160191507Y-113549500D01*
X160091878Y-113565279D01*
X159971778Y-113626473D01*
X159971774Y-113626476D01*
X159876476Y-113721774D01*
X159876473Y-113721778D01*
X159815279Y-113841878D01*
X159799500Y-113941506D01*
X159799500Y-114358493D01*
X159815279Y-114458121D01*
X159815280Y-114458124D01*
X159815281Y-114458126D01*
X159876472Y-114578220D01*
X159876473Y-114578221D01*
X159876476Y-114578225D01*
X159971774Y-114673523D01*
X159971778Y-114673526D01*
X159971780Y-114673528D01*
X160091874Y-114734719D01*
X160091876Y-114734719D01*
X160091878Y-114734720D01*
X160191507Y-114750500D01*
X160191512Y-114750500D01*
X160925500Y-114750500D01*
X160992539Y-114770185D01*
X161038294Y-114822989D01*
X161049500Y-114874500D01*
X161049500Y-116444144D01*
X161053669Y-116459701D01*
X161064899Y-116501613D01*
X161073386Y-116533289D01*
X161073387Y-116533290D01*
X161119527Y-116613208D01*
X161119531Y-116613213D01*
X163544137Y-119037819D01*
X163577622Y-119099142D01*
X163572638Y-119168834D01*
X163530766Y-119224767D01*
X163465302Y-119249184D01*
X163456456Y-119249500D01*
X163275323Y-119249500D01*
X163202264Y-119264032D01*
X163202260Y-119264033D01*
X163168890Y-119286331D01*
X163149811Y-119292304D01*
X163132804Y-119302810D01*
X163117151Y-119302530D01*
X163102212Y-119307208D01*
X163082933Y-119301919D01*
X163062946Y-119301562D01*
X163037831Y-119289545D01*
X163034832Y-119288723D01*
X163031108Y-119286329D01*
X163005608Y-119269290D01*
X162960804Y-119215678D01*
X162950500Y-119166189D01*
X162950500Y-119053858D01*
X162950500Y-119053856D01*
X162926614Y-118964712D01*
X162903542Y-118924750D01*
X162880472Y-118884791D01*
X162880468Y-118884786D01*
X162031663Y-118035981D01*
X162031658Y-118035977D01*
X161951740Y-117989837D01*
X161951739Y-117989836D01*
X161951738Y-117989836D01*
X161862594Y-117965950D01*
X161862593Y-117965950D01*
X161080093Y-117965950D01*
X161013054Y-117946265D01*
X160992412Y-117929631D01*
X157920369Y-114857587D01*
X157886884Y-114796264D01*
X157884050Y-114769906D01*
X157884050Y-106623154D01*
X157903735Y-106556115D01*
X157956539Y-106510360D01*
X158025697Y-106500416D01*
X158055501Y-106508592D01*
X158057719Y-106509510D01*
X158057726Y-106509514D01*
X158146870Y-106533400D01*
X159787539Y-106533400D01*
X159854578Y-106553085D01*
X159875220Y-106569719D01*
X160534788Y-107229287D01*
X160614712Y-107275431D01*
X160703856Y-107299317D01*
X161146165Y-107299317D01*
X161175605Y-107307961D01*
X161205592Y-107314485D01*
X161210607Y-107318239D01*
X161213204Y-107319002D01*
X161233846Y-107335636D01*
X161236029Y-107337819D01*
X161269514Y-107399142D01*
X161264530Y-107468834D01*
X161222658Y-107524767D01*
X161157194Y-107549184D01*
X161148348Y-107549500D01*
X160191507Y-107549500D01*
X160091878Y-107565279D01*
X159971778Y-107626473D01*
X159971774Y-107626476D01*
X159876476Y-107721774D01*
X159876473Y-107721778D01*
X159815279Y-107841878D01*
X159799500Y-107941506D01*
X159799500Y-108358493D01*
X159815279Y-108458121D01*
X159815280Y-108458124D01*
X159815281Y-108458126D01*
X159876472Y-108578220D01*
X159876473Y-108578221D01*
X159876476Y-108578225D01*
X159971774Y-108673523D01*
X159971778Y-108673526D01*
X159971780Y-108673528D01*
X160091874Y-108734719D01*
X160091876Y-108734719D01*
X160091878Y-108734720D01*
X160191507Y-108750500D01*
X160191512Y-108750500D01*
X162608493Y-108750500D01*
X162708121Y-108734720D01*
X162708121Y-108734719D01*
X162708126Y-108734719D01*
X162719207Y-108729072D01*
X162721910Y-108728564D01*
X162723989Y-108726764D01*
X162756038Y-108722155D01*
X162787874Y-108716177D01*
X162790423Y-108717211D01*
X162793147Y-108716820D01*
X162822610Y-108730275D01*
X162852614Y-108742453D01*
X162854199Y-108744701D01*
X162856703Y-108745845D01*
X162874212Y-108773089D01*
X162892872Y-108799559D01*
X162893445Y-108803017D01*
X162894477Y-108804623D01*
X162899500Y-108839558D01*
X162899500Y-108953454D01*
X162879815Y-109020493D01*
X162863181Y-109041135D01*
X162858552Y-109045764D01*
X162837187Y-109057429D01*
X162827011Y-109066248D01*
X162818903Y-109067413D01*
X162797229Y-109079249D01*
X162727537Y-109074265D01*
X162714586Y-109068572D01*
X162708126Y-109065281D01*
X162708124Y-109065280D01*
X162708123Y-109065280D01*
X162708121Y-109065279D01*
X162608493Y-109049500D01*
X162608488Y-109049500D01*
X160191512Y-109049500D01*
X160191507Y-109049500D01*
X160091878Y-109065279D01*
X159971778Y-109126473D01*
X159971774Y-109126476D01*
X159876476Y-109221774D01*
X159876473Y-109221778D01*
X159815279Y-109341878D01*
X159799500Y-109441506D01*
X159799500Y-109858493D01*
X159815279Y-109958121D01*
X159815280Y-109958124D01*
X159815281Y-109958126D01*
X159819075Y-109965572D01*
X159876473Y-110078221D01*
X159876476Y-110078225D01*
X159963192Y-110164941D01*
X159996677Y-110226264D01*
X159991693Y-110295956D01*
X159949821Y-110351889D01*
X159939661Y-110358739D01*
X159805658Y-110439746D01*
X159689747Y-110555657D01*
X159689743Y-110555662D01*
X159604947Y-110695934D01*
X159556178Y-110852441D01*
X159551857Y-110899999D01*
X159551857Y-110900000D01*
X161276000Y-110900000D01*
X161343039Y-110919685D01*
X161388794Y-110972489D01*
X161400000Y-111024000D01*
X161400000Y-111276000D01*
X161380315Y-111343039D01*
X161327511Y-111388794D01*
X161276000Y-111400000D01*
X159551857Y-111400000D01*
X159556178Y-111447558D01*
X159604947Y-111604065D01*
X159689743Y-111744337D01*
X159689747Y-111744342D01*
X159805658Y-111860253D01*
X159939661Y-111941260D01*
X159986848Y-111992787D01*
X159998687Y-112061647D01*
X159971419Y-112125976D01*
X159963193Y-112135058D01*
X159876473Y-112221778D01*
X159815279Y-112341878D01*
X159799500Y-112441506D01*
X159799500Y-112858493D01*
X159815279Y-112958121D01*
X159815280Y-112958124D01*
X159815281Y-112958126D01*
X159876472Y-113078220D01*
X159876473Y-113078221D01*
X159876476Y-113078225D01*
X159971774Y-113173523D01*
X159971778Y-113173526D01*
X159971780Y-113173528D01*
X160091874Y-113234719D01*
X160091876Y-113234719D01*
X160091878Y-113234720D01*
X160191507Y-113250500D01*
X160191512Y-113250500D01*
X162608493Y-113250500D01*
X162708121Y-113234720D01*
X162708121Y-113234719D01*
X162708126Y-113234719D01*
X162828220Y-113173528D01*
X162923528Y-113078220D01*
X162984719Y-112958126D01*
X162987291Y-112941881D01*
X163017219Y-112878747D01*
X163022066Y-112873614D01*
X163931469Y-111964212D01*
X163977614Y-111884288D01*
X163979283Y-111878060D01*
X164001500Y-111795144D01*
X164001500Y-107329774D01*
X164021185Y-107262735D01*
X164073989Y-107216980D01*
X164143147Y-107207036D01*
X164164504Y-107212068D01*
X164247302Y-107239505D01*
X164247309Y-107239506D01*
X164350019Y-107249999D01*
X164849999Y-107249999D01*
X164850000Y-107249998D01*
X164850000Y-105150000D01*
X164350028Y-105150000D01*
X164350012Y-105150001D01*
X164247302Y-105160494D01*
X164080880Y-105215641D01*
X164080875Y-105215643D01*
X163931657Y-105307682D01*
X163830191Y-105409148D01*
X163768868Y-105442632D01*
X163699176Y-105437648D01*
X163654829Y-105409147D01*
X162805340Y-104559658D01*
X162771855Y-104498335D01*
X162776839Y-104428643D01*
X162818711Y-104372710D01*
X162884175Y-104348293D01*
X162925115Y-104352202D01*
X162926644Y-104352611D01*
X162926648Y-104352614D01*
X163015792Y-104376500D01*
X164527456Y-104376500D01*
X164594495Y-104396185D01*
X164615137Y-104412819D01*
X165313681Y-105111363D01*
X165347166Y-105172686D01*
X165350000Y-105199044D01*
X165350000Y-107249999D01*
X165849972Y-107249999D01*
X165849986Y-107249998D01*
X165952697Y-107239505D01*
X166119119Y-107184358D01*
X166119124Y-107184356D01*
X166268345Y-107092315D01*
X166392315Y-106968345D01*
X166484356Y-106819124D01*
X166484358Y-106819119D01*
X166539505Y-106652697D01*
X166539506Y-106652689D01*
X166548783Y-106561897D01*
X166575180Y-106497205D01*
X166632361Y-106457054D01*
X166662484Y-106452090D01*
X166662415Y-106451561D01*
X166670471Y-106450500D01*
X166670475Y-106450500D01*
X166810485Y-106412984D01*
X166936015Y-106340509D01*
X167038509Y-106238015D01*
X167110984Y-106112485D01*
X167148500Y-105972475D01*
X167148500Y-105827525D01*
X167110984Y-105687515D01*
X167074891Y-105625001D01*
X167038511Y-105561988D01*
X167038506Y-105561982D01*
X166936017Y-105459493D01*
X166936011Y-105459488D01*
X166810488Y-105387017D01*
X166810489Y-105387017D01*
X166799006Y-105383940D01*
X166670475Y-105349500D01*
X166670472Y-105349500D01*
X166594544Y-105349500D01*
X166527505Y-105329815D01*
X166506863Y-105313181D01*
X165590536Y-104396854D01*
X165557051Y-104335531D01*
X165562035Y-104265839D01*
X165603907Y-104209906D01*
X165641327Y-104190787D01*
X165714399Y-104168017D01*
X165859873Y-104080074D01*
X165862313Y-104077635D01*
X165864544Y-104076416D01*
X165865783Y-104075446D01*
X165865944Y-104075651D01*
X165923634Y-104044146D01*
X165993326Y-104049126D01*
X166037687Y-104077635D01*
X166040126Y-104080074D01*
X166185604Y-104168019D01*
X166185603Y-104168019D01*
X166347894Y-104218590D01*
X166347892Y-104218590D01*
X166418418Y-104224999D01*
X166499999Y-104224998D01*
X166500000Y-104224998D01*
X166500000Y-103575000D01*
X163674000Y-103575000D01*
X163606961Y-103555315D01*
X163561206Y-103502511D01*
X163550000Y-103451000D01*
X163550000Y-103199000D01*
X163569685Y-103131961D01*
X163622489Y-103086206D01*
X163674000Y-103075000D01*
X166626000Y-103075000D01*
X166693039Y-103094685D01*
G37*
%TD.AperFunction*%
%TA.AperFunction,Conductor*%
G36*
X143844154Y-107917315D02*
G01*
X143993375Y-108009356D01*
X143993382Y-108009359D01*
X144091318Y-108041811D01*
X144148763Y-108081583D01*
X144175587Y-108146098D01*
X144163273Y-108214874D01*
X144144163Y-108241414D01*
X144144405Y-108241605D01*
X144140170Y-108246960D01*
X144140005Y-108247190D01*
X144139927Y-108247267D01*
X144139924Y-108247271D01*
X144050957Y-108391507D01*
X144050952Y-108391518D01*
X143997644Y-108552393D01*
X143987500Y-108651677D01*
X143987500Y-108700000D01*
X144813500Y-108700000D01*
X144880539Y-108719685D01*
X144926294Y-108772489D01*
X144937500Y-108824000D01*
X144937500Y-109076000D01*
X144917815Y-109143039D01*
X144865011Y-109188794D01*
X144813500Y-109200000D01*
X143987501Y-109200000D01*
X143987501Y-109248322D01*
X143997644Y-109347608D01*
X144000456Y-109356093D01*
X144002859Y-109425921D01*
X143967129Y-109485964D01*
X143904609Y-109517157D01*
X143882751Y-109519099D01*
X141431829Y-109519099D01*
X141364790Y-109499414D01*
X141344148Y-109482780D01*
X140686819Y-108825451D01*
X140653334Y-108764128D01*
X140650500Y-108737770D01*
X140650500Y-107850000D01*
X143776839Y-107850000D01*
X143844154Y-107917315D01*
G37*
%TD.AperFunction*%
%TA.AperFunction,Conductor*%
G36*
X143492914Y-104260774D02*
G01*
X143454972Y-104319444D01*
X143391334Y-104348288D01*
X143374037Y-104349500D01*
X142997273Y-104349500D01*
X142895412Y-104376793D01*
X142868129Y-104392545D01*
X142840845Y-104408298D01*
X142804087Y-104429520D01*
X142804086Y-104429520D01*
X142798254Y-104432888D01*
X142736255Y-104449500D01*
X142727525Y-104449500D01*
X142598993Y-104483940D01*
X142587511Y-104487017D01*
X142461988Y-104559488D01*
X142461982Y-104559493D01*
X142359493Y-104661982D01*
X142359488Y-104661988D01*
X142287017Y-104787511D01*
X142287016Y-104787515D01*
X142249500Y-104927525D01*
X142249500Y-105072475D01*
X142287016Y-105212485D01*
X142287017Y-105212488D01*
X142359488Y-105338011D01*
X142359490Y-105338013D01*
X142359491Y-105338015D01*
X142461985Y-105440509D01*
X142461986Y-105440510D01*
X142461988Y-105440511D01*
X142587511Y-105512982D01*
X142587512Y-105512982D01*
X142587515Y-105512984D01*
X142727525Y-105550500D01*
X142727528Y-105550500D01*
X142872472Y-105550500D01*
X142872475Y-105550500D01*
X143012485Y-105512984D01*
X143138015Y-105440509D01*
X143240509Y-105338015D01*
X143312976Y-105212499D01*
X143363543Y-105164284D01*
X143420363Y-105150500D01*
X143732746Y-105150500D01*
X143799785Y-105170185D01*
X143820428Y-105186820D01*
X143861653Y-105228046D01*
X143861655Y-105228047D01*
X143861658Y-105228050D01*
X143974696Y-105285646D01*
X143974698Y-105285647D01*
X144068475Y-105300499D01*
X144068481Y-105300500D01*
X145156518Y-105300499D01*
X145156522Y-105300499D01*
X145200991Y-105293455D01*
X145230103Y-105288845D01*
X145248642Y-105291240D01*
X145267147Y-105288580D01*
X145282574Y-105295625D01*
X145299395Y-105297799D01*
X145313696Y-105309838D01*
X145330703Y-105317605D01*
X145339873Y-105331874D01*
X145352847Y-105342796D01*
X145358369Y-105360654D01*
X145368477Y-105376383D01*
X145373035Y-105408086D01*
X145373487Y-105409547D01*
X145373500Y-105411318D01*
X145373500Y-105617659D01*
X145353815Y-105684698D01*
X145301011Y-105730453D01*
X145231853Y-105740397D01*
X145184403Y-105723198D01*
X145131624Y-105690643D01*
X145131619Y-105690641D01*
X144965197Y-105635494D01*
X144965190Y-105635493D01*
X144862486Y-105625000D01*
X144812500Y-105625000D01*
X144812500Y-105850000D01*
X144312500Y-105850000D01*
X144312500Y-105625000D01*
X144312499Y-105624999D01*
X144262529Y-105625000D01*
X144262511Y-105625001D01*
X144159802Y-105635494D01*
X143993380Y-105690641D01*
X143993375Y-105690643D01*
X143844154Y-105782684D01*
X143776838Y-105850000D01*
X141912500Y-105850000D01*
X141912500Y-104250000D01*
X143492945Y-104250000D01*
X143492914Y-104260774D01*
G37*
%TD.AperFunction*%
%TA.AperFunction,Conductor*%
G36*
X145931684Y-101944177D02*
G01*
X145932000Y-101953023D01*
X145932000Y-103126002D01*
X145937838Y-103180312D01*
X145949043Y-103231818D01*
X145949046Y-103231827D01*
X145956279Y-103258192D01*
X145956283Y-103258203D01*
X146005606Y-103344820D01*
X146006161Y-103345604D01*
X146006324Y-103346081D01*
X146008626Y-103350123D01*
X146007859Y-103350559D01*
X146010848Y-103359279D01*
X146019838Y-103370599D01*
X146021950Y-103391667D01*
X146028817Y-103411698D01*
X146025496Y-103427027D01*
X146026810Y-103440120D01*
X146015426Y-103473527D01*
X145988956Y-103525477D01*
X145940981Y-103576273D01*
X145912500Y-103583325D01*
X145912500Y-101892743D01*
X145931684Y-101944177D01*
G37*
%TD.AperFunction*%
%TA.AperFunction,Conductor*%
G36*
X141930605Y-103344818D02*
G01*
X141930607Y-103344820D01*
X141930612Y-103344828D01*
X141943134Y-103359279D01*
X141976363Y-103397628D01*
X141976366Y-103397631D01*
X141976367Y-103397632D01*
X142009141Y-103429257D01*
X142048795Y-103450000D01*
X141912500Y-103450000D01*
X141912500Y-103313023D01*
X141930605Y-103344818D01*
G37*
%TD.AperFunction*%
%TA.AperFunction,Conductor*%
G36*
X148348203Y-92844331D02*
G01*
X148354681Y-92850363D01*
X148966867Y-93462549D01*
X149000352Y-93523872D01*
X148995368Y-93593564D01*
X148989061Y-93607705D01*
X148974536Y-93635472D01*
X148974533Y-93635477D01*
X148954851Y-93702509D01*
X148954848Y-93702521D01*
X148944500Y-93774498D01*
X148944500Y-95376002D01*
X148950338Y-95430312D01*
X148961543Y-95481818D01*
X148961546Y-95481827D01*
X148968781Y-95508202D01*
X148969344Y-95509560D01*
X148969466Y-95510696D01*
X148970833Y-95515679D01*
X148970025Y-95515900D01*
X148976808Y-95579030D01*
X148945529Y-95641507D01*
X148893103Y-95674934D01*
X148887202Y-95676851D01*
X148887196Y-95676853D01*
X148887196Y-95676854D01*
X148774158Y-95734450D01*
X148774157Y-95734451D01*
X148774152Y-95734454D01*
X148684454Y-95824152D01*
X148684451Y-95824157D01*
X148684450Y-95824158D01*
X148681443Y-95830060D01*
X148626852Y-95937198D01*
X148612000Y-96030975D01*
X148612000Y-97269017D01*
X148621123Y-97326618D01*
X148626854Y-97362804D01*
X148684450Y-97475842D01*
X148684452Y-97475844D01*
X148684454Y-97475847D01*
X148774152Y-97565545D01*
X148774154Y-97565546D01*
X148774158Y-97565550D01*
X148887196Y-97623146D01*
X148887198Y-97623147D01*
X148980975Y-97637999D01*
X148980981Y-97638000D01*
X149112033Y-97637999D01*
X149141478Y-97646644D01*
X149171461Y-97653167D01*
X149176474Y-97656919D01*
X149179073Y-97657683D01*
X149199715Y-97674318D01*
X149325681Y-97800284D01*
X149359166Y-97861607D01*
X149362000Y-97887965D01*
X149362000Y-98023918D01*
X149362000Y-98023920D01*
X149361999Y-98023920D01*
X149390840Y-98168907D01*
X149390842Y-98168913D01*
X149447412Y-98305488D01*
X149447419Y-98305501D01*
X149529548Y-98428415D01*
X149529551Y-98428419D01*
X149634080Y-98532948D01*
X149634084Y-98532951D01*
X149756998Y-98615080D01*
X149757011Y-98615087D01*
X149893582Y-98671656D01*
X149893587Y-98671658D01*
X149893591Y-98671658D01*
X149893592Y-98671659D01*
X150038579Y-98700500D01*
X150038582Y-98700500D01*
X150186420Y-98700500D01*
X150289270Y-98680041D01*
X150331413Y-98671658D01*
X150467995Y-98615084D01*
X150590916Y-98532951D01*
X150695451Y-98428416D01*
X150777584Y-98305495D01*
X150793721Y-98266538D01*
X150834158Y-98168913D01*
X150834159Y-98168907D01*
X150835536Y-98161988D01*
X150845382Y-98112488D01*
X150863000Y-98023920D01*
X150863000Y-97876079D01*
X150834159Y-97731093D01*
X150834158Y-97731087D01*
X150821937Y-97701584D01*
X150812500Y-97654135D01*
X150812500Y-96900000D01*
X150262500Y-96900000D01*
X150262500Y-97075500D01*
X150259949Y-97084185D01*
X150261238Y-97093147D01*
X150250259Y-97117187D01*
X150242815Y-97142539D01*
X150235974Y-97148466D01*
X150232213Y-97156703D01*
X150209978Y-97170992D01*
X150190011Y-97188294D01*
X150179496Y-97190581D01*
X150173435Y-97194477D01*
X150138500Y-97199500D01*
X150050465Y-97199500D01*
X149983426Y-97179815D01*
X149962784Y-97163181D01*
X149749318Y-96949715D01*
X149715833Y-96888392D01*
X149712999Y-96862034D01*
X149712999Y-96030982D01*
X149701759Y-95960012D01*
X149698146Y-95937196D01*
X149697432Y-95935795D01*
X149697078Y-95933912D01*
X149696744Y-95932883D01*
X149695122Y-95931011D01*
X149690512Y-95898953D01*
X149684535Y-95867129D01*
X149685569Y-95864578D01*
X149685178Y-95861853D01*
X149698632Y-95832391D01*
X149710809Y-95802388D01*
X149713059Y-95800801D01*
X149714203Y-95798297D01*
X149741448Y-95780787D01*
X149767915Y-95762129D01*
X149771373Y-95761555D01*
X149772981Y-95760523D01*
X149807916Y-95755500D01*
X149873870Y-95755500D01*
X149893268Y-95757026D01*
X149930981Y-95763000D01*
X150157484Y-95762999D01*
X150224523Y-95782683D01*
X150270278Y-95835487D01*
X150280222Y-95904646D01*
X150276561Y-95921594D01*
X150265399Y-95960012D01*
X150262500Y-95996850D01*
X150262500Y-96400000D01*
X150938500Y-96400000D01*
X151005539Y-96419685D01*
X151051294Y-96472489D01*
X151062500Y-96524000D01*
X151062500Y-96650000D01*
X151188000Y-96650000D01*
X151255039Y-96669685D01*
X151300794Y-96722489D01*
X151312000Y-96774000D01*
X151312000Y-97335511D01*
X151300051Y-97388620D01*
X151287535Y-97415025D01*
X151267850Y-97482064D01*
X151267848Y-97482072D01*
X151257500Y-97554049D01*
X151257500Y-98909347D01*
X151253274Y-98941439D01*
X151250055Y-98953456D01*
X151248435Y-98959502D01*
X151236049Y-98989403D01*
X151223400Y-99011312D01*
X151223183Y-99011518D01*
X151197737Y-99055761D01*
X151197636Y-99055937D01*
X151182714Y-99081781D01*
X151174418Y-99110039D01*
X151174393Y-99110124D01*
X151159767Y-99159804D01*
X151159704Y-99160145D01*
X151154853Y-99176667D01*
X151154848Y-99176686D01*
X151144500Y-99248666D01*
X151144500Y-100876000D01*
X151124815Y-100943039D01*
X151072011Y-100988794D01*
X151020500Y-101000000D01*
X150962500Y-101000000D01*
X150962500Y-101826000D01*
X150942815Y-101893039D01*
X150890011Y-101938794D01*
X150838500Y-101950000D01*
X150586500Y-101950000D01*
X150519461Y-101930315D01*
X150473706Y-101877511D01*
X150462500Y-101826000D01*
X150462500Y-101000000D01*
X150289193Y-101000000D01*
X150289176Y-101000001D01*
X150189892Y-101010144D01*
X150029018Y-101063452D01*
X150029007Y-101063457D01*
X149884771Y-101152424D01*
X149884767Y-101152427D01*
X149764927Y-101272267D01*
X149764924Y-101272271D01*
X149675957Y-101416507D01*
X149675952Y-101416518D01*
X149622643Y-101577394D01*
X149622642Y-101577398D01*
X149621898Y-101584684D01*
X149595498Y-101649374D01*
X149538315Y-101689522D01*
X149468504Y-101692381D01*
X149429181Y-101673163D01*
X149428793Y-101673806D01*
X149276895Y-101581980D01*
X149276896Y-101581980D01*
X149114605Y-101531409D01*
X149114606Y-101531409D01*
X149044072Y-101525000D01*
X148962500Y-101525000D01*
X148962500Y-102301000D01*
X148942815Y-102368039D01*
X148890011Y-102413794D01*
X148838500Y-102425000D01*
X148586500Y-102425000D01*
X148519461Y-102405315D01*
X148473706Y-102352511D01*
X148462500Y-102301000D01*
X148462500Y-101525000D01*
X148462499Y-101524999D01*
X148380917Y-101525000D01*
X148310397Y-101531408D01*
X148310391Y-101531409D01*
X148303891Y-101533435D01*
X148234030Y-101534587D01*
X148174638Y-101497786D01*
X148144570Y-101434717D01*
X148143000Y-101415050D01*
X148143000Y-92938044D01*
X148162685Y-92871005D01*
X148215489Y-92825250D01*
X148284647Y-92815306D01*
X148348203Y-92844331D01*
G37*
%TD.AperFunction*%
%TA.AperFunction,Conductor*%
G36*
X145512500Y-102386977D02*
G01*
X145494394Y-102355181D01*
X145494390Y-102355176D01*
X145494388Y-102355172D01*
X145459199Y-102314562D01*
X145448636Y-102302371D01*
X145427026Y-102281519D01*
X145415859Y-102270743D01*
X145368821Y-102246137D01*
X145318543Y-102197621D01*
X145302476Y-102129624D01*
X145325721Y-102063735D01*
X145380899Y-102020873D01*
X145400345Y-102015009D01*
X145402700Y-102014504D01*
X145512500Y-101978119D01*
X145512500Y-102386977D01*
G37*
%TD.AperFunction*%
%TA.AperFunction,Conductor*%
G36*
X145157098Y-94586346D02*
G01*
X145279011Y-94661544D01*
X145279018Y-94661547D01*
X145439893Y-94714855D01*
X145539183Y-94724999D01*
X145687999Y-94724999D01*
X145755039Y-94744683D01*
X145800794Y-94797487D01*
X145812000Y-94848999D01*
X145812000Y-99324678D01*
X145826532Y-99397735D01*
X145826533Y-99397739D01*
X145834075Y-99409026D01*
X145881899Y-99480601D01*
X145881900Y-99480601D01*
X145881901Y-99480603D01*
X145886880Y-99485582D01*
X145889203Y-99486643D01*
X145904062Y-99509765D01*
X145921691Y-99530854D01*
X145923644Y-99540236D01*
X145926977Y-99545421D01*
X145932000Y-99580356D01*
X145932000Y-99646977D01*
X145912315Y-99714016D01*
X145859511Y-99759771D01*
X145790353Y-99769715D01*
X145726797Y-99740690D01*
X145720319Y-99734658D01*
X145718345Y-99732684D01*
X145569124Y-99640643D01*
X145569119Y-99640641D01*
X145402697Y-99585494D01*
X145402690Y-99585493D01*
X145299986Y-99575000D01*
X145250000Y-99575000D01*
X145250000Y-99850000D01*
X144750000Y-99850000D01*
X144750000Y-99543223D01*
X144751138Y-99537045D01*
X144750385Y-99533454D01*
X144754314Y-99519811D01*
X144758145Y-99499023D01*
X144760744Y-99492208D01*
X144774965Y-99465024D01*
X144787824Y-99421229D01*
X144789565Y-99416666D01*
X144792709Y-99412530D01*
X144794257Y-99409219D01*
X144793791Y-99409026D01*
X144798466Y-99397740D01*
X144813000Y-99324676D01*
X144813000Y-98823293D01*
X144813022Y-98820937D01*
X144813309Y-98805812D01*
X144816451Y-98794088D01*
X144825020Y-98736323D01*
X144826863Y-98680041D01*
X144822091Y-98621837D01*
X144817500Y-98598754D01*
X144817500Y-98513460D01*
X144819882Y-98489270D01*
X144831987Y-98428415D01*
X144834140Y-98417587D01*
X144841197Y-98394326D01*
X144842810Y-98390432D01*
X144869162Y-98326810D01*
X144880621Y-98305374D01*
X144904018Y-98270358D01*
X144904044Y-98270319D01*
X144905322Y-98268387D01*
X144906534Y-98266537D01*
X144937965Y-98198507D01*
X144957650Y-98131468D01*
X144968000Y-98059483D01*
X144968000Y-97412727D01*
X144966529Y-97385347D01*
X144963681Y-97358924D01*
X144963673Y-97358853D01*
X144933832Y-97263733D01*
X144905636Y-97212163D01*
X144905635Y-97212163D01*
X144891692Y-97186664D01*
X144891990Y-97186466D01*
X144889756Y-97183123D01*
X144888058Y-97180017D01*
X144885007Y-97176015D01*
X144833898Y-97099525D01*
X144813020Y-97032847D01*
X144813000Y-97030634D01*
X144813000Y-96669363D01*
X144818327Y-96651218D01*
X144818665Y-96632311D01*
X144832166Y-96604090D01*
X144832685Y-96602324D01*
X144833865Y-96600521D01*
X144884695Y-96524447D01*
X144887855Y-96519940D01*
X144891753Y-96514635D01*
X144891757Y-96514631D01*
X144937965Y-96426296D01*
X144939907Y-96419685D01*
X144948737Y-96389611D01*
X144957650Y-96359257D01*
X144968000Y-96287272D01*
X144968000Y-94691884D01*
X144987685Y-94624845D01*
X145040489Y-94579090D01*
X145109647Y-94569146D01*
X145157098Y-94586346D01*
G37*
%TD.AperFunction*%
%TA.AperFunction,Conductor*%
G36*
X140293039Y-76520185D02*
G01*
X140338794Y-76572989D01*
X140350000Y-76624500D01*
X140350000Y-76700000D01*
X167575500Y-76700000D01*
X167642539Y-76719685D01*
X167688294Y-76772489D01*
X167699500Y-76824000D01*
X167699500Y-78214192D01*
X167679815Y-78281231D01*
X167627011Y-78326986D01*
X167557853Y-78336930D01*
X167501190Y-78313460D01*
X167492088Y-78306646D01*
X167492086Y-78306645D01*
X167357379Y-78256403D01*
X167357372Y-78256401D01*
X167297844Y-78250000D01*
X166650000Y-78250000D01*
X166650000Y-79166988D01*
X166592993Y-79134075D01*
X166465826Y-79100000D01*
X166334174Y-79100000D01*
X166207007Y-79134075D01*
X166150000Y-79166988D01*
X166150000Y-78250000D01*
X165502155Y-78250000D01*
X165442627Y-78256401D01*
X165442620Y-78256403D01*
X165307913Y-78306645D01*
X165307906Y-78306649D01*
X165192812Y-78392809D01*
X165192809Y-78392812D01*
X165106649Y-78507906D01*
X165106645Y-78507913D01*
X165056403Y-78642620D01*
X165056401Y-78642627D01*
X165050000Y-78702155D01*
X165050000Y-79350000D01*
X165966988Y-79350000D01*
X165934075Y-79407007D01*
X165900000Y-79534174D01*
X165900000Y-79665826D01*
X165934075Y-79792993D01*
X165966988Y-79850000D01*
X165050000Y-79850000D01*
X165050000Y-80497844D01*
X165056401Y-80557372D01*
X165056403Y-80557379D01*
X165106645Y-80692086D01*
X165106649Y-80692093D01*
X165192809Y-80807187D01*
X165192812Y-80807190D01*
X165307906Y-80893350D01*
X165307913Y-80893354D01*
X165442620Y-80943596D01*
X165442627Y-80943598D01*
X165502155Y-80949999D01*
X165502172Y-80950000D01*
X165794949Y-80950000D01*
X165861988Y-80969685D01*
X165907743Y-81022489D01*
X165917687Y-81091647D01*
X165888662Y-81155203D01*
X165851244Y-81184485D01*
X165823211Y-81198768D01*
X165752009Y-81250500D01*
X165683072Y-81300586D01*
X165683070Y-81300588D01*
X165683069Y-81300588D01*
X165560588Y-81423069D01*
X165560588Y-81423070D01*
X165560586Y-81423072D01*
X165528570Y-81467138D01*
X165458768Y-81563211D01*
X165380128Y-81717552D01*
X165326597Y-81882302D01*
X165299500Y-82053389D01*
X165299500Y-82226610D01*
X165325180Y-82388752D01*
X165326598Y-82397701D01*
X165380127Y-82562445D01*
X165458768Y-82716788D01*
X165560586Y-82856928D01*
X165683072Y-82979414D01*
X165823212Y-83081232D01*
X165977555Y-83159873D01*
X166142299Y-83213402D01*
X166313389Y-83240500D01*
X166313390Y-83240500D01*
X166486610Y-83240500D01*
X166486611Y-83240500D01*
X166657701Y-83213402D01*
X166822445Y-83159873D01*
X166976788Y-83081232D01*
X167116928Y-82979414D01*
X167239414Y-82856928D01*
X167341232Y-82716788D01*
X167419873Y-82562445D01*
X167457569Y-82446426D01*
X167497007Y-82388752D01*
X167561365Y-82361554D01*
X167630212Y-82373469D01*
X167681687Y-82420713D01*
X167699500Y-82484746D01*
X167699500Y-84273705D01*
X167679815Y-84340744D01*
X167627011Y-84386499D01*
X167557853Y-84396443D01*
X167532167Y-84389887D01*
X167507024Y-84380509D01*
X167451144Y-84374500D01*
X167451130Y-84374500D01*
X166923870Y-84374500D01*
X166923855Y-84374500D01*
X166867975Y-84380509D01*
X166741552Y-84427662D01*
X166741549Y-84427664D01*
X166633528Y-84508528D01*
X166552664Y-84616549D01*
X166552662Y-84616552D01*
X166516182Y-84714361D01*
X166474311Y-84770295D01*
X166408846Y-84794712D01*
X166340573Y-84779860D01*
X166291168Y-84730455D01*
X166283818Y-84714361D01*
X166247337Y-84616552D01*
X166247335Y-84616549D01*
X166166472Y-84508528D01*
X166058450Y-84427664D01*
X166058447Y-84427662D01*
X165932024Y-84380509D01*
X165876144Y-84374500D01*
X165876130Y-84374500D01*
X165348870Y-84374500D01*
X165348855Y-84374500D01*
X165292975Y-84380509D01*
X165267833Y-84389887D01*
X165198142Y-84394871D01*
X165136819Y-84361386D01*
X165103334Y-84300063D01*
X165100500Y-84273705D01*
X165100500Y-83979386D01*
X165120185Y-83912347D01*
X165136819Y-83891705D01*
X165141508Y-83887016D01*
X165190509Y-83838015D01*
X165262984Y-83712485D01*
X165300500Y-83572475D01*
X165300500Y-83427525D01*
X165262984Y-83287515D01*
X165253090Y-83270379D01*
X165190511Y-83161988D01*
X165190506Y-83161982D01*
X165088017Y-83059493D01*
X165088011Y-83059488D01*
X164962488Y-82987017D01*
X164962489Y-82987017D01*
X164934103Y-82979411D01*
X164822475Y-82949500D01*
X164677525Y-82949500D01*
X164565897Y-82979411D01*
X164537511Y-82987017D01*
X164411988Y-83059488D01*
X164411982Y-83059493D01*
X164309493Y-83161982D01*
X164309491Y-83161985D01*
X164279806Y-83213402D01*
X164277622Y-83217184D01*
X164227054Y-83265399D01*
X164158447Y-83278621D01*
X164093583Y-83252653D01*
X164078271Y-83238361D01*
X164072177Y-83231624D01*
X164030601Y-83169399D01*
X163993439Y-83144569D01*
X163983137Y-83133178D01*
X163974358Y-83114990D01*
X163961405Y-83099491D01*
X163959480Y-83084164D01*
X163952766Y-83070254D01*
X163955214Y-83050203D01*
X163952698Y-83030166D01*
X163959363Y-83016234D01*
X163961236Y-83000900D01*
X163974136Y-82985356D01*
X163982852Y-82967138D01*
X164005650Y-82947382D01*
X164005857Y-82947134D01*
X164005983Y-82947093D01*
X164006210Y-82946898D01*
X164030601Y-82930601D01*
X164085966Y-82847740D01*
X164100500Y-82774674D01*
X164100500Y-81825326D01*
X164100500Y-81825323D01*
X164100499Y-81825321D01*
X164085967Y-81752264D01*
X164085966Y-81752260D01*
X164058518Y-81711181D01*
X164030601Y-81669399D01*
X164006209Y-81653101D01*
X163961405Y-81599491D01*
X163952698Y-81530166D01*
X163982852Y-81467138D01*
X164006210Y-81446898D01*
X164030601Y-81430601D01*
X164085966Y-81347740D01*
X164100500Y-81274674D01*
X164100500Y-80325326D01*
X164100500Y-80325323D01*
X164100499Y-80325321D01*
X164085967Y-80252264D01*
X164085966Y-80252260D01*
X164072553Y-80232186D01*
X164030601Y-80169399D01*
X164006209Y-80153101D01*
X163961405Y-80099491D01*
X163952698Y-80030166D01*
X163982852Y-79967138D01*
X164006210Y-79946898D01*
X164030601Y-79930601D01*
X164085966Y-79847740D01*
X164100500Y-79774674D01*
X164100500Y-78825326D01*
X164100500Y-78825323D01*
X164100499Y-78825321D01*
X164087433Y-78759632D01*
X164087432Y-78759631D01*
X164085966Y-78752260D01*
X164030601Y-78669399D01*
X163991085Y-78642995D01*
X163979500Y-78628971D01*
X163972615Y-78612905D01*
X163961405Y-78599491D01*
X163959139Y-78581455D01*
X163951981Y-78564749D01*
X163954876Y-78547508D01*
X163952698Y-78530166D01*
X163960541Y-78513771D01*
X163963552Y-78495844D01*
X163975308Y-78482905D01*
X163982852Y-78467138D01*
X164006210Y-78446898D01*
X164030601Y-78430601D01*
X164085966Y-78347740D01*
X164100500Y-78274674D01*
X164100500Y-77325326D01*
X164100500Y-77325323D01*
X164100499Y-77325321D01*
X164085967Y-77252264D01*
X164085966Y-77252260D01*
X164084122Y-77249500D01*
X164030601Y-77169399D01*
X163947740Y-77114034D01*
X163947739Y-77114033D01*
X163947735Y-77114032D01*
X163874677Y-77099500D01*
X163874674Y-77099500D01*
X162325326Y-77099500D01*
X162325323Y-77099500D01*
X162252264Y-77114032D01*
X162252260Y-77114033D01*
X162169399Y-77169399D01*
X162114033Y-77252260D01*
X162114032Y-77252264D01*
X162099500Y-77325321D01*
X162099500Y-78274678D01*
X162114032Y-78347735D01*
X162114033Y-78347739D01*
X162121887Y-78359493D01*
X162169399Y-78430601D01*
X162193790Y-78446898D01*
X162238594Y-78500511D01*
X162247301Y-78569836D01*
X162217146Y-78632863D01*
X162193790Y-78653102D01*
X162169399Y-78669399D01*
X162114033Y-78752260D01*
X162114032Y-78752264D01*
X162099500Y-78825321D01*
X162099500Y-79774678D01*
X162114032Y-79847735D01*
X162114033Y-79847739D01*
X162114034Y-79847740D01*
X162169399Y-79930601D01*
X162193790Y-79946898D01*
X162238594Y-80000511D01*
X162247301Y-80069836D01*
X162217146Y-80132863D01*
X162193791Y-80153100D01*
X162186019Y-80158294D01*
X162169399Y-80169399D01*
X162114033Y-80252260D01*
X162114032Y-80252264D01*
X162099500Y-80325321D01*
X162099500Y-80325500D01*
X162099473Y-80325589D01*
X162098903Y-80331386D01*
X162097803Y-80331277D01*
X162079815Y-80392539D01*
X162027011Y-80438294D01*
X161975500Y-80449500D01*
X161629386Y-80449500D01*
X161562347Y-80429815D01*
X161541705Y-80413181D01*
X161438017Y-80309493D01*
X161438011Y-80309488D01*
X161312488Y-80237017D01*
X161312489Y-80237017D01*
X161294459Y-80232186D01*
X161172475Y-80199500D01*
X161027525Y-80199500D01*
X160905541Y-80232186D01*
X160887511Y-80237017D01*
X160761988Y-80309488D01*
X160761982Y-80309493D01*
X160659493Y-80411982D01*
X160659488Y-80411988D01*
X160587017Y-80537511D01*
X160586064Y-80541069D01*
X160549500Y-80677525D01*
X160549500Y-80822475D01*
X160583671Y-80950000D01*
X160587017Y-80962488D01*
X160659488Y-81088011D01*
X160659490Y-81088013D01*
X160659491Y-81088015D01*
X160761985Y-81190509D01*
X160761986Y-81190510D01*
X160761988Y-81190511D01*
X160887511Y-81262982D01*
X160887512Y-81262982D01*
X160887515Y-81262984D01*
X161027525Y-81300500D01*
X161027528Y-81300500D01*
X161172472Y-81300500D01*
X161172475Y-81300500D01*
X161312485Y-81262984D01*
X161438015Y-81190509D01*
X161441705Y-81186819D01*
X161503028Y-81153334D01*
X161529386Y-81150500D01*
X161975500Y-81150500D01*
X162042539Y-81170185D01*
X162088294Y-81222989D01*
X162098233Y-81268679D01*
X162098903Y-81268614D01*
X162099468Y-81274354D01*
X162099500Y-81274500D01*
X162099500Y-81274678D01*
X162114032Y-81347735D01*
X162114033Y-81347739D01*
X162114034Y-81347740D01*
X162169399Y-81430601D01*
X162193790Y-81446898D01*
X162238594Y-81500511D01*
X162247301Y-81569836D01*
X162217146Y-81632863D01*
X162193791Y-81653100D01*
X162169399Y-81669399D01*
X162114033Y-81752260D01*
X162114032Y-81752264D01*
X162099500Y-81825321D01*
X162099500Y-82774678D01*
X162114032Y-82847735D01*
X162114033Y-82847739D01*
X162114034Y-82847740D01*
X162169399Y-82930601D01*
X162193790Y-82946898D01*
X162238594Y-83000511D01*
X162247301Y-83069836D01*
X162217146Y-83132863D01*
X162193791Y-83153100D01*
X162183659Y-83159871D01*
X162169399Y-83169399D01*
X162114033Y-83252260D01*
X162114032Y-83252264D01*
X162099500Y-83325321D01*
X162099500Y-84274678D01*
X162114032Y-84347735D01*
X162114033Y-84347739D01*
X162123152Y-84361386D01*
X162169399Y-84430601D01*
X162193790Y-84446898D01*
X162238594Y-84500511D01*
X162247301Y-84569836D01*
X162217146Y-84632863D01*
X162193791Y-84653100D01*
X162177056Y-84664283D01*
X162169399Y-84669399D01*
X162114033Y-84752260D01*
X162114032Y-84752263D01*
X162104333Y-84801023D01*
X162071947Y-84862934D01*
X162011231Y-84897507D01*
X161941461Y-84893766D01*
X161895035Y-84864511D01*
X161840017Y-84809493D01*
X161840011Y-84809488D01*
X161714488Y-84737017D01*
X161714489Y-84737017D01*
X161689999Y-84730455D01*
X161574475Y-84699500D01*
X161429525Y-84699500D01*
X161408592Y-84705108D01*
X161338743Y-84703446D01*
X161280881Y-84664283D01*
X161253377Y-84600055D01*
X161252500Y-84585334D01*
X161252500Y-83171658D01*
X161252500Y-83171656D01*
X161228614Y-83082512D01*
X161215323Y-83059491D01*
X161182470Y-83002588D01*
X158647412Y-80467530D01*
X158647411Y-80467529D01*
X158647408Y-80467527D01*
X158567490Y-80421387D01*
X158567489Y-80421386D01*
X158567488Y-80421386D01*
X158478344Y-80397500D01*
X152505856Y-80397500D01*
X152416711Y-80421386D01*
X152336787Y-80467531D01*
X152336784Y-80467533D01*
X148292137Y-84512181D01*
X148230814Y-84545666D01*
X148204456Y-84548500D01*
X147095544Y-84548500D01*
X147028505Y-84528815D01*
X147007863Y-84512181D01*
X146636819Y-84141137D01*
X146603334Y-84079814D01*
X146600500Y-84053456D01*
X146600500Y-83325323D01*
X146600499Y-83325321D01*
X146585967Y-83252264D01*
X146585966Y-83252260D01*
X146560002Y-83213402D01*
X146530601Y-83169399D01*
X146506209Y-83153101D01*
X146461405Y-83099491D01*
X146452698Y-83030166D01*
X146482852Y-82967138D01*
X146506210Y-82946898D01*
X146530601Y-82930601D01*
X146585966Y-82847740D01*
X146600500Y-82774674D01*
X146600500Y-81825326D01*
X146600500Y-81825323D01*
X146600499Y-81825321D01*
X146585967Y-81752264D01*
X146585966Y-81752260D01*
X146558518Y-81711181D01*
X146530601Y-81669399D01*
X146506209Y-81653101D01*
X146461405Y-81599491D01*
X146452698Y-81530166D01*
X146482852Y-81467138D01*
X146506210Y-81446898D01*
X146530601Y-81430601D01*
X146585966Y-81347740D01*
X146600500Y-81274674D01*
X146600500Y-80325326D01*
X146600500Y-80325323D01*
X146600499Y-80325321D01*
X146585967Y-80252264D01*
X146585966Y-80252260D01*
X146572553Y-80232186D01*
X146530601Y-80169399D01*
X146506209Y-80153101D01*
X146461405Y-80099491D01*
X146452698Y-80030166D01*
X146481204Y-79969011D01*
X146492206Y-79956255D01*
X146530601Y-79930601D01*
X146585966Y-79847740D01*
X146586014Y-79847495D01*
X146591499Y-79841137D01*
X146614703Y-79826149D01*
X146635905Y-79808431D01*
X146643641Y-79807459D01*
X146650191Y-79803229D01*
X146677819Y-79803166D01*
X146705230Y-79799723D01*
X146712262Y-79803087D01*
X146720060Y-79803070D01*
X146743336Y-79817954D01*
X146768258Y-79829877D01*
X146773077Y-79834445D01*
X146821580Y-79882948D01*
X146821584Y-79882951D01*
X146944498Y-79965080D01*
X146944511Y-79965087D01*
X146999865Y-79988015D01*
X147081087Y-80021658D01*
X147124510Y-80030295D01*
X147186418Y-80062679D01*
X147220992Y-80123395D01*
X147217253Y-80193164D01*
X147176387Y-80249837D01*
X147162326Y-80259293D01*
X147161994Y-80259484D01*
X147161982Y-80259493D01*
X147059493Y-80361982D01*
X147059488Y-80361988D01*
X146987017Y-80487511D01*
X146987016Y-80487515D01*
X146949500Y-80627525D01*
X146949500Y-80772475D01*
X146980065Y-80886542D01*
X146987017Y-80912488D01*
X147059488Y-81038011D01*
X147059490Y-81038013D01*
X147059491Y-81038015D01*
X147161985Y-81140509D01*
X147161986Y-81140510D01*
X147161988Y-81140511D01*
X147287511Y-81212982D01*
X147287512Y-81212982D01*
X147287515Y-81212984D01*
X147427525Y-81250500D01*
X147427528Y-81250500D01*
X147572472Y-81250500D01*
X147572475Y-81250500D01*
X147712485Y-81212984D01*
X147838015Y-81140509D01*
X147940509Y-81038015D01*
X148012984Y-80912485D01*
X148050500Y-80772475D01*
X148050500Y-80696543D01*
X148070185Y-80629504D01*
X148086819Y-80608862D01*
X148658862Y-80036819D01*
X148720185Y-80003334D01*
X148746543Y-80000500D01*
X151020614Y-80000500D01*
X151087653Y-80020185D01*
X151108295Y-80036819D01*
X151161985Y-80090509D01*
X151161986Y-80090510D01*
X151161988Y-80090511D01*
X151287511Y-80162982D01*
X151287512Y-80162982D01*
X151287515Y-80162984D01*
X151427525Y-80200500D01*
X151427528Y-80200500D01*
X151572472Y-80200500D01*
X151572475Y-80200500D01*
X151712485Y-80162984D01*
X151838015Y-80090509D01*
X151940509Y-79988015D01*
X152012984Y-79862485D01*
X152050500Y-79722475D01*
X152050500Y-79577525D01*
X152012984Y-79437515D01*
X151973733Y-79369531D01*
X151954663Y-79336500D01*
X151938190Y-79268600D01*
X151961042Y-79202573D01*
X152015963Y-79159383D01*
X152062050Y-79150500D01*
X157570614Y-79150500D01*
X157637653Y-79170185D01*
X157658295Y-79186819D01*
X157711985Y-79240509D01*
X157711986Y-79240510D01*
X157711988Y-79240511D01*
X157837511Y-79312982D01*
X157837512Y-79312982D01*
X157837515Y-79312984D01*
X157977525Y-79350500D01*
X157977528Y-79350500D01*
X158122472Y-79350500D01*
X158122475Y-79350500D01*
X158262485Y-79312984D01*
X158388015Y-79240509D01*
X158490509Y-79138015D01*
X158562984Y-79012485D01*
X158600500Y-78872475D01*
X158600500Y-78727525D01*
X158562984Y-78587515D01*
X158559485Y-78581455D01*
X158490511Y-78461988D01*
X158490506Y-78461982D01*
X158388017Y-78359493D01*
X158388011Y-78359488D01*
X158262488Y-78287017D01*
X158262489Y-78287017D01*
X158216439Y-78274678D01*
X158122475Y-78249500D01*
X157977525Y-78249500D01*
X157883561Y-78274678D01*
X157837511Y-78287017D01*
X157711988Y-78359488D01*
X157711982Y-78359493D01*
X157658295Y-78413181D01*
X157596972Y-78446666D01*
X157570614Y-78449500D01*
X150753856Y-78449500D01*
X150681405Y-78468913D01*
X150681404Y-78468912D01*
X150664711Y-78473386D01*
X150664710Y-78473386D01*
X150618835Y-78499874D01*
X150556833Y-78516488D01*
X150212933Y-78516488D01*
X150145894Y-78496803D01*
X150125252Y-78480169D01*
X150071564Y-78426481D01*
X150071558Y-78426476D01*
X149946035Y-78354005D01*
X149946036Y-78354005D01*
X149934553Y-78350928D01*
X149806022Y-78316488D01*
X149661072Y-78316488D01*
X149532540Y-78350928D01*
X149521058Y-78354005D01*
X149395535Y-78426476D01*
X149395529Y-78426481D01*
X149293040Y-78528970D01*
X149293035Y-78528976D01*
X149220564Y-78654499D01*
X149220563Y-78654503D01*
X149183047Y-78794513D01*
X149183047Y-78939463D01*
X149220563Y-79079473D01*
X149220564Y-79079476D01*
X149240208Y-79113500D01*
X149256681Y-79181400D01*
X149233829Y-79247427D01*
X149178907Y-79290618D01*
X149132821Y-79299500D01*
X148503856Y-79299500D01*
X148414712Y-79323386D01*
X148414711Y-79323386D01*
X148414709Y-79323387D01*
X148414706Y-79323388D01*
X148334794Y-79369526D01*
X148334789Y-79369530D01*
X148262181Y-79442138D01*
X148200857Y-79475622D01*
X148131166Y-79470637D01*
X148075232Y-79428766D01*
X148050816Y-79363301D01*
X148050500Y-79354456D01*
X148050500Y-79226079D01*
X148021659Y-79081092D01*
X148021658Y-79081091D01*
X148021658Y-79081087D01*
X148020991Y-79079476D01*
X147965087Y-78944511D01*
X147965080Y-78944498D01*
X147882951Y-78821584D01*
X147882948Y-78821580D01*
X147799049Y-78737681D01*
X147765564Y-78676358D01*
X147770548Y-78606666D01*
X147799049Y-78562319D01*
X147882948Y-78478419D01*
X147882951Y-78478416D01*
X147965084Y-78355495D01*
X148021658Y-78218913D01*
X148050500Y-78073918D01*
X148050500Y-77926082D01*
X148050500Y-77926079D01*
X148021659Y-77781092D01*
X148021658Y-77781091D01*
X148021658Y-77781087D01*
X148021656Y-77781082D01*
X147965087Y-77644511D01*
X147965080Y-77644498D01*
X147882951Y-77521584D01*
X147882948Y-77521580D01*
X147778419Y-77417051D01*
X147778415Y-77417048D01*
X147655501Y-77334919D01*
X147655488Y-77334912D01*
X147518917Y-77278343D01*
X147518907Y-77278340D01*
X147373920Y-77249500D01*
X147373918Y-77249500D01*
X147226082Y-77249500D01*
X147226080Y-77249500D01*
X147081092Y-77278340D01*
X147081082Y-77278343D01*
X146944511Y-77334912D01*
X146944498Y-77334919D01*
X146821584Y-77417048D01*
X146821580Y-77417051D01*
X146812181Y-77426451D01*
X146750858Y-77459936D01*
X146681166Y-77454952D01*
X146625233Y-77413080D01*
X146600816Y-77347616D01*
X146600500Y-77338770D01*
X146600500Y-77325323D01*
X146600499Y-77325321D01*
X146585967Y-77252264D01*
X146585966Y-77252260D01*
X146584122Y-77249500D01*
X146530601Y-77169399D01*
X146447740Y-77114034D01*
X146447739Y-77114033D01*
X146447735Y-77114032D01*
X146374677Y-77099500D01*
X146374674Y-77099500D01*
X145894658Y-77099500D01*
X145847206Y-77090061D01*
X145818917Y-77078343D01*
X145818907Y-77078340D01*
X145673920Y-77049500D01*
X145673918Y-77049500D01*
X143723917Y-77049500D01*
X143576082Y-77049500D01*
X143576080Y-77049500D01*
X143431092Y-77078340D01*
X143431082Y-77078343D01*
X143294511Y-77134912D01*
X143294498Y-77134919D01*
X143171584Y-77217048D01*
X143171580Y-77217051D01*
X142902212Y-77486419D01*
X142855488Y-77515779D01*
X142837117Y-77522207D01*
X142727850Y-77602850D01*
X142647206Y-77712118D01*
X142647206Y-77712119D01*
X142623633Y-77779485D01*
X142616689Y-77789166D01*
X142609696Y-77807417D01*
X142584920Y-77844498D01*
X142584914Y-77844509D01*
X142539561Y-77954002D01*
X142495720Y-78008405D01*
X142429426Y-78030470D01*
X142361726Y-78013191D01*
X142314116Y-77962053D01*
X142310439Y-77954001D01*
X142265086Y-77844508D01*
X142240304Y-77807419D01*
X142233017Y-77792814D01*
X142230613Y-77790040D01*
X142230200Y-77787168D01*
X142226366Y-77779484D01*
X142202793Y-77712119D01*
X142202793Y-77712118D01*
X142122150Y-77602850D01*
X142012882Y-77522207D01*
X142012880Y-77522206D01*
X141884700Y-77477353D01*
X141854270Y-77474500D01*
X141854266Y-77474500D01*
X141811810Y-77474500D01*
X141787618Y-77472117D01*
X141673920Y-77449500D01*
X141673918Y-77449500D01*
X138026082Y-77449500D01*
X138026080Y-77449500D01*
X137881092Y-77478340D01*
X137881086Y-77478342D01*
X137744508Y-77534914D01*
X137744496Y-77534921D01*
X137695269Y-77567813D01*
X137621588Y-77617044D01*
X137621580Y-77617050D01*
X135316050Y-79922580D01*
X135316044Y-79922588D01*
X135266812Y-79996268D01*
X135266813Y-79996269D01*
X135233921Y-80045496D01*
X135233914Y-80045508D01*
X135177342Y-80182086D01*
X135177340Y-80182092D01*
X135148500Y-80327079D01*
X135148500Y-80327082D01*
X135148500Y-89472918D01*
X135148500Y-89472920D01*
X135148499Y-89472920D01*
X135177340Y-89617907D01*
X135177343Y-89617917D01*
X135233913Y-89754490D01*
X135233914Y-89754492D01*
X135261925Y-89796413D01*
X135261926Y-89796415D01*
X135316043Y-89877410D01*
X135316047Y-89877415D01*
X135691757Y-90253125D01*
X135725242Y-90314448D01*
X135720258Y-90384140D01*
X135678386Y-90440073D01*
X135636171Y-90460580D01*
X135613556Y-90466640D01*
X135537510Y-90487017D01*
X135411988Y-90559488D01*
X135411982Y-90559493D01*
X135309493Y-90661982D01*
X135309488Y-90661988D01*
X135237017Y-90787511D01*
X135237016Y-90787515D01*
X135199500Y-90927525D01*
X135199500Y-90927527D01*
X135199500Y-91003456D01*
X135179815Y-91070495D01*
X135163181Y-91091137D01*
X133919531Y-92334786D01*
X133919529Y-92334789D01*
X133912191Y-92347500D01*
X133898402Y-92371384D01*
X133883810Y-92396658D01*
X133883808Y-92396661D01*
X133873386Y-92414710D01*
X133849500Y-92503856D01*
X133849500Y-95303456D01*
X133829815Y-95370495D01*
X133813181Y-95391137D01*
X133419266Y-95785051D01*
X133419264Y-95785053D01*
X133406226Y-95807637D01*
X133394083Y-95828671D01*
X133393282Y-95830058D01*
X133393280Y-95830060D01*
X133373123Y-95864971D01*
X133373122Y-95864974D01*
X133373121Y-95864976D01*
X133373121Y-95864977D01*
X133352019Y-95943730D01*
X133349235Y-95954121D01*
X133349235Y-97125500D01*
X133329550Y-97192539D01*
X133276746Y-97238294D01*
X133235432Y-97247281D01*
X133235585Y-97248439D01*
X133227528Y-97249499D01*
X133087511Y-97287017D01*
X132961988Y-97359488D01*
X132961982Y-97359493D01*
X132859493Y-97461982D01*
X132859488Y-97461988D01*
X132787017Y-97587511D01*
X132787016Y-97587515D01*
X132749500Y-97727525D01*
X132749500Y-97727527D01*
X132749500Y-97803456D01*
X132740855Y-97832896D01*
X132734332Y-97862883D01*
X132730577Y-97867898D01*
X132729815Y-97870495D01*
X132713181Y-97891137D01*
X132712181Y-97892137D01*
X132650858Y-97925622D01*
X132581166Y-97920638D01*
X132525233Y-97878766D01*
X132500816Y-97813302D01*
X132500500Y-97804456D01*
X132500500Y-76624500D01*
X132520185Y-76557461D01*
X132572989Y-76511706D01*
X132624500Y-76500500D01*
X140226000Y-76500500D01*
X140293039Y-76520185D01*
G37*
%TD.AperFunction*%
%TA.AperFunction,Conductor*%
G36*
X157304989Y-81920185D02*
G01*
X157350744Y-81972989D01*
X157360688Y-82042147D01*
X157345337Y-82086500D01*
X157287017Y-82187511D01*
X157287016Y-82187515D01*
X157249500Y-82327525D01*
X157249500Y-82472475D01*
X157281028Y-82590137D01*
X157287017Y-82612488D01*
X157359488Y-82738011D01*
X157359490Y-82738013D01*
X157359491Y-82738015D01*
X157461985Y-82840509D01*
X157461986Y-82840510D01*
X157461988Y-82840511D01*
X157587511Y-82912982D01*
X157587512Y-82912982D01*
X157587515Y-82912984D01*
X157727525Y-82950500D01*
X157803638Y-82950500D01*
X157819801Y-82954983D01*
X157834981Y-82954527D01*
X157857005Y-82965302D01*
X157867512Y-82968217D01*
X157880100Y-82975782D01*
X157884788Y-82980470D01*
X157962980Y-83025614D01*
X157964712Y-83026614D01*
X158053856Y-83050500D01*
X158403456Y-83050500D01*
X158470495Y-83070185D01*
X158491137Y-83086819D01*
X159312181Y-83907863D01*
X159345666Y-83969186D01*
X159348500Y-83995544D01*
X159348500Y-90803456D01*
X159328815Y-90870495D01*
X159276011Y-90916250D01*
X159206853Y-90926194D01*
X159143297Y-90897169D01*
X159136819Y-90891137D01*
X158814213Y-90568531D01*
X158814208Y-90568527D01*
X158734290Y-90522387D01*
X158734289Y-90522386D01*
X158734288Y-90522386D01*
X158645144Y-90498500D01*
X151760632Y-90498500D01*
X151693593Y-90478815D01*
X151647838Y-90426011D01*
X151637894Y-90356853D01*
X151666919Y-90293297D01*
X151685142Y-90276127D01*
X151690128Y-90272299D01*
X151690133Y-90272297D01*
X151792627Y-90169803D01*
X151865102Y-90044273D01*
X151879268Y-89991405D01*
X151915632Y-89931746D01*
X151978479Y-89901217D01*
X151999042Y-89899500D01*
X152345614Y-89899500D01*
X152412653Y-89919185D01*
X152433295Y-89935819D01*
X152486985Y-89989509D01*
X152486986Y-89989510D01*
X152486988Y-89989511D01*
X152612511Y-90061982D01*
X152612512Y-90061982D01*
X152612515Y-90061984D01*
X152752525Y-90099500D01*
X152752528Y-90099500D01*
X152897472Y-90099500D01*
X152897475Y-90099500D01*
X153037485Y-90061984D01*
X153163015Y-89989509D01*
X153265509Y-89887015D01*
X153337984Y-89761485D01*
X153375500Y-89621475D01*
X153375500Y-89476525D01*
X153360034Y-89418806D01*
X153361697Y-89348959D01*
X153400859Y-89291097D01*
X153447714Y-89266941D01*
X153462485Y-89262984D01*
X153588015Y-89190509D01*
X153690509Y-89088015D01*
X153762984Y-88962485D01*
X153800500Y-88822475D01*
X153800500Y-88746544D01*
X153820185Y-88679505D01*
X153836819Y-88658863D01*
X155808863Y-86686819D01*
X155870186Y-86653334D01*
X155896544Y-86650500D01*
X156846142Y-86650500D01*
X156846144Y-86650500D01*
X156935288Y-86626614D01*
X156936156Y-86626113D01*
X157015212Y-86580470D01*
X157308863Y-86286819D01*
X157370186Y-86253334D01*
X157396544Y-86250500D01*
X157472472Y-86250500D01*
X157472475Y-86250500D01*
X157612485Y-86212984D01*
X157738015Y-86140509D01*
X157840509Y-86038015D01*
X157912984Y-85912485D01*
X157950500Y-85772475D01*
X157950500Y-85627525D01*
X157912984Y-85487515D01*
X157898244Y-85461985D01*
X157840511Y-85361988D01*
X157840506Y-85361982D01*
X157738017Y-85259493D01*
X157738011Y-85259488D01*
X157612488Y-85187017D01*
X157612489Y-85187017D01*
X157601006Y-85183940D01*
X157472475Y-85149500D01*
X157327525Y-85149500D01*
X157198993Y-85183940D01*
X157187511Y-85187017D01*
X157061988Y-85259488D01*
X157061982Y-85259493D01*
X156959493Y-85361982D01*
X156959488Y-85361988D01*
X156887017Y-85487511D01*
X156887016Y-85487515D01*
X156849500Y-85627525D01*
X156849500Y-85627527D01*
X156849500Y-85703456D01*
X156840855Y-85732896D01*
X156834332Y-85762883D01*
X156830577Y-85767898D01*
X156829815Y-85770495D01*
X156813181Y-85791137D01*
X156691137Y-85913181D01*
X156629814Y-85946666D01*
X156603456Y-85949500D01*
X155653856Y-85949500D01*
X155564712Y-85973386D01*
X155564709Y-85973387D01*
X155484791Y-86019527D01*
X155484786Y-86019531D01*
X153341137Y-88163181D01*
X153279814Y-88196666D01*
X153253456Y-88199500D01*
X153177525Y-88199500D01*
X153048993Y-88233940D01*
X153037511Y-88237017D01*
X152911988Y-88309488D01*
X152911982Y-88309493D01*
X152809493Y-88411982D01*
X152809488Y-88411988D01*
X152737017Y-88537511D01*
X152737016Y-88537515D01*
X152699500Y-88677525D01*
X152699500Y-88822475D01*
X152706270Y-88847739D01*
X152714965Y-88880191D01*
X152713302Y-88950041D01*
X152674139Y-89007903D01*
X152627285Y-89032058D01*
X152612516Y-89036015D01*
X152612511Y-89036017D01*
X152486988Y-89108488D01*
X152486982Y-89108493D01*
X152433295Y-89162181D01*
X152371972Y-89195666D01*
X152345614Y-89198500D01*
X151588762Y-89198500D01*
X151499618Y-89222386D01*
X151499615Y-89222387D01*
X151426371Y-89264675D01*
X151364371Y-89281288D01*
X151279643Y-89281288D01*
X151151111Y-89315728D01*
X151139629Y-89318805D01*
X151014106Y-89391276D01*
X151014100Y-89391281D01*
X150911611Y-89493770D01*
X150911606Y-89493776D01*
X150839135Y-89619299D01*
X150839134Y-89619303D01*
X150801618Y-89759313D01*
X150801618Y-89904263D01*
X150833561Y-90023473D01*
X150839135Y-90044276D01*
X150911606Y-90169799D01*
X150911608Y-90169801D01*
X150911609Y-90169803D01*
X151014103Y-90272297D01*
X151014104Y-90272298D01*
X151014106Y-90272299D01*
X151139629Y-90344770D01*
X151139630Y-90344770D01*
X151139633Y-90344772D01*
X151279643Y-90382288D01*
X151279646Y-90382288D01*
X151376961Y-90382288D01*
X151444000Y-90401973D01*
X151489755Y-90454777D01*
X151499699Y-90523935D01*
X151470674Y-90587491D01*
X151464642Y-90593969D01*
X151148292Y-90910319D01*
X151086969Y-90943804D01*
X151060611Y-90946638D01*
X150794609Y-90946638D01*
X150727570Y-90926953D01*
X150706928Y-90910319D01*
X150653240Y-90856631D01*
X150653234Y-90856626D01*
X150527711Y-90784155D01*
X150527712Y-90784155D01*
X150513974Y-90780474D01*
X150387698Y-90746638D01*
X150242748Y-90746638D01*
X150116472Y-90780474D01*
X150102734Y-90784155D01*
X149977211Y-90856626D01*
X149977205Y-90856631D01*
X149874716Y-90959120D01*
X149874711Y-90959126D01*
X149802240Y-91084649D01*
X149802239Y-91084653D01*
X149764723Y-91224663D01*
X149764723Y-91369613D01*
X149787896Y-91456094D01*
X149802240Y-91509626D01*
X149874711Y-91635149D01*
X149874713Y-91635151D01*
X149874714Y-91635153D01*
X149977208Y-91737647D01*
X149977209Y-91737648D01*
X149977211Y-91737649D01*
X150102734Y-91810120D01*
X150102735Y-91810120D01*
X150102738Y-91810122D01*
X150242748Y-91847638D01*
X150242751Y-91847638D01*
X150387695Y-91847638D01*
X150387698Y-91847638D01*
X150527708Y-91810122D01*
X150653238Y-91737647D01*
X150706928Y-91683957D01*
X150768251Y-91650472D01*
X150794609Y-91647638D01*
X151146941Y-91647638D01*
X151213980Y-91667323D01*
X151259735Y-91720127D01*
X151266714Y-91739540D01*
X151287016Y-91815305D01*
X151287017Y-91815308D01*
X151359488Y-91940831D01*
X151359490Y-91940833D01*
X151359491Y-91940835D01*
X151461985Y-92043329D01*
X151461986Y-92043330D01*
X151461988Y-92043331D01*
X151587511Y-92115802D01*
X151587512Y-92115802D01*
X151587515Y-92115804D01*
X151727525Y-92153320D01*
X151727528Y-92153320D01*
X151872472Y-92153320D01*
X151872475Y-92153320D01*
X152012485Y-92115804D01*
X152138015Y-92043329D01*
X152240509Y-91940835D01*
X152285736Y-91862500D01*
X152336303Y-91814284D01*
X152393123Y-91800500D01*
X158303400Y-91800500D01*
X158370439Y-91820185D01*
X158391081Y-91836819D01*
X159507330Y-92953069D01*
X159540815Y-93014392D01*
X159535831Y-93084084D01*
X159496325Y-93138202D01*
X159489341Y-93143696D01*
X159461985Y-93159491D01*
X159435108Y-93186367D01*
X159429316Y-93190925D01*
X159403451Y-93201287D01*
X159378996Y-93214640D01*
X159371465Y-93214101D01*
X159364457Y-93216909D01*
X159337097Y-93211642D01*
X159309304Y-93209654D01*
X159303259Y-93205128D01*
X159295847Y-93203702D01*
X159275679Y-93184482D01*
X159253372Y-93167782D01*
X159248435Y-93158517D01*
X159245268Y-93155499D01*
X159243962Y-93150123D01*
X159235600Y-93134430D01*
X159227793Y-93112118D01*
X159147150Y-93002850D01*
X159037882Y-92922207D01*
X159037880Y-92922206D01*
X158909700Y-92877353D01*
X158879270Y-92874500D01*
X158879266Y-92874500D01*
X158370734Y-92874500D01*
X158370730Y-92874500D01*
X158340300Y-92877353D01*
X158340298Y-92877353D01*
X158212119Y-92922206D01*
X158212117Y-92922207D01*
X158102850Y-93002850D01*
X158022207Y-93112117D01*
X158022206Y-93112119D01*
X157977353Y-93240298D01*
X157977353Y-93240300D01*
X157974500Y-93270730D01*
X157974500Y-93929269D01*
X157977353Y-93959699D01*
X157977353Y-93959701D01*
X158022206Y-94087880D01*
X158022207Y-94087882D01*
X158102850Y-94197150D01*
X158133703Y-94219920D01*
X158150295Y-94241773D01*
X158169504Y-94261378D01*
X158171122Y-94269202D01*
X158175954Y-94275566D01*
X158178098Y-94302925D01*
X158183657Y-94329799D01*
X158180788Y-94337255D01*
X158181413Y-94345222D01*
X158168424Y-94369399D01*
X158158573Y-94395010D01*
X158151327Y-94401224D01*
X158148347Y-94406772D01*
X158133363Y-94419711D01*
X158123377Y-94427027D01*
X158119774Y-94428372D01*
X158037778Y-94489752D01*
X158037179Y-94490192D01*
X158004868Y-94501868D01*
X157972730Y-94513855D01*
X157972087Y-94513715D01*
X157971468Y-94513939D01*
X157937952Y-94506288D01*
X157904458Y-94499002D01*
X157903960Y-94498530D01*
X157903351Y-94498391D01*
X157897270Y-94492184D01*
X157858347Y-94455268D01*
X157822571Y-94397266D01*
X157702732Y-94277427D01*
X157702728Y-94277424D01*
X157630304Y-94232752D01*
X157583579Y-94180804D01*
X157572358Y-94111842D01*
X157578357Y-94086268D01*
X157622646Y-93959699D01*
X157625500Y-93929266D01*
X157625500Y-93270734D01*
X157624893Y-93264265D01*
X157622646Y-93240300D01*
X157622646Y-93240298D01*
X157585599Y-93134426D01*
X157577793Y-93112118D01*
X157497150Y-93002850D01*
X157387882Y-92922207D01*
X157387880Y-92922206D01*
X157259700Y-92877353D01*
X157229270Y-92874500D01*
X157229266Y-92874500D01*
X156796544Y-92874500D01*
X156729505Y-92854815D01*
X156708863Y-92838181D01*
X156288213Y-92417531D01*
X156288208Y-92417527D01*
X156208290Y-92371387D01*
X156208289Y-92371386D01*
X156208288Y-92371386D01*
X156119144Y-92347500D01*
X153655856Y-92347500D01*
X153589753Y-92365212D01*
X153589752Y-92365211D01*
X153566716Y-92371384D01*
X153566709Y-92371387D01*
X153486791Y-92417527D01*
X153486786Y-92417531D01*
X152991137Y-92913181D01*
X152929814Y-92946666D01*
X152903456Y-92949500D01*
X149496544Y-92949500D01*
X149429505Y-92929815D01*
X149408863Y-92913181D01*
X148365213Y-91869531D01*
X148365208Y-91869527D01*
X148285290Y-91823387D01*
X148285289Y-91823386D01*
X148285288Y-91823386D01*
X148224952Y-91807219D01*
X148213373Y-91800161D01*
X148200058Y-91797574D01*
X148184120Y-91782330D01*
X148165293Y-91770855D01*
X148158280Y-91757616D01*
X148149565Y-91749281D01*
X148138046Y-91719418D01*
X148136498Y-91716495D01*
X148136175Y-91715154D01*
X148125955Y-91668176D01*
X148118719Y-91641802D01*
X148118336Y-91641130D01*
X148116451Y-91633305D01*
X148116574Y-91630792D01*
X148113000Y-91604255D01*
X148113000Y-91601081D01*
X148112999Y-91601080D01*
X148103868Y-91555172D01*
X148084159Y-91456088D01*
X148052409Y-91379437D01*
X148046300Y-91364689D01*
X148046299Y-91364688D01*
X148042813Y-91356271D01*
X148027584Y-91319505D01*
X147949284Y-91202320D01*
X147945452Y-91196585D01*
X147945450Y-91196583D01*
X147945448Y-91196580D01*
X147116921Y-90368052D01*
X147116920Y-90368051D01*
X147086520Y-90347739D01*
X147036006Y-90313987D01*
X146993995Y-90285916D01*
X146921792Y-90256008D01*
X146917189Y-90253636D01*
X146895490Y-90232950D01*
X146872143Y-90214135D01*
X146870464Y-90209092D01*
X146866618Y-90205425D01*
X146859547Y-90176289D01*
X146850079Y-90147841D01*
X146850000Y-90143416D01*
X146850000Y-90050000D01*
X144350000Y-90050000D01*
X144350000Y-90076500D01*
X144330315Y-90143539D01*
X144277511Y-90189294D01*
X144226000Y-90200500D01*
X143164666Y-90200500D01*
X143097627Y-90180815D01*
X143051872Y-90128011D01*
X143041928Y-90058853D01*
X143044891Y-90044407D01*
X143044926Y-90044276D01*
X143050500Y-90023475D01*
X143050500Y-89878525D01*
X143012984Y-89738515D01*
X142962168Y-89650500D01*
X142940511Y-89612988D01*
X142940506Y-89612982D01*
X142838017Y-89510493D01*
X142838011Y-89510488D01*
X142712488Y-89438017D01*
X142712489Y-89438017D01*
X142701006Y-89434940D01*
X142572475Y-89400500D01*
X142427525Y-89400500D01*
X142287515Y-89438016D01*
X142287513Y-89438017D01*
X142279665Y-89440120D01*
X142279087Y-89437963D01*
X142221160Y-89444181D01*
X142158686Y-89412894D01*
X142155518Y-89409836D01*
X141586819Y-88841137D01*
X141553334Y-88779814D01*
X141550500Y-88753456D01*
X141550500Y-88677527D01*
X141550500Y-88677525D01*
X141512984Y-88537515D01*
X141492001Y-88501172D01*
X141440511Y-88411988D01*
X141440506Y-88411982D01*
X141366205Y-88337681D01*
X141361866Y-88329735D01*
X141354619Y-88324310D01*
X141345384Y-88299550D01*
X141332720Y-88276358D01*
X141333365Y-88267328D01*
X141330202Y-88258846D01*
X141335818Y-88233025D01*
X141337704Y-88206666D01*
X141343522Y-88197612D01*
X141345054Y-88190573D01*
X141366205Y-88162319D01*
X141400312Y-88128212D01*
X141461635Y-88094727D01*
X141487993Y-88091893D01*
X142094849Y-88091893D01*
X142161888Y-88111578D01*
X142182530Y-88128212D01*
X142634788Y-88580470D01*
X142714712Y-88626614D01*
X142803856Y-88650500D01*
X142803857Y-88650500D01*
X142896144Y-88650500D01*
X144475500Y-88650500D01*
X144542539Y-88670185D01*
X144588294Y-88722989D01*
X144597890Y-88754585D01*
X144599500Y-88764479D01*
X144599500Y-88774674D01*
X144608615Y-88820500D01*
X144608968Y-88822666D01*
X144604896Y-88855258D01*
X144601968Y-88887981D01*
X144600580Y-88889800D01*
X144600306Y-88891997D01*
X144584071Y-88911448D01*
X144560889Y-88941847D01*
X144492812Y-88992809D01*
X144492809Y-88992812D01*
X144406649Y-89107906D01*
X144406645Y-89107913D01*
X144356403Y-89242620D01*
X144356401Y-89242627D01*
X144350000Y-89302155D01*
X144350000Y-89550000D01*
X146850000Y-89550000D01*
X146850000Y-89302172D01*
X146849999Y-89302155D01*
X146843598Y-89242627D01*
X146843596Y-89242620D01*
X146793354Y-89107913D01*
X146793350Y-89107906D01*
X146707191Y-88992813D01*
X146639110Y-88941848D01*
X146597239Y-88885914D01*
X146591804Y-88818389D01*
X146600500Y-88774674D01*
X146600500Y-88446542D01*
X146620185Y-88379503D01*
X146636815Y-88358865D01*
X147408881Y-87586798D01*
X147434562Y-87567093D01*
X147442152Y-87562712D01*
X147449695Y-87558358D01*
X147478674Y-87541626D01*
X147497998Y-87530470D01*
X147942649Y-87085819D01*
X148003972Y-87052334D01*
X148030330Y-87049500D01*
X149347142Y-87049500D01*
X149347144Y-87049500D01*
X149436288Y-87025614D01*
X149452933Y-87016004D01*
X149516212Y-86979470D01*
X152108862Y-84386818D01*
X152170185Y-84353334D01*
X152196543Y-84350500D01*
X152244615Y-84350500D01*
X152244617Y-84350500D01*
X152333761Y-84326614D01*
X152413685Y-84280470D01*
X153254706Y-83439448D01*
X153300850Y-83359524D01*
X153324736Y-83270380D01*
X153324736Y-83030308D01*
X153344421Y-82963269D01*
X153361055Y-82942627D01*
X154366863Y-81936819D01*
X154428186Y-81903334D01*
X154454544Y-81900500D01*
X157237950Y-81900500D01*
X157304989Y-81920185D01*
G37*
%TD.AperFunction*%
%TA.AperFunction,Conductor*%
G36*
X137449569Y-89556593D02*
G01*
X137533494Y-89583862D01*
X137613506Y-89609860D01*
X137870098Y-89650500D01*
X137870103Y-89650500D01*
X138129902Y-89650500D01*
X138246531Y-89632027D01*
X138386493Y-89609860D01*
X138436498Y-89593611D01*
X138506336Y-89591616D01*
X138562495Y-89623862D01*
X140368049Y-91429416D01*
X140443941Y-91505308D01*
X140472585Y-91533952D01*
X140595498Y-91616080D01*
X140595511Y-91616087D01*
X140719207Y-91667323D01*
X140732087Y-91672658D01*
X140732091Y-91672658D01*
X140732092Y-91672659D01*
X140877079Y-91701500D01*
X140877082Y-91701500D01*
X141677082Y-91701500D01*
X144740530Y-91701500D01*
X144807569Y-91721185D01*
X144853324Y-91773989D01*
X144863888Y-91838106D01*
X144862500Y-91851685D01*
X144862500Y-91900000D01*
X145688500Y-91900000D01*
X145755539Y-91919685D01*
X145801294Y-91972489D01*
X145812500Y-92024000D01*
X145812500Y-92150000D01*
X145938500Y-92150000D01*
X146005539Y-92169685D01*
X146051294Y-92222489D01*
X146062500Y-92274000D01*
X146062500Y-93626000D01*
X146042815Y-93693039D01*
X145990011Y-93738794D01*
X145938500Y-93750000D01*
X145812500Y-93750000D01*
X145812500Y-93876000D01*
X145792815Y-93943039D01*
X145740011Y-93988794D01*
X145688500Y-94000000D01*
X144862501Y-94000000D01*
X144862501Y-94048325D01*
X144866481Y-94087278D01*
X144853711Y-94155971D01*
X144805830Y-94206855D01*
X144738040Y-94223775D01*
X144708189Y-94218856D01*
X144660494Y-94204852D01*
X144660478Y-94204848D01*
X144588501Y-94194500D01*
X144588500Y-94194500D01*
X142236500Y-94194500D01*
X142236497Y-94194500D01*
X142182187Y-94200338D01*
X142130681Y-94211543D01*
X142130672Y-94211546D01*
X142104307Y-94218779D01*
X142104296Y-94218783D01*
X142017681Y-94268105D01*
X142017673Y-94268111D01*
X141964871Y-94313863D01*
X141933243Y-94346640D01*
X141887034Y-94434977D01*
X141887033Y-94434977D01*
X141882622Y-94450000D01*
X140650500Y-94450000D01*
X140650500Y-93451677D01*
X144862500Y-93451677D01*
X144862500Y-93500000D01*
X145562500Y-93500000D01*
X145562500Y-92400000D01*
X144862501Y-92400000D01*
X144862501Y-92448322D01*
X144872644Y-92547607D01*
X144925952Y-92708481D01*
X144925957Y-92708492D01*
X145014924Y-92852728D01*
X145014927Y-92852732D01*
X145024514Y-92862319D01*
X145057999Y-92923642D01*
X145053015Y-92993334D01*
X145024514Y-93037681D01*
X145014927Y-93047267D01*
X145014924Y-93047271D01*
X144925957Y-93191507D01*
X144925952Y-93191518D01*
X144872644Y-93352393D01*
X144862500Y-93451677D01*
X140650500Y-93451677D01*
X140650500Y-93326079D01*
X140621659Y-93181092D01*
X140621658Y-93181091D01*
X140621658Y-93181087D01*
X140608832Y-93150123D01*
X140565087Y-93044511D01*
X140565080Y-93044498D01*
X140482952Y-92921585D01*
X140432372Y-92871005D01*
X140378416Y-92817049D01*
X138854822Y-91293455D01*
X137323574Y-89762206D01*
X137290089Y-89700883D01*
X137295073Y-89631191D01*
X137336945Y-89575258D01*
X137402409Y-89550841D01*
X137449569Y-89556593D01*
G37*
%TD.AperFunction*%
%TA.AperFunction,Conductor*%
G36*
X140591539Y-78970185D02*
G01*
X140637294Y-79022989D01*
X140648500Y-79074500D01*
X140648500Y-82745144D01*
X140663333Y-82800500D01*
X140663332Y-82800500D01*
X140663333Y-82800502D01*
X140672384Y-82834284D01*
X140672385Y-82834286D01*
X140672386Y-82834288D01*
X140680829Y-82848912D01*
X140718527Y-82914208D01*
X140718529Y-82914211D01*
X140718530Y-82914212D01*
X141417499Y-83613181D01*
X142113181Y-84308862D01*
X142146666Y-84370185D01*
X142149500Y-84396543D01*
X142149500Y-84472475D01*
X142184859Y-84604434D01*
X142187017Y-84612488D01*
X142259488Y-84738011D01*
X142259490Y-84738013D01*
X142259491Y-84738015D01*
X142361985Y-84840509D01*
X142361986Y-84840510D01*
X142361988Y-84840511D01*
X142487511Y-84912982D01*
X142487512Y-84912982D01*
X142487515Y-84912984D01*
X142627525Y-84950500D01*
X142627528Y-84950500D01*
X142772472Y-84950500D01*
X142772475Y-84950500D01*
X142912485Y-84912984D01*
X143038015Y-84840509D01*
X143067318Y-84811205D01*
X143128638Y-84777721D01*
X143198330Y-84782705D01*
X143254264Y-84824575D01*
X143274771Y-84866789D01*
X143282000Y-84893766D01*
X143287017Y-84912489D01*
X143359488Y-85038011D01*
X143359490Y-85038013D01*
X143359491Y-85038015D01*
X143461985Y-85140509D01*
X143511894Y-85169324D01*
X143524262Y-85176465D01*
X143572477Y-85227033D01*
X143585699Y-85295640D01*
X143559731Y-85360505D01*
X143549943Y-85371533D01*
X143459488Y-85461988D01*
X143387017Y-85587511D01*
X143387016Y-85587515D01*
X143349500Y-85727525D01*
X143349500Y-85872475D01*
X143376540Y-85973387D01*
X143387017Y-86012488D01*
X143459488Y-86138011D01*
X143459490Y-86138013D01*
X143459491Y-86138015D01*
X143561985Y-86240509D01*
X143561986Y-86240510D01*
X143561988Y-86240511D01*
X143687511Y-86312982D01*
X143687512Y-86312982D01*
X143687515Y-86312984D01*
X143827525Y-86350500D01*
X143827528Y-86350500D01*
X143972472Y-86350500D01*
X143972475Y-86350500D01*
X144112485Y-86312984D01*
X144238015Y-86240509D01*
X144291705Y-86186819D01*
X144318632Y-86172115D01*
X144344451Y-86155523D01*
X144350651Y-86154631D01*
X144353028Y-86153334D01*
X144379386Y-86150500D01*
X144483180Y-86150500D01*
X144550219Y-86170185D01*
X144595974Y-86222989D01*
X144605918Y-86292147D01*
X144604798Y-86298690D01*
X144599500Y-86325326D01*
X144599500Y-87274678D01*
X144614032Y-87347735D01*
X144614033Y-87347739D01*
X144630839Y-87372891D01*
X144669399Y-87430601D01*
X144693790Y-87446898D01*
X144738594Y-87500511D01*
X144747301Y-87569836D01*
X144717146Y-87632863D01*
X144693790Y-87653102D01*
X144669399Y-87669399D01*
X144614033Y-87752260D01*
X144614032Y-87752264D01*
X144599500Y-87825321D01*
X144599500Y-87825500D01*
X144599473Y-87825589D01*
X144598903Y-87831386D01*
X144597803Y-87831277D01*
X144579815Y-87892539D01*
X144527011Y-87938294D01*
X144475500Y-87949500D01*
X143046544Y-87949500D01*
X142979505Y-87929815D01*
X142958863Y-87913181D01*
X142506606Y-87460924D01*
X142506601Y-87460920D01*
X142426683Y-87414780D01*
X142426682Y-87414779D01*
X142426681Y-87414779D01*
X142337537Y-87390893D01*
X142337536Y-87390893D01*
X141487993Y-87390893D01*
X141420954Y-87371208D01*
X141400312Y-87354574D01*
X141346624Y-87300886D01*
X141346618Y-87300881D01*
X141221095Y-87228410D01*
X141221096Y-87228410D01*
X141188959Y-87219799D01*
X141081082Y-87190893D01*
X140936132Y-87190893D01*
X140828255Y-87219799D01*
X140796118Y-87228410D01*
X140670595Y-87300881D01*
X140670589Y-87300886D01*
X140568100Y-87403375D01*
X140568095Y-87403381D01*
X140495624Y-87528904D01*
X140495623Y-87528908D01*
X140458107Y-87668918D01*
X140458107Y-87813868D01*
X140491447Y-87938294D01*
X140495624Y-87953881D01*
X140568095Y-88079404D01*
X140568100Y-88079410D01*
X140642401Y-88153711D01*
X140675886Y-88215034D01*
X140670902Y-88284726D01*
X140642402Y-88329072D01*
X140559494Y-88411981D01*
X140559488Y-88411988D01*
X140487017Y-88537511D01*
X140487016Y-88537515D01*
X140449500Y-88677525D01*
X140449500Y-88822475D01*
X140483455Y-88949194D01*
X140487017Y-88962488D01*
X140559488Y-89088011D01*
X140559490Y-89088013D01*
X140559491Y-89088015D01*
X140661985Y-89190509D01*
X140661986Y-89190510D01*
X140661988Y-89190511D01*
X140787511Y-89262982D01*
X140787512Y-89262982D01*
X140787515Y-89262984D01*
X140927525Y-89300500D01*
X141003456Y-89300500D01*
X141070495Y-89320185D01*
X141091137Y-89336819D01*
X141743137Y-89988819D01*
X141776622Y-90050142D01*
X141771638Y-90119834D01*
X141729766Y-90175767D01*
X141664302Y-90200184D01*
X141655456Y-90200500D01*
X141313229Y-90200500D01*
X141246190Y-90180815D01*
X141225548Y-90164181D01*
X139623862Y-88562495D01*
X139590377Y-88501172D01*
X139593611Y-88436498D01*
X139609860Y-88386493D01*
X139633534Y-88237016D01*
X139650500Y-88129902D01*
X139650500Y-87870097D01*
X139624517Y-87706049D01*
X139609860Y-87613507D01*
X139529579Y-87366428D01*
X139529577Y-87366425D01*
X139529577Y-87366423D01*
X139459254Y-87228409D01*
X139411634Y-87134949D01*
X139258931Y-86924771D01*
X139075229Y-86741069D01*
X139042071Y-86716978D01*
X138865052Y-86588366D01*
X138818204Y-86564495D01*
X138767408Y-86516520D01*
X138750500Y-86454011D01*
X138750500Y-83345987D01*
X138770185Y-83278948D01*
X138818204Y-83235503D01*
X138865051Y-83211634D01*
X139075229Y-83058931D01*
X139258931Y-82875229D01*
X139411634Y-82665051D01*
X139529579Y-82433572D01*
X139609860Y-82186493D01*
X139632722Y-82042147D01*
X139650500Y-81929902D01*
X139650500Y-81670097D01*
X139626597Y-81519185D01*
X139609860Y-81413507D01*
X139529579Y-81166428D01*
X139529577Y-81166425D01*
X139529577Y-81166423D01*
X139478713Y-81066598D01*
X139411634Y-80934949D01*
X139258931Y-80724771D01*
X139075229Y-80541069D01*
X138974015Y-80467533D01*
X138865054Y-80388368D01*
X138865053Y-80388367D01*
X138865051Y-80388366D01*
X138753222Y-80331386D01*
X138633576Y-80270422D01*
X138386493Y-80190140D01*
X138129902Y-80149500D01*
X138129897Y-80149500D01*
X137870103Y-80149500D01*
X137870098Y-80149500D01*
X137613505Y-80190140D01*
X137613502Y-80190140D01*
X137449573Y-80243405D01*
X137379732Y-80245400D01*
X137319899Y-80209320D01*
X137289071Y-80146619D01*
X137297036Y-80077205D01*
X137323571Y-80037796D01*
X138374549Y-78986819D01*
X138435872Y-78953334D01*
X138462230Y-78950500D01*
X140524500Y-78950500D01*
X140591539Y-78970185D01*
G37*
%TD.AperFunction*%
%TA.AperFunction,Conductor*%
G36*
X153580495Y-81519185D02*
G01*
X153626250Y-81571989D01*
X153636194Y-81641147D01*
X153607169Y-81704703D01*
X153601137Y-81711181D01*
X152693767Y-82618550D01*
X152693765Y-82618553D01*
X152666921Y-82665050D01*
X152666919Y-82665052D01*
X152647624Y-82698470D01*
X152647623Y-82698473D01*
X152623736Y-82787620D01*
X152623736Y-83027692D01*
X152604051Y-83094731D01*
X152587417Y-83115373D01*
X152089610Y-83613181D01*
X152028287Y-83646666D01*
X152001929Y-83649500D01*
X151953856Y-83649500D01*
X151864712Y-83673386D01*
X151864711Y-83673386D01*
X151864709Y-83673387D01*
X151864706Y-83673388D01*
X151784794Y-83719526D01*
X151784785Y-83719533D01*
X149192137Y-86312181D01*
X149130814Y-86345666D01*
X149104456Y-86348500D01*
X148166868Y-86348500D01*
X148099829Y-86328815D01*
X148054074Y-86276011D01*
X148044130Y-86206853D01*
X148045251Y-86200308D01*
X148050500Y-86173920D01*
X148050500Y-86026079D01*
X148021659Y-85881092D01*
X148021658Y-85881091D01*
X148021658Y-85881087D01*
X148018090Y-85872472D01*
X147997164Y-85821952D01*
X147989695Y-85752483D01*
X148020970Y-85690004D01*
X148081059Y-85654352D01*
X148111725Y-85650500D01*
X148646142Y-85650500D01*
X148646144Y-85650500D01*
X148735288Y-85626614D01*
X148743998Y-85621584D01*
X148744001Y-85621584D01*
X148744001Y-85621583D01*
X148815212Y-85580470D01*
X152859863Y-81535819D01*
X152921186Y-81502334D01*
X152947544Y-81499500D01*
X153513456Y-81499500D01*
X153580495Y-81519185D01*
G37*
%TD.AperFunction*%
%TD*%
%TA.AperFunction,Conductor*%
%TO.N,/BAT-*%
G36*
X152738652Y-93670185D02*
G01*
X152784407Y-93722989D01*
X152794351Y-93792147D01*
X152765326Y-93855703D01*
X152759295Y-93862181D01*
X152659488Y-93961988D01*
X152587017Y-94087511D01*
X152587016Y-94087515D01*
X152549500Y-94227525D01*
X152549500Y-94372475D01*
X152564251Y-94427525D01*
X152587017Y-94512488D01*
X152659488Y-94638011D01*
X152659493Y-94638017D01*
X152763681Y-94742205D01*
X152797166Y-94803528D01*
X152800000Y-94829886D01*
X152800000Y-103278069D01*
X152783387Y-103340069D01*
X152763387Y-103374709D01*
X152763386Y-103374712D01*
X152739500Y-103463856D01*
X152739500Y-107500000D01*
X150817390Y-107500000D01*
X150819685Y-107492183D01*
X150820840Y-107490418D01*
X150877584Y-107405495D01*
X150934158Y-107268913D01*
X150963000Y-107123918D01*
X150963000Y-106976082D01*
X150963000Y-106976079D01*
X150934159Y-106831092D01*
X150934158Y-106831091D01*
X150934158Y-106831087D01*
X150917264Y-106790301D01*
X150877585Y-106694506D01*
X150877583Y-106694503D01*
X150820898Y-106609667D01*
X150800020Y-106542990D01*
X150800000Y-106540777D01*
X150800000Y-106000000D01*
X150124000Y-106000000D01*
X150056961Y-105980315D01*
X150011206Y-105927511D01*
X150000000Y-105876000D01*
X150000000Y-104051362D01*
X150019685Y-103984323D01*
X150036319Y-103963681D01*
X150659931Y-103340069D01*
X151400000Y-102600000D01*
X151400000Y-102592276D01*
X151419685Y-102525237D01*
X151424733Y-102517966D01*
X151509125Y-102405230D01*
X151509124Y-102405230D01*
X151509128Y-102405226D01*
X151556912Y-102277114D01*
X151559187Y-102255944D01*
X151562999Y-102220501D01*
X151562999Y-102220494D01*
X151563000Y-102220485D01*
X151562999Y-101679516D01*
X151556912Y-101622886D01*
X151548562Y-101600500D01*
X151516703Y-101515084D01*
X151509128Y-101494774D01*
X151427187Y-101385313D01*
X151424732Y-101382033D01*
X151400316Y-101316568D01*
X151400000Y-101307723D01*
X151400000Y-99248666D01*
X151419066Y-99183734D01*
X151418926Y-99183653D01*
X151419259Y-99183074D01*
X151419685Y-99181627D01*
X151421979Y-99178363D01*
X151457231Y-99117306D01*
X151482297Y-99073889D01*
X151482299Y-99073886D01*
X151513000Y-98959309D01*
X151513000Y-97554051D01*
X151532685Y-97487012D01*
X151536681Y-97481166D01*
X151540544Y-97475847D01*
X151540550Y-97475842D01*
X151598146Y-97362804D01*
X151598146Y-97362802D01*
X151598147Y-97362801D01*
X151612999Y-97269024D01*
X151613000Y-97269019D01*
X151612999Y-96030982D01*
X151598146Y-95937196D01*
X151540550Y-95824158D01*
X151540546Y-95824154D01*
X151540545Y-95824152D01*
X151450847Y-95734454D01*
X151450844Y-95734452D01*
X151450842Y-95734450D01*
X151337804Y-95676854D01*
X151325509Y-95674906D01*
X151305176Y-95671686D01*
X151242041Y-95641756D01*
X151236894Y-95636894D01*
X151100000Y-95500000D01*
X149324000Y-95500000D01*
X149256961Y-95480315D01*
X149211206Y-95427511D01*
X149200000Y-95376000D01*
X149200000Y-93774500D01*
X149219685Y-93707461D01*
X149272489Y-93661706D01*
X149324000Y-93650500D01*
X152671613Y-93650500D01*
X152738652Y-93670185D01*
G37*
%TD.AperFunction*%
%TD*%
%TA.AperFunction,Conductor*%
%TO.N,/BAT-*%
G36*
X137300924Y-124973717D02*
G01*
X137426283Y-125099076D01*
X137563074Y-125190477D01*
X136844953Y-125908598D01*
X136942150Y-125983180D01*
X136942158Y-125983186D01*
X137090121Y-126068613D01*
X137138337Y-126119180D01*
X137151559Y-126187787D01*
X137125591Y-126252652D01*
X137068677Y-126293180D01*
X137028121Y-126300000D01*
X136124000Y-126300000D01*
X136056961Y-126280315D01*
X136011206Y-126227511D01*
X136000000Y-126176000D01*
X136000000Y-125159903D01*
X136019685Y-125092864D01*
X136072489Y-125047109D01*
X136141647Y-125037165D01*
X136205203Y-125066190D01*
X136238561Y-125112451D01*
X136292280Y-125242143D01*
X136292288Y-125242159D01*
X136416813Y-125457841D01*
X136416819Y-125457849D01*
X136491400Y-125555045D01*
X137209521Y-124836923D01*
X137300924Y-124973717D01*
G37*
%TD.AperFunction*%
%TA.AperFunction,Conductor*%
G36*
X152739500Y-111961985D02*
G01*
X152719815Y-112029024D01*
X152703181Y-112049666D01*
X151289166Y-113463681D01*
X151227843Y-113497166D01*
X151201485Y-113500000D01*
X149518199Y-113500000D01*
X149471132Y-113487381D01*
X149469995Y-113490127D01*
X149462486Y-113487016D01*
X149427482Y-113477637D01*
X149322475Y-113449500D01*
X149177525Y-113449500D01*
X149093519Y-113472009D01*
X149037513Y-113487016D01*
X149030005Y-113490127D01*
X149028867Y-113487381D01*
X148981801Y-113500000D01*
X148718196Y-113500000D01*
X148671129Y-113487381D01*
X148669992Y-113490127D01*
X148662483Y-113487016D01*
X148627479Y-113477637D01*
X148522472Y-113449500D01*
X148377522Y-113449500D01*
X148293516Y-113472009D01*
X148237510Y-113487016D01*
X148230002Y-113490127D01*
X148228864Y-113487381D01*
X148181798Y-113500000D01*
X147918193Y-113500000D01*
X147871126Y-113487381D01*
X147869989Y-113490127D01*
X147862480Y-113487016D01*
X147827476Y-113477637D01*
X147722469Y-113449500D01*
X147577519Y-113449500D01*
X147493513Y-113472009D01*
X147437507Y-113487016D01*
X147429999Y-113490127D01*
X147428861Y-113487381D01*
X147381795Y-113500000D01*
X147118190Y-113500000D01*
X147071123Y-113487381D01*
X147069986Y-113490127D01*
X147062477Y-113487016D01*
X147027473Y-113477637D01*
X146922466Y-113449500D01*
X146777516Y-113449500D01*
X146693510Y-113472009D01*
X146637504Y-113487016D01*
X146629996Y-113490127D01*
X146628858Y-113487381D01*
X146581792Y-113500000D01*
X146318187Y-113500000D01*
X146271120Y-113487381D01*
X146269983Y-113490127D01*
X146262474Y-113487016D01*
X146227470Y-113477637D01*
X146122463Y-113449500D01*
X145977513Y-113449500D01*
X145893507Y-113472009D01*
X145837501Y-113487016D01*
X145829993Y-113490127D01*
X145828855Y-113487381D01*
X145781789Y-113500000D01*
X144899999Y-113500000D01*
X141800000Y-116599999D01*
X141800000Y-125652956D01*
X141780315Y-125719995D01*
X141763681Y-125740637D01*
X141240637Y-126263681D01*
X141179314Y-126297166D01*
X141152956Y-126300000D01*
X139968199Y-126300000D01*
X139921132Y-126287381D01*
X139919995Y-126290127D01*
X139912486Y-126287016D01*
X139877482Y-126277637D01*
X139772475Y-126249500D01*
X139627525Y-126249500D01*
X139543519Y-126272009D01*
X139487513Y-126287016D01*
X139480005Y-126290127D01*
X139478867Y-126287381D01*
X139431801Y-126300000D01*
X139168199Y-126300000D01*
X139134050Y-126295205D01*
X139119399Y-126291008D01*
X139112485Y-126287016D01*
X139003862Y-126257910D01*
X139002835Y-126257616D01*
X138974165Y-126239458D01*
X138945230Y-126221820D01*
X138944746Y-126220824D01*
X138943809Y-126220231D01*
X138929499Y-126189437D01*
X138914701Y-126158973D01*
X138914832Y-126157873D01*
X138914365Y-126156868D01*
X138918972Y-126123251D01*
X138922996Y-126089598D01*
X138923701Y-126088743D01*
X138923852Y-126087645D01*
X138945910Y-126061845D01*
X138967482Y-126035720D01*
X138969130Y-126034688D01*
X138969257Y-126034540D01*
X138969468Y-126034476D01*
X138974984Y-126031024D01*
X139057855Y-125983178D01*
X139155045Y-125908600D01*
X139155045Y-125908597D01*
X138436924Y-125190477D01*
X138573717Y-125099076D01*
X138699076Y-124973717D01*
X138790477Y-124836925D01*
X139508597Y-125555045D01*
X139508600Y-125555045D01*
X139583178Y-125457855D01*
X139707711Y-125242159D01*
X139707716Y-125242148D01*
X139803026Y-125012049D01*
X139867491Y-124771463D01*
X139900000Y-124524533D01*
X139900000Y-124275466D01*
X139867491Y-124028536D01*
X139803026Y-123787950D01*
X139707716Y-123557851D01*
X139707711Y-123557840D01*
X139583186Y-123342158D01*
X139583180Y-123342150D01*
X139508598Y-123244953D01*
X138790477Y-123963074D01*
X138699076Y-123826283D01*
X138573717Y-123700924D01*
X138436923Y-123609521D01*
X139155045Y-122891400D01*
X139057849Y-122816819D01*
X139057841Y-122816813D01*
X138842159Y-122692288D01*
X138842148Y-122692283D01*
X138612049Y-122596973D01*
X138371463Y-122532508D01*
X138124534Y-122500000D01*
X137875466Y-122500000D01*
X137628536Y-122532508D01*
X137387950Y-122596973D01*
X137157851Y-122692283D01*
X137157847Y-122692285D01*
X136942143Y-122816823D01*
X136844953Y-122891399D01*
X136844953Y-122891400D01*
X137563075Y-123609522D01*
X137426283Y-123700924D01*
X137300924Y-123826283D01*
X137209522Y-123963075D01*
X136491400Y-123244953D01*
X136491399Y-123244953D01*
X136416823Y-123342143D01*
X136292285Y-123557847D01*
X136292283Y-123557851D01*
X136238561Y-123687549D01*
X136194720Y-123741952D01*
X136128426Y-123764017D01*
X136060727Y-123746738D01*
X136013116Y-123695601D01*
X136000000Y-123640096D01*
X136000000Y-118959903D01*
X136019685Y-118892864D01*
X136072489Y-118847109D01*
X136141647Y-118837165D01*
X136205203Y-118866190D01*
X136238561Y-118912451D01*
X136292280Y-119042143D01*
X136292288Y-119042159D01*
X136416813Y-119257841D01*
X136416819Y-119257849D01*
X136491400Y-119355045D01*
X137209521Y-118636923D01*
X137300924Y-118773717D01*
X137426283Y-118899076D01*
X137563074Y-118990477D01*
X136844953Y-119708598D01*
X136942150Y-119783180D01*
X136942158Y-119783186D01*
X137157840Y-119907711D01*
X137157851Y-119907716D01*
X137387950Y-120003026D01*
X137628536Y-120067491D01*
X137875466Y-120100000D01*
X138124534Y-120100000D01*
X138371463Y-120067491D01*
X138612049Y-120003026D01*
X138842148Y-119907716D01*
X138842159Y-119907711D01*
X139057855Y-119783178D01*
X139155045Y-119708600D01*
X139155045Y-119708597D01*
X138436924Y-118990477D01*
X138573717Y-118899076D01*
X138699076Y-118773717D01*
X138790477Y-118636925D01*
X139508597Y-119355045D01*
X139508600Y-119355045D01*
X139583178Y-119257855D01*
X139707711Y-119042159D01*
X139707716Y-119042148D01*
X139803026Y-118812049D01*
X139867491Y-118571463D01*
X139900000Y-118324533D01*
X139900000Y-118075466D01*
X139867491Y-117828536D01*
X139803026Y-117587950D01*
X139707716Y-117357851D01*
X139707711Y-117357840D01*
X139583186Y-117142158D01*
X139583180Y-117142150D01*
X139508598Y-117044953D01*
X138790477Y-117763074D01*
X138699076Y-117626283D01*
X138573717Y-117500924D01*
X138436923Y-117409521D01*
X139155045Y-116691400D01*
X139057849Y-116616819D01*
X139057841Y-116616813D01*
X138842159Y-116492288D01*
X138842148Y-116492283D01*
X138612049Y-116396973D01*
X138371463Y-116332508D01*
X138124534Y-116300000D01*
X137875466Y-116300000D01*
X137628536Y-116332508D01*
X137387950Y-116396973D01*
X137157851Y-116492283D01*
X137157847Y-116492285D01*
X136942143Y-116616823D01*
X136844953Y-116691399D01*
X136844953Y-116691400D01*
X137563075Y-117409522D01*
X137426283Y-117500924D01*
X137300924Y-117626283D01*
X137209522Y-117763075D01*
X136491400Y-117044953D01*
X136491399Y-117044953D01*
X136416823Y-117142143D01*
X136292285Y-117357847D01*
X136292283Y-117357851D01*
X136238561Y-117487549D01*
X136194720Y-117541952D01*
X136128426Y-117564017D01*
X136060727Y-117546738D01*
X136013116Y-117495601D01*
X136000000Y-117440096D01*
X136000000Y-111424000D01*
X136019685Y-111356961D01*
X136072489Y-111311206D01*
X136124000Y-111300000D01*
X147500000Y-111300000D01*
X150800000Y-108000000D01*
X150800000Y-107559222D01*
X150803662Y-107544836D01*
X150802802Y-107533012D01*
X150812489Y-107510162D01*
X150815077Y-107500000D01*
X152739500Y-107500000D01*
X152739500Y-111961985D01*
G37*
%TD.AperFunction*%
%TD*%
M02*
