%TF.GenerationSoftware,KiCad,Pcbnew,9.0.0-1.fc40*%
%TF.CreationDate,2025-03-21T22:07:14+01:00*%
%TF.ProjectId,airMouse-mcu,6169724d-6f75-4736-952d-6d63752e6b69,v1.0*%
%TF.SameCoordinates,Original*%
%TF.FileFunction,Copper,L2,Bot*%
%TF.FilePolarity,Positive*%
%FSLAX46Y46*%
G04 Gerber Fmt 4.6, Leading zero omitted, Abs format (unit mm)*
G04 Created by KiCad (PCBNEW 9.0.0-1.fc40) date 2025-03-21 22:07:14*
%MOMM*%
%LPD*%
G01*
G04 APERTURE LIST*
G04 Aperture macros list*
%AMRoundRect*
0 Rectangle with rounded corners*
0 $1 Rounding radius*
0 $2 $3 $4 $5 $6 $7 $8 $9 X,Y pos of 4 corners*
0 Add a 4 corners polygon primitive as box body*
4,1,4,$2,$3,$4,$5,$6,$7,$8,$9,$2,$3,0*
0 Add four circle primitives for the rounded corners*
1,1,$1+$1,$2,$3*
1,1,$1+$1,$4,$5*
1,1,$1+$1,$6,$7*
1,1,$1+$1,$8,$9*
0 Add four rect primitives between the rounded corners*
20,1,$1+$1,$2,$3,$4,$5,0*
20,1,$1+$1,$4,$5,$6,$7,0*
20,1,$1+$1,$6,$7,$8,$9,0*
20,1,$1+$1,$8,$9,$2,$3,0*%
G04 Aperture macros list end*
%TA.AperFunction,SMDPad,CuDef*%
%ADD10RoundRect,0.200000X0.200000X0.275000X-0.200000X0.275000X-0.200000X-0.275000X0.200000X-0.275000X0*%
%TD*%
%TA.AperFunction,SMDPad,CuDef*%
%ADD11RoundRect,0.225000X0.225000X0.250000X-0.225000X0.250000X-0.225000X-0.250000X0.225000X-0.250000X0*%
%TD*%
%TA.AperFunction,SMDPad,CuDef*%
%ADD12RoundRect,0.087500X0.087500X0.225000X-0.087500X0.225000X-0.087500X-0.225000X0.087500X-0.225000X0*%
%TD*%
%TA.AperFunction,SMDPad,CuDef*%
%ADD13RoundRect,0.087500X0.225000X0.087500X-0.225000X0.087500X-0.225000X-0.087500X0.225000X-0.087500X0*%
%TD*%
%TA.AperFunction,SMDPad,CuDef*%
%ADD14RoundRect,0.200000X-0.200000X-0.275000X0.200000X-0.275000X0.200000X0.275000X-0.200000X0.275000X0*%
%TD*%
%TA.AperFunction,ComponentPad*%
%ADD15C,2.800000*%
%TD*%
%TA.AperFunction,SMDPad,CuDef*%
%ADD16C,1.000000*%
%TD*%
%TA.AperFunction,HeatsinkPad*%
%ADD17C,0.600000*%
%TD*%
%TA.AperFunction,SMDPad,CuDef*%
%ADD18RoundRect,0.225000X-0.225000X-0.250000X0.225000X-0.250000X0.225000X0.250000X-0.225000X0.250000X0*%
%TD*%
%TA.AperFunction,SMDPad,CuDef*%
%ADD19R,1.200000X1.200000*%
%TD*%
%TA.AperFunction,SMDPad,CuDef*%
%ADD20RoundRect,0.200000X-0.275000X0.200000X-0.275000X-0.200000X0.275000X-0.200000X0.275000X0.200000X0*%
%TD*%
%TA.AperFunction,SMDPad,CuDef*%
%ADD21RoundRect,0.200000X0.275000X-0.200000X0.275000X0.200000X-0.275000X0.200000X-0.275000X-0.200000X0*%
%TD*%
%TA.AperFunction,SMDPad,CuDef*%
%ADD22RoundRect,0.200000X-0.053033X0.335876X-0.335876X0.053033X0.053033X-0.335876X0.335876X-0.053033X0*%
%TD*%
%TA.AperFunction,SMDPad,CuDef*%
%ADD23RoundRect,0.225000X0.335876X0.017678X0.017678X0.335876X-0.335876X-0.017678X-0.017678X-0.335876X0*%
%TD*%
%TA.AperFunction,SMDPad,CuDef*%
%ADD24R,0.600000X1.800000*%
%TD*%
%TA.AperFunction,SMDPad,CuDef*%
%ADD25R,2.500000X3.000000*%
%TD*%
%TA.AperFunction,SMDPad,CuDef*%
%ADD26RoundRect,0.250000X0.159099X-0.512652X0.512652X-0.159099X-0.159099X0.512652X-0.512652X0.159099X0*%
%TD*%
%TA.AperFunction,SMDPad,CuDef*%
%ADD27R,1.800000X0.600000*%
%TD*%
%TA.AperFunction,SMDPad,CuDef*%
%ADD28R,3.000000X2.500000*%
%TD*%
%TA.AperFunction,SMDPad,CuDef*%
%ADD29RoundRect,0.225000X-0.250000X0.225000X-0.250000X-0.225000X0.250000X-0.225000X0.250000X0.225000X0*%
%TD*%
%TA.AperFunction,SMDPad,CuDef*%
%ADD30RoundRect,0.250000X-0.475000X0.250000X-0.475000X-0.250000X0.475000X-0.250000X0.475000X0.250000X0*%
%TD*%
%TA.AperFunction,SMDPad,CuDef*%
%ADD31RoundRect,0.225000X0.017678X-0.335876X0.335876X-0.017678X-0.017678X0.335876X-0.335876X0.017678X0*%
%TD*%
%TA.AperFunction,ComponentPad*%
%ADD32R,1.700000X1.700000*%
%TD*%
%TA.AperFunction,ComponentPad*%
%ADD33O,1.700000X1.700000*%
%TD*%
%TA.AperFunction,SMDPad,CuDef*%
%ADD34RoundRect,0.075000X-0.548008X-0.441942X-0.441942X-0.548008X0.548008X0.441942X0.441942X0.548008X0*%
%TD*%
%TA.AperFunction,SMDPad,CuDef*%
%ADD35RoundRect,0.075000X-0.548008X0.441942X0.441942X-0.548008X0.548008X-0.441942X-0.441942X0.548008X0*%
%TD*%
%TA.AperFunction,SMDPad,CuDef*%
%ADD36RoundRect,0.225000X-0.335876X-0.017678X-0.017678X-0.335876X0.335876X0.017678X0.017678X0.335876X0*%
%TD*%
%TA.AperFunction,SMDPad,CuDef*%
%ADD37RoundRect,0.175000X-1.175000X0.175000X-1.175000X-0.175000X1.175000X-0.175000X1.175000X0.175000X0*%
%TD*%
%TA.AperFunction,SMDPad,CuDef*%
%ADD38RoundRect,0.250000X-0.700000X0.300000X-0.700000X-0.300000X0.700000X-0.300000X0.700000X0.300000X0*%
%TD*%
%TA.AperFunction,ViaPad*%
%ADD39C,0.600000*%
%TD*%
%TA.AperFunction,ViaPad*%
%ADD40C,1.000000*%
%TD*%
%TA.AperFunction,Conductor*%
%ADD41C,0.200000*%
%TD*%
%TA.AperFunction,Conductor*%
%ADD42C,0.400000*%
%TD*%
%TA.AperFunction,Conductor*%
%ADD43C,0.300000*%
%TD*%
G04 APERTURE END LIST*
D10*
%TO.P,R9,2*%
%TO.N,/SCL*%
X136630113Y-95200000D03*
%TO.P,R9,1*%
%TO.N,/MCU_3V3*%
X138280113Y-95200000D03*
%TD*%
D11*
%TO.P,C5,2*%
%TO.N,GND*%
X133680113Y-102400000D03*
%TO.P,C5,1*%
%TO.N,/SENSOR_3V3*%
X135230113Y-102400000D03*
%TD*%
%TO.P,C4,2*%
%TO.N,GND*%
X133680113Y-104000000D03*
%TO.P,C4,1*%
%TO.N,/SENSOR_3V3*%
X135230113Y-104000000D03*
%TD*%
D10*
%TO.P,R8,2*%
%TO.N,/SDA*%
X136630113Y-96800000D03*
%TO.P,R8,1*%
%TO.N,/MCU_3V3*%
X138280113Y-96800000D03*
%TD*%
D12*
%TO.P,U1,14,SDA*%
%TO.N,/SDA*%
X134755113Y-99087500D03*
%TO.P,U1,13,SCL*%
%TO.N,/SCL*%
X134255113Y-99087500D03*
%TO.P,U1,12,CS*%
%TO.N,Net-(U1-CS)*%
X133755113Y-99087500D03*
D13*
%TO.P,U1,11,NC*%
%TO.N,unconnected-(U1-NC-Pad11)*%
X133092613Y-99250000D03*
%TO.P,U1,10,NC*%
%TO.N,unconnected-(U1-NC-Pad10)*%
X133092613Y-99750000D03*
%TO.P,U1,9,INT2*%
%TO.N,unconnected-(U1-INT2-Pad9)*%
X133092613Y-100250000D03*
%TO.P,U1,8,VDD*%
%TO.N,/SENSOR_3V3*%
X133092613Y-100750000D03*
D12*
%TO.P,U1,7,GND*%
%TO.N,GND*%
X133755113Y-100912500D03*
%TO.P,U1,6,GND*%
X134255113Y-100912500D03*
%TO.P,U1,5,VDDIO*%
%TO.N,/SENSOR_3V3*%
X134755113Y-100912500D03*
D13*
%TO.P,U1,4,INT1*%
%TO.N,/GYRO_INT*%
X135417613Y-100750000D03*
%TO.P,U1,3,SCX*%
%TO.N,GND*%
X135417613Y-100250000D03*
%TO.P,U1,2,SDX*%
X135417613Y-99750000D03*
%TO.P,U1,1,SDO/SA0*%
%TO.N,Net-(U1-SDO{slash}SA0)*%
X135417613Y-99250000D03*
%TD*%
D14*
%TO.P,R4,2*%
%TO.N,/SENSOR_3V3*%
X138880113Y-101800000D03*
%TO.P,R4,1*%
%TO.N,+3V3*%
X137230113Y-101800000D03*
%TD*%
%TO.P,R3,2*%
%TO.N,/MCU_3V3*%
X138880113Y-100200000D03*
%TO.P,R3,1*%
%TO.N,+3V3*%
X137230113Y-100200000D03*
%TD*%
%TO.P,R1,2*%
%TO.N,Net-(U1-CS)*%
X135080113Y-96300000D03*
%TO.P,R1,1*%
%TO.N,/SENSOR_3V3*%
X133430113Y-96300000D03*
%TD*%
%TO.P,R2,2*%
%TO.N,GND*%
X138880113Y-98600000D03*
%TO.P,R2,1*%
%TO.N,Net-(U1-SDO{slash}SA0)*%
X137230113Y-98600000D03*
%TD*%
D15*
%TO.P,BT1,2,-*%
%TO.N,/BAT-*%
X138000000Y-124400000D03*
X138000000Y-118200000D03*
%TO.P,BT1,1,+*%
%TO.N,/BAT+*%
X138000000Y-88000000D03*
X138000000Y-81800000D03*
%TD*%
D16*
%TO.P,TP4,1,1*%
%TO.N,/AT_MCU_TX*%
X141300000Y-85100000D03*
%TD*%
%TO.P,TP3,1,1*%
%TO.N,/AT_MCU_RX*%
X142600000Y-86900000D03*
%TD*%
D17*
%TO.P,U5,19,GND*%
%TO.N,GND*%
X154210000Y-83450000D03*
X154210000Y-84550000D03*
X154760000Y-82900000D03*
X154760000Y-84000000D03*
X154760000Y-85100000D03*
X155310000Y-83450000D03*
X155310000Y-84550000D03*
X155860000Y-82900000D03*
X155860000Y-84000000D03*
X155860000Y-85100000D03*
X156410000Y-83450000D03*
X156410000Y-84550000D03*
%TD*%
D18*
%TO.P,C8,1*%
%TO.N,/mouse/MOUSE_LB*%
X141400000Y-113600000D03*
%TO.P,C8,2*%
%TO.N,GND*%
X142950000Y-113600000D03*
%TD*%
D19*
%TO.P,SW1,1,A*%
%TO.N,Net-(SW1-A)*%
X151575000Y-78250000D03*
X156025000Y-78250000D03*
%TO.P,SW1,2,B*%
%TO.N,+3V3*%
X151575000Y-81750000D03*
X156025000Y-81750000D03*
%TD*%
D20*
%TO.P,R17,1*%
%TO.N,/ESP_3V3*%
X159600000Y-79175000D03*
%TO.P,R17,2*%
%TO.N,Net-(U5-IO2)*%
X159600000Y-80825000D03*
%TD*%
D21*
%TO.P,R25,1*%
%TO.N,Net-(J5-Pin_9)*%
X141400000Y-117000000D03*
%TO.P,R25,2*%
%TO.N,/mouse/MOUSE_LB*%
X141400000Y-115350000D03*
%TD*%
D10*
%TO.P,R19,2*%
%TO.N,Net-(SW1-A)*%
X161575000Y-82200000D03*
%TO.P,R19,1*%
%TO.N,Net-(LD1-A)*%
X163225000Y-82200000D03*
%TD*%
D22*
%TO.P,R7,2*%
%TO.N,/RST*%
X155216637Y-87783363D03*
%TO.P,R7,1*%
%TO.N,/MCU_3V3*%
X156383363Y-86616637D03*
%TD*%
D20*
%TO.P,R13,1*%
%TO.N,/ESP_3V3*%
X147400000Y-82750000D03*
%TO.P,R13,2*%
%TO.N,Net-(U5-IO8)*%
X147400000Y-84400000D03*
%TD*%
D23*
%TO.P,C9,2*%
%TO.N,GND*%
X148305278Y-89204445D03*
%TO.P,C9,1*%
%TO.N,Net-(U3-VREF+)*%
X149401294Y-90300461D03*
%TD*%
D24*
%TO.P,J5,1,Pin_1*%
%TO.N,GND*%
X154300000Y-120312500D03*
%TO.P,J5,2,Pin_2*%
%TO.N,/mouse/MOUSE_DPI*%
X153300000Y-120312500D03*
%TO.P,J5,3,Pin_3*%
%TO.N,/mouse/MOUSE_HOME*%
X152300000Y-120312500D03*
%TO.P,J5,4,Pin_4*%
%TO.N,/mouse/MOUSE_PRC*%
X151300000Y-120312500D03*
%TO.P,J5,5,Pin_5*%
%TO.N,/mouse/MOUSE_DN*%
X150300000Y-120312500D03*
%TO.P,J5,6,Pin_6*%
%TO.N,/mouse/MOUSE_UP*%
X149300000Y-120312500D03*
%TO.P,J5,7,Pin_7*%
%TO.N,/mouse/MOUSE_RB*%
X148300000Y-120312500D03*
%TO.P,J5,8,Pin_8*%
%TO.N,/mouse/MOUSE_MB*%
X147300000Y-120312500D03*
%TO.P,J5,9,Pin_9*%
%TO.N,Net-(J5-Pin_9)*%
X146300000Y-120312500D03*
%TO.P,J5,10,Pin_10*%
%TO.N,+3V3*%
X145300000Y-120312500D03*
D25*
%TO.P,J5,MP,MountPin*%
%TO.N,GND*%
X156800000Y-122912500D03*
X142800000Y-122912500D03*
%TD*%
D26*
%TO.P,C12,2*%
%TO.N,GND*%
X152071751Y-85728249D03*
%TO.P,C12,1*%
%TO.N,/MCU_3V3*%
X150728249Y-87071751D03*
%TD*%
D22*
%TO.P,R11,2*%
%TO.N,GND*%
X162916637Y-102583363D03*
%TO.P,R11,1*%
%TO.N,/SWDCLK*%
X164083363Y-101416637D03*
%TD*%
D10*
%TO.P,R12,1*%
%TO.N,/ESP_3V3*%
X140325000Y-79000000D03*
%TO.P,R12,2*%
%TO.N,/ESP_BOOT*%
X138675000Y-79000000D03*
%TD*%
D27*
%TO.P,J6,1,Pin_1*%
%TO.N,GND*%
X161062500Y-119850000D03*
%TO.P,J6,2,Pin_2*%
%TO.N,/mouse/MOUSE_BACK*%
X161062500Y-120850000D03*
%TO.P,J6,3,Pin_3*%
%TO.N,/mouse/MOUSE_FWD*%
X161062500Y-121850000D03*
%TO.P,J6,4,Pin_4*%
%TO.N,+3V3*%
X161062500Y-122850000D03*
D28*
%TO.P,J6,MP,MountPin*%
%TO.N,GND*%
X163662500Y-117350000D03*
X163662500Y-125350000D03*
%TD*%
D29*
%TO.P,C15,1*%
%TO.N,/ESP_3V3*%
X144200000Y-81050000D03*
%TO.P,C15,2*%
%TO.N,GND*%
X144200000Y-82600000D03*
%TD*%
D30*
%TO.P,C16,1*%
%TO.N,/ESP_3V3*%
X142400000Y-81050001D03*
%TO.P,C16,2*%
%TO.N,GND*%
X142400000Y-82949999D03*
%TD*%
D31*
%TO.P,C11,2*%
%TO.N,GND*%
X152948008Y-87351992D03*
%TO.P,C11,1*%
%TO.N,/MCU_3V3*%
X151851992Y-88448008D03*
%TD*%
%TO.P,C10,2*%
%TO.N,GND*%
X150748008Y-84451992D03*
%TO.P,C10,1*%
%TO.N,/MCU_3V3*%
X149651992Y-85548008D03*
%TD*%
D32*
%TO.P,LD1,1,K*%
%TO.N,GND*%
X166400000Y-79600000D03*
D33*
%TO.P,LD1,2,A*%
%TO.N,Net-(LD1-A)*%
X166400000Y-82140000D03*
%TD*%
D34*
%TO.P,U3,64,PC10*%
%TO.N,/mouse/MOUSE_DN*%
X152735519Y-95761181D03*
%TO.P,U3,63,PB9*%
%TO.N,/COL9*%
X153089072Y-96114734D03*
%TO.P,U3,62,PB8*%
%TO.N,/COL8*%
X153442625Y-96468287D03*
%TO.P,U3,61,PB7*%
%TO.N,/COL7*%
X153796179Y-96821841D03*
%TO.P,U3,60,PB6*%
%TO.N,/COL6*%
X154149732Y-97175394D03*
%TO.P,U3,59,PB5*%
%TO.N,/COL5*%
X154503286Y-97528948D03*
%TO.P,U3,58,PB4*%
%TO.N,/COL4*%
X154856839Y-97882501D03*
%TO.P,U3,57,PB3*%
%TO.N,/COL3*%
X155210392Y-98236054D03*
%TO.P,U3,56,PD6*%
%TO.N,unconnected-(U3-PD6-Pad56)*%
X155563946Y-98589608D03*
%TO.P,U3,55,PD5*%
%TO.N,/Keyboard/KEY_ROW5*%
X155917499Y-98943161D03*
%TO.P,U3,54,PD4*%
%TO.N,/Keyboard/KEY_ROW4*%
X156271052Y-99296714D03*
%TO.P,U3,53,PD3*%
%TO.N,/Keyboard/KEY_ROW3*%
X156624606Y-99650268D03*
%TO.P,U3,52,PD2*%
%TO.N,/Keyboard/KEY_ROW2*%
X156978159Y-100003821D03*
%TO.P,U3,51,PD1*%
%TO.N,/Keyboard/KEY_ROW1*%
X157331713Y-100357375D03*
%TO.P,U3,50,PD0*%
%TO.N,unconnected-(U3-PD0-Pad50)*%
X157685266Y-100710928D03*
%TO.P,U3,49,PC9*%
%TO.N,/mouse/MOUSE_UP*%
X158038819Y-101064481D03*
D35*
%TO.P,U3,48,PC8*%
%TO.N,/mouse/MOUSE_RB*%
X160761181Y-101064481D03*
%TO.P,U3,47,PA15*%
%TO.N,unconnected-(U3-PA15-Pad47)*%
X161114734Y-100710928D03*
%TO.P,U3,46,PA14*%
%TO.N,/SWDCLK*%
X161468287Y-100357375D03*
%TO.P,U3,45,PA13*%
%TO.N,/SWDIO*%
X161821841Y-100003821D03*
%TO.P,U3,44,PA12/PA10*%
%TO.N,unconnected-(U3-PA12{slash}PA10-Pad44)*%
X162175394Y-99650268D03*
%TO.P,U3,43,PA11/PA9*%
%TO.N,unconnected-(U3-PA11{slash}PA9-Pad43)*%
X162528948Y-99296714D03*
%TO.P,U3,42,PA10/UCPD1_DBCC2*%
%TO.N,/SDA*%
X162882501Y-98943161D03*
%TO.P,U3,41,PD9*%
%TO.N,unconnected-(U3-PD9-Pad41)*%
X163236054Y-98589608D03*
%TO.P,U3,40,PD8*%
%TO.N,unconnected-(U3-PD8-Pad40)*%
X163589608Y-98236054D03*
%TO.P,U3,39,PC7*%
%TO.N,/mouse/MOUSE_MB*%
X163943161Y-97882501D03*
%TO.P,U3,38,PC6*%
%TO.N,/mouse/MOUSE_LB*%
X164296714Y-97528948D03*
%TO.P,U3,37,PA9/UCPD1_DBCC1*%
%TO.N,/SCL*%
X164650268Y-97175394D03*
%TO.P,U3,36,PA8*%
%TO.N,unconnected-(U3-PA8-Pad36)*%
X165003821Y-96821841D03*
%TO.P,U3,35,PB15*%
%TO.N,/ESP_EN*%
X165357375Y-96468287D03*
%TO.P,U3,34,PB14*%
%TO.N,/ESP_BOOT*%
X165710928Y-96114734D03*
%TO.P,U3,33,PB13*%
%TO.N,unconnected-(U3-PB13-Pad33)*%
X166064481Y-95761181D03*
D34*
%TO.P,U3,32,PB12*%
%TO.N,unconnected-(U3-PB12-Pad32)*%
X166064481Y-93038819D03*
%TO.P,U3,31,PB11*%
%TO.N,unconnected-(U3-PB11-Pad31)*%
X165710928Y-92685266D03*
%TO.P,U3,30,PB10*%
%TO.N,/COL10*%
X165357375Y-92331713D03*
%TO.P,U3,29,PB2*%
%TO.N,/COL2*%
X165003821Y-91978159D03*
%TO.P,U3,28,PB1*%
%TO.N,/COL1*%
X164650268Y-91624606D03*
%TO.P,U3,27,PB0*%
%TO.N,/ADC*%
X164296714Y-91271052D03*
%TO.P,U3,26,PC5*%
%TO.N,/AT_MCU_RX*%
X163943161Y-90917499D03*
%TO.P,U3,25,PC4*%
%TO.N,/AT_MCU_TX*%
X163589608Y-90563946D03*
%TO.P,U3,24,PA7*%
%TO.N,unconnected-(U3-PA7-Pad24)*%
X163236054Y-90210392D03*
%TO.P,U3,23,PA6*%
%TO.N,unconnected-(U3-PA6-Pad23)*%
X162882501Y-89856839D03*
%TO.P,U3,22,PA5*%
%TO.N,/STBY*%
X162528948Y-89503286D03*
%TO.P,U3,21,PA4*%
%TO.N,/LOW_BAT*%
X162175394Y-89149732D03*
%TO.P,U3,20,PA3*%
%TO.N,/DBR_RX*%
X161821841Y-88796179D03*
%TO.P,U3,19,PA2*%
%TO.N,/DBG_TX*%
X161468287Y-88442625D03*
%TO.P,U3,18,PA1*%
%TO.N,/CONN*%
X161114734Y-88089072D03*
%TO.P,U3,17,PA0*%
%TO.N,/GYRO_INT*%
X160761181Y-87735519D03*
D35*
%TO.P,U3,16,PC3*%
%TO.N,unconnected-(U3-PC3-Pad16)*%
X158038819Y-87735519D03*
%TO.P,U3,15,PC2*%
%TO.N,unconnected-(U3-PC2-Pad15)*%
X157685266Y-88089072D03*
%TO.P,U3,14,PC1*%
%TO.N,unconnected-(U3-PC1-Pad14)*%
X157331713Y-88442625D03*
%TO.P,U3,13,PC0*%
%TO.N,unconnected-(U3-PC0-Pad13)*%
X156978159Y-88796179D03*
%TO.P,U3,12,PF2*%
%TO.N,/RST*%
X156624606Y-89149732D03*
%TO.P,U3,11,PF1*%
%TO.N,unconnected-(U3-PF1-Pad11)*%
X156271052Y-89503286D03*
%TO.P,U3,10,PF0*%
%TO.N,unconnected-(U3-PF0-Pad10)*%
X155917499Y-89856839D03*
%TO.P,U3,9,VSS*%
%TO.N,GND*%
X155563946Y-90210392D03*
%TO.P,U3,8,VDD*%
%TO.N,/MCU_3V3*%
X155210392Y-90563946D03*
%TO.P,U3,7,VREF+*%
%TO.N,Net-(U3-VREF+)*%
X154856839Y-90917499D03*
%TO.P,U3,6,VBAT*%
%TO.N,/MCU_3V3*%
X154503286Y-91271052D03*
%TO.P,U3,5,PC15*%
%TO.N,/mouse/MOUSE_BACK*%
X154149732Y-91624606D03*
%TO.P,U3,4,PC14*%
%TO.N,/mouse/MOUSE_FWD*%
X153796179Y-91978159D03*
%TO.P,U3,3,PC13*%
%TO.N,/mouse/MOUSE_DPI*%
X153442625Y-92331713D03*
%TO.P,U3,2,PC12*%
%TO.N,/mouse/MOUSE_HOME*%
X153089072Y-92685266D03*
%TO.P,U3,1,PC11*%
%TO.N,/mouse/MOUSE_PRC*%
X152735519Y-93038819D03*
%TD*%
D16*
%TO.P,TP2,1,1*%
%TO.N,/DBR_RX*%
X164800000Y-87500000D03*
%TD*%
%TO.P,TP1,1,1*%
%TO.N,/DBG_TX*%
X163400000Y-85700000D03*
%TD*%
D36*
%TO.P,FB1,2*%
%TO.N,Net-(U3-VREF+)*%
X150548008Y-89348008D03*
%TO.P,FB1,1*%
%TO.N,/MCU_3V3*%
X149451992Y-88251992D03*
%TD*%
D20*
%TO.P,R18,1*%
%TO.N,/ESP_3V3*%
X149000000Y-77950000D03*
%TO.P,R18,2*%
%TO.N,/ESP_EN*%
X149000000Y-79600000D03*
%TD*%
D29*
%TO.P,C14,1*%
%TO.N,/ESP_EN*%
X149000000Y-81025000D03*
%TO.P,C14,2*%
%TO.N,GND*%
X149000000Y-82575000D03*
%TD*%
D37*
%TO.P,J2,1,Pin_1*%
%TO.N,/PRG_ESP_RX*%
X161400000Y-109650000D03*
%TO.P,J2,2,Pin_2*%
%TO.N,/PRG_ESP_TX*%
X161400000Y-111150000D03*
%TO.P,J2,3,Pin_3*%
%TO.N,GND*%
X161400000Y-112650000D03*
D38*
%TO.P,J2,MP,MountPin*%
X165100000Y-107700000D03*
X165100000Y-114600000D03*
%TD*%
D39*
%TO.N,GND*%
X135700000Y-124400000D03*
X139700000Y-126800000D03*
X138900000Y-126800000D03*
X138100000Y-126800000D03*
X149200000Y-98800000D03*
X149200000Y-99500000D03*
X148500000Y-99500000D03*
X147000000Y-88800000D03*
X147000000Y-89500000D03*
X147300000Y-90100000D03*
X147900000Y-90500000D03*
X151000000Y-92600000D03*
X144000000Y-89750000D03*
X143250000Y-89000000D03*
X144000000Y-89000000D03*
X143250000Y-124750000D03*
X147750000Y-124750000D03*
X133500000Y-78000000D03*
X134250000Y-78000000D03*
X134250000Y-77250000D03*
X133500000Y-77250000D03*
X158750000Y-78000000D03*
X158250000Y-89750000D03*
X159000000Y-89750000D03*
X151500000Y-124250000D03*
X152250000Y-124250000D03*
X153000000Y-124250000D03*
X153750000Y-124250000D03*
X153750000Y-123500000D03*
X153000000Y-123500000D03*
X152250000Y-123500000D03*
X151500000Y-123500000D03*
X136250000Y-106750000D03*
X136250000Y-109750000D03*
X136250000Y-109000000D03*
X136250000Y-108250000D03*
X136250000Y-107500000D03*
%TO.N,/SENSOR_3V3*%
X133300000Y-97800000D03*
X132917613Y-105517613D03*
%TO.N,GND*%
X133900000Y-105500000D03*
%TO.N,/AT_MCU_RX*%
X143900000Y-85800000D03*
%TO.N,/AT_MCU_TX*%
X143800000Y-84700000D03*
%TO.N,GND*%
X160000000Y-126800000D03*
X165800000Y-126000000D03*
%TO.N,+3V3*%
X164201000Y-122799000D03*
%TO.N,GND*%
X158800000Y-114900000D03*
X158800000Y-114200000D03*
X158800000Y-113500000D03*
X158800000Y-112800000D03*
X158800000Y-112100000D03*
X165700000Y-109800000D03*
X165700000Y-110500000D03*
X165700000Y-111200000D03*
X165700000Y-111900000D03*
X165000000Y-111900000D03*
X165000000Y-111200000D03*
X165000000Y-110500000D03*
X165000000Y-109800000D03*
X150250000Y-92600000D03*
X149500000Y-92600000D03*
X148500000Y-98750000D03*
X148500000Y-98000000D03*
X148500000Y-94500000D03*
X148500000Y-93750000D03*
X159500000Y-78000000D03*
X160500000Y-78000000D03*
X161500000Y-79500000D03*
X161500000Y-78750000D03*
X161500000Y-78000000D03*
X157500000Y-83750000D03*
X158500000Y-86000000D03*
X158500000Y-85250000D03*
X161750000Y-84000000D03*
X161750000Y-83250000D03*
X148500000Y-86000000D03*
X150225735Y-82225735D03*
X150231671Y-80786657D03*
X164500000Y-79500000D03*
X164500000Y-78750000D03*
X164500000Y-78000000D03*
X158250000Y-84500000D03*
X158250000Y-83750000D03*
X133000000Y-109250000D03*
X133000000Y-108500000D03*
X133000000Y-107750000D03*
X133000000Y-107000000D03*
X133750000Y-109250000D03*
X133750000Y-108500000D03*
X133750000Y-107750000D03*
X133750000Y-107000000D03*
X138750000Y-104500000D03*
X138211906Y-101000000D03*
%TO.N,/mouse/MOUSE_HOME*%
X141000000Y-88750000D03*
X142500000Y-89951000D03*
X135750000Y-91000000D03*
%TO.N,/SENSOR_3V3*%
X134300735Y-97100735D03*
%TO.N,/mouse/MOUSE_HOME*%
X150000000Y-122000000D03*
%TO.N,/PRG_ESP_RX*%
X160750000Y-103000000D03*
%TO.N,/PRG_ESP_TX*%
X160000000Y-102500000D03*
%TO.N,/PRG_ESP_RX*%
X165516085Y-99500000D03*
%TO.N,/PRG_ESP_TX*%
X165516085Y-98500000D03*
%TO.N,/PRG_ESP_RX*%
X161502000Y-85250000D03*
%TO.N,/GYRO_INT*%
X151500000Y-79650000D03*
%TO.N,/PRG_ESP_TX*%
X164750000Y-83500000D03*
%TO.N,/SWDCLK*%
X160282701Y-99532701D03*
%TO.N,/SWDIO*%
X160424265Y-98674265D03*
%TO.N,/RST*%
X160750000Y-97500000D03*
%TO.N,/CONN*%
X166391476Y-86039422D03*
%TO.N,/LOW_BAT*%
X166499000Y-91105005D03*
%TO.N,/STBY*%
X165900000Y-90526472D03*
%TO.N,/ADC*%
X159800000Y-93600000D03*
%TO.N,/SCL*%
X161001000Y-93750000D03*
%TO.N,/SDA*%
X160250000Y-94500000D03*
X151800000Y-91602820D03*
%TO.N,/COL10*%
X162422767Y-95257137D03*
X159224736Y-97974736D03*
%TO.N,GND*%
X157799265Y-92200735D03*
%TO.N,/mouse/MOUSE_FWD*%
X158500000Y-97000999D03*
X161625551Y-106948817D03*
%TO.N,/mouse/MOUSE_BACK*%
X161825735Y-106174265D03*
X159300002Y-97001000D03*
%TO.N,+3V3*%
X143750000Y-119250000D03*
%TO.N,/Keyboard/KEY_ROW5*%
X146049988Y-114000000D03*
%TO.N,/Keyboard/KEY_ROW4*%
X146849991Y-114000000D03*
%TO.N,/Keyboard/KEY_ROW3*%
X147649994Y-114000000D03*
%TO.N,/Keyboard/KEY_ROW2*%
X148449997Y-114000000D03*
%TO.N,/Keyboard/KEY_ROW1*%
X149250000Y-114000000D03*
%TO.N,GND*%
X141750000Y-93750000D03*
X142500000Y-93750000D03*
X143250000Y-93750000D03*
X144000000Y-93750000D03*
X144000000Y-93000000D03*
X143250000Y-93000000D03*
X142500000Y-93000000D03*
X141750000Y-93000000D03*
X140250000Y-85500000D03*
X140250000Y-84750000D03*
X140250000Y-84000000D03*
X152299265Y-83049265D03*
X148300000Y-87300000D03*
%TO.N,/GYRO_INT*%
X138000000Y-97900000D03*
%TO.N,+3V3*%
X137500000Y-104700000D03*
X139900000Y-106700000D03*
D40*
%TO.N,/SENSOR_3V3*%
X137605113Y-103450000D03*
D39*
%TO.N,+3V3*%
X136300000Y-103000000D03*
%TO.N,/GYRO_INT*%
X147500000Y-80700000D03*
X134800000Y-93900000D03*
%TO.N,/MCU_3V3*%
X138500000Y-93900000D03*
X135400000Y-93100000D03*
%TO.N,/mouse/MOUSE_DPI*%
X153991685Y-104091685D03*
X153100000Y-94300000D03*
X153492000Y-114600000D03*
X155553304Y-93704774D03*
%TO.N,/mouse/MOUSE_RB*%
X166598000Y-105900000D03*
X162000000Y-101976545D03*
%TO.N,/COL1*%
X161857079Y-94691450D03*
%TO.N,/COL2*%
X162646351Y-94477052D03*
%TO.N,/COL3*%
X155649000Y-105340186D03*
%TO.N,/COL4*%
X155526686Y-106230057D03*
%TO.N,/COL5*%
X155494000Y-107253947D03*
%TO.N,/COL6*%
X155295000Y-108449000D03*
%TO.N,/mouse/MOUSE_DN*%
X151376235Y-114126235D03*
%TO.N,/COL10*%
X154000000Y-118400000D03*
%TO.N,/COL7*%
X156500000Y-96250000D03*
%TO.N,/COL8*%
X155650756Y-95349236D03*
%TO.N,/COL9*%
X154661066Y-94750547D03*
%TO.N,/mouse/MOUSE_DN*%
X154000000Y-94300000D03*
%TO.N,/SCL*%
X150315223Y-91297138D03*
%TO.N,/ESP_EN*%
X157800000Y-82400000D03*
X163684313Y-95315687D03*
%TO.N,+3V3*%
X142700000Y-84400000D03*
%TO.N,/AT_MCU_TX*%
X162070406Y-91220983D03*
%TO.N,/AT_MCU_RX*%
X162249265Y-92000735D03*
%TO.N,/ESP_BOOT*%
X164250000Y-94750000D03*
X141008607Y-87741393D03*
%TO.N,/MCU_3V3*%
X157400000Y-85700000D03*
X153250000Y-88750000D03*
%TO.N,Net-(U5-IO2)*%
X161100000Y-80750000D03*
%TO.N,/ESP_3V3*%
X149733547Y-78866988D03*
X158050000Y-78800000D03*
%TO.N,+3V3*%
X145408697Y-110269599D03*
D40*
%TO.N,Net-(U5-IO8)*%
X147300000Y-86100000D03*
%TO.N,/ESP_EN*%
X147300000Y-79300000D03*
%TO.N,/ESP_3V3*%
X147300000Y-78000000D03*
X143300000Y-79700000D03*
X141800000Y-79600000D03*
D39*
%TO.N,/BAT+*%
X146900000Y-102100000D03*
X142800000Y-105000000D03*
D40*
%TO.N,GND*%
X141937500Y-108650000D03*
X145262502Y-96850000D03*
%TO.N,+3V3*%
X150212500Y-107050000D03*
X150112500Y-97950000D03*
D39*
%TO.N,Net-(U3-VREF+)*%
X151352118Y-89831788D03*
X152825000Y-89549000D03*
D40*
%TO.N,GND*%
X145312500Y-98550000D03*
X149112500Y-100850000D03*
D39*
X153000000Y-84800000D03*
X153800000Y-86400000D03*
D40*
X143337500Y-109068599D03*
%TD*%
D41*
%TO.N,/mouse/MOUSE_DPI*%
X153350000Y-103150000D02*
X153350000Y-103450000D01*
X153350000Y-103450000D02*
X153991685Y-104091685D01*
X151810042Y-95589958D02*
X153100000Y-94300000D01*
X151810042Y-101610042D02*
X151810042Y-95589958D01*
X153350000Y-103150000D02*
X151810042Y-101610042D01*
%TO.N,/COL6*%
X155295000Y-108449000D02*
X155295000Y-108051000D01*
X154600000Y-104400000D02*
X154600000Y-103800000D01*
X155295000Y-108051000D02*
X154247000Y-107003000D01*
X154247000Y-107003000D02*
X154247000Y-104753000D01*
X154247000Y-104753000D02*
X154600000Y-104400000D01*
X154600000Y-103800000D02*
X153232900Y-102432900D01*
X153200000Y-98125126D02*
X154149732Y-97175394D01*
X153232900Y-102432900D02*
X153200000Y-102432900D01*
X153200000Y-102432900D02*
X153200000Y-98125126D01*
%TO.N,/COL5*%
X154503286Y-97528948D02*
X153601000Y-98431234D01*
X153601000Y-98431234D02*
X153601000Y-102233900D01*
X153601000Y-102233900D02*
X155047000Y-103679900D01*
X154647000Y-106406947D02*
X155494000Y-107253947D01*
X155047000Y-103679900D02*
X155047000Y-104525143D01*
X155047000Y-104525143D02*
X154647000Y-104925143D01*
X154647000Y-104925143D02*
X154647000Y-106406947D01*
%TO.N,/Keyboard/KEY_ROW2*%
X156978159Y-100003821D02*
X156340990Y-100640990D01*
X156340990Y-100640990D02*
X156340990Y-101571290D01*
X156340990Y-101571290D02*
X157453000Y-102683300D01*
X157453000Y-109212800D02*
X154017800Y-112648000D01*
X157453000Y-102683300D02*
X157453000Y-109212800D01*
X154017800Y-112648000D02*
X149752057Y-112648000D01*
X149752057Y-112648000D02*
X148449997Y-113950060D01*
X148449997Y-113950060D02*
X148449997Y-114000000D01*
%TO.N,/Keyboard/KEY_ROW3*%
X156624606Y-99650268D02*
X155750000Y-100524874D01*
X155750000Y-100524874D02*
X155750000Y-101547400D01*
X153851700Y-112247000D02*
X149353054Y-112247000D01*
X155750000Y-101547400D02*
X157052000Y-102849400D01*
X149353054Y-112247000D02*
X147649994Y-113950060D01*
X157052000Y-102849400D02*
X157052000Y-109046700D01*
X147649994Y-113950060D02*
X147649994Y-114000000D01*
X157052000Y-109046700D02*
X153851700Y-112247000D01*
%TO.N,/Keyboard/KEY_ROW4*%
X156271052Y-99296714D02*
X155250000Y-100317766D01*
X155250000Y-100317766D02*
X155250000Y-101614500D01*
X156651000Y-103015500D02*
X156651000Y-108880600D01*
X155250000Y-101614500D02*
X156651000Y-103015500D01*
X156651000Y-108880600D02*
X153685600Y-111846000D01*
X153685600Y-111846000D02*
X148954051Y-111846000D01*
X148954051Y-111846000D02*
X146849991Y-113950060D01*
X146849991Y-113950060D02*
X146849991Y-114000000D01*
%TO.N,/Keyboard/KEY_ROW5*%
X155917499Y-98943161D02*
X154804000Y-100056660D01*
X154804000Y-100056660D02*
X154804000Y-101735600D01*
X154804000Y-101735600D02*
X156250000Y-103181600D01*
X156250000Y-103181600D02*
X156250000Y-108714500D01*
X148555048Y-111445000D02*
X146049988Y-113950060D01*
X156250000Y-108714500D02*
X153519500Y-111445000D01*
X153519500Y-111445000D02*
X148555048Y-111445000D01*
X146049988Y-113950060D02*
X146049988Y-114000000D01*
%TO.N,/COL3*%
X155210392Y-98236054D02*
X154403000Y-99043446D01*
X154403000Y-99043446D02*
X154403000Y-101901700D01*
X154403000Y-101901700D02*
X155849000Y-103347700D01*
X155849000Y-103347700D02*
X155849000Y-105140186D01*
X155849000Y-105140186D02*
X155649000Y-105340186D01*
%TO.N,/COL4*%
X155526686Y-106230057D02*
X155048000Y-105751371D01*
X155048000Y-105751371D02*
X155048000Y-105091243D01*
X155400057Y-104739186D02*
X155448000Y-104739186D01*
X155048000Y-105091243D02*
X155400057Y-104739186D01*
X155448000Y-104739186D02*
X155448000Y-103513800D01*
X154002000Y-102067800D02*
X154002000Y-98737340D01*
X155448000Y-103513800D02*
X154002000Y-102067800D01*
X154002000Y-98737340D02*
X154856839Y-97882501D01*
%TO.N,/Keyboard/KEY_ROW1*%
X149250000Y-114000000D02*
X150201000Y-113049000D01*
X150201000Y-113049000D02*
X150783900Y-113049000D01*
X150783900Y-113049000D02*
X151116100Y-113049000D01*
X151116100Y-113049000D02*
X154183900Y-113049000D01*
X154183900Y-113049000D02*
X157854000Y-109378900D01*
X157854000Y-109378900D02*
X157854000Y-104335600D01*
X157854000Y-104335600D02*
X157854000Y-102517200D01*
X156759789Y-100929299D02*
X157331713Y-100357375D01*
X157854000Y-102517200D02*
X156759789Y-101422989D01*
X156759789Y-101422989D02*
X156759789Y-100929299D01*
%TO.N,/MCU_3V3*%
X135400000Y-93100000D02*
X137519060Y-90980940D01*
X137519060Y-90980940D02*
X139769060Y-90980940D01*
X139769060Y-90980940D02*
X142498008Y-88251992D01*
X142498008Y-88251992D02*
X143348008Y-88251992D01*
X143348008Y-88251992D02*
X144000000Y-87600000D01*
X148051992Y-88251992D02*
X149451992Y-88251992D01*
X144000000Y-87600000D02*
X147400000Y-87600000D01*
X147400000Y-87600000D02*
X148051992Y-88251992D01*
%TO.N,/SDA*%
X143613412Y-91968745D02*
X143266100Y-92316057D01*
X151800000Y-91602820D02*
X151544318Y-91602820D01*
X143266100Y-92316057D02*
X140081157Y-92316057D01*
X151178393Y-91968745D02*
X143613412Y-91968745D01*
X137331113Y-96099000D02*
X136630113Y-96800000D01*
X139497214Y-92900000D02*
X138100000Y-92900000D01*
X151544318Y-91602820D02*
X151178393Y-91968745D01*
X140081157Y-92316057D02*
X139497214Y-92900000D01*
X138100000Y-92900000D02*
X137331113Y-93668887D01*
X137331113Y-93668887D02*
X137331113Y-96099000D01*
%TO.N,/mouse/MOUSE_HOME*%
X141000000Y-88750000D02*
X139750000Y-90000000D01*
X139750000Y-90000000D02*
X136750000Y-90000000D01*
X136750000Y-90000000D02*
X135750000Y-91000000D01*
%TO.N,/ESP_BOOT*%
X139504578Y-83501000D02*
X140501000Y-82504578D01*
X141008607Y-87741393D02*
X139504578Y-86237364D01*
X139504578Y-86237364D02*
X139504578Y-83501000D01*
X140501000Y-82504578D02*
X140501000Y-80826000D01*
X140501000Y-80826000D02*
X138675000Y-79000000D01*
%TO.N,GND*%
X142800000Y-122912500D02*
X142800000Y-124300000D01*
X142800000Y-124300000D02*
X143250000Y-124750000D01*
%TO.N,/SENSOR_3V3*%
X133300000Y-97800000D02*
X133300000Y-96430113D01*
X133300000Y-96430113D02*
X133430113Y-96300000D01*
X133092613Y-100750000D02*
X132917613Y-100925000D01*
X132917613Y-100925000D02*
X132917613Y-105517613D01*
%TO.N,GND*%
X133680113Y-105280113D02*
X133900000Y-105500000D01*
X133680113Y-104000000D02*
X133680113Y-105280113D01*
%TO.N,/SENSOR_3V3*%
X132917613Y-105517613D02*
X133700000Y-106300000D01*
X133700000Y-106300000D02*
X134630113Y-106300000D01*
X134630113Y-106300000D02*
X135230113Y-105700000D01*
X135230113Y-105700000D02*
X135230113Y-104000000D01*
X134300735Y-97100735D02*
X133790509Y-96590509D01*
X133790509Y-96590509D02*
X133720622Y-96590509D01*
X133720622Y-96590509D02*
X133430113Y-96300000D01*
%TO.N,+3V3*%
X149425000Y-83500000D02*
X149825000Y-83500000D01*
X149825000Y-83500000D02*
X150612500Y-82712500D01*
X150612500Y-82712500D02*
X151575000Y-81750000D01*
X156025000Y-81750000D02*
X151575000Y-81750000D01*
%TO.N,/GYRO_INT*%
X135417613Y-100750000D02*
X136279113Y-100750000D01*
X136279113Y-100750000D02*
X136529113Y-100500000D01*
X136529113Y-99711936D02*
X136865049Y-99376000D01*
X136529113Y-100500000D02*
X136529113Y-99711936D01*
X136865049Y-99376000D02*
X137824000Y-99376000D01*
X137824000Y-99376000D02*
X138000000Y-99200000D01*
X138000000Y-99200000D02*
X138000000Y-97900000D01*
%TO.N,/DBR_RX*%
X164400000Y-87900000D02*
X164800000Y-87500000D01*
%TO.N,/LOW_BAT*%
X162175394Y-89149732D02*
X162794764Y-88530362D01*
X166500000Y-91104005D02*
X166499000Y-91105005D01*
X162794764Y-88530362D02*
X163830362Y-88530362D01*
X165400000Y-89100000D02*
X166500000Y-90200000D01*
X163830362Y-88530362D02*
X164400000Y-89100000D01*
X164400000Y-89100000D02*
X165400000Y-89100000D01*
X166500000Y-90200000D02*
X166500000Y-91104005D01*
%TO.N,/STBY*%
X164200000Y-89500000D02*
X163631362Y-88931362D01*
X165900000Y-90526472D02*
X164873528Y-89500000D01*
X164873528Y-89500000D02*
X164200000Y-89500000D01*
X163631362Y-88931362D02*
X163100872Y-88931362D01*
X163100872Y-88931362D02*
X162528948Y-89503286D01*
%TO.N,/PRG_ESP_TX*%
X165516085Y-98500000D02*
X166266085Y-97750000D01*
X166266085Y-97733915D02*
X167099000Y-96901000D01*
X167099000Y-96901000D02*
X167099000Y-96583900D01*
X166266085Y-97750000D02*
X166266085Y-97733915D01*
X167099000Y-96583900D02*
X167099000Y-91666100D01*
X167099000Y-91666100D02*
X167099000Y-91333900D01*
X167099000Y-85849000D02*
X164750000Y-83500000D01*
X167099000Y-91333900D02*
X167099000Y-85849000D01*
%TO.N,/DBR_RX*%
X161821841Y-88796179D02*
X162718020Y-87900000D01*
X162718020Y-87900000D02*
X164400000Y-87900000D01*
%TO.N,/DBG_TX*%
X161468287Y-88442625D02*
X163400000Y-86510912D01*
X163400000Y-86510912D02*
X163400000Y-85700000D01*
%TO.N,/CONN*%
X161114734Y-88089072D02*
X161953806Y-87250000D01*
X165652054Y-85252054D02*
X165652054Y-85300000D01*
X161953806Y-87250000D02*
X161953806Y-85646194D01*
X161953806Y-85646194D02*
X162900000Y-84700000D01*
X162900000Y-84700000D02*
X165100000Y-84700000D01*
X165100000Y-84700000D02*
X165652054Y-85252054D01*
X165652054Y-85300000D02*
X166391476Y-86039422D01*
%TO.N,/AT_MCU_RX*%
X142800000Y-86900000D02*
X143900000Y-85800000D01*
X142600000Y-86900000D02*
X142800000Y-86900000D01*
%TO.N,/AT_MCU_TX*%
X143400000Y-85100000D02*
X143800000Y-84700000D01*
X141300000Y-85100000D02*
X143400000Y-85100000D01*
%TO.N,GND*%
X161450000Y-125350000D02*
X160000000Y-126800000D01*
X163662500Y-125350000D02*
X161450000Y-125350000D01*
%TO.N,+3V3*%
X161062500Y-122850000D02*
X164150000Y-122850000D01*
X164150000Y-122850000D02*
X164201000Y-122799000D01*
%TO.N,/MCU_3V3*%
X153250000Y-88750000D02*
X152153984Y-88750000D01*
X152153984Y-88750000D02*
X151851992Y-88448008D01*
%TO.N,/mouse/MOUSE_BACK*%
X154149732Y-91624606D02*
X154822126Y-92297000D01*
X154822126Y-92297000D02*
X156714800Y-92297000D01*
X157350000Y-92600000D02*
X158257550Y-93507550D01*
X159000000Y-94250000D02*
X159000000Y-95750000D01*
X156714800Y-92297000D02*
X157047000Y-92297000D01*
X157047000Y-92297000D02*
X157281900Y-92531900D01*
X157281900Y-92531900D02*
X157350000Y-92600000D01*
X158257550Y-93507550D02*
X158492450Y-93742450D01*
X159000000Y-95750000D02*
X159300002Y-96050002D01*
X158492450Y-93742450D02*
X159000000Y-94250000D01*
X159300002Y-96050002D02*
X159300002Y-97001000D01*
%TO.N,Net-(U3-VREF+)*%
X151352118Y-89831788D02*
X151119042Y-89831788D01*
X151119042Y-89831788D02*
X150635262Y-89348008D01*
X150635262Y-89348008D02*
X150548008Y-89348008D01*
%TO.N,/SCL*%
X150315223Y-91297138D02*
X150044616Y-91567745D01*
X139915057Y-91915057D02*
X139465057Y-92365057D01*
X150044616Y-91567745D02*
X143447312Y-91567745D01*
X143100000Y-91915057D02*
X139915057Y-91915057D01*
X136630113Y-93169887D02*
X136630113Y-95200000D01*
X143447312Y-91567745D02*
X143100000Y-91915057D01*
X139465057Y-92365057D02*
X137434943Y-92365057D01*
X137434943Y-92365057D02*
X136630113Y-93169887D01*
%TO.N,GND*%
X149876470Y-82575000D02*
X150225735Y-82225735D01*
X149000000Y-82575000D02*
X149876470Y-82575000D01*
X150231671Y-80786657D02*
X150231671Y-81518329D01*
X150231671Y-81518329D02*
X149175000Y-82575000D01*
X149175000Y-82575000D02*
X149000000Y-82575000D01*
%TO.N,+3V3*%
X142700000Y-84400000D02*
X143401000Y-83699000D01*
X143401000Y-83699000D02*
X149226000Y-83699000D01*
X149226000Y-83699000D02*
X149425000Y-83500000D01*
%TO.N,Net-(LD1-A)*%
X163225000Y-82200000D02*
X163500000Y-82200000D01*
X163500000Y-82200000D02*
X163560000Y-82140000D01*
X163560000Y-82140000D02*
X166400000Y-82140000D01*
%TO.N,GND*%
X138179113Y-100967207D02*
X138211906Y-101000000D01*
X138179113Y-99711936D02*
X138179113Y-100967207D01*
X138880113Y-99010936D02*
X138179113Y-99711936D01*
X138880113Y-98600000D02*
X138880113Y-99010936D01*
%TO.N,/ESP_3V3*%
X140325000Y-79000000D02*
X141200000Y-79000000D01*
X141200000Y-79000000D02*
X141800000Y-79600000D01*
%TO.N,GND*%
X144200000Y-82600000D02*
X142749999Y-82600000D01*
X142749999Y-82600000D02*
X142400000Y-82949999D01*
%TO.N,Net-(U1-CS)*%
X133755113Y-99087500D02*
X133755113Y-98494887D01*
X133755113Y-98494887D02*
X135080113Y-97169887D01*
X135080113Y-97169887D02*
X135080113Y-96300000D01*
%TO.N,/mouse/MOUSE_HOME*%
X152300000Y-120312500D02*
X152300000Y-121412500D01*
X151712500Y-122000000D02*
X150000000Y-122000000D01*
X152300000Y-121412500D02*
X151712500Y-122000000D01*
%TO.N,/PRG_ESP_RX*%
X160250000Y-103500000D02*
X160750000Y-103000000D01*
X161400000Y-109650000D02*
X160250000Y-108500000D01*
X160250000Y-108500000D02*
X160250000Y-103500000D01*
%TO.N,/PRG_ESP_TX*%
X160000000Y-102500000D02*
X159749000Y-102751000D01*
X159749000Y-102751000D02*
X159749000Y-110849000D01*
X159749000Y-110849000D02*
X160050000Y-111150000D01*
X160050000Y-111150000D02*
X161400000Y-111150000D01*
%TO.N,/mouse/MOUSE_BACK*%
X161825735Y-106174265D02*
X162746917Y-107095447D01*
X159861500Y-120749000D02*
X159962500Y-120850000D01*
X162746917Y-107095447D02*
X162746917Y-107503083D01*
X162746917Y-107503083D02*
X163901000Y-108657166D01*
X163901000Y-108657166D02*
X163901000Y-113349000D01*
X163901000Y-113349000D02*
X159861500Y-117388500D01*
X159861500Y-117388500D02*
X159861500Y-120749000D01*
X159962500Y-120850000D02*
X161062500Y-120850000D01*
%TO.N,/mouse/MOUSE_FWD*%
X161625551Y-106948817D02*
X163500000Y-108823266D01*
X163500000Y-108823266D02*
X163500000Y-113182900D01*
X163500000Y-113182900D02*
X159460500Y-117222400D01*
X159460500Y-117222400D02*
X159460500Y-121348000D01*
X159962500Y-121850000D02*
X161062500Y-121850000D01*
X159460500Y-121348000D02*
X159962500Y-121850000D01*
%TO.N,/COL10*%
X154000000Y-118400000D02*
X154000000Y-115000000D01*
X154000000Y-115000000D02*
X159057000Y-109943000D01*
X159057000Y-109943000D02*
X159057000Y-101250000D01*
X159057000Y-101250000D02*
X159365296Y-100941704D01*
X159365296Y-100941704D02*
X159365296Y-98115296D01*
X159365296Y-98115296D02*
X159224736Y-97974736D01*
%TO.N,/mouse/MOUSE_PRC*%
X158281485Y-99785451D02*
X158257190Y-99785451D01*
X158610743Y-100114709D02*
X158281485Y-99785451D01*
X158635038Y-100139004D02*
X158610743Y-100139004D01*
X158964296Y-100776814D02*
X158964296Y-100468262D01*
X158656000Y-101114562D02*
X158641274Y-101099836D01*
X157927932Y-99431898D02*
X157903636Y-99431898D01*
X158656000Y-109711100D02*
X158656000Y-101114562D01*
X158964296Y-100468262D02*
X158635038Y-100139004D01*
X152500000Y-113851000D02*
X154516100Y-113851000D01*
X155651463Y-94500000D02*
X155500000Y-94500000D01*
X158641274Y-101099836D02*
X158964296Y-100776814D01*
X157903636Y-99431898D02*
X157903636Y-99407602D01*
X151300000Y-115051000D02*
X152500000Y-113851000D01*
X157500000Y-97250000D02*
X157100000Y-96850000D01*
X158610743Y-100139004D02*
X158610743Y-100114709D01*
X154516100Y-113851000D02*
X158656000Y-109711100D01*
X158257190Y-99761156D02*
X157927932Y-99431898D01*
X151300000Y-120312500D02*
X151300000Y-115051000D01*
X157100000Y-96850000D02*
X157100000Y-95948537D01*
X158257190Y-99785451D02*
X158257190Y-99761156D01*
X157903636Y-99407602D02*
X157574378Y-99078344D01*
X157574378Y-99078344D02*
X157550083Y-99078344D01*
X157550083Y-99078344D02*
X157550083Y-99054049D01*
X157550083Y-99054049D02*
X157500000Y-99003966D01*
X157500000Y-99003966D02*
X157500000Y-97250000D01*
X157100000Y-95948537D02*
X155651463Y-94500000D01*
X155500000Y-94500000D02*
X154699000Y-93699000D01*
X154699000Y-93699000D02*
X153395700Y-93699000D01*
X153395700Y-93699000D02*
X152735519Y-93038819D01*
%TO.N,/mouse/MOUSE_UP*%
X149300000Y-120312500D02*
X149300000Y-115100000D01*
X158255000Y-109545000D02*
X158255000Y-101280662D01*
X149300000Y-115100000D02*
X150950000Y-113450000D01*
X150950000Y-113450000D02*
X154350000Y-113450000D01*
X154350000Y-113450000D02*
X158255000Y-109545000D01*
X158255000Y-101280662D02*
X158038819Y-101064481D01*
%TO.N,/PRG_ESP_RX*%
X167500000Y-97516085D02*
X165516085Y-99500000D01*
X167500000Y-96750000D02*
X167500000Y-97516085D01*
X167500000Y-91500000D02*
X167500000Y-96750000D01*
%TO.N,/mouse/MOUSE_MB*%
X164500000Y-100344670D02*
X164515085Y-100329585D01*
X164515085Y-100329585D02*
X164515085Y-98454425D01*
X164515085Y-98454425D02*
X163943161Y-97882501D01*
%TO.N,/mouse/MOUSE_LB*%
X164296714Y-97528948D02*
X164916085Y-98148319D01*
X164916085Y-98148319D02*
X164916085Y-100166085D01*
X149200000Y-125400000D02*
X141935500Y-125400000D01*
X164916085Y-100166085D02*
X165556330Y-100806330D01*
X165556330Y-103239230D02*
X167599000Y-105281900D01*
X140600000Y-116150000D02*
X141400000Y-115350000D01*
X165556330Y-100806330D02*
X165556330Y-103239230D01*
X140600000Y-124064500D02*
X140600000Y-116150000D01*
X167599000Y-105281900D02*
X167599000Y-127401000D01*
X167599000Y-127401000D02*
X166601000Y-128399000D01*
X166601000Y-128399000D02*
X152199000Y-128399000D01*
X152199000Y-128399000D02*
X149200000Y-125400000D01*
X141935500Y-125400000D02*
X140600000Y-124064500D01*
%TO.N,/mouse/MOUSE_MB*%
X164500000Y-100344670D02*
X165155330Y-101000000D01*
%TO.N,/SWDIO*%
X161821841Y-100003821D02*
X161753821Y-100003821D01*
X161753821Y-100003821D02*
X160424265Y-98674265D01*
%TO.N,/PRG_ESP_RX*%
X166750000Y-84500000D02*
X167500000Y-85250000D01*
X167500000Y-85250000D02*
X167500000Y-91500000D01*
X165750000Y-83500000D02*
X166750000Y-84500000D01*
X161502000Y-85250000D02*
X163853000Y-82899000D01*
X163853000Y-82899000D02*
X165149000Y-82899000D01*
X165149000Y-82899000D02*
X165750000Y-83500000D01*
%TO.N,/ESP_EN*%
X157800000Y-82400000D02*
X157500000Y-82100000D01*
X157500000Y-82100000D02*
X157500000Y-80384200D01*
X157500000Y-80384200D02*
X157166800Y-80051000D01*
X157166800Y-80051000D02*
X154199000Y-80051000D01*
X154199000Y-80051000D02*
X154000000Y-80250000D01*
X154000000Y-80250000D02*
X150500000Y-80250000D01*
X150500000Y-80250000D02*
X149850000Y-79600000D01*
X149850000Y-79600000D02*
X149000000Y-79600000D01*
%TO.N,/GYRO_INT*%
X151500000Y-79650000D02*
X157332900Y-79650000D01*
X157332900Y-79650000D02*
X157991450Y-80308550D01*
X157991450Y-80308550D02*
X157991450Y-81008550D01*
X157991450Y-81008550D02*
X159500000Y-82517100D01*
X159500000Y-82517100D02*
X159500000Y-86474338D01*
X159500000Y-86474338D02*
X160761181Y-87735519D01*
%TO.N,Net-(SW1-A)*%
X161575000Y-82200000D02*
X159750000Y-82200000D01*
X159750000Y-82200000D02*
X158525000Y-80975000D01*
X158525000Y-80975000D02*
X158525000Y-80275000D01*
X158525000Y-80275000D02*
X156100000Y-77850000D01*
X156100000Y-77850000D02*
X156025000Y-77850000D01*
%TO.N,/mouse/MOUSE_MB*%
X165155330Y-101000000D02*
X165155330Y-103405330D01*
X166434900Y-127998000D02*
X152365100Y-127998000D01*
X165155330Y-103405330D02*
X167198000Y-105448000D01*
X147300000Y-123000000D02*
X147300000Y-120312500D01*
X167198000Y-105448000D02*
X167198000Y-127234900D01*
X167198000Y-127234900D02*
X166434900Y-127998000D01*
X152365100Y-127998000D02*
X148967100Y-124600000D01*
X148967100Y-124600000D02*
X148900000Y-124600000D01*
X148900000Y-124600000D02*
X147300000Y-123000000D01*
%TO.N,/SWDCLK*%
X160282701Y-99532701D02*
X160643613Y-99532701D01*
X160643613Y-99532701D02*
X161468287Y-100357375D01*
%TO.N,/RST*%
X155216637Y-87783363D02*
X159199000Y-91765726D01*
X159199000Y-91765726D02*
X159199000Y-93848943D01*
X159199000Y-93848943D02*
X159500000Y-94149943D01*
X160750000Y-96932900D02*
X160750000Y-97500000D01*
X159500000Y-94149943D02*
X159500000Y-95682900D01*
X159500000Y-95682900D02*
X160750000Y-96932900D01*
%TO.N,/mouse/MOUSE_FWD*%
X158091450Y-96592449D02*
X158500000Y-97000999D01*
X158091450Y-93908550D02*
X158091450Y-96592449D01*
X156880900Y-92698000D02*
X154516020Y-92698000D01*
X158091450Y-93908550D02*
X156880900Y-92698000D01*
X154516020Y-92698000D02*
X153796179Y-91978159D01*
%TO.N,/ESP_EN*%
X163924082Y-95555456D02*
X164444544Y-95555456D01*
X163684313Y-95315687D02*
X163924082Y-95555456D01*
X164444544Y-95555456D02*
X165357375Y-96468287D01*
%TO.N,/ESP_BOOT*%
X165710928Y-96114734D02*
X164346194Y-94750000D01*
X164346194Y-94750000D02*
X164250000Y-94750000D01*
%TO.N,/COL2*%
X163228887Y-93753093D02*
X163228887Y-93894516D01*
X163228887Y-93894516D02*
X162646351Y-94477052D01*
X163228887Y-93753093D02*
X165003821Y-91978159D01*
%TO.N,/COL1*%
X164650268Y-91624606D02*
X161857079Y-94417795D01*
X161857079Y-94417795D02*
X161857079Y-94691450D01*
%TO.N,/COL10*%
X163829887Y-93859201D02*
X165357375Y-92331713D01*
X162422767Y-95257137D02*
X162784223Y-95257137D01*
X162784223Y-95257137D02*
X163829887Y-94211473D01*
X163829887Y-94211473D02*
X163829887Y-93859201D01*
%TO.N,/SCL*%
X164650268Y-97175394D02*
X163974874Y-96500000D01*
X163974874Y-96500000D02*
X162817100Y-96500000D01*
X162817100Y-96500000D02*
X161000000Y-94682900D01*
X161000000Y-94682900D02*
X161000000Y-93751000D01*
X161000000Y-93751000D02*
X161001000Y-93750000D01*
%TO.N,GND*%
X157799265Y-92200735D02*
X157098530Y-91500000D01*
X157098530Y-91500000D02*
X156853554Y-91500000D01*
X156853554Y-91500000D02*
X155563946Y-90210392D01*
%TO.N,/ADC*%
X160500000Y-92750000D02*
X159800000Y-93450000D01*
X159800000Y-93450000D02*
X159800000Y-93600000D01*
X164296714Y-91271052D02*
X162817766Y-92750000D01*
X162817766Y-92750000D02*
X160500000Y-92750000D01*
%TO.N,/SDA*%
X162882501Y-98943161D02*
X162310577Y-98371237D01*
X162310577Y-98371237D02*
X162310577Y-96560577D01*
X162310577Y-96560577D02*
X160250000Y-94500000D01*
%TO.N,GND*%
X155563946Y-90210392D02*
X154096016Y-88742462D01*
X154096016Y-88742462D02*
X154096016Y-88500000D01*
%TO.N,/MCU_3V3*%
X155210392Y-90563946D02*
X153396446Y-88750000D01*
X153396446Y-88750000D02*
X153250000Y-88750000D01*
%TO.N,Net-(U3-VREF+)*%
X152825000Y-89549000D02*
X152936660Y-89660660D01*
X152936660Y-89660660D02*
X153600000Y-89660660D01*
X153600000Y-89660660D02*
X154856839Y-90917499D01*
%TO.N,/MCU_3V3*%
X153381234Y-90149000D02*
X152501057Y-90149000D01*
X154503286Y-91271052D02*
X153381234Y-90149000D01*
X152501057Y-90149000D02*
X151851992Y-89499935D01*
X151851992Y-89499935D02*
X151851992Y-88448008D01*
%TO.N,/mouse/MOUSE_DPI*%
X155553304Y-93704774D02*
X154947530Y-93099000D01*
X154947530Y-93099000D02*
X154209912Y-93099000D01*
X154209912Y-93099000D02*
X153442625Y-92331713D01*
%TO.N,/COL9*%
X154449453Y-94750547D02*
X153089072Y-96110928D01*
X154661066Y-94750547D02*
X154449453Y-94750547D01*
X153089072Y-96110928D02*
X153089072Y-96114734D01*
%TO.N,/COL8*%
X153442625Y-96468287D02*
X154014548Y-95896364D01*
X154700708Y-95349236D02*
X155650756Y-95349236D01*
X154014548Y-95896364D02*
X154153579Y-95896364D01*
X154153579Y-95896364D02*
X154700708Y-95349236D01*
%TO.N,+3V3*%
X144237500Y-119250000D02*
X145300000Y-120312500D01*
X143750000Y-119250000D02*
X144237500Y-119250000D01*
%TO.N,/COL7*%
X156500000Y-96250000D02*
X156199236Y-95949236D01*
X156199236Y-95949236D02*
X154668784Y-95949236D01*
X154668784Y-95949236D02*
X153796179Y-96821841D01*
%TO.N,/mouse/MOUSE_RB*%
X161749192Y-101976545D02*
X161409052Y-101636405D01*
X162000000Y-101976545D02*
X161749192Y-101976545D01*
X161409052Y-101636405D02*
X161402401Y-101636405D01*
X161402401Y-101636405D02*
X160830477Y-101064481D01*
X160830477Y-101064481D02*
X160761181Y-101064481D01*
%TO.N,/SWDCLK*%
X161468287Y-100357375D02*
X162527549Y-101416637D01*
X162527549Y-101416637D02*
X164083363Y-101416637D01*
%TO.N,/mouse/MOUSE_DN*%
X150300000Y-117500000D02*
X150300000Y-120312500D01*
X150324265Y-117475735D02*
X150300000Y-117500000D01*
X150324265Y-114924265D02*
X150324265Y-117475735D01*
X151122295Y-114126235D02*
X150324265Y-114924265D01*
X151376235Y-114126235D02*
X151122295Y-114126235D01*
%TO.N,/GYRO_INT*%
X134800000Y-93900000D02*
X134800000Y-79600000D01*
X134800000Y-79600000D02*
X136600000Y-77800000D01*
X136600000Y-77800000D02*
X144600000Y-77800000D01*
X144600000Y-77800000D02*
X147500000Y-80700000D01*
%TO.N,/mouse/MOUSE_RB*%
X166598000Y-105900000D02*
X166598000Y-127267800D01*
X166598000Y-127267800D02*
X166268800Y-127597000D01*
X166268800Y-127597000D02*
X152997000Y-127597000D01*
X152997000Y-127597000D02*
X148300000Y-122900000D01*
X148300000Y-122900000D02*
X148300000Y-120312500D01*
%TO.N,+3V3*%
X139500000Y-106700000D02*
X139900000Y-106700000D01*
X137500000Y-104700000D02*
X139500000Y-106700000D01*
X137230113Y-101800000D02*
X137230113Y-102069887D01*
%TO.N,/SENSOR_3V3*%
X136505113Y-104000000D02*
X135230113Y-104000000D01*
%TO.N,GND*%
X135105114Y-99750000D02*
X135417613Y-99750000D01*
%TO.N,/MCU_3V3*%
X138880113Y-100200000D02*
X139581113Y-99499000D01*
%TO.N,GND*%
X134255113Y-100912500D02*
X133755113Y-100912500D01*
%TO.N,/SDA*%
X134755113Y-98675000D02*
X134755113Y-99087500D01*
%TO.N,GND*%
X133755113Y-100912500D02*
X133755113Y-102325000D01*
%TO.N,/SDA*%
X136630113Y-96800000D02*
X134755113Y-98675000D01*
%TO.N,/SENSOR_3V3*%
X135230113Y-104000000D02*
X135230113Y-102400000D01*
X135230113Y-101387500D02*
X134755113Y-100912500D01*
%TO.N,GND*%
X133680113Y-102400000D02*
X133680113Y-104000000D01*
%TO.N,/SENSOR_3V3*%
X135230113Y-102400000D02*
X135230113Y-101387500D01*
%TO.N,/SCL*%
X134255113Y-99087500D02*
X134255113Y-98600000D01*
%TO.N,+3V3*%
X137230113Y-102069887D02*
X136300000Y-103000000D01*
%TO.N,/SENSOR_3V3*%
X137055113Y-103450000D02*
X136505113Y-104000000D01*
X137605113Y-103450000D02*
X137055113Y-103450000D01*
X138880113Y-102175000D02*
X137605113Y-103450000D01*
X138880113Y-101800000D02*
X138880113Y-102175000D01*
%TO.N,/SCL*%
X134255113Y-98600000D02*
X135792613Y-97062500D01*
%TO.N,+3V3*%
X137230113Y-101800000D02*
X137230113Y-100200000D01*
%TO.N,/MCU_3V3*%
X139581113Y-98101000D02*
X138280113Y-96800000D01*
X139581113Y-99499000D02*
X139581113Y-98101000D01*
X138280113Y-95200000D02*
X138280113Y-96800000D01*
%TO.N,GND*%
X135417613Y-100250000D02*
X135417613Y-99750000D01*
X134255113Y-100600001D02*
X135105114Y-99750000D01*
%TO.N,Net-(U1-SDO{slash}SA0)*%
X137230113Y-98600000D02*
X136067613Y-98600000D01*
%TO.N,GND*%
X134255113Y-100912500D02*
X134255113Y-100600001D01*
%TO.N,/SCL*%
X135792613Y-96037500D02*
X136630113Y-95200000D01*
X135792613Y-97062500D02*
X135792613Y-96037500D01*
%TO.N,Net-(U1-SDO{slash}SA0)*%
X136067613Y-98600000D02*
X135417613Y-99250000D01*
%TO.N,GND*%
X133755113Y-102325000D02*
X133680113Y-102400000D01*
%TO.N,/MCU_3V3*%
X138500000Y-93900000D02*
X138500000Y-94980113D01*
X138500000Y-94980113D02*
X138280113Y-95200000D01*
%TO.N,/mouse/MOUSE_DPI*%
X153300000Y-120312500D02*
X153300000Y-114792000D01*
X153300000Y-114792000D02*
X153492000Y-114600000D01*
%TO.N,/mouse/MOUSE_DN*%
X152735519Y-95564481D02*
X154000000Y-94300000D01*
X152735519Y-95761181D02*
X152735519Y-95564481D01*
%TO.N,/ESP_3V3*%
X149200000Y-78333441D02*
X149200000Y-78150000D01*
X149733547Y-78866988D02*
X149200000Y-78333441D01*
X149200000Y-78150000D02*
X149000000Y-77950000D01*
%TO.N,/AT_MCU_TX*%
X162070406Y-91220983D02*
X162155520Y-91135869D01*
X163017685Y-91135869D02*
X163589608Y-90563946D01*
X162155520Y-91135869D02*
X163017685Y-91135869D01*
%TO.N,/AT_MCU_RX*%
X162249265Y-92000735D02*
X162489340Y-91760660D01*
X162489340Y-91760660D02*
X163100000Y-91760660D01*
X163100000Y-91760660D02*
X163943161Y-90917499D01*
%TO.N,/MCU_3V3*%
X157400000Y-85700000D02*
X157300000Y-85700000D01*
X157300000Y-85700000D02*
X156383363Y-86616637D01*
X150728249Y-87071751D02*
X150728249Y-87324265D01*
X150728249Y-87324265D02*
X151851992Y-88448008D01*
X149451992Y-88251992D02*
X149548008Y-88251992D01*
X149548008Y-88251992D02*
X150728249Y-87071751D01*
X149651992Y-85548008D02*
X149651992Y-85995494D01*
X149651992Y-85995494D02*
X150728249Y-87071751D01*
%TO.N,Net-(U5-IO2)*%
X159675000Y-80750000D02*
X159600000Y-80825000D01*
X161100000Y-80750000D02*
X159675000Y-80750000D01*
%TO.N,/ESP_3V3*%
X159600000Y-79175000D02*
X158425000Y-79175000D01*
X158425000Y-79175000D02*
X158050000Y-78800000D01*
%TO.N,Net-(SW1-A)*%
X151575000Y-77850000D02*
X156025000Y-77850000D01*
%TO.N,/mouse/MOUSE_LB*%
X141400000Y-115350000D02*
X141400000Y-113600000D01*
%TO.N,Net-(J5-Pin_9)*%
X145812500Y-121900000D02*
X145000000Y-121900000D01*
X141400000Y-118300000D02*
X141400000Y-117000000D01*
X146300000Y-121412500D02*
X145812500Y-121900000D01*
X146300000Y-120312500D02*
X146300000Y-121412500D01*
X145000000Y-121900000D02*
X141400000Y-118300000D01*
%TO.N,+3V3*%
X145300000Y-120312500D02*
X145300000Y-110378296D01*
X145300000Y-110378296D02*
X145408697Y-110269599D01*
D42*
%TO.N,Net-(U5-IO8)*%
X147300000Y-84500000D02*
X147400000Y-84400000D01*
X147300000Y-86100000D02*
X147300000Y-84500000D01*
%TO.N,/ESP_EN*%
X147600000Y-79600000D02*
X147300000Y-79300000D01*
X149000000Y-79600000D02*
X147600000Y-79600000D01*
X149000000Y-79600000D02*
X149000000Y-81025000D01*
%TO.N,/ESP_3V3*%
X147350000Y-77950000D02*
X147300000Y-78000000D01*
X149000000Y-77950000D02*
X147350000Y-77950000D01*
D43*
%TO.N,/BAT+*%
X144000000Y-105000000D02*
X146900000Y-102100000D01*
X142800000Y-105000000D02*
X144000000Y-105000000D01*
D42*
%TO.N,+3V3*%
X151112500Y-98950000D02*
X151112500Y-106150000D01*
X151112500Y-106150000D02*
X150212500Y-107050000D01*
X150112500Y-97950000D02*
X151112500Y-98950000D01*
D41*
%TO.N,Net-(U3-VREF+)*%
X150548008Y-89348008D02*
X150353747Y-89348008D01*
X150353747Y-89348008D02*
X149401294Y-90300461D01*
%TO.N,GND*%
X152024265Y-85728249D02*
X150748008Y-84451992D01*
X152071751Y-85728249D02*
X153000000Y-84800000D01*
X152071751Y-85728249D02*
X152071751Y-86475735D01*
X152948008Y-87251992D02*
X153800000Y-86400000D01*
X152071751Y-85728249D02*
X152024265Y-85728249D01*
X152948008Y-87351992D02*
X154096016Y-88500000D01*
X152071751Y-86475735D02*
X152948008Y-87351992D01*
X152948008Y-87351992D02*
X152948008Y-87251992D01*
D42*
X145312500Y-98550000D02*
X147612500Y-100850000D01*
X147612500Y-100850000D02*
X149112500Y-100850000D01*
D41*
%TO.N,/RST*%
X155258237Y-87783363D02*
X156624606Y-89149732D01*
X155216637Y-87783363D02*
X155258237Y-87783363D01*
%TO.N,/mouse/MOUSE_HOME*%
X153089072Y-92685266D02*
X152400000Y-91996194D01*
X152400000Y-91996194D02*
X152400000Y-91200000D01*
X152400000Y-91200000D02*
X151831915Y-90631915D01*
X151831915Y-90631915D02*
X150131916Y-90631915D01*
X150131916Y-90631915D02*
X149597086Y-91166745D01*
X149597086Y-91166745D02*
X143715745Y-91166745D01*
X143715745Y-91166745D02*
X142500000Y-89951000D01*
%TD*%
%TA.AperFunction,Conductor*%
%TO.N,GND*%
G36*
X151577816Y-92120806D02*
G01*
X151608947Y-92121546D01*
X151727525Y-92153320D01*
X151727528Y-92153320D01*
X151871380Y-92153320D01*
X151938419Y-92173005D01*
X151984174Y-92225809D01*
X151994118Y-92294967D01*
X151965093Y-92358523D01*
X151959061Y-92365001D01*
X151930385Y-92393677D01*
X151901272Y-92431615D01*
X151862012Y-92539482D01*
X151862012Y-92654272D01*
X151901272Y-92762138D01*
X151901273Y-92762139D01*
X151930380Y-92800072D01*
X151930387Y-92800080D01*
X152792145Y-93661836D01*
X152825630Y-93723159D01*
X152820646Y-93792850D01*
X152778775Y-93848784D01*
X152766472Y-93856900D01*
X152761988Y-93859488D01*
X152761982Y-93859493D01*
X152659493Y-93961982D01*
X152659488Y-93961988D01*
X152587017Y-94087511D01*
X152587016Y-94087515D01*
X152549500Y-94227525D01*
X152549500Y-94227527D01*
X152549500Y-94303456D01*
X152529815Y-94370495D01*
X152513181Y-94391137D01*
X151529573Y-95374744D01*
X151529569Y-95374749D01*
X151503348Y-95420167D01*
X151503348Y-95420168D01*
X151483428Y-95454668D01*
X151459542Y-95543814D01*
X151459542Y-98360577D01*
X151439857Y-98427616D01*
X151387053Y-98473371D01*
X151317895Y-98483315D01*
X151254339Y-98454290D01*
X151247861Y-98448258D01*
X150899319Y-98099716D01*
X150865834Y-98038393D01*
X150863000Y-98012035D01*
X150863000Y-97876079D01*
X150834159Y-97731092D01*
X150834158Y-97731091D01*
X150834158Y-97731087D01*
X150830229Y-97721602D01*
X150777587Y-97594511D01*
X150777580Y-97594498D01*
X150695451Y-97471584D01*
X150695448Y-97471580D01*
X150590919Y-97367051D01*
X150590915Y-97367048D01*
X150468001Y-97284919D01*
X150467988Y-97284912D01*
X150331417Y-97228343D01*
X150331407Y-97228340D01*
X150186420Y-97199500D01*
X150186418Y-97199500D01*
X150038582Y-97199500D01*
X150038580Y-97199500D01*
X149893592Y-97228340D01*
X149893582Y-97228343D01*
X149757011Y-97284912D01*
X149756998Y-97284919D01*
X149634084Y-97367048D01*
X149634080Y-97367051D01*
X149529551Y-97471580D01*
X149529548Y-97471584D01*
X149447419Y-97594498D01*
X149447412Y-97594511D01*
X149390843Y-97731082D01*
X149390840Y-97731092D01*
X149362000Y-97876079D01*
X149362000Y-97876082D01*
X149362000Y-98023918D01*
X149362000Y-98023920D01*
X149361999Y-98023920D01*
X149390840Y-98168907D01*
X149390843Y-98168917D01*
X149447412Y-98305488D01*
X149447419Y-98305501D01*
X149529548Y-98428415D01*
X149529551Y-98428419D01*
X149634080Y-98532948D01*
X149634084Y-98532951D01*
X149756998Y-98615080D01*
X149757011Y-98615087D01*
X149893582Y-98671656D01*
X149893587Y-98671658D01*
X149893591Y-98671658D01*
X149893592Y-98671659D01*
X150038579Y-98700500D01*
X150174535Y-98700500D01*
X150241574Y-98720185D01*
X150262216Y-98736819D01*
X150625681Y-99100284D01*
X150659166Y-99161607D01*
X150662000Y-99187965D01*
X150662000Y-105912034D01*
X150642315Y-105979073D01*
X150625681Y-105999715D01*
X150362215Y-106263181D01*
X150300892Y-106296666D01*
X150274534Y-106299500D01*
X150138580Y-106299500D01*
X149993592Y-106328340D01*
X149993582Y-106328343D01*
X149857011Y-106384912D01*
X149856998Y-106384919D01*
X149734084Y-106467048D01*
X149734080Y-106467051D01*
X149629551Y-106571580D01*
X149629548Y-106571584D01*
X149547419Y-106694498D01*
X149547412Y-106694511D01*
X149490843Y-106831082D01*
X149490840Y-106831092D01*
X149462000Y-106976079D01*
X149462000Y-107123918D01*
X149490840Y-107268907D01*
X149490843Y-107268917D01*
X149547412Y-107405488D01*
X149547419Y-107405501D01*
X149629548Y-107528415D01*
X149629551Y-107528419D01*
X149734080Y-107632948D01*
X149734084Y-107632951D01*
X149856998Y-107715080D01*
X149857011Y-107715087D01*
X149982175Y-107766931D01*
X149993587Y-107771658D01*
X149993591Y-107771658D01*
X149993592Y-107771659D01*
X150138579Y-107800500D01*
X150138582Y-107800500D01*
X150286420Y-107800500D01*
X150383962Y-107781096D01*
X150431413Y-107771658D01*
X150567995Y-107715084D01*
X150690916Y-107632951D01*
X150795451Y-107528416D01*
X150877584Y-107405495D01*
X150934158Y-107268913D01*
X150963000Y-107123918D01*
X150963000Y-106987964D01*
X150982685Y-106920925D01*
X150999319Y-106900283D01*
X151205104Y-106694498D01*
X151472989Y-106426614D01*
X151532299Y-106323887D01*
X151533707Y-106318632D01*
X151546293Y-106271661D01*
X151546293Y-106271659D01*
X151552970Y-106246739D01*
X151563000Y-106209309D01*
X151563000Y-102158044D01*
X151582685Y-102091005D01*
X151635489Y-102045250D01*
X151704647Y-102035306D01*
X151768203Y-102064331D01*
X151774681Y-102070363D01*
X152963181Y-103258863D01*
X152996666Y-103320186D01*
X152999500Y-103346544D01*
X152999500Y-103496143D01*
X153018175Y-103565842D01*
X153023385Y-103585285D01*
X153023387Y-103585290D01*
X153069527Y-103665208D01*
X153069531Y-103665213D01*
X153404866Y-104000548D01*
X153438351Y-104061871D01*
X153441185Y-104088229D01*
X153441185Y-104164160D01*
X153467720Y-104263187D01*
X153478702Y-104304173D01*
X153551173Y-104429696D01*
X153551175Y-104429698D01*
X153551176Y-104429700D01*
X153653670Y-104532194D01*
X153653671Y-104532195D01*
X153653673Y-104532196D01*
X153779196Y-104604667D01*
X153779197Y-104604667D01*
X153779200Y-104604669D01*
X153804592Y-104611472D01*
X153864252Y-104647835D01*
X153894783Y-104710682D01*
X153896500Y-104731247D01*
X153896500Y-107049144D01*
X153905004Y-107080880D01*
X153916536Y-107123918D01*
X153916536Y-107123920D01*
X153920385Y-107138287D01*
X153966527Y-107218208D01*
X153966531Y-107218213D01*
X154788971Y-108040653D01*
X154822456Y-108101976D01*
X154817472Y-108171668D01*
X154808678Y-108190332D01*
X154782018Y-108236509D01*
X154782017Y-108236510D01*
X154782016Y-108236515D01*
X154744500Y-108376525D01*
X154744500Y-108521475D01*
X154781778Y-108660595D01*
X154782017Y-108661488D01*
X154854488Y-108787011D01*
X154854490Y-108787013D01*
X154854491Y-108787015D01*
X154956985Y-108889509D01*
X154956986Y-108889510D01*
X154956988Y-108889511D01*
X155082511Y-108961982D01*
X155082512Y-108961982D01*
X155082515Y-108961984D01*
X155209709Y-108996066D01*
X155269368Y-109032430D01*
X155299897Y-109095277D01*
X155291602Y-109164653D01*
X155265295Y-109203521D01*
X153410637Y-111058181D01*
X153349314Y-111091666D01*
X153322956Y-111094500D01*
X148508904Y-111094500D01*
X148419760Y-111118386D01*
X148419757Y-111118387D01*
X148339839Y-111164527D01*
X148339834Y-111164531D01*
X146091185Y-113413181D01*
X146032316Y-113446106D01*
X146018109Y-113449500D01*
X145977513Y-113449500D01*
X145837503Y-113487016D01*
X145820871Y-113496618D01*
X145803312Y-113500813D01*
X145785716Y-113499913D01*
X145768594Y-113504066D01*
X145751547Y-113498165D01*
X145733533Y-113497244D01*
X145719217Y-113486974D01*
X145702568Y-113481211D01*
X145691418Y-113467031D01*
X145676761Y-113456517D01*
X145670270Y-113440137D01*
X145659380Y-113426288D01*
X145654265Y-113399749D01*
X145651021Y-113391561D01*
X145651862Y-113387276D01*
X145650500Y-113380207D01*
X145650500Y-110837247D01*
X145670185Y-110770208D01*
X145712501Y-110729860D01*
X145726502Y-110721776D01*
X145746712Y-110710108D01*
X145849206Y-110607614D01*
X145921681Y-110482084D01*
X145959197Y-110342074D01*
X145959197Y-110197124D01*
X145921681Y-110057114D01*
X145907920Y-110033280D01*
X145849208Y-109931587D01*
X145849203Y-109931581D01*
X145746714Y-109829092D01*
X145746708Y-109829087D01*
X145621185Y-109756616D01*
X145621186Y-109756616D01*
X145609703Y-109753539D01*
X145481172Y-109719099D01*
X145336222Y-109719099D01*
X145207690Y-109753539D01*
X145196208Y-109756616D01*
X145070685Y-109829087D01*
X145070679Y-109829092D01*
X144968190Y-109931581D01*
X144968185Y-109931587D01*
X144895714Y-110057110D01*
X144895713Y-110057114D01*
X144858197Y-110197124D01*
X144858197Y-110342074D01*
X144895713Y-110482084D01*
X144932886Y-110546469D01*
X144949500Y-110608470D01*
X144949500Y-119078689D01*
X144947263Y-119086307D01*
X144948533Y-119094145D01*
X144937559Y-119119354D01*
X144929815Y-119145728D01*
X144923105Y-119152558D01*
X144920646Y-119158208D01*
X144894389Y-119181792D01*
X144841476Y-119217146D01*
X144774798Y-119238023D01*
X144707418Y-119219537D01*
X144684906Y-119201724D01*
X144452713Y-118969531D01*
X144452708Y-118969527D01*
X144372790Y-118923387D01*
X144372789Y-118923386D01*
X144372788Y-118923386D01*
X144283644Y-118899500D01*
X144283643Y-118899500D01*
X144229386Y-118899500D01*
X144162347Y-118879815D01*
X144141705Y-118863181D01*
X144088017Y-118809493D01*
X144088011Y-118809488D01*
X143962488Y-118737017D01*
X143962489Y-118737017D01*
X143923235Y-118726499D01*
X143822475Y-118699500D01*
X143677525Y-118699500D01*
X143576765Y-118726499D01*
X143537511Y-118737017D01*
X143411988Y-118809488D01*
X143411982Y-118809493D01*
X143309493Y-118911982D01*
X143309488Y-118911988D01*
X143237017Y-119037511D01*
X143237016Y-119037515D01*
X143199500Y-119177525D01*
X143199500Y-119177527D01*
X143199500Y-119304456D01*
X143179815Y-119371495D01*
X143127011Y-119417250D01*
X143057853Y-119427194D01*
X142994297Y-119398169D01*
X142987819Y-119392137D01*
X141786819Y-118191137D01*
X141753334Y-118129814D01*
X141750500Y-118103456D01*
X141750500Y-117738847D01*
X141770185Y-117671808D01*
X141822989Y-117626053D01*
X141833528Y-117621812D01*
X141887882Y-117602793D01*
X141997150Y-117522150D01*
X142077793Y-117412882D01*
X142105064Y-117334945D01*
X142122646Y-117284701D01*
X142122646Y-117284699D01*
X142125500Y-117254269D01*
X142125500Y-116745730D01*
X142122646Y-116715300D01*
X142122646Y-116715298D01*
X142077793Y-116587119D01*
X142077792Y-116587117D01*
X141997150Y-116477850D01*
X141887882Y-116397207D01*
X141887880Y-116397206D01*
X141759700Y-116352353D01*
X141729270Y-116349500D01*
X141729266Y-116349500D01*
X141195544Y-116349500D01*
X141174298Y-116343261D01*
X141152210Y-116341682D01*
X141141426Y-116333609D01*
X141128505Y-116329815D01*
X141114005Y-116313081D01*
X141096277Y-116299810D01*
X141091569Y-116287189D01*
X141082750Y-116277011D01*
X141079598Y-116255093D01*
X141071860Y-116234346D01*
X141074722Y-116221185D01*
X141072806Y-116207853D01*
X141082005Y-116187709D01*
X141086712Y-116166073D01*
X141099980Y-116148347D01*
X141101831Y-116144297D01*
X141107863Y-116137819D01*
X141208863Y-116036819D01*
X141270186Y-116003334D01*
X141296544Y-116000500D01*
X141729270Y-116000500D01*
X141759699Y-115997646D01*
X141759701Y-115997646D01*
X141823790Y-115975219D01*
X141887882Y-115952793D01*
X141997150Y-115872150D01*
X142077793Y-115762882D01*
X142102707Y-115691681D01*
X142122646Y-115634701D01*
X142122646Y-115634699D01*
X142125500Y-115604269D01*
X142125500Y-115095730D01*
X142122646Y-115065300D01*
X142122646Y-115065298D01*
X142089006Y-114969163D01*
X142077793Y-114937118D01*
X141997150Y-114827850D01*
X141887882Y-114747207D01*
X141870469Y-114741114D01*
X141833544Y-114728193D01*
X141814554Y-114714572D01*
X141793297Y-114704865D01*
X141786693Y-114694590D01*
X141776768Y-114687471D01*
X141768156Y-114665744D01*
X141755523Y-114646087D01*
X141752767Y-114626921D01*
X141751022Y-114622518D01*
X141750500Y-114611152D01*
X141750500Y-114396783D01*
X141770185Y-114329744D01*
X141822989Y-114283989D01*
X141831142Y-114280610D01*
X141855226Y-114271628D01*
X141936804Y-114210559D01*
X142002264Y-114186143D01*
X142070538Y-114200994D01*
X142116650Y-114244730D01*
X142152424Y-114302728D01*
X142152427Y-114302732D01*
X142272267Y-114422572D01*
X142272271Y-114422575D01*
X142416507Y-114511542D01*
X142416518Y-114511547D01*
X142577393Y-114564855D01*
X142676683Y-114574999D01*
X143200000Y-114574999D01*
X143223308Y-114574999D01*
X143223322Y-114574998D01*
X143322607Y-114564855D01*
X143483481Y-114511547D01*
X143483492Y-114511542D01*
X143627728Y-114422575D01*
X143627732Y-114422572D01*
X143747572Y-114302732D01*
X143747575Y-114302728D01*
X143836542Y-114158492D01*
X143836547Y-114158481D01*
X143889855Y-113997606D01*
X143899999Y-113898322D01*
X143900000Y-113898309D01*
X143900000Y-113850000D01*
X143200000Y-113850000D01*
X143200000Y-114574999D01*
X142676683Y-114574999D01*
X142700000Y-114574998D01*
X142700000Y-113350000D01*
X143200000Y-113350000D01*
X143899999Y-113350000D01*
X143899999Y-113301692D01*
X143899998Y-113301677D01*
X143889855Y-113202392D01*
X143836547Y-113041518D01*
X143836542Y-113041507D01*
X143747575Y-112897271D01*
X143747572Y-112897267D01*
X143627732Y-112777427D01*
X143627728Y-112777424D01*
X143483492Y-112688457D01*
X143483481Y-112688452D01*
X143322606Y-112635144D01*
X143223322Y-112625000D01*
X143200000Y-112625000D01*
X143200000Y-113350000D01*
X142700000Y-113350000D01*
X142700000Y-112624999D01*
X142676693Y-112625000D01*
X142676674Y-112625001D01*
X142577392Y-112635144D01*
X142416518Y-112688452D01*
X142416507Y-112688457D01*
X142272271Y-112777424D01*
X142272267Y-112777427D01*
X142152424Y-112897270D01*
X142116649Y-112955270D01*
X142064701Y-113001993D01*
X141995738Y-113013214D01*
X141936802Y-112989438D01*
X141855230Y-112928374D01*
X141855227Y-112928373D01*
X141855226Y-112928372D01*
X141727114Y-112880588D01*
X141727112Y-112880587D01*
X141727110Y-112880587D01*
X141670493Y-112874500D01*
X141129518Y-112874500D01*
X141129509Y-112874501D01*
X141072885Y-112880587D01*
X140944773Y-112928372D01*
X140835313Y-113010313D01*
X140753373Y-113119771D01*
X140705587Y-113247889D01*
X140699500Y-113304498D01*
X140699500Y-113895481D01*
X140699501Y-113895490D01*
X140705587Y-113952114D01*
X140750481Y-114072475D01*
X140753372Y-114080226D01*
X140835313Y-114189687D01*
X140944774Y-114271628D01*
X140968836Y-114280602D01*
X140986560Y-114293871D01*
X141006703Y-114303070D01*
X141013985Y-114314401D01*
X141024767Y-114322473D01*
X141032504Y-114343218D01*
X141044477Y-114361848D01*
X141047628Y-114383766D01*
X141049184Y-114387937D01*
X141049500Y-114396783D01*
X141049500Y-114611152D01*
X141029815Y-114678191D01*
X140977011Y-114723946D01*
X140966456Y-114728193D01*
X140912117Y-114747207D01*
X140802850Y-114827850D01*
X140722207Y-114937117D01*
X140722206Y-114937119D01*
X140677353Y-115065298D01*
X140677353Y-115065300D01*
X140674500Y-115095730D01*
X140674500Y-115528456D01*
X140654815Y-115595495D01*
X140638181Y-115616137D01*
X140319531Y-115934786D01*
X140319525Y-115934794D01*
X140283239Y-115997645D01*
X140283239Y-115997646D01*
X140273387Y-116014709D01*
X140273386Y-116014712D01*
X140249500Y-116103856D01*
X140249500Y-124110643D01*
X140273386Y-124199787D01*
X140273387Y-124199790D01*
X140319527Y-124279708D01*
X140319529Y-124279711D01*
X140319530Y-124279712D01*
X141720288Y-125680470D01*
X141800212Y-125726614D01*
X141889356Y-125750500D01*
X149003456Y-125750500D01*
X149070495Y-125770185D01*
X149091137Y-125786819D01*
X151592137Y-128287819D01*
X151625622Y-128349142D01*
X151620638Y-128418834D01*
X151578766Y-128474767D01*
X151513302Y-128499184D01*
X151504456Y-128499500D01*
X132624500Y-128499500D01*
X132557461Y-128479815D01*
X132511706Y-128427011D01*
X132500500Y-128375500D01*
X132500500Y-124270097D01*
X136349500Y-124270097D01*
X136349500Y-124529902D01*
X136390140Y-124786493D01*
X136470422Y-125033576D01*
X136551534Y-125192764D01*
X136588366Y-125265051D01*
X136741069Y-125475229D01*
X136924771Y-125658931D01*
X137134949Y-125811634D01*
X137282445Y-125886787D01*
X137366423Y-125929577D01*
X137366425Y-125929577D01*
X137366428Y-125929579D01*
X137613507Y-126009860D01*
X137745706Y-126030797D01*
X137870098Y-126050500D01*
X137870103Y-126050500D01*
X138129902Y-126050500D01*
X138243298Y-126032539D01*
X138386493Y-126009860D01*
X138633572Y-125929579D01*
X138865051Y-125811634D01*
X139075229Y-125658931D01*
X139258931Y-125475229D01*
X139411634Y-125265051D01*
X139529579Y-125033572D01*
X139609860Y-124786493D01*
X139632539Y-124643298D01*
X139650500Y-124529902D01*
X139650500Y-124270097D01*
X139625245Y-124110644D01*
X139609860Y-124013507D01*
X139529579Y-123766428D01*
X139529577Y-123766425D01*
X139529577Y-123766423D01*
X139444779Y-123600000D01*
X139411634Y-123534949D01*
X139258931Y-123324771D01*
X139075229Y-123141069D01*
X139069644Y-123137011D01*
X138865054Y-122988368D01*
X138865053Y-122988367D01*
X138865051Y-122988366D01*
X138774322Y-122942137D01*
X138633576Y-122870422D01*
X138386493Y-122790140D01*
X138129902Y-122749500D01*
X138129897Y-122749500D01*
X137870103Y-122749500D01*
X137870098Y-122749500D01*
X137613506Y-122790140D01*
X137366423Y-122870422D01*
X137134945Y-122988368D01*
X136924774Y-123141066D01*
X136924768Y-123141071D01*
X136741071Y-123324768D01*
X136741066Y-123324774D01*
X136588368Y-123534945D01*
X136470422Y-123766423D01*
X136390140Y-124013506D01*
X136349500Y-124270097D01*
X132500500Y-124270097D01*
X132500500Y-118070097D01*
X136349500Y-118070097D01*
X136349500Y-118329902D01*
X136390140Y-118586493D01*
X136470422Y-118833576D01*
X136529999Y-118950500D01*
X136583402Y-119055309D01*
X136588368Y-119065054D01*
X136687898Y-119202045D01*
X136741069Y-119275229D01*
X136924771Y-119458931D01*
X137134949Y-119611634D01*
X137282445Y-119686787D01*
X137366423Y-119729577D01*
X137366425Y-119729577D01*
X137366428Y-119729579D01*
X137613507Y-119809860D01*
X137745706Y-119830797D01*
X137870098Y-119850500D01*
X137870103Y-119850500D01*
X138129902Y-119850500D01*
X138243298Y-119832539D01*
X138386493Y-119809860D01*
X138633572Y-119729579D01*
X138865051Y-119611634D01*
X139075229Y-119458931D01*
X139258931Y-119275229D01*
X139411634Y-119065051D01*
X139529579Y-118833572D01*
X139609860Y-118586493D01*
X139647927Y-118346144D01*
X139650500Y-118329902D01*
X139650500Y-118070097D01*
X139626824Y-117920614D01*
X139609860Y-117813507D01*
X139529579Y-117566428D01*
X139529577Y-117566425D01*
X139529577Y-117566423D01*
X139451342Y-117412880D01*
X139411634Y-117334949D01*
X139258931Y-117124771D01*
X139075229Y-116941069D01*
X138865051Y-116788366D01*
X138792764Y-116751534D01*
X138633576Y-116670422D01*
X138386493Y-116590140D01*
X138129902Y-116549500D01*
X138129897Y-116549500D01*
X137870103Y-116549500D01*
X137870098Y-116549500D01*
X137613506Y-116590140D01*
X137366423Y-116670422D01*
X137134945Y-116788368D01*
X136924774Y-116941066D01*
X136924768Y-116941071D01*
X136741071Y-117124768D01*
X136741066Y-117124774D01*
X136588368Y-117334945D01*
X136470422Y-117566423D01*
X136390140Y-117813506D01*
X136349500Y-118070097D01*
X132500500Y-118070097D01*
X132500500Y-109850000D01*
X140540000Y-109850000D01*
X143937500Y-109850000D01*
X143937500Y-105400500D01*
X144052725Y-105400500D01*
X144052727Y-105400500D01*
X144154588Y-105373207D01*
X144245913Y-105320480D01*
X146879574Y-102686819D01*
X146940897Y-102653334D01*
X146967255Y-102650500D01*
X146972472Y-102650500D01*
X146972475Y-102650500D01*
X147112485Y-102612984D01*
X147238015Y-102540509D01*
X147340509Y-102438015D01*
X147412984Y-102312485D01*
X147450500Y-102172475D01*
X147450500Y-102027525D01*
X147412984Y-101887515D01*
X147402652Y-101869620D01*
X147340511Y-101761988D01*
X147340506Y-101761982D01*
X147238017Y-101659493D01*
X147238011Y-101659488D01*
X147112488Y-101587017D01*
X147112489Y-101587017D01*
X147101006Y-101583940D01*
X146972475Y-101549500D01*
X146827525Y-101549500D01*
X146698993Y-101583940D01*
X146687511Y-101587017D01*
X146561988Y-101659488D01*
X146561982Y-101659493D01*
X146459493Y-101761982D01*
X146459488Y-101761988D01*
X146387017Y-101887511D01*
X146387016Y-101887515D01*
X146349500Y-102027525D01*
X146349500Y-102027527D01*
X146349500Y-102032745D01*
X146329815Y-102099784D01*
X146313181Y-102120426D01*
X143937500Y-104496107D01*
X143937500Y-99300000D01*
X146500000Y-99300000D01*
X146500000Y-96250000D01*
X140540000Y-96250000D01*
X140540000Y-109850000D01*
X132500500Y-109850000D01*
X132500500Y-106127229D01*
X132520185Y-106060190D01*
X132572989Y-106014435D01*
X132642147Y-106004491D01*
X132686500Y-106019842D01*
X132705128Y-106030597D01*
X132845138Y-106068113D01*
X132921069Y-106068113D01*
X132988108Y-106087798D01*
X133008750Y-106104432D01*
X133222951Y-106318632D01*
X133419531Y-106515212D01*
X133484788Y-106580469D01*
X133484791Y-106580470D01*
X133484794Y-106580473D01*
X133564706Y-106626611D01*
X133564707Y-106626611D01*
X133564712Y-106626614D01*
X133653856Y-106650500D01*
X133653858Y-106650500D01*
X134676255Y-106650500D01*
X134676257Y-106650500D01*
X134765401Y-106626614D01*
X134773117Y-106622159D01*
X134845325Y-106580470D01*
X135510583Y-105915212D01*
X135556727Y-105835288D01*
X135559814Y-105823766D01*
X135580613Y-105746144D01*
X135580613Y-104796783D01*
X135600298Y-104729744D01*
X135653102Y-104683989D01*
X135661255Y-104680610D01*
X135685339Y-104671628D01*
X135794800Y-104589687D01*
X135876741Y-104480226D01*
X135895040Y-104431166D01*
X135936911Y-104375232D01*
X136002376Y-104350816D01*
X136011221Y-104350500D01*
X136551255Y-104350500D01*
X136551257Y-104350500D01*
X136640401Y-104326614D01*
X136720325Y-104280470D01*
X136959980Y-104040813D01*
X136988487Y-104025247D01*
X137016335Y-104008518D01*
X137018978Y-104008597D01*
X137021299Y-104007331D01*
X137053695Y-104009647D01*
X137086173Y-104010630D01*
X137088984Y-104012171D01*
X137090991Y-104012315D01*
X137117820Y-104026255D01*
X137124771Y-104031025D01*
X137126697Y-104032951D01*
X137160160Y-104055310D01*
X137160763Y-104055724D01*
X137182386Y-104082258D01*
X137204297Y-104108476D01*
X137204396Y-104109267D01*
X137204901Y-104109887D01*
X137208741Y-104143864D01*
X137213004Y-104177800D01*
X137212659Y-104178520D01*
X137212749Y-104179315D01*
X137197600Y-104209996D01*
X137182850Y-104240828D01*
X137181980Y-104241632D01*
X137181817Y-104241964D01*
X137181263Y-104242296D01*
X137166097Y-104256334D01*
X137161989Y-104259486D01*
X137059493Y-104361982D01*
X137059488Y-104361988D01*
X136987017Y-104487511D01*
X136987016Y-104487515D01*
X136949500Y-104627525D01*
X136949500Y-104772475D01*
X136986765Y-104911547D01*
X136987017Y-104912488D01*
X137059488Y-105038011D01*
X137059490Y-105038013D01*
X137059491Y-105038015D01*
X137161985Y-105140509D01*
X137161986Y-105140510D01*
X137161988Y-105140511D01*
X137287511Y-105212982D01*
X137287512Y-105212982D01*
X137287515Y-105212984D01*
X137427525Y-105250500D01*
X137503456Y-105250500D01*
X137570495Y-105270185D01*
X137591137Y-105286819D01*
X139284788Y-106980470D01*
X139354088Y-107020480D01*
X139364712Y-107026614D01*
X139449962Y-107049456D01*
X139453342Y-107050574D01*
X139470018Y-107062102D01*
X139502102Y-107080626D01*
X139561985Y-107140509D01*
X139561986Y-107140510D01*
X139561988Y-107140511D01*
X139687511Y-107212982D01*
X139687512Y-107212982D01*
X139687515Y-107212984D01*
X139827525Y-107250500D01*
X139827528Y-107250500D01*
X139972472Y-107250500D01*
X139972475Y-107250500D01*
X140112485Y-107212984D01*
X140238015Y-107140509D01*
X140340509Y-107038015D01*
X140412984Y-106912485D01*
X140450500Y-106772475D01*
X140450500Y-106627525D01*
X140412984Y-106487515D01*
X140401167Y-106467048D01*
X140340511Y-106361988D01*
X140340506Y-106361982D01*
X140238017Y-106259493D01*
X140238011Y-106259488D01*
X140112488Y-106187017D01*
X140112489Y-106187017D01*
X140101006Y-106183940D01*
X139972475Y-106149500D01*
X139827525Y-106149500D01*
X139729108Y-106175870D01*
X139687510Y-106187017D01*
X139687509Y-106187018D01*
X139640064Y-106214410D01*
X139572164Y-106230881D01*
X139506137Y-106208028D01*
X139490385Y-106194703D01*
X138086819Y-104791137D01*
X138053334Y-104729814D01*
X138050500Y-104703456D01*
X138050500Y-104627527D01*
X138050500Y-104627525D01*
X138012984Y-104487515D01*
X138012696Y-104487017D01*
X137940511Y-104361988D01*
X137940506Y-104361982D01*
X137903034Y-104324510D01*
X137869549Y-104263187D01*
X137874533Y-104193495D01*
X137916405Y-104137562D01*
X137943261Y-104122269D01*
X137960608Y-104115084D01*
X138083529Y-104032951D01*
X138188064Y-103928416D01*
X138270197Y-103805495D01*
X138326771Y-103668913D01*
X138343405Y-103585290D01*
X138355613Y-103523920D01*
X138355613Y-103376079D01*
X138338530Y-103290200D01*
X138344757Y-103220608D01*
X138372464Y-103178329D01*
X138988975Y-102561819D01*
X139050298Y-102528334D01*
X139076656Y-102525500D01*
X139134383Y-102525500D01*
X139164812Y-102522646D01*
X139164814Y-102522646D01*
X139228903Y-102500219D01*
X139292995Y-102477793D01*
X139402263Y-102397150D01*
X139482906Y-102287882D01*
X139510822Y-102208102D01*
X139527759Y-102159701D01*
X139527759Y-102159699D01*
X139530613Y-102129269D01*
X139530613Y-101470730D01*
X139527759Y-101440300D01*
X139527759Y-101440298D01*
X139482906Y-101312119D01*
X139482905Y-101312117D01*
X139402263Y-101202850D01*
X139292995Y-101122207D01*
X139292993Y-101122206D01*
X139278231Y-101117041D01*
X139221455Y-101076320D01*
X139195708Y-101011367D01*
X139209164Y-100942805D01*
X139257552Y-100892402D01*
X139278231Y-100882959D01*
X139292995Y-100877793D01*
X139402263Y-100797150D01*
X139482906Y-100687882D01*
X139524282Y-100569637D01*
X139527759Y-100559701D01*
X139527759Y-100559699D01*
X139530613Y-100529269D01*
X139530613Y-100096544D01*
X139550298Y-100029505D01*
X139566932Y-100008863D01*
X139710293Y-99865502D01*
X139861583Y-99714212D01*
X139907727Y-99634288D01*
X139911750Y-99619274D01*
X139931613Y-99545144D01*
X139931613Y-98054856D01*
X139907727Y-97965712D01*
X139907726Y-97965710D01*
X139907726Y-97965709D01*
X139904067Y-97959372D01*
X139904066Y-97959370D01*
X139861587Y-97885794D01*
X139861581Y-97885786D01*
X138966932Y-96991137D01*
X138933447Y-96929814D01*
X138930613Y-96903456D01*
X138930613Y-96470730D01*
X138927759Y-96440300D01*
X138927759Y-96440298D01*
X138890412Y-96333569D01*
X138882906Y-96312118D01*
X138802263Y-96202850D01*
X138692995Y-96122207D01*
X138692994Y-96122206D01*
X138685518Y-96116689D01*
X138686975Y-96114714D01*
X138686419Y-96114174D01*
X138673410Y-96108233D01*
X138661881Y-96090293D01*
X138646598Y-96075420D01*
X138642645Y-96060362D01*
X138635636Y-96049455D01*
X138630613Y-96014520D01*
X138630613Y-95985480D01*
X138650298Y-95918441D01*
X138686741Y-95884968D01*
X138685518Y-95883311D01*
X138701546Y-95871482D01*
X138802263Y-95797150D01*
X138882906Y-95687882D01*
X138907228Y-95618373D01*
X138927759Y-95559701D01*
X138927759Y-95559699D01*
X138930613Y-95529269D01*
X138930613Y-94870730D01*
X138927759Y-94840303D01*
X138927759Y-94840301D01*
X138882906Y-94712118D01*
X138874728Y-94701037D01*
X138867272Y-94680624D01*
X138855523Y-94662341D01*
X138852229Y-94639437D01*
X138850759Y-94635410D01*
X138850500Y-94627406D01*
X138850500Y-94379386D01*
X138870185Y-94312347D01*
X138886819Y-94291705D01*
X138896115Y-94282409D01*
X138940509Y-94238015D01*
X139012984Y-94112485D01*
X139050500Y-93972475D01*
X139050500Y-93827525D01*
X139012984Y-93687515D01*
X139010930Y-93683958D01*
X138940511Y-93561988D01*
X138940506Y-93561982D01*
X138840705Y-93462181D01*
X138807220Y-93400858D01*
X138812204Y-93331166D01*
X138854076Y-93275233D01*
X138919540Y-93250816D01*
X138928386Y-93250500D01*
X139543356Y-93250500D01*
X139543358Y-93250500D01*
X139632502Y-93226614D01*
X139650832Y-93216031D01*
X139712426Y-93180470D01*
X140190020Y-92702876D01*
X140251343Y-92669391D01*
X140277701Y-92666557D01*
X143312242Y-92666557D01*
X143312244Y-92666557D01*
X143401388Y-92642671D01*
X143407532Y-92639123D01*
X143407536Y-92639122D01*
X143481305Y-92596531D01*
X143481304Y-92596531D01*
X143481312Y-92596527D01*
X143722274Y-92355563D01*
X143783597Y-92322079D01*
X143809955Y-92319245D01*
X151224535Y-92319245D01*
X151224537Y-92319245D01*
X151313681Y-92295359D01*
X151330636Y-92285570D01*
X151393605Y-92249215D01*
X151493427Y-92149391D01*
X151498055Y-92145583D01*
X151524889Y-92134140D01*
X151550500Y-92120156D01*
X151557305Y-92120317D01*
X151562326Y-92118177D01*
X151577816Y-92120806D01*
G37*
%TD.AperFunction*%
%TA.AperFunction,Conductor*%
G36*
X159317834Y-110280362D02*
G01*
X159373767Y-110322234D01*
X159398184Y-110387698D01*
X159398500Y-110396544D01*
X159398500Y-110895144D01*
X159410925Y-110941512D01*
X159422386Y-110984287D01*
X159422387Y-110984290D01*
X159468527Y-111064208D01*
X159468531Y-111064213D01*
X159769531Y-111365212D01*
X159777915Y-111373596D01*
X159811400Y-111434919D01*
X159812707Y-111441879D01*
X159815279Y-111458122D01*
X159815279Y-111458123D01*
X159815281Y-111458126D01*
X159876472Y-111578220D01*
X159876474Y-111578222D01*
X159876476Y-111578225D01*
X159963192Y-111664941D01*
X159996677Y-111726264D01*
X159991693Y-111795956D01*
X159949821Y-111851889D01*
X159939661Y-111858739D01*
X159805658Y-111939746D01*
X159689747Y-112055657D01*
X159689743Y-112055662D01*
X159604947Y-112195934D01*
X159556178Y-112352441D01*
X159551857Y-112399999D01*
X159551857Y-112400000D01*
X161276000Y-112400000D01*
X161343039Y-112419685D01*
X161388794Y-112472489D01*
X161400000Y-112524000D01*
X161400000Y-112650000D01*
X161526000Y-112650000D01*
X161593039Y-112669685D01*
X161638794Y-112722489D01*
X161650000Y-112774000D01*
X161650000Y-113499999D01*
X162387856Y-113499999D01*
X162454895Y-113519684D01*
X162500650Y-113572488D01*
X162510594Y-113641646D01*
X162481569Y-113705202D01*
X162475537Y-113711680D01*
X159180031Y-117007186D01*
X159180029Y-117007189D01*
X159139249Y-117077824D01*
X159139247Y-117077827D01*
X159133887Y-117087109D01*
X159133885Y-117087114D01*
X159110000Y-117176256D01*
X159110000Y-121394144D01*
X159124833Y-121449500D01*
X159124832Y-121449500D01*
X159124833Y-121449502D01*
X159133884Y-121483284D01*
X159133885Y-121483286D01*
X159180027Y-121563208D01*
X159180029Y-121563211D01*
X159180030Y-121563212D01*
X159747288Y-122130470D01*
X159823852Y-122174674D01*
X159827212Y-122176614D01*
X159852314Y-122183340D01*
X159857717Y-122185342D01*
X159881284Y-122202905D01*
X159906385Y-122218205D01*
X159910484Y-122224667D01*
X159913740Y-122227094D01*
X159916228Y-122233723D01*
X159918996Y-122238086D01*
X159919748Y-122237585D01*
X159948830Y-122281109D01*
X159969708Y-122347786D01*
X159951224Y-122415167D01*
X159948837Y-122418879D01*
X159944208Y-122425807D01*
X159926533Y-122452260D01*
X159926532Y-122452264D01*
X159912000Y-122525321D01*
X159912000Y-123174678D01*
X159926532Y-123247735D01*
X159926533Y-123247739D01*
X159926534Y-123247740D01*
X159981899Y-123330601D01*
X160064760Y-123385966D01*
X160064764Y-123385967D01*
X160137821Y-123400499D01*
X160137824Y-123400500D01*
X160137826Y-123400500D01*
X161987176Y-123400500D01*
X161987177Y-123400499D01*
X162060240Y-123385966D01*
X162143101Y-123330601D01*
X162186231Y-123266052D01*
X162193209Y-123255609D01*
X162246821Y-123210804D01*
X162296311Y-123200500D01*
X163772614Y-123200500D01*
X163839653Y-123220185D01*
X163860295Y-123236819D01*
X163862985Y-123239509D01*
X163862986Y-123239510D01*
X163862988Y-123239511D01*
X163988511Y-123311982D01*
X163988512Y-123311982D01*
X163988515Y-123311984D01*
X164128525Y-123349500D01*
X164128528Y-123349500D01*
X164273472Y-123349500D01*
X164273475Y-123349500D01*
X164413485Y-123311984D01*
X164539015Y-123239509D01*
X164641509Y-123137015D01*
X164713984Y-123011485D01*
X164751500Y-122871475D01*
X164751500Y-122726525D01*
X164713984Y-122586515D01*
X164678656Y-122525326D01*
X164641511Y-122460988D01*
X164641506Y-122460982D01*
X164539017Y-122358493D01*
X164539011Y-122358488D01*
X164413488Y-122286017D01*
X164413489Y-122286017D01*
X164392780Y-122280468D01*
X164273475Y-122248500D01*
X164128525Y-122248500D01*
X164009220Y-122280468D01*
X163988511Y-122286017D01*
X163862988Y-122358488D01*
X163862982Y-122358493D01*
X163758295Y-122463181D01*
X163696972Y-122496666D01*
X163670614Y-122499500D01*
X162296311Y-122499500D01*
X162288696Y-122497263D01*
X162280860Y-122498534D01*
X162255647Y-122487559D01*
X162229272Y-122479815D01*
X162222442Y-122473106D01*
X162216796Y-122470649D01*
X162193210Y-122444393D01*
X162185699Y-122433153D01*
X162176169Y-122418890D01*
X162155291Y-122352215D01*
X162173774Y-122284834D01*
X162176121Y-122281181D01*
X162198466Y-122247740D01*
X162213000Y-122174674D01*
X162213000Y-121525326D01*
X162213000Y-121525323D01*
X162212999Y-121525321D01*
X162198467Y-121452264D01*
X162198467Y-121452262D01*
X162196623Y-121449502D01*
X162176167Y-121418887D01*
X162155291Y-121352214D01*
X162173775Y-121284834D01*
X162176128Y-121281170D01*
X162198466Y-121247740D01*
X162213000Y-121174674D01*
X162213000Y-120649125D01*
X162232685Y-120582086D01*
X162262689Y-120549858D01*
X162319689Y-120507187D01*
X162319690Y-120507186D01*
X162405852Y-120392088D01*
X162405854Y-120392086D01*
X162456096Y-120257379D01*
X162456098Y-120257372D01*
X162462499Y-120197844D01*
X162462500Y-120197827D01*
X162462500Y-119502172D01*
X162462499Y-119502155D01*
X162456098Y-119442627D01*
X162456096Y-119442620D01*
X162405854Y-119307913D01*
X162405852Y-119307910D01*
X162398667Y-119298312D01*
X162374249Y-119232849D01*
X162389100Y-119164575D01*
X162438504Y-119115169D01*
X162497933Y-119100000D01*
X165058948Y-119100000D01*
X165058948Y-119099999D01*
X163662500Y-117703552D01*
X162268641Y-119097409D01*
X162268640Y-119097410D01*
X162045594Y-119320457D01*
X161984271Y-119353942D01*
X161957913Y-119356776D01*
X161909276Y-119356776D01*
X161326957Y-119939095D01*
X161265634Y-119972580D01*
X161195942Y-119967596D01*
X161151595Y-119939095D01*
X160973405Y-119760905D01*
X160939920Y-119699582D01*
X160944904Y-119629890D01*
X160973405Y-119585543D01*
X161508948Y-119050000D01*
X160336000Y-119050000D01*
X160268961Y-119030315D01*
X160223206Y-118977511D01*
X160212000Y-118926000D01*
X160212000Y-117585044D01*
X160231685Y-117518005D01*
X160248319Y-117497363D01*
X161450819Y-116294863D01*
X161512142Y-116261378D01*
X161581834Y-116266362D01*
X161637767Y-116308234D01*
X161662184Y-116373698D01*
X161662500Y-116382544D01*
X161662500Y-118647844D01*
X161668901Y-118707372D01*
X161668903Y-118707379D01*
X161718525Y-118840421D01*
X161718525Y-118840422D01*
X161729406Y-118829542D01*
X161790729Y-118796058D01*
X161817086Y-118793224D01*
X161865724Y-118793224D01*
X163398043Y-117260905D01*
X163459366Y-117227420D01*
X163529058Y-117232404D01*
X163573405Y-117260905D01*
X163662499Y-117349999D01*
X163751593Y-117260905D01*
X163812916Y-117227420D01*
X163882608Y-117232404D01*
X163926956Y-117260905D01*
X165564020Y-118897969D01*
X165605851Y-118842091D01*
X165656097Y-118707376D01*
X165656098Y-118707372D01*
X165662499Y-118647844D01*
X165662500Y-118647827D01*
X165662500Y-116052172D01*
X165662499Y-116052155D01*
X165656098Y-115992627D01*
X165656096Y-115992620D01*
X165605854Y-115857913D01*
X165605853Y-115857911D01*
X165598665Y-115848309D01*
X165574249Y-115782844D01*
X165589101Y-115714571D01*
X165638507Y-115665166D01*
X165697933Y-115649999D01*
X165849972Y-115649999D01*
X165849986Y-115649998D01*
X165952695Y-115639506D01*
X166084495Y-115595831D01*
X166154324Y-115593429D01*
X166214366Y-115629160D01*
X166245559Y-115691681D01*
X166247500Y-115713537D01*
X166247500Y-127071256D01*
X166238855Y-127100696D01*
X166232332Y-127130683D01*
X166228577Y-127135698D01*
X166227815Y-127138295D01*
X166211181Y-127158937D01*
X166159937Y-127210181D01*
X166098614Y-127243666D01*
X166072256Y-127246500D01*
X165183845Y-127246500D01*
X165116806Y-127226815D01*
X165071051Y-127174011D01*
X165061107Y-127104853D01*
X165061687Y-127102738D01*
X163662500Y-125703552D01*
X162259141Y-127106909D01*
X162263185Y-127144517D01*
X162231909Y-127206996D01*
X162171820Y-127242648D01*
X162141155Y-127246500D01*
X153193544Y-127246500D01*
X153126505Y-127226815D01*
X153105863Y-127210181D01*
X150709702Y-124814020D01*
X155252029Y-124814020D01*
X155307910Y-124855852D01*
X155307913Y-124855854D01*
X155442620Y-124906096D01*
X155442627Y-124906098D01*
X155502155Y-124912499D01*
X155502172Y-124912500D01*
X158097828Y-124912500D01*
X158097844Y-124912499D01*
X158157372Y-124906098D01*
X158157376Y-124906097D01*
X158292091Y-124855851D01*
X158347969Y-124814020D01*
X156800000Y-123266052D01*
X155252029Y-124814020D01*
X150709702Y-124814020D01*
X148686819Y-122791137D01*
X148653334Y-122729814D01*
X148650500Y-122703456D01*
X148650500Y-121546310D01*
X148652736Y-121538692D01*
X148651467Y-121530858D01*
X148662439Y-121505650D01*
X148670185Y-121479271D01*
X148676894Y-121472440D01*
X148679352Y-121466794D01*
X148705608Y-121443209D01*
X148710427Y-121439988D01*
X148731109Y-121426169D01*
X148797785Y-121405291D01*
X148865166Y-121423775D01*
X148868829Y-121426128D01*
X148902260Y-121448466D01*
X148902262Y-121448466D01*
X148902263Y-121448467D01*
X148975321Y-121462999D01*
X148975324Y-121463000D01*
X149460731Y-121463000D01*
X149527770Y-121482685D01*
X149573525Y-121535489D01*
X149583469Y-121604647D01*
X149562530Y-121654354D01*
X149563555Y-121654946D01*
X149487017Y-121787511D01*
X149487016Y-121787515D01*
X149449500Y-121927525D01*
X149449500Y-122072475D01*
X149477777Y-122178005D01*
X149487017Y-122212488D01*
X149559488Y-122338011D01*
X149559490Y-122338013D01*
X149559491Y-122338015D01*
X149661985Y-122440509D01*
X149661986Y-122440510D01*
X149661988Y-122440511D01*
X149787511Y-122512982D01*
X149787512Y-122512982D01*
X149787515Y-122512984D01*
X149927525Y-122550500D01*
X149927528Y-122550500D01*
X150072472Y-122550500D01*
X150072475Y-122550500D01*
X150212485Y-122512984D01*
X150338015Y-122440509D01*
X150391705Y-122386819D01*
X150453028Y-122353334D01*
X150479386Y-122350500D01*
X151758642Y-122350500D01*
X151758644Y-122350500D01*
X151847788Y-122326614D01*
X151869577Y-122314034D01*
X151927712Y-122280470D01*
X152580469Y-121627713D01*
X152626614Y-121547788D01*
X152631843Y-121528270D01*
X152668204Y-121468614D01*
X152684577Y-121456050D01*
X152695767Y-121448858D01*
X152697740Y-121448466D01*
X152732064Y-121425531D01*
X152732960Y-121424956D01*
X152765450Y-121415415D01*
X152797786Y-121405291D01*
X152798895Y-121405595D01*
X152800000Y-121405271D01*
X152832513Y-121414817D01*
X152865166Y-121423775D01*
X152866971Y-121424935D01*
X152867039Y-121424955D01*
X152867084Y-121425007D01*
X152868829Y-121426128D01*
X152902260Y-121448466D01*
X152902262Y-121448466D01*
X152902263Y-121448467D01*
X152975321Y-121462999D01*
X152975324Y-121463000D01*
X153500874Y-121463000D01*
X153567913Y-121482685D01*
X153600141Y-121512689D01*
X153642809Y-121569686D01*
X153642814Y-121569691D01*
X153757906Y-121655850D01*
X153757913Y-121655854D01*
X153892620Y-121706096D01*
X153892627Y-121706098D01*
X153952155Y-121712499D01*
X153952172Y-121712500D01*
X154647828Y-121712500D01*
X154647844Y-121712499D01*
X154707372Y-121706098D01*
X154707379Y-121706096D01*
X154842086Y-121655854D01*
X154842089Y-121655852D01*
X154851688Y-121648667D01*
X154917151Y-121624249D01*
X154985425Y-121639100D01*
X155034831Y-121688504D01*
X155050000Y-121747933D01*
X155050000Y-124308948D01*
X156446448Y-122912500D01*
X156446448Y-122912499D01*
X157153552Y-122912499D01*
X157153552Y-122912500D01*
X158549999Y-124308948D01*
X158550000Y-124308947D01*
X158550000Y-124052155D01*
X161662500Y-124052155D01*
X161662500Y-126647844D01*
X161668901Y-126707372D01*
X161668903Y-126707379D01*
X161719145Y-126842086D01*
X161719147Y-126842089D01*
X161760977Y-126897969D01*
X161760978Y-126897969D01*
X163308948Y-125350000D01*
X163308947Y-125349999D01*
X164016052Y-125349999D01*
X164016052Y-125350001D01*
X165564020Y-126897969D01*
X165605851Y-126842091D01*
X165656097Y-126707376D01*
X165656098Y-126707372D01*
X165662499Y-126647844D01*
X165662500Y-126647827D01*
X165662500Y-124052172D01*
X165662499Y-124052155D01*
X165656098Y-123992627D01*
X165656096Y-123992620D01*
X165605854Y-123857913D01*
X165605852Y-123857910D01*
X165564020Y-123802029D01*
X164016052Y-125349999D01*
X163308947Y-125349999D01*
X161760977Y-123802029D01*
X161719146Y-123857911D01*
X161719145Y-123857913D01*
X161668903Y-123992620D01*
X161668901Y-123992627D01*
X161662500Y-124052155D01*
X158550000Y-124052155D01*
X158550000Y-123600000D01*
X162266051Y-123600000D01*
X163662500Y-124996448D01*
X165058948Y-123600000D01*
X162266051Y-123600000D01*
X158550000Y-123600000D01*
X158550000Y-121516052D01*
X158549999Y-121516051D01*
X157153552Y-122912499D01*
X156446448Y-122912499D01*
X154829543Y-121295594D01*
X154806269Y-121263276D01*
X154715689Y-121081741D01*
X154602473Y-120968525D01*
X155309577Y-120968525D01*
X155320457Y-120979405D01*
X155353942Y-121040728D01*
X155356776Y-121067086D01*
X155356776Y-121115724D01*
X156800000Y-122558948D01*
X156800001Y-122558948D01*
X158347969Y-121010978D01*
X158347969Y-121010977D01*
X158292089Y-120969147D01*
X158292086Y-120969145D01*
X158157379Y-120918903D01*
X158157372Y-120918901D01*
X158097844Y-120912500D01*
X155502155Y-120912500D01*
X155442627Y-120918901D01*
X155442620Y-120918903D01*
X155309577Y-120968525D01*
X154602473Y-120968525D01*
X154210905Y-120576957D01*
X154177420Y-120515634D01*
X154182404Y-120445942D01*
X154210905Y-120401595D01*
X154300000Y-120312500D01*
X154299999Y-120312499D01*
X154653552Y-120312499D01*
X154653552Y-120312500D01*
X155099999Y-120758948D01*
X155100000Y-120758947D01*
X155100000Y-119866052D01*
X155099999Y-119866051D01*
X154653552Y-120312499D01*
X154299999Y-120312499D01*
X154210905Y-120223405D01*
X154177420Y-120162082D01*
X154182404Y-120092390D01*
X154210905Y-120048043D01*
X155019607Y-119239340D01*
X155040250Y-119222705D01*
X155058486Y-119210985D01*
X155043353Y-119170411D01*
X155043351Y-119170408D01*
X154957190Y-119055312D01*
X154957187Y-119055309D01*
X154842093Y-118969149D01*
X154842086Y-118969145D01*
X154707379Y-118918903D01*
X154707372Y-118918901D01*
X154647844Y-118912500D01*
X154554544Y-118912500D01*
X154487505Y-118892815D01*
X154441750Y-118840011D01*
X154431806Y-118770853D01*
X154447155Y-118726502D01*
X154512984Y-118612485D01*
X154550500Y-118472475D01*
X154550500Y-118327525D01*
X154512984Y-118187515D01*
X154494106Y-118154818D01*
X154440511Y-118061988D01*
X154440506Y-118061982D01*
X154386819Y-118008295D01*
X154353334Y-117946972D01*
X154350500Y-117920614D01*
X154350500Y-115196544D01*
X154370185Y-115129505D01*
X154386819Y-115108863D01*
X156595682Y-112900000D01*
X159551857Y-112900000D01*
X159556178Y-112947558D01*
X159604947Y-113104065D01*
X159689743Y-113244337D01*
X159689747Y-113244342D01*
X159805657Y-113360252D01*
X159805662Y-113360256D01*
X159945934Y-113445052D01*
X160102437Y-113493820D01*
X160170443Y-113499999D01*
X161149999Y-113499999D01*
X161150000Y-113499998D01*
X161150000Y-112900000D01*
X159551857Y-112900000D01*
X156595682Y-112900000D01*
X159186819Y-110308863D01*
X159248142Y-110275378D01*
X159317834Y-110280362D01*
G37*
%TD.AperFunction*%
%TA.AperFunction,Conductor*%
G36*
X146832513Y-121414817D02*
G01*
X146865166Y-121423775D01*
X146866970Y-121424934D01*
X146867039Y-121424955D01*
X146867085Y-121425009D01*
X146868868Y-121426155D01*
X146889572Y-121439988D01*
X146894392Y-121443209D01*
X146939196Y-121496821D01*
X146949500Y-121546310D01*
X146949500Y-123046143D01*
X146967992Y-123115157D01*
X146968008Y-123115214D01*
X146973386Y-123135289D01*
X147019527Y-123215208D01*
X147019531Y-123215213D01*
X148642137Y-124837819D01*
X148675622Y-124899142D01*
X148670638Y-124968834D01*
X148628766Y-125024767D01*
X148563302Y-125049184D01*
X148554456Y-125049500D01*
X144405967Y-125049500D01*
X144338928Y-125029815D01*
X144293173Y-124977011D01*
X144283229Y-124907853D01*
X144312254Y-124844297D01*
X144331656Y-124826233D01*
X144347969Y-124814020D01*
X142710905Y-123176956D01*
X142677420Y-123115633D01*
X142682404Y-123045941D01*
X142710905Y-123001594D01*
X142889094Y-122823405D01*
X142950417Y-122789920D01*
X143020109Y-122794904D01*
X143064456Y-122823405D01*
X144549999Y-124308948D01*
X144550000Y-124308947D01*
X144550000Y-122245044D01*
X144569685Y-122178005D01*
X144622489Y-122132250D01*
X144691647Y-122122306D01*
X144755203Y-122151331D01*
X144761681Y-122157363D01*
X144784788Y-122180470D01*
X144784789Y-122180471D01*
X144784791Y-122180472D01*
X144819481Y-122200500D01*
X144864712Y-122226614D01*
X144953856Y-122250500D01*
X144953858Y-122250500D01*
X145858642Y-122250500D01*
X145858644Y-122250500D01*
X145947788Y-122226614D01*
X146027712Y-122180470D01*
X146580470Y-121627712D01*
X146626614Y-121547788D01*
X146631843Y-121528270D01*
X146668204Y-121468614D01*
X146684577Y-121456050D01*
X146695767Y-121448858D01*
X146697740Y-121448466D01*
X146732064Y-121425531D01*
X146732960Y-121424956D01*
X146765450Y-121415415D01*
X146797786Y-121405291D01*
X146798895Y-121405595D01*
X146800000Y-121405271D01*
X146832513Y-121414817D01*
G37*
%TD.AperFunction*%
%TA.AperFunction,Conductor*%
G36*
X159864125Y-100758244D02*
G01*
X159871466Y-100758044D01*
X159895474Y-100772561D01*
X159920999Y-100784218D01*
X159929271Y-100792997D01*
X159931255Y-100794197D01*
X159932180Y-100796084D01*
X159938165Y-100802437D01*
X159956042Y-100825734D01*
X159956046Y-100825738D01*
X159956050Y-100825743D01*
X160742369Y-101612060D01*
X160999928Y-101869619D01*
X161037862Y-101898728D01*
X161145728Y-101937988D01*
X161163591Y-101937988D01*
X161230630Y-101957673D01*
X161251272Y-101974307D01*
X161504187Y-102227222D01*
X161523893Y-102252903D01*
X161559491Y-102314560D01*
X161661985Y-102417054D01*
X161787515Y-102489529D01*
X161788849Y-102489886D01*
X161789847Y-102490494D01*
X161795022Y-102492638D01*
X161794687Y-102493444D01*
X161848510Y-102526245D01*
X161879044Y-102589090D01*
X161880762Y-102609662D01*
X161880762Y-102615324D01*
X161921442Y-102780375D01*
X162000442Y-102930895D01*
X162045778Y-102985296D01*
X162045792Y-102985311D01*
X162103463Y-103042981D01*
X162103465Y-103042981D01*
X162652179Y-102494267D01*
X162713502Y-102460782D01*
X162783194Y-102465766D01*
X162827541Y-102494267D01*
X162916637Y-102583363D01*
X163005733Y-102494267D01*
X163067056Y-102460782D01*
X163136748Y-102465766D01*
X163181095Y-102494267D01*
X163782842Y-103096014D01*
X163787491Y-103091365D01*
X163832830Y-103036963D01*
X163911832Y-102886438D01*
X163952512Y-102721390D01*
X163952512Y-102551401D01*
X163911831Y-102386352D01*
X163904695Y-102372755D01*
X163890969Y-102304247D01*
X163916461Y-102239193D01*
X163973076Y-102198248D01*
X164032972Y-102192513D01*
X164136396Y-102208102D01*
X164270683Y-102187861D01*
X164393038Y-102128937D01*
X164416576Y-102109436D01*
X164502552Y-102023460D01*
X164593149Y-101932864D01*
X164654472Y-101899379D01*
X164724164Y-101904363D01*
X164780097Y-101946235D01*
X164804514Y-102011699D01*
X164804830Y-102020545D01*
X164804830Y-103451474D01*
X164816799Y-103496143D01*
X164821312Y-103512984D01*
X164821312Y-103512985D01*
X164828715Y-103540617D01*
X164874857Y-103620538D01*
X164874861Y-103620543D01*
X166435405Y-105181087D01*
X166468890Y-105242410D01*
X166463906Y-105312102D01*
X166422034Y-105368035D01*
X166392406Y-105382428D01*
X166393019Y-105383908D01*
X166385511Y-105387017D01*
X166259988Y-105459488D01*
X166259982Y-105459493D01*
X166157493Y-105561982D01*
X166157488Y-105561988D01*
X166085017Y-105687511D01*
X166085016Y-105687515D01*
X166047500Y-105827525D01*
X166047500Y-105972475D01*
X166078401Y-106087798D01*
X166085017Y-106112488D01*
X166157488Y-106238011D01*
X166157493Y-106238017D01*
X166211181Y-106291705D01*
X166225884Y-106318632D01*
X166242477Y-106344451D01*
X166243368Y-106350651D01*
X166244666Y-106353028D01*
X166247500Y-106379386D01*
X166247500Y-106586462D01*
X166227815Y-106653501D01*
X166175011Y-106699256D01*
X166105853Y-106709200D01*
X166084497Y-106704168D01*
X165952700Y-106660495D01*
X165952690Y-106660493D01*
X165849986Y-106650000D01*
X165350000Y-106650000D01*
X165350000Y-108749999D01*
X165849972Y-108749999D01*
X165849986Y-108749998D01*
X165952695Y-108739506D01*
X166084495Y-108695831D01*
X166154324Y-108693429D01*
X166214366Y-108729160D01*
X166245559Y-108791681D01*
X166247500Y-108813537D01*
X166247500Y-113486462D01*
X166227815Y-113553501D01*
X166175011Y-113599256D01*
X166105853Y-113609200D01*
X166084497Y-113604168D01*
X165952700Y-113560495D01*
X165952690Y-113560493D01*
X165849986Y-113550000D01*
X165350000Y-113550000D01*
X165350000Y-114476000D01*
X165330315Y-114543039D01*
X165277511Y-114588794D01*
X165226000Y-114600000D01*
X165100000Y-114600000D01*
X165100000Y-114726000D01*
X165080315Y-114793039D01*
X165027511Y-114838794D01*
X164976000Y-114850000D01*
X163650001Y-114850000D01*
X163650001Y-114949986D01*
X163660494Y-115052697D01*
X163715641Y-115219119D01*
X163715643Y-115219124D01*
X163807684Y-115368345D01*
X163827658Y-115388319D01*
X163861143Y-115449642D01*
X163856159Y-115519334D01*
X163814287Y-115575267D01*
X163748823Y-115599684D01*
X163739977Y-115600000D01*
X162445044Y-115600000D01*
X162378005Y-115580315D01*
X162332250Y-115527511D01*
X162322306Y-115458353D01*
X162351331Y-115394797D01*
X162357363Y-115388319D01*
X162895682Y-114850000D01*
X163438321Y-114307360D01*
X163499642Y-114273877D01*
X163569334Y-114278861D01*
X163625267Y-114320733D01*
X163627964Y-114327964D01*
X163650000Y-114350000D01*
X164850000Y-114350000D01*
X164850000Y-113550000D01*
X164371606Y-113550000D01*
X164304567Y-113530315D01*
X164258812Y-113477511D01*
X164248868Y-113408353D01*
X164251361Y-113396200D01*
X164251500Y-113395147D01*
X164251500Y-108873999D01*
X164271185Y-108806960D01*
X164323989Y-108761205D01*
X164375500Y-108749999D01*
X164849999Y-108749999D01*
X164850000Y-108749998D01*
X164850000Y-107950000D01*
X163740878Y-107950000D01*
X163673839Y-107930315D01*
X163653197Y-107913681D01*
X163133736Y-107394220D01*
X163109597Y-107350013D01*
X163650000Y-107350013D01*
X163650000Y-107450000D01*
X164850000Y-107450000D01*
X164850000Y-106650000D01*
X164350028Y-106650000D01*
X164350012Y-106650001D01*
X164247302Y-106660494D01*
X164080880Y-106715641D01*
X164080875Y-106715643D01*
X163931654Y-106807684D01*
X163807684Y-106931654D01*
X163715643Y-107080875D01*
X163715641Y-107080880D01*
X163660494Y-107247302D01*
X163660493Y-107247309D01*
X163650000Y-107350013D01*
X163109597Y-107350013D01*
X163100251Y-107332897D01*
X163097417Y-107306539D01*
X163097417Y-107049305D01*
X163097417Y-107049303D01*
X163073531Y-106960159D01*
X163058120Y-106933467D01*
X163058119Y-106933465D01*
X163058119Y-106933464D01*
X163027389Y-106880238D01*
X163027385Y-106880233D01*
X162412554Y-106265402D01*
X162379069Y-106204079D01*
X162376235Y-106177721D01*
X162376235Y-106101792D01*
X162376235Y-106101790D01*
X162338719Y-105961780D01*
X162311833Y-105915213D01*
X162266246Y-105836253D01*
X162266241Y-105836247D01*
X162163752Y-105733758D01*
X162163746Y-105733753D01*
X162038223Y-105661282D01*
X162038224Y-105661282D01*
X162026741Y-105658205D01*
X161898210Y-105623765D01*
X161753260Y-105623765D01*
X161624728Y-105658205D01*
X161613246Y-105661282D01*
X161487723Y-105733753D01*
X161487717Y-105733758D01*
X161385228Y-105836247D01*
X161385223Y-105836253D01*
X161312752Y-105961776D01*
X161312751Y-105961780D01*
X161275235Y-106101790D01*
X161275235Y-106246740D01*
X161288613Y-106296666D01*
X161314581Y-106393581D01*
X161312918Y-106463431D01*
X161282488Y-106513354D01*
X161185045Y-106610798D01*
X161185039Y-106610805D01*
X161112568Y-106736328D01*
X161112567Y-106736332D01*
X161075051Y-106876342D01*
X161075051Y-107021292D01*
X161106996Y-107140511D01*
X161112568Y-107161305D01*
X161185039Y-107286828D01*
X161185041Y-107286830D01*
X161185042Y-107286832D01*
X161287536Y-107389326D01*
X161287537Y-107389327D01*
X161287539Y-107389328D01*
X161413062Y-107461799D01*
X161413063Y-107461799D01*
X161413066Y-107461801D01*
X161553076Y-107499317D01*
X161629007Y-107499317D01*
X161696046Y-107519002D01*
X161716688Y-107535636D01*
X163113181Y-108932129D01*
X163146666Y-108993452D01*
X163149500Y-109019810D01*
X163149500Y-109151171D01*
X163129815Y-109218210D01*
X163077011Y-109263965D01*
X163007853Y-109273909D01*
X162944297Y-109244884D01*
X162925180Y-109224054D01*
X162923525Y-109221776D01*
X162828225Y-109126476D01*
X162828221Y-109126473D01*
X162828220Y-109126472D01*
X162708126Y-109065281D01*
X162708124Y-109065280D01*
X162708121Y-109065279D01*
X162608493Y-109049500D01*
X162608488Y-109049500D01*
X161346544Y-109049500D01*
X161279505Y-109029815D01*
X161258863Y-109013181D01*
X160636819Y-108391137D01*
X160603334Y-108329814D01*
X160600500Y-108303456D01*
X160600500Y-103696544D01*
X160609144Y-103667103D01*
X160615668Y-103637117D01*
X160619422Y-103632101D01*
X160620185Y-103629505D01*
X160636819Y-103608863D01*
X160658863Y-103586819D01*
X160720186Y-103553334D01*
X160746544Y-103550500D01*
X160822472Y-103550500D01*
X160822475Y-103550500D01*
X160962485Y-103512984D01*
X161088015Y-103440509D01*
X161131990Y-103396534D01*
X162457018Y-103396534D01*
X162514698Y-103454215D01*
X162514705Y-103454221D01*
X162569102Y-103499556D01*
X162719627Y-103578558D01*
X162884675Y-103619238D01*
X163054665Y-103619238D01*
X163219715Y-103578557D01*
X163370236Y-103499557D01*
X163424637Y-103454220D01*
X163429287Y-103449567D01*
X162916638Y-102936917D01*
X162916637Y-102936917D01*
X162457018Y-103396534D01*
X161131990Y-103396534D01*
X161190509Y-103338015D01*
X161262984Y-103212485D01*
X161300500Y-103072475D01*
X161300500Y-102927525D01*
X161262984Y-102787515D01*
X161261483Y-102784916D01*
X161190511Y-102661988D01*
X161190506Y-102661982D01*
X161088017Y-102559493D01*
X161088011Y-102559488D01*
X160962488Y-102487017D01*
X160962489Y-102487017D01*
X160936842Y-102480145D01*
X160822475Y-102449500D01*
X160677525Y-102449500D01*
X160677523Y-102449500D01*
X160669469Y-102450561D01*
X160669044Y-102447336D01*
X160614379Y-102446013D01*
X160556532Y-102406827D01*
X160532409Y-102360012D01*
X160512984Y-102287515D01*
X160478085Y-102227069D01*
X160440511Y-102161988D01*
X160440506Y-102161982D01*
X160338017Y-102059493D01*
X160338011Y-102059488D01*
X160212488Y-101987017D01*
X160212489Y-101987017D01*
X160175829Y-101977194D01*
X160072475Y-101949500D01*
X159927525Y-101949500D01*
X159824171Y-101977194D01*
X159787511Y-101987017D01*
X159661988Y-102059488D01*
X159661982Y-102059493D01*
X159619181Y-102102295D01*
X159557858Y-102135780D01*
X159488166Y-102130796D01*
X159432233Y-102088924D01*
X159407816Y-102023460D01*
X159407500Y-102014614D01*
X159407500Y-101446543D01*
X159427185Y-101379504D01*
X159443819Y-101358862D01*
X159507681Y-101295000D01*
X159645765Y-101156916D01*
X159691910Y-101076992D01*
X159694207Y-101068418D01*
X159715796Y-100987848D01*
X159715796Y-100870766D01*
X159716622Y-100863645D01*
X159727576Y-100837813D01*
X159735481Y-100810892D01*
X159741031Y-100806082D01*
X159743899Y-100799320D01*
X159767083Y-100783508D01*
X159788285Y-100765137D01*
X159795553Y-100764091D01*
X159801622Y-100759953D01*
X159829670Y-100759186D01*
X159857443Y-100755193D01*
X159864125Y-100758244D01*
G37*
%TD.AperFunction*%
%TA.AperFunction,Conductor*%
G36*
X134070279Y-99533798D02*
G01*
X134073996Y-99536187D01*
X134074750Y-99536691D01*
X134074751Y-99536691D01*
X134074753Y-99536692D01*
X134144168Y-99550500D01*
X134144171Y-99550500D01*
X134366057Y-99550500D01*
X134435472Y-99536692D01*
X134435472Y-99536691D01*
X134435476Y-99536691D01*
X134435478Y-99536689D01*
X134446756Y-99532018D01*
X134447249Y-99533208D01*
X134501573Y-99516197D01*
X134568954Y-99534679D01*
X134597018Y-99558417D01*
X134611561Y-99575000D01*
X135158003Y-99575000D01*
X135158600Y-99575001D01*
X135166862Y-99575040D01*
X135169171Y-99575500D01*
X135262230Y-99575500D01*
X135262438Y-99575501D01*
X135262901Y-99575639D01*
X135293930Y-99579724D01*
X135314619Y-99585266D01*
X135325702Y-99588236D01*
X135385364Y-99624599D01*
X135415895Y-99687444D01*
X135417613Y-99708012D01*
X135417613Y-99801000D01*
X135397928Y-99868039D01*
X135345124Y-99913794D01*
X135293613Y-99925000D01*
X134611564Y-99925000D01*
X134611562Y-99925001D01*
X134617979Y-99973744D01*
X134607213Y-100042779D01*
X134560832Y-100095034D01*
X134493563Y-100113918D01*
X134478854Y-100112866D01*
X134430113Y-100106448D01*
X134430113Y-100652890D01*
X134430112Y-100653487D01*
X134430072Y-100661749D01*
X134429613Y-100664058D01*
X134429613Y-100757117D01*
X134429612Y-100757325D01*
X134429473Y-100757789D01*
X134425388Y-100788821D01*
X134416875Y-100820593D01*
X134380511Y-100880253D01*
X134317664Y-100910783D01*
X134297100Y-100912500D01*
X134204113Y-100912500D01*
X134137074Y-100892815D01*
X134091319Y-100840011D01*
X134080113Y-100788500D01*
X134080113Y-100106450D01*
X134080111Y-100106449D01*
X134021294Y-100114192D01*
X133988925Y-100114192D01*
X133930113Y-100106448D01*
X133930113Y-104974999D01*
X133953421Y-104974999D01*
X133953435Y-104974998D01*
X134052720Y-104964855D01*
X134213594Y-104911547D01*
X134213605Y-104911542D01*
X134357841Y-104822575D01*
X134357845Y-104822572D01*
X134477686Y-104702731D01*
X134513461Y-104644731D01*
X134520846Y-104638087D01*
X134524934Y-104629034D01*
X134546392Y-104615110D01*
X134565409Y-104598006D01*
X134575211Y-104596410D01*
X134583546Y-104591003D01*
X134609124Y-104590891D01*
X134634371Y-104586783D01*
X134645346Y-104590734D01*
X134653415Y-104590699D01*
X134674747Y-104601318D01*
X134685584Y-104605220D01*
X134689536Y-104607735D01*
X134774887Y-104671628D01*
X134811184Y-104685166D01*
X134822197Y-104692176D01*
X134836944Y-104709046D01*
X134854880Y-104722473D01*
X134859492Y-104734839D01*
X134868182Y-104744780D01*
X134871467Y-104766946D01*
X134879297Y-104787937D01*
X134879613Y-104796783D01*
X134879613Y-105503456D01*
X134859928Y-105570495D01*
X134843294Y-105591137D01*
X134521250Y-105913181D01*
X134459927Y-105946666D01*
X134433569Y-105949500D01*
X133896543Y-105949500D01*
X133829504Y-105929815D01*
X133808862Y-105913181D01*
X133504432Y-105608750D01*
X133470947Y-105547427D01*
X133468113Y-105521069D01*
X133468113Y-105445140D01*
X133468113Y-105445138D01*
X133430597Y-105305128D01*
X133430595Y-105305124D01*
X133358123Y-105179599D01*
X133354201Y-105174489D01*
X133329003Y-105109322D01*
X133343038Y-105040876D01*
X133391850Y-104990884D01*
X133422158Y-104982954D01*
X133430113Y-104974999D01*
X133430113Y-101419000D01*
X133449798Y-101351961D01*
X133502602Y-101306206D01*
X133554113Y-101295000D01*
X133580113Y-101295000D01*
X133580113Y-100106450D01*
X133563529Y-100091907D01*
X133526106Y-100032904D01*
X133526522Y-99963036D01*
X133540978Y-99932355D01*
X133541802Y-99930365D01*
X133541804Y-99930363D01*
X133541925Y-99929755D01*
X133555613Y-99860944D01*
X133555613Y-99674500D01*
X133575298Y-99607461D01*
X133628102Y-99561706D01*
X133679613Y-99550500D01*
X133866057Y-99550500D01*
X133935472Y-99536692D01*
X133935472Y-99536691D01*
X133935476Y-99536691D01*
X133936221Y-99536192D01*
X133938091Y-99535607D01*
X133946756Y-99532018D01*
X133947077Y-99532793D01*
X134002898Y-99515314D01*
X134070279Y-99533798D01*
G37*
%TD.AperFunction*%
%TA.AperFunction,Conductor*%
G36*
X138160628Y-99614349D02*
G01*
X138182292Y-99615898D01*
X138193421Y-99624228D01*
X138206732Y-99628239D01*
X138220839Y-99644752D01*
X138238227Y-99657768D01*
X138243085Y-99670792D01*
X138252115Y-99681362D01*
X138255054Y-99702880D01*
X138262646Y-99723231D01*
X138260269Y-99741049D01*
X138261573Y-99750589D01*
X138257962Y-99758350D01*
X138256004Y-99773035D01*
X138232466Y-99840302D01*
X138229613Y-99870730D01*
X138229613Y-100529269D01*
X138232466Y-100559699D01*
X138232466Y-100559701D01*
X138277319Y-100687880D01*
X138277320Y-100687882D01*
X138357963Y-100797150D01*
X138467231Y-100877793D01*
X138481997Y-100882959D01*
X138538771Y-100923682D01*
X138564517Y-100988635D01*
X138551060Y-101057196D01*
X138502672Y-101107598D01*
X138482000Y-101117038D01*
X138467231Y-101122207D01*
X138467230Y-101122207D01*
X138467229Y-101122208D01*
X138357963Y-101202850D01*
X138277320Y-101312117D01*
X138277319Y-101312119D01*
X138232466Y-101440298D01*
X138232466Y-101440300D01*
X138229613Y-101470730D01*
X138229613Y-102129269D01*
X138232466Y-102159698D01*
X138250090Y-102210065D01*
X138253651Y-102279844D01*
X138220729Y-102338700D01*
X137876783Y-102682646D01*
X137815460Y-102716131D01*
X137764911Y-102716582D01*
X137689250Y-102701532D01*
X137627339Y-102669147D01*
X137592765Y-102608431D01*
X137596504Y-102538662D01*
X137637371Y-102481990D01*
X137639808Y-102480145D01*
X137684263Y-102447336D01*
X137752263Y-102397150D01*
X137832906Y-102287882D01*
X137860822Y-102208102D01*
X137877759Y-102159701D01*
X137877759Y-102159699D01*
X137880613Y-102129269D01*
X137880613Y-101470730D01*
X137877759Y-101440300D01*
X137877759Y-101440298D01*
X137832906Y-101312119D01*
X137832905Y-101312117D01*
X137752263Y-101202850D01*
X137642995Y-101122207D01*
X137642994Y-101122206D01*
X137635518Y-101116689D01*
X137636975Y-101114714D01*
X137636419Y-101114174D01*
X137623410Y-101108233D01*
X137611881Y-101090293D01*
X137596598Y-101075420D01*
X137592645Y-101060362D01*
X137585636Y-101049455D01*
X137580613Y-101014520D01*
X137580613Y-100985480D01*
X137600298Y-100918441D01*
X137636741Y-100884968D01*
X137635518Y-100883311D01*
X137642996Y-100877792D01*
X137752263Y-100797150D01*
X137832906Y-100687882D01*
X137874282Y-100569637D01*
X137877759Y-100559701D01*
X137877759Y-100559699D01*
X137880613Y-100529269D01*
X137880613Y-99870730D01*
X137877055Y-99832788D01*
X137880057Y-99832506D01*
X137883997Y-99776655D01*
X137925813Y-99720681D01*
X137933915Y-99715092D01*
X137949481Y-99705241D01*
X137959288Y-99702614D01*
X137970032Y-99696411D01*
X138039212Y-99656470D01*
X138061022Y-99634659D01*
X138072656Y-99627298D01*
X138093539Y-99621324D01*
X138112601Y-99610916D01*
X138126465Y-99611907D01*
X138139832Y-99608084D01*
X138160628Y-99614349D01*
G37*
%TD.AperFunction*%
%TA.AperFunction,Conductor*%
G36*
X140293039Y-76520185D02*
G01*
X140338794Y-76572989D01*
X140350000Y-76624500D01*
X140350000Y-76700000D01*
X167575500Y-76700000D01*
X167642539Y-76719685D01*
X167688294Y-76772489D01*
X167699500Y-76824000D01*
X167699500Y-78214192D01*
X167679815Y-78281231D01*
X167627011Y-78326986D01*
X167557853Y-78336930D01*
X167501190Y-78313460D01*
X167492088Y-78306646D01*
X167492086Y-78306645D01*
X167357379Y-78256403D01*
X167357372Y-78256401D01*
X167297844Y-78250000D01*
X166650000Y-78250000D01*
X166650000Y-79166988D01*
X166592993Y-79134075D01*
X166465826Y-79100000D01*
X166334174Y-79100000D01*
X166207007Y-79134075D01*
X166150000Y-79166988D01*
X166150000Y-78250000D01*
X165502155Y-78250000D01*
X165442627Y-78256401D01*
X165442620Y-78256403D01*
X165307913Y-78306645D01*
X165307906Y-78306649D01*
X165192812Y-78392809D01*
X165192809Y-78392812D01*
X165106649Y-78507906D01*
X165106645Y-78507913D01*
X165056403Y-78642620D01*
X165056401Y-78642627D01*
X165050000Y-78702155D01*
X165050000Y-79350000D01*
X165966988Y-79350000D01*
X165934075Y-79407007D01*
X165900000Y-79534174D01*
X165900000Y-79665826D01*
X165934075Y-79792993D01*
X165966988Y-79850000D01*
X165050000Y-79850000D01*
X165050000Y-80497844D01*
X165056401Y-80557372D01*
X165056403Y-80557379D01*
X165106645Y-80692086D01*
X165106649Y-80692093D01*
X165192809Y-80807187D01*
X165192812Y-80807190D01*
X165307906Y-80893350D01*
X165307913Y-80893354D01*
X165442620Y-80943596D01*
X165442627Y-80943598D01*
X165502155Y-80949999D01*
X165502172Y-80950000D01*
X165794949Y-80950000D01*
X165861988Y-80969685D01*
X165907743Y-81022489D01*
X165917687Y-81091647D01*
X165888662Y-81155203D01*
X165851244Y-81184485D01*
X165823211Y-81198768D01*
X165743256Y-81256859D01*
X165683072Y-81300586D01*
X165683070Y-81300588D01*
X165683069Y-81300588D01*
X165560588Y-81423069D01*
X165560588Y-81423070D01*
X165560586Y-81423072D01*
X165524568Y-81472646D01*
X165458768Y-81563211D01*
X165377966Y-81721795D01*
X165329991Y-81772591D01*
X165267481Y-81789500D01*
X163942852Y-81789500D01*
X163875813Y-81769815D01*
X163832682Y-81720040D01*
X163832133Y-81720331D01*
X163830879Y-81717958D01*
X163830058Y-81717011D01*
X163829035Y-81714470D01*
X163827792Y-81712117D01*
X163747150Y-81602850D01*
X163637882Y-81522207D01*
X163637880Y-81522206D01*
X163509700Y-81477353D01*
X163479270Y-81474500D01*
X163479266Y-81474500D01*
X162970734Y-81474500D01*
X162970730Y-81474500D01*
X162940300Y-81477353D01*
X162940298Y-81477353D01*
X162812119Y-81522206D01*
X162812117Y-81522207D01*
X162702850Y-81602850D01*
X162622207Y-81712117D01*
X162622206Y-81712119D01*
X162577353Y-81840298D01*
X162577353Y-81840300D01*
X162574500Y-81870730D01*
X162574500Y-82529269D01*
X162577353Y-82559699D01*
X162577353Y-82559701D01*
X162613249Y-82662282D01*
X162622207Y-82687882D01*
X162702850Y-82797150D01*
X162812118Y-82877793D01*
X162854845Y-82892744D01*
X162940299Y-82922646D01*
X162970730Y-82925500D01*
X162970734Y-82925500D01*
X163031456Y-82925500D01*
X163098495Y-82945185D01*
X163144250Y-82997989D01*
X163154194Y-83067147D01*
X163125169Y-83130703D01*
X163119137Y-83137181D01*
X161593137Y-84663181D01*
X161531814Y-84696666D01*
X161505456Y-84699500D01*
X161429525Y-84699500D01*
X161312116Y-84730960D01*
X161289511Y-84737017D01*
X161163988Y-84809488D01*
X161163982Y-84809493D01*
X161061493Y-84911982D01*
X161061488Y-84911988D01*
X160989017Y-85037511D01*
X160989016Y-85037515D01*
X160951500Y-85177525D01*
X160951500Y-85322475D01*
X160981727Y-85435283D01*
X160989017Y-85462488D01*
X161061488Y-85588011D01*
X161061490Y-85588013D01*
X161061491Y-85588015D01*
X161163985Y-85690509D01*
X161163986Y-85690510D01*
X161163988Y-85690511D01*
X161289511Y-85762982D01*
X161289512Y-85762982D01*
X161289515Y-85762984D01*
X161429525Y-85800500D01*
X161429528Y-85800500D01*
X161479306Y-85800500D01*
X161546345Y-85820185D01*
X161592100Y-85872989D01*
X161603306Y-85924500D01*
X161603306Y-86830088D01*
X161583621Y-86897127D01*
X161530817Y-86942882D01*
X161461659Y-86952826D01*
X161403818Y-86928463D01*
X161388943Y-86917049D01*
X161368383Y-86901272D01*
X161260517Y-86862012D01*
X161145728Y-86862012D01*
X161145727Y-86862012D01*
X161037861Y-86901272D01*
X161037860Y-86901273D01*
X160999927Y-86930380D01*
X160999918Y-86930388D01*
X160813506Y-87116800D01*
X160752183Y-87150285D01*
X160682491Y-87145301D01*
X160638144Y-87116800D01*
X159886819Y-86365475D01*
X159853334Y-86304152D01*
X159850500Y-86277794D01*
X159850500Y-82674500D01*
X159870185Y-82607461D01*
X159922989Y-82561706D01*
X159974500Y-82550500D01*
X160836153Y-82550500D01*
X160903192Y-82570185D01*
X160948947Y-82622989D01*
X160953187Y-82633528D01*
X160972207Y-82687882D01*
X161052850Y-82797150D01*
X161162118Y-82877793D01*
X161204845Y-82892744D01*
X161290299Y-82922646D01*
X161320730Y-82925500D01*
X161320734Y-82925500D01*
X161829270Y-82925500D01*
X161859699Y-82922646D01*
X161859701Y-82922646D01*
X161923790Y-82900219D01*
X161987882Y-82877793D01*
X162097150Y-82797150D01*
X162177793Y-82687882D01*
X162202060Y-82618530D01*
X162222646Y-82559701D01*
X162222646Y-82559699D01*
X162225500Y-82529269D01*
X162225500Y-81870730D01*
X162222646Y-81840300D01*
X162222646Y-81840298D01*
X162188127Y-81741650D01*
X162177793Y-81712118D01*
X162097150Y-81602850D01*
X161987882Y-81522207D01*
X161987880Y-81522206D01*
X161859700Y-81477353D01*
X161829270Y-81474500D01*
X161829266Y-81474500D01*
X161408903Y-81474500D01*
X161341864Y-81454815D01*
X161296109Y-81402011D01*
X161286165Y-81332853D01*
X161315190Y-81269297D01*
X161346903Y-81243113D01*
X161363981Y-81233252D01*
X161438015Y-81190509D01*
X161540509Y-81088015D01*
X161612984Y-80962485D01*
X161650500Y-80822475D01*
X161650500Y-80677525D01*
X161612984Y-80537515D01*
X161608915Y-80530468D01*
X161540511Y-80411988D01*
X161540506Y-80411982D01*
X161438017Y-80309493D01*
X161438011Y-80309488D01*
X161312488Y-80237017D01*
X161312489Y-80237017D01*
X161301006Y-80233940D01*
X161172475Y-80199500D01*
X161027525Y-80199500D01*
X160898993Y-80233940D01*
X160887511Y-80237017D01*
X160761988Y-80309488D01*
X160761982Y-80309493D01*
X160708295Y-80363181D01*
X160646972Y-80396666D01*
X160620614Y-80399500D01*
X160331079Y-80399500D01*
X160264040Y-80379815D01*
X160231308Y-80349133D01*
X160218480Y-80331752D01*
X160197150Y-80302850D01*
X160087882Y-80222207D01*
X160087880Y-80222206D01*
X159959700Y-80177353D01*
X159929270Y-80174500D01*
X159929266Y-80174500D01*
X159270734Y-80174500D01*
X159270730Y-80174500D01*
X159240300Y-80177353D01*
X159240298Y-80177353D01*
X159112119Y-80222206D01*
X159112118Y-80222207D01*
X159059414Y-80261104D01*
X158993785Y-80285074D01*
X158925614Y-80269758D01*
X158876547Y-80220017D01*
X158866007Y-80193430D01*
X158851614Y-80139712D01*
X158828542Y-80099750D01*
X158805472Y-80059791D01*
X158805468Y-80059786D01*
X158482863Y-79737181D01*
X158472250Y-79717744D01*
X158457750Y-79701011D01*
X158455833Y-79687679D01*
X158449378Y-79675858D01*
X158450957Y-79653771D01*
X158447806Y-79631853D01*
X158453401Y-79619601D01*
X158454362Y-79606166D01*
X158467632Y-79588439D01*
X158476831Y-79568297D01*
X158488162Y-79561014D01*
X158496234Y-79550233D01*
X158516979Y-79542495D01*
X158535609Y-79530523D01*
X158557527Y-79527371D01*
X158561698Y-79525816D01*
X158570544Y-79525500D01*
X158814520Y-79525500D01*
X158881559Y-79545185D01*
X158915031Y-79581628D01*
X158916689Y-79580405D01*
X158922206Y-79587880D01*
X158922207Y-79587882D01*
X159002850Y-79697150D01*
X159112118Y-79777793D01*
X159154845Y-79792744D01*
X159240299Y-79822646D01*
X159270730Y-79825500D01*
X159270734Y-79825500D01*
X159929270Y-79825500D01*
X159959699Y-79822646D01*
X159959701Y-79822646D01*
X160034297Y-79796543D01*
X160087882Y-79777793D01*
X160197150Y-79697150D01*
X160277793Y-79587882D01*
X160300219Y-79523790D01*
X160322646Y-79459701D01*
X160322646Y-79459699D01*
X160325500Y-79429269D01*
X160325500Y-78920730D01*
X160322646Y-78890300D01*
X160322646Y-78890298D01*
X160284646Y-78781703D01*
X160277793Y-78762118D01*
X160197150Y-78652850D01*
X160087882Y-78572207D01*
X160087880Y-78572206D01*
X159959700Y-78527353D01*
X159929270Y-78524500D01*
X159929266Y-78524500D01*
X159270734Y-78524500D01*
X159270730Y-78524500D01*
X159240300Y-78527353D01*
X159240298Y-78527353D01*
X159112119Y-78572206D01*
X159112117Y-78572207D01*
X159034061Y-78629815D01*
X159002850Y-78652850D01*
X158922209Y-78762116D01*
X158916689Y-78769595D01*
X158914714Y-78768137D01*
X158914174Y-78768693D01*
X158908233Y-78781703D01*
X158890293Y-78793231D01*
X158875420Y-78808515D01*
X158860362Y-78812467D01*
X158849455Y-78819477D01*
X158814520Y-78824500D01*
X158721633Y-78824500D01*
X158654594Y-78804815D01*
X158608839Y-78752011D01*
X158601858Y-78732594D01*
X158598425Y-78719781D01*
X158562984Y-78587515D01*
X158556919Y-78577011D01*
X158490511Y-78461988D01*
X158490506Y-78461982D01*
X158388017Y-78359493D01*
X158388011Y-78359488D01*
X158262488Y-78287017D01*
X158262489Y-78287017D01*
X158226426Y-78277354D01*
X158122475Y-78249500D01*
X157977525Y-78249500D01*
X157873574Y-78277354D01*
X157837511Y-78287017D01*
X157711988Y-78359488D01*
X157711982Y-78359493D01*
X157609493Y-78461982D01*
X157609491Y-78461985D01*
X157543212Y-78576782D01*
X157492644Y-78624997D01*
X157424037Y-78638219D01*
X157359172Y-78612251D01*
X157348144Y-78602462D01*
X156911819Y-78166137D01*
X156878334Y-78104814D01*
X156875500Y-78078456D01*
X156875500Y-77625323D01*
X156875499Y-77625321D01*
X156860967Y-77552264D01*
X156860966Y-77552260D01*
X156850849Y-77537119D01*
X156805601Y-77469399D01*
X156750235Y-77432405D01*
X156722739Y-77414033D01*
X156722735Y-77414032D01*
X156649677Y-77399500D01*
X156649674Y-77399500D01*
X155400326Y-77399500D01*
X155400323Y-77399500D01*
X155327264Y-77414032D01*
X155327260Y-77414034D01*
X155234244Y-77476184D01*
X155232254Y-77473206D01*
X155189293Y-77496666D01*
X155162935Y-77499500D01*
X152437065Y-77499500D01*
X152370026Y-77479815D01*
X152364375Y-77475261D01*
X152293417Y-77427850D01*
X152272740Y-77414034D01*
X152272738Y-77414033D01*
X152272735Y-77414032D01*
X152199677Y-77399500D01*
X152199674Y-77399500D01*
X150950326Y-77399500D01*
X150950323Y-77399500D01*
X150877264Y-77414032D01*
X150877260Y-77414033D01*
X150794399Y-77469399D01*
X150739033Y-77552260D01*
X150739032Y-77552264D01*
X150724500Y-77625321D01*
X150724500Y-78874678D01*
X150739032Y-78947735D01*
X150739033Y-78947739D01*
X150739034Y-78947740D01*
X150794399Y-79030601D01*
X150867547Y-79079476D01*
X150877260Y-79085966D01*
X150877264Y-79085967D01*
X150950321Y-79100499D01*
X150950324Y-79100500D01*
X150950326Y-79100500D01*
X150971614Y-79100500D01*
X151038653Y-79120185D01*
X151084408Y-79172989D01*
X151094352Y-79242147D01*
X151065327Y-79305703D01*
X151059557Y-79311898D01*
X151059488Y-79311988D01*
X150987017Y-79437511D01*
X150987016Y-79437515D01*
X150949500Y-79577525D01*
X150949500Y-79722475D01*
X150952596Y-79734030D01*
X150955109Y-79743407D01*
X150954513Y-79768401D01*
X150958072Y-79793147D01*
X150953696Y-79802727D01*
X150953446Y-79813257D01*
X150939433Y-79833960D01*
X150929047Y-79856703D01*
X150920185Y-79862397D01*
X150914283Y-79871119D01*
X150891302Y-79880960D01*
X150870269Y-79894477D01*
X150854413Y-79896756D01*
X150850055Y-79898623D01*
X150835334Y-79899500D01*
X150696544Y-79899500D01*
X150629505Y-79879815D01*
X150608863Y-79863181D01*
X150150051Y-79404369D01*
X150116566Y-79343046D01*
X150121550Y-79273354D01*
X150150048Y-79229010D01*
X150174056Y-79205003D01*
X150246531Y-79079473D01*
X150284047Y-78939463D01*
X150284047Y-78794513D01*
X150246531Y-78654503D01*
X150239674Y-78642627D01*
X150174058Y-78528976D01*
X150174053Y-78528970D01*
X150071564Y-78426481D01*
X150071558Y-78426476D01*
X149946035Y-78354005D01*
X149946036Y-78354005D01*
X149932895Y-78350484D01*
X149817404Y-78319537D01*
X149757746Y-78283174D01*
X149727217Y-78220327D01*
X149725500Y-78199764D01*
X149725500Y-77695730D01*
X149722646Y-77665300D01*
X149722646Y-77665298D01*
X149677793Y-77537119D01*
X149677792Y-77537117D01*
X149666325Y-77521580D01*
X149597150Y-77427850D01*
X149487882Y-77347207D01*
X149487880Y-77347206D01*
X149359700Y-77302353D01*
X149329270Y-77299500D01*
X149329266Y-77299500D01*
X148670734Y-77299500D01*
X148670730Y-77299500D01*
X148640300Y-77302353D01*
X148640298Y-77302353D01*
X148512119Y-77347206D01*
X148512117Y-77347207D01*
X148402850Y-77427850D01*
X148387142Y-77449134D01*
X148331494Y-77491385D01*
X148287372Y-77499500D01*
X147912229Y-77499500D01*
X147845190Y-77479815D01*
X147824547Y-77463180D01*
X147778419Y-77417051D01*
X147778415Y-77417048D01*
X147655501Y-77334919D01*
X147655488Y-77334912D01*
X147518917Y-77278343D01*
X147518907Y-77278340D01*
X147373920Y-77249500D01*
X147373918Y-77249500D01*
X147226082Y-77249500D01*
X147226080Y-77249500D01*
X147081092Y-77278340D01*
X147081082Y-77278343D01*
X146944511Y-77334912D01*
X146944498Y-77334919D01*
X146821584Y-77417048D01*
X146821580Y-77417051D01*
X146717051Y-77521580D01*
X146717048Y-77521584D01*
X146634919Y-77644498D01*
X146634912Y-77644511D01*
X146578343Y-77781082D01*
X146578340Y-77781092D01*
X146549500Y-77926079D01*
X146549500Y-77926082D01*
X146549500Y-78073918D01*
X146549500Y-78073920D01*
X146549499Y-78073920D01*
X146578340Y-78218907D01*
X146578343Y-78218917D01*
X146634912Y-78355488D01*
X146634919Y-78355501D01*
X146717048Y-78478415D01*
X146717051Y-78478419D01*
X146800951Y-78562319D01*
X146834436Y-78623642D01*
X146829452Y-78693334D01*
X146800951Y-78737681D01*
X146717051Y-78821580D01*
X146717048Y-78821584D01*
X146634919Y-78944498D01*
X146634914Y-78944508D01*
X146590320Y-79052168D01*
X146546479Y-79106571D01*
X146480185Y-79128636D01*
X146412485Y-79111357D01*
X146388078Y-79092396D01*
X144815213Y-77519531D01*
X144815208Y-77519527D01*
X144735290Y-77473387D01*
X144735283Y-77473384D01*
X144720409Y-77469398D01*
X144720409Y-77469399D01*
X144683276Y-77459449D01*
X144646144Y-77449500D01*
X136553856Y-77449500D01*
X136479591Y-77469399D01*
X136479590Y-77469398D01*
X136464711Y-77473386D01*
X136464706Y-77473388D01*
X136384794Y-77519526D01*
X136384785Y-77519533D01*
X134519531Y-79384786D01*
X134519527Y-79384791D01*
X134478724Y-79455464D01*
X134478722Y-79455470D01*
X134473386Y-79464712D01*
X134467178Y-79487880D01*
X134449500Y-79553856D01*
X134449500Y-93420614D01*
X134429815Y-93487653D01*
X134413181Y-93508295D01*
X134359493Y-93561982D01*
X134359488Y-93561988D01*
X134287017Y-93687511D01*
X134287016Y-93687515D01*
X134249500Y-93827525D01*
X134249500Y-93972475D01*
X134285036Y-94105094D01*
X134287017Y-94112488D01*
X134359488Y-94238011D01*
X134359490Y-94238013D01*
X134359491Y-94238015D01*
X134461985Y-94340509D01*
X134461986Y-94340510D01*
X134461988Y-94340511D01*
X134587511Y-94412982D01*
X134587512Y-94412982D01*
X134587515Y-94412984D01*
X134727525Y-94450500D01*
X134727528Y-94450500D01*
X134872472Y-94450500D01*
X134872475Y-94450500D01*
X135012485Y-94412984D01*
X135138015Y-94340509D01*
X135240509Y-94238015D01*
X135312984Y-94112485D01*
X135350500Y-93972475D01*
X135350500Y-93827525D01*
X135344891Y-93806592D01*
X135346554Y-93736743D01*
X135385717Y-93678881D01*
X135449945Y-93651377D01*
X135464666Y-93650500D01*
X135472472Y-93650500D01*
X135472475Y-93650500D01*
X135612485Y-93612984D01*
X135738015Y-93540509D01*
X135840509Y-93438015D01*
X135912984Y-93312485D01*
X135950500Y-93172475D01*
X135950500Y-93096543D01*
X135959145Y-93067099D01*
X135965668Y-93037117D01*
X135969422Y-93032101D01*
X135970185Y-93029504D01*
X135986813Y-93008867D01*
X136105248Y-92890432D01*
X136166567Y-92856950D01*
X136236259Y-92861934D01*
X136292193Y-92903805D01*
X136316610Y-92969269D01*
X136304244Y-93026111D01*
X136306609Y-93027091D01*
X136303499Y-93034597D01*
X136279613Y-93123743D01*
X136279613Y-94414520D01*
X136259928Y-94481559D01*
X136223484Y-94515031D01*
X136224708Y-94516689D01*
X136217231Y-94522206D01*
X136217231Y-94522207D01*
X136195735Y-94538072D01*
X136107963Y-94602850D01*
X136027320Y-94712117D01*
X136027319Y-94712119D01*
X135982466Y-94840298D01*
X135982466Y-94840300D01*
X135979613Y-94870730D01*
X135979613Y-95303455D01*
X135959928Y-95370494D01*
X135943294Y-95391136D01*
X135694586Y-95639843D01*
X135633263Y-95673328D01*
X135563571Y-95668344D01*
X135533272Y-95651932D01*
X135492999Y-95622209D01*
X135492993Y-95622206D01*
X135364813Y-95577353D01*
X135334383Y-95574500D01*
X135334379Y-95574500D01*
X134825847Y-95574500D01*
X134825843Y-95574500D01*
X134795413Y-95577353D01*
X134795411Y-95577353D01*
X134667232Y-95622206D01*
X134667230Y-95622207D01*
X134557963Y-95702850D01*
X134477320Y-95812117D01*
X134477319Y-95812119D01*
X134432466Y-95940298D01*
X134432466Y-95940300D01*
X134429613Y-95970730D01*
X134429613Y-96426235D01*
X134427062Y-96434920D01*
X134428351Y-96443882D01*
X134417372Y-96467922D01*
X134409928Y-96493274D01*
X134403087Y-96499201D01*
X134399326Y-96507438D01*
X134377091Y-96521727D01*
X134357124Y-96539029D01*
X134346609Y-96541316D01*
X134340548Y-96545212D01*
X134305613Y-96550235D01*
X134297279Y-96550235D01*
X134230240Y-96530550D01*
X134209598Y-96513916D01*
X134116932Y-96421250D01*
X134083447Y-96359927D01*
X134080613Y-96333569D01*
X134080613Y-95970730D01*
X134077759Y-95940300D01*
X134077759Y-95940298D01*
X134033302Y-95813250D01*
X134032906Y-95812118D01*
X133952263Y-95702850D01*
X133842995Y-95622207D01*
X133842993Y-95622206D01*
X133714813Y-95577353D01*
X133684383Y-95574500D01*
X133684379Y-95574500D01*
X133175847Y-95574500D01*
X133175843Y-95574500D01*
X133145413Y-95577353D01*
X133145411Y-95577353D01*
X133017232Y-95622206D01*
X133017230Y-95622207D01*
X132907963Y-95702850D01*
X132827320Y-95812117D01*
X132827319Y-95812119D01*
X132782466Y-95940298D01*
X132782466Y-95940300D01*
X132779613Y-95970730D01*
X132779613Y-96629269D01*
X132782466Y-96659699D01*
X132782466Y-96659701D01*
X132827319Y-96787880D01*
X132827320Y-96787882D01*
X132871808Y-96848161D01*
X132907965Y-96897153D01*
X132913181Y-96902369D01*
X132946666Y-96963692D01*
X132949500Y-96990050D01*
X132949500Y-97320614D01*
X132929815Y-97387653D01*
X132913181Y-97408295D01*
X132859493Y-97461982D01*
X132859488Y-97461988D01*
X132787017Y-97587511D01*
X132787016Y-97587515D01*
X132749500Y-97727525D01*
X132749500Y-97872475D01*
X132787016Y-98012485D01*
X132787017Y-98012488D01*
X132859488Y-98138011D01*
X132859490Y-98138013D01*
X132859491Y-98138015D01*
X132961985Y-98240509D01*
X132961986Y-98240510D01*
X132961988Y-98240511D01*
X133087511Y-98312982D01*
X133087512Y-98312982D01*
X133087515Y-98312984D01*
X133227525Y-98350500D01*
X133227528Y-98350500D01*
X133280613Y-98350500D01*
X133347652Y-98370185D01*
X133393407Y-98422989D01*
X133404613Y-98474500D01*
X133404613Y-98800500D01*
X133384928Y-98867539D01*
X133332124Y-98913294D01*
X133280613Y-98924500D01*
X132844169Y-98924500D01*
X132774753Y-98938307D01*
X132774750Y-98938308D01*
X132693390Y-98992671D01*
X132626712Y-99013548D01*
X132559332Y-98995063D01*
X132512642Y-98943083D01*
X132500500Y-98889568D01*
X132500500Y-76624500D01*
X132520185Y-76557461D01*
X132572989Y-76511706D01*
X132624500Y-76500500D01*
X140226000Y-76500500D01*
X140293039Y-76520185D01*
G37*
%TD.AperFunction*%
%TA.AperFunction,Conductor*%
G36*
X157124436Y-90202691D02*
G01*
X157168784Y-90231192D01*
X158812181Y-91874589D01*
X158845666Y-91935912D01*
X158848500Y-91962270D01*
X158848500Y-93303456D01*
X158828815Y-93370495D01*
X158776011Y-93416250D01*
X158706853Y-93426194D01*
X158643297Y-93397169D01*
X158636819Y-93391137D01*
X157262213Y-92016531D01*
X157262208Y-92016527D01*
X157182290Y-91970387D01*
X157182289Y-91970386D01*
X157182288Y-91970386D01*
X157093144Y-91946500D01*
X157093143Y-91946500D01*
X155575525Y-91946500D01*
X155508486Y-91926815D01*
X155462731Y-91874011D01*
X155452787Y-91804853D01*
X155481812Y-91741297D01*
X155500037Y-91724125D01*
X155501976Y-91722638D01*
X155661977Y-91562636D01*
X155691086Y-91524701D01*
X155705067Y-91486285D01*
X155746492Y-91430023D01*
X155758098Y-91422184D01*
X155768163Y-91416184D01*
X155817594Y-91398193D01*
X155855529Y-91369085D01*
X155867854Y-91356759D01*
X155881120Y-91348852D01*
X155900591Y-91343839D01*
X155918239Y-91334201D01*
X155941865Y-91333215D01*
X155948784Y-91331434D01*
X155952792Y-91332759D01*
X155960798Y-91332425D01*
X156005888Y-91338361D01*
X156155992Y-91318599D01*
X156155993Y-91318599D01*
X156295870Y-91260660D01*
X156295871Y-91260660D01*
X156355966Y-91214546D01*
X156355966Y-91214543D01*
X156099894Y-90958472D01*
X156095553Y-90950523D01*
X156088303Y-90945095D01*
X156071056Y-90913208D01*
X156050011Y-90855388D01*
X156045581Y-90785664D01*
X156079551Y-90724608D01*
X156141138Y-90691611D01*
X156208944Y-90696460D01*
X156266757Y-90717502D01*
X156267245Y-90717813D01*
X156267688Y-90717845D01*
X156269928Y-90719522D01*
X156312028Y-90746343D01*
X156568097Y-91002412D01*
X156568100Y-91002412D01*
X156614214Y-90942317D01*
X156614214Y-90942316D01*
X156672153Y-90802439D01*
X156672153Y-90802438D01*
X156691915Y-90652334D01*
X156685979Y-90607244D01*
X156696744Y-90538209D01*
X156702405Y-90527566D01*
X156710312Y-90514301D01*
X156722637Y-90501976D01*
X156751746Y-90464041D01*
X156769738Y-90414606D01*
X156775736Y-90404545D01*
X156793109Y-90388435D01*
X156807152Y-90369363D01*
X156823028Y-90360693D01*
X156826970Y-90357039D01*
X156831055Y-90356310D01*
X156839837Y-90351515D01*
X156878254Y-90337533D01*
X156916189Y-90308425D01*
X156993422Y-90231191D01*
X157054744Y-90197707D01*
X157124436Y-90202691D01*
G37*
%TD.AperFunction*%
%TA.AperFunction,Conductor*%
G36*
X149817045Y-80062731D02*
G01*
X149817645Y-80063327D01*
X150284788Y-80530470D01*
X150284789Y-80530471D01*
X150284791Y-80530472D01*
X150324750Y-80553542D01*
X150364712Y-80576614D01*
X150453856Y-80600500D01*
X150453858Y-80600500D01*
X154046142Y-80600500D01*
X154046144Y-80600500D01*
X154135288Y-80576614D01*
X154147135Y-80569774D01*
X154215212Y-80530470D01*
X154312358Y-80433323D01*
X154317288Y-80429313D01*
X154343878Y-80418153D01*
X154369186Y-80404334D01*
X154379428Y-80403232D01*
X154381713Y-80402274D01*
X154384231Y-80402716D01*
X154395544Y-80401500D01*
X156970256Y-80401500D01*
X157037295Y-80421185D01*
X157057937Y-80437819D01*
X157113181Y-80493063D01*
X157146666Y-80554386D01*
X157149500Y-80580744D01*
X157149500Y-82146144D01*
X157164254Y-82201208D01*
X157164255Y-82201210D01*
X157167719Y-82214137D01*
X157173386Y-82235288D01*
X157219530Y-82315212D01*
X157227013Y-82322695D01*
X157235668Y-82339449D01*
X157240292Y-82363338D01*
X157249070Y-82386038D01*
X157249500Y-82396361D01*
X157249500Y-82472475D01*
X157283805Y-82600500D01*
X157287017Y-82612488D01*
X157359488Y-82738011D01*
X157359490Y-82738013D01*
X157359491Y-82738015D01*
X157461985Y-82840509D01*
X157461986Y-82840510D01*
X157461988Y-82840511D01*
X157587511Y-82912982D01*
X157587512Y-82912982D01*
X157587515Y-82912984D01*
X157727525Y-82950500D01*
X157727528Y-82950500D01*
X157872472Y-82950500D01*
X157872475Y-82950500D01*
X158012485Y-82912984D01*
X158138015Y-82840509D01*
X158240509Y-82738015D01*
X158312984Y-82612485D01*
X158350500Y-82472475D01*
X158350500Y-82327525D01*
X158312984Y-82187515D01*
X158289761Y-82147293D01*
X158273289Y-82079394D01*
X158296141Y-82013367D01*
X158351062Y-81970176D01*
X158420615Y-81963534D01*
X158482718Y-81995549D01*
X158484830Y-81997612D01*
X159113181Y-82625963D01*
X159146666Y-82687286D01*
X159149500Y-82713644D01*
X159149500Y-86520482D01*
X159153493Y-86535383D01*
X159168823Y-86592597D01*
X159168823Y-86592598D01*
X159173384Y-86609622D01*
X159173385Y-86609624D01*
X159219527Y-86689546D01*
X159219531Y-86689551D01*
X160142462Y-87612482D01*
X160175947Y-87673805D01*
X160170963Y-87743497D01*
X160142463Y-87787844D01*
X159956037Y-87974272D01*
X159956034Y-87974275D01*
X159926937Y-88012193D01*
X159926932Y-88012203D01*
X159887674Y-88120065D01*
X159887674Y-88234855D01*
X159925099Y-88337681D01*
X159926934Y-88342721D01*
X159956042Y-88380656D01*
X160116044Y-88540657D01*
X160153979Y-88569766D01*
X160192392Y-88583747D01*
X160248656Y-88625173D01*
X160266503Y-88657856D01*
X160280485Y-88696270D01*
X160280486Y-88696272D01*
X160280487Y-88696274D01*
X160309595Y-88734209D01*
X160469597Y-88894210D01*
X160507532Y-88923319D01*
X160545945Y-88937300D01*
X160602209Y-88978726D01*
X160620056Y-89011409D01*
X160634038Y-89049823D01*
X160634039Y-89049825D01*
X160634040Y-89049827D01*
X160663148Y-89087762D01*
X160823150Y-89247763D01*
X160837704Y-89258931D01*
X160861083Y-89276871D01*
X160861084Y-89276871D01*
X160861085Y-89276872D01*
X160899500Y-89290853D01*
X160955763Y-89332279D01*
X160973610Y-89364962D01*
X160987594Y-89403381D01*
X161016702Y-89441316D01*
X161176704Y-89601317D01*
X161214639Y-89630426D01*
X161253052Y-89644407D01*
X161309316Y-89685833D01*
X161327163Y-89718516D01*
X161341145Y-89756930D01*
X161341146Y-89756932D01*
X161341147Y-89756934D01*
X161370255Y-89794869D01*
X161530257Y-89954870D01*
X161551734Y-89971350D01*
X161568190Y-89983978D01*
X161568191Y-89983978D01*
X161568192Y-89983979D01*
X161606607Y-89997960D01*
X161662870Y-90039386D01*
X161680717Y-90072069D01*
X161684788Y-90083253D01*
X161694701Y-90110488D01*
X161723809Y-90148423D01*
X161883811Y-90308424D01*
X161921746Y-90337533D01*
X161960159Y-90351514D01*
X161983644Y-90368805D01*
X162008693Y-90383744D01*
X162012582Y-90390112D01*
X162016423Y-90392940D01*
X162028757Y-90412781D01*
X162031880Y-90419055D01*
X162048254Y-90464041D01*
X162065385Y-90486367D01*
X162070724Y-90497093D01*
X162074833Y-90520168D01*
X162083286Y-90542033D01*
X162080846Y-90553927D01*
X162082975Y-90565880D01*
X162073957Y-90587513D01*
X162069247Y-90610478D01*
X162060764Y-90619164D01*
X162056093Y-90630371D01*
X162036807Y-90643696D01*
X162020432Y-90660466D01*
X162001208Y-90668295D01*
X161998611Y-90670090D01*
X161996639Y-90670155D01*
X161991810Y-90672123D01*
X161857917Y-90708000D01*
X161732394Y-90780471D01*
X161732388Y-90780476D01*
X161629899Y-90882965D01*
X161629894Y-90882971D01*
X161557423Y-91008494D01*
X161557422Y-91008498D01*
X161519906Y-91148508D01*
X161519906Y-91293458D01*
X161556499Y-91430023D01*
X161557423Y-91433471D01*
X161629894Y-91558994D01*
X161629899Y-91559000D01*
X161713973Y-91643074D01*
X161747458Y-91704397D01*
X161742474Y-91774089D01*
X161739349Y-91780722D01*
X161739392Y-91780740D01*
X161736281Y-91788248D01*
X161722364Y-91840189D01*
X161698765Y-91928260D01*
X161698765Y-92073210D01*
X161718158Y-92145583D01*
X161736282Y-92213224D01*
X161736283Y-92213227D01*
X161736442Y-92213501D01*
X161736505Y-92213761D01*
X161739393Y-92220734D01*
X161738305Y-92221184D01*
X161752915Y-92281401D01*
X161730062Y-92347428D01*
X161675141Y-92390618D01*
X161629055Y-92399500D01*
X160453856Y-92399500D01*
X160364711Y-92423386D01*
X160284787Y-92469531D01*
X160284784Y-92469533D01*
X159761181Y-92993136D01*
X159699858Y-93026621D01*
X159630166Y-93021637D01*
X159574233Y-92979765D01*
X159549816Y-92914301D01*
X159549500Y-92905455D01*
X159549500Y-91719584D01*
X159549500Y-91719582D01*
X159525614Y-91630438D01*
X159518574Y-91618245D01*
X159479470Y-91550514D01*
X157664466Y-89735510D01*
X157630981Y-89674187D01*
X157635965Y-89604495D01*
X157664466Y-89560148D01*
X157783289Y-89441325D01*
X157783290Y-89441323D01*
X157783289Y-89441323D01*
X157783297Y-89441316D01*
X157812406Y-89403381D01*
X157826387Y-89364966D01*
X157867812Y-89308703D01*
X157900500Y-89290854D01*
X157938912Y-89276873D01*
X157938915Y-89276872D01*
X157943592Y-89273283D01*
X157976850Y-89247764D01*
X158136851Y-89087762D01*
X158165960Y-89049827D01*
X158179941Y-89011411D01*
X158221366Y-88955149D01*
X158254051Y-88937301D01*
X158292468Y-88923319D01*
X158330403Y-88894211D01*
X158490404Y-88734209D01*
X158519513Y-88696274D01*
X158533494Y-88657858D01*
X158574919Y-88601596D01*
X158607604Y-88583748D01*
X158646021Y-88569766D01*
X158683956Y-88540658D01*
X158843957Y-88380656D01*
X158873066Y-88342721D01*
X158912326Y-88234855D01*
X158912326Y-88120066D01*
X158873066Y-88012200D01*
X158843958Y-87974266D01*
X158843957Y-87974265D01*
X158843950Y-87974257D01*
X157800078Y-86930387D01*
X157800072Y-86930381D01*
X157762138Y-86901272D01*
X157762136Y-86901271D01*
X157762134Y-86901270D01*
X157654272Y-86862012D01*
X157539483Y-86862012D01*
X157539482Y-86862012D01*
X157431618Y-86901271D01*
X157393679Y-86930382D01*
X157331104Y-86992957D01*
X157269780Y-87026441D01*
X157200089Y-87021456D01*
X157144155Y-86979585D01*
X157119739Y-86914120D01*
X157131703Y-86851474D01*
X157154587Y-86803957D01*
X157174828Y-86669670D01*
X157154587Y-86535383D01*
X157129608Y-86483515D01*
X157125810Y-86460456D01*
X157117644Y-86438560D01*
X157120239Y-86426627D01*
X157118255Y-86414577D01*
X157127528Y-86393123D01*
X157132496Y-86370287D01*
X157144098Y-86354788D01*
X157145977Y-86350442D01*
X157153636Y-86342044D01*
X157211961Y-86283719D01*
X157273282Y-86250236D01*
X157319218Y-86251331D01*
X157319468Y-86249439D01*
X157327524Y-86250499D01*
X157327525Y-86250500D01*
X157327526Y-86250500D01*
X157472472Y-86250500D01*
X157472475Y-86250500D01*
X157612485Y-86212984D01*
X157738015Y-86140509D01*
X157840509Y-86038015D01*
X157912984Y-85912485D01*
X157950500Y-85772475D01*
X157950500Y-85627525D01*
X157912984Y-85487515D01*
X157904260Y-85472405D01*
X157840511Y-85361988D01*
X157840506Y-85361982D01*
X157738017Y-85259493D01*
X157738011Y-85259488D01*
X157612488Y-85187017D01*
X157612489Y-85187017D01*
X157601006Y-85183940D01*
X157472475Y-85149500D01*
X157327525Y-85149500D01*
X157198993Y-85183940D01*
X157187511Y-85187017D01*
X157061988Y-85259488D01*
X157061982Y-85259493D01*
X156959493Y-85361982D01*
X156959488Y-85361988D01*
X156887017Y-85487511D01*
X156887016Y-85487515D01*
X156849888Y-85626079D01*
X156848110Y-85632714D01*
X156840091Y-85646601D01*
X156837167Y-85660047D01*
X156816016Y-85688302D01*
X156657965Y-85846352D01*
X156596642Y-85879836D01*
X156526950Y-85874852D01*
X156516482Y-85870390D01*
X156464617Y-85845413D01*
X156330330Y-85825172D01*
X156196043Y-85845412D01*
X156073684Y-85904339D01*
X156050158Y-85923831D01*
X156050131Y-85923855D01*
X155690585Y-86283402D01*
X155690557Y-86283432D01*
X155671065Y-86306958D01*
X155612138Y-86429317D01*
X155591898Y-86563604D01*
X155612138Y-86697890D01*
X155625736Y-86726125D01*
X155671063Y-86820246D01*
X155671064Y-86820247D01*
X155671065Y-86820249D01*
X155675898Y-86826082D01*
X155690564Y-86843784D01*
X155690573Y-86843793D01*
X155690581Y-86843802D01*
X156156197Y-87309418D01*
X156156206Y-87309426D01*
X156156216Y-87309436D01*
X156179754Y-87328937D01*
X156302109Y-87387861D01*
X156436396Y-87408102D01*
X156570683Y-87387861D01*
X156677543Y-87336398D01*
X156700134Y-87332678D01*
X156721522Y-87324508D01*
X156733950Y-87327108D01*
X156746483Y-87325045D01*
X156767502Y-87334130D01*
X156789910Y-87338820D01*
X156798959Y-87347727D01*
X156810618Y-87352767D01*
X156823387Y-87371772D01*
X156839704Y-87387833D01*
X156842501Y-87400220D01*
X156849584Y-87410762D01*
X156850051Y-87433651D01*
X156855095Y-87455986D01*
X156850914Y-87475961D01*
X156851010Y-87480617D01*
X156847866Y-87490532D01*
X156837035Y-87520287D01*
X156795606Y-87576550D01*
X156762928Y-87594394D01*
X156724510Y-87608378D01*
X156686575Y-87637486D01*
X156526577Y-87797485D01*
X156497465Y-87835423D01*
X156483482Y-87873840D01*
X156442054Y-87930103D01*
X156409374Y-87947948D01*
X156370961Y-87961930D01*
X156370958Y-87961931D01*
X156333019Y-87991042D01*
X156286268Y-88037794D01*
X156254495Y-88069568D01*
X156234991Y-88089072D01*
X156227043Y-88093411D01*
X156221619Y-88100658D01*
X156196862Y-88109891D01*
X156173668Y-88122557D01*
X156164637Y-88121911D01*
X156156155Y-88125075D01*
X156130334Y-88119458D01*
X156103976Y-88117573D01*
X156094922Y-88111754D01*
X156087882Y-88110223D01*
X156059628Y-88089072D01*
X156026018Y-88055462D01*
X155992533Y-87994139D01*
X155991084Y-87949299D01*
X155992794Y-87937955D01*
X156008102Y-87836396D01*
X155987861Y-87702109D01*
X155928937Y-87579754D01*
X155909436Y-87556216D01*
X155909426Y-87556206D01*
X155909418Y-87556197D01*
X155443802Y-87090581D01*
X155443793Y-87090573D01*
X155443784Y-87090564D01*
X155432374Y-87081111D01*
X155420249Y-87071065D01*
X155420247Y-87071064D01*
X155420246Y-87071063D01*
X155327589Y-87026441D01*
X155297890Y-87012138D01*
X155163604Y-86991898D01*
X155029317Y-87012138D01*
X154906958Y-87071065D01*
X154883432Y-87090557D01*
X154883405Y-87090581D01*
X154523855Y-87450131D01*
X154523831Y-87450158D01*
X154504339Y-87473684D01*
X154445412Y-87596043D01*
X154425172Y-87730330D01*
X154445412Y-87864616D01*
X154463171Y-87901492D01*
X154504337Y-87986972D01*
X154523838Y-88010510D01*
X154523847Y-88010519D01*
X154523855Y-88010528D01*
X154989471Y-88476144D01*
X154989480Y-88476152D01*
X154989490Y-88476162D01*
X155003572Y-88487829D01*
X155011060Y-88494033D01*
X155013028Y-88495663D01*
X155135383Y-88554587D01*
X155269670Y-88574828D01*
X155403957Y-88554587D01*
X155403957Y-88554586D01*
X155413146Y-88553202D01*
X155413512Y-88555632D01*
X155414274Y-88555621D01*
X155427687Y-88550619D01*
X155448514Y-88555149D01*
X155469824Y-88554856D01*
X155483273Y-88562711D01*
X155495960Y-88565471D01*
X155524214Y-88586622D01*
X155543146Y-88605554D01*
X155576631Y-88666877D01*
X155571647Y-88736569D01*
X155543146Y-88780916D01*
X155465914Y-88858148D01*
X155436804Y-88896084D01*
X155422821Y-88934501D01*
X155381393Y-88990764D01*
X155369791Y-88998599D01*
X155359717Y-89004603D01*
X155310297Y-89022592D01*
X155272362Y-89051700D01*
X155260043Y-89064019D01*
X155246770Y-89071931D01*
X155227284Y-89076946D01*
X155209623Y-89086588D01*
X155186014Y-89087570D01*
X155179106Y-89089349D01*
X155175100Y-89088024D01*
X155167094Y-89088358D01*
X155122005Y-89082422D01*
X155122003Y-89082422D01*
X154971899Y-89102184D01*
X154971898Y-89102184D01*
X154832022Y-89160122D01*
X154771924Y-89206237D01*
X154771924Y-89206238D01*
X155027993Y-89462307D01*
X155031707Y-89469109D01*
X155038009Y-89473625D01*
X155056834Y-89507577D01*
X155077877Y-89565391D01*
X155082308Y-89635120D01*
X155048338Y-89696176D01*
X154986752Y-89729173D01*
X154918944Y-89724324D01*
X154862243Y-89703686D01*
X154816973Y-89674845D01*
X153816983Y-88674855D01*
X153784889Y-88619267D01*
X153762984Y-88537515D01*
X153760065Y-88532460D01*
X153690511Y-88411988D01*
X153690506Y-88411982D01*
X153588017Y-88309493D01*
X153588015Y-88309491D01*
X153516828Y-88268391D01*
X153491147Y-88248685D01*
X152858912Y-87616450D01*
X152825427Y-87555127D01*
X152830411Y-87485435D01*
X152858912Y-87441088D01*
X152948008Y-87351992D01*
X152948006Y-87351990D01*
X153301561Y-87351990D01*
X153301561Y-87351991D01*
X153814212Y-87864642D01*
X153830702Y-87848153D01*
X153830707Y-87848148D01*
X153893734Y-87770778D01*
X153893739Y-87770770D01*
X153969797Y-87619326D01*
X154008884Y-87454408D01*
X154008884Y-87284930D01*
X153969797Y-87120012D01*
X153893739Y-86968568D01*
X153893734Y-86968561D01*
X153830707Y-86891189D01*
X153830702Y-86891184D01*
X153796536Y-86857017D01*
X153301561Y-87351990D01*
X152948006Y-87351990D01*
X152858912Y-87262896D01*
X152825427Y-87201573D01*
X152830411Y-87131881D01*
X152858912Y-87087534D01*
X153442982Y-86503464D01*
X153408821Y-86469303D01*
X153408803Y-86469287D01*
X153331439Y-86406265D01*
X153307787Y-86394386D01*
X153256714Y-86346707D01*
X153239525Y-86278984D01*
X153252630Y-86227924D01*
X153293970Y-86145610D01*
X153334404Y-85975008D01*
X153334404Y-85799687D01*
X153293970Y-85629086D01*
X153215282Y-85472405D01*
X153150083Y-85392369D01*
X153150067Y-85392351D01*
X152955634Y-85197918D01*
X152955633Y-85197918D01*
X152336208Y-85817344D01*
X152274885Y-85850829D01*
X152205194Y-85845845D01*
X152160846Y-85817344D01*
X152071751Y-85728249D01*
X151982655Y-85817345D01*
X151921332Y-85850829D01*
X151851640Y-85845845D01*
X151807293Y-85817344D01*
X151374716Y-85384766D01*
X151313162Y-85366692D01*
X151292520Y-85350058D01*
X150658912Y-84716450D01*
X150625427Y-84655127D01*
X150630411Y-84585435D01*
X150658912Y-84541088D01*
X150748008Y-84451992D01*
X150748006Y-84451990D01*
X151101561Y-84451990D01*
X151101561Y-84451991D01*
X151268265Y-84618695D01*
X151329816Y-84636769D01*
X151350458Y-84653403D01*
X152071750Y-85374695D01*
X152602081Y-84844365D01*
X152407635Y-84649921D01*
X152327588Y-84584714D01*
X152170913Y-84506029D01*
X152000312Y-84465596D01*
X151926049Y-84465596D01*
X151859010Y-84445911D01*
X151813255Y-84393107D01*
X151805391Y-84370192D01*
X151769797Y-84220012D01*
X151693739Y-84068568D01*
X151693734Y-84068561D01*
X151630707Y-83991189D01*
X151630702Y-83991184D01*
X151596536Y-83957017D01*
X151101561Y-84451990D01*
X150748006Y-84451990D01*
X150658912Y-84362896D01*
X150625427Y-84301573D01*
X150630411Y-84231881D01*
X150658912Y-84187534D01*
X151242982Y-83603464D01*
X151208821Y-83569303D01*
X151208805Y-83569289D01*
X151131438Y-83506265D01*
X151131431Y-83506260D01*
X150979987Y-83430202D01*
X150815069Y-83391116D01*
X150728928Y-83391116D01*
X150661889Y-83371431D01*
X150616134Y-83318627D01*
X150606190Y-83249469D01*
X150635215Y-83185913D01*
X150641247Y-83179435D01*
X151183863Y-82636819D01*
X151245186Y-82603334D01*
X151271544Y-82600500D01*
X152199676Y-82600500D01*
X152199677Y-82600499D01*
X152272740Y-82585966D01*
X152355601Y-82530601D01*
X152410966Y-82447740D01*
X152425500Y-82374674D01*
X152425500Y-82224500D01*
X152445185Y-82157461D01*
X152497989Y-82111706D01*
X152549500Y-82100500D01*
X155050500Y-82100500D01*
X155117539Y-82120185D01*
X155163294Y-82172989D01*
X155174500Y-82224500D01*
X155174500Y-82374678D01*
X155189032Y-82447735D01*
X155189033Y-82447739D01*
X155189034Y-82447740D01*
X155244399Y-82530601D01*
X155292058Y-82562445D01*
X155327260Y-82585966D01*
X155327264Y-82585967D01*
X155400321Y-82600499D01*
X155400324Y-82600500D01*
X155400326Y-82600500D01*
X156649676Y-82600500D01*
X156649677Y-82600499D01*
X156722740Y-82585966D01*
X156805601Y-82530601D01*
X156860966Y-82447740D01*
X156875500Y-82374674D01*
X156875500Y-81125326D01*
X156875500Y-81125323D01*
X156875499Y-81125321D01*
X156860967Y-81052264D01*
X156860966Y-81052260D01*
X156852440Y-81039500D01*
X156805601Y-80969399D01*
X156722740Y-80914034D01*
X156722739Y-80914033D01*
X156722735Y-80914032D01*
X156649677Y-80899500D01*
X156649674Y-80899500D01*
X155400326Y-80899500D01*
X155400323Y-80899500D01*
X155327264Y-80914032D01*
X155327260Y-80914033D01*
X155244399Y-80969399D01*
X155189033Y-81052260D01*
X155189032Y-81052264D01*
X155174500Y-81125321D01*
X155174500Y-81275500D01*
X155154815Y-81342539D01*
X155102011Y-81388294D01*
X155050500Y-81399500D01*
X152549500Y-81399500D01*
X152482461Y-81379815D01*
X152436706Y-81327011D01*
X152425500Y-81275500D01*
X152425500Y-81125323D01*
X152425499Y-81125321D01*
X152410967Y-81052264D01*
X152410966Y-81052260D01*
X152402440Y-81039500D01*
X152355601Y-80969399D01*
X152272740Y-80914034D01*
X152272739Y-80914033D01*
X152272735Y-80914032D01*
X152199677Y-80899500D01*
X152199674Y-80899500D01*
X150950326Y-80899500D01*
X150950323Y-80899500D01*
X150877264Y-80914032D01*
X150877260Y-80914033D01*
X150794399Y-80969399D01*
X150739033Y-81052260D01*
X150739032Y-81052264D01*
X150724500Y-81125321D01*
X150724500Y-82053456D01*
X150704815Y-82120495D01*
X150688181Y-82141137D01*
X150397288Y-82432030D01*
X150040636Y-82788681D01*
X149979313Y-82822166D01*
X149952955Y-82825000D01*
X149124000Y-82825000D01*
X149056961Y-82805315D01*
X149011206Y-82752511D01*
X149000000Y-82701000D01*
X149000000Y-82449000D01*
X149019685Y-82381961D01*
X149072489Y-82336206D01*
X149124000Y-82325000D01*
X149974999Y-82325000D01*
X149974999Y-82301692D01*
X149974998Y-82301677D01*
X149964855Y-82202392D01*
X149911547Y-82041518D01*
X149911542Y-82041507D01*
X149822575Y-81897271D01*
X149822572Y-81897267D01*
X149702732Y-81777427D01*
X149702728Y-81777424D01*
X149644730Y-81741650D01*
X149598005Y-81689702D01*
X149586784Y-81620739D01*
X149610558Y-81561805D01*
X149671628Y-81480226D01*
X149719412Y-81352114D01*
X149722845Y-81320185D01*
X149725499Y-81295501D01*
X149725499Y-81295494D01*
X149725500Y-81295485D01*
X149725499Y-80754516D01*
X149719412Y-80697886D01*
X149717251Y-80692093D01*
X149696796Y-80637250D01*
X149671628Y-80569774D01*
X149589687Y-80460313D01*
X149500189Y-80393316D01*
X149497451Y-80389659D01*
X149493297Y-80387762D01*
X149476706Y-80361947D01*
X149458318Y-80337382D01*
X149457302Y-80331752D01*
X149455523Y-80328984D01*
X149450500Y-80294049D01*
X149450500Y-80292980D01*
X149470185Y-80225941D01*
X149500867Y-80193210D01*
X149526218Y-80174500D01*
X149597150Y-80122150D01*
X149630197Y-80077371D01*
X149685839Y-80035125D01*
X149755495Y-80029665D01*
X149817045Y-80062731D01*
G37*
%TD.AperFunction*%
%TA.AperFunction,Conductor*%
G36*
X147270495Y-87970185D02*
G01*
X147291137Y-87986819D01*
X147836780Y-88532462D01*
X147894302Y-88565672D01*
X147916704Y-88578606D01*
X148005848Y-88602492D01*
X148024207Y-88602492D01*
X148042068Y-88608002D01*
X148056243Y-88617387D01*
X148072555Y-88622177D01*
X148093197Y-88638811D01*
X148394373Y-88939987D01*
X148427858Y-89001310D01*
X148422874Y-89071002D01*
X148394374Y-89115349D01*
X148305278Y-89204445D01*
X148394373Y-89293540D01*
X148427858Y-89354863D01*
X148422874Y-89424555D01*
X148394373Y-89468902D01*
X147792626Y-90070649D01*
X147792626Y-90070650D01*
X147809109Y-90087133D01*
X147809125Y-90087147D01*
X147886492Y-90150171D01*
X147886499Y-90150176D01*
X148037943Y-90226234D01*
X148202862Y-90265321D01*
X148372341Y-90265321D01*
X148438649Y-90249605D01*
X148508421Y-90253298D01*
X148565121Y-90294126D01*
X148589985Y-90352614D01*
X148604487Y-90453479D01*
X148614596Y-90475614D01*
X148661288Y-90577858D01*
X148687576Y-90610478D01*
X148690767Y-90614438D01*
X148717505Y-90678989D01*
X148705100Y-90747749D01*
X148657490Y-90798886D01*
X148594216Y-90816245D01*
X143912289Y-90816245D01*
X143845250Y-90796560D01*
X143824608Y-90779926D01*
X143086819Y-90042137D01*
X143053334Y-89980814D01*
X143050500Y-89954456D01*
X143050500Y-89878527D01*
X143050500Y-89878525D01*
X143012984Y-89738515D01*
X143007590Y-89729173D01*
X142940511Y-89612988D01*
X142940506Y-89612982D01*
X142838017Y-89510493D01*
X142838011Y-89510488D01*
X142712488Y-89438017D01*
X142712489Y-89438017D01*
X142662248Y-89424555D01*
X142572475Y-89400500D01*
X142427525Y-89400500D01*
X142337752Y-89424555D01*
X142287511Y-89438017D01*
X142161988Y-89510488D01*
X142161982Y-89510493D01*
X142059493Y-89612982D01*
X142059488Y-89612988D01*
X141987017Y-89738511D01*
X141987016Y-89738515D01*
X141949500Y-89878525D01*
X141949500Y-90023475D01*
X141983450Y-90150176D01*
X141987017Y-90163488D01*
X142059488Y-90289011D01*
X142059490Y-90289013D01*
X142059491Y-90289015D01*
X142161985Y-90391509D01*
X142161986Y-90391510D01*
X142161988Y-90391511D01*
X142287511Y-90463982D01*
X142287512Y-90463982D01*
X142287515Y-90463984D01*
X142427525Y-90501500D01*
X142503456Y-90501500D01*
X142570495Y-90521185D01*
X142591137Y-90537819D01*
X143198665Y-91145347D01*
X143232150Y-91206670D01*
X143227166Y-91276362D01*
X143198665Y-91320709D01*
X142991137Y-91528238D01*
X142929814Y-91561723D01*
X142903456Y-91564557D01*
X139887072Y-91564557D01*
X139864631Y-91557967D01*
X139861583Y-91561321D01*
X139833934Y-91573161D01*
X139831980Y-91574417D01*
X139829165Y-91575207D01*
X139804091Y-91581926D01*
X139779769Y-91588443D01*
X139779766Y-91588444D01*
X139699848Y-91634584D01*
X139699843Y-91634588D01*
X139356194Y-91978238D01*
X139294871Y-92011723D01*
X139268513Y-92014557D01*
X137388799Y-92014557D01*
X137310317Y-92035585D01*
X137310314Y-92035587D01*
X137299655Y-92038443D01*
X137299653Y-92038443D01*
X137299653Y-92038444D01*
X137292142Y-92041555D01*
X137290964Y-92038711D01*
X137237227Y-92051727D01*
X137171209Y-92028852D01*
X137128038Y-91973915D01*
X137121421Y-91904359D01*
X137153460Y-91842268D01*
X137155448Y-91840232D01*
X137627922Y-91367759D01*
X137689245Y-91334274D01*
X137715603Y-91331440D01*
X139797045Y-91331440D01*
X139815534Y-91336869D01*
X139827888Y-91337163D01*
X139852137Y-91321580D01*
X139854951Y-91320789D01*
X139904348Y-91307554D01*
X139913888Y-91302046D01*
X139984272Y-91261410D01*
X142108297Y-89137383D01*
X147244402Y-89137383D01*
X147244402Y-89306861D01*
X147283488Y-89471779D01*
X147359546Y-89623223D01*
X147359551Y-89623230D01*
X147422584Y-89700608D01*
X147422596Y-89700621D01*
X147439071Y-89717096D01*
X147439072Y-89717096D01*
X147951724Y-89204444D01*
X147456750Y-88709470D01*
X147456749Y-88709470D01*
X147422594Y-88743626D01*
X147422577Y-88743645D01*
X147359551Y-88821013D01*
X147359546Y-88821021D01*
X147283488Y-88972465D01*
X147244402Y-89137383D01*
X142108297Y-89137383D01*
X142606870Y-88638810D01*
X142668193Y-88605326D01*
X142694551Y-88602492D01*
X143394150Y-88602492D01*
X143394152Y-88602492D01*
X143483296Y-88578606D01*
X143505698Y-88565672D01*
X143563220Y-88532462D01*
X144108863Y-87986819D01*
X144170186Y-87953334D01*
X144196544Y-87950500D01*
X147203456Y-87950500D01*
X147270495Y-87970185D01*
G37*
%TD.AperFunction*%
%TA.AperFunction,Conductor*%
G36*
X141008797Y-82061710D02*
G01*
X141025855Y-82063985D01*
X141055740Y-82082762D01*
X141066386Y-82091798D01*
X141068112Y-82094828D01*
X141113867Y-82147632D01*
X141146641Y-82179257D01*
X141206039Y-82210328D01*
X141216564Y-82219261D01*
X141254937Y-82277650D01*
X141255652Y-82347516D01*
X141241867Y-82378889D01*
X141240648Y-82380864D01*
X141240641Y-82380879D01*
X141185494Y-82547301D01*
X141185493Y-82547308D01*
X141175000Y-82650012D01*
X141175000Y-82699999D01*
X142276000Y-82699999D01*
X142343039Y-82719684D01*
X142388794Y-82772488D01*
X142400000Y-82823999D01*
X142400000Y-83075999D01*
X142380315Y-83143038D01*
X142327511Y-83188793D01*
X142276000Y-83199999D01*
X141175001Y-83199999D01*
X141175001Y-83249985D01*
X141185494Y-83352696D01*
X141240641Y-83519118D01*
X141240643Y-83519123D01*
X141332684Y-83668344D01*
X141456654Y-83792314D01*
X141605875Y-83884355D01*
X141605880Y-83884357D01*
X141772302Y-83939504D01*
X141772309Y-83939505D01*
X141875019Y-83949998D01*
X142109370Y-83949998D01*
X142176410Y-83969682D01*
X142222165Y-84022486D01*
X142232109Y-84091645D01*
X142216759Y-84135997D01*
X142187017Y-84187512D01*
X142187016Y-84187514D01*
X142187016Y-84187515D01*
X142149500Y-84327525D01*
X142149500Y-84472475D01*
X142179575Y-84584714D01*
X142181904Y-84593406D01*
X142181308Y-84618401D01*
X142184867Y-84643147D01*
X142180491Y-84652727D01*
X142180241Y-84663256D01*
X142166228Y-84683960D01*
X142155842Y-84706703D01*
X142146982Y-84712396D01*
X142141079Y-84721119D01*
X142118095Y-84730960D01*
X142097064Y-84744477D01*
X142081208Y-84746756D01*
X142076850Y-84748623D01*
X142062129Y-84749500D01*
X142034702Y-84749500D01*
X141967663Y-84729815D01*
X141931600Y-84694391D01*
X141882951Y-84621584D01*
X141882948Y-84621580D01*
X141778419Y-84517051D01*
X141778415Y-84517048D01*
X141655501Y-84434919D01*
X141655488Y-84434912D01*
X141518917Y-84378343D01*
X141518907Y-84378340D01*
X141373920Y-84349500D01*
X141373918Y-84349500D01*
X141226082Y-84349500D01*
X141226080Y-84349500D01*
X141081092Y-84378340D01*
X141081082Y-84378343D01*
X140944511Y-84434912D01*
X140944498Y-84434919D01*
X140821584Y-84517048D01*
X140821580Y-84517051D01*
X140717051Y-84621580D01*
X140717048Y-84621584D01*
X140634919Y-84744498D01*
X140634912Y-84744511D01*
X140578343Y-84881082D01*
X140578340Y-84881092D01*
X140549500Y-85026079D01*
X140549500Y-85026082D01*
X140549500Y-85173918D01*
X140549500Y-85173920D01*
X140549499Y-85173920D01*
X140578340Y-85318907D01*
X140578343Y-85318917D01*
X140634912Y-85455488D01*
X140634919Y-85455501D01*
X140717048Y-85578415D01*
X140717051Y-85578419D01*
X140821580Y-85682948D01*
X140821584Y-85682951D01*
X140944498Y-85765080D01*
X140944511Y-85765087D01*
X141060899Y-85813296D01*
X141081087Y-85821658D01*
X141081091Y-85821658D01*
X141081092Y-85821659D01*
X141226079Y-85850500D01*
X141226082Y-85850500D01*
X141373920Y-85850500D01*
X141489976Y-85827414D01*
X141518913Y-85821658D01*
X141624547Y-85777902D01*
X141655488Y-85765087D01*
X141655488Y-85765086D01*
X141655495Y-85765084D01*
X141778416Y-85682951D01*
X141882951Y-85578416D01*
X141915216Y-85530128D01*
X141931600Y-85505609D01*
X141985213Y-85460804D01*
X142034702Y-85450500D01*
X143262129Y-85450500D01*
X143280155Y-85455793D01*
X143298944Y-85456091D01*
X143312987Y-85465433D01*
X143329168Y-85470185D01*
X143341471Y-85484383D01*
X143357116Y-85494792D01*
X143363878Y-85510243D01*
X143374923Y-85522989D01*
X143377596Y-85541585D01*
X143385131Y-85558799D01*
X143383514Y-85582740D01*
X143384867Y-85592147D01*
X143384572Y-85594089D01*
X143383560Y-85600410D01*
X143349500Y-85727525D01*
X143349500Y-85813311D01*
X143347943Y-85823044D01*
X143336992Y-85846051D01*
X143329815Y-85870494D01*
X143318927Y-85884005D01*
X143317915Y-85886132D01*
X143316511Y-85887002D01*
X143313181Y-85891136D01*
X143023914Y-86180402D01*
X142962591Y-86213887D01*
X142892899Y-86208903D01*
X142888780Y-86207282D01*
X142818913Y-86178342D01*
X142818907Y-86178340D01*
X142673920Y-86149500D01*
X142673918Y-86149500D01*
X142526082Y-86149500D01*
X142526080Y-86149500D01*
X142381092Y-86178340D01*
X142381082Y-86178343D01*
X142244511Y-86234912D01*
X142244498Y-86234919D01*
X142121584Y-86317048D01*
X142121580Y-86317051D01*
X142017051Y-86421580D01*
X142017048Y-86421584D01*
X141934919Y-86544498D01*
X141934912Y-86544511D01*
X141878343Y-86681082D01*
X141878340Y-86681092D01*
X141849500Y-86826079D01*
X141849500Y-86826082D01*
X141849500Y-86973918D01*
X141849500Y-86973920D01*
X141849499Y-86973920D01*
X141878340Y-87118907D01*
X141878343Y-87118917D01*
X141934912Y-87255488D01*
X141934919Y-87255501D01*
X142017048Y-87378415D01*
X142017051Y-87378419D01*
X142121580Y-87482948D01*
X142121584Y-87482951D01*
X142244498Y-87565080D01*
X142244511Y-87565087D01*
X142375457Y-87619326D01*
X142381087Y-87621658D01*
X142381091Y-87621658D01*
X142381092Y-87621659D01*
X142526079Y-87650500D01*
X142526082Y-87650500D01*
X142673920Y-87650500D01*
X142771462Y-87631096D01*
X142818913Y-87621658D01*
X142955495Y-87565084D01*
X143078416Y-87482951D01*
X143182951Y-87378416D01*
X143265084Y-87255495D01*
X143321658Y-87118913D01*
X143340052Y-87026441D01*
X143350500Y-86973920D01*
X143350500Y-86896544D01*
X143370185Y-86829505D01*
X143386819Y-86808863D01*
X143808863Y-86386819D01*
X143870186Y-86353334D01*
X143896544Y-86350500D01*
X143972472Y-86350500D01*
X143972475Y-86350500D01*
X144112485Y-86312984D01*
X144238015Y-86240509D01*
X144340509Y-86138015D01*
X144412984Y-86012485D01*
X144450500Y-85872475D01*
X144450500Y-85727525D01*
X144412984Y-85587515D01*
X144407732Y-85578419D01*
X144340511Y-85461988D01*
X144340506Y-85461982D01*
X144238017Y-85359493D01*
X144238015Y-85359491D01*
X144212059Y-85344505D01*
X144175736Y-85323533D01*
X144127522Y-85272965D01*
X144114300Y-85204358D01*
X144140269Y-85139494D01*
X144150041Y-85128482D01*
X144240509Y-85038015D01*
X144312984Y-84912485D01*
X144350500Y-84772475D01*
X144350500Y-84627525D01*
X144312984Y-84487515D01*
X144258477Y-84393107D01*
X144240511Y-84361988D01*
X144240506Y-84361982D01*
X144139705Y-84261181D01*
X144106220Y-84199858D01*
X144111204Y-84130166D01*
X144153076Y-84074233D01*
X144218540Y-84049816D01*
X144227386Y-84049500D01*
X146550500Y-84049500D01*
X146617539Y-84069185D01*
X146663294Y-84121989D01*
X146674500Y-84173500D01*
X146674500Y-84654269D01*
X146677353Y-84684699D01*
X146677353Y-84684701D01*
X146721019Y-84809488D01*
X146722207Y-84812882D01*
X146802849Y-84922149D01*
X146802851Y-84922151D01*
X146809421Y-84928721D01*
X146807590Y-84930551D01*
X146841377Y-84975033D01*
X146849500Y-85019176D01*
X146849500Y-85437770D01*
X146829815Y-85504809D01*
X146813181Y-85525451D01*
X146717051Y-85621580D01*
X146717048Y-85621584D01*
X146634919Y-85744498D01*
X146634912Y-85744511D01*
X146578343Y-85881082D01*
X146578340Y-85881092D01*
X146549500Y-86026079D01*
X146549500Y-86026082D01*
X146549500Y-86173918D01*
X146549500Y-86173920D01*
X146549499Y-86173920D01*
X146578340Y-86318907D01*
X146578343Y-86318917D01*
X146634912Y-86455488D01*
X146634919Y-86455501D01*
X146717048Y-86578415D01*
X146717051Y-86578419D01*
X146821580Y-86682948D01*
X146821584Y-86682951D01*
X146944498Y-86765080D01*
X146944511Y-86765087D01*
X147077678Y-86820246D01*
X147081087Y-86821658D01*
X147081091Y-86821658D01*
X147081092Y-86821659D01*
X147226079Y-86850500D01*
X147226082Y-86850500D01*
X147373920Y-86850500D01*
X147471462Y-86831096D01*
X147518913Y-86821658D01*
X147655495Y-86765084D01*
X147778416Y-86682951D01*
X147882951Y-86578416D01*
X147965084Y-86455495D01*
X148021658Y-86318913D01*
X148037255Y-86240506D01*
X148050500Y-86173920D01*
X148050500Y-86026079D01*
X148021659Y-85881092D01*
X148021658Y-85881091D01*
X148021658Y-85881087D01*
X148009125Y-85850829D01*
X147965087Y-85744511D01*
X147965080Y-85744498D01*
X147882951Y-85621584D01*
X147882948Y-85621580D01*
X147786819Y-85525451D01*
X147753334Y-85464128D01*
X147750500Y-85437770D01*
X147750500Y-85138847D01*
X147770185Y-85071808D01*
X147822989Y-85026053D01*
X147833528Y-85021812D01*
X147887882Y-85002793D01*
X147997150Y-84922150D01*
X148077793Y-84812882D01*
X148104340Y-84737016D01*
X148122646Y-84684701D01*
X148122646Y-84684699D01*
X148125500Y-84654269D01*
X148125500Y-84173500D01*
X148145185Y-84106461D01*
X148197989Y-84060706D01*
X148249500Y-84049500D01*
X149272142Y-84049500D01*
X149272144Y-84049500D01*
X149361288Y-84025614D01*
X149441212Y-83979470D01*
X149533863Y-83886819D01*
X149560790Y-83872115D01*
X149586609Y-83855523D01*
X149592809Y-83854631D01*
X149595186Y-83853334D01*
X149621544Y-83850500D01*
X149693005Y-83850500D01*
X149760044Y-83870185D01*
X149805799Y-83922989D01*
X149815743Y-83992147D01*
X149803815Y-84030152D01*
X149726217Y-84184659D01*
X149687132Y-84349575D01*
X149687132Y-84519053D01*
X149702848Y-84585365D01*
X149699154Y-84655137D01*
X149658325Y-84711836D01*
X149599838Y-84736699D01*
X149498973Y-84751201D01*
X149418381Y-84788005D01*
X149374595Y-84808002D01*
X149374594Y-84808003D01*
X149330251Y-84843736D01*
X149330244Y-84843743D01*
X148947736Y-85226252D01*
X148947721Y-85226269D01*
X148911987Y-85270609D01*
X148855185Y-85394989D01*
X148835726Y-85530330D01*
X148855185Y-85665671D01*
X148911986Y-85790049D01*
X148911987Y-85790050D01*
X148947722Y-85834395D01*
X148947726Y-85834399D01*
X149365597Y-86252268D01*
X149365611Y-86252281D01*
X149391657Y-86273271D01*
X149408463Y-86286815D01*
X149409949Y-86288012D01*
X149409951Y-86288014D01*
X149461158Y-86311398D01*
X149497328Y-86336512D01*
X149732437Y-86571621D01*
X149765922Y-86632944D01*
X149760938Y-86702636D01*
X149757551Y-86710813D01*
X149730431Y-86770197D01*
X149709950Y-86912652D01*
X149730431Y-87055108D01*
X149790219Y-87186024D01*
X149790222Y-87186029D01*
X149827835Y-87232705D01*
X149827842Y-87232713D01*
X149862041Y-87266911D01*
X149866380Y-87274857D01*
X149873628Y-87280283D01*
X149882861Y-87305039D01*
X149895527Y-87328233D01*
X149894881Y-87337264D01*
X149898045Y-87345747D01*
X149892427Y-87371568D01*
X149890543Y-87397925D01*
X149884724Y-87406978D01*
X149883193Y-87414020D01*
X149862042Y-87442274D01*
X149833476Y-87470840D01*
X149772153Y-87504325D01*
X149702461Y-87499341D01*
X149694285Y-87495954D01*
X149605012Y-87455186D01*
X149515210Y-87442274D01*
X149469670Y-87435726D01*
X149469669Y-87435726D01*
X149334328Y-87455185D01*
X149209950Y-87511986D01*
X149209949Y-87511987D01*
X149165607Y-87547720D01*
X149165603Y-87547723D01*
X149165603Y-87547724D01*
X148848154Y-87865174D01*
X148786833Y-87898658D01*
X148760475Y-87901492D01*
X148248536Y-87901492D01*
X148181497Y-87881807D01*
X148160855Y-87865173D01*
X147615213Y-87319531D01*
X147615208Y-87319527D01*
X147535290Y-87273387D01*
X147535289Y-87273386D01*
X147535288Y-87273386D01*
X147446144Y-87249500D01*
X143953856Y-87249500D01*
X143864712Y-87273386D01*
X143864709Y-87273387D01*
X143784791Y-87319527D01*
X143784786Y-87319531D01*
X143239145Y-87865173D01*
X143177822Y-87898658D01*
X143151464Y-87901492D01*
X142451864Y-87901492D01*
X142372819Y-87922672D01*
X142372818Y-87922671D01*
X142362719Y-87925378D01*
X142362714Y-87925380D01*
X142282802Y-87971518D01*
X142282793Y-87971525D01*
X141701855Y-88552462D01*
X141640532Y-88585947D01*
X141570840Y-88580963D01*
X141514907Y-88539091D01*
X141506787Y-88526781D01*
X141477551Y-88476144D01*
X141440509Y-88411985D01*
X141366205Y-88337681D01*
X141332720Y-88276358D01*
X141337704Y-88206666D01*
X141366205Y-88162319D01*
X141406613Y-88121911D01*
X141449116Y-88079408D01*
X141521591Y-87953878D01*
X141559107Y-87813868D01*
X141559107Y-87668918D01*
X141521591Y-87528908D01*
X141504520Y-87499341D01*
X141449118Y-87403381D01*
X141449113Y-87403375D01*
X141346624Y-87300886D01*
X141346618Y-87300881D01*
X141221095Y-87228410D01*
X141221096Y-87228410D01*
X141209613Y-87225333D01*
X141081082Y-87190893D01*
X141081079Y-87190893D01*
X141005151Y-87190893D01*
X140938112Y-87171208D01*
X140917470Y-87154574D01*
X139891397Y-86128501D01*
X139857912Y-86067178D01*
X139855078Y-86040820D01*
X139855078Y-83697544D01*
X139874763Y-83630505D01*
X139891397Y-83609863D01*
X140327874Y-83173386D01*
X140781470Y-82719790D01*
X140827614Y-82639866D01*
X140848359Y-82562445D01*
X140851500Y-82550722D01*
X140851500Y-82177301D01*
X140856348Y-82160790D01*
X140856172Y-82143585D01*
X140865987Y-82127962D01*
X140871185Y-82110262D01*
X140884188Y-82098994D01*
X140893343Y-82084424D01*
X140910046Y-82076587D01*
X140923989Y-82064507D01*
X140941019Y-82062058D01*
X140956598Y-82054750D01*
X140974886Y-82057188D01*
X140993147Y-82054563D01*
X141008797Y-82061710D01*
G37*
%TD.AperFunction*%
%TD*%
%TA.AperFunction,Conductor*%
%TO.N,GND*%
G36*
X146500000Y-99300000D02*
G01*
X143937500Y-99300000D01*
X143937500Y-104496107D01*
X143870426Y-104563181D01*
X143809103Y-104596666D01*
X143782745Y-104599500D01*
X143229386Y-104599500D01*
X143162347Y-104579815D01*
X143141705Y-104563181D01*
X143138017Y-104559493D01*
X143138011Y-104559488D01*
X143012488Y-104487017D01*
X143012489Y-104487017D01*
X143001006Y-104483940D01*
X142872475Y-104449500D01*
X142727525Y-104449500D01*
X142598993Y-104483940D01*
X142587511Y-104487017D01*
X142461988Y-104559488D01*
X142461982Y-104559493D01*
X142359493Y-104661982D01*
X142359488Y-104661988D01*
X142287017Y-104787511D01*
X142287016Y-104787515D01*
X142249500Y-104927525D01*
X142249500Y-105072475D01*
X142287016Y-105212485D01*
X142287017Y-105212488D01*
X142359488Y-105338011D01*
X142359490Y-105338013D01*
X142359491Y-105338015D01*
X142461985Y-105440509D01*
X142461986Y-105440510D01*
X142461988Y-105440511D01*
X142587511Y-105512982D01*
X142587512Y-105512982D01*
X142587515Y-105512984D01*
X142727525Y-105550500D01*
X142727528Y-105550500D01*
X142872472Y-105550500D01*
X142872475Y-105550500D01*
X143012485Y-105512984D01*
X143138015Y-105440509D01*
X143141705Y-105436819D01*
X143203028Y-105403334D01*
X143229386Y-105400500D01*
X143937500Y-105400500D01*
X143937500Y-109850000D01*
X140540000Y-109850000D01*
X140540000Y-96250000D01*
X146500000Y-96250000D01*
X146500000Y-99300000D01*
G37*
%TD.AperFunction*%
%TD*%
%TA.AperFunction,Conductor*%
%TO.N,/ESP_3V3*%
G36*
X144693039Y-79019685D02*
G01*
X144738794Y-79072489D01*
X144750000Y-79124000D01*
X144750000Y-81000000D01*
X147040823Y-81000000D01*
X147107862Y-81019685D01*
X147128504Y-81036318D01*
X147192686Y-81100500D01*
X147306814Y-81166392D01*
X147434108Y-81200500D01*
X147434110Y-81200500D01*
X147565890Y-81200500D01*
X147565892Y-81200500D01*
X147693186Y-81166392D01*
X147807314Y-81100500D01*
X147807317Y-81100496D01*
X147813999Y-81096639D01*
X147881899Y-81080166D01*
X147947926Y-81103018D01*
X147991117Y-81157939D01*
X148000000Y-81204026D01*
X148000000Y-83126000D01*
X147980315Y-83193039D01*
X147927511Y-83238794D01*
X147876000Y-83250000D01*
X145624000Y-83250000D01*
X145556961Y-83230315D01*
X145511206Y-83177511D01*
X145500000Y-83126000D01*
X145500000Y-82000000D01*
X144681036Y-82000000D01*
X144624742Y-81986485D01*
X144583123Y-81965279D01*
X144483493Y-81949500D01*
X144483488Y-81949500D01*
X143916512Y-81949500D01*
X143916507Y-81949500D01*
X143816876Y-81965279D01*
X143775258Y-81986485D01*
X143718964Y-82000000D01*
X141374000Y-82000000D01*
X141306961Y-81980315D01*
X141261206Y-81927511D01*
X141250000Y-81876000D01*
X141250000Y-79124000D01*
X141269685Y-79056961D01*
X141322489Y-79011206D01*
X141374000Y-79000000D01*
X144626000Y-79000000D01*
X144693039Y-79019685D01*
G37*
%TD.AperFunction*%
%TD*%
M02*
