%TF.GenerationSoftware,KiCad,Pcbnew,9.0.0-1.fc40*%
%TF.CreationDate,2025-03-21T22:07:15+01:00*%
%TF.ProjectId,airMouse-mcu,6169724d-6f75-4736-952d-6d63752e6b69,v1.0*%
%TF.SameCoordinates,Original*%
%TF.FileFunction,Soldermask,Bot*%
%TF.FilePolarity,Negative*%
%FSLAX46Y46*%
G04 Gerber Fmt 4.6, Leading zero omitted, Abs format (unit mm)*
G04 Created by KiCad (PCBNEW 9.0.0-1.fc40) date 2025-03-21 22:07:15*
%MOMM*%
%LPD*%
G01*
G04 APERTURE LIST*
G04 Aperture macros list*
%AMRoundRect*
0 Rectangle with rounded corners*
0 $1 Rounding radius*
0 $2 $3 $4 $5 $6 $7 $8 $9 X,Y pos of 4 corners*
0 Add a 4 corners polygon primitive as box body*
4,1,4,$2,$3,$4,$5,$6,$7,$8,$9,$2,$3,0*
0 Add four circle primitives for the rounded corners*
1,1,$1+$1,$2,$3*
1,1,$1+$1,$4,$5*
1,1,$1+$1,$6,$7*
1,1,$1+$1,$8,$9*
0 Add four rect primitives between the rounded corners*
20,1,$1+$1,$2,$3,$4,$5,0*
20,1,$1+$1,$4,$5,$6,$7,0*
20,1,$1+$1,$6,$7,$8,$9,0*
20,1,$1+$1,$8,$9,$2,$3,0*%
G04 Aperture macros list end*
%ADD10RoundRect,0.200000X0.200000X0.275000X-0.200000X0.275000X-0.200000X-0.275000X0.200000X-0.275000X0*%
%ADD11RoundRect,0.225000X0.225000X0.250000X-0.225000X0.250000X-0.225000X-0.250000X0.225000X-0.250000X0*%
%ADD12RoundRect,0.087500X0.087500X0.225000X-0.087500X0.225000X-0.087500X-0.225000X0.087500X-0.225000X0*%
%ADD13RoundRect,0.087500X0.225000X0.087500X-0.225000X0.087500X-0.225000X-0.087500X0.225000X-0.087500X0*%
%ADD14RoundRect,0.200000X-0.200000X-0.275000X0.200000X-0.275000X0.200000X0.275000X-0.200000X0.275000X0*%
%ADD15C,2.800000*%
%ADD16C,1.000000*%
%ADD17RoundRect,0.225000X-0.225000X-0.250000X0.225000X-0.250000X0.225000X0.250000X-0.225000X0.250000X0*%
%ADD18R,1.200000X1.200000*%
%ADD19RoundRect,0.200000X-0.275000X0.200000X-0.275000X-0.200000X0.275000X-0.200000X0.275000X0.200000X0*%
%ADD20RoundRect,0.200000X0.275000X-0.200000X0.275000X0.200000X-0.275000X0.200000X-0.275000X-0.200000X0*%
%ADD21RoundRect,0.200000X-0.053033X0.335876X-0.335876X0.053033X0.053033X-0.335876X0.335876X-0.053033X0*%
%ADD22RoundRect,0.225000X0.335876X0.017678X0.017678X0.335876X-0.335876X-0.017678X-0.017678X-0.335876X0*%
%ADD23R,0.600000X1.800000*%
%ADD24R,2.500000X3.000000*%
%ADD25RoundRect,0.250000X0.159099X-0.512652X0.512652X-0.159099X-0.159099X0.512652X-0.512652X0.159099X0*%
%ADD26R,1.800000X0.600000*%
%ADD27R,3.000000X2.500000*%
%ADD28RoundRect,0.225000X-0.250000X0.225000X-0.250000X-0.225000X0.250000X-0.225000X0.250000X0.225000X0*%
%ADD29RoundRect,0.250000X-0.475000X0.250000X-0.475000X-0.250000X0.475000X-0.250000X0.475000X0.250000X0*%
%ADD30RoundRect,0.225000X0.017678X-0.335876X0.335876X-0.017678X-0.017678X0.335876X-0.335876X0.017678X0*%
%ADD31R,1.700000X1.700000*%
%ADD32O,1.700000X1.700000*%
%ADD33RoundRect,0.075000X-0.548008X-0.441942X-0.441942X-0.548008X0.548008X0.441942X0.441942X0.548008X0*%
%ADD34RoundRect,0.075000X-0.548008X0.441942X0.441942X-0.548008X0.548008X-0.441942X-0.441942X0.548008X0*%
%ADD35RoundRect,0.225000X-0.335876X-0.017678X-0.017678X-0.335876X0.335876X0.017678X0.017678X0.335876X0*%
%ADD36RoundRect,0.175000X-1.175000X0.175000X-1.175000X-0.175000X1.175000X-0.175000X1.175000X0.175000X0*%
%ADD37RoundRect,0.250000X-0.700000X0.300000X-0.700000X-0.300000X0.700000X-0.300000X0.700000X0.300000X0*%
G04 APERTURE END LIST*
D10*
%TO.C,R9*%
X136630113Y-95200000D03*
X138280113Y-95200000D03*
%TD*%
D11*
%TO.C,C5*%
X133680113Y-102400000D03*
X135230113Y-102400000D03*
%TD*%
%TO.C,C4*%
X133680113Y-104000000D03*
X135230113Y-104000000D03*
%TD*%
D10*
%TO.C,R8*%
X136630113Y-96800000D03*
X138280113Y-96800000D03*
%TD*%
D12*
%TO.C,U1*%
X134755113Y-99087500D03*
X134255113Y-99087500D03*
X133755113Y-99087500D03*
D13*
X133092613Y-99250000D03*
X133092613Y-99750000D03*
X133092613Y-100250000D03*
X133092613Y-100750000D03*
D12*
X133755113Y-100912500D03*
X134255113Y-100912500D03*
X134755113Y-100912500D03*
D13*
X135417613Y-100750000D03*
X135417613Y-100250000D03*
X135417613Y-99750000D03*
X135417613Y-99250000D03*
%TD*%
D14*
%TO.C,R4*%
X138880113Y-101800000D03*
X137230113Y-101800000D03*
%TD*%
%TO.C,R3*%
X138880113Y-100200000D03*
X137230113Y-100200000D03*
%TD*%
%TO.C,R1*%
X135080113Y-96300000D03*
X133430113Y-96300000D03*
%TD*%
%TO.C,R2*%
X138880113Y-98600000D03*
X137230113Y-98600000D03*
%TD*%
D15*
%TO.C,BT1*%
X138000000Y-124400000D03*
X138000000Y-118200000D03*
X138000000Y-88000000D03*
X138000000Y-81800000D03*
%TD*%
D16*
%TO.C,TP4*%
X141300000Y-85100000D03*
%TD*%
%TO.C,TP3*%
X142600000Y-86900000D03*
%TD*%
D17*
%TO.C,C8*%
X141400000Y-113600000D03*
X142950000Y-113600000D03*
%TD*%
D18*
%TO.C,SW1*%
X151575000Y-78250000D03*
X156025000Y-78250000D03*
X151575000Y-81750000D03*
X156025000Y-81750000D03*
%TD*%
D19*
%TO.C,R17*%
X159600000Y-79175000D03*
X159600000Y-80825000D03*
%TD*%
D20*
%TO.C,R25*%
X141400000Y-117000000D03*
X141400000Y-115350000D03*
%TD*%
D10*
%TO.C,R19*%
X161575000Y-82200000D03*
X163225000Y-82200000D03*
%TD*%
D21*
%TO.C,R7*%
X155216637Y-87783363D03*
X156383363Y-86616637D03*
%TD*%
D19*
%TO.C,R13*%
X147400000Y-82750000D03*
X147400000Y-84400000D03*
%TD*%
D22*
%TO.C,C9*%
X148305278Y-89204445D03*
X149401294Y-90300461D03*
%TD*%
D23*
%TO.C,J5*%
X154300000Y-120312500D03*
X153300000Y-120312500D03*
X152300000Y-120312500D03*
X151300000Y-120312500D03*
X150300000Y-120312500D03*
X149300000Y-120312500D03*
X148300000Y-120312500D03*
X147300000Y-120312500D03*
X146300000Y-120312500D03*
X145300000Y-120312500D03*
D24*
X156800000Y-122912500D03*
X142800000Y-122912500D03*
%TD*%
D25*
%TO.C,C12*%
X152071751Y-85728249D03*
X150728249Y-87071751D03*
%TD*%
D21*
%TO.C,R11*%
X162916637Y-102583363D03*
X164083363Y-101416637D03*
%TD*%
D10*
%TO.C,R12*%
X140325000Y-79000000D03*
X138675000Y-79000000D03*
%TD*%
D26*
%TO.C,J6*%
X161062500Y-119850000D03*
X161062500Y-120850000D03*
X161062500Y-121850000D03*
X161062500Y-122850000D03*
D27*
X163662500Y-117350000D03*
X163662500Y-125350000D03*
%TD*%
D28*
%TO.C,C15*%
X144200000Y-81050000D03*
X144200000Y-82600000D03*
%TD*%
D29*
%TO.C,C16*%
X142400000Y-81050001D03*
X142400000Y-82949999D03*
%TD*%
D30*
%TO.C,C11*%
X152948008Y-87351992D03*
X151851992Y-88448008D03*
%TD*%
%TO.C,C10*%
X150748008Y-84451992D03*
X149651992Y-85548008D03*
%TD*%
D31*
%TO.C,LD1*%
X166400000Y-79600000D03*
D32*
X166400000Y-82140000D03*
%TD*%
D33*
%TO.C,U3*%
X152735519Y-95761181D03*
X153089072Y-96114734D03*
X153442625Y-96468287D03*
X153796179Y-96821841D03*
X154149732Y-97175394D03*
X154503286Y-97528948D03*
X154856839Y-97882501D03*
X155210392Y-98236054D03*
X155563946Y-98589608D03*
X155917499Y-98943161D03*
X156271052Y-99296714D03*
X156624606Y-99650268D03*
X156978159Y-100003821D03*
X157331713Y-100357375D03*
X157685266Y-100710928D03*
X158038819Y-101064481D03*
D34*
X160761181Y-101064481D03*
X161114734Y-100710928D03*
X161468287Y-100357375D03*
X161821841Y-100003821D03*
X162175394Y-99650268D03*
X162528948Y-99296714D03*
X162882501Y-98943161D03*
X163236054Y-98589608D03*
X163589608Y-98236054D03*
X163943161Y-97882501D03*
X164296714Y-97528948D03*
X164650268Y-97175394D03*
X165003821Y-96821841D03*
X165357375Y-96468287D03*
X165710928Y-96114734D03*
X166064481Y-95761181D03*
D33*
X166064481Y-93038819D03*
X165710928Y-92685266D03*
X165357375Y-92331713D03*
X165003821Y-91978159D03*
X164650268Y-91624606D03*
X164296714Y-91271052D03*
X163943161Y-90917499D03*
X163589608Y-90563946D03*
X163236054Y-90210392D03*
X162882501Y-89856839D03*
X162528948Y-89503286D03*
X162175394Y-89149732D03*
X161821841Y-88796179D03*
X161468287Y-88442625D03*
X161114734Y-88089072D03*
X160761181Y-87735519D03*
D34*
X158038819Y-87735519D03*
X157685266Y-88089072D03*
X157331713Y-88442625D03*
X156978159Y-88796179D03*
X156624606Y-89149732D03*
X156271052Y-89503286D03*
X155917499Y-89856839D03*
X155563946Y-90210392D03*
X155210392Y-90563946D03*
X154856839Y-90917499D03*
X154503286Y-91271052D03*
X154149732Y-91624606D03*
X153796179Y-91978159D03*
X153442625Y-92331713D03*
X153089072Y-92685266D03*
X152735519Y-93038819D03*
%TD*%
D16*
%TO.C,TP2*%
X164800000Y-87500000D03*
%TD*%
%TO.C,TP1*%
X163400000Y-85700000D03*
%TD*%
D35*
%TO.C,FB1*%
X150548008Y-89348008D03*
X149451992Y-88251992D03*
%TD*%
D19*
%TO.C,R18*%
X149000000Y-77950000D03*
X149000000Y-79600000D03*
%TD*%
D28*
%TO.C,C14*%
X149000000Y-81025000D03*
X149000000Y-82575000D03*
%TD*%
D36*
%TO.C,J2*%
X161400000Y-109650000D03*
X161400000Y-111150000D03*
X161400000Y-112650000D03*
D37*
X165100000Y-107700000D03*
X165100000Y-114600000D03*
%TD*%
M02*
