%TF.GenerationSoftware,KiCad,Pcbnew,9.0.0-1.fc40*%
%TF.CreationDate,2025-03-21T22:07:14+01:00*%
%TF.ProjectId,airMouse-mcu,6169724d-6f75-4736-952d-6d63752e6b69,v1.0*%
%TF.SameCoordinates,Original*%
%TF.FileFunction,Legend,Top*%
%TF.FilePolarity,Positive*%
%FSLAX46Y46*%
G04 Gerber Fmt 4.6, Leading zero omitted, Abs format (unit mm)*
G04 Created by KiCad (PCBNEW 9.0.0-1.fc40) date 2025-03-21 22:07:14*
%MOMM*%
%LPD*%
G01*
G04 APERTURE LIST*
%ADD10C,0.100000*%
%ADD11C,0.200000*%
%ADD12C,0.150000*%
%ADD13C,0.120000*%
G04 APERTURE END LIST*
D10*
X133533609Y-116585714D02*
X133581228Y-116442857D01*
X133581228Y-116442857D02*
X133628847Y-116395238D01*
X133628847Y-116395238D02*
X133724085Y-116347619D01*
X133724085Y-116347619D02*
X133866942Y-116347619D01*
X133866942Y-116347619D02*
X133962180Y-116395238D01*
X133962180Y-116395238D02*
X134009800Y-116442857D01*
X134009800Y-116442857D02*
X134057419Y-116538095D01*
X134057419Y-116538095D02*
X134057419Y-116919047D01*
X134057419Y-116919047D02*
X133057419Y-116919047D01*
X133057419Y-116919047D02*
X133057419Y-116585714D01*
X133057419Y-116585714D02*
X133105038Y-116490476D01*
X133105038Y-116490476D02*
X133152657Y-116442857D01*
X133152657Y-116442857D02*
X133247895Y-116395238D01*
X133247895Y-116395238D02*
X133343133Y-116395238D01*
X133343133Y-116395238D02*
X133438371Y-116442857D01*
X133438371Y-116442857D02*
X133485990Y-116490476D01*
X133485990Y-116490476D02*
X133533609Y-116585714D01*
X133533609Y-116585714D02*
X133533609Y-116919047D01*
X133057419Y-116061904D02*
X133057419Y-115490476D01*
X134057419Y-115776190D02*
X133057419Y-115776190D01*
X134057419Y-114633333D02*
X134057419Y-115204761D01*
X134057419Y-114919047D02*
X133057419Y-114919047D01*
X133057419Y-114919047D02*
X133200276Y-115014285D01*
X133200276Y-115014285D02*
X133295514Y-115109523D01*
X133295514Y-115109523D02*
X133343133Y-115204761D01*
X137828295Y-95050001D02*
X137828295Y-95383334D01*
X137542580Y-94983334D02*
X138542580Y-95216668D01*
X138542580Y-95216668D02*
X137542580Y-95450001D01*
X137828295Y-95650001D02*
X137828295Y-95983334D01*
X137542580Y-95583334D02*
X138542580Y-95816668D01*
X138542580Y-95816668D02*
X137542580Y-96050001D01*
X137828295Y-96250001D02*
X137828295Y-96583334D01*
X137542580Y-96183334D02*
X138542580Y-96416668D01*
X138542580Y-96416668D02*
X137542580Y-96650001D01*
X137542580Y-97416667D02*
X138542580Y-97416667D01*
X138542580Y-97416667D02*
X137542580Y-97816667D01*
X137542580Y-97816667D02*
X138542580Y-97816667D01*
X137542580Y-98150000D02*
X138209247Y-98150000D01*
X138542580Y-98150000D02*
X138494961Y-98116667D01*
X138494961Y-98116667D02*
X138447342Y-98150000D01*
X138447342Y-98150000D02*
X138494961Y-98183334D01*
X138494961Y-98183334D02*
X138542580Y-98150000D01*
X138542580Y-98150000D02*
X138447342Y-98150000D01*
X137923533Y-98483333D02*
X137923533Y-99016667D01*
X137542580Y-99350000D02*
X138542580Y-99350000D01*
X138542580Y-99350000D02*
X137828295Y-99583334D01*
X137828295Y-99583334D02*
X138542580Y-99816667D01*
X138542580Y-99816667D02*
X137542580Y-99816667D01*
X137542580Y-100150000D02*
X138542580Y-100150000D01*
X138066390Y-100150000D02*
X138066390Y-100550000D01*
X137542580Y-100550000D02*
X138542580Y-100550000D01*
X138590200Y-101916666D02*
X137304485Y-101316666D01*
X138542580Y-102616666D02*
X138542580Y-103083332D01*
X138542580Y-103083332D02*
X137542580Y-102616666D01*
X137542580Y-102616666D02*
X137542580Y-103083332D01*
X138209247Y-103349999D02*
X137542580Y-103349999D01*
X138114009Y-103349999D02*
X138161628Y-103383333D01*
X138161628Y-103383333D02*
X138209247Y-103449999D01*
X138209247Y-103449999D02*
X138209247Y-103549999D01*
X138209247Y-103549999D02*
X138161628Y-103616666D01*
X138161628Y-103616666D02*
X138066390Y-103649999D01*
X138066390Y-103649999D02*
X137542580Y-103649999D01*
X137923533Y-103983332D02*
X137923533Y-104516666D01*
X137637819Y-105249999D02*
X137590200Y-105216666D01*
X137590200Y-105216666D02*
X137542580Y-105116666D01*
X137542580Y-105116666D02*
X137542580Y-105049999D01*
X137542580Y-105049999D02*
X137590200Y-104949999D01*
X137590200Y-104949999D02*
X137685438Y-104883333D01*
X137685438Y-104883333D02*
X137780676Y-104849999D01*
X137780676Y-104849999D02*
X137971152Y-104816666D01*
X137971152Y-104816666D02*
X138114009Y-104816666D01*
X138114009Y-104816666D02*
X138304485Y-104849999D01*
X138304485Y-104849999D02*
X138399723Y-104883333D01*
X138399723Y-104883333D02*
X138494961Y-104949999D01*
X138494961Y-104949999D02*
X138542580Y-105049999D01*
X138542580Y-105049999D02*
X138542580Y-105116666D01*
X138542580Y-105116666D02*
X138494961Y-105216666D01*
X138494961Y-105216666D02*
X138447342Y-105249999D01*
X138590200Y-106583332D02*
X137304485Y-105983332D01*
X137828295Y-107316665D02*
X137828295Y-107649998D01*
X137542580Y-107249998D02*
X138542580Y-107483332D01*
X138542580Y-107483332D02*
X137542580Y-107716665D01*
X137542580Y-108049998D02*
X137590200Y-107983332D01*
X137590200Y-107983332D02*
X137685438Y-107949998D01*
X137685438Y-107949998D02*
X138542580Y-107949998D01*
X137542580Y-108316665D02*
X138542580Y-108316665D01*
X137923533Y-108383332D02*
X137542580Y-108583332D01*
X138209247Y-108583332D02*
X137828295Y-108316665D01*
X137542580Y-109183332D02*
X138066390Y-109183332D01*
X138066390Y-109183332D02*
X138161628Y-109149999D01*
X138161628Y-109149999D02*
X138209247Y-109083332D01*
X138209247Y-109083332D02*
X138209247Y-108949999D01*
X138209247Y-108949999D02*
X138161628Y-108883332D01*
X137590200Y-109183332D02*
X137542580Y-109116666D01*
X137542580Y-109116666D02*
X137542580Y-108949999D01*
X137542580Y-108949999D02*
X137590200Y-108883332D01*
X137590200Y-108883332D02*
X137685438Y-108849999D01*
X137685438Y-108849999D02*
X137780676Y-108849999D01*
X137780676Y-108849999D02*
X137875914Y-108883332D01*
X137875914Y-108883332D02*
X137923533Y-108949999D01*
X137923533Y-108949999D02*
X137923533Y-109116666D01*
X137923533Y-109116666D02*
X137971152Y-109183332D01*
X137542580Y-109616665D02*
X137590200Y-109549999D01*
X137590200Y-109549999D02*
X137685438Y-109516665D01*
X137685438Y-109516665D02*
X138542580Y-109516665D01*
X137542580Y-109883332D02*
X138209247Y-109883332D01*
X138542580Y-109883332D02*
X138494961Y-109849999D01*
X138494961Y-109849999D02*
X138447342Y-109883332D01*
X138447342Y-109883332D02*
X138494961Y-109916666D01*
X138494961Y-109916666D02*
X138542580Y-109883332D01*
X138542580Y-109883332D02*
X138447342Y-109883332D01*
X138209247Y-110216665D02*
X137542580Y-110216665D01*
X138114009Y-110216665D02*
X138161628Y-110249999D01*
X138161628Y-110249999D02*
X138209247Y-110316665D01*
X138209247Y-110316665D02*
X138209247Y-110416665D01*
X138209247Y-110416665D02*
X138161628Y-110483332D01*
X138161628Y-110483332D02*
X138066390Y-110516665D01*
X138066390Y-110516665D02*
X137542580Y-110516665D01*
X137590200Y-111116665D02*
X137542580Y-111049998D01*
X137542580Y-111049998D02*
X137542580Y-110916665D01*
X137542580Y-110916665D02*
X137590200Y-110849998D01*
X137590200Y-110849998D02*
X137685438Y-110816665D01*
X137685438Y-110816665D02*
X138066390Y-110816665D01*
X138066390Y-110816665D02*
X138161628Y-110849998D01*
X138161628Y-110849998D02*
X138209247Y-110916665D01*
X138209247Y-110916665D02*
X138209247Y-111049998D01*
X138209247Y-111049998D02*
X138161628Y-111116665D01*
X138161628Y-111116665D02*
X138066390Y-111149998D01*
X138066390Y-111149998D02*
X137971152Y-111149998D01*
X137971152Y-111149998D02*
X137875914Y-110816665D01*
D11*
X137847066Y-113838095D02*
X137847066Y-115361905D01*
X137847066Y-90838095D02*
X137847066Y-92361905D01*
X137085161Y-91600000D02*
X138608971Y-91600000D01*
D12*
X148438095Y-91054819D02*
X148438095Y-91864342D01*
X148438095Y-91864342D02*
X148485714Y-91959580D01*
X148485714Y-91959580D02*
X148533333Y-92007200D01*
X148533333Y-92007200D02*
X148628571Y-92054819D01*
X148628571Y-92054819D02*
X148819047Y-92054819D01*
X148819047Y-92054819D02*
X148914285Y-92007200D01*
X148914285Y-92007200D02*
X148961904Y-91959580D01*
X148961904Y-91959580D02*
X149009523Y-91864342D01*
X149009523Y-91864342D02*
X149009523Y-91054819D01*
X149961904Y-91054819D02*
X149485714Y-91054819D01*
X149485714Y-91054819D02*
X149438095Y-91531009D01*
X149438095Y-91531009D02*
X149485714Y-91483390D01*
X149485714Y-91483390D02*
X149580952Y-91435771D01*
X149580952Y-91435771D02*
X149819047Y-91435771D01*
X149819047Y-91435771D02*
X149914285Y-91483390D01*
X149914285Y-91483390D02*
X149961904Y-91531009D01*
X149961904Y-91531009D02*
X150009523Y-91626247D01*
X150009523Y-91626247D02*
X150009523Y-91864342D01*
X150009523Y-91864342D02*
X149961904Y-91959580D01*
X149961904Y-91959580D02*
X149914285Y-92007200D01*
X149914285Y-92007200D02*
X149819047Y-92054819D01*
X149819047Y-92054819D02*
X149580952Y-92054819D01*
X149580952Y-92054819D02*
X149485714Y-92007200D01*
X149485714Y-92007200D02*
X149438095Y-91959580D01*
X142533333Y-107159580D02*
X142485714Y-107207200D01*
X142485714Y-107207200D02*
X142342857Y-107254819D01*
X142342857Y-107254819D02*
X142247619Y-107254819D01*
X142247619Y-107254819D02*
X142104762Y-107207200D01*
X142104762Y-107207200D02*
X142009524Y-107111961D01*
X142009524Y-107111961D02*
X141961905Y-107016723D01*
X141961905Y-107016723D02*
X141914286Y-106826247D01*
X141914286Y-106826247D02*
X141914286Y-106683390D01*
X141914286Y-106683390D02*
X141961905Y-106492914D01*
X141961905Y-106492914D02*
X142009524Y-106397676D01*
X142009524Y-106397676D02*
X142104762Y-106302438D01*
X142104762Y-106302438D02*
X142247619Y-106254819D01*
X142247619Y-106254819D02*
X142342857Y-106254819D01*
X142342857Y-106254819D02*
X142485714Y-106302438D01*
X142485714Y-106302438D02*
X142533333Y-106350057D01*
X142866667Y-106254819D02*
X143533333Y-106254819D01*
X143533333Y-106254819D02*
X143104762Y-107254819D01*
X138357142Y-78454819D02*
X138023809Y-77978628D01*
X137785714Y-78454819D02*
X137785714Y-77454819D01*
X137785714Y-77454819D02*
X138166666Y-77454819D01*
X138166666Y-77454819D02*
X138261904Y-77502438D01*
X138261904Y-77502438D02*
X138309523Y-77550057D01*
X138309523Y-77550057D02*
X138357142Y-77645295D01*
X138357142Y-77645295D02*
X138357142Y-77788152D01*
X138357142Y-77788152D02*
X138309523Y-77883390D01*
X138309523Y-77883390D02*
X138261904Y-77931009D01*
X138261904Y-77931009D02*
X138166666Y-77978628D01*
X138166666Y-77978628D02*
X137785714Y-77978628D01*
X139261904Y-77454819D02*
X138785714Y-77454819D01*
X138785714Y-77454819D02*
X138738095Y-77931009D01*
X138738095Y-77931009D02*
X138785714Y-77883390D01*
X138785714Y-77883390D02*
X138880952Y-77835771D01*
X138880952Y-77835771D02*
X139119047Y-77835771D01*
X139119047Y-77835771D02*
X139214285Y-77883390D01*
X139214285Y-77883390D02*
X139261904Y-77931009D01*
X139261904Y-77931009D02*
X139309523Y-78026247D01*
X139309523Y-78026247D02*
X139309523Y-78264342D01*
X139309523Y-78264342D02*
X139261904Y-78359580D01*
X139261904Y-78359580D02*
X139214285Y-78407200D01*
X139214285Y-78407200D02*
X139119047Y-78454819D01*
X139119047Y-78454819D02*
X138880952Y-78454819D01*
X138880952Y-78454819D02*
X138785714Y-78407200D01*
X138785714Y-78407200D02*
X138738095Y-78359580D01*
X140214285Y-77454819D02*
X139738095Y-77454819D01*
X139738095Y-77454819D02*
X139690476Y-77931009D01*
X139690476Y-77931009D02*
X139738095Y-77883390D01*
X139738095Y-77883390D02*
X139833333Y-77835771D01*
X139833333Y-77835771D02*
X140071428Y-77835771D01*
X140071428Y-77835771D02*
X140166666Y-77883390D01*
X140166666Y-77883390D02*
X140214285Y-77931009D01*
X140214285Y-77931009D02*
X140261904Y-78026247D01*
X140261904Y-78026247D02*
X140261904Y-78264342D01*
X140261904Y-78264342D02*
X140214285Y-78359580D01*
X140214285Y-78359580D02*
X140166666Y-78407200D01*
X140166666Y-78407200D02*
X140071428Y-78454819D01*
X140071428Y-78454819D02*
X139833333Y-78454819D01*
X139833333Y-78454819D02*
X139738095Y-78407200D01*
X139738095Y-78407200D02*
X139690476Y-78359580D01*
X141245833Y-98383418D02*
X140769643Y-98383418D01*
X140769643Y-98383418D02*
X140769643Y-97383418D01*
X142102976Y-98383418D02*
X141531548Y-98383418D01*
X141817262Y-98383418D02*
X141817262Y-97383418D01*
X141817262Y-97383418D02*
X141722024Y-97526275D01*
X141722024Y-97526275D02*
X141626786Y-97621513D01*
X141626786Y-97621513D02*
X141531548Y-97669132D01*
X144020833Y-92509580D02*
X143973214Y-92557200D01*
X143973214Y-92557200D02*
X143830357Y-92604819D01*
X143830357Y-92604819D02*
X143735119Y-92604819D01*
X143735119Y-92604819D02*
X143592262Y-92557200D01*
X143592262Y-92557200D02*
X143497024Y-92461961D01*
X143497024Y-92461961D02*
X143449405Y-92366723D01*
X143449405Y-92366723D02*
X143401786Y-92176247D01*
X143401786Y-92176247D02*
X143401786Y-92033390D01*
X143401786Y-92033390D02*
X143449405Y-91842914D01*
X143449405Y-91842914D02*
X143497024Y-91747676D01*
X143497024Y-91747676D02*
X143592262Y-91652438D01*
X143592262Y-91652438D02*
X143735119Y-91604819D01*
X143735119Y-91604819D02*
X143830357Y-91604819D01*
X143830357Y-91604819D02*
X143973214Y-91652438D01*
X143973214Y-91652438D02*
X144020833Y-91700057D01*
X144973214Y-92604819D02*
X144401786Y-92604819D01*
X144687500Y-92604819D02*
X144687500Y-91604819D01*
X144687500Y-91604819D02*
X144592262Y-91747676D01*
X144592262Y-91747676D02*
X144497024Y-91842914D01*
X144497024Y-91842914D02*
X144401786Y-91890533D01*
X167254819Y-100242857D02*
X166778628Y-100576190D01*
X167254819Y-100814285D02*
X166254819Y-100814285D01*
X166254819Y-100814285D02*
X166254819Y-100433333D01*
X166254819Y-100433333D02*
X166302438Y-100338095D01*
X166302438Y-100338095D02*
X166350057Y-100290476D01*
X166350057Y-100290476D02*
X166445295Y-100242857D01*
X166445295Y-100242857D02*
X166588152Y-100242857D01*
X166588152Y-100242857D02*
X166683390Y-100290476D01*
X166683390Y-100290476D02*
X166731009Y-100338095D01*
X166731009Y-100338095D02*
X166778628Y-100433333D01*
X166778628Y-100433333D02*
X166778628Y-100814285D01*
X167254819Y-99290476D02*
X167254819Y-99861904D01*
X167254819Y-99576190D02*
X166254819Y-99576190D01*
X166254819Y-99576190D02*
X166397676Y-99671428D01*
X166397676Y-99671428D02*
X166492914Y-99766666D01*
X166492914Y-99766666D02*
X166540533Y-99861904D01*
X166254819Y-98385714D02*
X166254819Y-98861904D01*
X166254819Y-98861904D02*
X166731009Y-98909523D01*
X166731009Y-98909523D02*
X166683390Y-98861904D01*
X166683390Y-98861904D02*
X166635771Y-98766666D01*
X166635771Y-98766666D02*
X166635771Y-98528571D01*
X166635771Y-98528571D02*
X166683390Y-98433333D01*
X166683390Y-98433333D02*
X166731009Y-98385714D01*
X166731009Y-98385714D02*
X166826247Y-98338095D01*
X166826247Y-98338095D02*
X167064342Y-98338095D01*
X167064342Y-98338095D02*
X167159580Y-98385714D01*
X167159580Y-98385714D02*
X167207200Y-98433333D01*
X167207200Y-98433333D02*
X167254819Y-98528571D01*
X167254819Y-98528571D02*
X167254819Y-98766666D01*
X167254819Y-98766666D02*
X167207200Y-98861904D01*
X167207200Y-98861904D02*
X167159580Y-98909523D01*
X143995833Y-94109580D02*
X143948214Y-94157200D01*
X143948214Y-94157200D02*
X143805357Y-94204819D01*
X143805357Y-94204819D02*
X143710119Y-94204819D01*
X143710119Y-94204819D02*
X143567262Y-94157200D01*
X143567262Y-94157200D02*
X143472024Y-94061961D01*
X143472024Y-94061961D02*
X143424405Y-93966723D01*
X143424405Y-93966723D02*
X143376786Y-93776247D01*
X143376786Y-93776247D02*
X143376786Y-93633390D01*
X143376786Y-93633390D02*
X143424405Y-93442914D01*
X143424405Y-93442914D02*
X143472024Y-93347676D01*
X143472024Y-93347676D02*
X143567262Y-93252438D01*
X143567262Y-93252438D02*
X143710119Y-93204819D01*
X143710119Y-93204819D02*
X143805357Y-93204819D01*
X143805357Y-93204819D02*
X143948214Y-93252438D01*
X143948214Y-93252438D02*
X143995833Y-93300057D01*
X144329167Y-93204819D02*
X144948214Y-93204819D01*
X144948214Y-93204819D02*
X144614881Y-93585771D01*
X144614881Y-93585771D02*
X144757738Y-93585771D01*
X144757738Y-93585771D02*
X144852976Y-93633390D01*
X144852976Y-93633390D02*
X144900595Y-93681009D01*
X144900595Y-93681009D02*
X144948214Y-93776247D01*
X144948214Y-93776247D02*
X144948214Y-94014342D01*
X144948214Y-94014342D02*
X144900595Y-94109580D01*
X144900595Y-94109580D02*
X144852976Y-94157200D01*
X144852976Y-94157200D02*
X144757738Y-94204819D01*
X144757738Y-94204819D02*
X144472024Y-94204819D01*
X144472024Y-94204819D02*
X144376786Y-94157200D01*
X144376786Y-94157200D02*
X144329167Y-94109580D01*
X157157142Y-96889580D02*
X157109523Y-96937200D01*
X157109523Y-96937200D02*
X156966666Y-96984819D01*
X156966666Y-96984819D02*
X156871428Y-96984819D01*
X156871428Y-96984819D02*
X156728571Y-96937200D01*
X156728571Y-96937200D02*
X156633333Y-96841961D01*
X156633333Y-96841961D02*
X156585714Y-96746723D01*
X156585714Y-96746723D02*
X156538095Y-96556247D01*
X156538095Y-96556247D02*
X156538095Y-96413390D01*
X156538095Y-96413390D02*
X156585714Y-96222914D01*
X156585714Y-96222914D02*
X156633333Y-96127676D01*
X156633333Y-96127676D02*
X156728571Y-96032438D01*
X156728571Y-96032438D02*
X156871428Y-95984819D01*
X156871428Y-95984819D02*
X156966666Y-95984819D01*
X156966666Y-95984819D02*
X157109523Y-96032438D01*
X157109523Y-96032438D02*
X157157142Y-96080057D01*
X158109523Y-96984819D02*
X157538095Y-96984819D01*
X157823809Y-96984819D02*
X157823809Y-95984819D01*
X157823809Y-95984819D02*
X157728571Y-96127676D01*
X157728571Y-96127676D02*
X157633333Y-96222914D01*
X157633333Y-96222914D02*
X157538095Y-96270533D01*
X158442857Y-95984819D02*
X159061904Y-95984819D01*
X159061904Y-95984819D02*
X158728571Y-96365771D01*
X158728571Y-96365771D02*
X158871428Y-96365771D01*
X158871428Y-96365771D02*
X158966666Y-96413390D01*
X158966666Y-96413390D02*
X159014285Y-96461009D01*
X159014285Y-96461009D02*
X159061904Y-96556247D01*
X159061904Y-96556247D02*
X159061904Y-96794342D01*
X159061904Y-96794342D02*
X159014285Y-96889580D01*
X159014285Y-96889580D02*
X158966666Y-96937200D01*
X158966666Y-96937200D02*
X158871428Y-96984819D01*
X158871428Y-96984819D02*
X158585714Y-96984819D01*
X158585714Y-96984819D02*
X158490476Y-96937200D01*
X158490476Y-96937200D02*
X158442857Y-96889580D01*
D10*
X166816666Y-118244919D02*
X166816666Y-118959204D01*
X166816666Y-118959204D02*
X166769047Y-119102061D01*
X166769047Y-119102061D02*
X166673809Y-119197300D01*
X166673809Y-119197300D02*
X166530952Y-119244919D01*
X166530952Y-119244919D02*
X166435714Y-119244919D01*
X167721428Y-118578252D02*
X167721428Y-119244919D01*
X167483333Y-118197300D02*
X167245238Y-118911585D01*
X167245238Y-118911585D02*
X167864285Y-118911585D01*
D12*
X150117261Y-93350057D02*
X150022023Y-93302438D01*
X150022023Y-93302438D02*
X149926785Y-93207200D01*
X149926785Y-93207200D02*
X149783928Y-93064342D01*
X149783928Y-93064342D02*
X149688690Y-93016723D01*
X149688690Y-93016723D02*
X149593452Y-93016723D01*
X149641071Y-93254819D02*
X149545833Y-93207200D01*
X149545833Y-93207200D02*
X149450595Y-93111961D01*
X149450595Y-93111961D02*
X149402976Y-92921485D01*
X149402976Y-92921485D02*
X149402976Y-92588152D01*
X149402976Y-92588152D02*
X149450595Y-92397676D01*
X149450595Y-92397676D02*
X149545833Y-92302438D01*
X149545833Y-92302438D02*
X149641071Y-92254819D01*
X149641071Y-92254819D02*
X149831547Y-92254819D01*
X149831547Y-92254819D02*
X149926785Y-92302438D01*
X149926785Y-92302438D02*
X150022023Y-92397676D01*
X150022023Y-92397676D02*
X150069642Y-92588152D01*
X150069642Y-92588152D02*
X150069642Y-92921485D01*
X150069642Y-92921485D02*
X150022023Y-93111961D01*
X150022023Y-93111961D02*
X149926785Y-93207200D01*
X149926785Y-93207200D02*
X149831547Y-93254819D01*
X149831547Y-93254819D02*
X149641071Y-93254819D01*
X151022023Y-93254819D02*
X150450595Y-93254819D01*
X150736309Y-93254819D02*
X150736309Y-92254819D01*
X150736309Y-92254819D02*
X150641071Y-92397676D01*
X150641071Y-92397676D02*
X150545833Y-92492914D01*
X150545833Y-92492914D02*
X150450595Y-92540533D01*
X165554819Y-100242857D02*
X165078628Y-100576190D01*
X165554819Y-100814285D02*
X164554819Y-100814285D01*
X164554819Y-100814285D02*
X164554819Y-100433333D01*
X164554819Y-100433333D02*
X164602438Y-100338095D01*
X164602438Y-100338095D02*
X164650057Y-100290476D01*
X164650057Y-100290476D02*
X164745295Y-100242857D01*
X164745295Y-100242857D02*
X164888152Y-100242857D01*
X164888152Y-100242857D02*
X164983390Y-100290476D01*
X164983390Y-100290476D02*
X165031009Y-100338095D01*
X165031009Y-100338095D02*
X165078628Y-100433333D01*
X165078628Y-100433333D02*
X165078628Y-100814285D01*
X165554819Y-99290476D02*
X165554819Y-99861904D01*
X165554819Y-99576190D02*
X164554819Y-99576190D01*
X164554819Y-99576190D02*
X164697676Y-99671428D01*
X164697676Y-99671428D02*
X164792914Y-99766666D01*
X164792914Y-99766666D02*
X164840533Y-99861904D01*
X164554819Y-98433333D02*
X164554819Y-98623809D01*
X164554819Y-98623809D02*
X164602438Y-98719047D01*
X164602438Y-98719047D02*
X164650057Y-98766666D01*
X164650057Y-98766666D02*
X164792914Y-98861904D01*
X164792914Y-98861904D02*
X164983390Y-98909523D01*
X164983390Y-98909523D02*
X165364342Y-98909523D01*
X165364342Y-98909523D02*
X165459580Y-98861904D01*
X165459580Y-98861904D02*
X165507200Y-98814285D01*
X165507200Y-98814285D02*
X165554819Y-98719047D01*
X165554819Y-98719047D02*
X165554819Y-98528571D01*
X165554819Y-98528571D02*
X165507200Y-98433333D01*
X165507200Y-98433333D02*
X165459580Y-98385714D01*
X165459580Y-98385714D02*
X165364342Y-98338095D01*
X165364342Y-98338095D02*
X165126247Y-98338095D01*
X165126247Y-98338095D02*
X165031009Y-98385714D01*
X165031009Y-98385714D02*
X164983390Y-98433333D01*
X164983390Y-98433333D02*
X164935771Y-98528571D01*
X164935771Y-98528571D02*
X164935771Y-98719047D01*
X164935771Y-98719047D02*
X164983390Y-98814285D01*
X164983390Y-98814285D02*
X165031009Y-98861904D01*
X165031009Y-98861904D02*
X165126247Y-98909523D01*
X163954819Y-100242857D02*
X163478628Y-100576190D01*
X163954819Y-100814285D02*
X162954819Y-100814285D01*
X162954819Y-100814285D02*
X162954819Y-100433333D01*
X162954819Y-100433333D02*
X163002438Y-100338095D01*
X163002438Y-100338095D02*
X163050057Y-100290476D01*
X163050057Y-100290476D02*
X163145295Y-100242857D01*
X163145295Y-100242857D02*
X163288152Y-100242857D01*
X163288152Y-100242857D02*
X163383390Y-100290476D01*
X163383390Y-100290476D02*
X163431009Y-100338095D01*
X163431009Y-100338095D02*
X163478628Y-100433333D01*
X163478628Y-100433333D02*
X163478628Y-100814285D01*
X163954819Y-99290476D02*
X163954819Y-99861904D01*
X163954819Y-99576190D02*
X162954819Y-99576190D01*
X162954819Y-99576190D02*
X163097676Y-99671428D01*
X163097676Y-99671428D02*
X163192914Y-99766666D01*
X163192914Y-99766666D02*
X163240533Y-99861904D01*
X163288152Y-98433333D02*
X163954819Y-98433333D01*
X162907200Y-98671428D02*
X163621485Y-98909523D01*
X163621485Y-98909523D02*
X163621485Y-98290476D01*
X151167319Y-100938094D02*
X150167319Y-100938094D01*
X150167319Y-100938094D02*
X150167319Y-100699999D01*
X150167319Y-100699999D02*
X150214938Y-100557142D01*
X150214938Y-100557142D02*
X150310176Y-100461904D01*
X150310176Y-100461904D02*
X150405414Y-100414285D01*
X150405414Y-100414285D02*
X150595890Y-100366666D01*
X150595890Y-100366666D02*
X150738747Y-100366666D01*
X150738747Y-100366666D02*
X150929223Y-100414285D01*
X150929223Y-100414285D02*
X151024461Y-100461904D01*
X151024461Y-100461904D02*
X151119700Y-100557142D01*
X151119700Y-100557142D02*
X151167319Y-100699999D01*
X151167319Y-100699999D02*
X151167319Y-100938094D01*
X151167319Y-99414285D02*
X151167319Y-99985713D01*
X151167319Y-99699999D02*
X150167319Y-99699999D01*
X150167319Y-99699999D02*
X150310176Y-99795237D01*
X150310176Y-99795237D02*
X150405414Y-99890475D01*
X150405414Y-99890475D02*
X150453033Y-99985713D01*
X157157142Y-92654819D02*
X156823809Y-92178628D01*
X156585714Y-92654819D02*
X156585714Y-91654819D01*
X156585714Y-91654819D02*
X156966666Y-91654819D01*
X156966666Y-91654819D02*
X157061904Y-91702438D01*
X157061904Y-91702438D02*
X157109523Y-91750057D01*
X157109523Y-91750057D02*
X157157142Y-91845295D01*
X157157142Y-91845295D02*
X157157142Y-91988152D01*
X157157142Y-91988152D02*
X157109523Y-92083390D01*
X157109523Y-92083390D02*
X157061904Y-92131009D01*
X157061904Y-92131009D02*
X156966666Y-92178628D01*
X156966666Y-92178628D02*
X156585714Y-92178628D01*
X158109523Y-92654819D02*
X157538095Y-92654819D01*
X157823809Y-92654819D02*
X157823809Y-91654819D01*
X157823809Y-91654819D02*
X157728571Y-91797676D01*
X157728571Y-91797676D02*
X157633333Y-91892914D01*
X157633333Y-91892914D02*
X157538095Y-91940533D01*
X158728571Y-91654819D02*
X158823809Y-91654819D01*
X158823809Y-91654819D02*
X158919047Y-91702438D01*
X158919047Y-91702438D02*
X158966666Y-91750057D01*
X158966666Y-91750057D02*
X159014285Y-91845295D01*
X159014285Y-91845295D02*
X159061904Y-92035771D01*
X159061904Y-92035771D02*
X159061904Y-92273866D01*
X159061904Y-92273866D02*
X159014285Y-92464342D01*
X159014285Y-92464342D02*
X158966666Y-92559580D01*
X158966666Y-92559580D02*
X158919047Y-92607200D01*
X158919047Y-92607200D02*
X158823809Y-92654819D01*
X158823809Y-92654819D02*
X158728571Y-92654819D01*
X158728571Y-92654819D02*
X158633333Y-92607200D01*
X158633333Y-92607200D02*
X158585714Y-92559580D01*
X158585714Y-92559580D02*
X158538095Y-92464342D01*
X158538095Y-92464342D02*
X158490476Y-92273866D01*
X158490476Y-92273866D02*
X158490476Y-92035771D01*
X158490476Y-92035771D02*
X158538095Y-91845295D01*
X158538095Y-91845295D02*
X158585714Y-91750057D01*
X158585714Y-91750057D02*
X158633333Y-91702438D01*
X158633333Y-91702438D02*
X158728571Y-91654819D01*
X142604819Y-104561904D02*
X143414342Y-104561904D01*
X143414342Y-104561904D02*
X143509580Y-104514285D01*
X143509580Y-104514285D02*
X143557200Y-104466666D01*
X143557200Y-104466666D02*
X143604819Y-104371428D01*
X143604819Y-104371428D02*
X143604819Y-104180952D01*
X143604819Y-104180952D02*
X143557200Y-104085714D01*
X143557200Y-104085714D02*
X143509580Y-104038095D01*
X143509580Y-104038095D02*
X143414342Y-103990476D01*
X143414342Y-103990476D02*
X142604819Y-103990476D01*
X142700057Y-103561904D02*
X142652438Y-103514285D01*
X142652438Y-103514285D02*
X142604819Y-103419047D01*
X142604819Y-103419047D02*
X142604819Y-103180952D01*
X142604819Y-103180952D02*
X142652438Y-103085714D01*
X142652438Y-103085714D02*
X142700057Y-103038095D01*
X142700057Y-103038095D02*
X142795295Y-102990476D01*
X142795295Y-102990476D02*
X142890533Y-102990476D01*
X142890533Y-102990476D02*
X143033390Y-103038095D01*
X143033390Y-103038095D02*
X143604819Y-103609523D01*
X143604819Y-103609523D02*
X143604819Y-102990476D01*
X149167319Y-108816666D02*
X148691128Y-109149999D01*
X149167319Y-109388094D02*
X148167319Y-109388094D01*
X148167319Y-109388094D02*
X148167319Y-109007142D01*
X148167319Y-109007142D02*
X148214938Y-108911904D01*
X148214938Y-108911904D02*
X148262557Y-108864285D01*
X148262557Y-108864285D02*
X148357795Y-108816666D01*
X148357795Y-108816666D02*
X148500652Y-108816666D01*
X148500652Y-108816666D02*
X148595890Y-108864285D01*
X148595890Y-108864285D02*
X148643509Y-108911904D01*
X148643509Y-108911904D02*
X148691128Y-109007142D01*
X148691128Y-109007142D02*
X148691128Y-109388094D01*
X148167319Y-107911904D02*
X148167319Y-108388094D01*
X148167319Y-108388094D02*
X148643509Y-108435713D01*
X148643509Y-108435713D02*
X148595890Y-108388094D01*
X148595890Y-108388094D02*
X148548271Y-108292856D01*
X148548271Y-108292856D02*
X148548271Y-108054761D01*
X148548271Y-108054761D02*
X148595890Y-107959523D01*
X148595890Y-107959523D02*
X148643509Y-107911904D01*
X148643509Y-107911904D02*
X148738747Y-107864285D01*
X148738747Y-107864285D02*
X148976842Y-107864285D01*
X148976842Y-107864285D02*
X149072080Y-107911904D01*
X149072080Y-107911904D02*
X149119700Y-107959523D01*
X149119700Y-107959523D02*
X149167319Y-108054761D01*
X149167319Y-108054761D02*
X149167319Y-108292856D01*
X149167319Y-108292856D02*
X149119700Y-108388094D01*
X149119700Y-108388094D02*
X149072080Y-108435713D01*
X149167319Y-99416666D02*
X148691128Y-99749999D01*
X149167319Y-99988094D02*
X148167319Y-99988094D01*
X148167319Y-99988094D02*
X148167319Y-99607142D01*
X148167319Y-99607142D02*
X148214938Y-99511904D01*
X148214938Y-99511904D02*
X148262557Y-99464285D01*
X148262557Y-99464285D02*
X148357795Y-99416666D01*
X148357795Y-99416666D02*
X148500652Y-99416666D01*
X148500652Y-99416666D02*
X148595890Y-99464285D01*
X148595890Y-99464285D02*
X148643509Y-99511904D01*
X148643509Y-99511904D02*
X148691128Y-99607142D01*
X148691128Y-99607142D02*
X148691128Y-99988094D01*
X148167319Y-98559523D02*
X148167319Y-98749999D01*
X148167319Y-98749999D02*
X148214938Y-98845237D01*
X148214938Y-98845237D02*
X148262557Y-98892856D01*
X148262557Y-98892856D02*
X148405414Y-98988094D01*
X148405414Y-98988094D02*
X148595890Y-99035713D01*
X148595890Y-99035713D02*
X148976842Y-99035713D01*
X148976842Y-99035713D02*
X149072080Y-98988094D01*
X149072080Y-98988094D02*
X149119700Y-98940475D01*
X149119700Y-98940475D02*
X149167319Y-98845237D01*
X149167319Y-98845237D02*
X149167319Y-98654761D01*
X149167319Y-98654761D02*
X149119700Y-98559523D01*
X149119700Y-98559523D02*
X149072080Y-98511904D01*
X149072080Y-98511904D02*
X148976842Y-98464285D01*
X148976842Y-98464285D02*
X148738747Y-98464285D01*
X148738747Y-98464285D02*
X148643509Y-98511904D01*
X148643509Y-98511904D02*
X148595890Y-98559523D01*
X148595890Y-98559523D02*
X148548271Y-98654761D01*
X148548271Y-98654761D02*
X148548271Y-98845237D01*
X148548271Y-98845237D02*
X148595890Y-98940475D01*
X148595890Y-98940475D02*
X148643509Y-98988094D01*
X148643509Y-98988094D02*
X148738747Y-99035713D01*
X166533333Y-78016033D02*
X166199999Y-78016033D01*
X166199999Y-78016033D02*
X166199999Y-77316033D01*
X166766666Y-78016033D02*
X166766666Y-77316033D01*
X166766666Y-77316033D02*
X166933333Y-77316033D01*
X166933333Y-77316033D02*
X167033333Y-77349366D01*
X167033333Y-77349366D02*
X167100000Y-77416033D01*
X167100000Y-77416033D02*
X167133333Y-77482700D01*
X167133333Y-77482700D02*
X167166666Y-77616033D01*
X167166666Y-77616033D02*
X167166666Y-77716033D01*
X167166666Y-77716033D02*
X167133333Y-77849366D01*
X167133333Y-77849366D02*
X167100000Y-77916033D01*
X167100000Y-77916033D02*
X167033333Y-77982700D01*
X167033333Y-77982700D02*
X166933333Y-78016033D01*
X166933333Y-78016033D02*
X166766666Y-78016033D01*
X167833333Y-78016033D02*
X167433333Y-78016033D01*
X167633333Y-78016033D02*
X167633333Y-77316033D01*
X167633333Y-77316033D02*
X167566666Y-77416033D01*
X167566666Y-77416033D02*
X167500000Y-77482700D01*
X167500000Y-77482700D02*
X167433333Y-77516033D01*
X143133333Y-101159580D02*
X143085714Y-101207200D01*
X143085714Y-101207200D02*
X142942857Y-101254819D01*
X142942857Y-101254819D02*
X142847619Y-101254819D01*
X142847619Y-101254819D02*
X142704762Y-101207200D01*
X142704762Y-101207200D02*
X142609524Y-101111961D01*
X142609524Y-101111961D02*
X142561905Y-101016723D01*
X142561905Y-101016723D02*
X142514286Y-100826247D01*
X142514286Y-100826247D02*
X142514286Y-100683390D01*
X142514286Y-100683390D02*
X142561905Y-100492914D01*
X142561905Y-100492914D02*
X142609524Y-100397676D01*
X142609524Y-100397676D02*
X142704762Y-100302438D01*
X142704762Y-100302438D02*
X142847619Y-100254819D01*
X142847619Y-100254819D02*
X142942857Y-100254819D01*
X142942857Y-100254819D02*
X143085714Y-100302438D01*
X143085714Y-100302438D02*
X143133333Y-100350057D01*
X143514286Y-100350057D02*
X143561905Y-100302438D01*
X143561905Y-100302438D02*
X143657143Y-100254819D01*
X143657143Y-100254819D02*
X143895238Y-100254819D01*
X143895238Y-100254819D02*
X143990476Y-100302438D01*
X143990476Y-100302438D02*
X144038095Y-100350057D01*
X144038095Y-100350057D02*
X144085714Y-100445295D01*
X144085714Y-100445295D02*
X144085714Y-100540533D01*
X144085714Y-100540533D02*
X144038095Y-100683390D01*
X144038095Y-100683390D02*
X143466667Y-101254819D01*
X143466667Y-101254819D02*
X144085714Y-101254819D01*
X162514819Y-118101932D02*
X163229104Y-118101932D01*
X163229104Y-118101932D02*
X163371961Y-118149551D01*
X163371961Y-118149551D02*
X163467200Y-118244789D01*
X163467200Y-118244789D02*
X163514819Y-118387646D01*
X163514819Y-118387646D02*
X163514819Y-118482884D01*
X163514819Y-117101932D02*
X163514819Y-117673360D01*
X163514819Y-117387646D02*
X162514819Y-117387646D01*
X162514819Y-117387646D02*
X162657676Y-117482884D01*
X162657676Y-117482884D02*
X162752914Y-117578122D01*
X162752914Y-117578122D02*
X162800533Y-117673360D01*
X142745833Y-108909580D02*
X142698214Y-108957200D01*
X142698214Y-108957200D02*
X142555357Y-109004819D01*
X142555357Y-109004819D02*
X142460119Y-109004819D01*
X142460119Y-109004819D02*
X142317262Y-108957200D01*
X142317262Y-108957200D02*
X142222024Y-108861961D01*
X142222024Y-108861961D02*
X142174405Y-108766723D01*
X142174405Y-108766723D02*
X142126786Y-108576247D01*
X142126786Y-108576247D02*
X142126786Y-108433390D01*
X142126786Y-108433390D02*
X142174405Y-108242914D01*
X142174405Y-108242914D02*
X142222024Y-108147676D01*
X142222024Y-108147676D02*
X142317262Y-108052438D01*
X142317262Y-108052438D02*
X142460119Y-108004819D01*
X142460119Y-108004819D02*
X142555357Y-108004819D01*
X142555357Y-108004819D02*
X142698214Y-108052438D01*
X142698214Y-108052438D02*
X142745833Y-108100057D01*
X143602976Y-108004819D02*
X143412500Y-108004819D01*
X143412500Y-108004819D02*
X143317262Y-108052438D01*
X143317262Y-108052438D02*
X143269643Y-108100057D01*
X143269643Y-108100057D02*
X143174405Y-108242914D01*
X143174405Y-108242914D02*
X143126786Y-108433390D01*
X143126786Y-108433390D02*
X143126786Y-108814342D01*
X143126786Y-108814342D02*
X143174405Y-108909580D01*
X143174405Y-108909580D02*
X143222024Y-108957200D01*
X143222024Y-108957200D02*
X143317262Y-109004819D01*
X143317262Y-109004819D02*
X143507738Y-109004819D01*
X143507738Y-109004819D02*
X143602976Y-108957200D01*
X143602976Y-108957200D02*
X143650595Y-108909580D01*
X143650595Y-108909580D02*
X143698214Y-108814342D01*
X143698214Y-108814342D02*
X143698214Y-108576247D01*
X143698214Y-108576247D02*
X143650595Y-108481009D01*
X143650595Y-108481009D02*
X143602976Y-108433390D01*
X143602976Y-108433390D02*
X143507738Y-108385771D01*
X143507738Y-108385771D02*
X143317262Y-108385771D01*
X143317262Y-108385771D02*
X143222024Y-108433390D01*
X143222024Y-108433390D02*
X143174405Y-108481009D01*
X143174405Y-108481009D02*
X143126786Y-108576247D01*
D13*
%TO.C,D3*%
X167200000Y-87665000D02*
X164915000Y-87665000D01*
X164915000Y-89135000D02*
X167200000Y-89135000D01*
X164915000Y-87665000D02*
X164915000Y-89135000D01*
%TO.C,D4*%
X167200000Y-86015000D02*
X164915000Y-86015000D01*
X164915000Y-87485000D02*
X167200000Y-87485000D01*
X164915000Y-86015000D02*
X164915000Y-87485000D01*
%TO.C,D2*%
X167200000Y-84365000D02*
X164915000Y-84365000D01*
X164915000Y-85835000D02*
X167200000Y-85835000D01*
X164915000Y-84365000D02*
X164915000Y-85835000D01*
D10*
%TO.C,BT1*%
X132800000Y-126600000D02*
X143200000Y-126600000D01*
X132800000Y-118200000D02*
X132800000Y-126600000D01*
X136100000Y-118200000D02*
X132800000Y-118200000D01*
X143200000Y-118200000D02*
X143200000Y-126600000D01*
X143200000Y-118200000D02*
X139900000Y-118200000D01*
X136500000Y-111600000D02*
X136500000Y-94600000D01*
X139500000Y-111600000D02*
X136500000Y-111600000D01*
X137250000Y-94600000D02*
X136500000Y-94600000D01*
X138750000Y-94600000D02*
X138750000Y-94100000D01*
X139500000Y-94600000D02*
X139500000Y-111600000D01*
X139500000Y-94600000D02*
X138750000Y-94600000D01*
X137250000Y-94100000D02*
X137250000Y-94600000D01*
X138750000Y-94100000D02*
X137250000Y-94100000D01*
X132800000Y-88000000D02*
X136100000Y-88000000D01*
X132800000Y-88000000D02*
X132800000Y-79600000D01*
X139900000Y-88000000D02*
X143200000Y-88000000D01*
X143200000Y-88000000D02*
X143200000Y-79600000D01*
X143200000Y-79600000D02*
X132800000Y-79600000D01*
D13*
%TO.C,U5*%
X145240000Y-70590000D02*
X145240000Y-76400000D01*
X145240000Y-70590000D02*
X163460000Y-70590000D01*
X145240000Y-90510000D02*
X145240000Y-90810000D01*
X145240000Y-90810000D02*
X163460000Y-90810000D01*
X163460000Y-70590000D02*
X163460000Y-77090000D01*
X163460000Y-90510000D02*
X163460000Y-90810000D01*
X145250000Y-77100000D02*
X144750000Y-77100000D01*
X145250000Y-76600000D01*
X145250000Y-77100000D01*
G36*
X145250000Y-77100000D02*
G01*
X144750000Y-77100000D01*
X145250000Y-76600000D01*
X145250000Y-77100000D01*
G37*
%TO.C,C7*%
X145773752Y-107585000D02*
X145251248Y-107585000D01*
X145773752Y-106115000D02*
X145251248Y-106115000D01*
%TO.C,R55*%
X142187742Y-77677500D02*
X142662258Y-77677500D01*
X142187742Y-78722500D02*
X142662258Y-78722500D01*
%TO.C,L1*%
X145862500Y-99160000D02*
X144762500Y-99160000D01*
X145862500Y-94940000D02*
X144762500Y-94940000D01*
%TO.C,C1*%
X146728080Y-92660000D02*
X146446920Y-92660000D01*
X146728080Y-91640000D02*
X146446920Y-91640000D01*
%TO.C,R15*%
X167272500Y-102262742D02*
X167272500Y-102737258D01*
X166227500Y-102262742D02*
X166227500Y-102737258D01*
%TO.C,C3*%
X146728080Y-94260000D02*
X146446920Y-94260000D01*
X146728080Y-93240000D02*
X146446920Y-93240000D01*
%TO.C,C13*%
X157940580Y-94590000D02*
X157659420Y-94590000D01*
X157940580Y-95610000D02*
X157659420Y-95610000D01*
D10*
%TO.C,J4*%
X145100000Y-120400000D02*
X145100000Y-121400000D01*
X145100000Y-126800000D02*
X167100000Y-126800000D01*
X148100000Y-120400000D02*
X145100000Y-120400000D01*
X164100000Y-120400000D02*
X167100000Y-120400000D01*
X167100000Y-120400000D02*
X167100000Y-121400000D01*
X148600000Y-119200000D02*
X147900000Y-118500000D01*
X149300000Y-118500000D01*
X148600000Y-119200000D01*
G36*
X148600000Y-119200000D02*
G01*
X147900000Y-118500000D01*
X149300000Y-118500000D01*
X148600000Y-119200000D01*
G37*
D13*
%TO.C,R22*%
X147977500Y-116762742D02*
X147977500Y-117237258D01*
X149022500Y-116762742D02*
X149022500Y-117237258D01*
%TO.C,Q1*%
X151672500Y-95712500D02*
X151672500Y-96362500D01*
X151672500Y-95712500D02*
X151672500Y-95062500D01*
X148552500Y-95712500D02*
X148552500Y-96362500D01*
X148552500Y-95712500D02*
X148552500Y-95062500D01*
X148602500Y-96875000D02*
X148272500Y-97115000D01*
X148272500Y-96635000D01*
X148602500Y-96875000D01*
G36*
X148602500Y-96875000D02*
G01*
X148272500Y-97115000D01*
X148272500Y-96635000D01*
X148602500Y-96875000D01*
G37*
%TO.C,R16*%
X165672500Y-102262742D02*
X165672500Y-102737258D01*
X164627500Y-102262742D02*
X164627500Y-102737258D01*
%TO.C,R14*%
X164072500Y-102262742D02*
X164072500Y-102737258D01*
X163027500Y-102262742D02*
X163027500Y-102737258D01*
%TO.C,D1*%
X151712500Y-105960000D02*
X151712500Y-101950000D01*
X149712500Y-105960000D02*
X151712500Y-105960000D01*
X149712500Y-105960000D02*
X149712500Y-101950000D01*
%TO.C,R10*%
X158037258Y-94122500D02*
X157562742Y-94122500D01*
X158037258Y-93077500D02*
X157562742Y-93077500D01*
%TO.C,U2*%
X145750000Y-105360000D02*
X146550000Y-105360000D01*
X145750000Y-105360000D02*
X144950000Y-105360000D01*
X145750000Y-102240000D02*
X146550000Y-102240000D01*
X145750000Y-102240000D02*
X144950000Y-102240000D01*
X144450000Y-102290000D02*
X144210000Y-101960000D01*
X144690000Y-101960000D01*
X144450000Y-102290000D01*
G36*
X144450000Y-102290000D02*
G01*
X144210000Y-101960000D01*
X144690000Y-101960000D01*
X144450000Y-102290000D01*
G37*
%TO.C,R21*%
X149477500Y-116762742D02*
X149477500Y-117237258D01*
X150522500Y-116762742D02*
X150522500Y-117237258D01*
%TO.C,R23*%
X146477500Y-116762742D02*
X146477500Y-117237258D01*
X147522500Y-116762742D02*
X147522500Y-117237258D01*
%TO.C,R5*%
X149235000Y-106487258D02*
X149235000Y-106012742D01*
X148190000Y-106487258D02*
X148190000Y-106012742D01*
%TO.C,R6*%
X149235000Y-103487258D02*
X149235000Y-103012742D01*
X148190000Y-103487258D02*
X148190000Y-103012742D01*
%TO.C,LD1*%
X165070000Y-83470000D02*
X167730000Y-83470000D01*
X165070000Y-80870000D02*
X165070000Y-83470000D01*
X165070000Y-80870000D02*
X167730000Y-80870000D01*
X167730000Y-80870000D02*
X167730000Y-83470000D01*
X165070000Y-79600000D02*
X165070000Y-78270000D01*
X165070000Y-78270000D02*
X166400000Y-78270000D01*
%TO.C,R20*%
X150977500Y-116762742D02*
X150977500Y-117237258D01*
X152022500Y-116762742D02*
X152022500Y-117237258D01*
%TO.C,C2*%
X146211252Y-101535000D02*
X145688748Y-101535000D01*
X146211252Y-100065000D02*
X145688748Y-100065000D01*
%TO.C,J1*%
X167160000Y-116510000D02*
X167160000Y-105790000D01*
X167160000Y-105790000D02*
X166310000Y-105790000D01*
X166310000Y-116510000D02*
X167160000Y-116510000D01*
X163890000Y-116510000D02*
X160940000Y-116510000D01*
X163890000Y-105790000D02*
X160940000Y-105790000D01*
X160940000Y-116510000D02*
X160940000Y-114760000D01*
X160940000Y-114760000D02*
X160050000Y-114760000D01*
X160940000Y-105790000D02*
X160940000Y-107540000D01*
%TO.C,R24*%
X144977500Y-116762742D02*
X144977500Y-117237258D01*
X146022500Y-116762742D02*
X146022500Y-117237258D01*
%TO.C,C6*%
X145853080Y-109460000D02*
X145571920Y-109460000D01*
X145853080Y-108440000D02*
X145571920Y-108440000D01*
%TD*%
M02*
