%TF.GenerationSoftware,KiCad,Pcbnew,8.0.6-1.fc40*%
%TF.CreationDate,2025-02-15T15:48:19+01:00*%
%TF.ProjectId,airMouse-keyboard,6169724d-6f75-4736-952d-6b6579626f61,RC1*%
%TF.SameCoordinates,Original*%
%TF.FileFunction,Paste,Bot*%
%TF.FilePolarity,Positive*%
%FSLAX46Y46*%
G04 Gerber Fmt 4.6, Leading zero omitted, Abs format (unit mm)*
G04 Created by KiCad (PCBNEW 8.0.6-1.fc40) date 2025-02-15 15:48:19*
%MOMM*%
%LPD*%
G01*
G04 APERTURE LIST*
G04 Aperture macros list*
%AMRoundRect*
0 Rectangle with rounded corners*
0 $1 Rounding radius*
0 $2 $3 $4 $5 $6 $7 $8 $9 X,Y pos of 4 corners*
0 Add a 4 corners polygon primitive as box body*
4,1,4,$2,$3,$4,$5,$6,$7,$8,$9,$2,$3,0*
0 Add four circle primitives for the rounded corners*
1,1,$1+$1,$2,$3*
1,1,$1+$1,$4,$5*
1,1,$1+$1,$6,$7*
1,1,$1+$1,$8,$9*
0 Add four rect primitives between the rounded corners*
20,1,$1+$1,$2,$3,$4,$5,0*
20,1,$1+$1,$4,$5,$6,$7,0*
20,1,$1+$1,$6,$7,$8,$9,0*
20,1,$1+$1,$8,$9,$2,$3,0*%
G04 Aperture macros list end*
%ADD10RoundRect,0.150000X-0.200000X0.150000X-0.200000X-0.150000X0.200000X-0.150000X0.200000X0.150000X0*%
G04 APERTURE END LIST*
D10*
%TO.C,D43*%
X98750000Y-116100000D03*
X98750000Y-114700000D03*
%TD*%
%TO.C,D13*%
X98750000Y-95100000D03*
X98750000Y-93700000D03*
%TD*%
%TO.C,D12*%
X93250000Y-95100000D03*
X93250000Y-93700000D03*
%TD*%
%TO.C,D1*%
X87750000Y-88100000D03*
X87750000Y-86700000D03*
%TD*%
%TO.C,D49*%
X137250000Y-116100000D03*
X137250000Y-114700000D03*
%TD*%
%TO.C,D48*%
X131750000Y-116100000D03*
X131750000Y-114700000D03*
%TD*%
%TO.C,D26*%
X115250000Y-102100000D03*
X115250000Y-100700000D03*
%TD*%
%TO.C,D27*%
X120750000Y-102100000D03*
X120750000Y-100700000D03*
%TD*%
%TO.C,D37*%
X120750000Y-109100000D03*
X120750000Y-107700000D03*
%TD*%
%TO.C,D36*%
X115250000Y-109100000D03*
X115250000Y-107700000D03*
%TD*%
%TO.C,D9*%
X131750000Y-88100000D03*
X131750000Y-86700000D03*
%TD*%
%TO.C,D23*%
X98750000Y-102100000D03*
X98750000Y-100700000D03*
%TD*%
%TO.C,D47*%
X126250000Y-116100000D03*
X126250000Y-114700000D03*
%TD*%
%TO.C,D41*%
X87750000Y-116100000D03*
X87750000Y-114700000D03*
%TD*%
%TO.C,D20*%
X137000000Y-95100000D03*
X137000000Y-93700000D03*
%TD*%
%TO.C,D14*%
X104250000Y-95100000D03*
X104250000Y-93700000D03*
%TD*%
%TO.C,D19*%
X131500000Y-95100000D03*
X131500000Y-93700000D03*
%TD*%
%TO.C,D15*%
X109750000Y-95100000D03*
X109750000Y-93700000D03*
%TD*%
%TO.C,D30*%
X137250000Y-102100000D03*
X137250000Y-100700000D03*
%TD*%
%TO.C,D5*%
X109750000Y-88100000D03*
X109750000Y-86700000D03*
%TD*%
%TO.C,D11*%
X87750000Y-95100000D03*
X87750000Y-93700000D03*
%TD*%
%TO.C,D35*%
X109750000Y-109100000D03*
X109750000Y-107700000D03*
%TD*%
%TO.C,D39*%
X131750000Y-109100000D03*
X131750000Y-107700000D03*
%TD*%
%TO.C,D40*%
X137250000Y-109100000D03*
X137250000Y-107700000D03*
%TD*%
%TO.C,D6*%
X115250000Y-88100000D03*
X115250000Y-86700000D03*
%TD*%
%TO.C,D10*%
X137250000Y-88100000D03*
X137250000Y-86700000D03*
%TD*%
%TO.C,D17*%
X120750000Y-95100000D03*
X120750000Y-93700000D03*
%TD*%
%TO.C,D44*%
X104250000Y-116100000D03*
X104250000Y-114700000D03*
%TD*%
%TO.C,D34*%
X104250000Y-109100000D03*
X104250000Y-107700000D03*
%TD*%
%TO.C,D45*%
X112750000Y-116100000D03*
X112750000Y-114700000D03*
%TD*%
%TO.C,D24*%
X104250000Y-102100000D03*
X104250000Y-100700000D03*
%TD*%
%TO.C,D33*%
X98750000Y-109100000D03*
X98750000Y-107700000D03*
%TD*%
%TO.C,D8*%
X126250000Y-88100000D03*
X126250000Y-86700000D03*
%TD*%
%TO.C,D32*%
X93250000Y-109100000D03*
X93250000Y-107700000D03*
%TD*%
%TO.C,D3*%
X98750000Y-88100000D03*
X98750000Y-86700000D03*
%TD*%
%TO.C,D18*%
X126250000Y-95100000D03*
X126250000Y-93700000D03*
%TD*%
%TO.C,D42*%
X93250000Y-116100000D03*
X93250000Y-114700000D03*
%TD*%
%TO.C,D4*%
X104250000Y-88100000D03*
X104250000Y-86700000D03*
%TD*%
%TO.C,D31*%
X87750000Y-109100000D03*
X87750000Y-107700000D03*
%TD*%
%TO.C,D46*%
X120750000Y-116100000D03*
X120750000Y-114700000D03*
%TD*%
%TO.C,D38*%
X126250000Y-109100000D03*
X126250000Y-107700000D03*
%TD*%
%TO.C,D29*%
X131750000Y-102100000D03*
X131750000Y-100700000D03*
%TD*%
%TO.C,D25*%
X109750000Y-102100000D03*
X109750000Y-100700000D03*
%TD*%
%TO.C,D21*%
X87750000Y-102100000D03*
X87750000Y-100700000D03*
%TD*%
%TO.C,D22*%
X93250000Y-102100000D03*
X93250000Y-100700000D03*
%TD*%
%TO.C,D28*%
X126250000Y-102100000D03*
X126250000Y-100700000D03*
%TD*%
%TO.C,D16*%
X115250000Y-95100000D03*
X115250000Y-93700000D03*
%TD*%
%TO.C,D7*%
X120750000Y-88100000D03*
X120750000Y-86700000D03*
%TD*%
%TO.C,D2*%
X93250000Y-88100000D03*
X93250000Y-86700000D03*
%TD*%
M02*
