M48
; DRILL file {KiCad 8.0.6-1.fc40} date 2025-02-15T15:48:22+0100
; FORMAT={-:-/ absolute / inch / decimal}
; #@! TF.CreationDate,2025-02-15T15:48:22+01:00
; #@! TF.GenerationSoftware,Kicad,Pcbnew,8.0.6-1.fc40
; #@! TF.FileFunction,Plated,1,2,PTH
FMAT,2
INCH
; #@! TA.AperFunction,Plated,PTH,ViaDrill
T1C0.0118
; #@! TA.AperFunction,Plated,PTH,ComponentDrill
T2C0.0866
%
G90
G05
T1
X3.435Y-2.9685
X3.435Y-3.0079
X3.435Y-3.0472
X3.435Y-3.0866
X3.435Y-3.126
X3.435Y-3.1654
X3.435Y-3.2047
X3.4744Y-3.3622
X3.4744Y-3.6378
X3.4744Y-3.9134
X3.4744Y-4.189
X3.4744Y-4.4646
X3.5827Y-3.4311
X3.5827Y-4.5709
X3.6909Y-3.3622
X3.6909Y-3.6378
X3.6909Y-3.9134
X3.6909Y-4.189
X3.6909Y-4.4646
X3.7992Y-3.4311
X3.7992Y-4.2953
X3.9075Y-3.3622
X3.9075Y-3.6378
X3.9075Y-3.9134
X3.9075Y-4.189
X3.9075Y-4.4646
X4.0157Y-3.4311
X4.0157Y-4.0197
X4.124Y-3.3622
X4.124Y-3.6378
X4.124Y-3.9134
X4.124Y-4.189
X4.124Y-4.4646
X4.1909Y-3.0866
X4.2303Y-3.0866
X4.2323Y-3.4311
X4.2323Y-3.7441
X4.2697Y-3.0866
X4.3091Y-3.0866
X4.3406Y-3.0866
X4.3406Y-3.3622
X4.3406Y-3.6378
X4.3406Y-3.9134
X4.3406Y-4.189
X4.4587Y-4.4646
X4.5571Y-3.3622
X4.5571Y-3.6378
X4.5571Y-3.9134
X4.5571Y-4.189
X4.7736Y-3.3622
X4.7736Y-3.6378
X4.7736Y-3.9134
X4.7736Y-4.189
X4.7736Y-4.4646
X4.9902Y-3.3622
X4.9902Y-3.6378
X4.9902Y-3.9134
X4.9902Y-4.189
X4.9902Y-4.4646
X5.2067Y-3.3622
X5.2067Y-3.6378
X5.2067Y-3.9134
X5.2067Y-4.189
X5.2067Y-4.4646
X5.4232Y-3.3622
X5.4232Y-3.6378
X5.4232Y-3.9134
X5.4232Y-4.189
X5.4232Y-4.4646
X5.4823Y-2.9685
X5.4823Y-3.0079
X5.4823Y-3.0472
X5.4823Y-3.0866
X5.4823Y-3.126
X5.4823Y-3.1654
X5.4823Y-3.2047
T2
X3.5433Y-3.0315
X5.374Y-3.0315
M30
