%TF.GenerationSoftware,KiCad,Pcbnew,8.0.6-1.fc40*%
%TF.CreationDate,2025-02-15T15:48:19+01:00*%
%TF.ProjectId,airMouse-keyboard,6169724d-6f75-4736-952d-6b6579626f61,RC1*%
%TF.SameCoordinates,Original*%
%TF.FileFunction,Legend,Top*%
%TF.FilePolarity,Positive*%
%FSLAX46Y46*%
G04 Gerber Fmt 4.6, Leading zero omitted, Abs format (unit mm)*
G04 Created by KiCad (PCBNEW 8.0.6-1.fc40) date 2025-02-15 15:48:19*
%MOMM*%
%LPD*%
G01*
G04 APERTURE LIST*
%ADD10C,0.100000*%
%ADD11C,0.150000*%
%ADD12C,0.080000*%
%ADD13C,0.000000*%
G04 APERTURE END LIST*
D10*
X126266666Y-79957419D02*
X126266666Y-80671704D01*
X126266666Y-80671704D02*
X126219047Y-80814561D01*
X126219047Y-80814561D02*
X126123809Y-80909800D01*
X126123809Y-80909800D02*
X125980952Y-80957419D01*
X125980952Y-80957419D02*
X125885714Y-80957419D01*
X127266666Y-80957419D02*
X126695238Y-80957419D01*
X126980952Y-80957419D02*
X126980952Y-79957419D01*
X126980952Y-79957419D02*
X126885714Y-80100276D01*
X126885714Y-80100276D02*
X126790476Y-80195514D01*
X126790476Y-80195514D02*
X126695238Y-80243133D01*
D11*
X89238095Y-80954819D02*
X89238095Y-79954819D01*
X89238095Y-80431009D02*
X89809523Y-80431009D01*
X89809523Y-80954819D02*
X89809523Y-79954819D01*
X90714285Y-80288152D02*
X90714285Y-80954819D01*
X90476190Y-79907200D02*
X90238095Y-80621485D01*
X90238095Y-80621485D02*
X90857142Y-80621485D01*
X135738095Y-80954819D02*
X135738095Y-79954819D01*
X135738095Y-80431009D02*
X136309523Y-80431009D01*
X136309523Y-80954819D02*
X136309523Y-79954819D01*
X136690476Y-79954819D02*
X137309523Y-79954819D01*
X137309523Y-79954819D02*
X136976190Y-80335771D01*
X136976190Y-80335771D02*
X137119047Y-80335771D01*
X137119047Y-80335771D02*
X137214285Y-80383390D01*
X137214285Y-80383390D02*
X137261904Y-80431009D01*
X137261904Y-80431009D02*
X137309523Y-80526247D01*
X137309523Y-80526247D02*
X137309523Y-80764342D01*
X137309523Y-80764342D02*
X137261904Y-80859580D01*
X137261904Y-80859580D02*
X137214285Y-80907200D01*
X137214285Y-80907200D02*
X137119047Y-80954819D01*
X137119047Y-80954819D02*
X136833333Y-80954819D01*
X136833333Y-80954819D02*
X136738095Y-80907200D01*
X136738095Y-80907200D02*
X136690476Y-80859580D01*
X89238095Y-119554819D02*
X89238095Y-118554819D01*
X89238095Y-119031009D02*
X89809523Y-119031009D01*
X89809523Y-119554819D02*
X89809523Y-118554819D01*
X90238095Y-118650057D02*
X90285714Y-118602438D01*
X90285714Y-118602438D02*
X90380952Y-118554819D01*
X90380952Y-118554819D02*
X90619047Y-118554819D01*
X90619047Y-118554819D02*
X90714285Y-118602438D01*
X90714285Y-118602438D02*
X90761904Y-118650057D01*
X90761904Y-118650057D02*
X90809523Y-118745295D01*
X90809523Y-118745295D02*
X90809523Y-118840533D01*
X90809523Y-118840533D02*
X90761904Y-118983390D01*
X90761904Y-118983390D02*
X90190476Y-119554819D01*
X90190476Y-119554819D02*
X90809523Y-119554819D01*
X135738095Y-119554819D02*
X135738095Y-118554819D01*
X135738095Y-119031009D02*
X136309523Y-119031009D01*
X136309523Y-119554819D02*
X136309523Y-118554819D01*
X137309523Y-119554819D02*
X136738095Y-119554819D01*
X137023809Y-119554819D02*
X137023809Y-118554819D01*
X137023809Y-118554819D02*
X136928571Y-118697676D01*
X136928571Y-118697676D02*
X136833333Y-118792914D01*
X136833333Y-118792914D02*
X136738095Y-118840533D01*
D12*
X103845239Y-101603340D02*
X103916667Y-101627149D01*
X103916667Y-101627149D02*
X104035715Y-101627149D01*
X104035715Y-101627149D02*
X104083334Y-101603340D01*
X104083334Y-101603340D02*
X104107143Y-101579530D01*
X104107143Y-101579530D02*
X104130953Y-101531911D01*
X104130953Y-101531911D02*
X104130953Y-101484292D01*
X104130953Y-101484292D02*
X104107143Y-101436673D01*
X104107143Y-101436673D02*
X104083334Y-101412863D01*
X104083334Y-101412863D02*
X104035715Y-101389054D01*
X104035715Y-101389054D02*
X103940477Y-101365244D01*
X103940477Y-101365244D02*
X103892858Y-101341435D01*
X103892858Y-101341435D02*
X103869048Y-101317625D01*
X103869048Y-101317625D02*
X103845239Y-101270006D01*
X103845239Y-101270006D02*
X103845239Y-101222387D01*
X103845239Y-101222387D02*
X103869048Y-101174768D01*
X103869048Y-101174768D02*
X103892858Y-101150959D01*
X103892858Y-101150959D02*
X103940477Y-101127149D01*
X103940477Y-101127149D02*
X104059524Y-101127149D01*
X104059524Y-101127149D02*
X104130953Y-101150959D01*
X104297619Y-101127149D02*
X104416667Y-101627149D01*
X104416667Y-101627149D02*
X104511905Y-101270006D01*
X104511905Y-101270006D02*
X104607143Y-101627149D01*
X104607143Y-101627149D02*
X104726191Y-101127149D01*
X104892858Y-101174768D02*
X104916667Y-101150959D01*
X104916667Y-101150959D02*
X104964286Y-101127149D01*
X104964286Y-101127149D02*
X105083334Y-101127149D01*
X105083334Y-101127149D02*
X105130953Y-101150959D01*
X105130953Y-101150959D02*
X105154762Y-101174768D01*
X105154762Y-101174768D02*
X105178572Y-101222387D01*
X105178572Y-101222387D02*
X105178572Y-101270006D01*
X105178572Y-101270006D02*
X105154762Y-101341435D01*
X105154762Y-101341435D02*
X104869048Y-101627149D01*
X104869048Y-101627149D02*
X105178572Y-101627149D01*
X105607143Y-101293816D02*
X105607143Y-101627149D01*
X105488095Y-101103340D02*
X105369048Y-101460482D01*
X105369048Y-101460482D02*
X105678571Y-101460482D01*
X105088345Y-97822744D02*
X104921678Y-97822744D01*
X104921678Y-98084649D02*
X104921678Y-97584649D01*
X104921678Y-97584649D02*
X105159773Y-97584649D01*
X131583334Y-87603340D02*
X131654762Y-87627149D01*
X131654762Y-87627149D02*
X131773810Y-87627149D01*
X131773810Y-87627149D02*
X131821429Y-87603340D01*
X131821429Y-87603340D02*
X131845238Y-87579530D01*
X131845238Y-87579530D02*
X131869048Y-87531911D01*
X131869048Y-87531911D02*
X131869048Y-87484292D01*
X131869048Y-87484292D02*
X131845238Y-87436673D01*
X131845238Y-87436673D02*
X131821429Y-87412863D01*
X131821429Y-87412863D02*
X131773810Y-87389054D01*
X131773810Y-87389054D02*
X131678572Y-87365244D01*
X131678572Y-87365244D02*
X131630953Y-87341435D01*
X131630953Y-87341435D02*
X131607143Y-87317625D01*
X131607143Y-87317625D02*
X131583334Y-87270006D01*
X131583334Y-87270006D02*
X131583334Y-87222387D01*
X131583334Y-87222387D02*
X131607143Y-87174768D01*
X131607143Y-87174768D02*
X131630953Y-87150959D01*
X131630953Y-87150959D02*
X131678572Y-87127149D01*
X131678572Y-87127149D02*
X131797619Y-87127149D01*
X131797619Y-87127149D02*
X131869048Y-87150959D01*
X132035714Y-87127149D02*
X132154762Y-87627149D01*
X132154762Y-87627149D02*
X132250000Y-87270006D01*
X132250000Y-87270006D02*
X132345238Y-87627149D01*
X132345238Y-87627149D02*
X132464286Y-87127149D01*
X132678572Y-87627149D02*
X132773810Y-87627149D01*
X132773810Y-87627149D02*
X132821429Y-87603340D01*
X132821429Y-87603340D02*
X132845238Y-87579530D01*
X132845238Y-87579530D02*
X132892857Y-87508101D01*
X132892857Y-87508101D02*
X132916667Y-87412863D01*
X132916667Y-87412863D02*
X132916667Y-87222387D01*
X132916667Y-87222387D02*
X132892857Y-87174768D01*
X132892857Y-87174768D02*
X132869048Y-87150959D01*
X132869048Y-87150959D02*
X132821429Y-87127149D01*
X132821429Y-87127149D02*
X132726191Y-87127149D01*
X132726191Y-87127149D02*
X132678572Y-87150959D01*
X132678572Y-87150959D02*
X132654762Y-87174768D01*
X132654762Y-87174768D02*
X132630953Y-87222387D01*
X132630953Y-87222387D02*
X132630953Y-87341435D01*
X132630953Y-87341435D02*
X132654762Y-87389054D01*
X132654762Y-87389054D02*
X132678572Y-87412863D01*
X132678572Y-87412863D02*
X132726191Y-87436673D01*
X132726191Y-87436673D02*
X132821429Y-87436673D01*
X132821429Y-87436673D02*
X132869048Y-87412863D01*
X132869048Y-87412863D02*
X132892857Y-87389054D01*
X132892857Y-87389054D02*
X132916667Y-87341435D01*
X132445488Y-84084649D02*
X132540726Y-84084649D01*
X132540726Y-84084649D02*
X132588345Y-84060840D01*
X132588345Y-84060840D02*
X132612154Y-84037030D01*
X132612154Y-84037030D02*
X132659773Y-83965601D01*
X132659773Y-83965601D02*
X132683583Y-83870363D01*
X132683583Y-83870363D02*
X132683583Y-83679887D01*
X132683583Y-83679887D02*
X132659773Y-83632268D01*
X132659773Y-83632268D02*
X132635964Y-83608459D01*
X132635964Y-83608459D02*
X132588345Y-83584649D01*
X132588345Y-83584649D02*
X132493107Y-83584649D01*
X132493107Y-83584649D02*
X132445488Y-83608459D01*
X132445488Y-83608459D02*
X132421678Y-83632268D01*
X132421678Y-83632268D02*
X132397869Y-83679887D01*
X132397869Y-83679887D02*
X132397869Y-83798935D01*
X132397869Y-83798935D02*
X132421678Y-83846554D01*
X132421678Y-83846554D02*
X132445488Y-83870363D01*
X132445488Y-83870363D02*
X132493107Y-83894173D01*
X132493107Y-83894173D02*
X132588345Y-83894173D01*
X132588345Y-83894173D02*
X132635964Y-83870363D01*
X132635964Y-83870363D02*
X132659773Y-83846554D01*
X132659773Y-83846554D02*
X132683583Y-83798935D01*
X103845239Y-115603340D02*
X103916667Y-115627149D01*
X103916667Y-115627149D02*
X104035715Y-115627149D01*
X104035715Y-115627149D02*
X104083334Y-115603340D01*
X104083334Y-115603340D02*
X104107143Y-115579530D01*
X104107143Y-115579530D02*
X104130953Y-115531911D01*
X104130953Y-115531911D02*
X104130953Y-115484292D01*
X104130953Y-115484292D02*
X104107143Y-115436673D01*
X104107143Y-115436673D02*
X104083334Y-115412863D01*
X104083334Y-115412863D02*
X104035715Y-115389054D01*
X104035715Y-115389054D02*
X103940477Y-115365244D01*
X103940477Y-115365244D02*
X103892858Y-115341435D01*
X103892858Y-115341435D02*
X103869048Y-115317625D01*
X103869048Y-115317625D02*
X103845239Y-115270006D01*
X103845239Y-115270006D02*
X103845239Y-115222387D01*
X103845239Y-115222387D02*
X103869048Y-115174768D01*
X103869048Y-115174768D02*
X103892858Y-115150959D01*
X103892858Y-115150959D02*
X103940477Y-115127149D01*
X103940477Y-115127149D02*
X104059524Y-115127149D01*
X104059524Y-115127149D02*
X104130953Y-115150959D01*
X104297619Y-115127149D02*
X104416667Y-115627149D01*
X104416667Y-115627149D02*
X104511905Y-115270006D01*
X104511905Y-115270006D02*
X104607143Y-115627149D01*
X104607143Y-115627149D02*
X104726191Y-115127149D01*
X105130953Y-115293816D02*
X105130953Y-115627149D01*
X105011905Y-115103340D02*
X104892858Y-115460482D01*
X104892858Y-115460482D02*
X105202381Y-115460482D01*
X105607143Y-115293816D02*
X105607143Y-115627149D01*
X105488095Y-115103340D02*
X105369048Y-115460482D01*
X105369048Y-115460482D02*
X105678571Y-115460482D01*
X104897869Y-111941792D02*
X105135964Y-111941792D01*
X104850250Y-112084649D02*
X105016916Y-111584649D01*
X105016916Y-111584649D02*
X105183583Y-112084649D01*
X105588344Y-112084649D02*
X105350249Y-112084649D01*
X105350249Y-112084649D02*
X105350249Y-111584649D01*
X105683583Y-111584649D02*
X105969297Y-111584649D01*
X105826440Y-112084649D02*
X105826440Y-111584649D01*
X98345239Y-108603340D02*
X98416667Y-108627149D01*
X98416667Y-108627149D02*
X98535715Y-108627149D01*
X98535715Y-108627149D02*
X98583334Y-108603340D01*
X98583334Y-108603340D02*
X98607143Y-108579530D01*
X98607143Y-108579530D02*
X98630953Y-108531911D01*
X98630953Y-108531911D02*
X98630953Y-108484292D01*
X98630953Y-108484292D02*
X98607143Y-108436673D01*
X98607143Y-108436673D02*
X98583334Y-108412863D01*
X98583334Y-108412863D02*
X98535715Y-108389054D01*
X98535715Y-108389054D02*
X98440477Y-108365244D01*
X98440477Y-108365244D02*
X98392858Y-108341435D01*
X98392858Y-108341435D02*
X98369048Y-108317625D01*
X98369048Y-108317625D02*
X98345239Y-108270006D01*
X98345239Y-108270006D02*
X98345239Y-108222387D01*
X98345239Y-108222387D02*
X98369048Y-108174768D01*
X98369048Y-108174768D02*
X98392858Y-108150959D01*
X98392858Y-108150959D02*
X98440477Y-108127149D01*
X98440477Y-108127149D02*
X98559524Y-108127149D01*
X98559524Y-108127149D02*
X98630953Y-108150959D01*
X98797619Y-108127149D02*
X98916667Y-108627149D01*
X98916667Y-108627149D02*
X99011905Y-108270006D01*
X99011905Y-108270006D02*
X99107143Y-108627149D01*
X99107143Y-108627149D02*
X99226191Y-108127149D01*
X99369048Y-108127149D02*
X99678572Y-108127149D01*
X99678572Y-108127149D02*
X99511905Y-108317625D01*
X99511905Y-108317625D02*
X99583334Y-108317625D01*
X99583334Y-108317625D02*
X99630953Y-108341435D01*
X99630953Y-108341435D02*
X99654762Y-108365244D01*
X99654762Y-108365244D02*
X99678572Y-108412863D01*
X99678572Y-108412863D02*
X99678572Y-108531911D01*
X99678572Y-108531911D02*
X99654762Y-108579530D01*
X99654762Y-108579530D02*
X99630953Y-108603340D01*
X99630953Y-108603340D02*
X99583334Y-108627149D01*
X99583334Y-108627149D02*
X99440477Y-108627149D01*
X99440477Y-108627149D02*
X99392858Y-108603340D01*
X99392858Y-108603340D02*
X99369048Y-108579530D01*
X99845238Y-108127149D02*
X100154762Y-108127149D01*
X100154762Y-108127149D02*
X99988095Y-108317625D01*
X99988095Y-108317625D02*
X100059524Y-108317625D01*
X100059524Y-108317625D02*
X100107143Y-108341435D01*
X100107143Y-108341435D02*
X100130952Y-108365244D01*
X100130952Y-108365244D02*
X100154762Y-108412863D01*
X100154762Y-108412863D02*
X100154762Y-108531911D01*
X100154762Y-108531911D02*
X100130952Y-108579530D01*
X100130952Y-108579530D02*
X100107143Y-108603340D01*
X100107143Y-108603340D02*
X100059524Y-108627149D01*
X100059524Y-108627149D02*
X99916667Y-108627149D01*
X99916667Y-108627149D02*
X99869048Y-108603340D01*
X99869048Y-108603340D02*
X99845238Y-108579530D01*
X99374059Y-104584649D02*
X99707392Y-105084649D01*
X99707392Y-104584649D02*
X99374059Y-105084649D01*
X98583334Y-87603340D02*
X98654762Y-87627149D01*
X98654762Y-87627149D02*
X98773810Y-87627149D01*
X98773810Y-87627149D02*
X98821429Y-87603340D01*
X98821429Y-87603340D02*
X98845238Y-87579530D01*
X98845238Y-87579530D02*
X98869048Y-87531911D01*
X98869048Y-87531911D02*
X98869048Y-87484292D01*
X98869048Y-87484292D02*
X98845238Y-87436673D01*
X98845238Y-87436673D02*
X98821429Y-87412863D01*
X98821429Y-87412863D02*
X98773810Y-87389054D01*
X98773810Y-87389054D02*
X98678572Y-87365244D01*
X98678572Y-87365244D02*
X98630953Y-87341435D01*
X98630953Y-87341435D02*
X98607143Y-87317625D01*
X98607143Y-87317625D02*
X98583334Y-87270006D01*
X98583334Y-87270006D02*
X98583334Y-87222387D01*
X98583334Y-87222387D02*
X98607143Y-87174768D01*
X98607143Y-87174768D02*
X98630953Y-87150959D01*
X98630953Y-87150959D02*
X98678572Y-87127149D01*
X98678572Y-87127149D02*
X98797619Y-87127149D01*
X98797619Y-87127149D02*
X98869048Y-87150959D01*
X99035714Y-87127149D02*
X99154762Y-87627149D01*
X99154762Y-87627149D02*
X99250000Y-87270006D01*
X99250000Y-87270006D02*
X99345238Y-87627149D01*
X99345238Y-87627149D02*
X99464286Y-87127149D01*
X99607143Y-87127149D02*
X99916667Y-87127149D01*
X99916667Y-87127149D02*
X99750000Y-87317625D01*
X99750000Y-87317625D02*
X99821429Y-87317625D01*
X99821429Y-87317625D02*
X99869048Y-87341435D01*
X99869048Y-87341435D02*
X99892857Y-87365244D01*
X99892857Y-87365244D02*
X99916667Y-87412863D01*
X99916667Y-87412863D02*
X99916667Y-87531911D01*
X99916667Y-87531911D02*
X99892857Y-87579530D01*
X99892857Y-87579530D02*
X99869048Y-87603340D01*
X99869048Y-87603340D02*
X99821429Y-87627149D01*
X99821429Y-87627149D02*
X99678572Y-87627149D01*
X99678572Y-87627149D02*
X99630953Y-87603340D01*
X99630953Y-87603340D02*
X99607143Y-87579530D01*
X99374059Y-83584649D02*
X99683583Y-83584649D01*
X99683583Y-83584649D02*
X99516916Y-83775125D01*
X99516916Y-83775125D02*
X99588345Y-83775125D01*
X99588345Y-83775125D02*
X99635964Y-83798935D01*
X99635964Y-83798935D02*
X99659773Y-83822744D01*
X99659773Y-83822744D02*
X99683583Y-83870363D01*
X99683583Y-83870363D02*
X99683583Y-83989411D01*
X99683583Y-83989411D02*
X99659773Y-84037030D01*
X99659773Y-84037030D02*
X99635964Y-84060840D01*
X99635964Y-84060840D02*
X99588345Y-84084649D01*
X99588345Y-84084649D02*
X99445488Y-84084649D01*
X99445488Y-84084649D02*
X99397869Y-84060840D01*
X99397869Y-84060840D02*
X99374059Y-84037030D01*
X87583334Y-87603340D02*
X87654762Y-87627149D01*
X87654762Y-87627149D02*
X87773810Y-87627149D01*
X87773810Y-87627149D02*
X87821429Y-87603340D01*
X87821429Y-87603340D02*
X87845238Y-87579530D01*
X87845238Y-87579530D02*
X87869048Y-87531911D01*
X87869048Y-87531911D02*
X87869048Y-87484292D01*
X87869048Y-87484292D02*
X87845238Y-87436673D01*
X87845238Y-87436673D02*
X87821429Y-87412863D01*
X87821429Y-87412863D02*
X87773810Y-87389054D01*
X87773810Y-87389054D02*
X87678572Y-87365244D01*
X87678572Y-87365244D02*
X87630953Y-87341435D01*
X87630953Y-87341435D02*
X87607143Y-87317625D01*
X87607143Y-87317625D02*
X87583334Y-87270006D01*
X87583334Y-87270006D02*
X87583334Y-87222387D01*
X87583334Y-87222387D02*
X87607143Y-87174768D01*
X87607143Y-87174768D02*
X87630953Y-87150959D01*
X87630953Y-87150959D02*
X87678572Y-87127149D01*
X87678572Y-87127149D02*
X87797619Y-87127149D01*
X87797619Y-87127149D02*
X87869048Y-87150959D01*
X88035714Y-87127149D02*
X88154762Y-87627149D01*
X88154762Y-87627149D02*
X88250000Y-87270006D01*
X88250000Y-87270006D02*
X88345238Y-87627149D01*
X88345238Y-87627149D02*
X88464286Y-87127149D01*
X88916667Y-87627149D02*
X88630953Y-87627149D01*
X88773810Y-87627149D02*
X88773810Y-87127149D01*
X88773810Y-87127149D02*
X88726191Y-87198578D01*
X88726191Y-87198578D02*
X88678572Y-87246197D01*
X88678572Y-87246197D02*
X88630953Y-87270006D01*
X88683583Y-84084649D02*
X88397869Y-84084649D01*
X88540726Y-84084649D02*
X88540726Y-83584649D01*
X88540726Y-83584649D02*
X88493107Y-83656078D01*
X88493107Y-83656078D02*
X88445488Y-83703697D01*
X88445488Y-83703697D02*
X88397869Y-83727506D01*
X114845239Y-94603340D02*
X114916667Y-94627149D01*
X114916667Y-94627149D02*
X115035715Y-94627149D01*
X115035715Y-94627149D02*
X115083334Y-94603340D01*
X115083334Y-94603340D02*
X115107143Y-94579530D01*
X115107143Y-94579530D02*
X115130953Y-94531911D01*
X115130953Y-94531911D02*
X115130953Y-94484292D01*
X115130953Y-94484292D02*
X115107143Y-94436673D01*
X115107143Y-94436673D02*
X115083334Y-94412863D01*
X115083334Y-94412863D02*
X115035715Y-94389054D01*
X115035715Y-94389054D02*
X114940477Y-94365244D01*
X114940477Y-94365244D02*
X114892858Y-94341435D01*
X114892858Y-94341435D02*
X114869048Y-94317625D01*
X114869048Y-94317625D02*
X114845239Y-94270006D01*
X114845239Y-94270006D02*
X114845239Y-94222387D01*
X114845239Y-94222387D02*
X114869048Y-94174768D01*
X114869048Y-94174768D02*
X114892858Y-94150959D01*
X114892858Y-94150959D02*
X114940477Y-94127149D01*
X114940477Y-94127149D02*
X115059524Y-94127149D01*
X115059524Y-94127149D02*
X115130953Y-94150959D01*
X115297619Y-94127149D02*
X115416667Y-94627149D01*
X115416667Y-94627149D02*
X115511905Y-94270006D01*
X115511905Y-94270006D02*
X115607143Y-94627149D01*
X115607143Y-94627149D02*
X115726191Y-94127149D01*
X116178572Y-94627149D02*
X115892858Y-94627149D01*
X116035715Y-94627149D02*
X116035715Y-94127149D01*
X116035715Y-94127149D02*
X115988096Y-94198578D01*
X115988096Y-94198578D02*
X115940477Y-94246197D01*
X115940477Y-94246197D02*
X115892858Y-94270006D01*
X116607143Y-94127149D02*
X116511905Y-94127149D01*
X116511905Y-94127149D02*
X116464286Y-94150959D01*
X116464286Y-94150959D02*
X116440476Y-94174768D01*
X116440476Y-94174768D02*
X116392857Y-94246197D01*
X116392857Y-94246197D02*
X116369048Y-94341435D01*
X116369048Y-94341435D02*
X116369048Y-94531911D01*
X116369048Y-94531911D02*
X116392857Y-94579530D01*
X116392857Y-94579530D02*
X116416667Y-94603340D01*
X116416667Y-94603340D02*
X116464286Y-94627149D01*
X116464286Y-94627149D02*
X116559524Y-94627149D01*
X116559524Y-94627149D02*
X116607143Y-94603340D01*
X116607143Y-94603340D02*
X116630952Y-94579530D01*
X116630952Y-94579530D02*
X116654762Y-94531911D01*
X116654762Y-94531911D02*
X116654762Y-94412863D01*
X116654762Y-94412863D02*
X116630952Y-94365244D01*
X116630952Y-94365244D02*
X116607143Y-94341435D01*
X116607143Y-94341435D02*
X116559524Y-94317625D01*
X116559524Y-94317625D02*
X116464286Y-94317625D01*
X116464286Y-94317625D02*
X116416667Y-94341435D01*
X116416667Y-94341435D02*
X116392857Y-94365244D01*
X116392857Y-94365244D02*
X116369048Y-94412863D01*
X116016916Y-90846554D02*
X116016916Y-91084649D01*
X115850250Y-90584649D02*
X116016916Y-90846554D01*
X116016916Y-90846554D02*
X116183583Y-90584649D01*
X92845239Y-108603340D02*
X92916667Y-108627149D01*
X92916667Y-108627149D02*
X93035715Y-108627149D01*
X93035715Y-108627149D02*
X93083334Y-108603340D01*
X93083334Y-108603340D02*
X93107143Y-108579530D01*
X93107143Y-108579530D02*
X93130953Y-108531911D01*
X93130953Y-108531911D02*
X93130953Y-108484292D01*
X93130953Y-108484292D02*
X93107143Y-108436673D01*
X93107143Y-108436673D02*
X93083334Y-108412863D01*
X93083334Y-108412863D02*
X93035715Y-108389054D01*
X93035715Y-108389054D02*
X92940477Y-108365244D01*
X92940477Y-108365244D02*
X92892858Y-108341435D01*
X92892858Y-108341435D02*
X92869048Y-108317625D01*
X92869048Y-108317625D02*
X92845239Y-108270006D01*
X92845239Y-108270006D02*
X92845239Y-108222387D01*
X92845239Y-108222387D02*
X92869048Y-108174768D01*
X92869048Y-108174768D02*
X92892858Y-108150959D01*
X92892858Y-108150959D02*
X92940477Y-108127149D01*
X92940477Y-108127149D02*
X93059524Y-108127149D01*
X93059524Y-108127149D02*
X93130953Y-108150959D01*
X93297619Y-108127149D02*
X93416667Y-108627149D01*
X93416667Y-108627149D02*
X93511905Y-108270006D01*
X93511905Y-108270006D02*
X93607143Y-108627149D01*
X93607143Y-108627149D02*
X93726191Y-108127149D01*
X93869048Y-108127149D02*
X94178572Y-108127149D01*
X94178572Y-108127149D02*
X94011905Y-108317625D01*
X94011905Y-108317625D02*
X94083334Y-108317625D01*
X94083334Y-108317625D02*
X94130953Y-108341435D01*
X94130953Y-108341435D02*
X94154762Y-108365244D01*
X94154762Y-108365244D02*
X94178572Y-108412863D01*
X94178572Y-108412863D02*
X94178572Y-108531911D01*
X94178572Y-108531911D02*
X94154762Y-108579530D01*
X94154762Y-108579530D02*
X94130953Y-108603340D01*
X94130953Y-108603340D02*
X94083334Y-108627149D01*
X94083334Y-108627149D02*
X93940477Y-108627149D01*
X93940477Y-108627149D02*
X93892858Y-108603340D01*
X93892858Y-108603340D02*
X93869048Y-108579530D01*
X94369048Y-108174768D02*
X94392857Y-108150959D01*
X94392857Y-108150959D02*
X94440476Y-108127149D01*
X94440476Y-108127149D02*
X94559524Y-108127149D01*
X94559524Y-108127149D02*
X94607143Y-108150959D01*
X94607143Y-108150959D02*
X94630952Y-108174768D01*
X94630952Y-108174768D02*
X94654762Y-108222387D01*
X94654762Y-108222387D02*
X94654762Y-108270006D01*
X94654762Y-108270006D02*
X94630952Y-108341435D01*
X94630952Y-108341435D02*
X94345238Y-108627149D01*
X94345238Y-108627149D02*
X94654762Y-108627149D01*
X93874059Y-104584649D02*
X94207392Y-104584649D01*
X94207392Y-104584649D02*
X93874059Y-105084649D01*
X93874059Y-105084649D02*
X94207392Y-105084649D01*
X125845239Y-101603340D02*
X125916667Y-101627149D01*
X125916667Y-101627149D02*
X126035715Y-101627149D01*
X126035715Y-101627149D02*
X126083334Y-101603340D01*
X126083334Y-101603340D02*
X126107143Y-101579530D01*
X126107143Y-101579530D02*
X126130953Y-101531911D01*
X126130953Y-101531911D02*
X126130953Y-101484292D01*
X126130953Y-101484292D02*
X126107143Y-101436673D01*
X126107143Y-101436673D02*
X126083334Y-101412863D01*
X126083334Y-101412863D02*
X126035715Y-101389054D01*
X126035715Y-101389054D02*
X125940477Y-101365244D01*
X125940477Y-101365244D02*
X125892858Y-101341435D01*
X125892858Y-101341435D02*
X125869048Y-101317625D01*
X125869048Y-101317625D02*
X125845239Y-101270006D01*
X125845239Y-101270006D02*
X125845239Y-101222387D01*
X125845239Y-101222387D02*
X125869048Y-101174768D01*
X125869048Y-101174768D02*
X125892858Y-101150959D01*
X125892858Y-101150959D02*
X125940477Y-101127149D01*
X125940477Y-101127149D02*
X126059524Y-101127149D01*
X126059524Y-101127149D02*
X126130953Y-101150959D01*
X126297619Y-101127149D02*
X126416667Y-101627149D01*
X126416667Y-101627149D02*
X126511905Y-101270006D01*
X126511905Y-101270006D02*
X126607143Y-101627149D01*
X126607143Y-101627149D02*
X126726191Y-101127149D01*
X126892858Y-101174768D02*
X126916667Y-101150959D01*
X126916667Y-101150959D02*
X126964286Y-101127149D01*
X126964286Y-101127149D02*
X127083334Y-101127149D01*
X127083334Y-101127149D02*
X127130953Y-101150959D01*
X127130953Y-101150959D02*
X127154762Y-101174768D01*
X127154762Y-101174768D02*
X127178572Y-101222387D01*
X127178572Y-101222387D02*
X127178572Y-101270006D01*
X127178572Y-101270006D02*
X127154762Y-101341435D01*
X127154762Y-101341435D02*
X126869048Y-101627149D01*
X126869048Y-101627149D02*
X127178572Y-101627149D01*
X127464286Y-101341435D02*
X127416667Y-101317625D01*
X127416667Y-101317625D02*
X127392857Y-101293816D01*
X127392857Y-101293816D02*
X127369048Y-101246197D01*
X127369048Y-101246197D02*
X127369048Y-101222387D01*
X127369048Y-101222387D02*
X127392857Y-101174768D01*
X127392857Y-101174768D02*
X127416667Y-101150959D01*
X127416667Y-101150959D02*
X127464286Y-101127149D01*
X127464286Y-101127149D02*
X127559524Y-101127149D01*
X127559524Y-101127149D02*
X127607143Y-101150959D01*
X127607143Y-101150959D02*
X127630952Y-101174768D01*
X127630952Y-101174768D02*
X127654762Y-101222387D01*
X127654762Y-101222387D02*
X127654762Y-101246197D01*
X127654762Y-101246197D02*
X127630952Y-101293816D01*
X127630952Y-101293816D02*
X127607143Y-101317625D01*
X127607143Y-101317625D02*
X127559524Y-101341435D01*
X127559524Y-101341435D02*
X127464286Y-101341435D01*
X127464286Y-101341435D02*
X127416667Y-101365244D01*
X127416667Y-101365244D02*
X127392857Y-101389054D01*
X127392857Y-101389054D02*
X127369048Y-101436673D01*
X127369048Y-101436673D02*
X127369048Y-101531911D01*
X127369048Y-101531911D02*
X127392857Y-101579530D01*
X127392857Y-101579530D02*
X127416667Y-101603340D01*
X127416667Y-101603340D02*
X127464286Y-101627149D01*
X127464286Y-101627149D02*
X127559524Y-101627149D01*
X127559524Y-101627149D02*
X127607143Y-101603340D01*
X127607143Y-101603340D02*
X127630952Y-101579530D01*
X127630952Y-101579530D02*
X127654762Y-101531911D01*
X127654762Y-101531911D02*
X127654762Y-101436673D01*
X127654762Y-101436673D02*
X127630952Y-101389054D01*
X127630952Y-101389054D02*
X127607143Y-101365244D01*
X127607143Y-101365244D02*
X127559524Y-101341435D01*
X126921678Y-98084649D02*
X126921678Y-97584649D01*
X127207392Y-98084649D02*
X126993107Y-97798935D01*
X127207392Y-97584649D02*
X126921678Y-97870363D01*
X120345239Y-115603340D02*
X120416667Y-115627149D01*
X120416667Y-115627149D02*
X120535715Y-115627149D01*
X120535715Y-115627149D02*
X120583334Y-115603340D01*
X120583334Y-115603340D02*
X120607143Y-115579530D01*
X120607143Y-115579530D02*
X120630953Y-115531911D01*
X120630953Y-115531911D02*
X120630953Y-115484292D01*
X120630953Y-115484292D02*
X120607143Y-115436673D01*
X120607143Y-115436673D02*
X120583334Y-115412863D01*
X120583334Y-115412863D02*
X120535715Y-115389054D01*
X120535715Y-115389054D02*
X120440477Y-115365244D01*
X120440477Y-115365244D02*
X120392858Y-115341435D01*
X120392858Y-115341435D02*
X120369048Y-115317625D01*
X120369048Y-115317625D02*
X120345239Y-115270006D01*
X120345239Y-115270006D02*
X120345239Y-115222387D01*
X120345239Y-115222387D02*
X120369048Y-115174768D01*
X120369048Y-115174768D02*
X120392858Y-115150959D01*
X120392858Y-115150959D02*
X120440477Y-115127149D01*
X120440477Y-115127149D02*
X120559524Y-115127149D01*
X120559524Y-115127149D02*
X120630953Y-115150959D01*
X120797619Y-115127149D02*
X120916667Y-115627149D01*
X120916667Y-115627149D02*
X121011905Y-115270006D01*
X121011905Y-115270006D02*
X121107143Y-115627149D01*
X121107143Y-115627149D02*
X121226191Y-115127149D01*
X121630953Y-115293816D02*
X121630953Y-115627149D01*
X121511905Y-115103340D02*
X121392858Y-115460482D01*
X121392858Y-115460482D02*
X121702381Y-115460482D01*
X122107143Y-115127149D02*
X122011905Y-115127149D01*
X122011905Y-115127149D02*
X121964286Y-115150959D01*
X121964286Y-115150959D02*
X121940476Y-115174768D01*
X121940476Y-115174768D02*
X121892857Y-115246197D01*
X121892857Y-115246197D02*
X121869048Y-115341435D01*
X121869048Y-115341435D02*
X121869048Y-115531911D01*
X121869048Y-115531911D02*
X121892857Y-115579530D01*
X121892857Y-115579530D02*
X121916667Y-115603340D01*
X121916667Y-115603340D02*
X121964286Y-115627149D01*
X121964286Y-115627149D02*
X122059524Y-115627149D01*
X122059524Y-115627149D02*
X122107143Y-115603340D01*
X122107143Y-115603340D02*
X122130952Y-115579530D01*
X122130952Y-115579530D02*
X122154762Y-115531911D01*
X122154762Y-115531911D02*
X122154762Y-115412863D01*
X122154762Y-115412863D02*
X122130952Y-115365244D01*
X122130952Y-115365244D02*
X122107143Y-115341435D01*
X122107143Y-115341435D02*
X122059524Y-115317625D01*
X122059524Y-115317625D02*
X121964286Y-115317625D01*
X121964286Y-115317625D02*
X121916667Y-115341435D01*
X121916667Y-115341435D02*
X121892857Y-115365244D01*
X121892857Y-115365244D02*
X121869048Y-115412863D01*
X121707392Y-112084649D02*
X121540726Y-111846554D01*
X121421678Y-112084649D02*
X121421678Y-111584649D01*
X121421678Y-111584649D02*
X121612154Y-111584649D01*
X121612154Y-111584649D02*
X121659773Y-111608459D01*
X121659773Y-111608459D02*
X121683583Y-111632268D01*
X121683583Y-111632268D02*
X121707392Y-111679887D01*
X121707392Y-111679887D02*
X121707392Y-111751316D01*
X121707392Y-111751316D02*
X121683583Y-111798935D01*
X121683583Y-111798935D02*
X121659773Y-111822744D01*
X121659773Y-111822744D02*
X121612154Y-111846554D01*
X121612154Y-111846554D02*
X121421678Y-111846554D01*
X121897869Y-111941792D02*
X122135964Y-111941792D01*
X121850250Y-112084649D02*
X122016916Y-111584649D01*
X122016916Y-111584649D02*
X122183583Y-112084649D01*
X122588344Y-112084649D02*
X122350249Y-112084649D01*
X122350249Y-112084649D02*
X122350249Y-111584649D01*
X122683583Y-111584649D02*
X122969297Y-111584649D01*
X122826440Y-112084649D02*
X122826440Y-111584649D01*
X120345239Y-108603340D02*
X120416667Y-108627149D01*
X120416667Y-108627149D02*
X120535715Y-108627149D01*
X120535715Y-108627149D02*
X120583334Y-108603340D01*
X120583334Y-108603340D02*
X120607143Y-108579530D01*
X120607143Y-108579530D02*
X120630953Y-108531911D01*
X120630953Y-108531911D02*
X120630953Y-108484292D01*
X120630953Y-108484292D02*
X120607143Y-108436673D01*
X120607143Y-108436673D02*
X120583334Y-108412863D01*
X120583334Y-108412863D02*
X120535715Y-108389054D01*
X120535715Y-108389054D02*
X120440477Y-108365244D01*
X120440477Y-108365244D02*
X120392858Y-108341435D01*
X120392858Y-108341435D02*
X120369048Y-108317625D01*
X120369048Y-108317625D02*
X120345239Y-108270006D01*
X120345239Y-108270006D02*
X120345239Y-108222387D01*
X120345239Y-108222387D02*
X120369048Y-108174768D01*
X120369048Y-108174768D02*
X120392858Y-108150959D01*
X120392858Y-108150959D02*
X120440477Y-108127149D01*
X120440477Y-108127149D02*
X120559524Y-108127149D01*
X120559524Y-108127149D02*
X120630953Y-108150959D01*
X120797619Y-108127149D02*
X120916667Y-108627149D01*
X120916667Y-108627149D02*
X121011905Y-108270006D01*
X121011905Y-108270006D02*
X121107143Y-108627149D01*
X121107143Y-108627149D02*
X121226191Y-108127149D01*
X121369048Y-108127149D02*
X121678572Y-108127149D01*
X121678572Y-108127149D02*
X121511905Y-108317625D01*
X121511905Y-108317625D02*
X121583334Y-108317625D01*
X121583334Y-108317625D02*
X121630953Y-108341435D01*
X121630953Y-108341435D02*
X121654762Y-108365244D01*
X121654762Y-108365244D02*
X121678572Y-108412863D01*
X121678572Y-108412863D02*
X121678572Y-108531911D01*
X121678572Y-108531911D02*
X121654762Y-108579530D01*
X121654762Y-108579530D02*
X121630953Y-108603340D01*
X121630953Y-108603340D02*
X121583334Y-108627149D01*
X121583334Y-108627149D02*
X121440477Y-108627149D01*
X121440477Y-108627149D02*
X121392858Y-108603340D01*
X121392858Y-108603340D02*
X121369048Y-108579530D01*
X121845238Y-108127149D02*
X122178571Y-108127149D01*
X122178571Y-108127149D02*
X121964286Y-108627149D01*
X121421678Y-105084649D02*
X121421678Y-104584649D01*
X121421678Y-104584649D02*
X121707392Y-105084649D01*
X121707392Y-105084649D02*
X121707392Y-104584649D01*
X109583334Y-87603340D02*
X109654762Y-87627149D01*
X109654762Y-87627149D02*
X109773810Y-87627149D01*
X109773810Y-87627149D02*
X109821429Y-87603340D01*
X109821429Y-87603340D02*
X109845238Y-87579530D01*
X109845238Y-87579530D02*
X109869048Y-87531911D01*
X109869048Y-87531911D02*
X109869048Y-87484292D01*
X109869048Y-87484292D02*
X109845238Y-87436673D01*
X109845238Y-87436673D02*
X109821429Y-87412863D01*
X109821429Y-87412863D02*
X109773810Y-87389054D01*
X109773810Y-87389054D02*
X109678572Y-87365244D01*
X109678572Y-87365244D02*
X109630953Y-87341435D01*
X109630953Y-87341435D02*
X109607143Y-87317625D01*
X109607143Y-87317625D02*
X109583334Y-87270006D01*
X109583334Y-87270006D02*
X109583334Y-87222387D01*
X109583334Y-87222387D02*
X109607143Y-87174768D01*
X109607143Y-87174768D02*
X109630953Y-87150959D01*
X109630953Y-87150959D02*
X109678572Y-87127149D01*
X109678572Y-87127149D02*
X109797619Y-87127149D01*
X109797619Y-87127149D02*
X109869048Y-87150959D01*
X110035714Y-87127149D02*
X110154762Y-87627149D01*
X110154762Y-87627149D02*
X110250000Y-87270006D01*
X110250000Y-87270006D02*
X110345238Y-87627149D01*
X110345238Y-87627149D02*
X110464286Y-87127149D01*
X110892857Y-87127149D02*
X110654762Y-87127149D01*
X110654762Y-87127149D02*
X110630953Y-87365244D01*
X110630953Y-87365244D02*
X110654762Y-87341435D01*
X110654762Y-87341435D02*
X110702381Y-87317625D01*
X110702381Y-87317625D02*
X110821429Y-87317625D01*
X110821429Y-87317625D02*
X110869048Y-87341435D01*
X110869048Y-87341435D02*
X110892857Y-87365244D01*
X110892857Y-87365244D02*
X110916667Y-87412863D01*
X110916667Y-87412863D02*
X110916667Y-87531911D01*
X110916667Y-87531911D02*
X110892857Y-87579530D01*
X110892857Y-87579530D02*
X110869048Y-87603340D01*
X110869048Y-87603340D02*
X110821429Y-87627149D01*
X110821429Y-87627149D02*
X110702381Y-87627149D01*
X110702381Y-87627149D02*
X110654762Y-87603340D01*
X110654762Y-87603340D02*
X110630953Y-87579530D01*
X110659773Y-83584649D02*
X110421678Y-83584649D01*
X110421678Y-83584649D02*
X110397869Y-83822744D01*
X110397869Y-83822744D02*
X110421678Y-83798935D01*
X110421678Y-83798935D02*
X110469297Y-83775125D01*
X110469297Y-83775125D02*
X110588345Y-83775125D01*
X110588345Y-83775125D02*
X110635964Y-83798935D01*
X110635964Y-83798935D02*
X110659773Y-83822744D01*
X110659773Y-83822744D02*
X110683583Y-83870363D01*
X110683583Y-83870363D02*
X110683583Y-83989411D01*
X110683583Y-83989411D02*
X110659773Y-84037030D01*
X110659773Y-84037030D02*
X110635964Y-84060840D01*
X110635964Y-84060840D02*
X110588345Y-84084649D01*
X110588345Y-84084649D02*
X110469297Y-84084649D01*
X110469297Y-84084649D02*
X110421678Y-84060840D01*
X110421678Y-84060840D02*
X110397869Y-84037030D01*
X136845239Y-87603340D02*
X136916667Y-87627149D01*
X136916667Y-87627149D02*
X137035715Y-87627149D01*
X137035715Y-87627149D02*
X137083334Y-87603340D01*
X137083334Y-87603340D02*
X137107143Y-87579530D01*
X137107143Y-87579530D02*
X137130953Y-87531911D01*
X137130953Y-87531911D02*
X137130953Y-87484292D01*
X137130953Y-87484292D02*
X137107143Y-87436673D01*
X137107143Y-87436673D02*
X137083334Y-87412863D01*
X137083334Y-87412863D02*
X137035715Y-87389054D01*
X137035715Y-87389054D02*
X136940477Y-87365244D01*
X136940477Y-87365244D02*
X136892858Y-87341435D01*
X136892858Y-87341435D02*
X136869048Y-87317625D01*
X136869048Y-87317625D02*
X136845239Y-87270006D01*
X136845239Y-87270006D02*
X136845239Y-87222387D01*
X136845239Y-87222387D02*
X136869048Y-87174768D01*
X136869048Y-87174768D02*
X136892858Y-87150959D01*
X136892858Y-87150959D02*
X136940477Y-87127149D01*
X136940477Y-87127149D02*
X137059524Y-87127149D01*
X137059524Y-87127149D02*
X137130953Y-87150959D01*
X137297619Y-87127149D02*
X137416667Y-87627149D01*
X137416667Y-87627149D02*
X137511905Y-87270006D01*
X137511905Y-87270006D02*
X137607143Y-87627149D01*
X137607143Y-87627149D02*
X137726191Y-87127149D01*
X138178572Y-87627149D02*
X137892858Y-87627149D01*
X138035715Y-87627149D02*
X138035715Y-87127149D01*
X138035715Y-87127149D02*
X137988096Y-87198578D01*
X137988096Y-87198578D02*
X137940477Y-87246197D01*
X137940477Y-87246197D02*
X137892858Y-87270006D01*
X138488095Y-87127149D02*
X138535714Y-87127149D01*
X138535714Y-87127149D02*
X138583333Y-87150959D01*
X138583333Y-87150959D02*
X138607143Y-87174768D01*
X138607143Y-87174768D02*
X138630952Y-87222387D01*
X138630952Y-87222387D02*
X138654762Y-87317625D01*
X138654762Y-87317625D02*
X138654762Y-87436673D01*
X138654762Y-87436673D02*
X138630952Y-87531911D01*
X138630952Y-87531911D02*
X138607143Y-87579530D01*
X138607143Y-87579530D02*
X138583333Y-87603340D01*
X138583333Y-87603340D02*
X138535714Y-87627149D01*
X138535714Y-87627149D02*
X138488095Y-87627149D01*
X138488095Y-87627149D02*
X138440476Y-87603340D01*
X138440476Y-87603340D02*
X138416667Y-87579530D01*
X138416667Y-87579530D02*
X138392857Y-87531911D01*
X138392857Y-87531911D02*
X138369048Y-87436673D01*
X138369048Y-87436673D02*
X138369048Y-87317625D01*
X138369048Y-87317625D02*
X138392857Y-87222387D01*
X138392857Y-87222387D02*
X138416667Y-87174768D01*
X138416667Y-87174768D02*
X138440476Y-87150959D01*
X138440476Y-87150959D02*
X138488095Y-87127149D01*
X138016916Y-83584649D02*
X138064535Y-83584649D01*
X138064535Y-83584649D02*
X138112154Y-83608459D01*
X138112154Y-83608459D02*
X138135964Y-83632268D01*
X138135964Y-83632268D02*
X138159773Y-83679887D01*
X138159773Y-83679887D02*
X138183583Y-83775125D01*
X138183583Y-83775125D02*
X138183583Y-83894173D01*
X138183583Y-83894173D02*
X138159773Y-83989411D01*
X138159773Y-83989411D02*
X138135964Y-84037030D01*
X138135964Y-84037030D02*
X138112154Y-84060840D01*
X138112154Y-84060840D02*
X138064535Y-84084649D01*
X138064535Y-84084649D02*
X138016916Y-84084649D01*
X138016916Y-84084649D02*
X137969297Y-84060840D01*
X137969297Y-84060840D02*
X137945488Y-84037030D01*
X137945488Y-84037030D02*
X137921678Y-83989411D01*
X137921678Y-83989411D02*
X137897869Y-83894173D01*
X137897869Y-83894173D02*
X137897869Y-83775125D01*
X137897869Y-83775125D02*
X137921678Y-83679887D01*
X137921678Y-83679887D02*
X137945488Y-83632268D01*
X137945488Y-83632268D02*
X137969297Y-83608459D01*
X137969297Y-83608459D02*
X138016916Y-83584649D01*
X120345239Y-94603340D02*
X120416667Y-94627149D01*
X120416667Y-94627149D02*
X120535715Y-94627149D01*
X120535715Y-94627149D02*
X120583334Y-94603340D01*
X120583334Y-94603340D02*
X120607143Y-94579530D01*
X120607143Y-94579530D02*
X120630953Y-94531911D01*
X120630953Y-94531911D02*
X120630953Y-94484292D01*
X120630953Y-94484292D02*
X120607143Y-94436673D01*
X120607143Y-94436673D02*
X120583334Y-94412863D01*
X120583334Y-94412863D02*
X120535715Y-94389054D01*
X120535715Y-94389054D02*
X120440477Y-94365244D01*
X120440477Y-94365244D02*
X120392858Y-94341435D01*
X120392858Y-94341435D02*
X120369048Y-94317625D01*
X120369048Y-94317625D02*
X120345239Y-94270006D01*
X120345239Y-94270006D02*
X120345239Y-94222387D01*
X120345239Y-94222387D02*
X120369048Y-94174768D01*
X120369048Y-94174768D02*
X120392858Y-94150959D01*
X120392858Y-94150959D02*
X120440477Y-94127149D01*
X120440477Y-94127149D02*
X120559524Y-94127149D01*
X120559524Y-94127149D02*
X120630953Y-94150959D01*
X120797619Y-94127149D02*
X120916667Y-94627149D01*
X120916667Y-94627149D02*
X121011905Y-94270006D01*
X121011905Y-94270006D02*
X121107143Y-94627149D01*
X121107143Y-94627149D02*
X121226191Y-94127149D01*
X121678572Y-94627149D02*
X121392858Y-94627149D01*
X121535715Y-94627149D02*
X121535715Y-94127149D01*
X121535715Y-94127149D02*
X121488096Y-94198578D01*
X121488096Y-94198578D02*
X121440477Y-94246197D01*
X121440477Y-94246197D02*
X121392858Y-94270006D01*
X121845238Y-94127149D02*
X122178571Y-94127149D01*
X122178571Y-94127149D02*
X121964286Y-94627149D01*
X121421678Y-90584649D02*
X121421678Y-90989411D01*
X121421678Y-90989411D02*
X121445488Y-91037030D01*
X121445488Y-91037030D02*
X121469297Y-91060840D01*
X121469297Y-91060840D02*
X121516916Y-91084649D01*
X121516916Y-91084649D02*
X121612154Y-91084649D01*
X121612154Y-91084649D02*
X121659773Y-91060840D01*
X121659773Y-91060840D02*
X121683583Y-91037030D01*
X121683583Y-91037030D02*
X121707392Y-90989411D01*
X121707392Y-90989411D02*
X121707392Y-90584649D01*
X131345239Y-94603340D02*
X131416667Y-94627149D01*
X131416667Y-94627149D02*
X131535715Y-94627149D01*
X131535715Y-94627149D02*
X131583334Y-94603340D01*
X131583334Y-94603340D02*
X131607143Y-94579530D01*
X131607143Y-94579530D02*
X131630953Y-94531911D01*
X131630953Y-94531911D02*
X131630953Y-94484292D01*
X131630953Y-94484292D02*
X131607143Y-94436673D01*
X131607143Y-94436673D02*
X131583334Y-94412863D01*
X131583334Y-94412863D02*
X131535715Y-94389054D01*
X131535715Y-94389054D02*
X131440477Y-94365244D01*
X131440477Y-94365244D02*
X131392858Y-94341435D01*
X131392858Y-94341435D02*
X131369048Y-94317625D01*
X131369048Y-94317625D02*
X131345239Y-94270006D01*
X131345239Y-94270006D02*
X131345239Y-94222387D01*
X131345239Y-94222387D02*
X131369048Y-94174768D01*
X131369048Y-94174768D02*
X131392858Y-94150959D01*
X131392858Y-94150959D02*
X131440477Y-94127149D01*
X131440477Y-94127149D02*
X131559524Y-94127149D01*
X131559524Y-94127149D02*
X131630953Y-94150959D01*
X131797619Y-94127149D02*
X131916667Y-94627149D01*
X131916667Y-94627149D02*
X132011905Y-94270006D01*
X132011905Y-94270006D02*
X132107143Y-94627149D01*
X132107143Y-94627149D02*
X132226191Y-94127149D01*
X132678572Y-94627149D02*
X132392858Y-94627149D01*
X132535715Y-94627149D02*
X132535715Y-94127149D01*
X132535715Y-94127149D02*
X132488096Y-94198578D01*
X132488096Y-94198578D02*
X132440477Y-94246197D01*
X132440477Y-94246197D02*
X132392858Y-94270006D01*
X132916667Y-94627149D02*
X133011905Y-94627149D01*
X133011905Y-94627149D02*
X133059524Y-94603340D01*
X133059524Y-94603340D02*
X133083333Y-94579530D01*
X133083333Y-94579530D02*
X133130952Y-94508101D01*
X133130952Y-94508101D02*
X133154762Y-94412863D01*
X133154762Y-94412863D02*
X133154762Y-94222387D01*
X133154762Y-94222387D02*
X133130952Y-94174768D01*
X133130952Y-94174768D02*
X133107143Y-94150959D01*
X133107143Y-94150959D02*
X133059524Y-94127149D01*
X133059524Y-94127149D02*
X132964286Y-94127149D01*
X132964286Y-94127149D02*
X132916667Y-94150959D01*
X132916667Y-94150959D02*
X132892857Y-94174768D01*
X132892857Y-94174768D02*
X132869048Y-94222387D01*
X132869048Y-94222387D02*
X132869048Y-94341435D01*
X132869048Y-94341435D02*
X132892857Y-94389054D01*
X132892857Y-94389054D02*
X132916667Y-94412863D01*
X132916667Y-94412863D02*
X132964286Y-94436673D01*
X132964286Y-94436673D02*
X133059524Y-94436673D01*
X133059524Y-94436673D02*
X133107143Y-94412863D01*
X133107143Y-94412863D02*
X133130952Y-94389054D01*
X133130952Y-94389054D02*
X133154762Y-94341435D01*
X132516916Y-90584649D02*
X132612154Y-90584649D01*
X132612154Y-90584649D02*
X132659773Y-90608459D01*
X132659773Y-90608459D02*
X132707392Y-90656078D01*
X132707392Y-90656078D02*
X132731202Y-90751316D01*
X132731202Y-90751316D02*
X132731202Y-90917982D01*
X132731202Y-90917982D02*
X132707392Y-91013220D01*
X132707392Y-91013220D02*
X132659773Y-91060840D01*
X132659773Y-91060840D02*
X132612154Y-91084649D01*
X132612154Y-91084649D02*
X132516916Y-91084649D01*
X132516916Y-91084649D02*
X132469297Y-91060840D01*
X132469297Y-91060840D02*
X132421678Y-91013220D01*
X132421678Y-91013220D02*
X132397869Y-90917982D01*
X132397869Y-90917982D02*
X132397869Y-90751316D01*
X132397869Y-90751316D02*
X132421678Y-90656078D01*
X132421678Y-90656078D02*
X132469297Y-90608459D01*
X132469297Y-90608459D02*
X132516916Y-90584649D01*
X87345239Y-115603340D02*
X87416667Y-115627149D01*
X87416667Y-115627149D02*
X87535715Y-115627149D01*
X87535715Y-115627149D02*
X87583334Y-115603340D01*
X87583334Y-115603340D02*
X87607143Y-115579530D01*
X87607143Y-115579530D02*
X87630953Y-115531911D01*
X87630953Y-115531911D02*
X87630953Y-115484292D01*
X87630953Y-115484292D02*
X87607143Y-115436673D01*
X87607143Y-115436673D02*
X87583334Y-115412863D01*
X87583334Y-115412863D02*
X87535715Y-115389054D01*
X87535715Y-115389054D02*
X87440477Y-115365244D01*
X87440477Y-115365244D02*
X87392858Y-115341435D01*
X87392858Y-115341435D02*
X87369048Y-115317625D01*
X87369048Y-115317625D02*
X87345239Y-115270006D01*
X87345239Y-115270006D02*
X87345239Y-115222387D01*
X87345239Y-115222387D02*
X87369048Y-115174768D01*
X87369048Y-115174768D02*
X87392858Y-115150959D01*
X87392858Y-115150959D02*
X87440477Y-115127149D01*
X87440477Y-115127149D02*
X87559524Y-115127149D01*
X87559524Y-115127149D02*
X87630953Y-115150959D01*
X87797619Y-115127149D02*
X87916667Y-115627149D01*
X87916667Y-115627149D02*
X88011905Y-115270006D01*
X88011905Y-115270006D02*
X88107143Y-115627149D01*
X88107143Y-115627149D02*
X88226191Y-115127149D01*
X88630953Y-115293816D02*
X88630953Y-115627149D01*
X88511905Y-115103340D02*
X88392858Y-115460482D01*
X88392858Y-115460482D02*
X88702381Y-115460482D01*
X89154762Y-115627149D02*
X88869048Y-115627149D01*
X89011905Y-115627149D02*
X89011905Y-115127149D01*
X89011905Y-115127149D02*
X88964286Y-115198578D01*
X88964286Y-115198578D02*
X88916667Y-115246197D01*
X88916667Y-115246197D02*
X88869048Y-115270006D01*
X88707392Y-112037030D02*
X88683583Y-112060840D01*
X88683583Y-112060840D02*
X88612154Y-112084649D01*
X88612154Y-112084649D02*
X88564535Y-112084649D01*
X88564535Y-112084649D02*
X88493107Y-112060840D01*
X88493107Y-112060840D02*
X88445488Y-112013220D01*
X88445488Y-112013220D02*
X88421678Y-111965601D01*
X88421678Y-111965601D02*
X88397869Y-111870363D01*
X88397869Y-111870363D02*
X88397869Y-111798935D01*
X88397869Y-111798935D02*
X88421678Y-111703697D01*
X88421678Y-111703697D02*
X88445488Y-111656078D01*
X88445488Y-111656078D02*
X88493107Y-111608459D01*
X88493107Y-111608459D02*
X88564535Y-111584649D01*
X88564535Y-111584649D02*
X88612154Y-111584649D01*
X88612154Y-111584649D02*
X88683583Y-111608459D01*
X88683583Y-111608459D02*
X88707392Y-111632268D01*
X88850250Y-111584649D02*
X89135964Y-111584649D01*
X88993107Y-112084649D02*
X88993107Y-111584649D01*
X89588344Y-112084649D02*
X89421678Y-111846554D01*
X89302630Y-112084649D02*
X89302630Y-111584649D01*
X89302630Y-111584649D02*
X89493106Y-111584649D01*
X89493106Y-111584649D02*
X89540725Y-111608459D01*
X89540725Y-111608459D02*
X89564535Y-111632268D01*
X89564535Y-111632268D02*
X89588344Y-111679887D01*
X89588344Y-111679887D02*
X89588344Y-111751316D01*
X89588344Y-111751316D02*
X89564535Y-111798935D01*
X89564535Y-111798935D02*
X89540725Y-111822744D01*
X89540725Y-111822744D02*
X89493106Y-111846554D01*
X89493106Y-111846554D02*
X89302630Y-111846554D01*
X90040725Y-112084649D02*
X89802630Y-112084649D01*
X89802630Y-112084649D02*
X89802630Y-111584649D01*
X114845239Y-101603340D02*
X114916667Y-101627149D01*
X114916667Y-101627149D02*
X115035715Y-101627149D01*
X115035715Y-101627149D02*
X115083334Y-101603340D01*
X115083334Y-101603340D02*
X115107143Y-101579530D01*
X115107143Y-101579530D02*
X115130953Y-101531911D01*
X115130953Y-101531911D02*
X115130953Y-101484292D01*
X115130953Y-101484292D02*
X115107143Y-101436673D01*
X115107143Y-101436673D02*
X115083334Y-101412863D01*
X115083334Y-101412863D02*
X115035715Y-101389054D01*
X115035715Y-101389054D02*
X114940477Y-101365244D01*
X114940477Y-101365244D02*
X114892858Y-101341435D01*
X114892858Y-101341435D02*
X114869048Y-101317625D01*
X114869048Y-101317625D02*
X114845239Y-101270006D01*
X114845239Y-101270006D02*
X114845239Y-101222387D01*
X114845239Y-101222387D02*
X114869048Y-101174768D01*
X114869048Y-101174768D02*
X114892858Y-101150959D01*
X114892858Y-101150959D02*
X114940477Y-101127149D01*
X114940477Y-101127149D02*
X115059524Y-101127149D01*
X115059524Y-101127149D02*
X115130953Y-101150959D01*
X115297619Y-101127149D02*
X115416667Y-101627149D01*
X115416667Y-101627149D02*
X115511905Y-101270006D01*
X115511905Y-101270006D02*
X115607143Y-101627149D01*
X115607143Y-101627149D02*
X115726191Y-101127149D01*
X115892858Y-101174768D02*
X115916667Y-101150959D01*
X115916667Y-101150959D02*
X115964286Y-101127149D01*
X115964286Y-101127149D02*
X116083334Y-101127149D01*
X116083334Y-101127149D02*
X116130953Y-101150959D01*
X116130953Y-101150959D02*
X116154762Y-101174768D01*
X116154762Y-101174768D02*
X116178572Y-101222387D01*
X116178572Y-101222387D02*
X116178572Y-101270006D01*
X116178572Y-101270006D02*
X116154762Y-101341435D01*
X116154762Y-101341435D02*
X115869048Y-101627149D01*
X115869048Y-101627149D02*
X116178572Y-101627149D01*
X116607143Y-101127149D02*
X116511905Y-101127149D01*
X116511905Y-101127149D02*
X116464286Y-101150959D01*
X116464286Y-101150959D02*
X116440476Y-101174768D01*
X116440476Y-101174768D02*
X116392857Y-101246197D01*
X116392857Y-101246197D02*
X116369048Y-101341435D01*
X116369048Y-101341435D02*
X116369048Y-101531911D01*
X116369048Y-101531911D02*
X116392857Y-101579530D01*
X116392857Y-101579530D02*
X116416667Y-101603340D01*
X116416667Y-101603340D02*
X116464286Y-101627149D01*
X116464286Y-101627149D02*
X116559524Y-101627149D01*
X116559524Y-101627149D02*
X116607143Y-101603340D01*
X116607143Y-101603340D02*
X116630952Y-101579530D01*
X116630952Y-101579530D02*
X116654762Y-101531911D01*
X116654762Y-101531911D02*
X116654762Y-101412863D01*
X116654762Y-101412863D02*
X116630952Y-101365244D01*
X116630952Y-101365244D02*
X116607143Y-101341435D01*
X116607143Y-101341435D02*
X116559524Y-101317625D01*
X116559524Y-101317625D02*
X116464286Y-101317625D01*
X116464286Y-101317625D02*
X116416667Y-101341435D01*
X116416667Y-101341435D02*
X116392857Y-101365244D01*
X116392857Y-101365244D02*
X116369048Y-101412863D01*
X115921678Y-98084649D02*
X115921678Y-97584649D01*
X115921678Y-97822744D02*
X116207392Y-97822744D01*
X116207392Y-98084649D02*
X116207392Y-97584649D01*
X136845239Y-115603340D02*
X136916667Y-115627149D01*
X136916667Y-115627149D02*
X137035715Y-115627149D01*
X137035715Y-115627149D02*
X137083334Y-115603340D01*
X137083334Y-115603340D02*
X137107143Y-115579530D01*
X137107143Y-115579530D02*
X137130953Y-115531911D01*
X137130953Y-115531911D02*
X137130953Y-115484292D01*
X137130953Y-115484292D02*
X137107143Y-115436673D01*
X137107143Y-115436673D02*
X137083334Y-115412863D01*
X137083334Y-115412863D02*
X137035715Y-115389054D01*
X137035715Y-115389054D02*
X136940477Y-115365244D01*
X136940477Y-115365244D02*
X136892858Y-115341435D01*
X136892858Y-115341435D02*
X136869048Y-115317625D01*
X136869048Y-115317625D02*
X136845239Y-115270006D01*
X136845239Y-115270006D02*
X136845239Y-115222387D01*
X136845239Y-115222387D02*
X136869048Y-115174768D01*
X136869048Y-115174768D02*
X136892858Y-115150959D01*
X136892858Y-115150959D02*
X136940477Y-115127149D01*
X136940477Y-115127149D02*
X137059524Y-115127149D01*
X137059524Y-115127149D02*
X137130953Y-115150959D01*
X137297619Y-115127149D02*
X137416667Y-115627149D01*
X137416667Y-115627149D02*
X137511905Y-115270006D01*
X137511905Y-115270006D02*
X137607143Y-115627149D01*
X137607143Y-115627149D02*
X137726191Y-115127149D01*
X138130953Y-115293816D02*
X138130953Y-115627149D01*
X138011905Y-115103340D02*
X137892858Y-115460482D01*
X137892858Y-115460482D02*
X138202381Y-115460482D01*
X138416667Y-115627149D02*
X138511905Y-115627149D01*
X138511905Y-115627149D02*
X138559524Y-115603340D01*
X138559524Y-115603340D02*
X138583333Y-115579530D01*
X138583333Y-115579530D02*
X138630952Y-115508101D01*
X138630952Y-115508101D02*
X138654762Y-115412863D01*
X138654762Y-115412863D02*
X138654762Y-115222387D01*
X138654762Y-115222387D02*
X138630952Y-115174768D01*
X138630952Y-115174768D02*
X138607143Y-115150959D01*
X138607143Y-115150959D02*
X138559524Y-115127149D01*
X138559524Y-115127149D02*
X138464286Y-115127149D01*
X138464286Y-115127149D02*
X138416667Y-115150959D01*
X138416667Y-115150959D02*
X138392857Y-115174768D01*
X138392857Y-115174768D02*
X138369048Y-115222387D01*
X138369048Y-115222387D02*
X138369048Y-115341435D01*
X138369048Y-115341435D02*
X138392857Y-115389054D01*
X138392857Y-115389054D02*
X138416667Y-115412863D01*
X138416667Y-115412863D02*
X138464286Y-115436673D01*
X138464286Y-115436673D02*
X138559524Y-115436673D01*
X138559524Y-115436673D02*
X138607143Y-115412863D01*
X138607143Y-115412863D02*
X138630952Y-115389054D01*
X138630952Y-115389054D02*
X138654762Y-115341435D01*
X137921678Y-112084649D02*
X137921678Y-111584649D01*
X137921678Y-111584649D02*
X138040726Y-111584649D01*
X138040726Y-111584649D02*
X138112154Y-111608459D01*
X138112154Y-111608459D02*
X138159773Y-111656078D01*
X138159773Y-111656078D02*
X138183583Y-111703697D01*
X138183583Y-111703697D02*
X138207392Y-111798935D01*
X138207392Y-111798935D02*
X138207392Y-111870363D01*
X138207392Y-111870363D02*
X138183583Y-111965601D01*
X138183583Y-111965601D02*
X138159773Y-112013220D01*
X138159773Y-112013220D02*
X138112154Y-112060840D01*
X138112154Y-112060840D02*
X138040726Y-112084649D01*
X138040726Y-112084649D02*
X137921678Y-112084649D01*
X138421678Y-112084649D02*
X138421678Y-111584649D01*
X138421678Y-111584649D02*
X138707392Y-112084649D01*
X138707392Y-112084649D02*
X138707392Y-111584649D01*
X87345239Y-108603340D02*
X87416667Y-108627149D01*
X87416667Y-108627149D02*
X87535715Y-108627149D01*
X87535715Y-108627149D02*
X87583334Y-108603340D01*
X87583334Y-108603340D02*
X87607143Y-108579530D01*
X87607143Y-108579530D02*
X87630953Y-108531911D01*
X87630953Y-108531911D02*
X87630953Y-108484292D01*
X87630953Y-108484292D02*
X87607143Y-108436673D01*
X87607143Y-108436673D02*
X87583334Y-108412863D01*
X87583334Y-108412863D02*
X87535715Y-108389054D01*
X87535715Y-108389054D02*
X87440477Y-108365244D01*
X87440477Y-108365244D02*
X87392858Y-108341435D01*
X87392858Y-108341435D02*
X87369048Y-108317625D01*
X87369048Y-108317625D02*
X87345239Y-108270006D01*
X87345239Y-108270006D02*
X87345239Y-108222387D01*
X87345239Y-108222387D02*
X87369048Y-108174768D01*
X87369048Y-108174768D02*
X87392858Y-108150959D01*
X87392858Y-108150959D02*
X87440477Y-108127149D01*
X87440477Y-108127149D02*
X87559524Y-108127149D01*
X87559524Y-108127149D02*
X87630953Y-108150959D01*
X87797619Y-108127149D02*
X87916667Y-108627149D01*
X87916667Y-108627149D02*
X88011905Y-108270006D01*
X88011905Y-108270006D02*
X88107143Y-108627149D01*
X88107143Y-108627149D02*
X88226191Y-108127149D01*
X88369048Y-108127149D02*
X88678572Y-108127149D01*
X88678572Y-108127149D02*
X88511905Y-108317625D01*
X88511905Y-108317625D02*
X88583334Y-108317625D01*
X88583334Y-108317625D02*
X88630953Y-108341435D01*
X88630953Y-108341435D02*
X88654762Y-108365244D01*
X88654762Y-108365244D02*
X88678572Y-108412863D01*
X88678572Y-108412863D02*
X88678572Y-108531911D01*
X88678572Y-108531911D02*
X88654762Y-108579530D01*
X88654762Y-108579530D02*
X88630953Y-108603340D01*
X88630953Y-108603340D02*
X88583334Y-108627149D01*
X88583334Y-108627149D02*
X88440477Y-108627149D01*
X88440477Y-108627149D02*
X88392858Y-108603340D01*
X88392858Y-108603340D02*
X88369048Y-108579530D01*
X89154762Y-108627149D02*
X88869048Y-108627149D01*
X89011905Y-108627149D02*
X89011905Y-108127149D01*
X89011905Y-108127149D02*
X88964286Y-108198578D01*
X88964286Y-108198578D02*
X88916667Y-108246197D01*
X88916667Y-108246197D02*
X88869048Y-108270006D01*
X88397869Y-105060840D02*
X88469297Y-105084649D01*
X88469297Y-105084649D02*
X88588345Y-105084649D01*
X88588345Y-105084649D02*
X88635964Y-105060840D01*
X88635964Y-105060840D02*
X88659773Y-105037030D01*
X88659773Y-105037030D02*
X88683583Y-104989411D01*
X88683583Y-104989411D02*
X88683583Y-104941792D01*
X88683583Y-104941792D02*
X88659773Y-104894173D01*
X88659773Y-104894173D02*
X88635964Y-104870363D01*
X88635964Y-104870363D02*
X88588345Y-104846554D01*
X88588345Y-104846554D02*
X88493107Y-104822744D01*
X88493107Y-104822744D02*
X88445488Y-104798935D01*
X88445488Y-104798935D02*
X88421678Y-104775125D01*
X88421678Y-104775125D02*
X88397869Y-104727506D01*
X88397869Y-104727506D02*
X88397869Y-104679887D01*
X88397869Y-104679887D02*
X88421678Y-104632268D01*
X88421678Y-104632268D02*
X88445488Y-104608459D01*
X88445488Y-104608459D02*
X88493107Y-104584649D01*
X88493107Y-104584649D02*
X88612154Y-104584649D01*
X88612154Y-104584649D02*
X88683583Y-104608459D01*
X88897868Y-105084649D02*
X88897868Y-104584649D01*
X88897868Y-104822744D02*
X89183582Y-104822744D01*
X89183582Y-105084649D02*
X89183582Y-104584649D01*
X89588345Y-104822744D02*
X89421678Y-104822744D01*
X89421678Y-105084649D02*
X89421678Y-104584649D01*
X89421678Y-104584649D02*
X89659773Y-104584649D01*
X89778821Y-104584649D02*
X90064535Y-104584649D01*
X89921678Y-105084649D02*
X89921678Y-104584649D01*
X112095239Y-115603340D02*
X112166667Y-115627149D01*
X112166667Y-115627149D02*
X112285715Y-115627149D01*
X112285715Y-115627149D02*
X112333334Y-115603340D01*
X112333334Y-115603340D02*
X112357143Y-115579530D01*
X112357143Y-115579530D02*
X112380953Y-115531911D01*
X112380953Y-115531911D02*
X112380953Y-115484292D01*
X112380953Y-115484292D02*
X112357143Y-115436673D01*
X112357143Y-115436673D02*
X112333334Y-115412863D01*
X112333334Y-115412863D02*
X112285715Y-115389054D01*
X112285715Y-115389054D02*
X112190477Y-115365244D01*
X112190477Y-115365244D02*
X112142858Y-115341435D01*
X112142858Y-115341435D02*
X112119048Y-115317625D01*
X112119048Y-115317625D02*
X112095239Y-115270006D01*
X112095239Y-115270006D02*
X112095239Y-115222387D01*
X112095239Y-115222387D02*
X112119048Y-115174768D01*
X112119048Y-115174768D02*
X112142858Y-115150959D01*
X112142858Y-115150959D02*
X112190477Y-115127149D01*
X112190477Y-115127149D02*
X112309524Y-115127149D01*
X112309524Y-115127149D02*
X112380953Y-115150959D01*
X112547619Y-115127149D02*
X112666667Y-115627149D01*
X112666667Y-115627149D02*
X112761905Y-115270006D01*
X112761905Y-115270006D02*
X112857143Y-115627149D01*
X112857143Y-115627149D02*
X112976191Y-115127149D01*
X113380953Y-115293816D02*
X113380953Y-115627149D01*
X113261905Y-115103340D02*
X113142858Y-115460482D01*
X113142858Y-115460482D02*
X113452381Y-115460482D01*
X113880952Y-115127149D02*
X113642857Y-115127149D01*
X113642857Y-115127149D02*
X113619048Y-115365244D01*
X113619048Y-115365244D02*
X113642857Y-115341435D01*
X113642857Y-115341435D02*
X113690476Y-115317625D01*
X113690476Y-115317625D02*
X113809524Y-115317625D01*
X113809524Y-115317625D02*
X113857143Y-115341435D01*
X113857143Y-115341435D02*
X113880952Y-115365244D01*
X113880952Y-115365244D02*
X113904762Y-115412863D01*
X113904762Y-115412863D02*
X113904762Y-115531911D01*
X113904762Y-115531911D02*
X113880952Y-115579530D01*
X113880952Y-115579530D02*
X113857143Y-115603340D01*
X113857143Y-115603340D02*
X113809524Y-115627149D01*
X113809524Y-115627149D02*
X113690476Y-115627149D01*
X113690476Y-115627149D02*
X113642857Y-115603340D01*
X113642857Y-115603340D02*
X113619048Y-115579530D01*
X113052631Y-112132268D02*
X113433583Y-112132268D01*
X113433583Y-112132268D02*
X113814535Y-112132268D01*
X93083334Y-87603340D02*
X93154762Y-87627149D01*
X93154762Y-87627149D02*
X93273810Y-87627149D01*
X93273810Y-87627149D02*
X93321429Y-87603340D01*
X93321429Y-87603340D02*
X93345238Y-87579530D01*
X93345238Y-87579530D02*
X93369048Y-87531911D01*
X93369048Y-87531911D02*
X93369048Y-87484292D01*
X93369048Y-87484292D02*
X93345238Y-87436673D01*
X93345238Y-87436673D02*
X93321429Y-87412863D01*
X93321429Y-87412863D02*
X93273810Y-87389054D01*
X93273810Y-87389054D02*
X93178572Y-87365244D01*
X93178572Y-87365244D02*
X93130953Y-87341435D01*
X93130953Y-87341435D02*
X93107143Y-87317625D01*
X93107143Y-87317625D02*
X93083334Y-87270006D01*
X93083334Y-87270006D02*
X93083334Y-87222387D01*
X93083334Y-87222387D02*
X93107143Y-87174768D01*
X93107143Y-87174768D02*
X93130953Y-87150959D01*
X93130953Y-87150959D02*
X93178572Y-87127149D01*
X93178572Y-87127149D02*
X93297619Y-87127149D01*
X93297619Y-87127149D02*
X93369048Y-87150959D01*
X93535714Y-87127149D02*
X93654762Y-87627149D01*
X93654762Y-87627149D02*
X93750000Y-87270006D01*
X93750000Y-87270006D02*
X93845238Y-87627149D01*
X93845238Y-87627149D02*
X93964286Y-87127149D01*
X94130953Y-87174768D02*
X94154762Y-87150959D01*
X94154762Y-87150959D02*
X94202381Y-87127149D01*
X94202381Y-87127149D02*
X94321429Y-87127149D01*
X94321429Y-87127149D02*
X94369048Y-87150959D01*
X94369048Y-87150959D02*
X94392857Y-87174768D01*
X94392857Y-87174768D02*
X94416667Y-87222387D01*
X94416667Y-87222387D02*
X94416667Y-87270006D01*
X94416667Y-87270006D02*
X94392857Y-87341435D01*
X94392857Y-87341435D02*
X94107143Y-87627149D01*
X94107143Y-87627149D02*
X94416667Y-87627149D01*
X93897869Y-83632268D02*
X93921678Y-83608459D01*
X93921678Y-83608459D02*
X93969297Y-83584649D01*
X93969297Y-83584649D02*
X94088345Y-83584649D01*
X94088345Y-83584649D02*
X94135964Y-83608459D01*
X94135964Y-83608459D02*
X94159773Y-83632268D01*
X94159773Y-83632268D02*
X94183583Y-83679887D01*
X94183583Y-83679887D02*
X94183583Y-83727506D01*
X94183583Y-83727506D02*
X94159773Y-83798935D01*
X94159773Y-83798935D02*
X93874059Y-84084649D01*
X93874059Y-84084649D02*
X94183583Y-84084649D01*
X115083334Y-87603340D02*
X115154762Y-87627149D01*
X115154762Y-87627149D02*
X115273810Y-87627149D01*
X115273810Y-87627149D02*
X115321429Y-87603340D01*
X115321429Y-87603340D02*
X115345238Y-87579530D01*
X115345238Y-87579530D02*
X115369048Y-87531911D01*
X115369048Y-87531911D02*
X115369048Y-87484292D01*
X115369048Y-87484292D02*
X115345238Y-87436673D01*
X115345238Y-87436673D02*
X115321429Y-87412863D01*
X115321429Y-87412863D02*
X115273810Y-87389054D01*
X115273810Y-87389054D02*
X115178572Y-87365244D01*
X115178572Y-87365244D02*
X115130953Y-87341435D01*
X115130953Y-87341435D02*
X115107143Y-87317625D01*
X115107143Y-87317625D02*
X115083334Y-87270006D01*
X115083334Y-87270006D02*
X115083334Y-87222387D01*
X115083334Y-87222387D02*
X115107143Y-87174768D01*
X115107143Y-87174768D02*
X115130953Y-87150959D01*
X115130953Y-87150959D02*
X115178572Y-87127149D01*
X115178572Y-87127149D02*
X115297619Y-87127149D01*
X115297619Y-87127149D02*
X115369048Y-87150959D01*
X115535714Y-87127149D02*
X115654762Y-87627149D01*
X115654762Y-87627149D02*
X115750000Y-87270006D01*
X115750000Y-87270006D02*
X115845238Y-87627149D01*
X115845238Y-87627149D02*
X115964286Y-87127149D01*
X116369048Y-87127149D02*
X116273810Y-87127149D01*
X116273810Y-87127149D02*
X116226191Y-87150959D01*
X116226191Y-87150959D02*
X116202381Y-87174768D01*
X116202381Y-87174768D02*
X116154762Y-87246197D01*
X116154762Y-87246197D02*
X116130953Y-87341435D01*
X116130953Y-87341435D02*
X116130953Y-87531911D01*
X116130953Y-87531911D02*
X116154762Y-87579530D01*
X116154762Y-87579530D02*
X116178572Y-87603340D01*
X116178572Y-87603340D02*
X116226191Y-87627149D01*
X116226191Y-87627149D02*
X116321429Y-87627149D01*
X116321429Y-87627149D02*
X116369048Y-87603340D01*
X116369048Y-87603340D02*
X116392857Y-87579530D01*
X116392857Y-87579530D02*
X116416667Y-87531911D01*
X116416667Y-87531911D02*
X116416667Y-87412863D01*
X116416667Y-87412863D02*
X116392857Y-87365244D01*
X116392857Y-87365244D02*
X116369048Y-87341435D01*
X116369048Y-87341435D02*
X116321429Y-87317625D01*
X116321429Y-87317625D02*
X116226191Y-87317625D01*
X116226191Y-87317625D02*
X116178572Y-87341435D01*
X116178572Y-87341435D02*
X116154762Y-87365244D01*
X116154762Y-87365244D02*
X116130953Y-87412863D01*
X116135964Y-83584649D02*
X116040726Y-83584649D01*
X116040726Y-83584649D02*
X115993107Y-83608459D01*
X115993107Y-83608459D02*
X115969297Y-83632268D01*
X115969297Y-83632268D02*
X115921678Y-83703697D01*
X115921678Y-83703697D02*
X115897869Y-83798935D01*
X115897869Y-83798935D02*
X115897869Y-83989411D01*
X115897869Y-83989411D02*
X115921678Y-84037030D01*
X115921678Y-84037030D02*
X115945488Y-84060840D01*
X115945488Y-84060840D02*
X115993107Y-84084649D01*
X115993107Y-84084649D02*
X116088345Y-84084649D01*
X116088345Y-84084649D02*
X116135964Y-84060840D01*
X116135964Y-84060840D02*
X116159773Y-84037030D01*
X116159773Y-84037030D02*
X116183583Y-83989411D01*
X116183583Y-83989411D02*
X116183583Y-83870363D01*
X116183583Y-83870363D02*
X116159773Y-83822744D01*
X116159773Y-83822744D02*
X116135964Y-83798935D01*
X116135964Y-83798935D02*
X116088345Y-83775125D01*
X116088345Y-83775125D02*
X115993107Y-83775125D01*
X115993107Y-83775125D02*
X115945488Y-83798935D01*
X115945488Y-83798935D02*
X115921678Y-83822744D01*
X115921678Y-83822744D02*
X115897869Y-83870363D01*
X131345239Y-108603340D02*
X131416667Y-108627149D01*
X131416667Y-108627149D02*
X131535715Y-108627149D01*
X131535715Y-108627149D02*
X131583334Y-108603340D01*
X131583334Y-108603340D02*
X131607143Y-108579530D01*
X131607143Y-108579530D02*
X131630953Y-108531911D01*
X131630953Y-108531911D02*
X131630953Y-108484292D01*
X131630953Y-108484292D02*
X131607143Y-108436673D01*
X131607143Y-108436673D02*
X131583334Y-108412863D01*
X131583334Y-108412863D02*
X131535715Y-108389054D01*
X131535715Y-108389054D02*
X131440477Y-108365244D01*
X131440477Y-108365244D02*
X131392858Y-108341435D01*
X131392858Y-108341435D02*
X131369048Y-108317625D01*
X131369048Y-108317625D02*
X131345239Y-108270006D01*
X131345239Y-108270006D02*
X131345239Y-108222387D01*
X131345239Y-108222387D02*
X131369048Y-108174768D01*
X131369048Y-108174768D02*
X131392858Y-108150959D01*
X131392858Y-108150959D02*
X131440477Y-108127149D01*
X131440477Y-108127149D02*
X131559524Y-108127149D01*
X131559524Y-108127149D02*
X131630953Y-108150959D01*
X131797619Y-108127149D02*
X131916667Y-108627149D01*
X131916667Y-108627149D02*
X132011905Y-108270006D01*
X132011905Y-108270006D02*
X132107143Y-108627149D01*
X132107143Y-108627149D02*
X132226191Y-108127149D01*
X132369048Y-108127149D02*
X132678572Y-108127149D01*
X132678572Y-108127149D02*
X132511905Y-108317625D01*
X132511905Y-108317625D02*
X132583334Y-108317625D01*
X132583334Y-108317625D02*
X132630953Y-108341435D01*
X132630953Y-108341435D02*
X132654762Y-108365244D01*
X132654762Y-108365244D02*
X132678572Y-108412863D01*
X132678572Y-108412863D02*
X132678572Y-108531911D01*
X132678572Y-108531911D02*
X132654762Y-108579530D01*
X132654762Y-108579530D02*
X132630953Y-108603340D01*
X132630953Y-108603340D02*
X132583334Y-108627149D01*
X132583334Y-108627149D02*
X132440477Y-108627149D01*
X132440477Y-108627149D02*
X132392858Y-108603340D01*
X132392858Y-108603340D02*
X132369048Y-108579530D01*
X132916667Y-108627149D02*
X133011905Y-108627149D01*
X133011905Y-108627149D02*
X133059524Y-108603340D01*
X133059524Y-108603340D02*
X133083333Y-108579530D01*
X133083333Y-108579530D02*
X133130952Y-108508101D01*
X133130952Y-108508101D02*
X133154762Y-108412863D01*
X133154762Y-108412863D02*
X133154762Y-108222387D01*
X133154762Y-108222387D02*
X133130952Y-108174768D01*
X133130952Y-108174768D02*
X133107143Y-108150959D01*
X133107143Y-108150959D02*
X133059524Y-108127149D01*
X133059524Y-108127149D02*
X132964286Y-108127149D01*
X132964286Y-108127149D02*
X132916667Y-108150959D01*
X132916667Y-108150959D02*
X132892857Y-108174768D01*
X132892857Y-108174768D02*
X132869048Y-108222387D01*
X132869048Y-108222387D02*
X132869048Y-108341435D01*
X132869048Y-108341435D02*
X132892857Y-108389054D01*
X132892857Y-108389054D02*
X132916667Y-108412863D01*
X132916667Y-108412863D02*
X132964286Y-108436673D01*
X132964286Y-108436673D02*
X133059524Y-108436673D01*
X133059524Y-108436673D02*
X133107143Y-108412863D01*
X133107143Y-108412863D02*
X133130952Y-108389054D01*
X133130952Y-108389054D02*
X133154762Y-108341435D01*
X132397869Y-105060840D02*
X132469297Y-105084649D01*
X132469297Y-105084649D02*
X132588345Y-105084649D01*
X132588345Y-105084649D02*
X132635964Y-105060840D01*
X132635964Y-105060840D02*
X132659773Y-105037030D01*
X132659773Y-105037030D02*
X132683583Y-104989411D01*
X132683583Y-104989411D02*
X132683583Y-104941792D01*
X132683583Y-104941792D02*
X132659773Y-104894173D01*
X132659773Y-104894173D02*
X132635964Y-104870363D01*
X132635964Y-104870363D02*
X132588345Y-104846554D01*
X132588345Y-104846554D02*
X132493107Y-104822744D01*
X132493107Y-104822744D02*
X132445488Y-104798935D01*
X132445488Y-104798935D02*
X132421678Y-104775125D01*
X132421678Y-104775125D02*
X132397869Y-104727506D01*
X132397869Y-104727506D02*
X132397869Y-104679887D01*
X132397869Y-104679887D02*
X132421678Y-104632268D01*
X132421678Y-104632268D02*
X132445488Y-104608459D01*
X132445488Y-104608459D02*
X132493107Y-104584649D01*
X132493107Y-104584649D02*
X132612154Y-104584649D01*
X132612154Y-104584649D02*
X132683583Y-104608459D01*
X132897868Y-105084649D02*
X132897868Y-104584649D01*
X132897868Y-104822744D02*
X133183582Y-104822744D01*
X133183582Y-105084649D02*
X133183582Y-104584649D01*
X133588345Y-104822744D02*
X133421678Y-104822744D01*
X133421678Y-105084649D02*
X133421678Y-104584649D01*
X133421678Y-104584649D02*
X133659773Y-104584649D01*
X133778821Y-104584649D02*
X134064535Y-104584649D01*
X133921678Y-105084649D02*
X133921678Y-104584649D01*
X104083334Y-87603340D02*
X104154762Y-87627149D01*
X104154762Y-87627149D02*
X104273810Y-87627149D01*
X104273810Y-87627149D02*
X104321429Y-87603340D01*
X104321429Y-87603340D02*
X104345238Y-87579530D01*
X104345238Y-87579530D02*
X104369048Y-87531911D01*
X104369048Y-87531911D02*
X104369048Y-87484292D01*
X104369048Y-87484292D02*
X104345238Y-87436673D01*
X104345238Y-87436673D02*
X104321429Y-87412863D01*
X104321429Y-87412863D02*
X104273810Y-87389054D01*
X104273810Y-87389054D02*
X104178572Y-87365244D01*
X104178572Y-87365244D02*
X104130953Y-87341435D01*
X104130953Y-87341435D02*
X104107143Y-87317625D01*
X104107143Y-87317625D02*
X104083334Y-87270006D01*
X104083334Y-87270006D02*
X104083334Y-87222387D01*
X104083334Y-87222387D02*
X104107143Y-87174768D01*
X104107143Y-87174768D02*
X104130953Y-87150959D01*
X104130953Y-87150959D02*
X104178572Y-87127149D01*
X104178572Y-87127149D02*
X104297619Y-87127149D01*
X104297619Y-87127149D02*
X104369048Y-87150959D01*
X104535714Y-87127149D02*
X104654762Y-87627149D01*
X104654762Y-87627149D02*
X104750000Y-87270006D01*
X104750000Y-87270006D02*
X104845238Y-87627149D01*
X104845238Y-87627149D02*
X104964286Y-87127149D01*
X105369048Y-87293816D02*
X105369048Y-87627149D01*
X105250000Y-87103340D02*
X105130953Y-87460482D01*
X105130953Y-87460482D02*
X105440476Y-87460482D01*
X105135964Y-83751316D02*
X105135964Y-84084649D01*
X105016916Y-83560840D02*
X104897869Y-83917982D01*
X104897869Y-83917982D02*
X105207392Y-83917982D01*
X109345239Y-101603340D02*
X109416667Y-101627149D01*
X109416667Y-101627149D02*
X109535715Y-101627149D01*
X109535715Y-101627149D02*
X109583334Y-101603340D01*
X109583334Y-101603340D02*
X109607143Y-101579530D01*
X109607143Y-101579530D02*
X109630953Y-101531911D01*
X109630953Y-101531911D02*
X109630953Y-101484292D01*
X109630953Y-101484292D02*
X109607143Y-101436673D01*
X109607143Y-101436673D02*
X109583334Y-101412863D01*
X109583334Y-101412863D02*
X109535715Y-101389054D01*
X109535715Y-101389054D02*
X109440477Y-101365244D01*
X109440477Y-101365244D02*
X109392858Y-101341435D01*
X109392858Y-101341435D02*
X109369048Y-101317625D01*
X109369048Y-101317625D02*
X109345239Y-101270006D01*
X109345239Y-101270006D02*
X109345239Y-101222387D01*
X109345239Y-101222387D02*
X109369048Y-101174768D01*
X109369048Y-101174768D02*
X109392858Y-101150959D01*
X109392858Y-101150959D02*
X109440477Y-101127149D01*
X109440477Y-101127149D02*
X109559524Y-101127149D01*
X109559524Y-101127149D02*
X109630953Y-101150959D01*
X109797619Y-101127149D02*
X109916667Y-101627149D01*
X109916667Y-101627149D02*
X110011905Y-101270006D01*
X110011905Y-101270006D02*
X110107143Y-101627149D01*
X110107143Y-101627149D02*
X110226191Y-101127149D01*
X110392858Y-101174768D02*
X110416667Y-101150959D01*
X110416667Y-101150959D02*
X110464286Y-101127149D01*
X110464286Y-101127149D02*
X110583334Y-101127149D01*
X110583334Y-101127149D02*
X110630953Y-101150959D01*
X110630953Y-101150959D02*
X110654762Y-101174768D01*
X110654762Y-101174768D02*
X110678572Y-101222387D01*
X110678572Y-101222387D02*
X110678572Y-101270006D01*
X110678572Y-101270006D02*
X110654762Y-101341435D01*
X110654762Y-101341435D02*
X110369048Y-101627149D01*
X110369048Y-101627149D02*
X110678572Y-101627149D01*
X111130952Y-101127149D02*
X110892857Y-101127149D01*
X110892857Y-101127149D02*
X110869048Y-101365244D01*
X110869048Y-101365244D02*
X110892857Y-101341435D01*
X110892857Y-101341435D02*
X110940476Y-101317625D01*
X110940476Y-101317625D02*
X111059524Y-101317625D01*
X111059524Y-101317625D02*
X111107143Y-101341435D01*
X111107143Y-101341435D02*
X111130952Y-101365244D01*
X111130952Y-101365244D02*
X111154762Y-101412863D01*
X111154762Y-101412863D02*
X111154762Y-101531911D01*
X111154762Y-101531911D02*
X111130952Y-101579530D01*
X111130952Y-101579530D02*
X111107143Y-101603340D01*
X111107143Y-101603340D02*
X111059524Y-101627149D01*
X111059524Y-101627149D02*
X110940476Y-101627149D01*
X110940476Y-101627149D02*
X110892857Y-101603340D01*
X110892857Y-101603340D02*
X110869048Y-101579530D01*
X110683583Y-97608459D02*
X110635964Y-97584649D01*
X110635964Y-97584649D02*
X110564535Y-97584649D01*
X110564535Y-97584649D02*
X110493107Y-97608459D01*
X110493107Y-97608459D02*
X110445488Y-97656078D01*
X110445488Y-97656078D02*
X110421678Y-97703697D01*
X110421678Y-97703697D02*
X110397869Y-97798935D01*
X110397869Y-97798935D02*
X110397869Y-97870363D01*
X110397869Y-97870363D02*
X110421678Y-97965601D01*
X110421678Y-97965601D02*
X110445488Y-98013220D01*
X110445488Y-98013220D02*
X110493107Y-98060840D01*
X110493107Y-98060840D02*
X110564535Y-98084649D01*
X110564535Y-98084649D02*
X110612154Y-98084649D01*
X110612154Y-98084649D02*
X110683583Y-98060840D01*
X110683583Y-98060840D02*
X110707392Y-98037030D01*
X110707392Y-98037030D02*
X110707392Y-97870363D01*
X110707392Y-97870363D02*
X110612154Y-97870363D01*
X87345239Y-101603340D02*
X87416667Y-101627149D01*
X87416667Y-101627149D02*
X87535715Y-101627149D01*
X87535715Y-101627149D02*
X87583334Y-101603340D01*
X87583334Y-101603340D02*
X87607143Y-101579530D01*
X87607143Y-101579530D02*
X87630953Y-101531911D01*
X87630953Y-101531911D02*
X87630953Y-101484292D01*
X87630953Y-101484292D02*
X87607143Y-101436673D01*
X87607143Y-101436673D02*
X87583334Y-101412863D01*
X87583334Y-101412863D02*
X87535715Y-101389054D01*
X87535715Y-101389054D02*
X87440477Y-101365244D01*
X87440477Y-101365244D02*
X87392858Y-101341435D01*
X87392858Y-101341435D02*
X87369048Y-101317625D01*
X87369048Y-101317625D02*
X87345239Y-101270006D01*
X87345239Y-101270006D02*
X87345239Y-101222387D01*
X87345239Y-101222387D02*
X87369048Y-101174768D01*
X87369048Y-101174768D02*
X87392858Y-101150959D01*
X87392858Y-101150959D02*
X87440477Y-101127149D01*
X87440477Y-101127149D02*
X87559524Y-101127149D01*
X87559524Y-101127149D02*
X87630953Y-101150959D01*
X87797619Y-101127149D02*
X87916667Y-101627149D01*
X87916667Y-101627149D02*
X88011905Y-101270006D01*
X88011905Y-101270006D02*
X88107143Y-101627149D01*
X88107143Y-101627149D02*
X88226191Y-101127149D01*
X88392858Y-101174768D02*
X88416667Y-101150959D01*
X88416667Y-101150959D02*
X88464286Y-101127149D01*
X88464286Y-101127149D02*
X88583334Y-101127149D01*
X88583334Y-101127149D02*
X88630953Y-101150959D01*
X88630953Y-101150959D02*
X88654762Y-101174768D01*
X88654762Y-101174768D02*
X88678572Y-101222387D01*
X88678572Y-101222387D02*
X88678572Y-101270006D01*
X88678572Y-101270006D02*
X88654762Y-101341435D01*
X88654762Y-101341435D02*
X88369048Y-101627149D01*
X88369048Y-101627149D02*
X88678572Y-101627149D01*
X89154762Y-101627149D02*
X88869048Y-101627149D01*
X89011905Y-101627149D02*
X89011905Y-101127149D01*
X89011905Y-101127149D02*
X88964286Y-101198578D01*
X88964286Y-101198578D02*
X88916667Y-101246197D01*
X88916667Y-101246197D02*
X88869048Y-101270006D01*
X88397869Y-97941792D02*
X88635964Y-97941792D01*
X88350250Y-98084649D02*
X88516916Y-97584649D01*
X88516916Y-97584649D02*
X88683583Y-98084649D01*
X98345239Y-94603340D02*
X98416667Y-94627149D01*
X98416667Y-94627149D02*
X98535715Y-94627149D01*
X98535715Y-94627149D02*
X98583334Y-94603340D01*
X98583334Y-94603340D02*
X98607143Y-94579530D01*
X98607143Y-94579530D02*
X98630953Y-94531911D01*
X98630953Y-94531911D02*
X98630953Y-94484292D01*
X98630953Y-94484292D02*
X98607143Y-94436673D01*
X98607143Y-94436673D02*
X98583334Y-94412863D01*
X98583334Y-94412863D02*
X98535715Y-94389054D01*
X98535715Y-94389054D02*
X98440477Y-94365244D01*
X98440477Y-94365244D02*
X98392858Y-94341435D01*
X98392858Y-94341435D02*
X98369048Y-94317625D01*
X98369048Y-94317625D02*
X98345239Y-94270006D01*
X98345239Y-94270006D02*
X98345239Y-94222387D01*
X98345239Y-94222387D02*
X98369048Y-94174768D01*
X98369048Y-94174768D02*
X98392858Y-94150959D01*
X98392858Y-94150959D02*
X98440477Y-94127149D01*
X98440477Y-94127149D02*
X98559524Y-94127149D01*
X98559524Y-94127149D02*
X98630953Y-94150959D01*
X98797619Y-94127149D02*
X98916667Y-94627149D01*
X98916667Y-94627149D02*
X99011905Y-94270006D01*
X99011905Y-94270006D02*
X99107143Y-94627149D01*
X99107143Y-94627149D02*
X99226191Y-94127149D01*
X99678572Y-94627149D02*
X99392858Y-94627149D01*
X99535715Y-94627149D02*
X99535715Y-94127149D01*
X99535715Y-94127149D02*
X99488096Y-94198578D01*
X99488096Y-94198578D02*
X99440477Y-94246197D01*
X99440477Y-94246197D02*
X99392858Y-94270006D01*
X99845238Y-94127149D02*
X100154762Y-94127149D01*
X100154762Y-94127149D02*
X99988095Y-94317625D01*
X99988095Y-94317625D02*
X100059524Y-94317625D01*
X100059524Y-94317625D02*
X100107143Y-94341435D01*
X100107143Y-94341435D02*
X100130952Y-94365244D01*
X100130952Y-94365244D02*
X100154762Y-94412863D01*
X100154762Y-94412863D02*
X100154762Y-94531911D01*
X100154762Y-94531911D02*
X100130952Y-94579530D01*
X100130952Y-94579530D02*
X100107143Y-94603340D01*
X100107143Y-94603340D02*
X100059524Y-94627149D01*
X100059524Y-94627149D02*
X99916667Y-94627149D01*
X99916667Y-94627149D02*
X99869048Y-94603340D01*
X99869048Y-94603340D02*
X99845238Y-94579530D01*
X99421678Y-90822744D02*
X99588345Y-90822744D01*
X99659773Y-91084649D02*
X99421678Y-91084649D01*
X99421678Y-91084649D02*
X99421678Y-90584649D01*
X99421678Y-90584649D02*
X99659773Y-90584649D01*
X131345239Y-115603340D02*
X131416667Y-115627149D01*
X131416667Y-115627149D02*
X131535715Y-115627149D01*
X131535715Y-115627149D02*
X131583334Y-115603340D01*
X131583334Y-115603340D02*
X131607143Y-115579530D01*
X131607143Y-115579530D02*
X131630953Y-115531911D01*
X131630953Y-115531911D02*
X131630953Y-115484292D01*
X131630953Y-115484292D02*
X131607143Y-115436673D01*
X131607143Y-115436673D02*
X131583334Y-115412863D01*
X131583334Y-115412863D02*
X131535715Y-115389054D01*
X131535715Y-115389054D02*
X131440477Y-115365244D01*
X131440477Y-115365244D02*
X131392858Y-115341435D01*
X131392858Y-115341435D02*
X131369048Y-115317625D01*
X131369048Y-115317625D02*
X131345239Y-115270006D01*
X131345239Y-115270006D02*
X131345239Y-115222387D01*
X131345239Y-115222387D02*
X131369048Y-115174768D01*
X131369048Y-115174768D02*
X131392858Y-115150959D01*
X131392858Y-115150959D02*
X131440477Y-115127149D01*
X131440477Y-115127149D02*
X131559524Y-115127149D01*
X131559524Y-115127149D02*
X131630953Y-115150959D01*
X131797619Y-115127149D02*
X131916667Y-115627149D01*
X131916667Y-115627149D02*
X132011905Y-115270006D01*
X132011905Y-115270006D02*
X132107143Y-115627149D01*
X132107143Y-115627149D02*
X132226191Y-115127149D01*
X132630953Y-115293816D02*
X132630953Y-115627149D01*
X132511905Y-115103340D02*
X132392858Y-115460482D01*
X132392858Y-115460482D02*
X132702381Y-115460482D01*
X132964286Y-115341435D02*
X132916667Y-115317625D01*
X132916667Y-115317625D02*
X132892857Y-115293816D01*
X132892857Y-115293816D02*
X132869048Y-115246197D01*
X132869048Y-115246197D02*
X132869048Y-115222387D01*
X132869048Y-115222387D02*
X132892857Y-115174768D01*
X132892857Y-115174768D02*
X132916667Y-115150959D01*
X132916667Y-115150959D02*
X132964286Y-115127149D01*
X132964286Y-115127149D02*
X133059524Y-115127149D01*
X133059524Y-115127149D02*
X133107143Y-115150959D01*
X133107143Y-115150959D02*
X133130952Y-115174768D01*
X133130952Y-115174768D02*
X133154762Y-115222387D01*
X133154762Y-115222387D02*
X133154762Y-115246197D01*
X133154762Y-115246197D02*
X133130952Y-115293816D01*
X133130952Y-115293816D02*
X133107143Y-115317625D01*
X133107143Y-115317625D02*
X133059524Y-115341435D01*
X133059524Y-115341435D02*
X132964286Y-115341435D01*
X132964286Y-115341435D02*
X132916667Y-115365244D01*
X132916667Y-115365244D02*
X132892857Y-115389054D01*
X132892857Y-115389054D02*
X132869048Y-115436673D01*
X132869048Y-115436673D02*
X132869048Y-115531911D01*
X132869048Y-115531911D02*
X132892857Y-115579530D01*
X132892857Y-115579530D02*
X132916667Y-115603340D01*
X132916667Y-115603340D02*
X132964286Y-115627149D01*
X132964286Y-115627149D02*
X133059524Y-115627149D01*
X133059524Y-115627149D02*
X133107143Y-115603340D01*
X133107143Y-115603340D02*
X133130952Y-115579530D01*
X133130952Y-115579530D02*
X133154762Y-115531911D01*
X133154762Y-115531911D02*
X133154762Y-115436673D01*
X133154762Y-115436673D02*
X133130952Y-115389054D01*
X133130952Y-115389054D02*
X133107143Y-115365244D01*
X133107143Y-115365244D02*
X133059524Y-115341435D01*
X132707392Y-112084649D02*
X132540726Y-111846554D01*
X132421678Y-112084649D02*
X132421678Y-111584649D01*
X132421678Y-111584649D02*
X132612154Y-111584649D01*
X132612154Y-111584649D02*
X132659773Y-111608459D01*
X132659773Y-111608459D02*
X132683583Y-111632268D01*
X132683583Y-111632268D02*
X132707392Y-111679887D01*
X132707392Y-111679887D02*
X132707392Y-111751316D01*
X132707392Y-111751316D02*
X132683583Y-111798935D01*
X132683583Y-111798935D02*
X132659773Y-111822744D01*
X132659773Y-111822744D02*
X132612154Y-111846554D01*
X132612154Y-111846554D02*
X132421678Y-111846554D01*
X133183583Y-111608459D02*
X133135964Y-111584649D01*
X133135964Y-111584649D02*
X133064535Y-111584649D01*
X133064535Y-111584649D02*
X132993107Y-111608459D01*
X132993107Y-111608459D02*
X132945488Y-111656078D01*
X132945488Y-111656078D02*
X132921678Y-111703697D01*
X132921678Y-111703697D02*
X132897869Y-111798935D01*
X132897869Y-111798935D02*
X132897869Y-111870363D01*
X132897869Y-111870363D02*
X132921678Y-111965601D01*
X132921678Y-111965601D02*
X132945488Y-112013220D01*
X132945488Y-112013220D02*
X132993107Y-112060840D01*
X132993107Y-112060840D02*
X133064535Y-112084649D01*
X133064535Y-112084649D02*
X133112154Y-112084649D01*
X133112154Y-112084649D02*
X133183583Y-112060840D01*
X133183583Y-112060840D02*
X133207392Y-112037030D01*
X133207392Y-112037030D02*
X133207392Y-111870363D01*
X133207392Y-111870363D02*
X133112154Y-111870363D01*
X133421678Y-112084649D02*
X133421678Y-111584649D01*
X133421678Y-111822744D02*
X133707392Y-111822744D01*
X133707392Y-112084649D02*
X133707392Y-111584649D01*
X125845239Y-94603340D02*
X125916667Y-94627149D01*
X125916667Y-94627149D02*
X126035715Y-94627149D01*
X126035715Y-94627149D02*
X126083334Y-94603340D01*
X126083334Y-94603340D02*
X126107143Y-94579530D01*
X126107143Y-94579530D02*
X126130953Y-94531911D01*
X126130953Y-94531911D02*
X126130953Y-94484292D01*
X126130953Y-94484292D02*
X126107143Y-94436673D01*
X126107143Y-94436673D02*
X126083334Y-94412863D01*
X126083334Y-94412863D02*
X126035715Y-94389054D01*
X126035715Y-94389054D02*
X125940477Y-94365244D01*
X125940477Y-94365244D02*
X125892858Y-94341435D01*
X125892858Y-94341435D02*
X125869048Y-94317625D01*
X125869048Y-94317625D02*
X125845239Y-94270006D01*
X125845239Y-94270006D02*
X125845239Y-94222387D01*
X125845239Y-94222387D02*
X125869048Y-94174768D01*
X125869048Y-94174768D02*
X125892858Y-94150959D01*
X125892858Y-94150959D02*
X125940477Y-94127149D01*
X125940477Y-94127149D02*
X126059524Y-94127149D01*
X126059524Y-94127149D02*
X126130953Y-94150959D01*
X126297619Y-94127149D02*
X126416667Y-94627149D01*
X126416667Y-94627149D02*
X126511905Y-94270006D01*
X126511905Y-94270006D02*
X126607143Y-94627149D01*
X126607143Y-94627149D02*
X126726191Y-94127149D01*
X127178572Y-94627149D02*
X126892858Y-94627149D01*
X127035715Y-94627149D02*
X127035715Y-94127149D01*
X127035715Y-94127149D02*
X126988096Y-94198578D01*
X126988096Y-94198578D02*
X126940477Y-94246197D01*
X126940477Y-94246197D02*
X126892858Y-94270006D01*
X127464286Y-94341435D02*
X127416667Y-94317625D01*
X127416667Y-94317625D02*
X127392857Y-94293816D01*
X127392857Y-94293816D02*
X127369048Y-94246197D01*
X127369048Y-94246197D02*
X127369048Y-94222387D01*
X127369048Y-94222387D02*
X127392857Y-94174768D01*
X127392857Y-94174768D02*
X127416667Y-94150959D01*
X127416667Y-94150959D02*
X127464286Y-94127149D01*
X127464286Y-94127149D02*
X127559524Y-94127149D01*
X127559524Y-94127149D02*
X127607143Y-94150959D01*
X127607143Y-94150959D02*
X127630952Y-94174768D01*
X127630952Y-94174768D02*
X127654762Y-94222387D01*
X127654762Y-94222387D02*
X127654762Y-94246197D01*
X127654762Y-94246197D02*
X127630952Y-94293816D01*
X127630952Y-94293816D02*
X127607143Y-94317625D01*
X127607143Y-94317625D02*
X127559524Y-94341435D01*
X127559524Y-94341435D02*
X127464286Y-94341435D01*
X127464286Y-94341435D02*
X127416667Y-94365244D01*
X127416667Y-94365244D02*
X127392857Y-94389054D01*
X127392857Y-94389054D02*
X127369048Y-94436673D01*
X127369048Y-94436673D02*
X127369048Y-94531911D01*
X127369048Y-94531911D02*
X127392857Y-94579530D01*
X127392857Y-94579530D02*
X127416667Y-94603340D01*
X127416667Y-94603340D02*
X127464286Y-94627149D01*
X127464286Y-94627149D02*
X127559524Y-94627149D01*
X127559524Y-94627149D02*
X127607143Y-94603340D01*
X127607143Y-94603340D02*
X127630952Y-94579530D01*
X127630952Y-94579530D02*
X127654762Y-94531911D01*
X127654762Y-94531911D02*
X127654762Y-94436673D01*
X127654762Y-94436673D02*
X127630952Y-94389054D01*
X127630952Y-94389054D02*
X127607143Y-94365244D01*
X127607143Y-94365244D02*
X127559524Y-94341435D01*
X126921678Y-91084649D02*
X126921678Y-90584649D01*
X103845239Y-108603340D02*
X103916667Y-108627149D01*
X103916667Y-108627149D02*
X104035715Y-108627149D01*
X104035715Y-108627149D02*
X104083334Y-108603340D01*
X104083334Y-108603340D02*
X104107143Y-108579530D01*
X104107143Y-108579530D02*
X104130953Y-108531911D01*
X104130953Y-108531911D02*
X104130953Y-108484292D01*
X104130953Y-108484292D02*
X104107143Y-108436673D01*
X104107143Y-108436673D02*
X104083334Y-108412863D01*
X104083334Y-108412863D02*
X104035715Y-108389054D01*
X104035715Y-108389054D02*
X103940477Y-108365244D01*
X103940477Y-108365244D02*
X103892858Y-108341435D01*
X103892858Y-108341435D02*
X103869048Y-108317625D01*
X103869048Y-108317625D02*
X103845239Y-108270006D01*
X103845239Y-108270006D02*
X103845239Y-108222387D01*
X103845239Y-108222387D02*
X103869048Y-108174768D01*
X103869048Y-108174768D02*
X103892858Y-108150959D01*
X103892858Y-108150959D02*
X103940477Y-108127149D01*
X103940477Y-108127149D02*
X104059524Y-108127149D01*
X104059524Y-108127149D02*
X104130953Y-108150959D01*
X104297619Y-108127149D02*
X104416667Y-108627149D01*
X104416667Y-108627149D02*
X104511905Y-108270006D01*
X104511905Y-108270006D02*
X104607143Y-108627149D01*
X104607143Y-108627149D02*
X104726191Y-108127149D01*
X104869048Y-108127149D02*
X105178572Y-108127149D01*
X105178572Y-108127149D02*
X105011905Y-108317625D01*
X105011905Y-108317625D02*
X105083334Y-108317625D01*
X105083334Y-108317625D02*
X105130953Y-108341435D01*
X105130953Y-108341435D02*
X105154762Y-108365244D01*
X105154762Y-108365244D02*
X105178572Y-108412863D01*
X105178572Y-108412863D02*
X105178572Y-108531911D01*
X105178572Y-108531911D02*
X105154762Y-108579530D01*
X105154762Y-108579530D02*
X105130953Y-108603340D01*
X105130953Y-108603340D02*
X105083334Y-108627149D01*
X105083334Y-108627149D02*
X104940477Y-108627149D01*
X104940477Y-108627149D02*
X104892858Y-108603340D01*
X104892858Y-108603340D02*
X104869048Y-108579530D01*
X105607143Y-108293816D02*
X105607143Y-108627149D01*
X105488095Y-108103340D02*
X105369048Y-108460482D01*
X105369048Y-108460482D02*
X105678571Y-108460482D01*
X105207392Y-105037030D02*
X105183583Y-105060840D01*
X105183583Y-105060840D02*
X105112154Y-105084649D01*
X105112154Y-105084649D02*
X105064535Y-105084649D01*
X105064535Y-105084649D02*
X104993107Y-105060840D01*
X104993107Y-105060840D02*
X104945488Y-105013220D01*
X104945488Y-105013220D02*
X104921678Y-104965601D01*
X104921678Y-104965601D02*
X104897869Y-104870363D01*
X104897869Y-104870363D02*
X104897869Y-104798935D01*
X104897869Y-104798935D02*
X104921678Y-104703697D01*
X104921678Y-104703697D02*
X104945488Y-104656078D01*
X104945488Y-104656078D02*
X104993107Y-104608459D01*
X104993107Y-104608459D02*
X105064535Y-104584649D01*
X105064535Y-104584649D02*
X105112154Y-104584649D01*
X105112154Y-104584649D02*
X105183583Y-104608459D01*
X105183583Y-104608459D02*
X105207392Y-104632268D01*
X98345239Y-101603340D02*
X98416667Y-101627149D01*
X98416667Y-101627149D02*
X98535715Y-101627149D01*
X98535715Y-101627149D02*
X98583334Y-101603340D01*
X98583334Y-101603340D02*
X98607143Y-101579530D01*
X98607143Y-101579530D02*
X98630953Y-101531911D01*
X98630953Y-101531911D02*
X98630953Y-101484292D01*
X98630953Y-101484292D02*
X98607143Y-101436673D01*
X98607143Y-101436673D02*
X98583334Y-101412863D01*
X98583334Y-101412863D02*
X98535715Y-101389054D01*
X98535715Y-101389054D02*
X98440477Y-101365244D01*
X98440477Y-101365244D02*
X98392858Y-101341435D01*
X98392858Y-101341435D02*
X98369048Y-101317625D01*
X98369048Y-101317625D02*
X98345239Y-101270006D01*
X98345239Y-101270006D02*
X98345239Y-101222387D01*
X98345239Y-101222387D02*
X98369048Y-101174768D01*
X98369048Y-101174768D02*
X98392858Y-101150959D01*
X98392858Y-101150959D02*
X98440477Y-101127149D01*
X98440477Y-101127149D02*
X98559524Y-101127149D01*
X98559524Y-101127149D02*
X98630953Y-101150959D01*
X98797619Y-101127149D02*
X98916667Y-101627149D01*
X98916667Y-101627149D02*
X99011905Y-101270006D01*
X99011905Y-101270006D02*
X99107143Y-101627149D01*
X99107143Y-101627149D02*
X99226191Y-101127149D01*
X99392858Y-101174768D02*
X99416667Y-101150959D01*
X99416667Y-101150959D02*
X99464286Y-101127149D01*
X99464286Y-101127149D02*
X99583334Y-101127149D01*
X99583334Y-101127149D02*
X99630953Y-101150959D01*
X99630953Y-101150959D02*
X99654762Y-101174768D01*
X99654762Y-101174768D02*
X99678572Y-101222387D01*
X99678572Y-101222387D02*
X99678572Y-101270006D01*
X99678572Y-101270006D02*
X99654762Y-101341435D01*
X99654762Y-101341435D02*
X99369048Y-101627149D01*
X99369048Y-101627149D02*
X99678572Y-101627149D01*
X99845238Y-101127149D02*
X100154762Y-101127149D01*
X100154762Y-101127149D02*
X99988095Y-101317625D01*
X99988095Y-101317625D02*
X100059524Y-101317625D01*
X100059524Y-101317625D02*
X100107143Y-101341435D01*
X100107143Y-101341435D02*
X100130952Y-101365244D01*
X100130952Y-101365244D02*
X100154762Y-101412863D01*
X100154762Y-101412863D02*
X100154762Y-101531911D01*
X100154762Y-101531911D02*
X100130952Y-101579530D01*
X100130952Y-101579530D02*
X100107143Y-101603340D01*
X100107143Y-101603340D02*
X100059524Y-101627149D01*
X100059524Y-101627149D02*
X99916667Y-101627149D01*
X99916667Y-101627149D02*
X99869048Y-101603340D01*
X99869048Y-101603340D02*
X99845238Y-101579530D01*
X99421678Y-98084649D02*
X99421678Y-97584649D01*
X99421678Y-97584649D02*
X99540726Y-97584649D01*
X99540726Y-97584649D02*
X99612154Y-97608459D01*
X99612154Y-97608459D02*
X99659773Y-97656078D01*
X99659773Y-97656078D02*
X99683583Y-97703697D01*
X99683583Y-97703697D02*
X99707392Y-97798935D01*
X99707392Y-97798935D02*
X99707392Y-97870363D01*
X99707392Y-97870363D02*
X99683583Y-97965601D01*
X99683583Y-97965601D02*
X99659773Y-98013220D01*
X99659773Y-98013220D02*
X99612154Y-98060840D01*
X99612154Y-98060840D02*
X99540726Y-98084649D01*
X99540726Y-98084649D02*
X99421678Y-98084649D01*
X136845239Y-94603340D02*
X136916667Y-94627149D01*
X136916667Y-94627149D02*
X137035715Y-94627149D01*
X137035715Y-94627149D02*
X137083334Y-94603340D01*
X137083334Y-94603340D02*
X137107143Y-94579530D01*
X137107143Y-94579530D02*
X137130953Y-94531911D01*
X137130953Y-94531911D02*
X137130953Y-94484292D01*
X137130953Y-94484292D02*
X137107143Y-94436673D01*
X137107143Y-94436673D02*
X137083334Y-94412863D01*
X137083334Y-94412863D02*
X137035715Y-94389054D01*
X137035715Y-94389054D02*
X136940477Y-94365244D01*
X136940477Y-94365244D02*
X136892858Y-94341435D01*
X136892858Y-94341435D02*
X136869048Y-94317625D01*
X136869048Y-94317625D02*
X136845239Y-94270006D01*
X136845239Y-94270006D02*
X136845239Y-94222387D01*
X136845239Y-94222387D02*
X136869048Y-94174768D01*
X136869048Y-94174768D02*
X136892858Y-94150959D01*
X136892858Y-94150959D02*
X136940477Y-94127149D01*
X136940477Y-94127149D02*
X137059524Y-94127149D01*
X137059524Y-94127149D02*
X137130953Y-94150959D01*
X137297619Y-94127149D02*
X137416667Y-94627149D01*
X137416667Y-94627149D02*
X137511905Y-94270006D01*
X137511905Y-94270006D02*
X137607143Y-94627149D01*
X137607143Y-94627149D02*
X137726191Y-94127149D01*
X137892858Y-94174768D02*
X137916667Y-94150959D01*
X137916667Y-94150959D02*
X137964286Y-94127149D01*
X137964286Y-94127149D02*
X138083334Y-94127149D01*
X138083334Y-94127149D02*
X138130953Y-94150959D01*
X138130953Y-94150959D02*
X138154762Y-94174768D01*
X138154762Y-94174768D02*
X138178572Y-94222387D01*
X138178572Y-94222387D02*
X138178572Y-94270006D01*
X138178572Y-94270006D02*
X138154762Y-94341435D01*
X138154762Y-94341435D02*
X137869048Y-94627149D01*
X137869048Y-94627149D02*
X138178572Y-94627149D01*
X138488095Y-94127149D02*
X138535714Y-94127149D01*
X138535714Y-94127149D02*
X138583333Y-94150959D01*
X138583333Y-94150959D02*
X138607143Y-94174768D01*
X138607143Y-94174768D02*
X138630952Y-94222387D01*
X138630952Y-94222387D02*
X138654762Y-94317625D01*
X138654762Y-94317625D02*
X138654762Y-94436673D01*
X138654762Y-94436673D02*
X138630952Y-94531911D01*
X138630952Y-94531911D02*
X138607143Y-94579530D01*
X138607143Y-94579530D02*
X138583333Y-94603340D01*
X138583333Y-94603340D02*
X138535714Y-94627149D01*
X138535714Y-94627149D02*
X138488095Y-94627149D01*
X138488095Y-94627149D02*
X138440476Y-94603340D01*
X138440476Y-94603340D02*
X138416667Y-94579530D01*
X138416667Y-94579530D02*
X138392857Y-94531911D01*
X138392857Y-94531911D02*
X138369048Y-94436673D01*
X138369048Y-94436673D02*
X138369048Y-94317625D01*
X138369048Y-94317625D02*
X138392857Y-94222387D01*
X138392857Y-94222387D02*
X138416667Y-94174768D01*
X138416667Y-94174768D02*
X138440476Y-94150959D01*
X138440476Y-94150959D02*
X138488095Y-94127149D01*
X137921678Y-91084649D02*
X137921678Y-90584649D01*
X137921678Y-90584649D02*
X138112154Y-90584649D01*
X138112154Y-90584649D02*
X138159773Y-90608459D01*
X138159773Y-90608459D02*
X138183583Y-90632268D01*
X138183583Y-90632268D02*
X138207392Y-90679887D01*
X138207392Y-90679887D02*
X138207392Y-90751316D01*
X138207392Y-90751316D02*
X138183583Y-90798935D01*
X138183583Y-90798935D02*
X138159773Y-90822744D01*
X138159773Y-90822744D02*
X138112154Y-90846554D01*
X138112154Y-90846554D02*
X137921678Y-90846554D01*
X120345239Y-101603340D02*
X120416667Y-101627149D01*
X120416667Y-101627149D02*
X120535715Y-101627149D01*
X120535715Y-101627149D02*
X120583334Y-101603340D01*
X120583334Y-101603340D02*
X120607143Y-101579530D01*
X120607143Y-101579530D02*
X120630953Y-101531911D01*
X120630953Y-101531911D02*
X120630953Y-101484292D01*
X120630953Y-101484292D02*
X120607143Y-101436673D01*
X120607143Y-101436673D02*
X120583334Y-101412863D01*
X120583334Y-101412863D02*
X120535715Y-101389054D01*
X120535715Y-101389054D02*
X120440477Y-101365244D01*
X120440477Y-101365244D02*
X120392858Y-101341435D01*
X120392858Y-101341435D02*
X120369048Y-101317625D01*
X120369048Y-101317625D02*
X120345239Y-101270006D01*
X120345239Y-101270006D02*
X120345239Y-101222387D01*
X120345239Y-101222387D02*
X120369048Y-101174768D01*
X120369048Y-101174768D02*
X120392858Y-101150959D01*
X120392858Y-101150959D02*
X120440477Y-101127149D01*
X120440477Y-101127149D02*
X120559524Y-101127149D01*
X120559524Y-101127149D02*
X120630953Y-101150959D01*
X120797619Y-101127149D02*
X120916667Y-101627149D01*
X120916667Y-101627149D02*
X121011905Y-101270006D01*
X121011905Y-101270006D02*
X121107143Y-101627149D01*
X121107143Y-101627149D02*
X121226191Y-101127149D01*
X121392858Y-101174768D02*
X121416667Y-101150959D01*
X121416667Y-101150959D02*
X121464286Y-101127149D01*
X121464286Y-101127149D02*
X121583334Y-101127149D01*
X121583334Y-101127149D02*
X121630953Y-101150959D01*
X121630953Y-101150959D02*
X121654762Y-101174768D01*
X121654762Y-101174768D02*
X121678572Y-101222387D01*
X121678572Y-101222387D02*
X121678572Y-101270006D01*
X121678572Y-101270006D02*
X121654762Y-101341435D01*
X121654762Y-101341435D02*
X121369048Y-101627149D01*
X121369048Y-101627149D02*
X121678572Y-101627149D01*
X121845238Y-101127149D02*
X122178571Y-101127149D01*
X122178571Y-101127149D02*
X121964286Y-101627149D01*
X121564535Y-97584649D02*
X121564535Y-97941792D01*
X121564535Y-97941792D02*
X121540726Y-98013220D01*
X121540726Y-98013220D02*
X121493107Y-98060840D01*
X121493107Y-98060840D02*
X121421678Y-98084649D01*
X121421678Y-98084649D02*
X121374059Y-98084649D01*
X87345239Y-94603340D02*
X87416667Y-94627149D01*
X87416667Y-94627149D02*
X87535715Y-94627149D01*
X87535715Y-94627149D02*
X87583334Y-94603340D01*
X87583334Y-94603340D02*
X87607143Y-94579530D01*
X87607143Y-94579530D02*
X87630953Y-94531911D01*
X87630953Y-94531911D02*
X87630953Y-94484292D01*
X87630953Y-94484292D02*
X87607143Y-94436673D01*
X87607143Y-94436673D02*
X87583334Y-94412863D01*
X87583334Y-94412863D02*
X87535715Y-94389054D01*
X87535715Y-94389054D02*
X87440477Y-94365244D01*
X87440477Y-94365244D02*
X87392858Y-94341435D01*
X87392858Y-94341435D02*
X87369048Y-94317625D01*
X87369048Y-94317625D02*
X87345239Y-94270006D01*
X87345239Y-94270006D02*
X87345239Y-94222387D01*
X87345239Y-94222387D02*
X87369048Y-94174768D01*
X87369048Y-94174768D02*
X87392858Y-94150959D01*
X87392858Y-94150959D02*
X87440477Y-94127149D01*
X87440477Y-94127149D02*
X87559524Y-94127149D01*
X87559524Y-94127149D02*
X87630953Y-94150959D01*
X87797619Y-94127149D02*
X87916667Y-94627149D01*
X87916667Y-94627149D02*
X88011905Y-94270006D01*
X88011905Y-94270006D02*
X88107143Y-94627149D01*
X88107143Y-94627149D02*
X88226191Y-94127149D01*
X88678572Y-94627149D02*
X88392858Y-94627149D01*
X88535715Y-94627149D02*
X88535715Y-94127149D01*
X88535715Y-94127149D02*
X88488096Y-94198578D01*
X88488096Y-94198578D02*
X88440477Y-94246197D01*
X88440477Y-94246197D02*
X88392858Y-94270006D01*
X89154762Y-94627149D02*
X88869048Y-94627149D01*
X89011905Y-94627149D02*
X89011905Y-94127149D01*
X89011905Y-94127149D02*
X88964286Y-94198578D01*
X88964286Y-94198578D02*
X88916667Y-94246197D01*
X88916667Y-94246197D02*
X88869048Y-94270006D01*
X88755011Y-91132268D02*
X88707392Y-91108459D01*
X88707392Y-91108459D02*
X88659773Y-91060840D01*
X88659773Y-91060840D02*
X88588345Y-90989411D01*
X88588345Y-90989411D02*
X88540726Y-90965601D01*
X88540726Y-90965601D02*
X88493107Y-90965601D01*
X88516916Y-91084649D02*
X88469297Y-91060840D01*
X88469297Y-91060840D02*
X88421678Y-91013220D01*
X88421678Y-91013220D02*
X88397869Y-90917982D01*
X88397869Y-90917982D02*
X88397869Y-90751316D01*
X88397869Y-90751316D02*
X88421678Y-90656078D01*
X88421678Y-90656078D02*
X88469297Y-90608459D01*
X88469297Y-90608459D02*
X88516916Y-90584649D01*
X88516916Y-90584649D02*
X88612154Y-90584649D01*
X88612154Y-90584649D02*
X88659773Y-90608459D01*
X88659773Y-90608459D02*
X88707392Y-90656078D01*
X88707392Y-90656078D02*
X88731202Y-90751316D01*
X88731202Y-90751316D02*
X88731202Y-90917982D01*
X88731202Y-90917982D02*
X88707392Y-91013220D01*
X88707392Y-91013220D02*
X88659773Y-91060840D01*
X88659773Y-91060840D02*
X88612154Y-91084649D01*
X88612154Y-91084649D02*
X88516916Y-91084649D01*
X125845239Y-108603340D02*
X125916667Y-108627149D01*
X125916667Y-108627149D02*
X126035715Y-108627149D01*
X126035715Y-108627149D02*
X126083334Y-108603340D01*
X126083334Y-108603340D02*
X126107143Y-108579530D01*
X126107143Y-108579530D02*
X126130953Y-108531911D01*
X126130953Y-108531911D02*
X126130953Y-108484292D01*
X126130953Y-108484292D02*
X126107143Y-108436673D01*
X126107143Y-108436673D02*
X126083334Y-108412863D01*
X126083334Y-108412863D02*
X126035715Y-108389054D01*
X126035715Y-108389054D02*
X125940477Y-108365244D01*
X125940477Y-108365244D02*
X125892858Y-108341435D01*
X125892858Y-108341435D02*
X125869048Y-108317625D01*
X125869048Y-108317625D02*
X125845239Y-108270006D01*
X125845239Y-108270006D02*
X125845239Y-108222387D01*
X125845239Y-108222387D02*
X125869048Y-108174768D01*
X125869048Y-108174768D02*
X125892858Y-108150959D01*
X125892858Y-108150959D02*
X125940477Y-108127149D01*
X125940477Y-108127149D02*
X126059524Y-108127149D01*
X126059524Y-108127149D02*
X126130953Y-108150959D01*
X126297619Y-108127149D02*
X126416667Y-108627149D01*
X126416667Y-108627149D02*
X126511905Y-108270006D01*
X126511905Y-108270006D02*
X126607143Y-108627149D01*
X126607143Y-108627149D02*
X126726191Y-108127149D01*
X126869048Y-108127149D02*
X127178572Y-108127149D01*
X127178572Y-108127149D02*
X127011905Y-108317625D01*
X127011905Y-108317625D02*
X127083334Y-108317625D01*
X127083334Y-108317625D02*
X127130953Y-108341435D01*
X127130953Y-108341435D02*
X127154762Y-108365244D01*
X127154762Y-108365244D02*
X127178572Y-108412863D01*
X127178572Y-108412863D02*
X127178572Y-108531911D01*
X127178572Y-108531911D02*
X127154762Y-108579530D01*
X127154762Y-108579530D02*
X127130953Y-108603340D01*
X127130953Y-108603340D02*
X127083334Y-108627149D01*
X127083334Y-108627149D02*
X126940477Y-108627149D01*
X126940477Y-108627149D02*
X126892858Y-108603340D01*
X126892858Y-108603340D02*
X126869048Y-108579530D01*
X127464286Y-108341435D02*
X127416667Y-108317625D01*
X127416667Y-108317625D02*
X127392857Y-108293816D01*
X127392857Y-108293816D02*
X127369048Y-108246197D01*
X127369048Y-108246197D02*
X127369048Y-108222387D01*
X127369048Y-108222387D02*
X127392857Y-108174768D01*
X127392857Y-108174768D02*
X127416667Y-108150959D01*
X127416667Y-108150959D02*
X127464286Y-108127149D01*
X127464286Y-108127149D02*
X127559524Y-108127149D01*
X127559524Y-108127149D02*
X127607143Y-108150959D01*
X127607143Y-108150959D02*
X127630952Y-108174768D01*
X127630952Y-108174768D02*
X127654762Y-108222387D01*
X127654762Y-108222387D02*
X127654762Y-108246197D01*
X127654762Y-108246197D02*
X127630952Y-108293816D01*
X127630952Y-108293816D02*
X127607143Y-108317625D01*
X127607143Y-108317625D02*
X127559524Y-108341435D01*
X127559524Y-108341435D02*
X127464286Y-108341435D01*
X127464286Y-108341435D02*
X127416667Y-108365244D01*
X127416667Y-108365244D02*
X127392857Y-108389054D01*
X127392857Y-108389054D02*
X127369048Y-108436673D01*
X127369048Y-108436673D02*
X127369048Y-108531911D01*
X127369048Y-108531911D02*
X127392857Y-108579530D01*
X127392857Y-108579530D02*
X127416667Y-108603340D01*
X127416667Y-108603340D02*
X127464286Y-108627149D01*
X127464286Y-108627149D02*
X127559524Y-108627149D01*
X127559524Y-108627149D02*
X127607143Y-108603340D01*
X127607143Y-108603340D02*
X127630952Y-108579530D01*
X127630952Y-108579530D02*
X127654762Y-108531911D01*
X127654762Y-108531911D02*
X127654762Y-108436673D01*
X127654762Y-108436673D02*
X127630952Y-108389054D01*
X127630952Y-108389054D02*
X127607143Y-108365244D01*
X127607143Y-108365244D02*
X127559524Y-108341435D01*
X126921678Y-105084649D02*
X126921678Y-104584649D01*
X126921678Y-104584649D02*
X127088345Y-104941792D01*
X127088345Y-104941792D02*
X127255011Y-104584649D01*
X127255011Y-104584649D02*
X127255011Y-105084649D01*
X114845239Y-108603340D02*
X114916667Y-108627149D01*
X114916667Y-108627149D02*
X115035715Y-108627149D01*
X115035715Y-108627149D02*
X115083334Y-108603340D01*
X115083334Y-108603340D02*
X115107143Y-108579530D01*
X115107143Y-108579530D02*
X115130953Y-108531911D01*
X115130953Y-108531911D02*
X115130953Y-108484292D01*
X115130953Y-108484292D02*
X115107143Y-108436673D01*
X115107143Y-108436673D02*
X115083334Y-108412863D01*
X115083334Y-108412863D02*
X115035715Y-108389054D01*
X115035715Y-108389054D02*
X114940477Y-108365244D01*
X114940477Y-108365244D02*
X114892858Y-108341435D01*
X114892858Y-108341435D02*
X114869048Y-108317625D01*
X114869048Y-108317625D02*
X114845239Y-108270006D01*
X114845239Y-108270006D02*
X114845239Y-108222387D01*
X114845239Y-108222387D02*
X114869048Y-108174768D01*
X114869048Y-108174768D02*
X114892858Y-108150959D01*
X114892858Y-108150959D02*
X114940477Y-108127149D01*
X114940477Y-108127149D02*
X115059524Y-108127149D01*
X115059524Y-108127149D02*
X115130953Y-108150959D01*
X115297619Y-108127149D02*
X115416667Y-108627149D01*
X115416667Y-108627149D02*
X115511905Y-108270006D01*
X115511905Y-108270006D02*
X115607143Y-108627149D01*
X115607143Y-108627149D02*
X115726191Y-108127149D01*
X115869048Y-108127149D02*
X116178572Y-108127149D01*
X116178572Y-108127149D02*
X116011905Y-108317625D01*
X116011905Y-108317625D02*
X116083334Y-108317625D01*
X116083334Y-108317625D02*
X116130953Y-108341435D01*
X116130953Y-108341435D02*
X116154762Y-108365244D01*
X116154762Y-108365244D02*
X116178572Y-108412863D01*
X116178572Y-108412863D02*
X116178572Y-108531911D01*
X116178572Y-108531911D02*
X116154762Y-108579530D01*
X116154762Y-108579530D02*
X116130953Y-108603340D01*
X116130953Y-108603340D02*
X116083334Y-108627149D01*
X116083334Y-108627149D02*
X115940477Y-108627149D01*
X115940477Y-108627149D02*
X115892858Y-108603340D01*
X115892858Y-108603340D02*
X115869048Y-108579530D01*
X116607143Y-108127149D02*
X116511905Y-108127149D01*
X116511905Y-108127149D02*
X116464286Y-108150959D01*
X116464286Y-108150959D02*
X116440476Y-108174768D01*
X116440476Y-108174768D02*
X116392857Y-108246197D01*
X116392857Y-108246197D02*
X116369048Y-108341435D01*
X116369048Y-108341435D02*
X116369048Y-108531911D01*
X116369048Y-108531911D02*
X116392857Y-108579530D01*
X116392857Y-108579530D02*
X116416667Y-108603340D01*
X116416667Y-108603340D02*
X116464286Y-108627149D01*
X116464286Y-108627149D02*
X116559524Y-108627149D01*
X116559524Y-108627149D02*
X116607143Y-108603340D01*
X116607143Y-108603340D02*
X116630952Y-108579530D01*
X116630952Y-108579530D02*
X116654762Y-108531911D01*
X116654762Y-108531911D02*
X116654762Y-108412863D01*
X116654762Y-108412863D02*
X116630952Y-108365244D01*
X116630952Y-108365244D02*
X116607143Y-108341435D01*
X116607143Y-108341435D02*
X116559524Y-108317625D01*
X116559524Y-108317625D02*
X116464286Y-108317625D01*
X116464286Y-108317625D02*
X116416667Y-108341435D01*
X116416667Y-108341435D02*
X116392857Y-108365244D01*
X116392857Y-108365244D02*
X116369048Y-108412863D01*
X116088345Y-104822744D02*
X116159773Y-104846554D01*
X116159773Y-104846554D02*
X116183583Y-104870363D01*
X116183583Y-104870363D02*
X116207392Y-104917982D01*
X116207392Y-104917982D02*
X116207392Y-104989411D01*
X116207392Y-104989411D02*
X116183583Y-105037030D01*
X116183583Y-105037030D02*
X116159773Y-105060840D01*
X116159773Y-105060840D02*
X116112154Y-105084649D01*
X116112154Y-105084649D02*
X115921678Y-105084649D01*
X115921678Y-105084649D02*
X115921678Y-104584649D01*
X115921678Y-104584649D02*
X116088345Y-104584649D01*
X116088345Y-104584649D02*
X116135964Y-104608459D01*
X116135964Y-104608459D02*
X116159773Y-104632268D01*
X116159773Y-104632268D02*
X116183583Y-104679887D01*
X116183583Y-104679887D02*
X116183583Y-104727506D01*
X116183583Y-104727506D02*
X116159773Y-104775125D01*
X116159773Y-104775125D02*
X116135964Y-104798935D01*
X116135964Y-104798935D02*
X116088345Y-104822744D01*
X116088345Y-104822744D02*
X115921678Y-104822744D01*
X126083334Y-87603340D02*
X126154762Y-87627149D01*
X126154762Y-87627149D02*
X126273810Y-87627149D01*
X126273810Y-87627149D02*
X126321429Y-87603340D01*
X126321429Y-87603340D02*
X126345238Y-87579530D01*
X126345238Y-87579530D02*
X126369048Y-87531911D01*
X126369048Y-87531911D02*
X126369048Y-87484292D01*
X126369048Y-87484292D02*
X126345238Y-87436673D01*
X126345238Y-87436673D02*
X126321429Y-87412863D01*
X126321429Y-87412863D02*
X126273810Y-87389054D01*
X126273810Y-87389054D02*
X126178572Y-87365244D01*
X126178572Y-87365244D02*
X126130953Y-87341435D01*
X126130953Y-87341435D02*
X126107143Y-87317625D01*
X126107143Y-87317625D02*
X126083334Y-87270006D01*
X126083334Y-87270006D02*
X126083334Y-87222387D01*
X126083334Y-87222387D02*
X126107143Y-87174768D01*
X126107143Y-87174768D02*
X126130953Y-87150959D01*
X126130953Y-87150959D02*
X126178572Y-87127149D01*
X126178572Y-87127149D02*
X126297619Y-87127149D01*
X126297619Y-87127149D02*
X126369048Y-87150959D01*
X126535714Y-87127149D02*
X126654762Y-87627149D01*
X126654762Y-87627149D02*
X126750000Y-87270006D01*
X126750000Y-87270006D02*
X126845238Y-87627149D01*
X126845238Y-87627149D02*
X126964286Y-87127149D01*
X127226191Y-87341435D02*
X127178572Y-87317625D01*
X127178572Y-87317625D02*
X127154762Y-87293816D01*
X127154762Y-87293816D02*
X127130953Y-87246197D01*
X127130953Y-87246197D02*
X127130953Y-87222387D01*
X127130953Y-87222387D02*
X127154762Y-87174768D01*
X127154762Y-87174768D02*
X127178572Y-87150959D01*
X127178572Y-87150959D02*
X127226191Y-87127149D01*
X127226191Y-87127149D02*
X127321429Y-87127149D01*
X127321429Y-87127149D02*
X127369048Y-87150959D01*
X127369048Y-87150959D02*
X127392857Y-87174768D01*
X127392857Y-87174768D02*
X127416667Y-87222387D01*
X127416667Y-87222387D02*
X127416667Y-87246197D01*
X127416667Y-87246197D02*
X127392857Y-87293816D01*
X127392857Y-87293816D02*
X127369048Y-87317625D01*
X127369048Y-87317625D02*
X127321429Y-87341435D01*
X127321429Y-87341435D02*
X127226191Y-87341435D01*
X127226191Y-87341435D02*
X127178572Y-87365244D01*
X127178572Y-87365244D02*
X127154762Y-87389054D01*
X127154762Y-87389054D02*
X127130953Y-87436673D01*
X127130953Y-87436673D02*
X127130953Y-87531911D01*
X127130953Y-87531911D02*
X127154762Y-87579530D01*
X127154762Y-87579530D02*
X127178572Y-87603340D01*
X127178572Y-87603340D02*
X127226191Y-87627149D01*
X127226191Y-87627149D02*
X127321429Y-87627149D01*
X127321429Y-87627149D02*
X127369048Y-87603340D01*
X127369048Y-87603340D02*
X127392857Y-87579530D01*
X127392857Y-87579530D02*
X127416667Y-87531911D01*
X127416667Y-87531911D02*
X127416667Y-87436673D01*
X127416667Y-87436673D02*
X127392857Y-87389054D01*
X127392857Y-87389054D02*
X127369048Y-87365244D01*
X127369048Y-87365244D02*
X127321429Y-87341435D01*
X126993107Y-83798935D02*
X126945488Y-83775125D01*
X126945488Y-83775125D02*
X126921678Y-83751316D01*
X126921678Y-83751316D02*
X126897869Y-83703697D01*
X126897869Y-83703697D02*
X126897869Y-83679887D01*
X126897869Y-83679887D02*
X126921678Y-83632268D01*
X126921678Y-83632268D02*
X126945488Y-83608459D01*
X126945488Y-83608459D02*
X126993107Y-83584649D01*
X126993107Y-83584649D02*
X127088345Y-83584649D01*
X127088345Y-83584649D02*
X127135964Y-83608459D01*
X127135964Y-83608459D02*
X127159773Y-83632268D01*
X127159773Y-83632268D02*
X127183583Y-83679887D01*
X127183583Y-83679887D02*
X127183583Y-83703697D01*
X127183583Y-83703697D02*
X127159773Y-83751316D01*
X127159773Y-83751316D02*
X127135964Y-83775125D01*
X127135964Y-83775125D02*
X127088345Y-83798935D01*
X127088345Y-83798935D02*
X126993107Y-83798935D01*
X126993107Y-83798935D02*
X126945488Y-83822744D01*
X126945488Y-83822744D02*
X126921678Y-83846554D01*
X126921678Y-83846554D02*
X126897869Y-83894173D01*
X126897869Y-83894173D02*
X126897869Y-83989411D01*
X126897869Y-83989411D02*
X126921678Y-84037030D01*
X126921678Y-84037030D02*
X126945488Y-84060840D01*
X126945488Y-84060840D02*
X126993107Y-84084649D01*
X126993107Y-84084649D02*
X127088345Y-84084649D01*
X127088345Y-84084649D02*
X127135964Y-84060840D01*
X127135964Y-84060840D02*
X127159773Y-84037030D01*
X127159773Y-84037030D02*
X127183583Y-83989411D01*
X127183583Y-83989411D02*
X127183583Y-83894173D01*
X127183583Y-83894173D02*
X127159773Y-83846554D01*
X127159773Y-83846554D02*
X127135964Y-83822744D01*
X127135964Y-83822744D02*
X127088345Y-83798935D01*
X120583334Y-87603340D02*
X120654762Y-87627149D01*
X120654762Y-87627149D02*
X120773810Y-87627149D01*
X120773810Y-87627149D02*
X120821429Y-87603340D01*
X120821429Y-87603340D02*
X120845238Y-87579530D01*
X120845238Y-87579530D02*
X120869048Y-87531911D01*
X120869048Y-87531911D02*
X120869048Y-87484292D01*
X120869048Y-87484292D02*
X120845238Y-87436673D01*
X120845238Y-87436673D02*
X120821429Y-87412863D01*
X120821429Y-87412863D02*
X120773810Y-87389054D01*
X120773810Y-87389054D02*
X120678572Y-87365244D01*
X120678572Y-87365244D02*
X120630953Y-87341435D01*
X120630953Y-87341435D02*
X120607143Y-87317625D01*
X120607143Y-87317625D02*
X120583334Y-87270006D01*
X120583334Y-87270006D02*
X120583334Y-87222387D01*
X120583334Y-87222387D02*
X120607143Y-87174768D01*
X120607143Y-87174768D02*
X120630953Y-87150959D01*
X120630953Y-87150959D02*
X120678572Y-87127149D01*
X120678572Y-87127149D02*
X120797619Y-87127149D01*
X120797619Y-87127149D02*
X120869048Y-87150959D01*
X121035714Y-87127149D02*
X121154762Y-87627149D01*
X121154762Y-87627149D02*
X121250000Y-87270006D01*
X121250000Y-87270006D02*
X121345238Y-87627149D01*
X121345238Y-87627149D02*
X121464286Y-87127149D01*
X121607143Y-87127149D02*
X121940476Y-87127149D01*
X121940476Y-87127149D02*
X121726191Y-87627149D01*
X121374059Y-83584649D02*
X121707392Y-83584649D01*
X121707392Y-83584649D02*
X121493107Y-84084649D01*
X131345239Y-101603340D02*
X131416667Y-101627149D01*
X131416667Y-101627149D02*
X131535715Y-101627149D01*
X131535715Y-101627149D02*
X131583334Y-101603340D01*
X131583334Y-101603340D02*
X131607143Y-101579530D01*
X131607143Y-101579530D02*
X131630953Y-101531911D01*
X131630953Y-101531911D02*
X131630953Y-101484292D01*
X131630953Y-101484292D02*
X131607143Y-101436673D01*
X131607143Y-101436673D02*
X131583334Y-101412863D01*
X131583334Y-101412863D02*
X131535715Y-101389054D01*
X131535715Y-101389054D02*
X131440477Y-101365244D01*
X131440477Y-101365244D02*
X131392858Y-101341435D01*
X131392858Y-101341435D02*
X131369048Y-101317625D01*
X131369048Y-101317625D02*
X131345239Y-101270006D01*
X131345239Y-101270006D02*
X131345239Y-101222387D01*
X131345239Y-101222387D02*
X131369048Y-101174768D01*
X131369048Y-101174768D02*
X131392858Y-101150959D01*
X131392858Y-101150959D02*
X131440477Y-101127149D01*
X131440477Y-101127149D02*
X131559524Y-101127149D01*
X131559524Y-101127149D02*
X131630953Y-101150959D01*
X131797619Y-101127149D02*
X131916667Y-101627149D01*
X131916667Y-101627149D02*
X132011905Y-101270006D01*
X132011905Y-101270006D02*
X132107143Y-101627149D01*
X132107143Y-101627149D02*
X132226191Y-101127149D01*
X132392858Y-101174768D02*
X132416667Y-101150959D01*
X132416667Y-101150959D02*
X132464286Y-101127149D01*
X132464286Y-101127149D02*
X132583334Y-101127149D01*
X132583334Y-101127149D02*
X132630953Y-101150959D01*
X132630953Y-101150959D02*
X132654762Y-101174768D01*
X132654762Y-101174768D02*
X132678572Y-101222387D01*
X132678572Y-101222387D02*
X132678572Y-101270006D01*
X132678572Y-101270006D02*
X132654762Y-101341435D01*
X132654762Y-101341435D02*
X132369048Y-101627149D01*
X132369048Y-101627149D02*
X132678572Y-101627149D01*
X132916667Y-101627149D02*
X133011905Y-101627149D01*
X133011905Y-101627149D02*
X133059524Y-101603340D01*
X133059524Y-101603340D02*
X133083333Y-101579530D01*
X133083333Y-101579530D02*
X133130952Y-101508101D01*
X133130952Y-101508101D02*
X133154762Y-101412863D01*
X133154762Y-101412863D02*
X133154762Y-101222387D01*
X133154762Y-101222387D02*
X133130952Y-101174768D01*
X133130952Y-101174768D02*
X133107143Y-101150959D01*
X133107143Y-101150959D02*
X133059524Y-101127149D01*
X133059524Y-101127149D02*
X132964286Y-101127149D01*
X132964286Y-101127149D02*
X132916667Y-101150959D01*
X132916667Y-101150959D02*
X132892857Y-101174768D01*
X132892857Y-101174768D02*
X132869048Y-101222387D01*
X132869048Y-101222387D02*
X132869048Y-101341435D01*
X132869048Y-101341435D02*
X132892857Y-101389054D01*
X132892857Y-101389054D02*
X132916667Y-101412863D01*
X132916667Y-101412863D02*
X132964286Y-101436673D01*
X132964286Y-101436673D02*
X133059524Y-101436673D01*
X133059524Y-101436673D02*
X133107143Y-101412863D01*
X133107143Y-101412863D02*
X133130952Y-101389054D01*
X133130952Y-101389054D02*
X133154762Y-101341435D01*
X132659773Y-98084649D02*
X132421678Y-98084649D01*
X132421678Y-98084649D02*
X132421678Y-97584649D01*
X92845239Y-115603340D02*
X92916667Y-115627149D01*
X92916667Y-115627149D02*
X93035715Y-115627149D01*
X93035715Y-115627149D02*
X93083334Y-115603340D01*
X93083334Y-115603340D02*
X93107143Y-115579530D01*
X93107143Y-115579530D02*
X93130953Y-115531911D01*
X93130953Y-115531911D02*
X93130953Y-115484292D01*
X93130953Y-115484292D02*
X93107143Y-115436673D01*
X93107143Y-115436673D02*
X93083334Y-115412863D01*
X93083334Y-115412863D02*
X93035715Y-115389054D01*
X93035715Y-115389054D02*
X92940477Y-115365244D01*
X92940477Y-115365244D02*
X92892858Y-115341435D01*
X92892858Y-115341435D02*
X92869048Y-115317625D01*
X92869048Y-115317625D02*
X92845239Y-115270006D01*
X92845239Y-115270006D02*
X92845239Y-115222387D01*
X92845239Y-115222387D02*
X92869048Y-115174768D01*
X92869048Y-115174768D02*
X92892858Y-115150959D01*
X92892858Y-115150959D02*
X92940477Y-115127149D01*
X92940477Y-115127149D02*
X93059524Y-115127149D01*
X93059524Y-115127149D02*
X93130953Y-115150959D01*
X93297619Y-115127149D02*
X93416667Y-115627149D01*
X93416667Y-115627149D02*
X93511905Y-115270006D01*
X93511905Y-115270006D02*
X93607143Y-115627149D01*
X93607143Y-115627149D02*
X93726191Y-115127149D01*
X94130953Y-115293816D02*
X94130953Y-115627149D01*
X94011905Y-115103340D02*
X93892858Y-115460482D01*
X93892858Y-115460482D02*
X94202381Y-115460482D01*
X94369048Y-115174768D02*
X94392857Y-115150959D01*
X94392857Y-115150959D02*
X94440476Y-115127149D01*
X94440476Y-115127149D02*
X94559524Y-115127149D01*
X94559524Y-115127149D02*
X94607143Y-115150959D01*
X94607143Y-115150959D02*
X94630952Y-115174768D01*
X94630952Y-115174768D02*
X94654762Y-115222387D01*
X94654762Y-115222387D02*
X94654762Y-115270006D01*
X94654762Y-115270006D02*
X94630952Y-115341435D01*
X94630952Y-115341435D02*
X94345238Y-115627149D01*
X94345238Y-115627149D02*
X94654762Y-115627149D01*
X94088345Y-111822744D02*
X93921678Y-111822744D01*
X93921678Y-112084649D02*
X93921678Y-111584649D01*
X93921678Y-111584649D02*
X94159773Y-111584649D01*
X94350249Y-112084649D02*
X94350249Y-111584649D01*
X94350249Y-111584649D02*
X94635963Y-112084649D01*
X94635963Y-112084649D02*
X94635963Y-111584649D01*
X125845239Y-115603340D02*
X125916667Y-115627149D01*
X125916667Y-115627149D02*
X126035715Y-115627149D01*
X126035715Y-115627149D02*
X126083334Y-115603340D01*
X126083334Y-115603340D02*
X126107143Y-115579530D01*
X126107143Y-115579530D02*
X126130953Y-115531911D01*
X126130953Y-115531911D02*
X126130953Y-115484292D01*
X126130953Y-115484292D02*
X126107143Y-115436673D01*
X126107143Y-115436673D02*
X126083334Y-115412863D01*
X126083334Y-115412863D02*
X126035715Y-115389054D01*
X126035715Y-115389054D02*
X125940477Y-115365244D01*
X125940477Y-115365244D02*
X125892858Y-115341435D01*
X125892858Y-115341435D02*
X125869048Y-115317625D01*
X125869048Y-115317625D02*
X125845239Y-115270006D01*
X125845239Y-115270006D02*
X125845239Y-115222387D01*
X125845239Y-115222387D02*
X125869048Y-115174768D01*
X125869048Y-115174768D02*
X125892858Y-115150959D01*
X125892858Y-115150959D02*
X125940477Y-115127149D01*
X125940477Y-115127149D02*
X126059524Y-115127149D01*
X126059524Y-115127149D02*
X126130953Y-115150959D01*
X126297619Y-115127149D02*
X126416667Y-115627149D01*
X126416667Y-115627149D02*
X126511905Y-115270006D01*
X126511905Y-115270006D02*
X126607143Y-115627149D01*
X126607143Y-115627149D02*
X126726191Y-115127149D01*
X127130953Y-115293816D02*
X127130953Y-115627149D01*
X127011905Y-115103340D02*
X126892858Y-115460482D01*
X126892858Y-115460482D02*
X127202381Y-115460482D01*
X127345238Y-115127149D02*
X127678571Y-115127149D01*
X127678571Y-115127149D02*
X127464286Y-115627149D01*
X127159773Y-112084649D02*
X126921678Y-112084649D01*
X126921678Y-112084649D02*
X126921678Y-111584649D01*
X127493107Y-111822744D02*
X127326440Y-111822744D01*
X127326440Y-112084649D02*
X127326440Y-111584649D01*
X127326440Y-111584649D02*
X127564535Y-111584649D01*
X127683583Y-111584649D02*
X127969297Y-111584649D01*
X127826440Y-112084649D02*
X127826440Y-111584649D01*
X92845239Y-101603340D02*
X92916667Y-101627149D01*
X92916667Y-101627149D02*
X93035715Y-101627149D01*
X93035715Y-101627149D02*
X93083334Y-101603340D01*
X93083334Y-101603340D02*
X93107143Y-101579530D01*
X93107143Y-101579530D02*
X93130953Y-101531911D01*
X93130953Y-101531911D02*
X93130953Y-101484292D01*
X93130953Y-101484292D02*
X93107143Y-101436673D01*
X93107143Y-101436673D02*
X93083334Y-101412863D01*
X93083334Y-101412863D02*
X93035715Y-101389054D01*
X93035715Y-101389054D02*
X92940477Y-101365244D01*
X92940477Y-101365244D02*
X92892858Y-101341435D01*
X92892858Y-101341435D02*
X92869048Y-101317625D01*
X92869048Y-101317625D02*
X92845239Y-101270006D01*
X92845239Y-101270006D02*
X92845239Y-101222387D01*
X92845239Y-101222387D02*
X92869048Y-101174768D01*
X92869048Y-101174768D02*
X92892858Y-101150959D01*
X92892858Y-101150959D02*
X92940477Y-101127149D01*
X92940477Y-101127149D02*
X93059524Y-101127149D01*
X93059524Y-101127149D02*
X93130953Y-101150959D01*
X93297619Y-101127149D02*
X93416667Y-101627149D01*
X93416667Y-101627149D02*
X93511905Y-101270006D01*
X93511905Y-101270006D02*
X93607143Y-101627149D01*
X93607143Y-101627149D02*
X93726191Y-101127149D01*
X93892858Y-101174768D02*
X93916667Y-101150959D01*
X93916667Y-101150959D02*
X93964286Y-101127149D01*
X93964286Y-101127149D02*
X94083334Y-101127149D01*
X94083334Y-101127149D02*
X94130953Y-101150959D01*
X94130953Y-101150959D02*
X94154762Y-101174768D01*
X94154762Y-101174768D02*
X94178572Y-101222387D01*
X94178572Y-101222387D02*
X94178572Y-101270006D01*
X94178572Y-101270006D02*
X94154762Y-101341435D01*
X94154762Y-101341435D02*
X93869048Y-101627149D01*
X93869048Y-101627149D02*
X94178572Y-101627149D01*
X94369048Y-101174768D02*
X94392857Y-101150959D01*
X94392857Y-101150959D02*
X94440476Y-101127149D01*
X94440476Y-101127149D02*
X94559524Y-101127149D01*
X94559524Y-101127149D02*
X94607143Y-101150959D01*
X94607143Y-101150959D02*
X94630952Y-101174768D01*
X94630952Y-101174768D02*
X94654762Y-101222387D01*
X94654762Y-101222387D02*
X94654762Y-101270006D01*
X94654762Y-101270006D02*
X94630952Y-101341435D01*
X94630952Y-101341435D02*
X94345238Y-101627149D01*
X94345238Y-101627149D02*
X94654762Y-101627149D01*
X93897869Y-98060840D02*
X93969297Y-98084649D01*
X93969297Y-98084649D02*
X94088345Y-98084649D01*
X94088345Y-98084649D02*
X94135964Y-98060840D01*
X94135964Y-98060840D02*
X94159773Y-98037030D01*
X94159773Y-98037030D02*
X94183583Y-97989411D01*
X94183583Y-97989411D02*
X94183583Y-97941792D01*
X94183583Y-97941792D02*
X94159773Y-97894173D01*
X94159773Y-97894173D02*
X94135964Y-97870363D01*
X94135964Y-97870363D02*
X94088345Y-97846554D01*
X94088345Y-97846554D02*
X93993107Y-97822744D01*
X93993107Y-97822744D02*
X93945488Y-97798935D01*
X93945488Y-97798935D02*
X93921678Y-97775125D01*
X93921678Y-97775125D02*
X93897869Y-97727506D01*
X93897869Y-97727506D02*
X93897869Y-97679887D01*
X93897869Y-97679887D02*
X93921678Y-97632268D01*
X93921678Y-97632268D02*
X93945488Y-97608459D01*
X93945488Y-97608459D02*
X93993107Y-97584649D01*
X93993107Y-97584649D02*
X94112154Y-97584649D01*
X94112154Y-97584649D02*
X94183583Y-97608459D01*
X109345239Y-108603340D02*
X109416667Y-108627149D01*
X109416667Y-108627149D02*
X109535715Y-108627149D01*
X109535715Y-108627149D02*
X109583334Y-108603340D01*
X109583334Y-108603340D02*
X109607143Y-108579530D01*
X109607143Y-108579530D02*
X109630953Y-108531911D01*
X109630953Y-108531911D02*
X109630953Y-108484292D01*
X109630953Y-108484292D02*
X109607143Y-108436673D01*
X109607143Y-108436673D02*
X109583334Y-108412863D01*
X109583334Y-108412863D02*
X109535715Y-108389054D01*
X109535715Y-108389054D02*
X109440477Y-108365244D01*
X109440477Y-108365244D02*
X109392858Y-108341435D01*
X109392858Y-108341435D02*
X109369048Y-108317625D01*
X109369048Y-108317625D02*
X109345239Y-108270006D01*
X109345239Y-108270006D02*
X109345239Y-108222387D01*
X109345239Y-108222387D02*
X109369048Y-108174768D01*
X109369048Y-108174768D02*
X109392858Y-108150959D01*
X109392858Y-108150959D02*
X109440477Y-108127149D01*
X109440477Y-108127149D02*
X109559524Y-108127149D01*
X109559524Y-108127149D02*
X109630953Y-108150959D01*
X109797619Y-108127149D02*
X109916667Y-108627149D01*
X109916667Y-108627149D02*
X110011905Y-108270006D01*
X110011905Y-108270006D02*
X110107143Y-108627149D01*
X110107143Y-108627149D02*
X110226191Y-108127149D01*
X110369048Y-108127149D02*
X110678572Y-108127149D01*
X110678572Y-108127149D02*
X110511905Y-108317625D01*
X110511905Y-108317625D02*
X110583334Y-108317625D01*
X110583334Y-108317625D02*
X110630953Y-108341435D01*
X110630953Y-108341435D02*
X110654762Y-108365244D01*
X110654762Y-108365244D02*
X110678572Y-108412863D01*
X110678572Y-108412863D02*
X110678572Y-108531911D01*
X110678572Y-108531911D02*
X110654762Y-108579530D01*
X110654762Y-108579530D02*
X110630953Y-108603340D01*
X110630953Y-108603340D02*
X110583334Y-108627149D01*
X110583334Y-108627149D02*
X110440477Y-108627149D01*
X110440477Y-108627149D02*
X110392858Y-108603340D01*
X110392858Y-108603340D02*
X110369048Y-108579530D01*
X111130952Y-108127149D02*
X110892857Y-108127149D01*
X110892857Y-108127149D02*
X110869048Y-108365244D01*
X110869048Y-108365244D02*
X110892857Y-108341435D01*
X110892857Y-108341435D02*
X110940476Y-108317625D01*
X110940476Y-108317625D02*
X111059524Y-108317625D01*
X111059524Y-108317625D02*
X111107143Y-108341435D01*
X111107143Y-108341435D02*
X111130952Y-108365244D01*
X111130952Y-108365244D02*
X111154762Y-108412863D01*
X111154762Y-108412863D02*
X111154762Y-108531911D01*
X111154762Y-108531911D02*
X111130952Y-108579530D01*
X111130952Y-108579530D02*
X111107143Y-108603340D01*
X111107143Y-108603340D02*
X111059524Y-108627149D01*
X111059524Y-108627149D02*
X110940476Y-108627149D01*
X110940476Y-108627149D02*
X110892857Y-108603340D01*
X110892857Y-108603340D02*
X110869048Y-108579530D01*
X110350250Y-104584649D02*
X110516916Y-105084649D01*
X110516916Y-105084649D02*
X110683583Y-104584649D01*
X136845239Y-108603340D02*
X136916667Y-108627149D01*
X136916667Y-108627149D02*
X137035715Y-108627149D01*
X137035715Y-108627149D02*
X137083334Y-108603340D01*
X137083334Y-108603340D02*
X137107143Y-108579530D01*
X137107143Y-108579530D02*
X137130953Y-108531911D01*
X137130953Y-108531911D02*
X137130953Y-108484292D01*
X137130953Y-108484292D02*
X137107143Y-108436673D01*
X137107143Y-108436673D02*
X137083334Y-108412863D01*
X137083334Y-108412863D02*
X137035715Y-108389054D01*
X137035715Y-108389054D02*
X136940477Y-108365244D01*
X136940477Y-108365244D02*
X136892858Y-108341435D01*
X136892858Y-108341435D02*
X136869048Y-108317625D01*
X136869048Y-108317625D02*
X136845239Y-108270006D01*
X136845239Y-108270006D02*
X136845239Y-108222387D01*
X136845239Y-108222387D02*
X136869048Y-108174768D01*
X136869048Y-108174768D02*
X136892858Y-108150959D01*
X136892858Y-108150959D02*
X136940477Y-108127149D01*
X136940477Y-108127149D02*
X137059524Y-108127149D01*
X137059524Y-108127149D02*
X137130953Y-108150959D01*
X137297619Y-108127149D02*
X137416667Y-108627149D01*
X137416667Y-108627149D02*
X137511905Y-108270006D01*
X137511905Y-108270006D02*
X137607143Y-108627149D01*
X137607143Y-108627149D02*
X137726191Y-108127149D01*
X138130953Y-108293816D02*
X138130953Y-108627149D01*
X138011905Y-108103340D02*
X137892858Y-108460482D01*
X137892858Y-108460482D02*
X138202381Y-108460482D01*
X138488095Y-108127149D02*
X138535714Y-108127149D01*
X138535714Y-108127149D02*
X138583333Y-108150959D01*
X138583333Y-108150959D02*
X138607143Y-108174768D01*
X138607143Y-108174768D02*
X138630952Y-108222387D01*
X138630952Y-108222387D02*
X138654762Y-108317625D01*
X138654762Y-108317625D02*
X138654762Y-108436673D01*
X138654762Y-108436673D02*
X138630952Y-108531911D01*
X138630952Y-108531911D02*
X138607143Y-108579530D01*
X138607143Y-108579530D02*
X138583333Y-108603340D01*
X138583333Y-108603340D02*
X138535714Y-108627149D01*
X138535714Y-108627149D02*
X138488095Y-108627149D01*
X138488095Y-108627149D02*
X138440476Y-108603340D01*
X138440476Y-108603340D02*
X138416667Y-108579530D01*
X138416667Y-108579530D02*
X138392857Y-108531911D01*
X138392857Y-108531911D02*
X138369048Y-108436673D01*
X138369048Y-108436673D02*
X138369048Y-108317625D01*
X138369048Y-108317625D02*
X138392857Y-108222387D01*
X138392857Y-108222387D02*
X138416667Y-108174768D01*
X138416667Y-108174768D02*
X138440476Y-108150959D01*
X138440476Y-108150959D02*
X138488095Y-108127149D01*
X137921678Y-104584649D02*
X137921678Y-104989411D01*
X137921678Y-104989411D02*
X137945488Y-105037030D01*
X137945488Y-105037030D02*
X137969297Y-105060840D01*
X137969297Y-105060840D02*
X138016916Y-105084649D01*
X138016916Y-105084649D02*
X138112154Y-105084649D01*
X138112154Y-105084649D02*
X138159773Y-105060840D01*
X138159773Y-105060840D02*
X138183583Y-105037030D01*
X138183583Y-105037030D02*
X138207392Y-104989411D01*
X138207392Y-104989411D02*
X138207392Y-104584649D01*
X138445488Y-105084649D02*
X138445488Y-104584649D01*
X138445488Y-104584649D02*
X138635964Y-104584649D01*
X138635964Y-104584649D02*
X138683583Y-104608459D01*
X138683583Y-104608459D02*
X138707393Y-104632268D01*
X138707393Y-104632268D02*
X138731202Y-104679887D01*
X138731202Y-104679887D02*
X138731202Y-104751316D01*
X138731202Y-104751316D02*
X138707393Y-104798935D01*
X138707393Y-104798935D02*
X138683583Y-104822744D01*
X138683583Y-104822744D02*
X138635964Y-104846554D01*
X138635964Y-104846554D02*
X138445488Y-104846554D01*
X109345239Y-94603340D02*
X109416667Y-94627149D01*
X109416667Y-94627149D02*
X109535715Y-94627149D01*
X109535715Y-94627149D02*
X109583334Y-94603340D01*
X109583334Y-94603340D02*
X109607143Y-94579530D01*
X109607143Y-94579530D02*
X109630953Y-94531911D01*
X109630953Y-94531911D02*
X109630953Y-94484292D01*
X109630953Y-94484292D02*
X109607143Y-94436673D01*
X109607143Y-94436673D02*
X109583334Y-94412863D01*
X109583334Y-94412863D02*
X109535715Y-94389054D01*
X109535715Y-94389054D02*
X109440477Y-94365244D01*
X109440477Y-94365244D02*
X109392858Y-94341435D01*
X109392858Y-94341435D02*
X109369048Y-94317625D01*
X109369048Y-94317625D02*
X109345239Y-94270006D01*
X109345239Y-94270006D02*
X109345239Y-94222387D01*
X109345239Y-94222387D02*
X109369048Y-94174768D01*
X109369048Y-94174768D02*
X109392858Y-94150959D01*
X109392858Y-94150959D02*
X109440477Y-94127149D01*
X109440477Y-94127149D02*
X109559524Y-94127149D01*
X109559524Y-94127149D02*
X109630953Y-94150959D01*
X109797619Y-94127149D02*
X109916667Y-94627149D01*
X109916667Y-94627149D02*
X110011905Y-94270006D01*
X110011905Y-94270006D02*
X110107143Y-94627149D01*
X110107143Y-94627149D02*
X110226191Y-94127149D01*
X110678572Y-94627149D02*
X110392858Y-94627149D01*
X110535715Y-94627149D02*
X110535715Y-94127149D01*
X110535715Y-94127149D02*
X110488096Y-94198578D01*
X110488096Y-94198578D02*
X110440477Y-94246197D01*
X110440477Y-94246197D02*
X110392858Y-94270006D01*
X111130952Y-94127149D02*
X110892857Y-94127149D01*
X110892857Y-94127149D02*
X110869048Y-94365244D01*
X110869048Y-94365244D02*
X110892857Y-94341435D01*
X110892857Y-94341435D02*
X110940476Y-94317625D01*
X110940476Y-94317625D02*
X111059524Y-94317625D01*
X111059524Y-94317625D02*
X111107143Y-94341435D01*
X111107143Y-94341435D02*
X111130952Y-94365244D01*
X111130952Y-94365244D02*
X111154762Y-94412863D01*
X111154762Y-94412863D02*
X111154762Y-94531911D01*
X111154762Y-94531911D02*
X111130952Y-94579530D01*
X111130952Y-94579530D02*
X111107143Y-94603340D01*
X111107143Y-94603340D02*
X111059524Y-94627149D01*
X111059524Y-94627149D02*
X110940476Y-94627149D01*
X110940476Y-94627149D02*
X110892857Y-94603340D01*
X110892857Y-94603340D02*
X110869048Y-94579530D01*
X110350250Y-90584649D02*
X110635964Y-90584649D01*
X110493107Y-91084649D02*
X110493107Y-90584649D01*
X136845239Y-101603340D02*
X136916667Y-101627149D01*
X136916667Y-101627149D02*
X137035715Y-101627149D01*
X137035715Y-101627149D02*
X137083334Y-101603340D01*
X137083334Y-101603340D02*
X137107143Y-101579530D01*
X137107143Y-101579530D02*
X137130953Y-101531911D01*
X137130953Y-101531911D02*
X137130953Y-101484292D01*
X137130953Y-101484292D02*
X137107143Y-101436673D01*
X137107143Y-101436673D02*
X137083334Y-101412863D01*
X137083334Y-101412863D02*
X137035715Y-101389054D01*
X137035715Y-101389054D02*
X136940477Y-101365244D01*
X136940477Y-101365244D02*
X136892858Y-101341435D01*
X136892858Y-101341435D02*
X136869048Y-101317625D01*
X136869048Y-101317625D02*
X136845239Y-101270006D01*
X136845239Y-101270006D02*
X136845239Y-101222387D01*
X136845239Y-101222387D02*
X136869048Y-101174768D01*
X136869048Y-101174768D02*
X136892858Y-101150959D01*
X136892858Y-101150959D02*
X136940477Y-101127149D01*
X136940477Y-101127149D02*
X137059524Y-101127149D01*
X137059524Y-101127149D02*
X137130953Y-101150959D01*
X137297619Y-101127149D02*
X137416667Y-101627149D01*
X137416667Y-101627149D02*
X137511905Y-101270006D01*
X137511905Y-101270006D02*
X137607143Y-101627149D01*
X137607143Y-101627149D02*
X137726191Y-101127149D01*
X137869048Y-101127149D02*
X138178572Y-101127149D01*
X138178572Y-101127149D02*
X138011905Y-101317625D01*
X138011905Y-101317625D02*
X138083334Y-101317625D01*
X138083334Y-101317625D02*
X138130953Y-101341435D01*
X138130953Y-101341435D02*
X138154762Y-101365244D01*
X138154762Y-101365244D02*
X138178572Y-101412863D01*
X138178572Y-101412863D02*
X138178572Y-101531911D01*
X138178572Y-101531911D02*
X138154762Y-101579530D01*
X138154762Y-101579530D02*
X138130953Y-101603340D01*
X138130953Y-101603340D02*
X138083334Y-101627149D01*
X138083334Y-101627149D02*
X137940477Y-101627149D01*
X137940477Y-101627149D02*
X137892858Y-101603340D01*
X137892858Y-101603340D02*
X137869048Y-101579530D01*
X138488095Y-101127149D02*
X138535714Y-101127149D01*
X138535714Y-101127149D02*
X138583333Y-101150959D01*
X138583333Y-101150959D02*
X138607143Y-101174768D01*
X138607143Y-101174768D02*
X138630952Y-101222387D01*
X138630952Y-101222387D02*
X138654762Y-101317625D01*
X138654762Y-101317625D02*
X138654762Y-101436673D01*
X138654762Y-101436673D02*
X138630952Y-101531911D01*
X138630952Y-101531911D02*
X138607143Y-101579530D01*
X138607143Y-101579530D02*
X138583333Y-101603340D01*
X138583333Y-101603340D02*
X138535714Y-101627149D01*
X138535714Y-101627149D02*
X138488095Y-101627149D01*
X138488095Y-101627149D02*
X138440476Y-101603340D01*
X138440476Y-101603340D02*
X138416667Y-101579530D01*
X138416667Y-101579530D02*
X138392857Y-101531911D01*
X138392857Y-101531911D02*
X138369048Y-101436673D01*
X138369048Y-101436673D02*
X138369048Y-101317625D01*
X138369048Y-101317625D02*
X138392857Y-101222387D01*
X138392857Y-101222387D02*
X138416667Y-101174768D01*
X138416667Y-101174768D02*
X138440476Y-101150959D01*
X138440476Y-101150959D02*
X138488095Y-101127149D01*
X138207392Y-98084649D02*
X138040726Y-97846554D01*
X137921678Y-98084649D02*
X137921678Y-97584649D01*
X137921678Y-97584649D02*
X138112154Y-97584649D01*
X138112154Y-97584649D02*
X138159773Y-97608459D01*
X138159773Y-97608459D02*
X138183583Y-97632268D01*
X138183583Y-97632268D02*
X138207392Y-97679887D01*
X138207392Y-97679887D02*
X138207392Y-97751316D01*
X138207392Y-97751316D02*
X138183583Y-97798935D01*
X138183583Y-97798935D02*
X138159773Y-97822744D01*
X138159773Y-97822744D02*
X138112154Y-97846554D01*
X138112154Y-97846554D02*
X137921678Y-97846554D01*
X138421678Y-97822744D02*
X138588345Y-97822744D01*
X138659773Y-98084649D02*
X138421678Y-98084649D01*
X138421678Y-98084649D02*
X138421678Y-97584649D01*
X138421678Y-97584649D02*
X138659773Y-97584649D01*
X138802631Y-97584649D02*
X139088345Y-97584649D01*
X138945488Y-98084649D02*
X138945488Y-97584649D01*
X98345239Y-115603340D02*
X98416667Y-115627149D01*
X98416667Y-115627149D02*
X98535715Y-115627149D01*
X98535715Y-115627149D02*
X98583334Y-115603340D01*
X98583334Y-115603340D02*
X98607143Y-115579530D01*
X98607143Y-115579530D02*
X98630953Y-115531911D01*
X98630953Y-115531911D02*
X98630953Y-115484292D01*
X98630953Y-115484292D02*
X98607143Y-115436673D01*
X98607143Y-115436673D02*
X98583334Y-115412863D01*
X98583334Y-115412863D02*
X98535715Y-115389054D01*
X98535715Y-115389054D02*
X98440477Y-115365244D01*
X98440477Y-115365244D02*
X98392858Y-115341435D01*
X98392858Y-115341435D02*
X98369048Y-115317625D01*
X98369048Y-115317625D02*
X98345239Y-115270006D01*
X98345239Y-115270006D02*
X98345239Y-115222387D01*
X98345239Y-115222387D02*
X98369048Y-115174768D01*
X98369048Y-115174768D02*
X98392858Y-115150959D01*
X98392858Y-115150959D02*
X98440477Y-115127149D01*
X98440477Y-115127149D02*
X98559524Y-115127149D01*
X98559524Y-115127149D02*
X98630953Y-115150959D01*
X98797619Y-115127149D02*
X98916667Y-115627149D01*
X98916667Y-115627149D02*
X99011905Y-115270006D01*
X99011905Y-115270006D02*
X99107143Y-115627149D01*
X99107143Y-115627149D02*
X99226191Y-115127149D01*
X99630953Y-115293816D02*
X99630953Y-115627149D01*
X99511905Y-115103340D02*
X99392858Y-115460482D01*
X99392858Y-115460482D02*
X99702381Y-115460482D01*
X99845238Y-115127149D02*
X100154762Y-115127149D01*
X100154762Y-115127149D02*
X99988095Y-115317625D01*
X99988095Y-115317625D02*
X100059524Y-115317625D01*
X100059524Y-115317625D02*
X100107143Y-115341435D01*
X100107143Y-115341435D02*
X100130952Y-115365244D01*
X100130952Y-115365244D02*
X100154762Y-115412863D01*
X100154762Y-115412863D02*
X100154762Y-115531911D01*
X100154762Y-115531911D02*
X100130952Y-115579530D01*
X100130952Y-115579530D02*
X100107143Y-115603340D01*
X100107143Y-115603340D02*
X100059524Y-115627149D01*
X100059524Y-115627149D02*
X99916667Y-115627149D01*
X99916667Y-115627149D02*
X99869048Y-115603340D01*
X99869048Y-115603340D02*
X99845238Y-115579530D01*
X99397869Y-112060840D02*
X99469297Y-112084649D01*
X99469297Y-112084649D02*
X99588345Y-112084649D01*
X99588345Y-112084649D02*
X99635964Y-112060840D01*
X99635964Y-112060840D02*
X99659773Y-112037030D01*
X99659773Y-112037030D02*
X99683583Y-111989411D01*
X99683583Y-111989411D02*
X99683583Y-111941792D01*
X99683583Y-111941792D02*
X99659773Y-111894173D01*
X99659773Y-111894173D02*
X99635964Y-111870363D01*
X99635964Y-111870363D02*
X99588345Y-111846554D01*
X99588345Y-111846554D02*
X99493107Y-111822744D01*
X99493107Y-111822744D02*
X99445488Y-111798935D01*
X99445488Y-111798935D02*
X99421678Y-111775125D01*
X99421678Y-111775125D02*
X99397869Y-111727506D01*
X99397869Y-111727506D02*
X99397869Y-111679887D01*
X99397869Y-111679887D02*
X99421678Y-111632268D01*
X99421678Y-111632268D02*
X99445488Y-111608459D01*
X99445488Y-111608459D02*
X99493107Y-111584649D01*
X99493107Y-111584649D02*
X99612154Y-111584649D01*
X99612154Y-111584649D02*
X99683583Y-111608459D01*
X99897868Y-112084649D02*
X99897868Y-111584649D01*
X99897868Y-111584649D02*
X100088344Y-111584649D01*
X100088344Y-111584649D02*
X100135963Y-111608459D01*
X100135963Y-111608459D02*
X100159773Y-111632268D01*
X100159773Y-111632268D02*
X100183582Y-111679887D01*
X100183582Y-111679887D02*
X100183582Y-111751316D01*
X100183582Y-111751316D02*
X100159773Y-111798935D01*
X100159773Y-111798935D02*
X100135963Y-111822744D01*
X100135963Y-111822744D02*
X100088344Y-111846554D01*
X100088344Y-111846554D02*
X99897868Y-111846554D01*
X92845239Y-94603340D02*
X92916667Y-94627149D01*
X92916667Y-94627149D02*
X93035715Y-94627149D01*
X93035715Y-94627149D02*
X93083334Y-94603340D01*
X93083334Y-94603340D02*
X93107143Y-94579530D01*
X93107143Y-94579530D02*
X93130953Y-94531911D01*
X93130953Y-94531911D02*
X93130953Y-94484292D01*
X93130953Y-94484292D02*
X93107143Y-94436673D01*
X93107143Y-94436673D02*
X93083334Y-94412863D01*
X93083334Y-94412863D02*
X93035715Y-94389054D01*
X93035715Y-94389054D02*
X92940477Y-94365244D01*
X92940477Y-94365244D02*
X92892858Y-94341435D01*
X92892858Y-94341435D02*
X92869048Y-94317625D01*
X92869048Y-94317625D02*
X92845239Y-94270006D01*
X92845239Y-94270006D02*
X92845239Y-94222387D01*
X92845239Y-94222387D02*
X92869048Y-94174768D01*
X92869048Y-94174768D02*
X92892858Y-94150959D01*
X92892858Y-94150959D02*
X92940477Y-94127149D01*
X92940477Y-94127149D02*
X93059524Y-94127149D01*
X93059524Y-94127149D02*
X93130953Y-94150959D01*
X93297619Y-94127149D02*
X93416667Y-94627149D01*
X93416667Y-94627149D02*
X93511905Y-94270006D01*
X93511905Y-94270006D02*
X93607143Y-94627149D01*
X93607143Y-94627149D02*
X93726191Y-94127149D01*
X94178572Y-94627149D02*
X93892858Y-94627149D01*
X94035715Y-94627149D02*
X94035715Y-94127149D01*
X94035715Y-94127149D02*
X93988096Y-94198578D01*
X93988096Y-94198578D02*
X93940477Y-94246197D01*
X93940477Y-94246197D02*
X93892858Y-94270006D01*
X94369048Y-94174768D02*
X94392857Y-94150959D01*
X94392857Y-94150959D02*
X94440476Y-94127149D01*
X94440476Y-94127149D02*
X94559524Y-94127149D01*
X94559524Y-94127149D02*
X94607143Y-94150959D01*
X94607143Y-94150959D02*
X94630952Y-94174768D01*
X94630952Y-94174768D02*
X94654762Y-94222387D01*
X94654762Y-94222387D02*
X94654762Y-94270006D01*
X94654762Y-94270006D02*
X94630952Y-94341435D01*
X94630952Y-94341435D02*
X94345238Y-94627149D01*
X94345238Y-94627149D02*
X94654762Y-94627149D01*
X93874059Y-90584649D02*
X93993107Y-91084649D01*
X93993107Y-91084649D02*
X94088345Y-90727506D01*
X94088345Y-90727506D02*
X94183583Y-91084649D01*
X94183583Y-91084649D02*
X94302631Y-90584649D01*
X103845239Y-94603340D02*
X103916667Y-94627149D01*
X103916667Y-94627149D02*
X104035715Y-94627149D01*
X104035715Y-94627149D02*
X104083334Y-94603340D01*
X104083334Y-94603340D02*
X104107143Y-94579530D01*
X104107143Y-94579530D02*
X104130953Y-94531911D01*
X104130953Y-94531911D02*
X104130953Y-94484292D01*
X104130953Y-94484292D02*
X104107143Y-94436673D01*
X104107143Y-94436673D02*
X104083334Y-94412863D01*
X104083334Y-94412863D02*
X104035715Y-94389054D01*
X104035715Y-94389054D02*
X103940477Y-94365244D01*
X103940477Y-94365244D02*
X103892858Y-94341435D01*
X103892858Y-94341435D02*
X103869048Y-94317625D01*
X103869048Y-94317625D02*
X103845239Y-94270006D01*
X103845239Y-94270006D02*
X103845239Y-94222387D01*
X103845239Y-94222387D02*
X103869048Y-94174768D01*
X103869048Y-94174768D02*
X103892858Y-94150959D01*
X103892858Y-94150959D02*
X103940477Y-94127149D01*
X103940477Y-94127149D02*
X104059524Y-94127149D01*
X104059524Y-94127149D02*
X104130953Y-94150959D01*
X104297619Y-94127149D02*
X104416667Y-94627149D01*
X104416667Y-94627149D02*
X104511905Y-94270006D01*
X104511905Y-94270006D02*
X104607143Y-94627149D01*
X104607143Y-94627149D02*
X104726191Y-94127149D01*
X105178572Y-94627149D02*
X104892858Y-94627149D01*
X105035715Y-94627149D02*
X105035715Y-94127149D01*
X105035715Y-94127149D02*
X104988096Y-94198578D01*
X104988096Y-94198578D02*
X104940477Y-94246197D01*
X104940477Y-94246197D02*
X104892858Y-94270006D01*
X105607143Y-94293816D02*
X105607143Y-94627149D01*
X105488095Y-94103340D02*
X105369048Y-94460482D01*
X105369048Y-94460482D02*
X105678571Y-94460482D01*
X105207392Y-91084649D02*
X105040726Y-90846554D01*
X104921678Y-91084649D02*
X104921678Y-90584649D01*
X104921678Y-90584649D02*
X105112154Y-90584649D01*
X105112154Y-90584649D02*
X105159773Y-90608459D01*
X105159773Y-90608459D02*
X105183583Y-90632268D01*
X105183583Y-90632268D02*
X105207392Y-90679887D01*
X105207392Y-90679887D02*
X105207392Y-90751316D01*
X105207392Y-90751316D02*
X105183583Y-90798935D01*
X105183583Y-90798935D02*
X105159773Y-90822744D01*
X105159773Y-90822744D02*
X105112154Y-90846554D01*
X105112154Y-90846554D02*
X104921678Y-90846554D01*
D13*
%TO.C,Logo1*%
G36*
X123536538Y-120751252D02*
G01*
X123610053Y-120814619D01*
X123628189Y-120847033D01*
X123651826Y-120927943D01*
X123644228Y-120990466D01*
X123598879Y-121056881D01*
X123552310Y-121106370D01*
X123494666Y-121173885D01*
X123421129Y-121272561D01*
X123339887Y-121389774D01*
X123259126Y-121512898D01*
X123187034Y-121629308D01*
X123131795Y-121726379D01*
X123101599Y-121791485D01*
X123098352Y-121806444D01*
X123073706Y-121861470D01*
X123015341Y-121920425D01*
X122946613Y-121962957D01*
X122908153Y-121972161D01*
X122848835Y-121952884D01*
X122776818Y-121905863D01*
X122769574Y-121899796D01*
X122712770Y-121832075D01*
X122689881Y-121750418D01*
X122702522Y-121648126D01*
X122752302Y-121518499D01*
X122840835Y-121354839D01*
X122938367Y-121198421D01*
X123048209Y-121038007D01*
X123153693Y-120900587D01*
X123247342Y-120794939D01*
X123321680Y-120729838D01*
X123350296Y-120714900D01*
X123440807Y-120713664D01*
X123536538Y-120751252D01*
G37*
G36*
X113485662Y-119021191D02*
G01*
X113579645Y-119087912D01*
X113643564Y-119176680D01*
X113647587Y-119186726D01*
X113641986Y-119253218D01*
X113592001Y-119330792D01*
X113509584Y-119404580D01*
X113439276Y-119445882D01*
X113380252Y-119486573D01*
X113287076Y-119566347D01*
X113166946Y-119678061D01*
X113027065Y-119814568D01*
X112874633Y-119968723D01*
X112716851Y-120133380D01*
X112560918Y-120301393D01*
X112429847Y-120447597D01*
X112275794Y-120608438D01*
X112145642Y-120713071D01*
X112038299Y-120762053D01*
X111952675Y-120755946D01*
X111903557Y-120717388D01*
X111881384Y-120646409D01*
X111895153Y-120545070D01*
X111939785Y-120429537D01*
X112010200Y-120315976D01*
X112041662Y-120277819D01*
X112077985Y-120234989D01*
X112137487Y-120162770D01*
X112181624Y-120108485D01*
X112292902Y-119976262D01*
X112426459Y-119825999D01*
X112573327Y-119666950D01*
X112724540Y-119508372D01*
X112871130Y-119359517D01*
X113004130Y-119229643D01*
X113114574Y-119128003D01*
X113193493Y-119063852D01*
X113194348Y-119063253D01*
X113285437Y-119017040D01*
X113377739Y-118995146D01*
X113386584Y-118994872D01*
X113485662Y-119021191D01*
G37*
G36*
X124794092Y-119384432D02*
G01*
X124805364Y-119399045D01*
X124837382Y-119499828D01*
X124808684Y-119602436D01*
X124720473Y-119705033D01*
X124573951Y-119805788D01*
X124519363Y-119835095D01*
X124442214Y-119879928D01*
X124345578Y-119943636D01*
X124242765Y-120016398D01*
X124147085Y-120088397D01*
X124071847Y-120149815D01*
X124030363Y-120190832D01*
X124026235Y-120198861D01*
X124022355Y-120242463D01*
X124017311Y-120308546D01*
X123991026Y-120388644D01*
X123936407Y-120452189D01*
X123872102Y-120479056D01*
X123860007Y-120478303D01*
X123809221Y-120471793D01*
X123727154Y-120462577D01*
X123712523Y-120461023D01*
X123608694Y-120430648D01*
X123515974Y-120355287D01*
X123503182Y-120341104D01*
X123446630Y-120271564D01*
X123412772Y-120220026D01*
X123408486Y-120207499D01*
X123434952Y-120149494D01*
X123508484Y-120070365D01*
X123620283Y-119975936D01*
X123761547Y-119872033D01*
X123923477Y-119764481D01*
X124097275Y-119659108D01*
X124274138Y-119561737D01*
X124445269Y-119478196D01*
X124601867Y-119414309D01*
X124612005Y-119410742D01*
X124708336Y-119379796D01*
X124763589Y-119371356D01*
X124794092Y-119384432D01*
G37*
G36*
X109675765Y-120148704D02*
G01*
X109708587Y-120174197D01*
X109719813Y-120188782D01*
X109760830Y-120281168D01*
X109744899Y-120371344D01*
X109670538Y-120461913D01*
X109536262Y-120555479D01*
X109498962Y-120576490D01*
X109125330Y-120800349D01*
X108803916Y-121034984D01*
X108536836Y-121278312D01*
X108326205Y-121528249D01*
X108174141Y-121782713D01*
X108109303Y-121944598D01*
X108065522Y-121997567D01*
X107990451Y-122004355D01*
X107894635Y-121964574D01*
X107877024Y-121953140D01*
X107804298Y-121905960D01*
X107751782Y-121876253D01*
X107744486Y-121873213D01*
X107717018Y-121835964D01*
X107698200Y-121760434D01*
X107690849Y-121670093D01*
X107697781Y-121588413D01*
X107706844Y-121559537D01*
X107730402Y-121510148D01*
X107776427Y-121415810D01*
X107839724Y-121287092D01*
X107915099Y-121134562D01*
X107980816Y-121002070D01*
X108078021Y-120809718D01*
X108155058Y-120667979D01*
X108217392Y-120570983D01*
X108270489Y-120512863D01*
X108319814Y-120487747D01*
X108370831Y-120489768D01*
X108429007Y-120513055D01*
X108433864Y-120515523D01*
X108511905Y-120570703D01*
X108558017Y-120617605D01*
X108584882Y-120648041D01*
X108612267Y-120659142D01*
X108652962Y-120647147D01*
X108719753Y-120608294D01*
X108825054Y-120539074D01*
X109051412Y-120398503D01*
X109269228Y-120282016D01*
X109463724Y-120197209D01*
X109541486Y-120170869D01*
X109627175Y-120148309D01*
X109675765Y-120148704D01*
G37*
G36*
X122252542Y-120691574D02*
G01*
X122363062Y-120739937D01*
X122453588Y-120823196D01*
X122464303Y-120838453D01*
X122494648Y-120895742D01*
X122492132Y-120946243D01*
X122464031Y-121007932D01*
X122395996Y-121089860D01*
X122330205Y-121121628D01*
X122239956Y-121144425D01*
X122139462Y-121173495D01*
X122136935Y-121174282D01*
X122028388Y-121208195D01*
X122167949Y-121249279D01*
X122302170Y-121312285D01*
X122385719Y-121402684D01*
X122415374Y-121512504D01*
X122387911Y-121633776D01*
X122349773Y-121699019D01*
X122295197Y-121749649D01*
X122200481Y-121814311D01*
X122082823Y-121883379D01*
X121959421Y-121947228D01*
X121847474Y-121996235D01*
X121780281Y-122017714D01*
X121725112Y-122035219D01*
X121702747Y-122043852D01*
X121535078Y-122108840D01*
X121379358Y-122162578D01*
X121249177Y-122200799D01*
X121158125Y-122219233D01*
X121141052Y-122220269D01*
X121044158Y-122191741D01*
X120966418Y-122124515D01*
X120884083Y-122021826D01*
X120853176Y-121947920D01*
X120876000Y-121893708D01*
X120954862Y-121850102D01*
X121043268Y-121821412D01*
X121132741Y-121791920D01*
X121256899Y-121746001D01*
X121393548Y-121691969D01*
X121440004Y-121672769D01*
X121705378Y-121561682D01*
X121582390Y-121456409D01*
X121483054Y-121344838D01*
X121432497Y-121227100D01*
X121435855Y-121115344D01*
X121436834Y-121112235D01*
X121475418Y-121062758D01*
X121557435Y-120996246D01*
X121669555Y-120920670D01*
X121798448Y-120844000D01*
X121930783Y-120774206D01*
X122053230Y-120719259D01*
X122144956Y-120688847D01*
X122252542Y-120691574D01*
G37*
G36*
X127381703Y-120582424D02*
G01*
X127479283Y-120639745D01*
X127555723Y-120726351D01*
X127593785Y-120821299D01*
X127595299Y-120841939D01*
X127577542Y-120895685D01*
X127529620Y-120984451D01*
X127459556Y-121094378D01*
X127401465Y-121176726D01*
X127279342Y-121346145D01*
X127156838Y-121521730D01*
X127042339Y-121690987D01*
X126944232Y-121841422D01*
X126870902Y-121960543D01*
X126847327Y-122002260D01*
X126767395Y-122123646D01*
X126689255Y-122184042D01*
X126609709Y-122184283D01*
X126525562Y-122125206D01*
X126497079Y-122093835D01*
X126437305Y-121999887D01*
X126422073Y-121904128D01*
X126452547Y-121794549D01*
X126529891Y-121659143D01*
X126540769Y-121642953D01*
X126602381Y-121546875D01*
X126646789Y-121467370D01*
X126664781Y-121420999D01*
X126664822Y-121419919D01*
X126644618Y-121401010D01*
X126586752Y-121424731D01*
X126495570Y-121488078D01*
X126375418Y-121588046D01*
X126236202Y-121716300D01*
X126136687Y-121809236D01*
X126052574Y-121883466D01*
X125994403Y-121929942D01*
X125974288Y-121941148D01*
X125931362Y-121923633D01*
X125855446Y-121878163D01*
X125762128Y-121815349D01*
X125666997Y-121745801D01*
X125585643Y-121680130D01*
X125568904Y-121665215D01*
X125479915Y-121566335D01*
X125426882Y-121470694D01*
X125417142Y-121392343D01*
X125420569Y-121381120D01*
X125460842Y-121325364D01*
X125542523Y-121244811D01*
X125655170Y-121148706D01*
X125788342Y-121046294D01*
X125843132Y-121006961D01*
X125950054Y-120937047D01*
X126077819Y-120861453D01*
X126213001Y-120787175D01*
X126342173Y-120721211D01*
X126451906Y-120670558D01*
X126528775Y-120642212D01*
X126550045Y-120638584D01*
X126608899Y-120651290D01*
X126696498Y-120683461D01*
X126740456Y-120702939D01*
X126877367Y-120767295D01*
X127084578Y-120659187D01*
X127197242Y-120603363D01*
X127273892Y-120575236D01*
X127331586Y-120570400D01*
X127381703Y-120582424D01*
G37*
G36*
X120480100Y-120711075D02*
G01*
X120660451Y-120776309D01*
X120791926Y-120873019D01*
X120860354Y-120945486D01*
X120887446Y-121001725D01*
X120883310Y-121058671D01*
X120836186Y-121150901D01*
X120746719Y-121250631D01*
X120630082Y-121342151D01*
X120580341Y-121372318D01*
X120509717Y-121413332D01*
X120465925Y-121441933D01*
X120462210Y-121445109D01*
X120430042Y-121471248D01*
X120365432Y-121520304D01*
X120322650Y-121552017D01*
X120247657Y-121608741D01*
X120195511Y-121651103D01*
X120183089Y-121663061D01*
X120135436Y-121692253D01*
X120050317Y-121721879D01*
X119951860Y-121745063D01*
X119864196Y-121754931D01*
X119860574Y-121754951D01*
X119769068Y-121738306D01*
X119671234Y-121697685D01*
X119659198Y-121690695D01*
X119585749Y-121651838D01*
X119540993Y-121648308D01*
X119513650Y-121667551D01*
X119465942Y-121730026D01*
X119423497Y-121807418D01*
X119396963Y-121877335D01*
X119395664Y-121915664D01*
X119446981Y-121941823D01*
X119550248Y-121944278D01*
X119700487Y-121923960D01*
X119892724Y-121881799D01*
X120121982Y-121818724D01*
X120383286Y-121735666D01*
X120413754Y-121725356D01*
X120574820Y-121672365D01*
X120685798Y-121641704D01*
X120754395Y-121633189D01*
X120788320Y-121646632D01*
X120795280Y-121681848D01*
X120789001Y-121716300D01*
X120727907Y-121836316D01*
X120605595Y-121951106D01*
X120422687Y-122060291D01*
X120179804Y-122163492D01*
X119916131Y-122249296D01*
X119702083Y-122298561D01*
X119524507Y-122309112D01*
X119371400Y-122280931D01*
X119292102Y-122248338D01*
X119186311Y-122181905D01*
X119087203Y-122097922D01*
X119067255Y-122076709D01*
X119005759Y-121993018D01*
X118978614Y-121908151D01*
X118973565Y-121817845D01*
X118978880Y-121726091D01*
X118992409Y-121662854D01*
X119001885Y-121648185D01*
X119031156Y-121615570D01*
X119083957Y-121544329D01*
X119150346Y-121448054D01*
X119170919Y-121417092D01*
X119285390Y-121260896D01*
X119410459Y-121130206D01*
X119560975Y-121012193D01*
X119751788Y-120894023D01*
X119820321Y-120855964D01*
X120057857Y-120750865D01*
X120278509Y-120702581D01*
X120480100Y-120711075D01*
G37*
G36*
X113591119Y-120179751D02*
G01*
X113627744Y-120208149D01*
X113684934Y-120293196D01*
X113698126Y-120385673D01*
X113672834Y-120469947D01*
X113614571Y-120530386D01*
X113528850Y-120551357D01*
X113507448Y-120549216D01*
X113484758Y-120568733D01*
X113484188Y-120575152D01*
X113511507Y-120598372D01*
X113579270Y-120618911D01*
X113600489Y-120622678D01*
X113772418Y-120668793D01*
X113891889Y-120741865D01*
X113958777Y-120835551D01*
X113972955Y-120943509D01*
X113934295Y-121059396D01*
X113842673Y-121176872D01*
X113697960Y-121289592D01*
X113614748Y-121337462D01*
X113539450Y-121379291D01*
X113490759Y-121410653D01*
X113484188Y-121416506D01*
X113450760Y-121436944D01*
X113372502Y-121477318D01*
X113261084Y-121531975D01*
X113128178Y-121595259D01*
X112985453Y-121661514D01*
X112879426Y-121709556D01*
X112803924Y-121740481D01*
X112692832Y-121782648D01*
X112569274Y-121827296D01*
X112560709Y-121830304D01*
X112437348Y-121875537D01*
X112325186Y-121920101D01*
X112247233Y-121954828D01*
X112243651Y-121956655D01*
X112169102Y-121990745D01*
X112064835Y-122033017D01*
X111948032Y-122077183D01*
X111835875Y-122116958D01*
X111745547Y-122146055D01*
X111694230Y-122158190D01*
X111692623Y-122158242D01*
X111654832Y-122136699D01*
X111595522Y-122082129D01*
X111564568Y-122048616D01*
X111490281Y-121942479D01*
X111470812Y-121857122D01*
X111506803Y-121795373D01*
X111507082Y-121795160D01*
X111546186Y-121775274D01*
X111633988Y-121736107D01*
X111761605Y-121681443D01*
X111920156Y-121615064D01*
X112100757Y-121540753D01*
X112181624Y-121507854D01*
X112490959Y-121380762D01*
X112747557Y-121271775D01*
X112950685Y-121181285D01*
X113099613Y-121109684D01*
X113193611Y-121057365D01*
X113231947Y-121024722D01*
X113213891Y-121012146D01*
X113138713Y-121020030D01*
X113059492Y-121036173D01*
X112964852Y-121049364D01*
X112898889Y-121033589D01*
X112867179Y-121013204D01*
X112779302Y-120925317D01*
X112711830Y-120818353D01*
X112679142Y-120716257D01*
X112678043Y-120698263D01*
X112685394Y-120648146D01*
X112712737Y-120598253D01*
X112767605Y-120541322D01*
X112857528Y-120470094D01*
X112990040Y-120377306D01*
X113059160Y-120330857D01*
X113237050Y-120223701D01*
X113381371Y-120163582D01*
X113497576Y-120149324D01*
X113591119Y-120179751D01*
G37*
G36*
X125088871Y-120604430D02*
G01*
X125185241Y-120642084D01*
X125336743Y-120733690D01*
X125426601Y-120826019D01*
X125455195Y-120920028D01*
X125422909Y-121016671D01*
X125363169Y-121087476D01*
X125308929Y-121151011D01*
X125235176Y-121252917D01*
X125152845Y-121377525D01*
X125093984Y-121473193D01*
X125002022Y-121623179D01*
X124885386Y-121806680D01*
X124754260Y-122008281D01*
X124618826Y-122212564D01*
X124489268Y-122404112D01*
X124375769Y-122567507D01*
X124319221Y-122646155D01*
X124246876Y-122734162D01*
X124138930Y-122852211D01*
X124006410Y-122989437D01*
X123860343Y-123134979D01*
X123711756Y-123277973D01*
X123571677Y-123407557D01*
X123451132Y-123512867D01*
X123387911Y-123563586D01*
X123257904Y-123657435D01*
X123148345Y-123721741D01*
X123033859Y-123768596D01*
X122889076Y-123810089D01*
X122850244Y-123819795D01*
X122704129Y-123850803D01*
X122594121Y-123858957D01*
X122498376Y-123843528D01*
X122396949Y-123804648D01*
X122299660Y-123745422D01*
X122213178Y-123666955D01*
X122149633Y-123583662D01*
X122121152Y-123509960D01*
X122124162Y-123480372D01*
X122147822Y-123438522D01*
X122180664Y-123439275D01*
X122237498Y-123484420D01*
X122249401Y-123495501D01*
X122353664Y-123552040D01*
X122489724Y-123558074D01*
X122654547Y-123514425D01*
X122845100Y-123421912D01*
X123058351Y-123281356D01*
X123068281Y-123274027D01*
X123201460Y-123166271D01*
X123352389Y-123029228D01*
X123513062Y-122871716D01*
X123675476Y-122702550D01*
X123831629Y-122530547D01*
X123973515Y-122364524D01*
X124093133Y-122213299D01*
X124182477Y-122085686D01*
X124233545Y-121990504D01*
X124233628Y-121990287D01*
X124230228Y-121958385D01*
X124179383Y-121947758D01*
X124153991Y-121947908D01*
X124065271Y-121931232D01*
X123974431Y-121869640D01*
X123949854Y-121846782D01*
X123872198Y-121751611D01*
X123840284Y-121653901D01*
X123854745Y-121543669D01*
X123916215Y-121410930D01*
X123984287Y-121304034D01*
X124048526Y-121202505D01*
X124093134Y-121116908D01*
X124104016Y-121082775D01*
X124682137Y-121082775D01*
X124699869Y-121113280D01*
X124737817Y-121120492D01*
X124767923Y-121085007D01*
X124773077Y-121055435D01*
X124748212Y-121015915D01*
X124726557Y-121010745D01*
X124687546Y-121033872D01*
X124682137Y-121082775D01*
X124104016Y-121082775D01*
X124110556Y-121062262D01*
X124109649Y-121054840D01*
X124108469Y-120973818D01*
X124150953Y-120881252D01*
X124226844Y-120796254D01*
X124262662Y-120769686D01*
X124471355Y-120660443D01*
X124686691Y-120595370D01*
X124896565Y-120576141D01*
X125088871Y-120604430D01*
G37*
G36*
X106414713Y-120623398D02*
G01*
X106600572Y-120685810D01*
X106687415Y-120724484D01*
X106762810Y-120748399D01*
X106765060Y-120748837D01*
X106844293Y-120788712D01*
X106909888Y-120862145D01*
X106940112Y-120944060D01*
X106940354Y-120951077D01*
X106921287Y-121017661D01*
X106870420Y-121115321D01*
X106797255Y-121228855D01*
X106711295Y-121343064D01*
X106653438Y-121410052D01*
X106550234Y-121528073D01*
X106473201Y-121628396D01*
X106428201Y-121702578D01*
X106421094Y-121742174D01*
X106422088Y-121743354D01*
X106441271Y-121749861D01*
X106479202Y-121743424D01*
X106542637Y-121721286D01*
X106638327Y-121680687D01*
X106773027Y-121618869D01*
X106953492Y-121533074D01*
X107045869Y-121488594D01*
X107191949Y-121420492D01*
X107320185Y-121365223D01*
X107419412Y-121327261D01*
X107478466Y-121311081D01*
X107487810Y-121311475D01*
X107523954Y-121354453D01*
X107522659Y-121431329D01*
X107485502Y-121527783D01*
X107459186Y-121571274D01*
X107375711Y-121664807D01*
X107248630Y-121770830D01*
X107092533Y-121880379D01*
X106922012Y-121984487D01*
X106751656Y-122074187D01*
X106596056Y-122140514D01*
X106480179Y-122172899D01*
X106374812Y-122179992D01*
X106284507Y-122153764D01*
X106234354Y-122126823D01*
X106156474Y-122074742D01*
X106102378Y-122027110D01*
X106093697Y-122015475D01*
X106062335Y-121982140D01*
X106015038Y-121977920D01*
X105941111Y-122005250D01*
X105829861Y-122066565D01*
X105805643Y-122081039D01*
X105623032Y-122179559D01*
X105471316Y-122233649D01*
X105340095Y-122245162D01*
X105218967Y-122215949D01*
X105172105Y-122193857D01*
X105080652Y-122127839D01*
X104999479Y-122042082D01*
X104991523Y-122031037D01*
X104936783Y-121898923D01*
X104940486Y-121747516D01*
X104957250Y-121701694D01*
X105529589Y-121701694D01*
X105552985Y-121701436D01*
X105616824Y-121671227D01*
X105630946Y-121663860D01*
X105720879Y-121610322D01*
X105829728Y-121536847D01*
X105900663Y-121484625D01*
X105984321Y-121411982D01*
X106075271Y-121320134D01*
X106162237Y-121222240D01*
X106233943Y-121131460D01*
X106279112Y-121060951D01*
X106288916Y-121031541D01*
X106263762Y-121019842D01*
X106203158Y-121025188D01*
X106129783Y-121042988D01*
X106066320Y-121068653D01*
X106048718Y-121080150D01*
X106013664Y-121135971D01*
X106009951Y-121159414D01*
X105989309Y-121219695D01*
X105941696Y-121281206D01*
X105888588Y-121318329D01*
X105874623Y-121320879D01*
X105836751Y-121342505D01*
X105773183Y-121397954D01*
X105697546Y-121473081D01*
X105623471Y-121553742D01*
X105564586Y-121625793D01*
X105535235Y-121673102D01*
X105529589Y-121701694D01*
X104957250Y-121701694D01*
X105002516Y-121577970D01*
X105044908Y-121503276D01*
X105097763Y-121407897D01*
X105132875Y-121324700D01*
X105141575Y-121284577D01*
X105166018Y-121222572D01*
X105231854Y-121138046D01*
X105327842Y-121041296D01*
X105442742Y-120942622D01*
X105565313Y-120852322D01*
X105684316Y-120780693D01*
X105700446Y-120772547D01*
X105963098Y-120666025D01*
X106201223Y-120616305D01*
X106414713Y-120623398D01*
G37*
G36*
X111698158Y-119106479D02*
G01*
X111789886Y-119154506D01*
X111863698Y-119228263D01*
X111901029Y-119307926D01*
X111902503Y-119324696D01*
X111896632Y-119374519D01*
X111871792Y-119417753D01*
X111817140Y-119466144D01*
X111721833Y-119531434D01*
X111696468Y-119547856D01*
X111610319Y-119610474D01*
X111490681Y-119707151D01*
X111348231Y-119828395D01*
X111193644Y-119964714D01*
X111037598Y-120106615D01*
X110890768Y-120244605D01*
X110763830Y-120369191D01*
X110708486Y-120426312D01*
X110574672Y-120572274D01*
X110434122Y-120733381D01*
X110292799Y-120901969D01*
X110156666Y-121070372D01*
X110031689Y-121230923D01*
X109923829Y-121375956D01*
X109839051Y-121497808D01*
X109783318Y-121588810D01*
X109762595Y-121641298D01*
X109762576Y-121642197D01*
X109787047Y-121660926D01*
X109798980Y-121662027D01*
X109851727Y-121647214D01*
X109945385Y-121607044D01*
X110067589Y-121547919D01*
X110205970Y-121476240D01*
X110348160Y-121398409D01*
X110481794Y-121320829D01*
X110592283Y-121251379D01*
X110701020Y-121180779D01*
X110795157Y-121122759D01*
X110859087Y-121086832D01*
X110871404Y-121081250D01*
X110941961Y-121040911D01*
X110966562Y-121020234D01*
X111031008Y-120985938D01*
X111070876Y-120979731D01*
X111114952Y-120990445D01*
X111122977Y-121034349D01*
X111118317Y-121065018D01*
X111091811Y-121192152D01*
X111060835Y-121285348D01*
X111014592Y-121361073D01*
X110942286Y-121435792D01*
X110833119Y-121525968D01*
X110798004Y-121553480D01*
X110683251Y-121641588D01*
X110608044Y-121694233D01*
X110563929Y-121715234D01*
X110542449Y-121708411D01*
X110535150Y-121677584D01*
X110534821Y-121672365D01*
X110528445Y-121645963D01*
X110514119Y-121679016D01*
X110510551Y-121691394D01*
X110473934Y-121742645D01*
X110398928Y-121806846D01*
X110303765Y-121871624D01*
X110206680Y-121924607D01*
X110125905Y-121953423D01*
X110123853Y-121953797D01*
X110074110Y-121971669D01*
X109999372Y-122007174D01*
X109988964Y-122012620D01*
X109889241Y-122048048D01*
X109777034Y-122064963D01*
X109764661Y-122065202D01*
X109684520Y-122057849D01*
X109615950Y-122028583D01*
X109537587Y-121966585D01*
X109499507Y-121930957D01*
X109420495Y-121850157D01*
X109378272Y-121787140D01*
X109361702Y-121720316D01*
X109359402Y-121659343D01*
X109384271Y-121511775D01*
X109455986Y-121339031D01*
X109570206Y-121150964D01*
X109604096Y-121103785D01*
X109671866Y-121017098D01*
X109770594Y-120897070D01*
X109890889Y-120754514D01*
X110023363Y-120600241D01*
X110158625Y-120445064D01*
X110287286Y-120299793D01*
X110399956Y-120175241D01*
X110487246Y-120082219D01*
X110518735Y-120050625D01*
X110592623Y-119976245D01*
X110644346Y-119918346D01*
X110661966Y-119891201D01*
X110635208Y-119886140D01*
X110566862Y-119896526D01*
X110514652Y-119908927D01*
X110350293Y-119951507D01*
X110233834Y-119978680D01*
X110153465Y-119991834D01*
X110097376Y-119992360D01*
X110053757Y-119981645D01*
X110021796Y-119966898D01*
X109914279Y-119890220D01*
X109844682Y-119797530D01*
X109824603Y-119718942D01*
X109833079Y-119662431D01*
X109847863Y-119644983D01*
X109928449Y-119636773D01*
X110054621Y-119618995D01*
X110211086Y-119593965D01*
X110382553Y-119564001D01*
X110382845Y-119563947D01*
X110519673Y-119540091D01*
X110647305Y-119519666D01*
X110742765Y-119506306D01*
X110759005Y-119504485D01*
X110948500Y-119477033D01*
X111092540Y-119434903D01*
X111207097Y-119372018D01*
X111287493Y-119303430D01*
X111411092Y-119200012D01*
X111534101Y-119130528D01*
X111643154Y-119101391D01*
X111698158Y-119106479D01*
G37*
G36*
X119593834Y-118604552D02*
G01*
X119858356Y-118646107D01*
X120088170Y-118714001D01*
X120277620Y-118805085D01*
X120421050Y-118916208D01*
X120512804Y-119044221D01*
X120541565Y-119132311D01*
X120542819Y-119299900D01*
X120488008Y-119488882D01*
X120376942Y-119699472D01*
X120209433Y-119931886D01*
X119985291Y-120186340D01*
X119704327Y-120463050D01*
X119366352Y-120762232D01*
X118971177Y-121084103D01*
X118554884Y-121401972D01*
X118418437Y-121503190D01*
X118295060Y-121594328D01*
X118195518Y-121667459D01*
X118130579Y-121714659D01*
X118116572Y-121724596D01*
X118065258Y-121760627D01*
X117976480Y-121823323D01*
X117863339Y-121903422D01*
X117755482Y-121979915D01*
X117636913Y-122062368D01*
X117535767Y-122129529D01*
X117463196Y-122174200D01*
X117431018Y-122189255D01*
X117390559Y-122210161D01*
X117342414Y-122254695D01*
X117287659Y-122303427D01*
X117198372Y-122370916D01*
X117092847Y-122443413D01*
X117081519Y-122450788D01*
X116970090Y-122526123D01*
X116867818Y-122600738D01*
X116795908Y-122659128D01*
X116793178Y-122661631D01*
X116703902Y-122730249D01*
X116601682Y-122790543D01*
X116591818Y-122795272D01*
X116506754Y-122841122D01*
X116396481Y-122908803D01*
X116290904Y-122979519D01*
X116140626Y-123080964D01*
X115971693Y-123188148D01*
X115795836Y-123294318D01*
X115624786Y-123392722D01*
X115470273Y-123476608D01*
X115344027Y-123539222D01*
X115259198Y-123573392D01*
X115126373Y-123606607D01*
X115030390Y-123609901D01*
X114952534Y-123580937D01*
X114883688Y-123526472D01*
X114785913Y-123411834D01*
X114745677Y-123300102D01*
X114759725Y-123181881D01*
X114761978Y-123175092D01*
X114803106Y-123083289D01*
X114867841Y-122970566D01*
X114947588Y-122848631D01*
X115033751Y-122729193D01*
X115117735Y-122623959D01*
X115190945Y-122544639D01*
X115244785Y-122502939D01*
X115258038Y-122499390D01*
X115278558Y-122527070D01*
X115281592Y-122602424D01*
X115268152Y-122713920D01*
X115239248Y-122850027D01*
X115221493Y-122916138D01*
X115193172Y-123022856D01*
X115175780Y-123103928D01*
X115172694Y-123143348D01*
X115173342Y-123144424D01*
X115199954Y-123140876D01*
X115264043Y-123109839D01*
X115370124Y-123048860D01*
X115522715Y-122955489D01*
X115531075Y-122950283D01*
X115609093Y-122900420D01*
X115722146Y-122826546D01*
X115860401Y-122735249D01*
X116014024Y-122633113D01*
X116173184Y-122526726D01*
X116328049Y-122422674D01*
X116468786Y-122327541D01*
X116585562Y-122247916D01*
X116668545Y-122190383D01*
X116704707Y-122164133D01*
X116777363Y-122107117D01*
X116694880Y-122053072D01*
X116690692Y-122049785D01*
X116839778Y-122049785D01*
X116867850Y-122042687D01*
X116936852Y-121993829D01*
X116942902Y-121989224D01*
X117022482Y-121930461D01*
X117131463Y-121852443D01*
X117247966Y-121770811D01*
X117262599Y-121760696D01*
X117724365Y-121438209D01*
X118135923Y-121142297D01*
X118501429Y-120869666D01*
X118825037Y-120617023D01*
X119110902Y-120381074D01*
X119363180Y-120158526D01*
X119586024Y-119946085D01*
X119704354Y-119825228D01*
X119836308Y-119677425D01*
X119955371Y-119526527D01*
X120055041Y-119382478D01*
X120128820Y-119255222D01*
X120170206Y-119154701D01*
X120176166Y-119103444D01*
X120140352Y-119046028D01*
X120049831Y-119003627D01*
X119902965Y-118975861D01*
X119698117Y-118962349D01*
X119562821Y-118960845D01*
X119351111Y-118968419D01*
X119125121Y-118988034D01*
X118906034Y-119017081D01*
X118715038Y-119052949D01*
X118622845Y-119076626D01*
X118586156Y-119093673D01*
X118589431Y-119124810D01*
X118615092Y-119167022D01*
X118651733Y-119246558D01*
X118663431Y-119308361D01*
X118646669Y-119357954D01*
X118600725Y-119446785D01*
X118532108Y-119563364D01*
X118447330Y-119696200D01*
X118423077Y-119732528D01*
X118331183Y-119869006D01*
X118248284Y-119992380D01*
X118182336Y-120090792D01*
X118141295Y-120152383D01*
X118136203Y-120160113D01*
X118094386Y-120220922D01*
X118029714Y-120311751D01*
X117957179Y-120411579D01*
X117704742Y-120757101D01*
X117482754Y-121064445D01*
X117292587Y-121331650D01*
X117135616Y-121556760D01*
X117013212Y-121737815D01*
X116926750Y-121872858D01*
X116896247Y-121924606D01*
X116850092Y-122011599D01*
X116839778Y-122049785D01*
X116690692Y-122049785D01*
X116569635Y-121954771D01*
X116503351Y-121863149D01*
X116492491Y-121812382D01*
X116510936Y-121760330D01*
X116564840Y-121662071D01*
X116652059Y-121520727D01*
X116770448Y-121339420D01*
X116917864Y-121121272D01*
X117092160Y-120869404D01*
X117291193Y-120586938D01*
X117512817Y-120276995D01*
X117754889Y-119942697D01*
X118015263Y-119587166D01*
X118102767Y-119468515D01*
X118181640Y-119359220D01*
X118244300Y-119267580D01*
X118282852Y-119205432D01*
X118291270Y-119185961D01*
X118263375Y-119167322D01*
X118191759Y-119148904D01*
X118129742Y-119139448D01*
X118004931Y-119113154D01*
X117913274Y-119061958D01*
X117877742Y-119029846D01*
X117787271Y-118939375D01*
X117870011Y-118885162D01*
X117965765Y-118840203D01*
X118111624Y-118794088D01*
X118295746Y-118748745D01*
X118506286Y-118706101D01*
X118731400Y-118668085D01*
X118959246Y-118636625D01*
X119177977Y-118613648D01*
X119375752Y-118601083D01*
X119540726Y-118600857D01*
X119593834Y-118604552D01*
G37*
G36*
X105021143Y-118729548D02*
G01*
X105128604Y-118749446D01*
X105217639Y-118781507D01*
X105293500Y-118825512D01*
X105342773Y-118864346D01*
X105399313Y-118928632D01*
X105412222Y-118999507D01*
X105407740Y-119038441D01*
X105383066Y-119152196D01*
X105343194Y-119244368D01*
X105277345Y-119331488D01*
X105174737Y-119430090D01*
X105123560Y-119474268D01*
X105051656Y-119531229D01*
X104945749Y-119609914D01*
X104814694Y-119704249D01*
X104667348Y-119808158D01*
X104512564Y-119915567D01*
X104359199Y-120020402D01*
X104216106Y-120116587D01*
X104092142Y-120198049D01*
X103996160Y-120258711D01*
X103937017Y-120292501D01*
X103923631Y-120297436D01*
X103891093Y-120312107D01*
X103819572Y-120351369D01*
X103720963Y-120408097D01*
X103607157Y-120475167D01*
X103490050Y-120545451D01*
X103381533Y-120611826D01*
X103293501Y-120667166D01*
X103237848Y-120704345D01*
X103224617Y-120716213D01*
X103256641Y-120712943D01*
X103337604Y-120697657D01*
X103456102Y-120672685D01*
X103600728Y-120640354D01*
X103637424Y-120631906D01*
X103843886Y-120587376D01*
X104019188Y-120558640D01*
X104191167Y-120542339D01*
X104387657Y-120535110D01*
X104445771Y-120534306D01*
X104612941Y-120533224D01*
X104731005Y-120535316D01*
X104812871Y-120542394D01*
X104871445Y-120556271D01*
X104919634Y-120578759D01*
X104963542Y-120607002D01*
X105074727Y-120709720D01*
X105127506Y-120826311D01*
X105121665Y-120957167D01*
X105056992Y-121102681D01*
X104933273Y-121263245D01*
X104750295Y-121439253D01*
X104507845Y-121631096D01*
X104344724Y-121746474D01*
X104185125Y-121852089D01*
X103985886Y-121978606D01*
X103760094Y-122118185D01*
X103520835Y-122262981D01*
X103281197Y-122405154D01*
X103054265Y-122536860D01*
X102853127Y-122650258D01*
X102691514Y-122737171D01*
X102560845Y-122805717D01*
X102443445Y-122869067D01*
X102354991Y-122918669D01*
X102319353Y-122940197D01*
X102244554Y-122984547D01*
X102120837Y-123052471D01*
X101955103Y-123140496D01*
X101754252Y-123245146D01*
X101525185Y-123362947D01*
X101274802Y-123490424D01*
X101010004Y-123624103D01*
X100737691Y-123760509D01*
X100464763Y-123896167D01*
X100198122Y-124027602D01*
X99944667Y-124151341D01*
X99711299Y-124263908D01*
X99504919Y-124361828D01*
X99388584Y-124415944D01*
X99135317Y-124531027D01*
X98930594Y-124619940D01*
X98767655Y-124684598D01*
X98639740Y-124726916D01*
X98540088Y-124748809D01*
X98461939Y-124752193D01*
X98398533Y-124738983D01*
X98344237Y-124711816D01*
X98259947Y-124632549D01*
X98205771Y-124532551D01*
X98194567Y-124469613D01*
X98221257Y-124429601D01*
X98290278Y-124378688D01*
X98385056Y-124325402D01*
X98489014Y-124278270D01*
X98585579Y-124245818D01*
X98648378Y-124236142D01*
X98721231Y-124223731D01*
X98831465Y-124190475D01*
X98960528Y-124142339D01*
X99025772Y-124114798D01*
X99151437Y-124057259D01*
X99321965Y-123975833D01*
X99530346Y-123874106D01*
X99769571Y-123755663D01*
X100032629Y-123624090D01*
X100312511Y-123482971D01*
X100602208Y-123335892D01*
X100894708Y-123186439D01*
X101183003Y-123038197D01*
X101460083Y-122894752D01*
X101718938Y-122759688D01*
X101952558Y-122636591D01*
X102153933Y-122529047D01*
X102316054Y-122440640D01*
X102431911Y-122374957D01*
X102458913Y-122358807D01*
X102518338Y-122324482D01*
X102610992Y-122273039D01*
X102702135Y-122223540D01*
X102891760Y-122117960D01*
X103103191Y-121993954D01*
X103327795Y-121857163D01*
X103556938Y-121713226D01*
X103781989Y-121567782D01*
X103994313Y-121426471D01*
X104185280Y-121294932D01*
X104346254Y-121178806D01*
X104468605Y-121083731D01*
X104530028Y-121029435D01*
X104617236Y-120934172D01*
X104654206Y-120869606D01*
X104640614Y-120837153D01*
X104576136Y-120838229D01*
X104573679Y-120838738D01*
X104507579Y-120849008D01*
X104403997Y-120861325D01*
X104304213Y-120871249D01*
X104100480Y-120898937D01*
X103849407Y-120948394D01*
X103560736Y-121017128D01*
X103244212Y-121102649D01*
X102909580Y-121202463D01*
X102566582Y-121314080D01*
X102548785Y-121320131D01*
X102387823Y-121375998D01*
X102242308Y-121428384D01*
X102125049Y-121472540D01*
X102048854Y-121503718D01*
X102033061Y-121511320D01*
X101967265Y-121556342D01*
X101898990Y-121625123D01*
X101821974Y-121725798D01*
X101729956Y-121866496D01*
X101624521Y-122041941D01*
X101532243Y-122192171D01*
X101462001Y-122289420D01*
X101410850Y-122337480D01*
X101389520Y-122344322D01*
X101314888Y-122320572D01*
X101235134Y-122261976D01*
X101170460Y-122187518D01*
X101141067Y-122116184D01*
X101140843Y-122110626D01*
X101156271Y-122050965D01*
X101196543Y-121956674D01*
X101252637Y-121845093D01*
X101315535Y-121733558D01*
X101376215Y-121639408D01*
X101406497Y-121600000D01*
X101430018Y-121553287D01*
X101407440Y-121500731D01*
X101402089Y-121493279D01*
X101369906Y-121418046D01*
X101358993Y-121338212D01*
X101363915Y-121290349D01*
X101384773Y-121252295D01*
X101432572Y-121214523D01*
X101518317Y-121167505D01*
X101605969Y-121124395D01*
X101668572Y-121094298D01*
X101721785Y-121067363D01*
X101770132Y-121038781D01*
X101818140Y-121003741D01*
X101870334Y-120957433D01*
X101931241Y-120895049D01*
X102005385Y-120811776D01*
X102097294Y-120702807D01*
X102211493Y-120563330D01*
X102352507Y-120388535D01*
X102524863Y-120173613D01*
X102664013Y-119999926D01*
X102852543Y-119775453D01*
X103015851Y-119604984D01*
X103156320Y-119486976D01*
X103276330Y-119419886D01*
X103378264Y-119402173D01*
X103464505Y-119432294D01*
X103497863Y-119460073D01*
X103552014Y-119542184D01*
X103552236Y-119630196D01*
X103497011Y-119728449D01*
X103384817Y-119841286D01*
X103355844Y-119865628D01*
X103291166Y-119925233D01*
X103209266Y-120009482D01*
X103122678Y-120104311D01*
X103043939Y-120195655D01*
X102985584Y-120269451D01*
X102961132Y-120308480D01*
X102950735Y-120346858D01*
X102966399Y-120354476D01*
X103017121Y-120329776D01*
X103087600Y-120286574D01*
X103154251Y-120245577D01*
X103262014Y-120180450D01*
X103398583Y-120098582D01*
X103551648Y-120007364D01*
X103637424Y-119956467D01*
X103832064Y-119837918D01*
X104030215Y-119711442D01*
X104222580Y-119583503D01*
X104399861Y-119460566D01*
X104552760Y-119349095D01*
X104671979Y-119255555D01*
X104748220Y-119186411D01*
X104753907Y-119180209D01*
X104815934Y-119110453D01*
X104557042Y-119132592D01*
X104382943Y-119151963D01*
X104171937Y-119182201D01*
X103947368Y-119219426D01*
X103732577Y-119259759D01*
X103550907Y-119299320D01*
X103544384Y-119300898D01*
X103338180Y-119349590D01*
X103135477Y-119394831D01*
X102950255Y-119433692D01*
X102796493Y-119463246D01*
X102688173Y-119480564D01*
X102684265Y-119481048D01*
X102541399Y-119478967D01*
X102436415Y-119430389D01*
X102362314Y-119331630D01*
X102350517Y-119305370D01*
X102330791Y-119221857D01*
X102356042Y-119161935D01*
X102431983Y-119119572D01*
X102554033Y-119090485D01*
X102632606Y-119076371D01*
X102759598Y-119052972D01*
X102922499Y-119022617D01*
X103108800Y-118987639D01*
X103305991Y-118950369D01*
X103311783Y-118949271D01*
X103695293Y-118877879D01*
X104023610Y-118820188D01*
X104301988Y-118775977D01*
X104535678Y-118745028D01*
X104729932Y-118727119D01*
X104890003Y-118722033D01*
X105021143Y-118729548D01*
G37*
D10*
%TO.C,J1*%
X124750000Y-80400000D02*
X124750000Y-79400000D01*
X124750000Y-74000000D02*
X102750000Y-74000000D01*
X121750000Y-80400000D02*
X124750000Y-80400000D01*
X105750000Y-80400000D02*
X102750000Y-80400000D01*
X102750000Y-80400000D02*
X102750000Y-79400000D01*
X121950000Y-82300000D02*
X120550000Y-82300000D01*
X121250000Y-81600000D01*
X121950000Y-82300000D01*
G36*
X121950000Y-82300000D02*
G01*
X120550000Y-82300000D01*
X121250000Y-81600000D01*
X121950000Y-82300000D01*
G37*
%TO.C,SW24*%
X102250000Y-98400000D02*
X107250000Y-98400000D01*
X107250000Y-104400000D01*
X102250000Y-104400000D01*
X102250000Y-98400000D01*
%TO.C,SW9*%
X129750000Y-84400000D02*
X134750000Y-84400000D01*
X134750000Y-90400000D01*
X129750000Y-90400000D01*
X129750000Y-84400000D01*
%TO.C,SW44*%
X102250000Y-112400000D02*
X107250000Y-112400000D01*
X107250000Y-118400000D01*
X102250000Y-118400000D01*
X102250000Y-112400000D01*
%TO.C,SW33*%
X96750000Y-105400000D02*
X101750000Y-105400000D01*
X101750000Y-111400000D01*
X96750000Y-111400000D01*
X96750000Y-105400000D01*
%TO.C,SW3*%
X96750000Y-84400000D02*
X101750000Y-84400000D01*
X101750000Y-90400000D01*
X96750000Y-90400000D01*
X96750000Y-84400000D01*
%TO.C,SW1*%
X85750000Y-84400000D02*
X90750000Y-84400000D01*
X90750000Y-90400000D01*
X85750000Y-90400000D01*
X85750000Y-84400000D01*
%TO.C,SW16*%
X113250000Y-91400000D02*
X118250000Y-91400000D01*
X118250000Y-97400000D01*
X113250000Y-97400000D01*
X113250000Y-91400000D01*
%TO.C,SW32*%
X91250000Y-105400000D02*
X96250000Y-105400000D01*
X96250000Y-111400000D01*
X91250000Y-111400000D01*
X91250000Y-105400000D01*
%TO.C,SW28*%
X124250000Y-98400000D02*
X129250000Y-98400000D01*
X129250000Y-104400000D01*
X124250000Y-104400000D01*
X124250000Y-98400000D01*
%TO.C,SW46*%
X118750000Y-112400000D02*
X123750000Y-112400000D01*
X123750000Y-118400000D01*
X118750000Y-118400000D01*
X118750000Y-112400000D01*
%TO.C,SW37*%
X118750000Y-105400000D02*
X123750000Y-105400000D01*
X123750000Y-111400000D01*
X118750000Y-111400000D01*
X118750000Y-105400000D01*
%TO.C,SW5*%
X107750000Y-84400000D02*
X112750000Y-84400000D01*
X112750000Y-90400000D01*
X107750000Y-90400000D01*
X107750000Y-84400000D01*
%TO.C,SW10*%
X135250000Y-84400000D02*
X140250000Y-84400000D01*
X140250000Y-90400000D01*
X135250000Y-90400000D01*
X135250000Y-84400000D01*
%TO.C,SW17*%
X118750000Y-91400000D02*
X123750000Y-91400000D01*
X123750000Y-97400000D01*
X118750000Y-97400000D01*
X118750000Y-91400000D01*
%TO.C,SW19*%
X129750000Y-91400000D02*
X134750000Y-91400000D01*
X134750000Y-97400000D01*
X129750000Y-97400000D01*
X129750000Y-91400000D01*
%TO.C,SW41*%
X85750000Y-112400000D02*
X90750000Y-112400000D01*
X90750000Y-118400000D01*
X85750000Y-118400000D01*
X85750000Y-112400000D01*
%TO.C,SW26*%
X113250000Y-98400000D02*
X118250000Y-98400000D01*
X118250000Y-104400000D01*
X113250000Y-104400000D01*
X113250000Y-98400000D01*
%TO.C,SW49*%
X135250000Y-112400000D02*
X140250000Y-112400000D01*
X140250000Y-118400000D01*
X135250000Y-118400000D01*
X135250000Y-112400000D01*
%TO.C,SW31*%
X85750000Y-105400000D02*
X90750000Y-105400000D01*
X90750000Y-111400000D01*
X85750000Y-111400000D01*
X85750000Y-105400000D01*
%TO.C,SW45*%
X110500000Y-112400000D02*
X115500000Y-112400000D01*
X115500000Y-118400000D01*
X110500000Y-118400000D01*
X110500000Y-112400000D01*
%TO.C,SW2*%
X91250000Y-84400000D02*
X96250000Y-84400000D01*
X96250000Y-90400000D01*
X91250000Y-90400000D01*
X91250000Y-84400000D01*
%TO.C,SW6*%
X113250000Y-84400000D02*
X118250000Y-84400000D01*
X118250000Y-90400000D01*
X113250000Y-90400000D01*
X113250000Y-84400000D01*
%TO.C,SW39*%
X129750000Y-105400000D02*
X134750000Y-105400000D01*
X134750000Y-111400000D01*
X129750000Y-111400000D01*
X129750000Y-105400000D01*
%TO.C,SW4*%
X102250000Y-84400000D02*
X107250000Y-84400000D01*
X107250000Y-90400000D01*
X102250000Y-90400000D01*
X102250000Y-84400000D01*
%TO.C,SW25*%
X107750000Y-98400000D02*
X112750000Y-98400000D01*
X112750000Y-104400000D01*
X107750000Y-104400000D01*
X107750000Y-98400000D01*
%TO.C,SW21*%
X85750000Y-98400000D02*
X90750000Y-98400000D01*
X90750000Y-104400000D01*
X85750000Y-104400000D01*
X85750000Y-98400000D01*
%TO.C,SW13*%
X96750000Y-91400000D02*
X101750000Y-91400000D01*
X101750000Y-97400000D01*
X96750000Y-97400000D01*
X96750000Y-91400000D01*
%TO.C,SW48*%
X129750000Y-112400000D02*
X134750000Y-112400000D01*
X134750000Y-118400000D01*
X129750000Y-118400000D01*
X129750000Y-112400000D01*
%TO.C,SW18*%
X124250000Y-91400000D02*
X129250000Y-91400000D01*
X129250000Y-97400000D01*
X124250000Y-97400000D01*
X124250000Y-91400000D01*
%TO.C,SW34*%
X102250000Y-105400000D02*
X107250000Y-105400000D01*
X107250000Y-111400000D01*
X102250000Y-111400000D01*
X102250000Y-105400000D01*
%TO.C,SW23*%
X96750000Y-98400000D02*
X101750000Y-98400000D01*
X101750000Y-104400000D01*
X96750000Y-104400000D01*
X96750000Y-98400000D01*
%TO.C,SW20*%
X135250000Y-91400000D02*
X140250000Y-91400000D01*
X140250000Y-97400000D01*
X135250000Y-97400000D01*
X135250000Y-91400000D01*
%TO.C,SW27*%
X118750000Y-98400000D02*
X123750000Y-98400000D01*
X123750000Y-104400000D01*
X118750000Y-104400000D01*
X118750000Y-98400000D01*
%TO.C,SW11*%
X85750000Y-91400000D02*
X90750000Y-91400000D01*
X90750000Y-97400000D01*
X85750000Y-97400000D01*
X85750000Y-91400000D01*
%TO.C,SW38*%
X124250000Y-105400000D02*
X129250000Y-105400000D01*
X129250000Y-111400000D01*
X124250000Y-111400000D01*
X124250000Y-105400000D01*
%TO.C,SW36*%
X113250000Y-105400000D02*
X118250000Y-105400000D01*
X118250000Y-111400000D01*
X113250000Y-111400000D01*
X113250000Y-105400000D01*
%TO.C,SW8*%
X124250000Y-84400000D02*
X129250000Y-84400000D01*
X129250000Y-90400000D01*
X124250000Y-90400000D01*
X124250000Y-84400000D01*
%TO.C,SW7*%
X118750000Y-84400000D02*
X123750000Y-84400000D01*
X123750000Y-90400000D01*
X118750000Y-90400000D01*
X118750000Y-84400000D01*
%TO.C,SW29*%
X129750000Y-98400000D02*
X134750000Y-98400000D01*
X134750000Y-104400000D01*
X129750000Y-104400000D01*
X129750000Y-98400000D01*
%TO.C,SW42*%
X91250000Y-112400000D02*
X96250000Y-112400000D01*
X96250000Y-118400000D01*
X91250000Y-118400000D01*
X91250000Y-112400000D01*
%TO.C,SW47*%
X124250000Y-112400000D02*
X129250000Y-112400000D01*
X129250000Y-118400000D01*
X124250000Y-118400000D01*
X124250000Y-112400000D01*
%TO.C,SW22*%
X91250000Y-98400000D02*
X96250000Y-98400000D01*
X96250000Y-104400000D01*
X91250000Y-104400000D01*
X91250000Y-98400000D01*
%TO.C,SW35*%
X107750000Y-105400000D02*
X112750000Y-105400000D01*
X112750000Y-111400000D01*
X107750000Y-111400000D01*
X107750000Y-105400000D01*
%TO.C,SW40*%
X135250000Y-105400000D02*
X140250000Y-105400000D01*
X140250000Y-111400000D01*
X135250000Y-111400000D01*
X135250000Y-105400000D01*
%TO.C,SW15*%
X107750000Y-91400000D02*
X112750000Y-91400000D01*
X112750000Y-97400000D01*
X107750000Y-97400000D01*
X107750000Y-91400000D01*
%TO.C,SW30*%
X135250000Y-98400000D02*
X140250000Y-98400000D01*
X140250000Y-104400000D01*
X135250000Y-104400000D01*
X135250000Y-98400000D01*
%TO.C,SW43*%
X96750000Y-112400000D02*
X101750000Y-112400000D01*
X101750000Y-118400000D01*
X96750000Y-118400000D01*
X96750000Y-112400000D01*
%TO.C,SW12*%
X91250000Y-91400000D02*
X96250000Y-91400000D01*
X96250000Y-97400000D01*
X91250000Y-97400000D01*
X91250000Y-91400000D01*
%TO.C,SW14*%
X102250000Y-91400000D02*
X107250000Y-91400000D01*
X107250000Y-97400000D01*
X102250000Y-97400000D01*
X102250000Y-91400000D01*
%TD*%
M02*
