%TF.GenerationSoftware,KiCad,Pcbnew,8.0.6-1.fc40*%
%TF.CreationDate,2025-02-15T15:48:19+01:00*%
%TF.ProjectId,airMouse-keyboard,6169724d-6f75-4736-952d-6b6579626f61,RC1*%
%TF.SameCoordinates,Original*%
%TF.FileFunction,Copper,L1,Top*%
%TF.FilePolarity,Positive*%
%FSLAX46Y46*%
G04 Gerber Fmt 4.6, Leading zero omitted, Abs format (unit mm)*
G04 Created by KiCad (PCBNEW 8.0.6-1.fc40) date 2025-02-15 15:48:19*
%MOMM*%
%LPD*%
G01*
G04 APERTURE LIST*
%TA.AperFunction,SMDPad,CuDef*%
%ADD10R,0.600000X1.800000*%
%TD*%
%TA.AperFunction,SMDPad,CuDef*%
%ADD11R,2.500000X3.000000*%
%TD*%
%TA.AperFunction,ComponentPad*%
%ADD12C,3.800000*%
%TD*%
%TA.AperFunction,SMDPad,CuDef*%
%ADD13R,1.200000X1.200000*%
%TD*%
%TA.AperFunction,ViaPad*%
%ADD14C,0.600000*%
%TD*%
%TA.AperFunction,Conductor*%
%ADD15C,0.200000*%
%TD*%
G04 APERTURE END LIST*
D10*
%TO.P,J1,1,Pin_1*%
%TO.N,unconnected-(J1-Pin_1-Pad1)*%
X121250000Y-80400000D03*
%TO.P,J1,2,Pin_2*%
%TO.N,/COL1*%
X120250000Y-80400000D03*
%TO.P,J1,3,Pin_3*%
%TO.N,/COL2*%
X119250000Y-80400000D03*
%TO.P,J1,4,Pin_4*%
%TO.N,/COL3*%
X118250000Y-80400000D03*
%TO.P,J1,5,Pin_5*%
%TO.N,/COL4*%
X117250000Y-80400000D03*
%TO.P,J1,6,Pin_6*%
%TO.N,/COL5*%
X116250000Y-80400000D03*
%TO.P,J1,7,Pin_7*%
%TO.N,/COL6*%
X115250000Y-80400000D03*
%TO.P,J1,8,Pin_8*%
%TO.N,/COL7*%
X114250000Y-80400000D03*
%TO.P,J1,9,Pin_9*%
%TO.N,/COL8*%
X113250000Y-80400000D03*
%TO.P,J1,10,Pin_10*%
%TO.N,/COL9*%
X112250000Y-80400000D03*
%TO.P,J1,11,Pin_11*%
%TO.N,/COL10*%
X111250000Y-80400000D03*
%TO.P,J1,12,Pin_12*%
%TO.N,/ROW1*%
X110250000Y-80400000D03*
%TO.P,J1,13,Pin_13*%
%TO.N,/ROW2*%
X109250000Y-80400000D03*
%TO.P,J1,14,Pin_14*%
%TO.N,/ROW3*%
X108250000Y-80400000D03*
%TO.P,J1,15,Pin_15*%
%TO.N,/ROW4*%
X107250000Y-80400000D03*
%TO.P,J1,16,Pin_16*%
%TO.N,/ROW5*%
X106250000Y-80400000D03*
D11*
%TO.P,J1,MP,MountPin*%
%TO.N,GND*%
X123750000Y-77800000D03*
X103750000Y-77800000D03*
%TD*%
D12*
%TO.P,H4,1,1*%
%TO.N,GND*%
X90000000Y-77000000D03*
%TD*%
%TO.P,H3,1,1*%
%TO.N,GND*%
X136500000Y-77000000D03*
%TD*%
D13*
%TO.P,SW24,1,A*%
%TO.N,/COL7*%
X103000000Y-99175000D03*
X103000000Y-103625000D03*
%TO.P,SW24,2,B*%
%TO.N,Net-(D24-A)*%
X106500000Y-99175000D03*
X106500000Y-103625000D03*
%TD*%
%TO.P,SW9,1,A*%
%TO.N,/COL2*%
X130500000Y-85175000D03*
X130500000Y-89625000D03*
%TO.P,SW9,2,B*%
%TO.N,Net-(D9-A)*%
X134000000Y-85175000D03*
X134000000Y-89625000D03*
%TD*%
%TO.P,SW44,1,A*%
%TO.N,/COL7*%
X103000000Y-113175000D03*
X103000000Y-117625000D03*
%TO.P,SW44,2,B*%
%TO.N,Net-(D44-A)*%
X106500000Y-113175000D03*
X106500000Y-117625000D03*
%TD*%
%TO.P,SW33,1,A*%
%TO.N,/COL8*%
X97500000Y-106175000D03*
X97500000Y-110625000D03*
%TO.P,SW33,2,B*%
%TO.N,Net-(D33-A)*%
X101000000Y-106175000D03*
X101000000Y-110625000D03*
%TD*%
%TO.P,SW3,1,A*%
%TO.N,/COL8*%
X97500000Y-85175000D03*
X97500000Y-89625000D03*
%TO.P,SW3,2,B*%
%TO.N,Net-(D3-A)*%
X101000000Y-85175000D03*
X101000000Y-89625000D03*
%TD*%
%TO.P,SW1,1,A*%
%TO.N,/COL10*%
X86500000Y-85175000D03*
X86500000Y-89625000D03*
%TO.P,SW1,2,B*%
%TO.N,Net-(D1-A)*%
X90000000Y-85175000D03*
X90000000Y-89625000D03*
%TD*%
%TO.P,SW16,1,A*%
%TO.N,/COL5*%
X114000000Y-92175000D03*
X114000000Y-96625000D03*
%TO.P,SW16,2,B*%
%TO.N,Net-(D16-A)*%
X117500000Y-92175000D03*
X117500000Y-96625000D03*
%TD*%
%TO.P,SW32,1,A*%
%TO.N,/COL9*%
X92000000Y-106175000D03*
X92000000Y-110625000D03*
%TO.P,SW32,2,B*%
%TO.N,Net-(D32-A)*%
X95500000Y-106175000D03*
X95500000Y-110625000D03*
%TD*%
%TO.P,SW28,1,A*%
%TO.N,/COL3*%
X125000000Y-99175000D03*
X125000000Y-103625000D03*
%TO.P,SW28,2,B*%
%TO.N,Net-(D28-A)*%
X128500000Y-99175000D03*
X128500000Y-103625000D03*
%TD*%
%TO.P,SW46,1,A*%
%TO.N,/COL4*%
X119500000Y-113175000D03*
X119500000Y-117625000D03*
%TO.P,SW46,2,B*%
%TO.N,Net-(D46-A)*%
X123000000Y-113175000D03*
X123000000Y-117625000D03*
%TD*%
%TO.P,SW37,1,A*%
%TO.N,/COL4*%
X119500000Y-106175000D03*
X119500000Y-110625000D03*
%TO.P,SW37,2,B*%
%TO.N,Net-(D37-A)*%
X123000000Y-106175000D03*
X123000000Y-110625000D03*
%TD*%
%TO.P,SW5,1,A*%
%TO.N,/COL6*%
X108500000Y-85175000D03*
X108500000Y-89625000D03*
%TO.P,SW5,2,B*%
%TO.N,Net-(D5-A)*%
X112000000Y-85175000D03*
X112000000Y-89625000D03*
%TD*%
%TO.P,SW10,1,A*%
%TO.N,/COL1*%
X136000000Y-85175000D03*
X136000000Y-89625000D03*
%TO.P,SW10,2,B*%
%TO.N,Net-(D10-A)*%
X139500000Y-85175000D03*
X139500000Y-89625000D03*
%TD*%
%TO.P,SW17,1,A*%
%TO.N,/COL4*%
X119500000Y-92175000D03*
X119500000Y-96625000D03*
%TO.P,SW17,2,B*%
%TO.N,Net-(D17-A)*%
X123000000Y-92175000D03*
X123000000Y-96625000D03*
%TD*%
%TO.P,SW19,1,A*%
%TO.N,/COL2*%
X130500000Y-92175000D03*
X130500000Y-96625000D03*
%TO.P,SW19,2,B*%
%TO.N,Net-(D19-A)*%
X134000000Y-92175000D03*
X134000000Y-96625000D03*
%TD*%
%TO.P,SW41,1,A*%
%TO.N,/COL10*%
X86500000Y-113175000D03*
X86500000Y-117625000D03*
%TO.P,SW41,2,B*%
%TO.N,Net-(D41-A)*%
X90000000Y-113175000D03*
X90000000Y-117625000D03*
%TD*%
%TO.P,SW26,1,A*%
%TO.N,/COL5*%
X114000000Y-99175000D03*
X114000000Y-103625000D03*
%TO.P,SW26,2,B*%
%TO.N,Net-(D26-A)*%
X117500000Y-99175000D03*
X117500000Y-103625000D03*
%TD*%
%TO.P,SW49,1,A*%
%TO.N,/COL1*%
X136000000Y-113175000D03*
X136000000Y-117625000D03*
%TO.P,SW49,2,B*%
%TO.N,Net-(D49-A)*%
X139500000Y-113175000D03*
X139500000Y-117625000D03*
%TD*%
%TO.P,SW31,1,A*%
%TO.N,/COL10*%
X86500000Y-106175000D03*
X86500000Y-110625000D03*
%TO.P,SW31,2,B*%
%TO.N,Net-(D31-A)*%
X90000000Y-106175000D03*
X90000000Y-110625000D03*
%TD*%
%TO.P,SW45,1,A*%
%TO.N,/COL6*%
X111250000Y-113175000D03*
X111250000Y-117625000D03*
%TO.P,SW45,2,B*%
%TO.N,Net-(D45-A)*%
X114750000Y-113175000D03*
X114750000Y-117625000D03*
%TD*%
%TO.P,SW2,1,A*%
%TO.N,/COL9*%
X92000000Y-85175000D03*
X92000000Y-89625000D03*
%TO.P,SW2,2,B*%
%TO.N,Net-(D2-A)*%
X95500000Y-85175000D03*
X95500000Y-89625000D03*
%TD*%
%TO.P,SW6,1,A*%
%TO.N,/COL5*%
X114000000Y-85175000D03*
X114000000Y-89625000D03*
%TO.P,SW6,2,B*%
%TO.N,Net-(D6-A)*%
X117500000Y-85175000D03*
X117500000Y-89625000D03*
%TD*%
%TO.P,SW39,1,A*%
%TO.N,/COL2*%
X130500000Y-106175000D03*
X130500000Y-110625000D03*
%TO.P,SW39,2,B*%
%TO.N,Net-(D39-A)*%
X134000000Y-106175000D03*
X134000000Y-110625000D03*
%TD*%
%TO.P,SW4,1,A*%
%TO.N,/COL7*%
X103000000Y-85175000D03*
X103000000Y-89625000D03*
%TO.P,SW4,2,B*%
%TO.N,Net-(D4-A)*%
X106500000Y-85175000D03*
X106500000Y-89625000D03*
%TD*%
%TO.P,SW25,1,A*%
%TO.N,/COL6*%
X108500000Y-99175000D03*
X108500000Y-103625000D03*
%TO.P,SW25,2,B*%
%TO.N,Net-(D25-A)*%
X112000000Y-99175000D03*
X112000000Y-103625000D03*
%TD*%
%TO.P,SW21,1,A*%
%TO.N,/COL10*%
X86500000Y-99175000D03*
X86500000Y-103625000D03*
%TO.P,SW21,2,B*%
%TO.N,Net-(D21-A)*%
X90000000Y-99175000D03*
X90000000Y-103625000D03*
%TD*%
%TO.P,SW13,1,A*%
%TO.N,/COL8*%
X97500000Y-92175000D03*
X97500000Y-96625000D03*
%TO.P,SW13,2,B*%
%TO.N,Net-(D13-A)*%
X101000000Y-92175000D03*
X101000000Y-96625000D03*
%TD*%
%TO.P,SW48,1,A*%
%TO.N,/COL2*%
X130500000Y-113175000D03*
X130500000Y-117625000D03*
%TO.P,SW48,2,B*%
%TO.N,Net-(D48-A)*%
X134000000Y-113175000D03*
X134000000Y-117625000D03*
%TD*%
%TO.P,SW18,1,A*%
%TO.N,/COL3*%
X125000000Y-92175000D03*
X125000000Y-96625000D03*
%TO.P,SW18,2,B*%
%TO.N,Net-(D18-A)*%
X128500000Y-92175000D03*
X128500000Y-96625000D03*
%TD*%
%TO.P,SW34,1,A*%
%TO.N,/COL7*%
X103000000Y-106175000D03*
X103000000Y-110625000D03*
%TO.P,SW34,2,B*%
%TO.N,Net-(D34-A)*%
X106500000Y-106175000D03*
X106500000Y-110625000D03*
%TD*%
%TO.P,SW23,1,A*%
%TO.N,/COL8*%
X97500000Y-99175000D03*
X97500000Y-103625000D03*
%TO.P,SW23,2,B*%
%TO.N,Net-(D23-A)*%
X101000000Y-99175000D03*
X101000000Y-103625000D03*
%TD*%
%TO.P,SW20,1,A*%
%TO.N,/COL1*%
X136000000Y-92175000D03*
X136000000Y-96625000D03*
%TO.P,SW20,2,B*%
%TO.N,Net-(D20-A)*%
X139500000Y-92175000D03*
X139500000Y-96625000D03*
%TD*%
%TO.P,SW27,1,A*%
%TO.N,/COL4*%
X119500000Y-99175000D03*
X119500000Y-103625000D03*
%TO.P,SW27,2,B*%
%TO.N,Net-(D27-A)*%
X123000000Y-99175000D03*
X123000000Y-103625000D03*
%TD*%
%TO.P,SW11,1,A*%
%TO.N,/COL10*%
X86500000Y-92175000D03*
X86500000Y-96625000D03*
%TO.P,SW11,2,B*%
%TO.N,Net-(D11-A)*%
X90000000Y-92175000D03*
X90000000Y-96625000D03*
%TD*%
%TO.P,SW38,1,A*%
%TO.N,/COL3*%
X125000000Y-106175000D03*
X125000000Y-110625000D03*
%TO.P,SW38,2,B*%
%TO.N,Net-(D38-A)*%
X128500000Y-106175000D03*
X128500000Y-110625000D03*
%TD*%
%TO.P,SW36,1,A*%
%TO.N,/COL5*%
X114000000Y-106175000D03*
X114000000Y-110625000D03*
%TO.P,SW36,2,B*%
%TO.N,Net-(D36-A)*%
X117500000Y-106175000D03*
X117500000Y-110625000D03*
%TD*%
%TO.P,SW8,1,A*%
%TO.N,/COL3*%
X125000000Y-85175000D03*
X125000000Y-89625000D03*
%TO.P,SW8,2,B*%
%TO.N,Net-(D8-A)*%
X128500000Y-85175000D03*
X128500000Y-89625000D03*
%TD*%
%TO.P,SW7,1,A*%
%TO.N,/COL4*%
X119500000Y-85175000D03*
X119500000Y-89625000D03*
%TO.P,SW7,2,B*%
%TO.N,Net-(D7-A)*%
X123000000Y-85175000D03*
X123000000Y-89625000D03*
%TD*%
%TO.P,SW29,1,A*%
%TO.N,/COL2*%
X130500000Y-99175000D03*
X130500000Y-103625000D03*
%TO.P,SW29,2,B*%
%TO.N,Net-(D29-A)*%
X134000000Y-99175000D03*
X134000000Y-103625000D03*
%TD*%
%TO.P,SW42,1,A*%
%TO.N,/COL9*%
X92000000Y-113175000D03*
X92000000Y-117625000D03*
%TO.P,SW42,2,B*%
%TO.N,Net-(D42-A)*%
X95500000Y-113175000D03*
X95500000Y-117625000D03*
%TD*%
%TO.P,SW47,1,A*%
%TO.N,/COL3*%
X125000000Y-113175000D03*
X125000000Y-117625000D03*
%TO.P,SW47,2,B*%
%TO.N,Net-(D47-A)*%
X128500000Y-113175000D03*
X128500000Y-117625000D03*
%TD*%
%TO.P,SW22,1,A*%
%TO.N,/COL9*%
X92000000Y-99175000D03*
X92000000Y-103625000D03*
%TO.P,SW22,2,B*%
%TO.N,Net-(D22-A)*%
X95500000Y-99175000D03*
X95500000Y-103625000D03*
%TD*%
%TO.P,SW35,1,A*%
%TO.N,/COL6*%
X108500000Y-106175000D03*
X108500000Y-110625000D03*
%TO.P,SW35,2,B*%
%TO.N,Net-(D35-A)*%
X112000000Y-106175000D03*
X112000000Y-110625000D03*
%TD*%
%TO.P,SW40,1,A*%
%TO.N,/COL1*%
X136000000Y-106175000D03*
X136000000Y-110625000D03*
%TO.P,SW40,2,B*%
%TO.N,Net-(D40-A)*%
X139500000Y-106175000D03*
X139500000Y-110625000D03*
%TD*%
%TO.P,SW15,1,A*%
%TO.N,/COL6*%
X108500000Y-92175000D03*
X108500000Y-96625000D03*
%TO.P,SW15,2,B*%
%TO.N,Net-(D15-A)*%
X112000000Y-92175000D03*
X112000000Y-96625000D03*
%TD*%
%TO.P,SW30,1,A*%
%TO.N,/COL1*%
X136000000Y-99175000D03*
X136000000Y-103625000D03*
%TO.P,SW30,2,B*%
%TO.N,Net-(D30-A)*%
X139500000Y-99175000D03*
X139500000Y-103625000D03*
%TD*%
%TO.P,SW43,1,A*%
%TO.N,/COL8*%
X97500000Y-113175000D03*
X97500000Y-117625000D03*
%TO.P,SW43,2,B*%
%TO.N,Net-(D43-A)*%
X101000000Y-113175000D03*
X101000000Y-117625000D03*
%TD*%
%TO.P,SW12,1,A*%
%TO.N,/COL9*%
X92000000Y-92175000D03*
X92000000Y-96625000D03*
%TO.P,SW12,2,B*%
%TO.N,Net-(D12-A)*%
X95500000Y-92175000D03*
X95500000Y-96625000D03*
%TD*%
%TO.P,SW14,1,A*%
%TO.N,/COL7*%
X103000000Y-92175000D03*
X103000000Y-96625000D03*
%TO.P,SW14,2,B*%
%TO.N,Net-(D14-A)*%
X106500000Y-92175000D03*
X106500000Y-96625000D03*
%TD*%
D14*
%TO.N,/ROW5*%
X106450000Y-78400000D03*
%TO.N,/ROW4*%
X107450000Y-78400000D03*
%TO.N,/ROW3*%
X108450000Y-78400000D03*
%TO.N,/ROW2*%
X109450000Y-78400000D03*
%TO.N,/ROW1*%
X110250000Y-78400000D03*
%TO.N,GND*%
X139250000Y-81400000D03*
X139250000Y-80400000D03*
X139250000Y-79400000D03*
X139250000Y-78400000D03*
X139250000Y-77400000D03*
X139250000Y-76400000D03*
X139250000Y-75400000D03*
X87250000Y-81400000D03*
X87250000Y-80400000D03*
X87250000Y-79400000D03*
X87250000Y-78400000D03*
X87250000Y-77400000D03*
X87250000Y-76400000D03*
X87250000Y-75400000D03*
%TO.N,/ROW5*%
X91000000Y-87150000D03*
X91000000Y-116100000D03*
%TO.N,/ROW4*%
X96500000Y-87150000D03*
X96500000Y-109100000D03*
%TO.N,/ROW3*%
X102000000Y-87150000D03*
X102000000Y-102100000D03*
%TO.N,/ROW2*%
X107500000Y-87150000D03*
X107500000Y-95100000D03*
%TO.N,Net-(D1-A)*%
X88250000Y-85400000D03*
%TO.N,Net-(D2-A)*%
X93750000Y-85400000D03*
%TO.N,Net-(D3-A)*%
X99250000Y-85400000D03*
%TO.N,Net-(D4-A)*%
X104750000Y-85400000D03*
%TO.N,Net-(D5-A)*%
X110250000Y-85400000D03*
%TO.N,Net-(D6-A)*%
X115750000Y-85400000D03*
%TO.N,Net-(D7-A)*%
X121250000Y-85400000D03*
%TO.N,Net-(D8-A)*%
X126750000Y-85400000D03*
%TO.N,Net-(D9-A)*%
X132250000Y-85400000D03*
%TO.N,Net-(D10-A)*%
X137750000Y-85400000D03*
%TO.N,Net-(D11-A)*%
X88250000Y-92400000D03*
%TO.N,Net-(D12-A)*%
X93750000Y-92400000D03*
%TO.N,Net-(D13-A)*%
X99250000Y-92400000D03*
%TO.N,Net-(D14-A)*%
X104750000Y-92400000D03*
%TO.N,Net-(D15-A)*%
X110250000Y-92400000D03*
%TO.N,Net-(D16-A)*%
X115750000Y-92400000D03*
%TO.N,Net-(D17-A)*%
X121250000Y-92400000D03*
%TO.N,Net-(D18-A)*%
X126750000Y-92400000D03*
%TO.N,Net-(D19-A)*%
X132250000Y-92400000D03*
%TO.N,Net-(D20-A)*%
X137750000Y-92400000D03*
%TO.N,Net-(D21-A)*%
X88250000Y-99400000D03*
%TO.N,Net-(D22-A)*%
X93750000Y-99400000D03*
%TO.N,Net-(D23-A)*%
X99250000Y-99400000D03*
%TO.N,Net-(D24-A)*%
X104750000Y-99400000D03*
%TO.N,Net-(D25-A)*%
X110250000Y-99400000D03*
%TO.N,Net-(D26-A)*%
X115750000Y-99400000D03*
%TO.N,Net-(D27-A)*%
X121250000Y-99400000D03*
%TO.N,Net-(D28-A)*%
X126750000Y-99400000D03*
%TO.N,Net-(D29-A)*%
X132250000Y-99400000D03*
%TO.N,Net-(D30-A)*%
X137750000Y-99400000D03*
%TO.N,Net-(D31-A)*%
X88250000Y-106400000D03*
%TO.N,Net-(D32-A)*%
X93750000Y-106400000D03*
%TO.N,Net-(D33-A)*%
X99250000Y-106400000D03*
%TO.N,Net-(D34-A)*%
X104750000Y-106400000D03*
%TO.N,Net-(D35-A)*%
X110250000Y-106400000D03*
%TO.N,Net-(D36-A)*%
X115750000Y-106400000D03*
%TO.N,Net-(D37-A)*%
X121250000Y-106400000D03*
%TO.N,Net-(D38-A)*%
X126750000Y-106400000D03*
%TO.N,Net-(D39-A)*%
X132250000Y-106400000D03*
%TO.N,Net-(D40-A)*%
X137750000Y-106400000D03*
%TO.N,Net-(D41-A)*%
X88250000Y-113400000D03*
%TO.N,Net-(D42-A)*%
X93750000Y-113400000D03*
%TO.N,Net-(D43-A)*%
X99250000Y-113400000D03*
%TO.N,Net-(D44-A)*%
X104750000Y-113400000D03*
%TO.N,Net-(D45-A)*%
X113250000Y-113400000D03*
%TO.N,Net-(D46-A)*%
X121250000Y-113400000D03*
%TO.N,Net-(D47-A)*%
X126750000Y-113400000D03*
%TO.N,Net-(D48-A)*%
X132250000Y-113400000D03*
%TO.N,Net-(D49-A)*%
X137750000Y-113400000D03*
%TD*%
D15*
%TO.N,/COL10*%
X89525000Y-82150000D02*
X110300000Y-82150000D01*
X110300000Y-82150000D02*
X111250000Y-81200000D01*
X111250000Y-81200000D02*
X111250000Y-80400000D01*
%TO.N,/COL9*%
X92000000Y-85175000D02*
X94475000Y-82700000D01*
X94475000Y-82700000D02*
X111750000Y-82700000D01*
X111750000Y-82700000D02*
X112250000Y-82200000D01*
X112250000Y-82200000D02*
X112250000Y-80400000D01*
%TO.N,/ROW5*%
X106250000Y-78600000D02*
X106450000Y-78400000D01*
X106250000Y-80400000D02*
X106250000Y-78600000D01*
%TO.N,/ROW4*%
X107250000Y-78600000D02*
X107450000Y-78400000D01*
X107250000Y-80400000D02*
X107250000Y-78600000D01*
%TO.N,/ROW3*%
X108250000Y-78600000D02*
X108450000Y-78400000D01*
X108250000Y-80400000D02*
X108250000Y-78600000D01*
%TO.N,/ROW2*%
X109250000Y-78600000D02*
X109450000Y-78400000D01*
X109250000Y-80400000D02*
X109250000Y-78600000D01*
%TO.N,/ROW1*%
X110250000Y-80400000D02*
X110250000Y-78400000D01*
%TO.N,/COL1*%
X136000000Y-85175000D02*
X134025000Y-83200000D01*
X121050000Y-83200000D02*
X120250000Y-82400000D01*
X134025000Y-83200000D02*
X121050000Y-83200000D01*
X120250000Y-82400000D02*
X120250000Y-80400000D01*
%TO.N,/COL2*%
X130500000Y-85175000D02*
X130500000Y-84375000D01*
X130500000Y-84375000D02*
X129725000Y-83600000D01*
X129725000Y-83600000D02*
X119850000Y-83600000D01*
X119850000Y-83600000D02*
X119250000Y-83000000D01*
X119250000Y-83000000D02*
X119250000Y-80400000D01*
%TO.N,/COL3*%
X125000000Y-85175000D02*
X123825000Y-84000000D01*
X123825000Y-84000000D02*
X119650000Y-84000000D01*
X119650000Y-84000000D02*
X118250000Y-82600000D01*
X118250000Y-82600000D02*
X118250000Y-80400000D01*
%TO.N,/COL4*%
X119500000Y-85175000D02*
X117250000Y-82925000D01*
X117250000Y-82925000D02*
X117250000Y-80400000D01*
%TO.N,/COL5*%
X114000000Y-85175000D02*
X116250000Y-82925000D01*
X116250000Y-82925000D02*
X116250000Y-80400000D01*
%TO.N,/COL6*%
X113500000Y-83900000D02*
X115250000Y-82150000D01*
X115250000Y-82150000D02*
X115250000Y-80400000D01*
%TO.N,/COL7*%
X103000000Y-85175000D02*
X104675000Y-83500000D01*
X104675000Y-83500000D02*
X113150000Y-83500000D01*
X113150000Y-83500000D02*
X114250000Y-82400000D01*
X114250000Y-82400000D02*
X114250000Y-80400000D01*
%TO.N,/COL8*%
X112250000Y-83100000D02*
X113250000Y-82100000D01*
X113250000Y-82100000D02*
X113250000Y-80400000D01*
%TO.N,/ROW5*%
X91000000Y-87150000D02*
X91000000Y-116100000D01*
%TO.N,/ROW4*%
X96500000Y-87150000D02*
X96500000Y-109100000D01*
%TO.N,/ROW3*%
X102000000Y-87150000D02*
X102000000Y-102100000D01*
%TO.N,/ROW2*%
X107500000Y-87150000D02*
X107500000Y-95100000D01*
%TO.N,/COL10*%
X89525000Y-82150000D02*
X86500000Y-85175000D01*
%TO.N,/COL8*%
X112250000Y-83100000D02*
X99575000Y-83100000D01*
X99575000Y-83100000D02*
X97500000Y-85175000D01*
%TO.N,/COL6*%
X108500000Y-85175000D02*
X109775000Y-83900000D01*
X109775000Y-83900000D02*
X113500000Y-83900000D01*
%TO.N,/COL10*%
X86500000Y-92175000D02*
X86500000Y-96625000D01*
X86500000Y-99175000D02*
X86500000Y-103625000D01*
X86500000Y-103625000D02*
X86500000Y-106175000D01*
X86500000Y-85175000D02*
X86500000Y-89625000D01*
X86500000Y-89625000D02*
X86500000Y-92175000D01*
X86500000Y-96625000D02*
X86500000Y-99175000D01*
X86500000Y-106175000D02*
X86500000Y-117625000D01*
%TO.N,/COL9*%
X92000000Y-92175000D02*
X92000000Y-91650000D01*
X92000000Y-85175000D02*
X92000000Y-117625000D01*
%TO.N,/COL8*%
X97500000Y-92175000D02*
X97500000Y-117625000D01*
X97500000Y-99175000D02*
X97500000Y-98650000D01*
X97500000Y-85175000D02*
X97500000Y-89625000D01*
X97500000Y-89625000D02*
X97500000Y-92175000D01*
%TO.N,/COL7*%
X103000000Y-85175000D02*
X103000000Y-117625000D01*
%TO.N,/COL6*%
X111050000Y-113175000D02*
X111250000Y-113175000D01*
X111250000Y-117625000D02*
X111250000Y-113175000D01*
X108500000Y-85175000D02*
X108500000Y-110625000D01*
X108500000Y-110625000D02*
X111050000Y-113175000D01*
%TO.N,/COL5*%
X114000000Y-85175000D02*
X114000000Y-110625000D01*
%TO.N,/COL4*%
X119500000Y-85175000D02*
X119500000Y-117625000D01*
%TO.N,/COL3*%
X125000000Y-85175000D02*
X125000000Y-117625000D01*
%TO.N,/COL2*%
X130500000Y-85175000D02*
X130500000Y-117625000D01*
%TO.N,/COL1*%
X135000000Y-107175000D02*
X136000000Y-106175000D01*
X135000000Y-109625000D02*
X135000000Y-107175000D01*
X136000000Y-110625000D02*
X136000000Y-113175000D01*
X136000000Y-110625000D02*
X135000000Y-109625000D01*
X136000000Y-85175000D02*
X136000000Y-99175000D01*
X135250000Y-99925000D02*
X136000000Y-99175000D01*
X136000000Y-103150000D02*
X135250000Y-102400000D01*
X136000000Y-113175000D02*
X136000000Y-117625000D01*
X136000000Y-103625000D02*
X136000000Y-106175000D01*
X135250000Y-102400000D02*
X135250000Y-99925000D01*
X136000000Y-103625000D02*
X136000000Y-103150000D01*
%TO.N,Net-(D1-A)*%
X90000000Y-85175000D02*
X88475000Y-85175000D01*
X90000000Y-85175000D02*
X90000000Y-89625000D01*
X88475000Y-85175000D02*
X88250000Y-85400000D01*
%TO.N,Net-(D2-A)*%
X93975000Y-85175000D02*
X93750000Y-85400000D01*
X95500000Y-85175000D02*
X93975000Y-85175000D01*
X95500000Y-85175000D02*
X95500000Y-89625000D01*
%TO.N,Net-(D3-A)*%
X99475000Y-85175000D02*
X99250000Y-85400000D01*
X101000000Y-85175000D02*
X101000000Y-89625000D01*
X101000000Y-85175000D02*
X99475000Y-85175000D01*
%TO.N,Net-(D4-A)*%
X106500000Y-89625000D02*
X106500000Y-85175000D01*
X106500000Y-85175000D02*
X104975000Y-85175000D01*
X104975000Y-85175000D02*
X104750000Y-85400000D01*
%TO.N,Net-(D5-A)*%
X112000000Y-89625000D02*
X112000000Y-85175000D01*
X112000000Y-85175000D02*
X110475000Y-85175000D01*
X110475000Y-85175000D02*
X110250000Y-85400000D01*
%TO.N,Net-(D6-A)*%
X115975000Y-85175000D02*
X115750000Y-85400000D01*
X117500000Y-89625000D02*
X117500000Y-85175000D01*
X117500000Y-85175000D02*
X115975000Y-85175000D01*
%TO.N,Net-(D7-A)*%
X123000000Y-89625000D02*
X123000000Y-85175000D01*
X121475000Y-85175000D02*
X121250000Y-85400000D01*
X123000000Y-85175000D02*
X121475000Y-85175000D01*
%TO.N,Net-(D8-A)*%
X128500000Y-89625000D02*
X128500000Y-85175000D01*
X128500000Y-85175000D02*
X126975000Y-85175000D01*
X126975000Y-85175000D02*
X126750000Y-85400000D01*
%TO.N,Net-(D9-A)*%
X132475000Y-85175000D02*
X132250000Y-85400000D01*
X134000000Y-85175000D02*
X132475000Y-85175000D01*
X134000000Y-89625000D02*
X134000000Y-85175000D01*
%TO.N,Net-(D10-A)*%
X139500000Y-89625000D02*
X139500000Y-85175000D01*
X137975000Y-85175000D02*
X137750000Y-85400000D01*
X139500000Y-85175000D02*
X137975000Y-85175000D01*
%TO.N,Net-(D11-A)*%
X90000000Y-92175000D02*
X88475000Y-92175000D01*
X88475000Y-92175000D02*
X88250000Y-92400000D01*
X90000000Y-96625000D02*
X90000000Y-92175000D01*
%TO.N,Net-(D12-A)*%
X93975000Y-92175000D02*
X93750000Y-92400000D01*
X95500000Y-96625000D02*
X95500000Y-92175000D01*
X95500000Y-92175000D02*
X93975000Y-92175000D01*
%TO.N,Net-(D13-A)*%
X101000000Y-92175000D02*
X101000000Y-96625000D01*
X101000000Y-92175000D02*
X99475000Y-92175000D01*
X99475000Y-92175000D02*
X99250000Y-92400000D01*
%TO.N,Net-(D14-A)*%
X106500000Y-92175000D02*
X104975000Y-92175000D01*
X106500000Y-96625000D02*
X106500000Y-92175000D01*
X104975000Y-92175000D02*
X104750000Y-92400000D01*
%TO.N,Net-(D15-A)*%
X112000000Y-92175000D02*
X110475000Y-92175000D01*
X110475000Y-92175000D02*
X110250000Y-92400000D01*
X112000000Y-96625000D02*
X112000000Y-92175000D01*
%TO.N,Net-(D16-A)*%
X115975000Y-92175000D02*
X115750000Y-92400000D01*
X117500000Y-96625000D02*
X117500000Y-92175000D01*
X117500000Y-92175000D02*
X115975000Y-92175000D01*
%TO.N,Net-(D17-A)*%
X121475000Y-92175000D02*
X121250000Y-92400000D01*
X123000000Y-96625000D02*
X123000000Y-92175000D01*
X123000000Y-92175000D02*
X121475000Y-92175000D01*
%TO.N,Net-(D18-A)*%
X126975000Y-92175000D02*
X126750000Y-92400000D01*
X128500000Y-96625000D02*
X128500000Y-92175000D01*
X128500000Y-92175000D02*
X126975000Y-92175000D01*
%TO.N,Net-(D19-A)*%
X132475000Y-92175000D02*
X132250000Y-92400000D01*
X134000000Y-96625000D02*
X134000000Y-92175000D01*
X134000000Y-92175000D02*
X132475000Y-92175000D01*
%TO.N,Net-(D20-A)*%
X139500000Y-92175000D02*
X137975000Y-92175000D01*
X137975000Y-92175000D02*
X137750000Y-92400000D01*
X139500000Y-96625000D02*
X139500000Y-92175000D01*
%TO.N,Net-(D21-A)*%
X88475000Y-99175000D02*
X88250000Y-99400000D01*
X90000000Y-99175000D02*
X88475000Y-99175000D01*
X90000000Y-103625000D02*
X90000000Y-99175000D01*
%TO.N,Net-(D22-A)*%
X93975000Y-99175000D02*
X93750000Y-99400000D01*
X95500000Y-103625000D02*
X95500000Y-99175000D01*
X95500000Y-99175000D02*
X93975000Y-99175000D01*
%TO.N,Net-(D23-A)*%
X101000000Y-99175000D02*
X101000000Y-103625000D01*
X99475000Y-99175000D02*
X99250000Y-99400000D01*
X101000000Y-99175000D02*
X99475000Y-99175000D01*
%TO.N,Net-(D24-A)*%
X106500000Y-103625000D02*
X106500000Y-99175000D01*
X104975000Y-99175000D02*
X104750000Y-99400000D01*
X106500000Y-99175000D02*
X104975000Y-99175000D01*
%TO.N,Net-(D25-A)*%
X110475000Y-99175000D02*
X110250000Y-99400000D01*
X112000000Y-103625000D02*
X112000000Y-99175000D01*
X112000000Y-99175000D02*
X110475000Y-99175000D01*
%TO.N,Net-(D26-A)*%
X117500000Y-103625000D02*
X117500000Y-99175000D01*
X117500000Y-99175000D02*
X115975000Y-99175000D01*
X115975000Y-99175000D02*
X115750000Y-99400000D01*
%TO.N,Net-(D27-A)*%
X123000000Y-99175000D02*
X121475000Y-99175000D01*
X121475000Y-99175000D02*
X121250000Y-99400000D01*
X123000000Y-103625000D02*
X123000000Y-99175000D01*
%TO.N,Net-(D28-A)*%
X126975000Y-99175000D02*
X126750000Y-99400000D01*
X128500000Y-99175000D02*
X126975000Y-99175000D01*
X128500000Y-103625000D02*
X128500000Y-99175000D01*
%TO.N,Net-(D29-A)*%
X134000000Y-99175000D02*
X132475000Y-99175000D01*
X134000000Y-103625000D02*
X134000000Y-99175000D01*
X132475000Y-99175000D02*
X132250000Y-99400000D01*
%TO.N,Net-(D30-A)*%
X139500000Y-99175000D02*
X137975000Y-99175000D01*
X139500000Y-103625000D02*
X139500000Y-99175000D01*
X137975000Y-99175000D02*
X137750000Y-99400000D01*
%TO.N,Net-(D31-A)*%
X88475000Y-106175000D02*
X88250000Y-106400000D01*
X90000000Y-106175000D02*
X88475000Y-106175000D01*
X90000000Y-110625000D02*
X90000000Y-106175000D01*
%TO.N,Net-(D32-A)*%
X95500000Y-110625000D02*
X95500000Y-106175000D01*
X95500000Y-106175000D02*
X93975000Y-106175000D01*
X93975000Y-106175000D02*
X93750000Y-106400000D01*
%TO.N,Net-(D33-A)*%
X101000000Y-106175000D02*
X101000000Y-110625000D01*
X99475000Y-106175000D02*
X99250000Y-106400000D01*
X101000000Y-106175000D02*
X99475000Y-106175000D01*
%TO.N,Net-(D34-A)*%
X104975000Y-106175000D02*
X104750000Y-106400000D01*
X106500000Y-110625000D02*
X106500000Y-106175000D01*
X106500000Y-106175000D02*
X104975000Y-106175000D01*
%TO.N,Net-(D35-A)*%
X112000000Y-106175000D02*
X110475000Y-106175000D01*
X112000000Y-110625000D02*
X112000000Y-106175000D01*
X110475000Y-106175000D02*
X110250000Y-106400000D01*
%TO.N,Net-(D36-A)*%
X115975000Y-106175000D02*
X115750000Y-106400000D01*
X117500000Y-110625000D02*
X117500000Y-106175000D01*
X117500000Y-106175000D02*
X115975000Y-106175000D01*
%TO.N,Net-(D37-A)*%
X121475000Y-106175000D02*
X121250000Y-106400000D01*
X123000000Y-106175000D02*
X121475000Y-106175000D01*
X123000000Y-110625000D02*
X123000000Y-106175000D01*
%TO.N,Net-(D38-A)*%
X126975000Y-106175000D02*
X126750000Y-106400000D01*
X128500000Y-106175000D02*
X126975000Y-106175000D01*
X128500000Y-110625000D02*
X128500000Y-106175000D01*
%TO.N,Net-(D39-A)*%
X134000000Y-106175000D02*
X132475000Y-106175000D01*
X134000000Y-110625000D02*
X134000000Y-106175000D01*
X132475000Y-106175000D02*
X132250000Y-106400000D01*
%TO.N,Net-(D40-A)*%
X139500000Y-110625000D02*
X139500000Y-106175000D01*
X139500000Y-106175000D02*
X137975000Y-106175000D01*
X137975000Y-106175000D02*
X137750000Y-106400000D01*
%TO.N,Net-(D41-A)*%
X90000000Y-113175000D02*
X88475000Y-113175000D01*
X88475000Y-113175000D02*
X88250000Y-113400000D01*
X90000000Y-117625000D02*
X90000000Y-113175000D01*
%TO.N,Net-(D42-A)*%
X95500000Y-117625000D02*
X95500000Y-113175000D01*
X95500000Y-113175000D02*
X93975000Y-113175000D01*
X93975000Y-113175000D02*
X93750000Y-113400000D01*
%TO.N,Net-(D43-A)*%
X99475000Y-113175000D02*
X99250000Y-113400000D01*
X101000000Y-113175000D02*
X99475000Y-113175000D01*
X101000000Y-113175000D02*
X101000000Y-117625000D01*
%TO.N,Net-(D44-A)*%
X104975000Y-113175000D02*
X104750000Y-113400000D01*
X106500000Y-117625000D02*
X106500000Y-113175000D01*
X106500000Y-113175000D02*
X104975000Y-113175000D01*
%TO.N,Net-(D45-A)*%
X114750000Y-117625000D02*
X114750000Y-113175000D01*
X115000000Y-113175000D02*
X113475000Y-113175000D01*
X113475000Y-113175000D02*
X113250000Y-113400000D01*
%TO.N,Net-(D46-A)*%
X121475000Y-113175000D02*
X121250000Y-113400000D01*
X123000000Y-117625000D02*
X123000000Y-113175000D01*
X123000000Y-113175000D02*
X121475000Y-113175000D01*
%TO.N,Net-(D47-A)*%
X128500000Y-113175000D02*
X126975000Y-113175000D01*
X128500000Y-117625000D02*
X128500000Y-113175000D01*
X126975000Y-113175000D02*
X126750000Y-113400000D01*
%TO.N,Net-(D48-A)*%
X132475000Y-113175000D02*
X132250000Y-113400000D01*
X134000000Y-117625000D02*
X134000000Y-113175000D01*
X134000000Y-113175000D02*
X132475000Y-113175000D01*
%TO.N,Net-(D49-A)*%
X137975000Y-113175000D02*
X137750000Y-113400000D01*
X139500000Y-113175000D02*
X137975000Y-113175000D01*
X139500000Y-117625000D02*
X139500000Y-113175000D01*
%TD*%
%TA.AperFunction,Conductor*%
%TO.N,GND*%
G36*
X89561240Y-74419685D02*
G01*
X89606995Y-74472489D01*
X89616939Y-74541647D01*
X89587914Y-74605203D01*
X89529136Y-74642977D01*
X89525038Y-74644104D01*
X89256892Y-74712951D01*
X89256889Y-74712952D01*
X88976117Y-74824117D01*
X88976109Y-74824121D01*
X88711476Y-74969604D01*
X88711471Y-74969607D01*
X88486565Y-75133010D01*
X88486564Y-75133011D01*
X89417262Y-76063709D01*
X89283398Y-76160967D01*
X89160967Y-76283398D01*
X89063709Y-76417262D01*
X88135311Y-75488864D01*
X88054520Y-75586525D01*
X88054518Y-75586528D01*
X87892707Y-75841502D01*
X87892704Y-75841508D01*
X87764127Y-76114747D01*
X87764125Y-76114752D01*
X87670805Y-76401959D01*
X87614216Y-76698609D01*
X87614215Y-76698616D01*
X87595255Y-76999994D01*
X87595255Y-77000005D01*
X87614215Y-77301383D01*
X87614216Y-77301390D01*
X87670805Y-77598040D01*
X87764125Y-77885247D01*
X87764127Y-77885252D01*
X87892704Y-78158491D01*
X87892707Y-78158497D01*
X88054516Y-78413469D01*
X88135311Y-78511133D01*
X89063708Y-77582736D01*
X89160967Y-77716602D01*
X89283398Y-77839033D01*
X89417262Y-77936290D01*
X88486564Y-78866987D01*
X88486565Y-78866989D01*
X88711461Y-79030385D01*
X88711479Y-79030397D01*
X88976109Y-79175878D01*
X88976117Y-79175882D01*
X89256889Y-79287047D01*
X89256892Y-79287048D01*
X89549399Y-79362150D01*
X89848995Y-79399999D01*
X89849007Y-79400000D01*
X90150993Y-79400000D01*
X90151004Y-79399999D01*
X90450600Y-79362150D01*
X90743107Y-79287048D01*
X90743110Y-79287047D01*
X90971941Y-79196447D01*
X102000000Y-79196447D01*
X103396447Y-77800000D01*
X103396447Y-77799999D01*
X102000000Y-76403552D01*
X102000000Y-79196447D01*
X90971941Y-79196447D01*
X91023882Y-79175882D01*
X91023890Y-79175878D01*
X91288520Y-79030397D01*
X91288530Y-79030390D01*
X91513433Y-78866987D01*
X91513434Y-78866987D01*
X90582737Y-77936290D01*
X90716602Y-77839033D01*
X90839033Y-77716602D01*
X90936290Y-77582737D01*
X91864687Y-78511134D01*
X91945486Y-78413464D01*
X92107292Y-78158497D01*
X92107295Y-78158491D01*
X92235872Y-77885252D01*
X92235874Y-77885247D01*
X92329194Y-77598040D01*
X92385783Y-77301390D01*
X92385784Y-77301383D01*
X92404745Y-77000005D01*
X92404745Y-76999994D01*
X92385784Y-76698616D01*
X92385783Y-76698609D01*
X92329194Y-76401959D01*
X92235874Y-76114752D01*
X92235872Y-76114747D01*
X92134103Y-75898477D01*
X102202030Y-75898477D01*
X103750000Y-77446447D01*
X103750001Y-77446447D01*
X105297968Y-75898478D01*
X105297967Y-75898477D01*
X122202030Y-75898477D01*
X123750000Y-77446447D01*
X123750001Y-77446447D01*
X125297968Y-75898478D01*
X125297967Y-75898477D01*
X125242093Y-75856649D01*
X125242086Y-75856645D01*
X125107379Y-75806403D01*
X125107372Y-75806401D01*
X125047844Y-75800000D01*
X122452155Y-75800000D01*
X122392627Y-75806401D01*
X122392620Y-75806403D01*
X122257913Y-75856645D01*
X122257910Y-75856647D01*
X122202030Y-75898477D01*
X105297967Y-75898477D01*
X105242093Y-75856649D01*
X105242086Y-75856645D01*
X105107379Y-75806403D01*
X105107372Y-75806401D01*
X105047844Y-75800000D01*
X102452155Y-75800000D01*
X102392627Y-75806401D01*
X102392620Y-75806403D01*
X102257913Y-75856645D01*
X102257910Y-75856647D01*
X102202030Y-75898477D01*
X92134103Y-75898477D01*
X92107295Y-75841508D01*
X92107292Y-75841502D01*
X91945483Y-75586530D01*
X91864686Y-75488864D01*
X90936289Y-76417261D01*
X90839033Y-76283398D01*
X90716602Y-76160967D01*
X90582736Y-76063709D01*
X91513434Y-75133011D01*
X91513433Y-75133009D01*
X91288538Y-74969614D01*
X91288520Y-74969602D01*
X91023890Y-74824121D01*
X91023882Y-74824117D01*
X90743110Y-74712952D01*
X90743107Y-74712951D01*
X90474962Y-74644104D01*
X90414924Y-74608366D01*
X90383738Y-74545842D01*
X90391306Y-74476384D01*
X90435224Y-74422043D01*
X90501550Y-74400073D01*
X90505799Y-74400000D01*
X135994201Y-74400000D01*
X136061240Y-74419685D01*
X136106995Y-74472489D01*
X136116939Y-74541647D01*
X136087914Y-74605203D01*
X136029136Y-74642977D01*
X136025038Y-74644104D01*
X135756892Y-74712951D01*
X135756889Y-74712952D01*
X135476117Y-74824117D01*
X135476109Y-74824121D01*
X135211476Y-74969604D01*
X135211471Y-74969607D01*
X134986565Y-75133010D01*
X134986564Y-75133011D01*
X135917262Y-76063709D01*
X135783398Y-76160967D01*
X135660967Y-76283398D01*
X135563709Y-76417262D01*
X134635311Y-75488864D01*
X134554520Y-75586525D01*
X134554518Y-75586528D01*
X134392707Y-75841502D01*
X134392704Y-75841508D01*
X134264127Y-76114747D01*
X134264125Y-76114752D01*
X134170805Y-76401959D01*
X134114216Y-76698609D01*
X134114215Y-76698616D01*
X134095255Y-76999994D01*
X134095255Y-77000005D01*
X134114215Y-77301383D01*
X134114216Y-77301390D01*
X134170805Y-77598040D01*
X134264125Y-77885247D01*
X134264127Y-77885252D01*
X134392704Y-78158491D01*
X134392707Y-78158497D01*
X134554516Y-78413469D01*
X134635311Y-78511133D01*
X135563708Y-77582736D01*
X135660967Y-77716602D01*
X135783398Y-77839033D01*
X135917262Y-77936290D01*
X134986564Y-78866987D01*
X134986565Y-78866989D01*
X135211461Y-79030385D01*
X135211479Y-79030397D01*
X135476109Y-79175878D01*
X135476117Y-79175882D01*
X135756889Y-79287047D01*
X135756892Y-79287048D01*
X136049399Y-79362150D01*
X136348995Y-79399999D01*
X136349007Y-79400000D01*
X136650993Y-79400000D01*
X136651004Y-79399999D01*
X136950600Y-79362150D01*
X137243107Y-79287048D01*
X137243110Y-79287047D01*
X137523882Y-79175882D01*
X137523890Y-79175878D01*
X137788520Y-79030397D01*
X137788530Y-79030390D01*
X138013433Y-78866987D01*
X138013434Y-78866987D01*
X137082737Y-77936290D01*
X137216602Y-77839033D01*
X137339033Y-77716602D01*
X137436290Y-77582737D01*
X138364687Y-78511134D01*
X138445486Y-78413464D01*
X138607292Y-78158497D01*
X138607295Y-78158491D01*
X138735872Y-77885252D01*
X138735874Y-77885247D01*
X138829194Y-77598040D01*
X138885783Y-77301390D01*
X138885784Y-77301383D01*
X138904745Y-77000005D01*
X138904745Y-76999994D01*
X138885784Y-76698616D01*
X138885783Y-76698609D01*
X138829194Y-76401959D01*
X138735874Y-76114752D01*
X138735872Y-76114747D01*
X138607295Y-75841508D01*
X138607292Y-75841502D01*
X138445483Y-75586530D01*
X138364686Y-75488864D01*
X137436289Y-76417261D01*
X137339033Y-76283398D01*
X137216602Y-76160967D01*
X137082736Y-76063709D01*
X138013434Y-75133011D01*
X138013433Y-75133009D01*
X137788538Y-74969614D01*
X137788520Y-74969602D01*
X137523890Y-74824121D01*
X137523882Y-74824117D01*
X137243110Y-74712952D01*
X137243107Y-74712951D01*
X136974962Y-74644104D01*
X136914924Y-74608366D01*
X136883738Y-74545842D01*
X136891306Y-74476384D01*
X136935224Y-74422043D01*
X137001550Y-74400073D01*
X137005799Y-74400000D01*
X140126000Y-74400000D01*
X140193039Y-74419685D01*
X140238794Y-74472489D01*
X140250000Y-74524000D01*
X140250000Y-82276000D01*
X140230315Y-82343039D01*
X140177511Y-82388794D01*
X140126000Y-82400000D01*
X121150597Y-82400000D01*
X121083558Y-82380315D01*
X121062916Y-82363681D01*
X120886819Y-82187584D01*
X120853334Y-82126261D01*
X120850500Y-82099903D01*
X120850500Y-81924499D01*
X120870185Y-81857460D01*
X120922989Y-81811705D01*
X120974495Y-81800499D01*
X121597872Y-81800499D01*
X121657483Y-81794091D01*
X121792331Y-81743796D01*
X121907546Y-81657546D01*
X121993796Y-81542331D01*
X122044091Y-81407483D01*
X122050500Y-81347873D01*
X122050499Y-79835805D01*
X122070184Y-79768767D01*
X122122987Y-79723012D01*
X122192146Y-79713068D01*
X122248814Y-79736542D01*
X122257913Y-79743354D01*
X122392620Y-79793596D01*
X122392627Y-79793598D01*
X122452155Y-79799999D01*
X122452172Y-79800000D01*
X125047828Y-79800000D01*
X125047844Y-79799999D01*
X125107372Y-79793598D01*
X125107376Y-79793597D01*
X125242090Y-79743351D01*
X125297967Y-79701520D01*
X123750000Y-78153553D01*
X123396446Y-77799999D01*
X124103553Y-77799999D01*
X124103553Y-77800000D01*
X125499999Y-79196447D01*
X125500000Y-79196446D01*
X125500000Y-76403553D01*
X125499999Y-76403552D01*
X124103553Y-77799999D01*
X123396446Y-77799999D01*
X122000000Y-76403552D01*
X122000000Y-78963942D01*
X121980315Y-79030981D01*
X121927511Y-79076736D01*
X121858353Y-79086680D01*
X121801691Y-79063210D01*
X121792334Y-79056205D01*
X121792328Y-79056202D01*
X121657486Y-79005910D01*
X121657485Y-79005909D01*
X121657483Y-79005909D01*
X121597873Y-78999500D01*
X121597863Y-78999500D01*
X120902129Y-78999500D01*
X120902123Y-78999501D01*
X120842516Y-79005908D01*
X120793332Y-79024253D01*
X120723640Y-79029237D01*
X120706667Y-79024253D01*
X120657486Y-79005910D01*
X120657485Y-79005909D01*
X120657483Y-79005909D01*
X120597873Y-78999500D01*
X120597863Y-78999500D01*
X119902129Y-78999500D01*
X119902123Y-78999501D01*
X119842516Y-79005908D01*
X119793332Y-79024253D01*
X119723640Y-79029237D01*
X119706667Y-79024253D01*
X119657486Y-79005910D01*
X119657485Y-79005909D01*
X119657483Y-79005909D01*
X119597873Y-78999500D01*
X119597863Y-78999500D01*
X118902129Y-78999500D01*
X118902123Y-78999501D01*
X118842516Y-79005908D01*
X118793332Y-79024253D01*
X118723640Y-79029237D01*
X118706667Y-79024253D01*
X118657486Y-79005910D01*
X118657485Y-79005909D01*
X118657483Y-79005909D01*
X118597873Y-78999500D01*
X118597863Y-78999500D01*
X117902129Y-78999500D01*
X117902123Y-78999501D01*
X117842516Y-79005908D01*
X117793332Y-79024253D01*
X117723640Y-79029237D01*
X117706667Y-79024253D01*
X117657486Y-79005910D01*
X117657485Y-79005909D01*
X117657483Y-79005909D01*
X117597873Y-78999500D01*
X117597863Y-78999500D01*
X116902129Y-78999500D01*
X116902123Y-78999501D01*
X116842516Y-79005908D01*
X116793332Y-79024253D01*
X116723640Y-79029237D01*
X116706667Y-79024253D01*
X116657486Y-79005910D01*
X116657485Y-79005909D01*
X116657483Y-79005909D01*
X116597873Y-78999500D01*
X116597863Y-78999500D01*
X115902129Y-78999500D01*
X115902123Y-78999501D01*
X115842516Y-79005908D01*
X115793332Y-79024253D01*
X115723640Y-79029237D01*
X115706667Y-79024253D01*
X115657486Y-79005910D01*
X115657485Y-79005909D01*
X115657483Y-79005909D01*
X115597873Y-78999500D01*
X115597863Y-78999500D01*
X114902129Y-78999500D01*
X114902123Y-78999501D01*
X114842516Y-79005908D01*
X114793332Y-79024253D01*
X114723640Y-79029237D01*
X114706667Y-79024253D01*
X114657486Y-79005910D01*
X114657485Y-79005909D01*
X114657483Y-79005909D01*
X114597873Y-78999500D01*
X114597863Y-78999500D01*
X113902129Y-78999500D01*
X113902123Y-78999501D01*
X113842516Y-79005908D01*
X113793332Y-79024253D01*
X113723640Y-79029237D01*
X113706667Y-79024253D01*
X113657486Y-79005910D01*
X113657485Y-79005909D01*
X113657483Y-79005909D01*
X113597873Y-78999500D01*
X113597863Y-78999500D01*
X112902129Y-78999500D01*
X112902123Y-78999501D01*
X112842516Y-79005908D01*
X112793332Y-79024253D01*
X112723640Y-79029237D01*
X112706667Y-79024253D01*
X112657486Y-79005910D01*
X112657485Y-79005909D01*
X112657483Y-79005909D01*
X112597873Y-78999500D01*
X112597863Y-78999500D01*
X111902129Y-78999500D01*
X111902123Y-78999501D01*
X111842516Y-79005908D01*
X111793332Y-79024253D01*
X111723640Y-79029237D01*
X111706667Y-79024253D01*
X111657486Y-79005910D01*
X111657485Y-79005909D01*
X111657483Y-79005909D01*
X111597873Y-78999500D01*
X111597864Y-78999500D01*
X111043078Y-78999500D01*
X110976039Y-78979815D01*
X110930284Y-78927011D01*
X110920340Y-78857853D01*
X110938085Y-78809527D01*
X110975788Y-78749524D01*
X110975789Y-78749522D01*
X111035368Y-78579255D01*
X111041938Y-78520943D01*
X111055565Y-78400003D01*
X111055565Y-78399996D01*
X111035369Y-78220750D01*
X111035368Y-78220745D01*
X111013584Y-78158491D01*
X110975789Y-78050478D01*
X110971005Y-78042865D01*
X110879815Y-77897737D01*
X110752262Y-77770184D01*
X110599523Y-77674211D01*
X110429254Y-77614631D01*
X110429249Y-77614630D01*
X110250004Y-77594435D01*
X110249996Y-77594435D01*
X110070750Y-77614630D01*
X110070737Y-77614633D01*
X109893906Y-77676510D01*
X109893155Y-77674364D01*
X109834856Y-77683962D01*
X109806409Y-77675609D01*
X109806094Y-77676510D01*
X109629262Y-77614633D01*
X109629249Y-77614630D01*
X109450004Y-77594435D01*
X109449996Y-77594435D01*
X109270750Y-77614630D01*
X109270737Y-77614633D01*
X109100479Y-77674209D01*
X109015971Y-77727309D01*
X108948734Y-77746309D01*
X108884029Y-77727309D01*
X108799520Y-77674209D01*
X108629262Y-77614633D01*
X108629249Y-77614630D01*
X108450004Y-77594435D01*
X108449996Y-77594435D01*
X108270750Y-77614630D01*
X108270737Y-77614633D01*
X108100479Y-77674209D01*
X108015971Y-77727309D01*
X107948734Y-77746309D01*
X107884029Y-77727309D01*
X107799520Y-77674209D01*
X107629262Y-77614633D01*
X107629249Y-77614630D01*
X107450004Y-77594435D01*
X107449996Y-77594435D01*
X107270750Y-77614630D01*
X107270737Y-77614633D01*
X107100479Y-77674209D01*
X107015971Y-77727309D01*
X106948734Y-77746309D01*
X106884029Y-77727309D01*
X106799520Y-77674209D01*
X106629262Y-77614633D01*
X106629249Y-77614630D01*
X106450004Y-77594435D01*
X106449996Y-77594435D01*
X106270750Y-77614630D01*
X106270745Y-77614631D01*
X106100476Y-77674211D01*
X105947737Y-77770184D01*
X105820184Y-77897737D01*
X105728994Y-78042865D01*
X105676659Y-78089156D01*
X105607605Y-78099804D01*
X105543757Y-78071429D01*
X105505385Y-78013039D01*
X105500000Y-77976893D01*
X105500000Y-76403553D01*
X105499999Y-76403552D01*
X103750000Y-78153553D01*
X102202030Y-79701520D01*
X102257908Y-79743351D01*
X102392623Y-79793597D01*
X102392627Y-79793598D01*
X102452155Y-79799999D01*
X102452172Y-79800000D01*
X105047828Y-79800000D01*
X105047844Y-79799999D01*
X105107372Y-79793598D01*
X105107379Y-79793596D01*
X105242086Y-79743354D01*
X105251186Y-79736542D01*
X105316650Y-79712123D01*
X105384923Y-79726973D01*
X105434330Y-79776377D01*
X105449500Y-79835807D01*
X105449500Y-81347870D01*
X105449501Y-81347876D01*
X105456421Y-81412247D01*
X105444014Y-81481006D01*
X105396403Y-81532143D01*
X105333131Y-81549500D01*
X89611669Y-81549500D01*
X89611653Y-81549499D01*
X89604057Y-81549499D01*
X89445943Y-81549499D01*
X89338587Y-81578265D01*
X89293210Y-81590424D01*
X89293209Y-81590425D01*
X89243096Y-81619359D01*
X89243095Y-81619360D01*
X89199689Y-81644420D01*
X89156285Y-81669479D01*
X89156282Y-81669481D01*
X88462083Y-82363681D01*
X88400760Y-82397166D01*
X88374402Y-82400000D01*
X86374000Y-82400000D01*
X86306961Y-82380315D01*
X86261206Y-82327511D01*
X86250000Y-82276000D01*
X86250000Y-74524000D01*
X86269685Y-74456961D01*
X86322489Y-74411206D01*
X86374000Y-74400000D01*
X89494201Y-74400000D01*
X89561240Y-74419685D01*
G37*
%TD.AperFunction*%
%TD*%
M02*
