%TF.GenerationSoftware,KiCad,Pcbnew,8.0.6-1.fc40*%
%TF.CreationDate,2025-02-15T15:48:19+01:00*%
%TF.ProjectId,airMouse-keyboard,6169724d-6f75-4736-952d-6b6579626f61,RC1*%
%TF.SameCoordinates,Original*%
%TF.FileFunction,Copper,L2,Bot*%
%TF.FilePolarity,Positive*%
%FSLAX46Y46*%
G04 Gerber Fmt 4.6, Leading zero omitted, Abs format (unit mm)*
G04 Created by KiCad (PCBNEW 8.0.6-1.fc40) date 2025-02-15 15:48:19*
%MOMM*%
%LPD*%
G01*
G04 APERTURE LIST*
G04 Aperture macros list*
%AMRoundRect*
0 Rectangle with rounded corners*
0 $1 Rounding radius*
0 $2 $3 $4 $5 $6 $7 $8 $9 X,Y pos of 4 corners*
0 Add a 4 corners polygon primitive as box body*
4,1,4,$2,$3,$4,$5,$6,$7,$8,$9,$2,$3,0*
0 Add four circle primitives for the rounded corners*
1,1,$1+$1,$2,$3*
1,1,$1+$1,$4,$5*
1,1,$1+$1,$6,$7*
1,1,$1+$1,$8,$9*
0 Add four rect primitives between the rounded corners*
20,1,$1+$1,$2,$3,$4,$5,0*
20,1,$1+$1,$4,$5,$6,$7,0*
20,1,$1+$1,$6,$7,$8,$9,0*
20,1,$1+$1,$8,$9,$2,$3,0*%
G04 Aperture macros list end*
%TA.AperFunction,SMDPad,CuDef*%
%ADD10RoundRect,0.150000X-0.200000X0.150000X-0.200000X-0.150000X0.200000X-0.150000X0.200000X0.150000X0*%
%TD*%
%TA.AperFunction,ComponentPad*%
%ADD11C,3.800000*%
%TD*%
%TA.AperFunction,ViaPad*%
%ADD12C,0.600000*%
%TD*%
%TA.AperFunction,Conductor*%
%ADD13C,0.200000*%
%TD*%
G04 APERTURE END LIST*
D10*
%TO.P,D43,1,K*%
%TO.N,/ROW5*%
X98750000Y-116100000D03*
%TO.P,D43,2,A*%
%TO.N,Net-(D43-A)*%
X98750000Y-114700000D03*
%TD*%
%TO.P,D13,1,K*%
%TO.N,/ROW2*%
X98750000Y-95100000D03*
%TO.P,D13,2,A*%
%TO.N,Net-(D13-A)*%
X98750000Y-93700000D03*
%TD*%
%TO.P,D12,1,K*%
%TO.N,/ROW2*%
X93250000Y-95100000D03*
%TO.P,D12,2,A*%
%TO.N,Net-(D12-A)*%
X93250000Y-93700000D03*
%TD*%
D11*
%TO.P,H4,1,1*%
%TO.N,GND*%
X90000000Y-77000000D03*
%TD*%
%TO.P,H3,1,1*%
%TO.N,GND*%
X136500000Y-77000000D03*
%TD*%
D10*
%TO.P,D1,1,K*%
%TO.N,/ROW1*%
X87750000Y-88100000D03*
%TO.P,D1,2,A*%
%TO.N,Net-(D1-A)*%
X87750000Y-86700000D03*
%TD*%
%TO.P,D49,1,K*%
%TO.N,/ROW5*%
X137250000Y-116100000D03*
%TO.P,D49,2,A*%
%TO.N,Net-(D49-A)*%
X137250000Y-114700000D03*
%TD*%
%TO.P,D48,1,K*%
%TO.N,/ROW5*%
X131750000Y-116100000D03*
%TO.P,D48,2,A*%
%TO.N,Net-(D48-A)*%
X131750000Y-114700000D03*
%TD*%
%TO.P,D26,1,K*%
%TO.N,/ROW3*%
X115250000Y-102100000D03*
%TO.P,D26,2,A*%
%TO.N,Net-(D26-A)*%
X115250000Y-100700000D03*
%TD*%
%TO.P,D27,1,K*%
%TO.N,/ROW3*%
X120750000Y-102100000D03*
%TO.P,D27,2,A*%
%TO.N,Net-(D27-A)*%
X120750000Y-100700000D03*
%TD*%
%TO.P,D37,1,K*%
%TO.N,/ROW4*%
X120750000Y-109100000D03*
%TO.P,D37,2,A*%
%TO.N,Net-(D37-A)*%
X120750000Y-107700000D03*
%TD*%
%TO.P,D36,1,K*%
%TO.N,/ROW4*%
X115250000Y-109100000D03*
%TO.P,D36,2,A*%
%TO.N,Net-(D36-A)*%
X115250000Y-107700000D03*
%TD*%
%TO.P,D9,1,K*%
%TO.N,/ROW1*%
X131750000Y-88100000D03*
%TO.P,D9,2,A*%
%TO.N,Net-(D9-A)*%
X131750000Y-86700000D03*
%TD*%
%TO.P,D23,1,K*%
%TO.N,/ROW3*%
X98750000Y-102100000D03*
%TO.P,D23,2,A*%
%TO.N,Net-(D23-A)*%
X98750000Y-100700000D03*
%TD*%
%TO.P,D47,1,K*%
%TO.N,/ROW5*%
X126250000Y-116100000D03*
%TO.P,D47,2,A*%
%TO.N,Net-(D47-A)*%
X126250000Y-114700000D03*
%TD*%
%TO.P,D41,1,K*%
%TO.N,/ROW5*%
X87750000Y-116100000D03*
%TO.P,D41,2,A*%
%TO.N,Net-(D41-A)*%
X87750000Y-114700000D03*
%TD*%
%TO.P,D20,1,K*%
%TO.N,/ROW2*%
X137000000Y-95100000D03*
%TO.P,D20,2,A*%
%TO.N,Net-(D20-A)*%
X137000000Y-93700000D03*
%TD*%
%TO.P,D14,1,K*%
%TO.N,/ROW2*%
X104250000Y-95100000D03*
%TO.P,D14,2,A*%
%TO.N,Net-(D14-A)*%
X104250000Y-93700000D03*
%TD*%
%TO.P,D19,1,K*%
%TO.N,/ROW2*%
X131500000Y-95100000D03*
%TO.P,D19,2,A*%
%TO.N,Net-(D19-A)*%
X131500000Y-93700000D03*
%TD*%
%TO.P,D15,1,K*%
%TO.N,/ROW2*%
X109750000Y-95100000D03*
%TO.P,D15,2,A*%
%TO.N,Net-(D15-A)*%
X109750000Y-93700000D03*
%TD*%
%TO.P,D30,1,K*%
%TO.N,/ROW3*%
X137250000Y-102100000D03*
%TO.P,D30,2,A*%
%TO.N,Net-(D30-A)*%
X137250000Y-100700000D03*
%TD*%
%TO.P,D5,1,K*%
%TO.N,/ROW1*%
X109750000Y-88100000D03*
%TO.P,D5,2,A*%
%TO.N,Net-(D5-A)*%
X109750000Y-86700000D03*
%TD*%
%TO.P,D11,1,K*%
%TO.N,/ROW2*%
X87750000Y-95100000D03*
%TO.P,D11,2,A*%
%TO.N,Net-(D11-A)*%
X87750000Y-93700000D03*
%TD*%
%TO.P,D35,1,K*%
%TO.N,/ROW4*%
X109750000Y-109100000D03*
%TO.P,D35,2,A*%
%TO.N,Net-(D35-A)*%
X109750000Y-107700000D03*
%TD*%
%TO.P,D39,1,K*%
%TO.N,/ROW4*%
X131750000Y-109100000D03*
%TO.P,D39,2,A*%
%TO.N,Net-(D39-A)*%
X131750000Y-107700000D03*
%TD*%
%TO.P,D40,1,K*%
%TO.N,/ROW4*%
X137250000Y-109100000D03*
%TO.P,D40,2,A*%
%TO.N,Net-(D40-A)*%
X137250000Y-107700000D03*
%TD*%
%TO.P,D6,1,K*%
%TO.N,/ROW1*%
X115250000Y-88100000D03*
%TO.P,D6,2,A*%
%TO.N,Net-(D6-A)*%
X115250000Y-86700000D03*
%TD*%
%TO.P,D10,1,K*%
%TO.N,/ROW1*%
X137250000Y-88100000D03*
%TO.P,D10,2,A*%
%TO.N,Net-(D10-A)*%
X137250000Y-86700000D03*
%TD*%
%TO.P,D17,1,K*%
%TO.N,/ROW2*%
X120750000Y-95100000D03*
%TO.P,D17,2,A*%
%TO.N,Net-(D17-A)*%
X120750000Y-93700000D03*
%TD*%
%TO.P,D44,1,K*%
%TO.N,/ROW5*%
X104250000Y-116100000D03*
%TO.P,D44,2,A*%
%TO.N,Net-(D44-A)*%
X104250000Y-114700000D03*
%TD*%
%TO.P,D34,1,K*%
%TO.N,/ROW4*%
X104250000Y-109100000D03*
%TO.P,D34,2,A*%
%TO.N,Net-(D34-A)*%
X104250000Y-107700000D03*
%TD*%
%TO.P,D45,1,K*%
%TO.N,/ROW5*%
X112750000Y-116100000D03*
%TO.P,D45,2,A*%
%TO.N,Net-(D45-A)*%
X112750000Y-114700000D03*
%TD*%
%TO.P,D24,1,K*%
%TO.N,/ROW3*%
X104250000Y-102100000D03*
%TO.P,D24,2,A*%
%TO.N,Net-(D24-A)*%
X104250000Y-100700000D03*
%TD*%
%TO.P,D33,1,K*%
%TO.N,/ROW4*%
X98750000Y-109100000D03*
%TO.P,D33,2,A*%
%TO.N,Net-(D33-A)*%
X98750000Y-107700000D03*
%TD*%
%TO.P,D8,1,K*%
%TO.N,/ROW1*%
X126250000Y-88100000D03*
%TO.P,D8,2,A*%
%TO.N,Net-(D8-A)*%
X126250000Y-86700000D03*
%TD*%
%TO.P,D32,1,K*%
%TO.N,/ROW4*%
X93250000Y-109100000D03*
%TO.P,D32,2,A*%
%TO.N,Net-(D32-A)*%
X93250000Y-107700000D03*
%TD*%
%TO.P,D3,1,K*%
%TO.N,/ROW1*%
X98750000Y-88100000D03*
%TO.P,D3,2,A*%
%TO.N,Net-(D3-A)*%
X98750000Y-86700000D03*
%TD*%
%TO.P,D18,1,K*%
%TO.N,/ROW2*%
X126250000Y-95100000D03*
%TO.P,D18,2,A*%
%TO.N,Net-(D18-A)*%
X126250000Y-93700000D03*
%TD*%
%TO.P,D42,1,K*%
%TO.N,/ROW5*%
X93250000Y-116100000D03*
%TO.P,D42,2,A*%
%TO.N,Net-(D42-A)*%
X93250000Y-114700000D03*
%TD*%
%TO.P,D4,1,K*%
%TO.N,/ROW1*%
X104250000Y-88100000D03*
%TO.P,D4,2,A*%
%TO.N,Net-(D4-A)*%
X104250000Y-86700000D03*
%TD*%
%TO.P,D31,1,K*%
%TO.N,/ROW4*%
X87750000Y-109100000D03*
%TO.P,D31,2,A*%
%TO.N,Net-(D31-A)*%
X87750000Y-107700000D03*
%TD*%
%TO.P,D46,1,K*%
%TO.N,/ROW5*%
X120750000Y-116100000D03*
%TO.P,D46,2,A*%
%TO.N,Net-(D46-A)*%
X120750000Y-114700000D03*
%TD*%
%TO.P,D38,1,K*%
%TO.N,/ROW4*%
X126250000Y-109100000D03*
%TO.P,D38,2,A*%
%TO.N,Net-(D38-A)*%
X126250000Y-107700000D03*
%TD*%
%TO.P,D29,1,K*%
%TO.N,/ROW3*%
X131750000Y-102100000D03*
%TO.P,D29,2,A*%
%TO.N,Net-(D29-A)*%
X131750000Y-100700000D03*
%TD*%
%TO.P,D25,1,K*%
%TO.N,/ROW3*%
X109750000Y-102100000D03*
%TO.P,D25,2,A*%
%TO.N,Net-(D25-A)*%
X109750000Y-100700000D03*
%TD*%
%TO.P,D21,1,K*%
%TO.N,/ROW3*%
X87750000Y-102100000D03*
%TO.P,D21,2,A*%
%TO.N,Net-(D21-A)*%
X87750000Y-100700000D03*
%TD*%
%TO.P,D22,1,K*%
%TO.N,/ROW3*%
X93250000Y-102100000D03*
%TO.P,D22,2,A*%
%TO.N,Net-(D22-A)*%
X93250000Y-100700000D03*
%TD*%
%TO.P,D28,1,K*%
%TO.N,/ROW3*%
X126250000Y-102100000D03*
%TO.P,D28,2,A*%
%TO.N,Net-(D28-A)*%
X126250000Y-100700000D03*
%TD*%
%TO.P,D16,1,K*%
%TO.N,/ROW2*%
X115250000Y-95100000D03*
%TO.P,D16,2,A*%
%TO.N,Net-(D16-A)*%
X115250000Y-93700000D03*
%TD*%
%TO.P,D7,1,K*%
%TO.N,/ROW1*%
X120750000Y-88100000D03*
%TO.P,D7,2,A*%
%TO.N,Net-(D7-A)*%
X120750000Y-86700000D03*
%TD*%
%TO.P,D2,1,K*%
%TO.N,/ROW1*%
X93250000Y-88100000D03*
%TO.P,D2,2,A*%
%TO.N,Net-(D2-A)*%
X93250000Y-86700000D03*
%TD*%
D12*
%TO.N,/ROW5*%
X106450000Y-78400000D03*
%TO.N,/ROW4*%
X107450000Y-78400000D03*
%TO.N,/ROW3*%
X108450000Y-78400000D03*
%TO.N,/ROW2*%
X109450000Y-78400000D03*
%TO.N,/ROW1*%
X110250000Y-78400000D03*
%TO.N,GND*%
X139250000Y-81400000D03*
X139250000Y-80400000D03*
X139250000Y-79400000D03*
X139250000Y-78400000D03*
X139250000Y-77400000D03*
X139250000Y-76400000D03*
X139250000Y-75400000D03*
X87250000Y-81400000D03*
X87250000Y-80400000D03*
X87250000Y-79400000D03*
X87250000Y-78400000D03*
X87250000Y-77400000D03*
X87250000Y-76400000D03*
X87250000Y-75400000D03*
%TO.N,/ROW5*%
X91000000Y-87150000D03*
X91000000Y-116100000D03*
%TO.N,/ROW4*%
X96500000Y-87150000D03*
X96500000Y-109100000D03*
%TO.N,/ROW3*%
X102000000Y-87150000D03*
X102000000Y-102100000D03*
%TO.N,/ROW2*%
X107500000Y-87150000D03*
X107500000Y-95100000D03*
%TO.N,Net-(D1-A)*%
X88250000Y-85400000D03*
%TO.N,Net-(D2-A)*%
X93750000Y-85400000D03*
%TO.N,Net-(D3-A)*%
X99250000Y-85400000D03*
%TO.N,Net-(D4-A)*%
X104750000Y-85400000D03*
%TO.N,Net-(D5-A)*%
X110250000Y-85400000D03*
%TO.N,Net-(D6-A)*%
X115750000Y-85400000D03*
%TO.N,Net-(D7-A)*%
X121250000Y-85400000D03*
%TO.N,Net-(D8-A)*%
X126750000Y-85400000D03*
%TO.N,Net-(D9-A)*%
X132250000Y-85400000D03*
%TO.N,Net-(D10-A)*%
X137750000Y-85400000D03*
%TO.N,Net-(D11-A)*%
X88250000Y-92400000D03*
%TO.N,Net-(D12-A)*%
X93750000Y-92400000D03*
%TO.N,Net-(D13-A)*%
X99250000Y-92400000D03*
%TO.N,Net-(D14-A)*%
X104750000Y-92400000D03*
%TO.N,Net-(D15-A)*%
X110250000Y-92400000D03*
%TO.N,Net-(D16-A)*%
X115750000Y-92400000D03*
%TO.N,Net-(D17-A)*%
X121250000Y-92400000D03*
%TO.N,Net-(D18-A)*%
X126750000Y-92400000D03*
%TO.N,Net-(D19-A)*%
X132250000Y-92400000D03*
%TO.N,Net-(D20-A)*%
X137750000Y-92400000D03*
%TO.N,Net-(D21-A)*%
X88250000Y-99400000D03*
%TO.N,Net-(D22-A)*%
X93750000Y-99400000D03*
%TO.N,Net-(D23-A)*%
X99250000Y-99400000D03*
%TO.N,Net-(D24-A)*%
X104750000Y-99400000D03*
%TO.N,Net-(D25-A)*%
X110250000Y-99400000D03*
%TO.N,Net-(D26-A)*%
X115750000Y-99400000D03*
%TO.N,Net-(D27-A)*%
X121250000Y-99400000D03*
%TO.N,Net-(D28-A)*%
X126750000Y-99400000D03*
%TO.N,Net-(D29-A)*%
X132250000Y-99400000D03*
%TO.N,Net-(D30-A)*%
X137750000Y-99400000D03*
%TO.N,Net-(D31-A)*%
X88250000Y-106400000D03*
%TO.N,Net-(D32-A)*%
X93750000Y-106400000D03*
%TO.N,Net-(D33-A)*%
X99250000Y-106400000D03*
%TO.N,Net-(D34-A)*%
X104750000Y-106400000D03*
%TO.N,Net-(D35-A)*%
X110250000Y-106400000D03*
%TO.N,Net-(D36-A)*%
X115750000Y-106400000D03*
%TO.N,Net-(D37-A)*%
X121250000Y-106400000D03*
%TO.N,Net-(D38-A)*%
X126750000Y-106400000D03*
%TO.N,Net-(D39-A)*%
X132250000Y-106400000D03*
%TO.N,Net-(D40-A)*%
X137750000Y-106400000D03*
%TO.N,Net-(D41-A)*%
X88250000Y-113400000D03*
%TO.N,Net-(D42-A)*%
X93750000Y-113400000D03*
%TO.N,Net-(D43-A)*%
X99250000Y-113400000D03*
%TO.N,Net-(D44-A)*%
X104750000Y-113400000D03*
%TO.N,Net-(D45-A)*%
X113250000Y-113400000D03*
%TO.N,Net-(D46-A)*%
X121250000Y-113400000D03*
%TO.N,Net-(D47-A)*%
X126750000Y-113400000D03*
%TO.N,Net-(D48-A)*%
X132250000Y-113400000D03*
%TO.N,Net-(D49-A)*%
X137750000Y-113400000D03*
%TD*%
D13*
%TO.N,/ROW5*%
X91000000Y-87150000D02*
X93750000Y-84400000D01*
X93750000Y-84400000D02*
X102850000Y-84400000D01*
X102850000Y-84400000D02*
X106450000Y-80800000D01*
X106450000Y-80800000D02*
X106450000Y-78400000D01*
%TO.N,/ROW4*%
X107450000Y-78400000D02*
X107450000Y-80950000D01*
X107450000Y-80950000D02*
X103600000Y-84800000D01*
%TO.N,/ROW3*%
X108450000Y-78400000D02*
X108450000Y-80800000D01*
X108450000Y-80800000D02*
X102100000Y-87150000D01*
X102100000Y-87150000D02*
X102000000Y-87150000D01*
%TO.N,/ROW2*%
X109450000Y-78400000D02*
X109450000Y-85200000D01*
X109450000Y-85200000D02*
X107500000Y-87150000D01*
%TO.N,/ROW1*%
X110250000Y-78400000D02*
X110250000Y-83100000D01*
X110250000Y-83100000D02*
X115250000Y-88100000D01*
%TO.N,/ROW5*%
X91000000Y-116100000D02*
X87750000Y-116100000D01*
X137250000Y-116100000D02*
X91000000Y-116100000D01*
%TO.N,/ROW4*%
X103600000Y-84800000D02*
X98850000Y-84800000D01*
X98850000Y-84800000D02*
X96500000Y-87150000D01*
X96500000Y-109100000D02*
X137250000Y-109100000D01*
X87750000Y-109100000D02*
X96500000Y-109100000D01*
%TO.N,/ROW3*%
X137250000Y-102100000D02*
X102000000Y-102100000D01*
X102000000Y-102100000D02*
X87750000Y-102100000D01*
%TO.N,/ROW2*%
X87750000Y-95100000D02*
X107500000Y-95100000D01*
X107500000Y-95100000D02*
X137250000Y-95100000D01*
%TO.N,Net-(D1-A)*%
X88250000Y-85400000D02*
X88250000Y-86200000D01*
X88250000Y-86200000D02*
X87750000Y-86700000D01*
%TO.N,Net-(D2-A)*%
X93750000Y-86200000D02*
X93250000Y-86700000D01*
X93750000Y-85400000D02*
X93750000Y-86200000D01*
%TO.N,Net-(D3-A)*%
X99250000Y-85400000D02*
X99250000Y-86200000D01*
X99250000Y-86200000D02*
X98750000Y-86700000D01*
%TO.N,Net-(D4-A)*%
X104750000Y-85400000D02*
X104750000Y-86200000D01*
X104750000Y-86200000D02*
X104250000Y-86700000D01*
%TO.N,Net-(D5-A)*%
X110250000Y-86200000D02*
X109750000Y-86700000D01*
X110250000Y-85400000D02*
X110250000Y-86200000D01*
%TO.N,Net-(D6-A)*%
X115750000Y-86200000D02*
X115250000Y-86700000D01*
X115750000Y-85400000D02*
X115750000Y-86200000D01*
%TO.N,Net-(D7-A)*%
X121250000Y-86200000D02*
X120750000Y-86700000D01*
X121250000Y-85400000D02*
X121250000Y-86200000D01*
%TO.N,Net-(D8-A)*%
X126750000Y-85400000D02*
X126750000Y-86200000D01*
X126750000Y-86200000D02*
X126250000Y-86700000D01*
%TO.N,Net-(D9-A)*%
X132250000Y-85400000D02*
X132250000Y-86200000D01*
X132250000Y-86200000D02*
X131750000Y-86700000D01*
%TO.N,Net-(D10-A)*%
X137750000Y-85400000D02*
X137750000Y-86200000D01*
X137750000Y-86200000D02*
X137250000Y-86700000D01*
%TO.N,Net-(D11-A)*%
X88250000Y-92400000D02*
X88250000Y-93200000D01*
X88250000Y-93200000D02*
X87750000Y-93700000D01*
%TO.N,Net-(D12-A)*%
X93750000Y-93200000D02*
X93250000Y-93700000D01*
X93750000Y-92400000D02*
X93750000Y-93200000D01*
%TO.N,Net-(D13-A)*%
X99250000Y-92400000D02*
X99250000Y-93200000D01*
X99250000Y-93200000D02*
X98750000Y-93700000D01*
%TO.N,Net-(D14-A)*%
X104750000Y-93200000D02*
X104250000Y-93700000D01*
X104750000Y-92400000D02*
X104750000Y-93200000D01*
%TO.N,Net-(D15-A)*%
X110250000Y-92400000D02*
X110250000Y-93200000D01*
X110250000Y-93200000D02*
X109750000Y-93700000D01*
%TO.N,Net-(D16-A)*%
X115750000Y-93200000D02*
X115250000Y-93700000D01*
X115750000Y-92400000D02*
X115750000Y-93200000D01*
%TO.N,Net-(D17-A)*%
X121250000Y-93200000D02*
X120750000Y-93700000D01*
X121250000Y-92400000D02*
X121250000Y-93200000D01*
%TO.N,Net-(D18-A)*%
X126750000Y-92400000D02*
X126750000Y-93200000D01*
X126750000Y-93200000D02*
X126250000Y-93700000D01*
%TO.N,Net-(D19-A)*%
X132250000Y-92400000D02*
X132250000Y-93200000D01*
X132250000Y-93200000D02*
X131750000Y-93700000D01*
%TO.N,Net-(D20-A)*%
X137750000Y-92400000D02*
X137750000Y-93200000D01*
X137750000Y-93200000D02*
X137250000Y-93700000D01*
%TO.N,Net-(D21-A)*%
X88250000Y-99400000D02*
X88250000Y-100200000D01*
X88250000Y-100200000D02*
X87750000Y-100700000D01*
%TO.N,Net-(D22-A)*%
X93750000Y-99400000D02*
X93750000Y-100200000D01*
X93750000Y-100200000D02*
X93250000Y-100700000D01*
%TO.N,Net-(D23-A)*%
X99250000Y-100200000D02*
X98750000Y-100700000D01*
X99250000Y-99400000D02*
X99250000Y-100200000D01*
%TO.N,Net-(D24-A)*%
X104750000Y-99400000D02*
X104750000Y-100200000D01*
X104750000Y-100200000D02*
X104250000Y-100700000D01*
%TO.N,Net-(D25-A)*%
X110250000Y-100200000D02*
X109750000Y-100700000D01*
X110250000Y-99400000D02*
X110250000Y-100200000D01*
%TO.N,Net-(D26-A)*%
X115750000Y-99400000D02*
X115750000Y-100200000D01*
X115750000Y-100200000D02*
X115250000Y-100700000D01*
%TO.N,Net-(D27-A)*%
X121250000Y-100200000D02*
X120750000Y-100700000D01*
X121250000Y-99400000D02*
X121250000Y-100200000D01*
%TO.N,Net-(D28-A)*%
X126750000Y-100200000D02*
X126250000Y-100700000D01*
X126750000Y-99400000D02*
X126750000Y-100200000D01*
%TO.N,Net-(D29-A)*%
X132250000Y-99400000D02*
X132250000Y-100200000D01*
X132250000Y-100200000D02*
X131750000Y-100700000D01*
%TO.N,Net-(D30-A)*%
X137750000Y-100200000D02*
X137250000Y-100700000D01*
X137750000Y-99400000D02*
X137750000Y-100200000D01*
%TO.N,Net-(D31-A)*%
X88250000Y-106400000D02*
X88250000Y-107200000D01*
X88250000Y-107200000D02*
X87750000Y-107700000D01*
%TO.N,Net-(D32-A)*%
X93750000Y-107200000D02*
X93250000Y-107700000D01*
X93750000Y-106400000D02*
X93750000Y-107200000D01*
%TO.N,Net-(D33-A)*%
X99250000Y-107200000D02*
X98750000Y-107700000D01*
X99250000Y-106400000D02*
X99250000Y-107200000D01*
%TO.N,Net-(D34-A)*%
X104750000Y-106400000D02*
X104750000Y-107200000D01*
X104750000Y-107200000D02*
X104250000Y-107700000D01*
%TO.N,Net-(D35-A)*%
X110250000Y-106400000D02*
X110250000Y-107200000D01*
X110250000Y-107200000D02*
X109750000Y-107700000D01*
%TO.N,Net-(D36-A)*%
X115750000Y-107200000D02*
X115250000Y-107700000D01*
X115750000Y-106400000D02*
X115750000Y-107200000D01*
%TO.N,Net-(D37-A)*%
X121250000Y-106400000D02*
X121250000Y-107200000D01*
X121250000Y-107200000D02*
X120750000Y-107700000D01*
%TO.N,Net-(D38-A)*%
X126750000Y-106400000D02*
X126750000Y-107200000D01*
X126750000Y-107200000D02*
X126250000Y-107700000D01*
%TO.N,Net-(D39-A)*%
X132250000Y-107200000D02*
X131750000Y-107700000D01*
X132250000Y-106400000D02*
X132250000Y-107200000D01*
%TO.N,Net-(D40-A)*%
X137750000Y-106400000D02*
X137750000Y-107200000D01*
X137750000Y-107200000D02*
X137250000Y-107700000D01*
%TO.N,Net-(D41-A)*%
X88250000Y-114200000D02*
X87750000Y-114700000D01*
X88250000Y-113400000D02*
X88250000Y-114200000D01*
%TO.N,Net-(D42-A)*%
X93750000Y-114200000D02*
X93250000Y-114700000D01*
X93750000Y-113400000D02*
X93750000Y-114200000D01*
%TO.N,Net-(D43-A)*%
X99250000Y-113400000D02*
X99250000Y-114200000D01*
X99250000Y-114200000D02*
X98750000Y-114700000D01*
%TO.N,Net-(D44-A)*%
X104750000Y-113400000D02*
X104750000Y-114200000D01*
X104750000Y-114200000D02*
X104250000Y-114700000D01*
%TO.N,Net-(D45-A)*%
X113250000Y-113400000D02*
X113250000Y-114200000D01*
X113250000Y-114200000D02*
X112750000Y-114700000D01*
%TO.N,Net-(D46-A)*%
X121250000Y-114200000D02*
X120750000Y-114700000D01*
X121250000Y-113400000D02*
X121250000Y-114200000D01*
%TO.N,Net-(D47-A)*%
X126750000Y-114200000D02*
X126250000Y-114700000D01*
X126750000Y-113400000D02*
X126750000Y-114200000D01*
%TO.N,Net-(D48-A)*%
X132250000Y-113400000D02*
X132250000Y-114200000D01*
X132250000Y-114200000D02*
X131750000Y-114700000D01*
%TO.N,Net-(D49-A)*%
X137750000Y-113400000D02*
X137750000Y-114200000D01*
X137750000Y-114200000D02*
X137250000Y-114700000D01*
%TO.N,/ROW1*%
X137250000Y-88100000D02*
X87750000Y-88100000D01*
%TD*%
%TA.AperFunction,Conductor*%
%TO.N,GND*%
G36*
X89561240Y-74419685D02*
G01*
X89606995Y-74472489D01*
X89616939Y-74541647D01*
X89587914Y-74605203D01*
X89529136Y-74642977D01*
X89525038Y-74644104D01*
X89256892Y-74712951D01*
X89256889Y-74712952D01*
X88976117Y-74824117D01*
X88976109Y-74824121D01*
X88711476Y-74969604D01*
X88711471Y-74969607D01*
X88486565Y-75133010D01*
X88486564Y-75133011D01*
X89417262Y-76063709D01*
X89283398Y-76160967D01*
X89160967Y-76283398D01*
X89063709Y-76417262D01*
X88135311Y-75488864D01*
X88054520Y-75586525D01*
X88054518Y-75586528D01*
X87892707Y-75841502D01*
X87892704Y-75841508D01*
X87764127Y-76114747D01*
X87764125Y-76114752D01*
X87670805Y-76401959D01*
X87614216Y-76698609D01*
X87614215Y-76698616D01*
X87595255Y-76999994D01*
X87595255Y-77000005D01*
X87614215Y-77301383D01*
X87614216Y-77301390D01*
X87670805Y-77598040D01*
X87764125Y-77885247D01*
X87764127Y-77885252D01*
X87892704Y-78158491D01*
X87892707Y-78158497D01*
X88054516Y-78413469D01*
X88135311Y-78511133D01*
X89063708Y-77582736D01*
X89160967Y-77716602D01*
X89283398Y-77839033D01*
X89417262Y-77936290D01*
X88486564Y-78866987D01*
X88486565Y-78866989D01*
X88711461Y-79030385D01*
X88711479Y-79030397D01*
X88976109Y-79175878D01*
X88976117Y-79175882D01*
X89256889Y-79287047D01*
X89256892Y-79287048D01*
X89549399Y-79362150D01*
X89848995Y-79399999D01*
X89849007Y-79400000D01*
X90150993Y-79400000D01*
X90151004Y-79399999D01*
X90450600Y-79362150D01*
X90743107Y-79287048D01*
X90743110Y-79287047D01*
X91023882Y-79175882D01*
X91023890Y-79175878D01*
X91288520Y-79030397D01*
X91288530Y-79030390D01*
X91513433Y-78866987D01*
X91513434Y-78866987D01*
X90582737Y-77936290D01*
X90716602Y-77839033D01*
X90839033Y-77716602D01*
X90936290Y-77582737D01*
X91864687Y-78511134D01*
X91945486Y-78413464D01*
X92107292Y-78158497D01*
X92107295Y-78158491D01*
X92235872Y-77885252D01*
X92235874Y-77885247D01*
X92329194Y-77598040D01*
X92385783Y-77301390D01*
X92385784Y-77301383D01*
X92404745Y-77000005D01*
X92404745Y-76999994D01*
X92385784Y-76698616D01*
X92385783Y-76698609D01*
X92329194Y-76401959D01*
X92235874Y-76114752D01*
X92235872Y-76114747D01*
X92107295Y-75841508D01*
X92107292Y-75841502D01*
X91945483Y-75586530D01*
X91864686Y-75488864D01*
X90936289Y-76417261D01*
X90839033Y-76283398D01*
X90716602Y-76160967D01*
X90582736Y-76063709D01*
X91513434Y-75133011D01*
X91513433Y-75133009D01*
X91288538Y-74969614D01*
X91288520Y-74969602D01*
X91023890Y-74824121D01*
X91023882Y-74824117D01*
X90743110Y-74712952D01*
X90743107Y-74712951D01*
X90474962Y-74644104D01*
X90414924Y-74608366D01*
X90383738Y-74545842D01*
X90391306Y-74476384D01*
X90435224Y-74422043D01*
X90501550Y-74400073D01*
X90505799Y-74400000D01*
X135994201Y-74400000D01*
X136061240Y-74419685D01*
X136106995Y-74472489D01*
X136116939Y-74541647D01*
X136087914Y-74605203D01*
X136029136Y-74642977D01*
X136025038Y-74644104D01*
X135756892Y-74712951D01*
X135756889Y-74712952D01*
X135476117Y-74824117D01*
X135476109Y-74824121D01*
X135211476Y-74969604D01*
X135211471Y-74969607D01*
X134986565Y-75133010D01*
X134986564Y-75133011D01*
X135917262Y-76063709D01*
X135783398Y-76160967D01*
X135660967Y-76283398D01*
X135563709Y-76417262D01*
X134635311Y-75488864D01*
X134554520Y-75586525D01*
X134554518Y-75586528D01*
X134392707Y-75841502D01*
X134392704Y-75841508D01*
X134264127Y-76114747D01*
X134264125Y-76114752D01*
X134170805Y-76401959D01*
X134114216Y-76698609D01*
X134114215Y-76698616D01*
X134095255Y-76999994D01*
X134095255Y-77000005D01*
X134114215Y-77301383D01*
X134114216Y-77301390D01*
X134170805Y-77598040D01*
X134264125Y-77885247D01*
X134264127Y-77885252D01*
X134392704Y-78158491D01*
X134392707Y-78158497D01*
X134554516Y-78413469D01*
X134635311Y-78511133D01*
X135563708Y-77582736D01*
X135660967Y-77716602D01*
X135783398Y-77839033D01*
X135917262Y-77936290D01*
X134986564Y-78866987D01*
X134986565Y-78866989D01*
X135211461Y-79030385D01*
X135211479Y-79030397D01*
X135476109Y-79175878D01*
X135476117Y-79175882D01*
X135756889Y-79287047D01*
X135756892Y-79287048D01*
X136049399Y-79362150D01*
X136348995Y-79399999D01*
X136349007Y-79400000D01*
X136650993Y-79400000D01*
X136651004Y-79399999D01*
X136950600Y-79362150D01*
X137243107Y-79287048D01*
X137243110Y-79287047D01*
X137523882Y-79175882D01*
X137523890Y-79175878D01*
X137788520Y-79030397D01*
X137788530Y-79030390D01*
X138013433Y-78866987D01*
X138013434Y-78866987D01*
X137082737Y-77936290D01*
X137216602Y-77839033D01*
X137339033Y-77716602D01*
X137436290Y-77582737D01*
X138364687Y-78511134D01*
X138445486Y-78413464D01*
X138607292Y-78158497D01*
X138607295Y-78158491D01*
X138735872Y-77885252D01*
X138735874Y-77885247D01*
X138829194Y-77598040D01*
X138885783Y-77301390D01*
X138885784Y-77301383D01*
X138904745Y-77000005D01*
X138904745Y-76999994D01*
X138885784Y-76698616D01*
X138885783Y-76698609D01*
X138829194Y-76401959D01*
X138735874Y-76114752D01*
X138735872Y-76114747D01*
X138607295Y-75841508D01*
X138607292Y-75841502D01*
X138445483Y-75586530D01*
X138364686Y-75488864D01*
X137436289Y-76417261D01*
X137339033Y-76283398D01*
X137216602Y-76160967D01*
X137082736Y-76063709D01*
X138013434Y-75133011D01*
X138013433Y-75133009D01*
X137788538Y-74969614D01*
X137788520Y-74969602D01*
X137523890Y-74824121D01*
X137523882Y-74824117D01*
X137243110Y-74712952D01*
X137243107Y-74712951D01*
X136974962Y-74644104D01*
X136914924Y-74608366D01*
X136883738Y-74545842D01*
X136891306Y-74476384D01*
X136935224Y-74422043D01*
X137001550Y-74400073D01*
X137005799Y-74400000D01*
X140126000Y-74400000D01*
X140193039Y-74419685D01*
X140238794Y-74472489D01*
X140250000Y-74524000D01*
X140250000Y-82276000D01*
X140230315Y-82343039D01*
X140177511Y-82388794D01*
X140126000Y-82400000D01*
X110974500Y-82400000D01*
X110907461Y-82380315D01*
X110861706Y-82327511D01*
X110850500Y-82276000D01*
X110850500Y-78982412D01*
X110870185Y-78915373D01*
X110877555Y-78905097D01*
X110879810Y-78902267D01*
X110879816Y-78902262D01*
X110975789Y-78749522D01*
X111035368Y-78579255D01*
X111035369Y-78579249D01*
X111055565Y-78400003D01*
X111055565Y-78399996D01*
X111035369Y-78220750D01*
X111035368Y-78220745D01*
X110993117Y-78100000D01*
X110975789Y-78050478D01*
X110879816Y-77897738D01*
X110752262Y-77770184D01*
X110666987Y-77716602D01*
X110599523Y-77674211D01*
X110429254Y-77614631D01*
X110429249Y-77614630D01*
X110250004Y-77594435D01*
X110249996Y-77594435D01*
X110070750Y-77614630D01*
X110070737Y-77614633D01*
X109893906Y-77676510D01*
X109893155Y-77674364D01*
X109834856Y-77683962D01*
X109806409Y-77675609D01*
X109806094Y-77676510D01*
X109629262Y-77614633D01*
X109629249Y-77614630D01*
X109450004Y-77594435D01*
X109449996Y-77594435D01*
X109270750Y-77614630D01*
X109270737Y-77614633D01*
X109100479Y-77674209D01*
X109015971Y-77727309D01*
X108948734Y-77746309D01*
X108884029Y-77727309D01*
X108799520Y-77674209D01*
X108629262Y-77614633D01*
X108629249Y-77614630D01*
X108450004Y-77594435D01*
X108449996Y-77594435D01*
X108270750Y-77614630D01*
X108270737Y-77614633D01*
X108100479Y-77674209D01*
X108015971Y-77727309D01*
X107948734Y-77746309D01*
X107884029Y-77727309D01*
X107799520Y-77674209D01*
X107629262Y-77614633D01*
X107629249Y-77614630D01*
X107450004Y-77594435D01*
X107449996Y-77594435D01*
X107270750Y-77614630D01*
X107270737Y-77614633D01*
X107100479Y-77674209D01*
X107015971Y-77727309D01*
X106948734Y-77746309D01*
X106884029Y-77727309D01*
X106799520Y-77674209D01*
X106629262Y-77614633D01*
X106629249Y-77614630D01*
X106450004Y-77594435D01*
X106449996Y-77594435D01*
X106270750Y-77614630D01*
X106270745Y-77614631D01*
X106100476Y-77674211D01*
X105947737Y-77770184D01*
X105820184Y-77897737D01*
X105724211Y-78050476D01*
X105664631Y-78220745D01*
X105664630Y-78220750D01*
X105644435Y-78399996D01*
X105644435Y-78400003D01*
X105664630Y-78579249D01*
X105664631Y-78579254D01*
X105724211Y-78749523D01*
X105784515Y-78845496D01*
X105798020Y-78866989D01*
X105820185Y-78902263D01*
X105822445Y-78905097D01*
X105823334Y-78907275D01*
X105823889Y-78908158D01*
X105823734Y-78908255D01*
X105848855Y-78969783D01*
X105849500Y-78982412D01*
X105849500Y-80499903D01*
X105829815Y-80566942D01*
X105813181Y-80587584D01*
X104037084Y-82363681D01*
X103975761Y-82397166D01*
X103949403Y-82400000D01*
X86374000Y-82400000D01*
X86306961Y-82380315D01*
X86261206Y-82327511D01*
X86250000Y-82276000D01*
X86250000Y-74524000D01*
X86269685Y-74456961D01*
X86322489Y-74411206D01*
X86374000Y-74400000D01*
X89494201Y-74400000D01*
X89561240Y-74419685D01*
G37*
%TD.AperFunction*%
%TD*%
M02*
