M48
; DRILL file {KiCad 8.0.6-1.fc40} date 2025-02-15T18:16:17+0100
; FORMAT={-:-/ absolute / inch / decimal}
; #@! TF.CreationDate,2025-02-15T18:16:17+01:00
; #@! TF.GenerationSoftware,Kicad,Pcbnew,8.0.6-1.fc40
; #@! TF.FileFunction,Plated,1,2,PTH
FMAT,2
INCH
; #@! TA.AperFunction,Plated,PTH,ViaDrill
T1C0.0118
%
G90
G05
T1
X4.6949Y-3.1004
X4.6949Y-3.1299
X4.6949Y-3.1594
X5.0787Y-2.8937
X5.0787Y-3.4055
X5.2559Y-3.3661
X5.2559Y-3.4449
X5.3839Y-3.3661
X5.4331Y-3.4449
X5.5118Y-3.3465
X5.5118Y-3.4646
X5.6496Y-3.3465
X5.6496Y-3.4547
X5.7874Y-3.2087
X5.8465Y-3.2087
X5.8563Y-3.0217
X5.8858Y-3.2087
X5.9449Y-3.0118
X5.9449Y-3.0512
X5.9685Y-3.189
X5.9843Y-3.2677
X6.0433Y-3.0118
X6.0827Y-3.2087
X6.1024Y-2.9921
X6.1024Y-3.3268
X6.1614Y-2.9724
X6.2008Y-3.2874
X6.2077Y-3.5039
X6.2274Y-2.7825
M30
