%TF.GenerationSoftware,KiCad,Pcbnew,8.0.6-1.fc40*%
%TF.CreationDate,2025-02-15T18:16:13+01:00*%
%TF.ProjectId,airMouse-mouse,6169724d-6f75-4736-952d-6d6f7573652e,RC1*%
%TF.SameCoordinates,Original*%
%TF.FileFunction,Paste,Top*%
%TF.FilePolarity,Positive*%
%FSLAX46Y46*%
G04 Gerber Fmt 4.6, Leading zero omitted, Abs format (unit mm)*
G04 Created by KiCad (PCBNEW 8.0.6-1.fc40) date 2025-02-15 18:16:13*
%MOMM*%
%LPD*%
G01*
G04 APERTURE LIST*
G04 Aperture macros list*
%AMRoundRect*
0 Rectangle with rounded corners*
0 $1 Rounding radius*
0 $2 $3 $4 $5 $6 $7 $8 $9 X,Y pos of 4 corners*
0 Add a 4 corners polygon primitive as box body*
4,1,4,$2,$3,$4,$5,$6,$7,$8,$9,$2,$3,0*
0 Add four circle primitives for the rounded corners*
1,1,$1+$1,$2,$3*
1,1,$1+$1,$4,$5*
1,1,$1+$1,$6,$7*
1,1,$1+$1,$8,$9*
0 Add four rect primitives between the rounded corners*
20,1,$1+$1,$2,$3,$4,$5,0*
20,1,$1+$1,$4,$5,$6,$7,0*
20,1,$1+$1,$6,$7,$8,$9,0*
20,1,$1+$1,$8,$9,$2,$3,0*%
G04 Aperture macros list end*
%ADD10RoundRect,0.200000X-0.275000X0.200000X-0.275000X-0.200000X0.275000X-0.200000X0.275000X0.200000X0*%
%ADD11R,1.200000X1.200000*%
%ADD12RoundRect,0.200000X0.275000X-0.200000X0.275000X0.200000X-0.275000X0.200000X-0.275000X-0.200000X0*%
%ADD13R,1.800000X0.600000*%
%ADD14R,3.000000X2.500000*%
G04 APERTURE END LIST*
D10*
%TO.C,R6*%
X153500000Y-72350000D03*
X153500000Y-74000000D03*
%TD*%
D11*
%TO.C,SW5*%
X131750000Y-84775000D03*
X131750000Y-89225000D03*
X135250000Y-84775000D03*
X135250000Y-89225000D03*
%TD*%
D10*
%TO.C,R8*%
X156500000Y-72350000D03*
X156500000Y-74000000D03*
%TD*%
D12*
%TO.C,R1*%
X156500000Y-87825000D03*
X156500000Y-86175000D03*
%TD*%
D11*
%TO.C,SW3*%
X145250000Y-70775000D03*
X145250000Y-75225000D03*
X148750000Y-70775000D03*
X148750000Y-75225000D03*
%TD*%
D12*
%TO.C,R4*%
X152000000Y-87825000D03*
X152000000Y-86175000D03*
%TD*%
D10*
%TO.C,R5*%
X152000000Y-72350000D03*
X152000000Y-74000000D03*
%TD*%
D12*
%TO.C,R3*%
X153500000Y-87825000D03*
X153500000Y-86175000D03*
%TD*%
D11*
%TO.C,SW2*%
X131750000Y-77775000D03*
X131750000Y-82225000D03*
X135250000Y-77775000D03*
X135250000Y-82225000D03*
%TD*%
%TO.C,SW6*%
X145250000Y-84775000D03*
X145250000Y-89225000D03*
X148750000Y-84775000D03*
X148750000Y-89225000D03*
%TD*%
%TO.C,SW1*%
X118250000Y-70775000D03*
X118250000Y-75225000D03*
X121750000Y-70775000D03*
X121750000Y-75225000D03*
%TD*%
D13*
%TO.C,J1*%
X159212500Y-84500000D03*
X159212500Y-83500000D03*
X159212500Y-82500000D03*
X159212500Y-81500000D03*
X159212500Y-80500000D03*
X159212500Y-79500000D03*
X159212500Y-78500000D03*
X159212500Y-77500000D03*
X159212500Y-76500000D03*
X159212500Y-75500000D03*
D14*
X161812500Y-87000000D03*
X161812500Y-73000000D03*
%TD*%
D11*
%TO.C,SW4*%
X131750000Y-70775000D03*
X131750000Y-75225000D03*
X135250000Y-70775000D03*
X135250000Y-75225000D03*
%TD*%
D12*
%TO.C,R2*%
X155000000Y-87825000D03*
X155000000Y-86175000D03*
%TD*%
D11*
%TO.C,SW7*%
X138250000Y-84775000D03*
X138250000Y-89225000D03*
X141750000Y-84775000D03*
X141750000Y-89225000D03*
%TD*%
%TO.C,SW8*%
X118250000Y-84775000D03*
X118250000Y-89225000D03*
X121750000Y-84775000D03*
X121750000Y-89225000D03*
%TD*%
D10*
%TO.C,R7*%
X155000000Y-72350000D03*
X155000000Y-74000000D03*
%TD*%
M02*
