%TF.GenerationSoftware,KiCad,Pcbnew,8.0.6-1.fc40*%
%TF.CreationDate,2025-02-15T18:16:14+01:00*%
%TF.ProjectId,airMouse-mouse,6169724d-6f75-4736-952d-6d6f7573652e,RC1*%
%TF.SameCoordinates,Original*%
%TF.FileFunction,Legend,Top*%
%TF.FilePolarity,Positive*%
%FSLAX46Y46*%
G04 Gerber Fmt 4.6, Leading zero omitted, Abs format (unit mm)*
G04 Created by KiCad (PCBNEW 8.0.6-1.fc40) date 2025-02-15 18:16:14*
%MOMM*%
%LPD*%
G01*
G04 APERTURE LIST*
%ADD10C,0.150000*%
%ADD11C,0.080000*%
%ADD12C,0.100000*%
%ADD13C,0.120000*%
G04 APERTURE END LIST*
D10*
X153954819Y-70841666D02*
X153478628Y-71174999D01*
X153954819Y-71413094D02*
X152954819Y-71413094D01*
X152954819Y-71413094D02*
X152954819Y-71032142D01*
X152954819Y-71032142D02*
X153002438Y-70936904D01*
X153002438Y-70936904D02*
X153050057Y-70889285D01*
X153050057Y-70889285D02*
X153145295Y-70841666D01*
X153145295Y-70841666D02*
X153288152Y-70841666D01*
X153288152Y-70841666D02*
X153383390Y-70889285D01*
X153383390Y-70889285D02*
X153431009Y-70936904D01*
X153431009Y-70936904D02*
X153478628Y-71032142D01*
X153478628Y-71032142D02*
X153478628Y-71413094D01*
X152954819Y-69984523D02*
X152954819Y-70174999D01*
X152954819Y-70174999D02*
X153002438Y-70270237D01*
X153002438Y-70270237D02*
X153050057Y-70317856D01*
X153050057Y-70317856D02*
X153192914Y-70413094D01*
X153192914Y-70413094D02*
X153383390Y-70460713D01*
X153383390Y-70460713D02*
X153764342Y-70460713D01*
X153764342Y-70460713D02*
X153859580Y-70413094D01*
X153859580Y-70413094D02*
X153907200Y-70365475D01*
X153907200Y-70365475D02*
X153954819Y-70270237D01*
X153954819Y-70270237D02*
X153954819Y-70079761D01*
X153954819Y-70079761D02*
X153907200Y-69984523D01*
X153907200Y-69984523D02*
X153859580Y-69936904D01*
X153859580Y-69936904D02*
X153764342Y-69889285D01*
X153764342Y-69889285D02*
X153526247Y-69889285D01*
X153526247Y-69889285D02*
X153431009Y-69936904D01*
X153431009Y-69936904D02*
X153383390Y-69984523D01*
X153383390Y-69984523D02*
X153335771Y-70079761D01*
X153335771Y-70079761D02*
X153335771Y-70270237D01*
X153335771Y-70270237D02*
X153383390Y-70365475D01*
X153383390Y-70365475D02*
X153431009Y-70413094D01*
X153431009Y-70413094D02*
X153526247Y-70460713D01*
D11*
X132833334Y-87203340D02*
X132904762Y-87227149D01*
X132904762Y-87227149D02*
X133023810Y-87227149D01*
X133023810Y-87227149D02*
X133071429Y-87203340D01*
X133071429Y-87203340D02*
X133095238Y-87179530D01*
X133095238Y-87179530D02*
X133119048Y-87131911D01*
X133119048Y-87131911D02*
X133119048Y-87084292D01*
X133119048Y-87084292D02*
X133095238Y-87036673D01*
X133095238Y-87036673D02*
X133071429Y-87012863D01*
X133071429Y-87012863D02*
X133023810Y-86989054D01*
X133023810Y-86989054D02*
X132928572Y-86965244D01*
X132928572Y-86965244D02*
X132880953Y-86941435D01*
X132880953Y-86941435D02*
X132857143Y-86917625D01*
X132857143Y-86917625D02*
X132833334Y-86870006D01*
X132833334Y-86870006D02*
X132833334Y-86822387D01*
X132833334Y-86822387D02*
X132857143Y-86774768D01*
X132857143Y-86774768D02*
X132880953Y-86750959D01*
X132880953Y-86750959D02*
X132928572Y-86727149D01*
X132928572Y-86727149D02*
X133047619Y-86727149D01*
X133047619Y-86727149D02*
X133119048Y-86750959D01*
X133285714Y-86727149D02*
X133404762Y-87227149D01*
X133404762Y-87227149D02*
X133500000Y-86870006D01*
X133500000Y-86870006D02*
X133595238Y-87227149D01*
X133595238Y-87227149D02*
X133714286Y-86727149D01*
X134142857Y-86727149D02*
X133904762Y-86727149D01*
X133904762Y-86727149D02*
X133880953Y-86965244D01*
X133880953Y-86965244D02*
X133904762Y-86941435D01*
X133904762Y-86941435D02*
X133952381Y-86917625D01*
X133952381Y-86917625D02*
X134071429Y-86917625D01*
X134071429Y-86917625D02*
X134119048Y-86941435D01*
X134119048Y-86941435D02*
X134142857Y-86965244D01*
X134142857Y-86965244D02*
X134166667Y-87012863D01*
X134166667Y-87012863D02*
X134166667Y-87131911D01*
X134166667Y-87131911D02*
X134142857Y-87179530D01*
X134142857Y-87179530D02*
X134119048Y-87203340D01*
X134119048Y-87203340D02*
X134071429Y-87227149D01*
X134071429Y-87227149D02*
X133952381Y-87227149D01*
X133952381Y-87227149D02*
X133904762Y-87203340D01*
X133904762Y-87203340D02*
X133880953Y-87179530D01*
X133671678Y-83684649D02*
X133671678Y-83184649D01*
X133671678Y-83184649D02*
X133790726Y-83184649D01*
X133790726Y-83184649D02*
X133862154Y-83208459D01*
X133862154Y-83208459D02*
X133909773Y-83256078D01*
X133909773Y-83256078D02*
X133933583Y-83303697D01*
X133933583Y-83303697D02*
X133957392Y-83398935D01*
X133957392Y-83398935D02*
X133957392Y-83470363D01*
X133957392Y-83470363D02*
X133933583Y-83565601D01*
X133933583Y-83565601D02*
X133909773Y-83613220D01*
X133909773Y-83613220D02*
X133862154Y-83660840D01*
X133862154Y-83660840D02*
X133790726Y-83684649D01*
X133790726Y-83684649D02*
X133671678Y-83684649D01*
X134171678Y-83684649D02*
X134171678Y-83184649D01*
X134171678Y-83184649D02*
X134457392Y-83684649D01*
X134457392Y-83684649D02*
X134457392Y-83184649D01*
D10*
X156954819Y-70841666D02*
X156478628Y-71174999D01*
X156954819Y-71413094D02*
X155954819Y-71413094D01*
X155954819Y-71413094D02*
X155954819Y-71032142D01*
X155954819Y-71032142D02*
X156002438Y-70936904D01*
X156002438Y-70936904D02*
X156050057Y-70889285D01*
X156050057Y-70889285D02*
X156145295Y-70841666D01*
X156145295Y-70841666D02*
X156288152Y-70841666D01*
X156288152Y-70841666D02*
X156383390Y-70889285D01*
X156383390Y-70889285D02*
X156431009Y-70936904D01*
X156431009Y-70936904D02*
X156478628Y-71032142D01*
X156478628Y-71032142D02*
X156478628Y-71413094D01*
X156383390Y-70270237D02*
X156335771Y-70365475D01*
X156335771Y-70365475D02*
X156288152Y-70413094D01*
X156288152Y-70413094D02*
X156192914Y-70460713D01*
X156192914Y-70460713D02*
X156145295Y-70460713D01*
X156145295Y-70460713D02*
X156050057Y-70413094D01*
X156050057Y-70413094D02*
X156002438Y-70365475D01*
X156002438Y-70365475D02*
X155954819Y-70270237D01*
X155954819Y-70270237D02*
X155954819Y-70079761D01*
X155954819Y-70079761D02*
X156002438Y-69984523D01*
X156002438Y-69984523D02*
X156050057Y-69936904D01*
X156050057Y-69936904D02*
X156145295Y-69889285D01*
X156145295Y-69889285D02*
X156192914Y-69889285D01*
X156192914Y-69889285D02*
X156288152Y-69936904D01*
X156288152Y-69936904D02*
X156335771Y-69984523D01*
X156335771Y-69984523D02*
X156383390Y-70079761D01*
X156383390Y-70079761D02*
X156383390Y-70270237D01*
X156383390Y-70270237D02*
X156431009Y-70365475D01*
X156431009Y-70365475D02*
X156478628Y-70413094D01*
X156478628Y-70413094D02*
X156573866Y-70460713D01*
X156573866Y-70460713D02*
X156764342Y-70460713D01*
X156764342Y-70460713D02*
X156859580Y-70413094D01*
X156859580Y-70413094D02*
X156907200Y-70365475D01*
X156907200Y-70365475D02*
X156954819Y-70270237D01*
X156954819Y-70270237D02*
X156954819Y-70079761D01*
X156954819Y-70079761D02*
X156907200Y-69984523D01*
X156907200Y-69984523D02*
X156859580Y-69936904D01*
X156859580Y-69936904D02*
X156764342Y-69889285D01*
X156764342Y-69889285D02*
X156573866Y-69889285D01*
X156573866Y-69889285D02*
X156478628Y-69936904D01*
X156478628Y-69936904D02*
X156431009Y-69984523D01*
X156431009Y-69984523D02*
X156383390Y-70079761D01*
X156954819Y-89666666D02*
X156478628Y-89999999D01*
X156954819Y-90238094D02*
X155954819Y-90238094D01*
X155954819Y-90238094D02*
X155954819Y-89857142D01*
X155954819Y-89857142D02*
X156002438Y-89761904D01*
X156002438Y-89761904D02*
X156050057Y-89714285D01*
X156050057Y-89714285D02*
X156145295Y-89666666D01*
X156145295Y-89666666D02*
X156288152Y-89666666D01*
X156288152Y-89666666D02*
X156383390Y-89714285D01*
X156383390Y-89714285D02*
X156431009Y-89761904D01*
X156431009Y-89761904D02*
X156478628Y-89857142D01*
X156478628Y-89857142D02*
X156478628Y-90238094D01*
X156954819Y-88714285D02*
X156954819Y-89285713D01*
X156954819Y-88999999D02*
X155954819Y-88999999D01*
X155954819Y-88999999D02*
X156097676Y-89095237D01*
X156097676Y-89095237D02*
X156192914Y-89190475D01*
X156192914Y-89190475D02*
X156240533Y-89285713D01*
D11*
X146333334Y-73203340D02*
X146404762Y-73227149D01*
X146404762Y-73227149D02*
X146523810Y-73227149D01*
X146523810Y-73227149D02*
X146571429Y-73203340D01*
X146571429Y-73203340D02*
X146595238Y-73179530D01*
X146595238Y-73179530D02*
X146619048Y-73131911D01*
X146619048Y-73131911D02*
X146619048Y-73084292D01*
X146619048Y-73084292D02*
X146595238Y-73036673D01*
X146595238Y-73036673D02*
X146571429Y-73012863D01*
X146571429Y-73012863D02*
X146523810Y-72989054D01*
X146523810Y-72989054D02*
X146428572Y-72965244D01*
X146428572Y-72965244D02*
X146380953Y-72941435D01*
X146380953Y-72941435D02*
X146357143Y-72917625D01*
X146357143Y-72917625D02*
X146333334Y-72870006D01*
X146333334Y-72870006D02*
X146333334Y-72822387D01*
X146333334Y-72822387D02*
X146357143Y-72774768D01*
X146357143Y-72774768D02*
X146380953Y-72750959D01*
X146380953Y-72750959D02*
X146428572Y-72727149D01*
X146428572Y-72727149D02*
X146547619Y-72727149D01*
X146547619Y-72727149D02*
X146619048Y-72750959D01*
X146785714Y-72727149D02*
X146904762Y-73227149D01*
X146904762Y-73227149D02*
X147000000Y-72870006D01*
X147000000Y-72870006D02*
X147095238Y-73227149D01*
X147095238Y-73227149D02*
X147214286Y-72727149D01*
X147357143Y-72727149D02*
X147666667Y-72727149D01*
X147666667Y-72727149D02*
X147500000Y-72917625D01*
X147500000Y-72917625D02*
X147571429Y-72917625D01*
X147571429Y-72917625D02*
X147619048Y-72941435D01*
X147619048Y-72941435D02*
X147642857Y-72965244D01*
X147642857Y-72965244D02*
X147666667Y-73012863D01*
X147666667Y-73012863D02*
X147666667Y-73131911D01*
X147666667Y-73131911D02*
X147642857Y-73179530D01*
X147642857Y-73179530D02*
X147619048Y-73203340D01*
X147619048Y-73203340D02*
X147571429Y-73227149D01*
X147571429Y-73227149D02*
X147428572Y-73227149D01*
X147428572Y-73227149D02*
X147380953Y-73203340D01*
X147380953Y-73203340D02*
X147357143Y-73179530D01*
X147457392Y-69684649D02*
X147290726Y-69446554D01*
X147171678Y-69684649D02*
X147171678Y-69184649D01*
X147171678Y-69184649D02*
X147362154Y-69184649D01*
X147362154Y-69184649D02*
X147409773Y-69208459D01*
X147409773Y-69208459D02*
X147433583Y-69232268D01*
X147433583Y-69232268D02*
X147457392Y-69279887D01*
X147457392Y-69279887D02*
X147457392Y-69351316D01*
X147457392Y-69351316D02*
X147433583Y-69398935D01*
X147433583Y-69398935D02*
X147409773Y-69422744D01*
X147409773Y-69422744D02*
X147362154Y-69446554D01*
X147362154Y-69446554D02*
X147171678Y-69446554D01*
X147838345Y-69422744D02*
X147909773Y-69446554D01*
X147909773Y-69446554D02*
X147933583Y-69470363D01*
X147933583Y-69470363D02*
X147957392Y-69517982D01*
X147957392Y-69517982D02*
X147957392Y-69589411D01*
X147957392Y-69589411D02*
X147933583Y-69637030D01*
X147933583Y-69637030D02*
X147909773Y-69660840D01*
X147909773Y-69660840D02*
X147862154Y-69684649D01*
X147862154Y-69684649D02*
X147671678Y-69684649D01*
X147671678Y-69684649D02*
X147671678Y-69184649D01*
X147671678Y-69184649D02*
X147838345Y-69184649D01*
X147838345Y-69184649D02*
X147885964Y-69208459D01*
X147885964Y-69208459D02*
X147909773Y-69232268D01*
X147909773Y-69232268D02*
X147933583Y-69279887D01*
X147933583Y-69279887D02*
X147933583Y-69327506D01*
X147933583Y-69327506D02*
X147909773Y-69375125D01*
X147909773Y-69375125D02*
X147885964Y-69398935D01*
X147885964Y-69398935D02*
X147838345Y-69422744D01*
X147838345Y-69422744D02*
X147671678Y-69422744D01*
D10*
X152454819Y-89666666D02*
X151978628Y-89999999D01*
X152454819Y-90238094D02*
X151454819Y-90238094D01*
X151454819Y-90238094D02*
X151454819Y-89857142D01*
X151454819Y-89857142D02*
X151502438Y-89761904D01*
X151502438Y-89761904D02*
X151550057Y-89714285D01*
X151550057Y-89714285D02*
X151645295Y-89666666D01*
X151645295Y-89666666D02*
X151788152Y-89666666D01*
X151788152Y-89666666D02*
X151883390Y-89714285D01*
X151883390Y-89714285D02*
X151931009Y-89761904D01*
X151931009Y-89761904D02*
X151978628Y-89857142D01*
X151978628Y-89857142D02*
X151978628Y-90238094D01*
X151788152Y-88809523D02*
X152454819Y-88809523D01*
X151407200Y-89047618D02*
X152121485Y-89285713D01*
X152121485Y-89285713D02*
X152121485Y-88666666D01*
X152454819Y-70841666D02*
X151978628Y-71174999D01*
X152454819Y-71413094D02*
X151454819Y-71413094D01*
X151454819Y-71413094D02*
X151454819Y-71032142D01*
X151454819Y-71032142D02*
X151502438Y-70936904D01*
X151502438Y-70936904D02*
X151550057Y-70889285D01*
X151550057Y-70889285D02*
X151645295Y-70841666D01*
X151645295Y-70841666D02*
X151788152Y-70841666D01*
X151788152Y-70841666D02*
X151883390Y-70889285D01*
X151883390Y-70889285D02*
X151931009Y-70936904D01*
X151931009Y-70936904D02*
X151978628Y-71032142D01*
X151978628Y-71032142D02*
X151978628Y-71413094D01*
X151454819Y-69936904D02*
X151454819Y-70413094D01*
X151454819Y-70413094D02*
X151931009Y-70460713D01*
X151931009Y-70460713D02*
X151883390Y-70413094D01*
X151883390Y-70413094D02*
X151835771Y-70317856D01*
X151835771Y-70317856D02*
X151835771Y-70079761D01*
X151835771Y-70079761D02*
X151883390Y-69984523D01*
X151883390Y-69984523D02*
X151931009Y-69936904D01*
X151931009Y-69936904D02*
X152026247Y-69889285D01*
X152026247Y-69889285D02*
X152264342Y-69889285D01*
X152264342Y-69889285D02*
X152359580Y-69936904D01*
X152359580Y-69936904D02*
X152407200Y-69984523D01*
X152407200Y-69984523D02*
X152454819Y-70079761D01*
X152454819Y-70079761D02*
X152454819Y-70317856D01*
X152454819Y-70317856D02*
X152407200Y-70413094D01*
X152407200Y-70413094D02*
X152359580Y-70460713D01*
X153954819Y-89666666D02*
X153478628Y-89999999D01*
X153954819Y-90238094D02*
X152954819Y-90238094D01*
X152954819Y-90238094D02*
X152954819Y-89857142D01*
X152954819Y-89857142D02*
X153002438Y-89761904D01*
X153002438Y-89761904D02*
X153050057Y-89714285D01*
X153050057Y-89714285D02*
X153145295Y-89666666D01*
X153145295Y-89666666D02*
X153288152Y-89666666D01*
X153288152Y-89666666D02*
X153383390Y-89714285D01*
X153383390Y-89714285D02*
X153431009Y-89761904D01*
X153431009Y-89761904D02*
X153478628Y-89857142D01*
X153478628Y-89857142D02*
X153478628Y-90238094D01*
X152954819Y-89333332D02*
X152954819Y-88714285D01*
X152954819Y-88714285D02*
X153335771Y-89047618D01*
X153335771Y-89047618D02*
X153335771Y-88904761D01*
X153335771Y-88904761D02*
X153383390Y-88809523D01*
X153383390Y-88809523D02*
X153431009Y-88761904D01*
X153431009Y-88761904D02*
X153526247Y-88714285D01*
X153526247Y-88714285D02*
X153764342Y-88714285D01*
X153764342Y-88714285D02*
X153859580Y-88761904D01*
X153859580Y-88761904D02*
X153907200Y-88809523D01*
X153907200Y-88809523D02*
X153954819Y-88904761D01*
X153954819Y-88904761D02*
X153954819Y-89190475D01*
X153954819Y-89190475D02*
X153907200Y-89285713D01*
X153907200Y-89285713D02*
X153859580Y-89333332D01*
D11*
X132833334Y-80203340D02*
X132904762Y-80227149D01*
X132904762Y-80227149D02*
X133023810Y-80227149D01*
X133023810Y-80227149D02*
X133071429Y-80203340D01*
X133071429Y-80203340D02*
X133095238Y-80179530D01*
X133095238Y-80179530D02*
X133119048Y-80131911D01*
X133119048Y-80131911D02*
X133119048Y-80084292D01*
X133119048Y-80084292D02*
X133095238Y-80036673D01*
X133095238Y-80036673D02*
X133071429Y-80012863D01*
X133071429Y-80012863D02*
X133023810Y-79989054D01*
X133023810Y-79989054D02*
X132928572Y-79965244D01*
X132928572Y-79965244D02*
X132880953Y-79941435D01*
X132880953Y-79941435D02*
X132857143Y-79917625D01*
X132857143Y-79917625D02*
X132833334Y-79870006D01*
X132833334Y-79870006D02*
X132833334Y-79822387D01*
X132833334Y-79822387D02*
X132857143Y-79774768D01*
X132857143Y-79774768D02*
X132880953Y-79750959D01*
X132880953Y-79750959D02*
X132928572Y-79727149D01*
X132928572Y-79727149D02*
X133047619Y-79727149D01*
X133047619Y-79727149D02*
X133119048Y-79750959D01*
X133285714Y-79727149D02*
X133404762Y-80227149D01*
X133404762Y-80227149D02*
X133500000Y-79870006D01*
X133500000Y-79870006D02*
X133595238Y-80227149D01*
X133595238Y-80227149D02*
X133714286Y-79727149D01*
X133880953Y-79774768D02*
X133904762Y-79750959D01*
X133904762Y-79750959D02*
X133952381Y-79727149D01*
X133952381Y-79727149D02*
X134071429Y-79727149D01*
X134071429Y-79727149D02*
X134119048Y-79750959D01*
X134119048Y-79750959D02*
X134142857Y-79774768D01*
X134142857Y-79774768D02*
X134166667Y-79822387D01*
X134166667Y-79822387D02*
X134166667Y-79870006D01*
X134166667Y-79870006D02*
X134142857Y-79941435D01*
X134142857Y-79941435D02*
X133857143Y-80227149D01*
X133857143Y-80227149D02*
X134166667Y-80227149D01*
X133671678Y-76684649D02*
X133671678Y-76184649D01*
X133671678Y-76184649D02*
X133838345Y-76541792D01*
X133838345Y-76541792D02*
X134005011Y-76184649D01*
X134005011Y-76184649D02*
X134005011Y-76684649D01*
X134409774Y-76422744D02*
X134481202Y-76446554D01*
X134481202Y-76446554D02*
X134505012Y-76470363D01*
X134505012Y-76470363D02*
X134528821Y-76517982D01*
X134528821Y-76517982D02*
X134528821Y-76589411D01*
X134528821Y-76589411D02*
X134505012Y-76637030D01*
X134505012Y-76637030D02*
X134481202Y-76660840D01*
X134481202Y-76660840D02*
X134433583Y-76684649D01*
X134433583Y-76684649D02*
X134243107Y-76684649D01*
X134243107Y-76684649D02*
X134243107Y-76184649D01*
X134243107Y-76184649D02*
X134409774Y-76184649D01*
X134409774Y-76184649D02*
X134457393Y-76208459D01*
X134457393Y-76208459D02*
X134481202Y-76232268D01*
X134481202Y-76232268D02*
X134505012Y-76279887D01*
X134505012Y-76279887D02*
X134505012Y-76327506D01*
X134505012Y-76327506D02*
X134481202Y-76375125D01*
X134481202Y-76375125D02*
X134457393Y-76398935D01*
X134457393Y-76398935D02*
X134409774Y-76422744D01*
X134409774Y-76422744D02*
X134243107Y-76422744D01*
X146333334Y-87203340D02*
X146404762Y-87227149D01*
X146404762Y-87227149D02*
X146523810Y-87227149D01*
X146523810Y-87227149D02*
X146571429Y-87203340D01*
X146571429Y-87203340D02*
X146595238Y-87179530D01*
X146595238Y-87179530D02*
X146619048Y-87131911D01*
X146619048Y-87131911D02*
X146619048Y-87084292D01*
X146619048Y-87084292D02*
X146595238Y-87036673D01*
X146595238Y-87036673D02*
X146571429Y-87012863D01*
X146571429Y-87012863D02*
X146523810Y-86989054D01*
X146523810Y-86989054D02*
X146428572Y-86965244D01*
X146428572Y-86965244D02*
X146380953Y-86941435D01*
X146380953Y-86941435D02*
X146357143Y-86917625D01*
X146357143Y-86917625D02*
X146333334Y-86870006D01*
X146333334Y-86870006D02*
X146333334Y-86822387D01*
X146333334Y-86822387D02*
X146357143Y-86774768D01*
X146357143Y-86774768D02*
X146380953Y-86750959D01*
X146380953Y-86750959D02*
X146428572Y-86727149D01*
X146428572Y-86727149D02*
X146547619Y-86727149D01*
X146547619Y-86727149D02*
X146619048Y-86750959D01*
X146785714Y-86727149D02*
X146904762Y-87227149D01*
X146904762Y-87227149D02*
X147000000Y-86870006D01*
X147000000Y-86870006D02*
X147095238Y-87227149D01*
X147095238Y-87227149D02*
X147214286Y-86727149D01*
X147619048Y-86727149D02*
X147523810Y-86727149D01*
X147523810Y-86727149D02*
X147476191Y-86750959D01*
X147476191Y-86750959D02*
X147452381Y-86774768D01*
X147452381Y-86774768D02*
X147404762Y-86846197D01*
X147404762Y-86846197D02*
X147380953Y-86941435D01*
X147380953Y-86941435D02*
X147380953Y-87131911D01*
X147380953Y-87131911D02*
X147404762Y-87179530D01*
X147404762Y-87179530D02*
X147428572Y-87203340D01*
X147428572Y-87203340D02*
X147476191Y-87227149D01*
X147476191Y-87227149D02*
X147571429Y-87227149D01*
X147571429Y-87227149D02*
X147619048Y-87203340D01*
X147619048Y-87203340D02*
X147642857Y-87179530D01*
X147642857Y-87179530D02*
X147666667Y-87131911D01*
X147666667Y-87131911D02*
X147666667Y-87012863D01*
X147666667Y-87012863D02*
X147642857Y-86965244D01*
X147642857Y-86965244D02*
X147619048Y-86941435D01*
X147619048Y-86941435D02*
X147571429Y-86917625D01*
X147571429Y-86917625D02*
X147476191Y-86917625D01*
X147476191Y-86917625D02*
X147428572Y-86941435D01*
X147428572Y-86941435D02*
X147404762Y-86965244D01*
X147404762Y-86965244D02*
X147380953Y-87012863D01*
X147171678Y-83684649D02*
X147171678Y-83184649D01*
X147171678Y-83184649D02*
X147290726Y-83184649D01*
X147290726Y-83184649D02*
X147362154Y-83208459D01*
X147362154Y-83208459D02*
X147409773Y-83256078D01*
X147409773Y-83256078D02*
X147433583Y-83303697D01*
X147433583Y-83303697D02*
X147457392Y-83398935D01*
X147457392Y-83398935D02*
X147457392Y-83470363D01*
X147457392Y-83470363D02*
X147433583Y-83565601D01*
X147433583Y-83565601D02*
X147409773Y-83613220D01*
X147409773Y-83613220D02*
X147362154Y-83660840D01*
X147362154Y-83660840D02*
X147290726Y-83684649D01*
X147290726Y-83684649D02*
X147171678Y-83684649D01*
X147671678Y-83684649D02*
X147671678Y-83184649D01*
X147671678Y-83184649D02*
X147862154Y-83184649D01*
X147862154Y-83184649D02*
X147909773Y-83208459D01*
X147909773Y-83208459D02*
X147933583Y-83232268D01*
X147933583Y-83232268D02*
X147957392Y-83279887D01*
X147957392Y-83279887D02*
X147957392Y-83351316D01*
X147957392Y-83351316D02*
X147933583Y-83398935D01*
X147933583Y-83398935D02*
X147909773Y-83422744D01*
X147909773Y-83422744D02*
X147862154Y-83446554D01*
X147862154Y-83446554D02*
X147671678Y-83446554D01*
X148171678Y-83684649D02*
X148171678Y-83184649D01*
X119333334Y-73203340D02*
X119404762Y-73227149D01*
X119404762Y-73227149D02*
X119523810Y-73227149D01*
X119523810Y-73227149D02*
X119571429Y-73203340D01*
X119571429Y-73203340D02*
X119595238Y-73179530D01*
X119595238Y-73179530D02*
X119619048Y-73131911D01*
X119619048Y-73131911D02*
X119619048Y-73084292D01*
X119619048Y-73084292D02*
X119595238Y-73036673D01*
X119595238Y-73036673D02*
X119571429Y-73012863D01*
X119571429Y-73012863D02*
X119523810Y-72989054D01*
X119523810Y-72989054D02*
X119428572Y-72965244D01*
X119428572Y-72965244D02*
X119380953Y-72941435D01*
X119380953Y-72941435D02*
X119357143Y-72917625D01*
X119357143Y-72917625D02*
X119333334Y-72870006D01*
X119333334Y-72870006D02*
X119333334Y-72822387D01*
X119333334Y-72822387D02*
X119357143Y-72774768D01*
X119357143Y-72774768D02*
X119380953Y-72750959D01*
X119380953Y-72750959D02*
X119428572Y-72727149D01*
X119428572Y-72727149D02*
X119547619Y-72727149D01*
X119547619Y-72727149D02*
X119619048Y-72750959D01*
X119785714Y-72727149D02*
X119904762Y-73227149D01*
X119904762Y-73227149D02*
X120000000Y-72870006D01*
X120000000Y-72870006D02*
X120095238Y-73227149D01*
X120095238Y-73227149D02*
X120214286Y-72727149D01*
X120666667Y-73227149D02*
X120380953Y-73227149D01*
X120523810Y-73227149D02*
X120523810Y-72727149D01*
X120523810Y-72727149D02*
X120476191Y-72798578D01*
X120476191Y-72798578D02*
X120428572Y-72846197D01*
X120428572Y-72846197D02*
X120380953Y-72870006D01*
X120409773Y-69684649D02*
X120171678Y-69684649D01*
X120171678Y-69684649D02*
X120171678Y-69184649D01*
X120743107Y-69422744D02*
X120814535Y-69446554D01*
X120814535Y-69446554D02*
X120838345Y-69470363D01*
X120838345Y-69470363D02*
X120862154Y-69517982D01*
X120862154Y-69517982D02*
X120862154Y-69589411D01*
X120862154Y-69589411D02*
X120838345Y-69637030D01*
X120838345Y-69637030D02*
X120814535Y-69660840D01*
X120814535Y-69660840D02*
X120766916Y-69684649D01*
X120766916Y-69684649D02*
X120576440Y-69684649D01*
X120576440Y-69684649D02*
X120576440Y-69184649D01*
X120576440Y-69184649D02*
X120743107Y-69184649D01*
X120743107Y-69184649D02*
X120790726Y-69208459D01*
X120790726Y-69208459D02*
X120814535Y-69232268D01*
X120814535Y-69232268D02*
X120838345Y-69279887D01*
X120838345Y-69279887D02*
X120838345Y-69327506D01*
X120838345Y-69327506D02*
X120814535Y-69375125D01*
X120814535Y-69375125D02*
X120790726Y-69398935D01*
X120790726Y-69398935D02*
X120743107Y-69422744D01*
X120743107Y-69422744D02*
X120576440Y-69422744D01*
D12*
X158457419Y-90333333D02*
X159171704Y-90333333D01*
X159171704Y-90333333D02*
X159314561Y-90380952D01*
X159314561Y-90380952D02*
X159409800Y-90476190D01*
X159409800Y-90476190D02*
X159457419Y-90619047D01*
X159457419Y-90619047D02*
X159457419Y-90714285D01*
X159457419Y-89333333D02*
X159457419Y-89904761D01*
X159457419Y-89619047D02*
X158457419Y-89619047D01*
X158457419Y-89619047D02*
X158600276Y-89714285D01*
X158600276Y-89714285D02*
X158695514Y-89809523D01*
X158695514Y-89809523D02*
X158743133Y-89904761D01*
D11*
X132833334Y-73203340D02*
X132904762Y-73227149D01*
X132904762Y-73227149D02*
X133023810Y-73227149D01*
X133023810Y-73227149D02*
X133071429Y-73203340D01*
X133071429Y-73203340D02*
X133095238Y-73179530D01*
X133095238Y-73179530D02*
X133119048Y-73131911D01*
X133119048Y-73131911D02*
X133119048Y-73084292D01*
X133119048Y-73084292D02*
X133095238Y-73036673D01*
X133095238Y-73036673D02*
X133071429Y-73012863D01*
X133071429Y-73012863D02*
X133023810Y-72989054D01*
X133023810Y-72989054D02*
X132928572Y-72965244D01*
X132928572Y-72965244D02*
X132880953Y-72941435D01*
X132880953Y-72941435D02*
X132857143Y-72917625D01*
X132857143Y-72917625D02*
X132833334Y-72870006D01*
X132833334Y-72870006D02*
X132833334Y-72822387D01*
X132833334Y-72822387D02*
X132857143Y-72774768D01*
X132857143Y-72774768D02*
X132880953Y-72750959D01*
X132880953Y-72750959D02*
X132928572Y-72727149D01*
X132928572Y-72727149D02*
X133047619Y-72727149D01*
X133047619Y-72727149D02*
X133119048Y-72750959D01*
X133285714Y-72727149D02*
X133404762Y-73227149D01*
X133404762Y-73227149D02*
X133500000Y-72870006D01*
X133500000Y-72870006D02*
X133595238Y-73227149D01*
X133595238Y-73227149D02*
X133714286Y-72727149D01*
X134119048Y-72893816D02*
X134119048Y-73227149D01*
X134000000Y-72703340D02*
X133880953Y-73060482D01*
X133880953Y-73060482D02*
X134190476Y-73060482D01*
X133671678Y-69184649D02*
X133671678Y-69589411D01*
X133671678Y-69589411D02*
X133695488Y-69637030D01*
X133695488Y-69637030D02*
X133719297Y-69660840D01*
X133719297Y-69660840D02*
X133766916Y-69684649D01*
X133766916Y-69684649D02*
X133862154Y-69684649D01*
X133862154Y-69684649D02*
X133909773Y-69660840D01*
X133909773Y-69660840D02*
X133933583Y-69637030D01*
X133933583Y-69637030D02*
X133957392Y-69589411D01*
X133957392Y-69589411D02*
X133957392Y-69184649D01*
X134195488Y-69684649D02*
X134195488Y-69184649D01*
X134195488Y-69184649D02*
X134385964Y-69184649D01*
X134385964Y-69184649D02*
X134433583Y-69208459D01*
X134433583Y-69208459D02*
X134457393Y-69232268D01*
X134457393Y-69232268D02*
X134481202Y-69279887D01*
X134481202Y-69279887D02*
X134481202Y-69351316D01*
X134481202Y-69351316D02*
X134457393Y-69398935D01*
X134457393Y-69398935D02*
X134433583Y-69422744D01*
X134433583Y-69422744D02*
X134385964Y-69446554D01*
X134385964Y-69446554D02*
X134195488Y-69446554D01*
D10*
X155454819Y-89666666D02*
X154978628Y-89999999D01*
X155454819Y-90238094D02*
X154454819Y-90238094D01*
X154454819Y-90238094D02*
X154454819Y-89857142D01*
X154454819Y-89857142D02*
X154502438Y-89761904D01*
X154502438Y-89761904D02*
X154550057Y-89714285D01*
X154550057Y-89714285D02*
X154645295Y-89666666D01*
X154645295Y-89666666D02*
X154788152Y-89666666D01*
X154788152Y-89666666D02*
X154883390Y-89714285D01*
X154883390Y-89714285D02*
X154931009Y-89761904D01*
X154931009Y-89761904D02*
X154978628Y-89857142D01*
X154978628Y-89857142D02*
X154978628Y-90238094D01*
X154550057Y-89285713D02*
X154502438Y-89238094D01*
X154502438Y-89238094D02*
X154454819Y-89142856D01*
X154454819Y-89142856D02*
X154454819Y-88904761D01*
X154454819Y-88904761D02*
X154502438Y-88809523D01*
X154502438Y-88809523D02*
X154550057Y-88761904D01*
X154550057Y-88761904D02*
X154645295Y-88714285D01*
X154645295Y-88714285D02*
X154740533Y-88714285D01*
X154740533Y-88714285D02*
X154883390Y-88761904D01*
X154883390Y-88761904D02*
X155454819Y-89333332D01*
X155454819Y-89333332D02*
X155454819Y-88714285D01*
D11*
X139333334Y-87203340D02*
X139404762Y-87227149D01*
X139404762Y-87227149D02*
X139523810Y-87227149D01*
X139523810Y-87227149D02*
X139571429Y-87203340D01*
X139571429Y-87203340D02*
X139595238Y-87179530D01*
X139595238Y-87179530D02*
X139619048Y-87131911D01*
X139619048Y-87131911D02*
X139619048Y-87084292D01*
X139619048Y-87084292D02*
X139595238Y-87036673D01*
X139595238Y-87036673D02*
X139571429Y-87012863D01*
X139571429Y-87012863D02*
X139523810Y-86989054D01*
X139523810Y-86989054D02*
X139428572Y-86965244D01*
X139428572Y-86965244D02*
X139380953Y-86941435D01*
X139380953Y-86941435D02*
X139357143Y-86917625D01*
X139357143Y-86917625D02*
X139333334Y-86870006D01*
X139333334Y-86870006D02*
X139333334Y-86822387D01*
X139333334Y-86822387D02*
X139357143Y-86774768D01*
X139357143Y-86774768D02*
X139380953Y-86750959D01*
X139380953Y-86750959D02*
X139428572Y-86727149D01*
X139428572Y-86727149D02*
X139547619Y-86727149D01*
X139547619Y-86727149D02*
X139619048Y-86750959D01*
X139785714Y-86727149D02*
X139904762Y-87227149D01*
X139904762Y-87227149D02*
X140000000Y-86870006D01*
X140000000Y-86870006D02*
X140095238Y-87227149D01*
X140095238Y-87227149D02*
X140214286Y-86727149D01*
X140357143Y-86727149D02*
X140690476Y-86727149D01*
X140690476Y-86727149D02*
X140476191Y-87227149D01*
X140171678Y-83684649D02*
X140171678Y-83184649D01*
X140171678Y-83184649D02*
X140362154Y-83184649D01*
X140362154Y-83184649D02*
X140409773Y-83208459D01*
X140409773Y-83208459D02*
X140433583Y-83232268D01*
X140433583Y-83232268D02*
X140457392Y-83279887D01*
X140457392Y-83279887D02*
X140457392Y-83351316D01*
X140457392Y-83351316D02*
X140433583Y-83398935D01*
X140433583Y-83398935D02*
X140409773Y-83422744D01*
X140409773Y-83422744D02*
X140362154Y-83446554D01*
X140362154Y-83446554D02*
X140171678Y-83446554D01*
X140957392Y-83684649D02*
X140790726Y-83446554D01*
X140671678Y-83684649D02*
X140671678Y-83184649D01*
X140671678Y-83184649D02*
X140862154Y-83184649D01*
X140862154Y-83184649D02*
X140909773Y-83208459D01*
X140909773Y-83208459D02*
X140933583Y-83232268D01*
X140933583Y-83232268D02*
X140957392Y-83279887D01*
X140957392Y-83279887D02*
X140957392Y-83351316D01*
X140957392Y-83351316D02*
X140933583Y-83398935D01*
X140933583Y-83398935D02*
X140909773Y-83422744D01*
X140909773Y-83422744D02*
X140862154Y-83446554D01*
X140862154Y-83446554D02*
X140671678Y-83446554D01*
X141171678Y-83422744D02*
X141338345Y-83422744D01*
X141409773Y-83684649D02*
X141171678Y-83684649D01*
X141171678Y-83684649D02*
X141171678Y-83184649D01*
X141171678Y-83184649D02*
X141409773Y-83184649D01*
X119333334Y-87203340D02*
X119404762Y-87227149D01*
X119404762Y-87227149D02*
X119523810Y-87227149D01*
X119523810Y-87227149D02*
X119571429Y-87203340D01*
X119571429Y-87203340D02*
X119595238Y-87179530D01*
X119595238Y-87179530D02*
X119619048Y-87131911D01*
X119619048Y-87131911D02*
X119619048Y-87084292D01*
X119619048Y-87084292D02*
X119595238Y-87036673D01*
X119595238Y-87036673D02*
X119571429Y-87012863D01*
X119571429Y-87012863D02*
X119523810Y-86989054D01*
X119523810Y-86989054D02*
X119428572Y-86965244D01*
X119428572Y-86965244D02*
X119380953Y-86941435D01*
X119380953Y-86941435D02*
X119357143Y-86917625D01*
X119357143Y-86917625D02*
X119333334Y-86870006D01*
X119333334Y-86870006D02*
X119333334Y-86822387D01*
X119333334Y-86822387D02*
X119357143Y-86774768D01*
X119357143Y-86774768D02*
X119380953Y-86750959D01*
X119380953Y-86750959D02*
X119428572Y-86727149D01*
X119428572Y-86727149D02*
X119547619Y-86727149D01*
X119547619Y-86727149D02*
X119619048Y-86750959D01*
X119785714Y-86727149D02*
X119904762Y-87227149D01*
X119904762Y-87227149D02*
X120000000Y-86870006D01*
X120000000Y-86870006D02*
X120095238Y-87227149D01*
X120095238Y-87227149D02*
X120214286Y-86727149D01*
X120476191Y-86941435D02*
X120428572Y-86917625D01*
X120428572Y-86917625D02*
X120404762Y-86893816D01*
X120404762Y-86893816D02*
X120380953Y-86846197D01*
X120380953Y-86846197D02*
X120380953Y-86822387D01*
X120380953Y-86822387D02*
X120404762Y-86774768D01*
X120404762Y-86774768D02*
X120428572Y-86750959D01*
X120428572Y-86750959D02*
X120476191Y-86727149D01*
X120476191Y-86727149D02*
X120571429Y-86727149D01*
X120571429Y-86727149D02*
X120619048Y-86750959D01*
X120619048Y-86750959D02*
X120642857Y-86774768D01*
X120642857Y-86774768D02*
X120666667Y-86822387D01*
X120666667Y-86822387D02*
X120666667Y-86846197D01*
X120666667Y-86846197D02*
X120642857Y-86893816D01*
X120642857Y-86893816D02*
X120619048Y-86917625D01*
X120619048Y-86917625D02*
X120571429Y-86941435D01*
X120571429Y-86941435D02*
X120476191Y-86941435D01*
X120476191Y-86941435D02*
X120428572Y-86965244D01*
X120428572Y-86965244D02*
X120404762Y-86989054D01*
X120404762Y-86989054D02*
X120380953Y-87036673D01*
X120380953Y-87036673D02*
X120380953Y-87131911D01*
X120380953Y-87131911D02*
X120404762Y-87179530D01*
X120404762Y-87179530D02*
X120428572Y-87203340D01*
X120428572Y-87203340D02*
X120476191Y-87227149D01*
X120476191Y-87227149D02*
X120571429Y-87227149D01*
X120571429Y-87227149D02*
X120619048Y-87203340D01*
X120619048Y-87203340D02*
X120642857Y-87179530D01*
X120642857Y-87179530D02*
X120666667Y-87131911D01*
X120666667Y-87131911D02*
X120666667Y-87036673D01*
X120666667Y-87036673D02*
X120642857Y-86989054D01*
X120642857Y-86989054D02*
X120619048Y-86965244D01*
X120619048Y-86965244D02*
X120571429Y-86941435D01*
X120171678Y-83684649D02*
X120171678Y-83184649D01*
X120171678Y-83422744D02*
X120457392Y-83422744D01*
X120457392Y-83684649D02*
X120457392Y-83184649D01*
X120695488Y-83684649D02*
X120695488Y-83184649D01*
X120695488Y-83184649D02*
X120862155Y-83541792D01*
X120862155Y-83541792D02*
X121028821Y-83184649D01*
X121028821Y-83184649D02*
X121028821Y-83684649D01*
D10*
X155454819Y-70841666D02*
X154978628Y-71174999D01*
X155454819Y-71413094D02*
X154454819Y-71413094D01*
X154454819Y-71413094D02*
X154454819Y-71032142D01*
X154454819Y-71032142D02*
X154502438Y-70936904D01*
X154502438Y-70936904D02*
X154550057Y-70889285D01*
X154550057Y-70889285D02*
X154645295Y-70841666D01*
X154645295Y-70841666D02*
X154788152Y-70841666D01*
X154788152Y-70841666D02*
X154883390Y-70889285D01*
X154883390Y-70889285D02*
X154931009Y-70936904D01*
X154931009Y-70936904D02*
X154978628Y-71032142D01*
X154978628Y-71032142D02*
X154978628Y-71413094D01*
X154454819Y-70508332D02*
X154454819Y-69841666D01*
X154454819Y-69841666D02*
X155454819Y-70270237D01*
D13*
%TO.C,R6*%
X152977500Y-72937742D02*
X152977500Y-73412258D01*
X154022500Y-72937742D02*
X154022500Y-73412258D01*
%TO.C,SW5*%
D12*
X131000000Y-84000000D02*
X136000000Y-84000000D01*
X136000000Y-90000000D01*
X131000000Y-90000000D01*
X131000000Y-84000000D01*
D13*
%TO.C,R8*%
X155977500Y-72937742D02*
X155977500Y-73412258D01*
X157022500Y-72937742D02*
X157022500Y-73412258D01*
%TO.C,R1*%
X155977500Y-87237258D02*
X155977500Y-86762742D01*
X157022500Y-87237258D02*
X157022500Y-86762742D01*
%TO.C,SW3*%
D12*
X144500000Y-70000000D02*
X149500000Y-70000000D01*
X149500000Y-76000000D01*
X144500000Y-76000000D01*
X144500000Y-70000000D01*
D13*
%TO.C,R4*%
X151477500Y-87237258D02*
X151477500Y-86762742D01*
X152522500Y-87237258D02*
X152522500Y-86762742D01*
%TO.C,R5*%
X151477500Y-72937742D02*
X151477500Y-73412258D01*
X152522500Y-72937742D02*
X152522500Y-73412258D01*
%TO.C,R3*%
X152977500Y-87237258D02*
X152977500Y-86762742D01*
X154022500Y-87237258D02*
X154022500Y-86762742D01*
%TO.C,SW2*%
D12*
X131000000Y-77000000D02*
X136000000Y-77000000D01*
X136000000Y-83000000D01*
X131000000Y-83000000D01*
X131000000Y-77000000D01*
%TO.C,SW6*%
X144500000Y-84000000D02*
X149500000Y-84000000D01*
X149500000Y-90000000D01*
X144500000Y-90000000D01*
X144500000Y-84000000D01*
%TO.C,SW1*%
X117500000Y-70000000D02*
X122500000Y-70000000D01*
X122500000Y-76000000D01*
X117500000Y-76000000D01*
X117500000Y-70000000D01*
%TO.C,J1*%
X159212500Y-72000000D02*
X160212500Y-72000000D01*
X159212500Y-75000000D02*
X159212500Y-72000000D01*
X159212500Y-85000000D02*
X159212500Y-88000000D01*
X159212500Y-88000000D02*
X160212500Y-88000000D01*
X165612500Y-88000000D02*
X165612500Y-72000000D01*
X158012500Y-84500000D02*
X157312500Y-85200000D01*
X157312500Y-83800000D01*
X158012500Y-84500000D01*
G36*
X158012500Y-84500000D02*
G01*
X157312500Y-85200000D01*
X157312500Y-83800000D01*
X158012500Y-84500000D01*
G37*
%TO.C,SW4*%
X131000000Y-70000000D02*
X136000000Y-70000000D01*
X136000000Y-76000000D01*
X131000000Y-76000000D01*
X131000000Y-70000000D01*
D13*
%TO.C,R2*%
X154477500Y-87237258D02*
X154477500Y-86762742D01*
X155522500Y-87237258D02*
X155522500Y-86762742D01*
%TO.C,SW7*%
D12*
X137500000Y-84000000D02*
X142500000Y-84000000D01*
X142500000Y-90000000D01*
X137500000Y-90000000D01*
X137500000Y-84000000D01*
%TO.C,SW8*%
X117500000Y-84000000D02*
X122500000Y-84000000D01*
X122500000Y-90000000D01*
X117500000Y-90000000D01*
X117500000Y-84000000D01*
D13*
%TO.C,R7*%
X154477500Y-72937742D02*
X154477500Y-73412258D01*
X155522500Y-72937742D02*
X155522500Y-73412258D01*
%TD*%
M02*
